<?xml version="1.0" encoding="UTF-8"?>
<svg id="Church" xmlns="http://www.w3.org/2000/svg" viewBox="0 0 288.26 381.24">
  <defs>
    <style>
      .cls-1 {
        stroke-width: .75px;
      }

      .cls-1, .cls-2 {
        fill: none;
        stroke: #1d1d1b;
        stroke-miterlimit: 10;
      }

      .cls-2 {
        stroke-width: .5px;
      }
    </style>
  </defs>
  <g>
    <path class="cls-2" d="m124.23,31.43s-7.31,1.38-9.41,2.82-4.42,4.34-5.86,6.44-1.81,3.4-2.39,4.2-1.88.87-1.16,2.1.51,2.24.14,2.82-.87.8-.65,1.95-.58,2.61.72,2.53,6.95-1.23,9.77-1.3c2.82-.07,11.66-1.95,13.32-2.24s3.04-.58,4.85-.58,7.38-.58,9.77-1.16,5.14-.8,4.85-1.88-1.09-2.97-3.04-4.27-3.62-2.25-4.27-4.34-1.95-3.19-3.26-3.76-3.62-1.81-5.07-2.32-3.76-.87-4.92-1.01-3.4,0-3.4,0Z"/>
    <path class="cls-2" d="m148.21,47.79s11.13,4.27,13.15,5.21,2.17.8,1.45,2.53-3.19,4.56-5.72,4.85c-3.1.35-6.31-.38-9.21-1.44-3.09-1.12-6.25-2.18-9.23-3.56-2.63-1.21-4.86-3.01-6.84-5.12"/>
    <path class="cls-2" d="m148.21,59.06s5.63.53,8.09-.48c2.46-1.01,3.69-1.88,5.07-2.97s1.84-1.3,1.84-1.3"/>
    <path class="cls-2" d="m105.62,54.3s-.36,3.69-.43,5.72,0,5.28-1.74,9.12c-1.74,3.84-2.75,6.95-4.56,9.19s-2.75,3.62-2.75,3.62"/>
    <path class="cls-2" d="m145.21,57.98s.31,1.02-.42,1.89-.94,1.59-1.23,2.39-.87,1.09-.8,1.95.36,1.16.36,1.16"/>
    <path class="cls-2" d="m135.38,68.13s4.49,1.95,6.88,2.9c2.39.94,2.68,1.59,3.55,2.24s.39,1.45-.53,2.82-5.62,8.11-6.71,9.48-2.03,2.1-3.19,1.38-5.5-3.62-6.95-5-2.49-4.05-1.9-6.44,1.46-4.2,3.06-5.36,4.05-2.03,5.79-2.03Z"/>
    <path class="cls-2" d="m136.71,68.71s1.78-1.3,3.59-2.1,2.46-.94,2.46-.94c0,0,.92-.72,1.26,0s1.79,7.6,1.79,7.6"/>
    <path class="cls-2" d="m126.53,78.44s-.14.77-.17,2.58.15,3.91.17,4.78-.2,1.23,1.1,1.01,4.56-.09,5.72.06,2.03.08,2.03.08"/>
    <path class="cls-2" d="m118.89,54.72s2.66,1.9,5.2,5.16,6.92,9.43,6.92,9.43"/>
    <line class="cls-2" x1="119.23" y1="67.41" x2="126.44" y2="75.96"/>
    <path class="cls-2" d="m119.23,64.66s.87,1.16.43,1.95-1.09,1.09-2.24.8-2.82-.35-3.91-2.06c-1.09-1.71-2.03-3.86-1.59-6.15s.65-3.16,1.88-4.1,2.1-1.29,3.47-.97,1.81.32,1.95,1.62"/>
    <path class="cls-2" d="m117.42,55.03s-1.74.14-2.53,1.38-1.16,2.36-.8,4.36.45,2.44,1.71,2.37.03-1.39.83-1.45,1.38.8,1.81,1.02.54-.08.45-1.02,1.29-1.79.35-2.48"/>
    <path class="cls-2" d="m126.53,86.97s-1.36.2-2.59,1.07c-.91.64-2.28,1.22-2.46,2.46-.14,1.01,0,2.24,0,2.24"/>
    <path class="cls-2" d="m147.25,141.83s0-1.74-.58-3.33-1.88-4.42-2.97-6.95-2.53-7.38-3.55-10.79c-1.01-3.4-2.1-4.05-3.44-6.08s-2.78-4.34-4.38-7.24-2.46-4.85-3.76-6.44-3.4-4.49-4.6-5.36-1.12-1.59-1.14-1.95-3.31-1.88-6.08-3.4-7.88-5.72-10.77-7.58-6.59-1.11-8.33-1.11-1.88.51-2.39,1.11-1.01,1.5-1.01,1.5c0,0-3.98,4.05-5.79,7.75s-4.71,9.27-5.79,12.96c-1.09,3.69-1.52,6.23-1.38,12.23s2.1,19.76,2.17,24.69c.07,4.92,2.97,28.52,3.33,32.29.36,3.76,4.56,27.8,5.79,32.94s1.09,9.03,4.46,10.38,20.85,3.38,27.32,2.41c6.47-.97,17.76-7.43,21.81-9.27,4.05-1.83,6.76-3.96,6.76-3.96,0,0,1.25.1.97-2.03s-1.85-15.44-2.18-19.98-1.3-21.33-1.3-21.33l-.29-3.47"/>
    <path class="cls-2" d="m96.63,100.01c.39-.28.77-.56,1.14-.83,2.67-1.95,6.07-3.34,9.42-2.69,5.5,1.06,8.59,2.32,11.2,6.18,2.61,3.86,5.59,17.57,6.56,22.78s2.52,8.69,1.41,7.72-5.17-1.35-9.61-.29-8.4,2.41-10.62,4.05-6.95,4.15-8.11,5.31-2.51.97-3.09-1.35-4.05-14.48-4.54-18.82-1.16-13.21.38-16.21c1.21-2.36,3.64-4.23,5.85-5.85Z"/>
    <path class="cls-2" d="m96.66,142.93s2.23.31,4.65,0,3.67-.5,3.67-.5"/>
    <line class="cls-2" x1="126.36" y1="133.17" x2="127.85" y2="141.18"/>
    <path class="cls-2" d="m127.1,141.56s1.71-1.16,4.51-1.16,7.53.89,11.58,1.16c4.05.27,9.56.48,13.71,0,4.15-.48,8.69-1.74,14.38-3.28,5.7-1.54,8.78-4.15,12.45-5.12s6.37-.48,8.59-.39,3.47-.12,5.41-.21,2.99.69,3.47,1.85-.29,2.32-1.16,2.75-4.34.43-4.34.43"/>
    <path class="cls-2" d="m200.05,137.17s.58,1.01.77,1.59.39,1.25-.58,2.41-3.38,1.25-3.38,1.25h-2.61"/>
    <path class="cls-2" d="m194.26,146.29s2.8.39,4.25-.77,1.06-1.82,1.06-2.45-.23-1.22-.23-1.22"/>
    <path class="cls-2" d="m196.94,146.2s.02,1.54-.94,2.51-2.41,1.93-5.5,2.99c-3.09,1.06-6.56.87-9.17,0s-6.37,0-6.37,0c0,0-11.97,3.86-18.82,6.27-6.85,2.41-19.02,4.73-22.01,4.73s-6.56-.39-9.56-.48c-2.99-.1-4.44-.39-6.47-2.12s-5.5-5.98-8.3-10.33c-2.8-4.34-6.98-10.7-6.98-10.7"/>
    <path class="cls-2" d="m145.44,135.53s7.7,1.21,14.55.92c6.85-.29,17.09-3.67,19.31-4.73s2.7-2.51,6.18-1.64c3.47.87,4.34-.05,5.98-.27s3.28.56,2.8,1.23-1.06,1.76-1.06,1.76"/>
    <path class="cls-2" d="m167.89,139.2s-.72-1.92,1.14-4.22"/>
    <path class="cls-2" d="m172.17,138.03s-.85-2.12,0-3.87"/>
    <path class="cls-2" d="m193.19,129.93l18.45-27.55s-.29-.39,1.06,0,4.92,1.83,6.66,2.22,4.44,1.35,4.44,1.35"/>
    <path class="cls-2" d="m200.98,139.8l29.86-26.42s.29-.87,0-1.54-1.25-2.12-1.25-2.12"/>
    <path class="cls-2" d="m199.61,132.84s11.73-11.16,19.55-16.28c7.82-5.12,13.8-9.07,13.8-9.07,0,0,1.74-1.35,0-1.35h-5.41"/>
    <path class="cls-2" d="m198.71,132.61s9.79-11.41,17.97-17.98,12.43-9.65,12.43-9.65c0,0,1.16-.97,0-1.06s-2.9,0-2.9,0c0,0-.58,0-1.16.77s-6.47,5.89-10.33,9.65c-3.86,3.76-16.99,18.23-16.99,18.23"/>
    <path class="cls-2" d="m107,148.71s-6.78,18.53-10.34,22.15c-3.56,3.62-5.44,7.09-5.44,7.09"/>
    <path class="cls-2" d="m112.26,153.34s-3.38,25.05-7.29,30.84c-3.91,5.79-4.16,10.42-4.16,10.42"/>
    <path class="cls-2" d="m122.49,164.92s-.29,8.25-1.3,14.19-3.91,9.56-4.92,12.6"/>
    <path class="cls-2" d="m95.48,216.4s3.93,11.8,5.34,15.85c1.41,4.05,2.71,18.39,2.42,23.89-.29,5.5.66,20.56.04,26.21-.62,5.65,1.99,22.88,2.86,26.79s.72,9.56,1.3,11.58.58,4.92,3.04,3.62c2.46-1.3,7.96-.29,10.57-.43s5.94.29,6.52-1.3c.58-1.59,1.45-3.19,1.3-6.23-.14-3.04-.84-15.64.02-22.73s5.63-23.6,6.35-27.94,1.45-18.39,4.49-20.7c3.04-2.32,2.03-8.11,1.88-12.02-.14-3.91-1.38-19.42-1.38-19.42"/>
    <path class="cls-2" d="m128.63,296.54s1.25-1.6,2.84-2.17,1.59-2.9,1.59-4.05.72-10.71,2.32-15.35,3.47-6.95,3.76-10.14c.29-3.19,2.29-22.5,2.29-22.5"/>
    <path class="cls-2" d="m102.47,241.84s12.63,5.47,18.14,6.04c5.5.58,19.11-2.9,19.11-2.9"/>
    <path class="cls-2" d="m130.38,294.93s2.47,2.52,4.65,3.49c2.18.97,4.98,1.06,8.84,1.06s7.32,1.35,7.86,4.25.63,5.41-3.81,8.3c-4.44,2.9-8.59,3.47-11.29,3.57s-7.81,0-7.81,0"/>
    <path class="cls-2" d="m128.82,313.19s4.72-.1,9.45-.68c4.73-.58,10.23-3.47,11.49-5.21s1.76-3.01,1.8-4.21"/>
    <path class="cls-2" d="m108.16,323.56s-2.41,1.88-2.32,5.65c.1,3.76-.97,7.43,2.32,8.59s18.24,3.67,24.04,3.47,14,.41,18.05.01c4.05-.4,5.02-4.06,4.44-5.8-.58-1.74-2.8-5.12-5.98-5.41s-7.53-.48-10.52-1.45-2.8-1.18-5.5-3.97c-2.7-2.79-4.61-3.39-4.61-3.39"/>
    <path class="cls-2" d="m105.75,333.09s5.3,2.9,11.38,3.98c6.08,1.09,19.69,1.81,27.58,1.59,7.89-.22,9.7-1.54,9.81-3.59"/>
  </g>
  <path class="cls-1" d="m83.47,141.83s.82,9.96,1.36,14.76,1.9,14.34,2.03,17.98,2,12.72,2.97,18.07,1.95,10.76,2.47,13.09.96,7.13,2.07,8.9,1.22,2.1,1.88,4.08,3.58,10.63,4.17,12.39,1.26,4.52,1.58,6.97.92,8.59.92,8.59c0,0,.23,6.79.26,11.13s.28,13.62.29,16.68-.39,9.03-.27,11.4,1.18,13.37,2.01,18.13,1.43,8.17,1.59,10.47.46,5.47.76,6.8.58,2.29.58,2.29c0,0-2,2-2.16,3.82s-.71,5.11-.25,6.92.67,3.01,2.41,3.5,5.31,1.43,10.52,2.16,9.49,1.35,12.12,1.32,8.45.03,11.08.08,7.26.58,9.09-.18,2.85-.99,3.56-2.99.71-2.44-.51-4.12-1.8-2.99-3.56-3.49-6.43-.77-8.58-1.15-4.55-.18-6.39-1.97-4.12-4.04-4.12-4.04l-3.3-2.15s.71-.84.76-2.37,0-3.3,0-3.3c0,0,9.9.36,13.06-.81s6.08-2.01,7.77-4.06,1.74-1.79,2.34-4.18-.09-4.01-1.41-4.97-2.5-1.93-5.05-2.02-4.31.13-6.63-.25-4.76-1.14-6.24-2.38-2.28-2.01-2.28-2.01l1.75-.99s.82-.4.9-2.61.43-8.34,1.28-12.02,2.42-7.02,3.54-10.2,1.68-5.1,1.86-8.51,1.58-17.86,1.58-17.86c0,0,.75-1.47.58-4.78s-1.65-24.4-1.65-24.4c0,0,8.83-4.4,10.97-5.71s3.02-.87,2.72-3.25-1.93-16.3-2.18-19.98-1.12-18.32-1.12-18.32l-.46-6.49s10.77-3.51,16.22-5.3,7.87-3.54,11.41-3.18,6.89,1.4,10.51.91,5.73-1.59,6.95-2.87,1.7-3.02,1.7-3.02c0,0,.72.06,1.57-.83s1.06-2.45,1.06-2.45l-.23-1.22s.71-.25,1.34-1.29l.63-1.04,20.36-18.02,7.96-7.04c1.22-1.08,1.9-1.41,1.22-2.63s-1.25-2.12-1.25-2.12c0,0,.92-.42,2.43-1.59s1.91-1.98,1.43-1.98h-5.53s1.32-1.1,1.51-1.49-.32-.82-1.77-.77-2.09.27-2.6.81-1.25,1.25-1.25,1.25l-11.88-3.74-18.62,27.57s-2.38.26-3.57.45-2.51.23-3.76-.04-2.7-.86-4.68.34-3.32,1.59-5.45,2.64-10.56,2.81-13.2,3.05-7,.35-10.12.08-7.06-.77-7.06-.77c0,0-1.96-4.09-3.11-7.73s-2.12-7.92-3.16-9.55-2.57-3.45-4.54-6.83-3.86-7.58-5.53-9.71-4.14-4.93-5.13-6.06-.71-1.8-1.4-2.22-1.1-.67-1.1-.67c0,0-.55-2.56.66-3.44s3.73-2.21,7.22-2.6,4.62.07,6.02.26,1.16,1.23,2.77-.88,8.11-11.09,8.11-11.09c0,0-.18-.43-.46-1.71s-1.13-5.14-1.13-5.14c0,0-.21-2.14-.65-2.46s-1.36-.02-1.26-1.07,1.17-2.14,1.26-2.92,1.08-2.18,1.15-2.48-.53-1.42,1.09-.84,7.05,2.95,10,2.09,4.35-1.46,5.39-3.04,2.97-3.01.21-4.18-13.65-5.44-13.65-5.44c0,0,.51-.68-.7-2.32s-1.58-2.04-2.99-3.02-2.17-1.57-3.26-3.03-.49-2.61-2.06-3.64-3.37-2.15-5.55-2.9-3.95-1.31-5.82-1.65-3.98.25-4.99.48-2.82.4-5.19,1.33-2.87.77-4.75,2.84-3.31,3.64-4.28,5.3-1.09,2.89-2.06,3.7-1.62.83-1.16,2.1.47,2.8-.22,3.31-.38,1.88-.34,2.72.78,1.28.78,1.28c0,0-.04,4.18-.51,7.71s-.76,5.24-2.77,9.67-4.32,8.03-6.21,10.28-3.72,4.07-5.06,5.94-5.02,8.4-6.57,12.26-3.07,6.91-3.23,13.89,1.21,16.54,1.21,16.54l.98,11.25Z"/>
</svg>