<?xml version="1.0" encoding="UTF-8"?>
<svg id="Church" xmlns="http://www.w3.org/2000/svg" viewBox="0 0 288.26 381.24">
  <defs>
    <style>
      .cls-1 {
        stroke-width: .75px;
      }

      .cls-1, .cls-2 {
        fill: none;
        stroke: #1d1d1b;
        stroke-miterlimit: 10;
      }

      .cls-2 {
        stroke-width: .5px;
      }
    </style>
  </defs>
  <g>
    <path class="cls-2" d="m169.51,55.21s1.04-.52,1.93-.74,1.41-.37,1.41-1.78-.59-1.63-2.9-2.75-4.23-3.86-5.35-5.42-3.64-9.29-4.53-13.52-2.53-5.2-3.94-6.09-6.02-.74-9.21-.74-7.21-.45-10.18.89c-2.97,1.34-4.09,1.11-5.87,2.23s-3.94,3.86-4.84,5.35.16,6.31.08,7.43-.67,1.56-.22,2.45.52,2.67.37,4.01,0,3.42,0,3.42c0,0,.52,1.11-.97,3.12s-3.71,3.79-4.31,5.35-1.41,1.41,0,2.3,7.8-.74,10.4-1.41,14.56-2.67,18.05-3.27c3.49-.59,13.45-2.6,16.49-3.57,3.05-.97,6.39-1.2,6.39-1.2"/>
    <path class="cls-2" d="m121,60.7s-2.08,3.71-2.3,4.68.67.22,2.3.74,4.83,1.56,6.46,2.38,3.49.45,3.94-.74,1.26-3.27,1.93-4.61,0-4.28,0-4.28"/>
    <path class="cls-2" d="m141.82,57.33s.13,4.04.8,5.01,3.01,1.26,3.92,2.08,1.43,3.57,2.92,1.56,4.53-5.27,5.05-5.35,0,1.71.74,2.6,4.9,1.86,5.94,2.53,4.61-.37,2.97,1.41-.72,1.49.42,1.11,3.37-3.12,4.41-5.87,1.41-4.75,1.04-6.24-1.74-4.32-1.74-4.32"/>
    <path class="cls-2" d="m139.99,66.19s.99,1.98.19,1.98-1.9-.8-2.47-.99-1.79-2.13-2.21-2.7-1.18-1.86-1.14-3.31.57-2.61.57-2.61"/>
    <path class="cls-2" d="m139.42,59.99s.69-1.13,0-1.12-2.74-.22-2.66.93-.11,2.02.67,2.28,1.12,1.18,1.46,1.83,1.29.99,1.22,0-.26-1.48,0-2.09"/>
    <path class="cls-2" d="m137.71,67.18s.69,2.78,1.67,5.94,4.15,9.74,4.15,9.74"/>
    <path class="cls-2" d="m145.68,63.91s4.05,6.78,5.35,8.68,2.36,2.44,2.36,2.44"/>
    <path class="cls-2" d="m163.99,66.07s-1.46,1.4-2.61,2.49-1.52,1.51-1.45,2.58,0,2.06,0,2.06"/>
    <path class="cls-2" d="m154.3,73.61s3.05-.42,4.34-.42,1.75-.53,1.79.42-.38,6.09-.34,7.23-.46,1.6-.72,2.02-.95,1.75-2,3.39-1.54,1.79-2.68,2.44-4.68,2.02-5.44,2.32-2.7.19-3.88,0-3.23.15-3.27-1.07-.19-4.15-.23-5.44-.76-1.64.46-1.64,4,.57,5.21.72,3.08-.57,3.92-2.4,1.75-6.47,1.94-6.96.91-.61.91-.61Z"/>
    <path class="cls-2" d="m134.86,91.35s-.38-2.66,1.48-2.85,5.01.83,5.74,1.18"/>
    <path class="cls-2" d="m121,66.13s-3.5,2.96-5.13,4.21-4.87,3.62-4.87,3.62"/>
    <path class="cls-2" d="m149.09,148.03c.17-3.08-.91-6.91-1.48-11.02-.57-4.11-1.48-9.99-2.11-13.59s-3.25-11.46-3.6-12.25-1.83-5.71-3.16-8.26-1.79-5.33-2.25-6.28.04-3.46-.61-4.26-3.39-2.85-5.56-4.83c-2.17-1.98-9.13-8.56-12.06-10.58-2.93-2.02-7.27-3.01-7.8-3.2s-1.71,1.1-1.71,1.1c0,0-5.29,6.47-7.95,10.35-2.66,3.88-4.72,5.18-7.23,10.05s-4.72,9.29-5.48,16.59c-.76,7.31-.99,12.71-.99,16.29s.99,7,1.14,10.05.46,15.68,1.14,20.55c.69,4.87,1.14,11.72,1.75,15.45s.69,4.72,2.28,6.47,4.26,3.88,5.86,5.1,2.89-.99,5.56-1.14,14.31-1.14,17.51-1.45c3.2-.3,3.65.76,4.72.76"/>
    <path class="cls-2" d="m114.42,91.99s5.63,1.37,8.14,2.89,4.87,5.33,5.86,7.76,2.44,13.47,2.36,18.12c-.08,4.64-.9,9.89-1.86,13.7-.96,3.81-1.65,6.24-1.87,8.3s.69,3.88-.46,3.43-6.39-2.59-8.45-3.81c-2.06-1.22-4.41-.61-6.24-1.14s-6.39.08-8.52.46-3.73,1.83-4.26-.08-.23-11.11-.84-14.39-3.12-18.04-2.82-20.78,3.58-7.61,6.24-9.67,5.86-4.26,8.98-4.8"/>
    <path class="cls-2" d="m151.56,163.39s-.91,5.86-.99,7.99-.08,4.11,0,6.24,1.08,3.2.47,5.78c-.62,2.59.22,2.21.98,4.57s0,2.59,0,4.19.65,4.64-1.5,5.1-4.81,1.9-8.32,2.06-8.07-.15-10.88,0-6.93,1.29-10.58,1.07c-3.65-.23-7.92-.99-11.65-.61s-7.31-.69-9.13-.69-6.01-.3-7.08-.91-2.36-3.12-2.21-5.4,1.52-6.47,1.6-8.22,1.14-3.88,1.14-3.88"/>
    <path class="cls-2" d="m139.31,166.97s5.4,6.85,7.61,8.75c2.21,1.9,3.27,2.36,3.27,2.36"/>
    <path class="cls-2" d="m114.42,179.53s12.25-.61,15.38,1.6,8.52,1.98,11.57,3.5c3.04,1.52,6.32,4.11,6.32,4.11"/>
    <path class="cls-2" d="m94.32,188.74s2.28,2.97,5.18,3.73c2.89.76,3.5.61,3.5.61"/>
    <path class="cls-2" d="m100.57,194.6s4.64-1.75,11.26-1.07,8.68,2.06,12.63,1.83"/>
    <path class="cls-2" d="m123.17,187.59s1.9-2.85,7.88-1.46c5.97,1.39,7.12,1.59,9.02,2.18"/>
    <line class="cls-2" x1="125.8" y1="145.86" x2="126.37" y2="147.41"/>
    <path class="cls-2" d="m99.45,142.28s1.35,14.19,4.7,19.29,1.83,5.63,9.97,6.01c8.14.38,14.84,1.67,20.02.53,5.18-1.14,19.03-5.48,21.77-6.32s6.09-1.37,7-2.13,4.49-1.9,5.86-1.9,8.3.08,9.59-.38,3.65-2.06,3.88-2.82.84-2.06.99-2.82-.69-2.13,1.22-3.2,2.28-1.71,2.59-2.68,0-1.81,0-1.81"/>
    <path class="cls-2" d="m184.14,144.36s4.11-.23,5.1-.91.91-3.12-.99-3.43-7.15.3-9.36.38-4.95-.3-7.08.84c-2.13,1.14-6.93,3.12-9.06,3.96s-5.02,1.67-7.54,2.21-7.92.99-10.81,1.14c-2.89.15-8.3-.3-12.33-.46s-4.95-.91-6.7-.3-4.11,1.83-5.86,3.43-2.59,4.21-2.59,4.21"/>
    <path class="cls-2" d="m147.25,134.54s9.89-2.49,14.91-5.4,5.37-3.03,7.76-3.2,4.74.46,5.82,1.08"/>
    <path class="cls-2" d="m167.13,127.71s4.57-.17,6.6.34c.45.11,2.25.43,2.3,1.04.03.41-1.02.74-1.3.9-.95.54-1.99,1-3.09,1.08-1.47.11-4.5.29-4.5.29"/>
    <path class="cls-2" d="m152.06,147.89l-2-2.88s6.17-5.42,9.48-7.19,12.09-6.74,12.09-6.74"/>
    <path class="cls-2" d="m186.59,139.94s12.79-14,13.64-14.28.97-.17.86.51-.46,1.37-1.88,2.85-11.3,10.91-11.3,10.91"/>
    <polyline class="cls-2" points="174.3 128.19 187.85 118.52 198.3 125.51 200.53 125.57"/>
    <line class="cls-2" x1="179.87" y1="140.35" x2="198.3" y2="125.51"/>
    <polyline class="cls-2" points="159.08 160.95 161.13 162.42 165.49 158.48"/>
    <path class="cls-2" d="m94.02,202.74s14.46,1.29,17.2,1.6,2.51-.08,2.44,1.29.38,5.71.04,7.23.19,2.97-1.49,2.97-10.28-.23-13.55-.91-6.62-.99-7.54-1.37-.76-1.45.46-3.12c1.22-1.67,1.15-7.8,2.44-7.69Z"/>
    <path class="cls-2" d="m92.2,197.56s-.15,4.95,0,5.86.62,2.22.62,2.22"/>
    <path class="cls-2" d="m95.71,214.38s4.02,8.15,4.63,13.02c.61,4.87,1.79,15.38,1.85,25.5.06,10.12-.17,18.8.67,21.01s3.5,2.89,3.04,5.63c-.46,2.74.99,14.99.76,18.34s.76,8.14,1.45,10.2,1.29,5.86,2.66,7.23,1.6,3.43,7.84,2.74,10.88-.91,13.55-1.75,5.4-2.97,7.31-5.33,3.43-6.7,4.95-8.52c1.52-1.83.84-3.5.53-5.48s-1.45-3.73-.91-4.95,1.9-6.55,2.89-10.96,2.21-19.49,3.12-23.37c.91-3.88,1.98-11.57,1.75-13.4s.91-11.42.91-15.98-.08-16.82-.84-21.31-1.35-9.74-1.35-9.74"/>
    <path class="cls-2" d="m113.83,213.24s.44,14.08.67,17.81c.23,3.73.79,7.92-.67,7.99s-12.26.37-12.26.37"/>
    <path class="cls-2" d="m131.32,199.31s.76,10.58,1.37,14.54-.3,10.2,1.37,7.54,7.99-9.97,7.84-12.63.3-9.44.3-9.44"/>
    <path class="cls-2" d="m146.39,283.36s-.61.59-2.5,1.28-8.77,2.44-13.03,2.13-10.66-.91-13.62-1.9-3.35-1.22-3.35-3.5-.15-10.5,0-15.15.38-16.14.38-17.56,1.45-1.09,1.45-1.09c0,0,15.98.91,22.07,1.07,6.09.15,9.29-.53,9.29-.53l1.6-.53s1.14-.53.91,2.28c-.23,2.82-1.26,20.93-1.26,20.93"/>
    <path class="cls-2" d="m114.84,318.09s1.33,3.8,1.82,6.77,0,4.8,0,4.8"/>
    <path class="cls-2" d="m116.21,318.19s6.1.63,8,.55,2.37-.8,3.83-1.66"/>
    <path class="cls-2" d="m116.8,328.91s-.29,2.31.29,3.72,2.02,3.39,3.92,4.15,3.92.61,5.02,0,1.9-1.88,3.04-3.68,1.94-3.36,3.04-3.44,1.71-.06,1.56-.75.04-1.57.69-2.56,1.8-2.92,1.8-2.92"/>
    <path class="cls-2" d="m116.73,328.63s-1.43.91-2.04,2.63-1.03,3.01-1.33,4.6-.49,3.31-.49,5.25.57,4.3,3.62,5.14c3.04.84,3.5.84,8.68.95,5.18.11,10.43.95,13.62,1.75s10.09.91,12.71.19,8.83-3.23,11.49-5.78,3.23-4.15,3.12-5.9-.65-3.16-2.28-4.45-2.44-1.56-4.3-1.71-4.34.04-5.82-.38-4.07-1.14-6.96-1.94-4.22-.95-6.28-2.55-3.96-2.74-3.96-2.74c0,0-2.47-1.94-3.12-2.51s-1.51-4.79-1.51-4.79"/>
    <path class="cls-2" d="m113.06,337.7s.1,2.8,4.21,4.67,6.1,1.71,10.76,2.25c4.25.49,8.55.73,12.83.73,2.48,0,5.01-.05,7.43-.6s4.59-1.54,6.71-2.69c2.3-1.25,4.85-2.54,6.68-4.46.65-.68,1.62-1.76,1.49-2.8-.15-1.26-.46-1.94-1.07-2.55s-1.37-.8-1.37-.8"/>
    <path class="cls-2" d="m156.7,331.21s0,4.77,0,6.67,1.04,2.66,1.04,2.66"/>
    <path class="cls-2" d="m146.6,282.45s2.2,1.96,1.63,4.02-1.03,3.03-2.28,4.22-2.06,2-2.06,2"/>
    <path class="cls-2" d="m114.05,259.98s11.71,1.22,20.01,1.14c8.3-.08,14.94-1.91,14.94-1.91"/>
    <path class="cls-2" d="m126.36,50.53s12.68-2.28,18.73-3.31c6.05-1.03,19.17-3.31,19.17-3.31"/>
    <line class="cls-2" x1="126.14" y1="51.56" x2="164.88" y2="44.89"/>
    <ellipse class="cls-2" cx="160" cy="156.16" rx="4.4" ry="4"/>
    <path class="cls-2" d="m155.66,156.83c-.22-.48-.35-1-.35-1.56,0-2.21,1.97-4,4.4-4,2.18,0,3.99,1.44,4.34,3.33"/>
    <line class="cls-2" x1="154.71" y1="147.5" x2="156.59" y2="152.47"/>
    <line class="cls-2" x1="158.78" y1="146.52" x2="160.76" y2="151.4"/>
    <path class="cls-2" d="m129.45,103.11s2.97,5.25,3.65,8.56c.69,3.31,1.37,6.12,0,7.46s-1.43,3.73-1.43,3.73"/>
    <line class="cls-2" x1="114.42" y1="119.66" x2="128.65" y2="129.02"/>
    <path class="cls-2" d="m98.87,139.48s8.98-2.58,14.24-2.24,11.43,3.43,12.11,3.65,1.98.81,1.98.81"/>
    <path class="cls-2" d="m91.55,114.75s-.57,5.21,1.94,8.6c2.51,3.39,5.14,8.01,5.14,8.01"/>
    <line class="cls-2" x1="90.66" y1="132.72" x2="99.68" y2="144.33"/>
    <line class="cls-2" x1="90.66" y1="141.13" x2="100.36" y2="148.96"/>
    <line class="cls-2" x1="94.17" y1="151.28" x2="102.42" y2="157.75"/>
    <path class="cls-2" d="m118.95,112.98s5.79,5.65,8.26,8.05,2.24,4.48,2.24,4.48"/>
    <path class="cls-2" d="m122.14,111.9c.8.46,4.11,3.65,5.82,5.82"/>
    <path class="cls-2" d="m122.71,103.79s5.25,6.28,5.94,8.11"/>
    <path class="cls-2" d="m130.54,124.91s4.62-.91,6.44-2.05"/>
    <line class="cls-2" x1="130.54" y1="126.85" x2="135.96" y2="125.91"/>
  </g>
  <path class="cls-1" d="m121,66.13l-6.55,5.28-3.33,2.54s-.92-.91-1.65,0-4.65,5.65-7.15,9.13-4.84,6.03-6.24,8.11-4.24,6.84-5.41,10.15-2.19,6.61-2.52,9.88-1.01,13.68-1.01,13.68c0,0-.17,3.72.08,5.68s.96,6.24,1.06,8.9.3,8.68.49,11.8.64,6.99,1.15,12.11.88,9.18,1.34,11.67.32,3.06,1.07,4.15,1.07,1.46,1.07,1.46c0,0-.77,1.69-1.14,3.88s-1.14,4.96-1.37,6.59-.48,2.84.14,4.24,1.09,2.48,1.09,2.48c0,0-.07,2.61,0,4.09s.74,3.38.74,3.38c0,0-.43,3.46-.94,4.39s-1.18,1.87-1.28,2.35-.49.98.7,1.56,4.34.75,4.34.75c0,0,1.65,3.47,2.4,5.47s2.03,4.75,2.69,11.45,1.18,12.9,1.28,16.73.12,12.13.12,12.13l.06,7.91s-.11,4.37.51,5.59,1.31,2.35,2.48,3.33.62,2.21.59,3.09.38,7.98.6,11.81.28,8.98.28,8.98c0,0,.7,5.11,1.9,8.99s1.34,4.75,2.75,6.14,1.86,1.81,2.46,1.91,1.02.18,1.02.18l1.36,4.61s.36,2.31.68,3.78-.16,2.15-.16,2.15c0,0-1.46.75-1.88,2.06s-1.6,4.76-1.78,7.01-.42,5.19.4,6.28.81,1.45,3.42,2.38,7.02.64,10.4.93,7.54.77,11.49,1.66,8.13.83,12.71.19,7.34-2.71,10.56-4.99,3.22-2.86,3.79-4.65.46-3.38-.36-4.55-1.85-2.41-3.75-3.24-7.13-.63-7.13-.63l-4.5-1.18s-5.48-1.2-7.1-2.01-2.39-1.4-3.52-2.2-4.25-3.01-4.25-3.01c0,0-1.8-.81-2.26-2.22s-1.11-4.08-1.11-4.08c0,0,3.72-1.42,5.45-3.18s2.13-1.57,3.99-5.19,2.44-4.49,3.11-5.57,1.21-1.62.87-3.55-1.16-4.01-1.26-5.24.04-1.14.79-1.86,1.58-1.33,2.75-3.33,1.16-2.54.6-3.68-1.77-1.37-1.47-2.71,1.25-7.26,1.48-9.96.98-10.01,1.77-13.99,1.68-9.6,1.78-11.31-.02-3,.08-4.59.97-14.23.9-18.12-.2-9.71-.35-11.86-1.03-8.69-1.03-8.69l-.81-6.29s.88-.24,1.12-.74.24-1.46.45-2.87-.18-1.91.17-3.09-.27-1.73-.34-2.86-1.27-1.61-1.1-2.85.24-2.87.35-3.92-.62-3.1-.64-4.57-.07-4.79.22-7.09.9-6.17.9-6.17l7.43-2.15,2.05,1.47,4.36-3.94s2.58-.73,4.88-.73,5.62.61,8.33-.51,3.2-1.76,3.84-3.51.55-2.28.64-3.1-.04-1.74,1.27-2.08,1.71-1.38,2.15-2.03.44-2.46.44-2.46c0,0,1.36-.2,2.21-.61s.74-1.61.53-2.09-1.52-1.34-1.52-1.34l2.19-2.51s6.14-5.86,7.56-7.29,2.31-2.26,2.88-3.37.19-1.27-.35-1.29-2.59-.06-2.59-.06l-10.09-6.99-12.1,8.51s-2.19-.88-2.96-1.11-2.94,0-3.64.09-2.91.79-5.09,2.04-7.82,3.72-7.82,3.72l-6.5,2.09-2.49.68s-.92-7.56-1.76-11.11-1.59-6.62-3.6-12.25-2.41-7.42-3.45-9.5-1.49-3.12-1.83-4.72-.1-2.6-.42-3.59-1.35-2.02-1.35-2.02c0,0-.25-1.5.49-2.35s2.26-.69,4.11-.15,2.56.3,2.62.83.19,1.08,2.05,1.25,2.94.46,4.03.27,2.23-.49,4.53-1.58,3.32-1.23,4.39-2.93,1.61-2.84,2.63-4.33.38-2.32.53-4.93.52-4.23.1-4.23-.42-.11-.42-1.26-.17-1.81,1.46-3.37,2.56-2.71,2.88-2.44.35.42-.27,1.23-1.11,1.48-.26,1.2,2.64-1.11,3.88-3.44,2.57-4.89,2.57-6.25-.35-3.4-.35-3.4c0,0-.22-.34.35-.57s2.65-.33,2.64-1.6.9-1.21-.47-2.04-1.88-.88-2.9-1.61-2.02-1.47-3.05-2.78-2.18-2.62-3.12-5.25-1.25-3.04-2.17-6.61-.81-4.88-1.8-6.59-1.77-2.67-3.55-3.7-3.12-.57-5.61-.56-7.12-.37-8.94-.11-3.56.83-5.62,1.49-4.1,1.05-5.36,2.22-2.72,2.42-3.56,3.94-1.14,1.73-.97,3.67.81,2.87.43,4.69-.51,1.53-.22,2.45.61,3.44.46,4.72.31,3.79-.72,5.35-3.45,3.54-4.23,5.06-1.79,2.6-1.19,3,.63.29,0,1.51-1.69,3.09-1.56,3.6.84.14,1.27.19,1.06.2,1.06.2Z"/>
</svg>