<?xml version="1.0" encoding="UTF-8"?>
<svg id="Elderly" xmlns="http://www.w3.org/2000/svg" viewBox="0 0 288.26 381.24">
  <defs>
    <style>
      .cls-1 {
        stroke-width: .75px;
      }

      .cls-1, .cls-2 {
        fill: none;
        stroke: #1d1d1b;
        stroke-miterlimit: 10;
      }

      .cls-2 {
        stroke-width: .5px;
      }
    </style>
  </defs>
  <g>
    <path class="cls-2" d="m83.82,57.39s-3.06,2.89-3.74,8.34c-.68,5.45-.6,8.68,1.11,12.68s1.53,5.02,3.74,6.98,4,3.74,4.85,4.09,3.06-1.87,3.4-3.74,3.91-7.57,8.77-13.02,9.19-10.3,11.06-11.66,2.3-1.53.51-3.06-5.02-3.23-6.72-4.09-5.45-2.47-7.66-2.64-4.34.26-6.21,1.28-3.74,2.98-5.7,3.23-3.4,1.62-3.4,1.62Z"/>
    <path class="cls-2" d="m114.65,59.46s9.16-1.82,14.7-3.52,5.87-2.21,5.87-2.21c0,0,3.06-.68.51,1.62s-10.38,8.85-14.72,12.51-10.81,8.51-15.4,11.66c-4.6,3.15-8.6,4.51-10.13,5.19l-2.3,1.02"/>
    <path class="cls-2" d="m85.85,86.22s-1.27,3-.5,3.68,1.79.6,2.55,1.28,1.53.17,2.13-.43.61-1.47.61-1.47"/>
    <path class="cls-2" d="m85.35,89.9s-1.53-.85-2.13,0-1.11,2.21,0,3.49.68,2.72,2.13,3.32,2.98-.51,3.74-1.87,0-3.42,0-3.42"/>
    <path class="cls-2" d="m86.65,96.82s2.19,9.16,2.19,11.97-.6,5.53,0,6.38,1.98,2.38,1.8.51.84-3.06,1.1-4.85.09-5.19-.6-6.55-1.48-3.32-1.89-5.11-.68-3.6-.68-3.6"/>
    <path class="cls-2" d="m108.33,79.43s.77-.6,2.98-1.28,9.28-2.38,9.28-2.38"/>
    <path class="cls-2" d="m114.46,89.52c.17.21,7.4-.66,7.4-.66"/>
    <path class="cls-2" d="m116.52,71.48s1.3-.18,3.09-1.12,2.85-1.45,2.77-1.96-.51-1.27-.51-1.27"/>
    <path class="cls-2" d="m122.58,71.77s-.38.64-1.32,1.4-1.28.98-1.28.98c0,0-.6.04,0,.94s2.14,3.4,2.39,4.34.55,1.4,1.31,2.21.55,1.45.26,2.3-.72,1.75-.72,2.28-.92,1.77-1.36,2.23-1.28,1.74-1.28,1.74c0,0-.81.43,0,1.06s4.26,3.91,4.89,4.89.68,1.61.94.72,1.66-2.85,2.64-4.59.98-1.97,1.11-2.77.3-.89.64-2.08.6-2.47.34-3.57-.47-3.32-.81-4.43-.64-1.36-1.79-2.89-4.13-4.77-4.13-4.77"/>
    <path class="cls-2" d="m122.38,66.7s1.48,2.6,1.83,3.66.47,1.83,0,1.96-1.18-.51-1.83-1.28-.97-1.64-.97-1.64"/>
    <path class="cls-2" d="m109.14,79.43s-.47-.3-1.19.34-1.87,2.3-2,5.11.17,4.94,1.6,5.83,4.36,1.23,5.6.38,1.74-1.53,1.32-2.43-1.57-2.21-2-2.44"/>
    <path class="cls-2" d="m87.65,101.3s-1.55,3.21-2.07,5.76.65,6.13.42,7.72,2.33,3.38,3.79,4.6,2.94.64,4.6,0,2.74-1.34,3.64-3.19,1.72-5.87,2.3-6.7.96-3,4.6-3.96,7.66-.7,9.06-.51,2.81-.26,4.85-1.09,3.51-.32,4.11-.77,1.79-2.74,1.55-3.96-.76-3.32-1.55-2.62.67,2.36-2.9,2.23-6.45-1.1-8.62-3.26-2.76-4.36-2.76-4.36"/>
    <path class="cls-2" d="m96.24,118.43s-.77,1.91-.38,3,.02,2.23.14,3.7.27,3.51,0,5.23-.42,5.62-.25,6.51.3,5.3.49,6.26.7,3.83,1.08,5.68.7,2.62,1.47,4.15.32,2.62,1.21,4.66,1.53,2.3.77,4.28-.83,1.98,0,3,2.17,3.7,2.04,5.62-.7,4.15-.32,7.28c.38,3.13.89,2.55,1.15,6.13s.13,7.79.57,9.77.13,4.79,0,8.04.33,4.47.23,5.74,1.49,2.55,2.39,3.13,4.15,1.47,9.06.38,11.94-4.02,16.85-5.43,13.4-3,17.04-4.6,5.04-2.81,5.3-4.53.89-7.91.96-10.4.26-4.6-.38-6.26-.26-2.68-.13-5.55.38-7.09-.51-10.34-2.23-8.11-1.6-9.45.64-2.68-.06-5.04-1.15-3.89-1.72-6.13-3.64-6.77-3.64-6.77"/>
    <path class="cls-2" d="m122.48,103.34s6.6,1.69,8.76,3.22,7.58,3.51,10.39,4.6,5.62,2.17,7.02,2.43,1.85-.38,1.79,1.47-1.21,4.85-3.89,7.6-6.7,7.79-9.26,10.85-3.83,5.81-5.04,7.6-1.4,1.02-2.36.57-3.38-1.02-5.74-1.15-5.04-.45-6.13-1.02"/>
    <path class="cls-2" d="m117.43,134.51s19.91-9,23.87-12.19,5.74-5.87,6-7.15.26-1.53.26-1.53"/>
    <path class="cls-2" d="m119.48,137s15.51-6.77,17.23-8.3l1.72-1.53"/>
    <path class="cls-2" d="m127.72,104.94s-3.97-.41-5.89,0-3.13,1.11-4.91,3.28-3.38,6.18-4.15,8.36-.38,7.34.26,10.6,3.45,9.64,3.89,10.4,1.09,1.28,1.09,1.28"/>
    <path class="cls-2" d="m100.52,138.85s7.91-.83,10.6-1.53,4.95-1.58,4.95-1.58"/>
    <path class="cls-2" d="m107.41,141.92s5.11-1.09,7.09-2.36,2.43-1.98,2.43-1.98"/>
    <path class="cls-2" d="m100.14,146.58s12.07-2.3,15.93-3.26,8.47-2.78,8.47-2.78"/>
    <path class="cls-2" d="m134.22,108.17s1.72.27,3.25,0,1.79.11,2.04.56.52,1.82.52,1.82"/>
    <path class="cls-2" d="m150.31,113.9s5.94,1.02,8.94,1.6,7.6,1.79,9.57.51,4.15-4.02,6.7-5.74,9.06-6.06,12-9.7c2.94-3.64,4.09-4.91,4.28-6.38s.32-3.31.64-4.62,1.21-3.49,1.47-5.02.51-2.04,2.36-2.93,2.17-1.34,2.55-.64l.38.7"/>
    <path class="cls-2" d="m195.82,85.73s2.62-2.79,3-3.43,2.3-1.6,3.13-3.19,3-4.98,4.15-5.94,1.6-.89,2.11-.57.51,1.02,0,2.23-2.68,4.67-3.19,5.78-.64,2.26-.64,2.26"/>
    <path class="cls-2" d="m134.55,137.3s11.41-.61,15.75-1.06,18.26-4.02,20.87-5.04,3.38-1.34,4.4-1.53,1.98-.89,2.81-2.49,6.45-6.83,8.87-9.57,6.45-9.13,7.47-10.4,1.98-2.44,1.98-2.44c0,0,1.4-2.67,3.64-5.22s4.15-5.17,4.98-6.57.83-4.34,1.53-5.17,1.14-2.04,1.14-2.62-.52-1.38-.52-1.38"/>
    <path class="cls-2" d="m138.76,108.12s4.2-.41,7.91-.99,5.43-1.66,10.28-4.98,6.64-4.66,11.49-6.57,9.26-4.15,11.43-5.81l2.17-1.66"/>
    <path class="cls-2" d="m161.55,115.96s8.29-4.7,11.93-7.88c3.64-3.18,8.11-7.62,10.21-9.49s3.26-2.69,3.26-2.69"/>
    <path class="cls-2" d="m184.84,85.73s3.57-2.09,4.09-3.94,2.36-7.53,2.94-9.77,1.34-5.23,1.6-6.77.45-1.85.57-2.43.96-.64.96-.64"/>
    <line class="cls-2" x1="189.91" y1="93.98" x2="192.02" y2="92.21"/>
    <path class="cls-2" d="m203.9,71.34s-.68-1.11-.6-2.17-.09-1.32.29-1.74,1.2-.43,1.54.68.6,1.53.47,2.34-.34,1.06-.34,1.06"/>
    <path class="cls-2" d="m204.47,75.09s-.74.21-1.67-.17-1.49-1.06-1.28-2,.52-1.57,1.45-1.57,2.23-.13,2.67.38.71,1.24.71,1.24"/>
    <path class="cls-2" d="m201.62,79.64s-.61.3-1.03-.38-.6-1.62,0-1.96.98-.51,1.62-.64,1.6-.62,1.6-.62"/>
    <path class="cls-2" d="m205.01,80.61s.86-.82,1.34-.68c0,0,.7.06,1.09.68s.7.86.51,1.94-1.6,3.17-1.6,3.17"/>
    <path class="cls-2" d="m206.65,77.68s.35.92.27,1.38-.27.96-.27.96"/>
    <path class="cls-2" d="m195.82,81.82s-.47-12.06-.6-15.5-.47-6.94-.23-7.96.49-1.28,1.34-1.57,3.83-1.19,4.6-1.23,1.15.21,1.28,1.23.6,14.54.6,14.54"/>
    <path class="cls-2" d="m203.6,67.43s-.18-9.66-.3-10.64-.84-1.21-1.83-1.19"/>
    <path class="cls-2" d="m187.39,96.47l-1.69-2.49-1.37-2.17-2.07-3.7s-.32-.26,0-.61,2.2-1.5,2.2-1.5c0,0,.41-.45.8.32s1.82,3.54,1.82,3.54l1.21,2.14,1.63,2.36"/>
    <path class="cls-2" d="m190.49,93.98s.26.41,0,.73-2.17,1.79-2.78,2.17-.61.05-.77-.41"/>
    <line class="cls-2" x1="184.33" y1="91.81" x2="187.23" y2="90.15"/>
    <line class="cls-2" x1="185.57" y1="93.78" x2="188.29" y2="92"/>
    <line class="cls-2" x1="184.84" y1="92.89" x2="187.71" y2="90.98"/>
    <path class="cls-2" d="m107.41,194.66s12.06-26.72,14.96-32.51,6.21-13.53,6.98-16.09,1.28-4.15,1.28-4.15"/>
    <path class="cls-2" d="m129.23,141.41s-2.6,5.76-7.88,9.85c-5.28,4.09-6.87,8-9.18,10.47s-5.03,3.32-7.07,3.24-2.98,0-2.98,0"/>
    <path class="cls-2" d="m106.88,166.24s6.55-.17,10.04-2.89,3.74-4.34,3.74-4.34"/>
    <path class="cls-2" d="m132.8,140.21s-1.07,9.26-3.2,16.58-7.73,21.7-9.57,26.3c-1.84,4.6-3.62,10.21-3.62,10.21"/>
    <path class="cls-2" d="m104.73,208.55s-.45,2.36,0,4.75,2.19,5.96,2.68,7.4.57,2.47.4,3.32.85.6,1.87.94.94.77.77,1.96.51,8.17,1.19,10.21-.6,2.72,0,4.51.43,4.77-.34,7.91-1.02,5.96-1.11,8.85c-.09,2.89.85,4.43-.85,8.09-1.7,3.66-4,12.6-4.26,16.6-.26,4-.62,13.87-.56,15.49s.39,4.68,2.44,6.3,6.81,3.74,14.3,1.11,17.7-6.72,22.72-10.3,5.87-4.68,6.55-6.64.26-3.15.51-6.38.85-18.98,1.45-25.19.94-17.53,1.7-29.87.43-21.02.77-24.34-.26-5.68-.26-5.68"/>
    <path class="cls-2" d="m109.69,220.7s6.47-6.13,10.3-6.47,9.81-1.36,9.81-1.36"/>
    <path class="cls-2" d="m112.67,222.32s5.87-5.02,8.09-4.6,3.74-.51,3.74-.51"/>
    <path class="cls-2" d="m129.09,248.87s-8.34,13.36-12.6,17.02-8,5.28-8,5.28"/>
    <path class="cls-2" d="m129.09,303.04s3.32,1.24,7.57.56,6.55-2.13,7.57-3.66.36-4.7.36-4.7"/>
    <path class="cls-2" d="m132.55,301.62s3.18.54,7.44-.57,4.76-2.61,4.76-2.61"/>
    <path class="cls-2" d="m118.14,306.85s-.19,3.51,0,4.98l.19,1.47"/>
    <path class="cls-2" d="m104.99,312.53s-1.15.38-2.55,2.74-2.11,3.83-2.3,6-.77,5.04-.64,6.13-.27,2.94,2.74,4.21,8.63,1.72,10.99,2.49,7.79,3.83,12.06,4.4c4.28.57,9.32.51,12.19-1.6,2.87-2.11,3.96-4.09,3.83-5.87s.13-2.17-1.47-3.51c-1.6-1.34-4.28-2.49-6.19-4.34s-2.23-1.72-4.28-2.74-4.47-2.04-4.98-2.62.19-1.72-.06-2.55-.32-1.02-1.4-1.02-1.8.32-2.53-.51-.45-1.28-1.3-1.21-.74.45-1.04,2.04-1.57,3.96-2.98,5.62-1.85,2.36-3.7,2.68-3.19-.26-4.34-.96-1.42-2.17-1.76-4.15-1.24-2.49-1.24-2.49c0,0,.26-.7.96-2.74s1.51-8.09,1.51-8.09"/>
    <path class="cls-2" d="m99.9,323.31s.15,2.69,4.63,4.79c4.48,2.11,11.82,5.23,15.14,6.45,3.32,1.21,6.96,2.43,11.3,2.11s8.9-1.91,8.9-1.91"/>
    <line class="cls-2" x1="125.67" y1="96.47" x2="124.51" y2="99.22"/>
  </g>
  <g>
    <path class="cls-1" d="m81.32,61.21s-1.7,4.28-1.64,7.79-.09,5.41,1.18,8.6c1.27,3.19,2.09,5.64,2.82,6.47s2.18,2.15,2.18,2.15c0,0-.76,1.16-.75,1.89s.25,1.79.25,1.79c0,0-1.69-.82-2.13,0s-1.15,1.81-.4,2.88.82,1.07,1.16,1.99.56,1.77,1.38,1.94,1.3.59,1.3.59l1,4.01s-1.23,2.57-1.65,4.17-.62,3.61-.35,5.57.23,4.66.99,5.49,3.51,3.5,4.52,3.51,2.97-.39,4.02-1l1.06-.61s-.71,1.48-.48,2.57.22,3.57.29,4.93-.03,2.49-.2,5.63-.11,7.88.26,10.36,1.11,7.3,1.68,8.73,1.32,3.02,1.54,4.32.05,1.38.8,2.93,1.17,2.55.79,3.57-1.14,1.81-.15,3.43,2.34,2.91,2.04,5.62-.75,6-.18,8.25,1.06,5.28,1.16,8.44.57,6.39.61,7.84-.18,4.79-.19,6.69-.05,4.66.23,5.74l.28,1.08s-.77,2.14,0,4.75,1.72,4.72,2.32,6.47.91,2.95.84,3.6-.1.81.57,1.35,2.21-.06,2.09,1.39-.05,4.76.4,7.43,1.11,4.15.84,5.42-.47.85-.15,2.68.35,4.67-.26,7.55-1.24,7.46-1.19,9.21.63,4.35-.22,6.47-3.04,7.96-3.83,12-1.24,8.55-1.41,13.99-.36,8.39.28,10.87,1.49,2.7,1.49,2.7c0,0-1.04,6.55-1.34,7.49s-.56.28-1.65,1.81-2.27,3.36-2.68,4.58-.58,4.07-.88,5.35-.87,4.59-.21,5.67.89,2.12,4.16,2.84c3.27.72,8.39,1.5,9.83,2.11s7.42,3.31,11.16,4.16,8.22.67,10.4-.43,3.42-1.93,5.1-3.98c1.68-2.06.96-4.6.65-5.12s-1.08-1.32-3.74-3.09-3.4-2.74-4.76-3.63-3.49-1.83-5.54-2.89-2.89-.76-2.78-2.4.32-2.6-.7-2.62-2.54.35-3.12-.55-1.3-1.21-1.3-1.21c0,0-.47,1.2-.96-.7s0-4.98,0-4.98c0,0,4.28-1.24,6.98-2.27s3.98-1.54,3.98-1.54c0,0,2.69.67,6.18.76s6.87-1.72,7.78-2.6,1.83-1.77,1.77-3.36-.21-2.61-.21-2.61c0,0,3.68-2.42,4.62-3.86s1.52-.34,1.73-5.36,2.07-36.16,2.07-36.16l1.12-21.37.63-18.9s.4-7.6.29-9.11-.35-2.91-.35-2.91c0,0,.46-1.44.66-3.41s1.02-7.8.76-10.79c-.26-2.99-.95-4.17-.8-6.12s.61-5.13.33-8.43-.72-4.8-1.43-7.93-1.33-4.69-.66-6.8.53-2.2-.2-4.71-1.14-5.37-2.22-7.47-3.14-5.43-3.14-5.43c0,0,4.39-.62,10.41-1.98s11.33-2.84,11.33-2.84c0,0,5.18-1.81,5.83-2.01s1.02-.27,2.81-2.49,5.62-5.73,8.11-8.74,8.79-11.93,8.79-11.93c0,0,2.5-3.85,5.06-6.96s4.51-5.95,5.29-7.27.44-3.19,1.22-4.48,1.39-1.73,1.14-2.62-.24-1.39-.12-2.35.09-1.72-.44-2.21-.5-1.1-.51-1.56-.27-1.38-.27-1.38c0,0,1.18-1.59,1.55-2.84s.39-2.56-.2-2.49-1.65.63-1.65.63l-.71-1.24s-.03-.47-.03-1.28-.6-3.02-.6-3.02l-.54-.29-.87.29s-.12-8.97-.3-10.09-.22-1.79-1.3-1.79-5.67,1.24-5.67,1.24c0,0-1.44.13-1.42,1.83s.08,3.58.08,3.58c0,0-.78-.04-1.07,1.05s-1.58,7.42-2.97,11.91-1.41,6.92-3.25,8.42-5.23,3.33-5.45,3.94-1.2,1.44-2.39,2.27-3.22,2.25-6.73,3.79-6.09,2.43-8.07,3.49-6.09,3.76-8.64,5.46-3.57,3.23-6.98,3.97-10.79,1.66-12.3,1.73-2.74.08-3.73-.43-2.37-1.53-3.86-2.13-2.65-1.04-4.06-1.46-2.53-1.02-2.53-1.02c0,0,.91-.5,1.24-2.06s.89-3.27.89-3.27l.58-1.37.66.83s.56-1.79,2.36-4.41,2.24-5.28,2.39-6.67.06-3.66-.49-5.6-1.2-3.14-2.66-4.85-3.52-4-3.52-4c0,0-.35-1.94-1.03-3.21s-.67-2.14-.67-2.14c0,0,7.59-6.31,10.5-8.88s4.14-4.45,2.65-3.9-7.81,2.76-10.78,3.48-5.59,1.77-7.83,1.8-2.6.54-2.6.54c0,0-.44-1.26-2.68-2.63s-5.44-3.25-7.78-4.1-3.41-1.6-5.44-1.51-3.9.03-5.84,1.31-3.13,2.61-4.86,3.02-3.56,1.05-4.24,1.83-2.5,3.82-2.5,3.82Z"/>
    <path class="cls-1" d="m192.02,92.21s.22,2.31-1.28,4.26-4.25,5.67-7.36,8.07-6.33,4.27-8.63,6.27-3.51,3.33-4.72,4.26-1.84,1.69-3.95,1.5-4.53-.62-4.53-.62c0,0,5.44-2.95,8.68-5.41s10.93-9.61,10.93-9.61l5.43-4.78.64.88,2.68-1.52.57-.8-.33-.94,1.87-1.57Z"/>
  </g>
</svg>