<?xml version="1.0" encoding="UTF-8"?>
<svg id="Others" xmlns="http://www.w3.org/2000/svg" viewBox="0 0 288.26 381.24">
  <defs>
    <style>
      .cls-1, .cls-2, .cls-3, .cls-4 {
        fill: none;
      }

      .cls-2 {
        stroke-width: .75px;
      }

      .cls-2, .cls-3, .cls-4 {
        stroke: #1d1d1b;
        stroke-miterlimit: 10;
      }

      .cls-3 {
        stroke-width: .51px;
      }
    </style>
  </defs>
  <g>
    <polygon class="cls-4" points="203.77 149.69 202.01 149.77 206.88 178.38 207.3 178.36 203.77 149.69"/>
    <polygon class="cls-4" points="211.1 156.68 211.41 175.41 210.94 175.43 210.07 156.72 211.1 156.68"/>
    <polygon class="cls-4" points="221.26 188.31 239.43 192.04 239.66 191.01 221.29 187.78 221.26 188.31"/>
    <polygon class="cls-4" points="220.28 190.45 236.92 196.98 237.11 196.47 220.44 190.22 220.28 190.45"/>
    <path class="cls-1" d="m215.6,184.24c0,.22,0,.45-.03.68,0,.03,0,.05,0,.08-.18,1.5-.96,3.12-1.68,3.99-.61.74-1.46,1.22-2.28.73-1.48-.88-2.92-1.96-4.16-3.01-.4-.34-.81-.72-.96-1.23-.09-.3-.08-.61,0-.92.08-.35.24-.69.42-1,.66-1.15,1.68-2.13,2.85-2.82,1.3-.77,2.93-.74,4.11.2,1.01.81,1.73,2.04,1.76,3.28"/>
    <path class="cls-1" d="m215.56,185.01c-.18,1.87.23,2.69-.44,4.58-.32.91-.97,1.45-1.65,1.9-.37.25-1.53.18-1.93,0-1.1-.48-1.37-.57-2.5-1.36-.51-.36-1.63-1.37-2.16-1.71-1.25-.79-1.02-1.7-.45-3.86h.04c-.08.32-.08.63,0,.93.16.51.56.89.96,1.23,1.24,1.05,2.69,2.13,4.16,3.01.82.49,1.67.01,2.28-.73.72-.87,1.5-2.49,1.68-3.99"/>
    <path class="cls-1" d="m182.99,199.83l-.77-.15c-.74.02-1.67-.09-1.95-.79-.28-.7.34-1.43.91-1.94.81-.72,2.13-1.34,3.01-1.97,1.8-1.31,3.12-1.07,4.85-.61.66.18,1.82,1.21,2.12,1.82.91,1.82.61,1.97,1.37,3.79.77,1.87,1.68,3.2,3.03,4.7,1.21,1.36,1.06,4.24.15,7.27-.73,2.44-1.21,4.99-3.64,6.21-.65.32-1.52,1.21-2.88,2.42-1.03.92-2.2,1.76-3.22,2.7-7.35,6.73-14.17,11.49-21.65,16.21-3.9,2.46-7.98,4.91-12.4,7.61-.96.59-3.79,1.97-6.36,3.33-1.59.83-3.03.76-5.04,1.08-.79.1-1.59-.03-2.32-.34-1.08-.45-2.04-1.28-2.73-2.24-1.15-1.61-1.68-3.57-2.21-5.49-.19-.69-.39-1.37-.59-2.06-2.02-6.98-4.37-13.87-7.04-20.64l-.03-.52c4.11-.21,8.21-.55,12.3-1.01,4.65-.52,9.52-1.42,13.69-3.53l.29.59c.09.6.18,1.2.25,1.8.42,3.37.57,6.77.43,10.16,2.49-.76,4.98-1.51,7.48-2.27.16-.05.33-.1.5-.15,1.78-.54,3.56-1.08,5.3-1.73,5.06-1.89,9.94-4.69,14.56-7.48,1.82-1.47,1.87-2.88,1.91-4.78.01-.57.09-1.35.18-2.24.23-2.1.58-4.71.48-6.04-.05-.68-.11-1.37-.12-2.06,0-.56.03-1.11.13-1.65"/>
    <path class="cls-1" d="m155.74,279.52c-.35-.08-.7-.19-1.03-.31-.98-.37-1.92-.89-2.94-1.15-.84-.22-1.72-.25-2.58-.39-4.72-.79-8.34-4.8-12.98-5.96l-.78-.04c.16-3.16.26-6.33.49-9.5h-.03c.93-3.59,1.68-7.22,2.25-10.88l.05-.12c.73.31,1.52.44,2.32.34,2.01-.32,3.45-.25,5.04-1.08,2.58-1.37,5.4-2.75,6.36-3.33,4.42-2.7,8.5-5.15,12.4-7.61l.07.1c6.2,3.27,12.39,6.55,18.59,9.83,1.13.6,2.28,1.2,3.26,2.04.93.79,1.69,1.76,2.34,2.8,3.69,5.86,3.87,13.21,3.65,20.13-.12,3.81-.33,7.64-1.04,11.39-1.81,9.55-6.88,18.35-5.88,28.02h-28.68c1.82-10.91,1.26-18.92,1.27-28.53,0-1.97-.43-4.71-2.18-5.61l.03-.14Z"/>
    <path class="cls-1" d="m132.67,126.69c-1.32-2.12-2.11-3.85-2.72-5.81-.44-1.41-.79-2.94-1.17-4.83-.65-3.25-.4-6.57-.68-9.88-.18-2.11-.18-5.14.46-7.16.61-1.95,2.43-5.43,3.88-6.86,2.48-2.45,2.82-3.82,7.37-6.85,4.1-2.73,10.2-1.07,15.45-.61,10.3.91,18.78,3.01,27.87,12.09,3.03,3.36,6.57,11.75,3.29,14.44-1.48,1.22-2.59,2.64-3.65,3.98-1.95,2.49-3.74,4.7-7.4,4.83,0,0-2.62.1-4.43-.59-1.82-.68-3.41.23-4.66.68-1.25.46-1.13,3.18-1.59,4.54-.13.4-.39.55-.7.55-.76,0-1.82-.93-2.15-1.57-.45-.92-2.16-1.71-5.45-1.82-3.29-.11-4.54,1.93-6.31,4-.56.64-1.01,1.37-1.52,2.06-1.43,1.95-3.01,4.02-5.31,4.76-3.85,1.26-7.83-1.75-10.04-5.14-.19-.29-.37-.57-.53-.85"/>
    <path class="cls-1" d="m186.19,123.77c.05,3.01.1,6.09-.85,8.94-.5,1.5-1.27,2.89-2.2,4.16-3.53,4.83-7.28,6.91-12.43,8.42-1.07.22-2.11.33-3.03.36l-.02-.57c.24-.72.68-1.27,1.24-1.74,1.3-1.11,3.2-1.77,4.48-2.99.92-.88,1.51-2.05,2.08-3.2.4-.79.81-1.67.61-2.54-.08-.38-.27-.72-.39-1.09-.03-.08-.05-.16-.07-.24-.29-1.37.89-2.63,2.07-3.38,1.05-.66,2.44-1.57,4.09-2.23.1.24.24.46.41.66.73.87,2.28,1.09,2.96.18.34-.46.91-1.67.91-3.03s.01-2.51-.08-3.42c.2.54.21,1.13.23,1.7"/>
    <path class="cls-1" d="m181.76,127.68c-.35-.76-.4-1.67-.34-2.52v-.05c.12-1.82-.03-5.89,2.22-5.76.09.12.18.23.28.34.66.74,1.56,1.29,1.96,2.19.03.06.05.12.08.19.1.92.08,2.06.08,3.42s-.57,2.57-.91,3.03c-.68.91-2.23.69-2.96-.18-.17-.2-.31-.42-.41-.66"/>
    <path class="cls-1" d="m183.64,119.34c-2.25-.13-2.1,3.94-2.22,5.76v.05h-.27c-7.02.39-11.9.59-17.18.5v-.41c.31,0,.57-.16.7-.55.46-1.36.34-4.09,1.59-4.54,1.25-.45,2.84-1.36,4.66-.68,1.82.68,4.43.59,4.43.59,3.66-.13,5.45-2.34,7.4-4.83l.13.1c-.37,1.36-.08,2.88.74,4.02"/>
    <path class="cls-1" d="m180.92,206.96c-.12.03-.25.03-.37-.02-.45-.18-.49-.79-.44-1.28.03-.41.07-.82.11-1.23.04-.52.1-1.07.42-1.48.52-.66,1.57-.75,2.02-1.46h.19c0,.68.06,1.37.12,2.05.1,1.33-.25,3.94-.48,6.04l-.25-.03c-.42.33-1-.22-1.07-.74-.07-.53.08-1.11-.17-1.57l-.08-.28Z"/>
    <path class="cls-1" d="m181.76,127.68c-1.65.66-3.04,1.56-4.09,2.23-1.18.75-2.36,2.01-2.07,3.38.02.08.04.16.07.24l-.09.03c-4.05-1.91-9.36-3.89-13.41-5.79h-.16c.03-.8-.14-1.52-.44-2.13l.27-.03c.72.03,1.43.04,2.14.05,5.28.1,10.16-.11,17.18-.51h.27c-.06.86,0,1.77.34,2.53"/>
    <path class="cls-1" d="m162.02,127.75h.16c4.05,1.91,9.36,3.89,13.41,5.8l.09-.03c.12.36.31.71.39,1.09.19.87-.22,1.75-.61,2.54-.57,1.15-1.15,2.32-2.08,3.2-1.28,1.22-3.18,1.88-4.48,2.99l-.12-.13c-3.73-2.3-8.02-5.77-10.43-10.19-.17-.2-.3-.45-.42-.69-.88-1.65-1.99-1.61-1.72-5.24.14-1.86,2.03-3.68,3.76-2.99.66.27,1.23.81,1.6,1.54.3.6.47,1.33.44,2.12"/>
    <path class="cls-1" d="m168.78,143.21l.12.13c-.55.47-1,1.02-1.24,1.74l.02.57c-1.66.05-2.94-.18-3.45-.6-.79-.66-1.42-1.58-2.41-1.84-.7-.18-1.45,0-2.15.2-1.45.4-2.9.79-4.35,1.19-.63.17-1.28.36-1.76.81-.73.7-.77,1.7-.72,2.75.01.35.04.7.05,1.05.03,1.09-.88,1.99-1.96,1.91-2.21-.17-4.35-1.67-6.17-3.09-4.87-3.8-9.89-7.76-12.83-13.19-.59-1.08-1.09-2.25-1.13-3.47-.06-1.72.8-3.34,1.89-4.67.16.27.34.56.53.85,2.21,3.39,6.2,6.4,10.04,5.14,2.3-.74,3.88-2.81,5.31-4.76.51-.69.96-1.42,1.52-2.06,1.77-2.07,3.02-4.11,6.31-4,3.29.12,5,.91,5.45,1.82.32.64,1.39,1.57,2.15,1.57v.41c-.71-.01-1.42-.03-2.15-.05l-.27.03c-.37-.73-.94-1.28-1.6-1.54-1.74-.69-3.62,1.13-3.76,2.99-.27,3.63.83,3.59,1.72,5.24.12.24.25.49.42.69,2.41,4.43,6.7,7.89,10.43,10.19"/>
    <path class="cls-1" d="m159.88,225.44l.16.51c-2.49.76-4.98,1.51-7.48,2.27.14-3.39,0-6.79-.43-10.16l.25-.03c1.87,3.02,4.46,5.58,7.5,7.41"/>
    <path class="cls-1" d="m144.52,157.65c.75,1.44,1.3,2.99,1.63,4.55,1.05,4.99.39,10.15.5,15.24.12,5.52,1.17,10.99,2.68,16.3.16.55.32,1.11.49,1.67,1.89,6.26,4.2,12.52,3.93,19.03-.69.46-1.41.87-2.15,1.24-4.17,2.11-9.05,3.01-13.69,3.53-4.09.46-8.19.8-12.3,1.01l.03.52c2.67,6.76,5.02,13.65,7.04,20.64l-.1.03c-1.67,4.36-6.05,6.94-9.22,10.37-2.04,2.21-3.59,4.81-5.61,7.04-6.01,6.66-15.27,9.22-24.13,10.69-2.94.49-5.89.88-8.86,1.03-5.32.26-10.69-.66-15.84-2.14-.05-.01-.1-.03-.16-.04-1.99-.57-3.68-1.91-4.69-3.72-4.24-7.63-5.45-16.8-6.16-25.56-.15-1.82-.3-3.67-.1-5.49.24-2.25.98-4.4,1.73-6.53,3.18-9.14,6.38-18.27,9.56-27.41.89-2.56,1.79-5.13,3.25-7.41,1.56-2.46,3.7-4.49,5.52-6.76,2.65-3.31,4.63-7.16,5.77-11.25-.02-.71-.01-1.41.02-2.12h.14c11.07-4.57,16.62-17.96,27.79-22.28,1.82-.7,3.72-1.14,5.63-1.56,7.45-1.63,15.8-2.92,22.25,1.13,2.77,1.75,4.89,4.46,6.55,7.58l-1.51.66Z"/>
    <path class="cls-1" d="m153.15,148.14c1.04.98.98,2.69.44,4.01-.55,1.32-1.47,2.46-2,3.79-.61,1.52-.66,3.2-.7,4.84-.03,1.15-.05,2.29-.08,3.44h-.1c-2.04-8.86-6.87-16.71-15.13-20.08-1.83-.74-3.79-1.27-5.77-1.19-2.25.1-4.38.98-6.57,1.51-3.87.94-7.99.82-11.77,2.15-2.98,1.05-5.59,2.95-7.95,5.04-4.02,3.57-7.46,7.73-11.28,11.51-2.6,2.57-5.37,4.96-8.3,7.15h-.12c.64-5.32,2.84-10.44,6.24-14.55,1.65-2,3.58-3.76,5.3-5.71,2.29-2.62,4.18-5.55,6.27-8.33,7.11-9.46,16.77-17.26,28.08-20.76l.26-.08c.61,1.96,1.4,3.69,2.72,5.81-1.09,1.33-1.95,2.94-1.89,4.67.04,1.22.55,2.39,1.13,3.47,2.94,5.43,7.96,9.4,12.83,13.19,1.82,1.42,3.96,2.92,6.17,3.09,1.08.08,2-.82,1.96-1.91,0-.36-.03-.7-.05-1.05h.31Z"/>
    <path class="cls-1" d="m150.81,164.23c-.04,1.79-.08,3.57-.13,5.36-1.12-4.04-2.53-8.64-4.65-12.61-1.66-3.12-3.78-5.83-6.55-7.58-6.46-4.06-14.81-2.77-22.25-1.13-1.91.42-3.81.85-5.63,1.56-11.17,4.32-16.72,17.7-27.79,22.28h-.14c.03-.61.08-1.21.16-1.8h.12c2.92-2.17,5.7-4.56,8.3-7.13,3.82-3.78,7.26-7.95,11.28-11.51,2.36-2.09,4.97-4,7.95-5.04,3.77-1.33,7.89-1.2,11.77-2.15,2.19-.53,4.33-1.41,6.57-1.51,1.97-.08,3.94.44,5.77,1.19,8.27,3.37,13.09,11.21,15.13,20.08h.1Z"/>
    <path class="cls-1" d="m150.68,169.59c-.2,8.58-.41,17.16-.61,25.75l-.25.08c-.17-.55-.33-1.11-.49-1.67-1.51-5.31-2.56-10.78-2.68-16.3-.11-5.09.55-10.26-.5-15.24-.33-1.56-.87-3.11-1.63-4.55l1.51-.66c2.13,3.96,3.53,8.57,4.65,12.61"/>
    <path class="cls-1" d="m79.09,285.01c-.61-.42-1.14-.96-1.65-1.5-3.9-4.15-6.89-9.16-8.68-14.57l.16-.55c5.15,1.48,10.52,2.4,15.84,2.14,2.97-.15,5.92-.55,8.86-1.03,8.86-1.47,18.12-4.04,24.13-10.69,2.02-2.23,3.57-4.83,5.61-7.04,3.16-3.42,7.55-6.01,9.22-10.37l.1-.03c.2.68.4,1.37.59,2.06.53,1.91,1.07,3.87,2.21,5.49.69.96,1.65,1.79,2.73,2.24l-.05.12c-.57,3.66-1.32,7.28-2.25,10.87h.03c-.23,3.17-.33,6.34-.49,9.5-.2,3.83-.5,7.64-1.26,11.4-.54,2.65-1.21,5.28-1.59,7.96-1.07,7.52.18,15.18-.18,22.77h-46.74c3.06-9.78.4-21.13-6.69-28.53l.12-.25Z"/>
    <path class="cls-3" d="m163.99,125.25c.31,0,.57-.16.7-.55.46-1.36.34-4.09,1.59-4.54,1.25-.45,2.84-1.36,4.66-.68,1.82.68,4.43.59,4.43.59,3.66-.13,5.45-2.34,7.4-4.83,1.06-1.35,2.17-2.77,3.65-3.98,3.27-2.69-.26-11.08-3.29-14.44-9.09-9.09-17.57-11.19-27.87-12.09-5.25-.46-11.35-2.13-15.45.61-4.54,3.03-4.89,4.39-7.37,6.85-1.45,1.43-3.27,4.91-3.88,6.86-.64,2.02-.64,5.05-.46,7.16.29,3.31.03,6.63.68,9.88.38,1.89.72,3.42,1.17,4.83.61,1.96,1.4,3.69,2.72,5.81.16.27.34.56.53.85,2.21,3.39,6.2,6.4,10.04,5.14,2.3-.74,3.88-2.81,5.31-4.76.51-.69.96-1.42,1.52-2.06,1.77-2.07,3.02-4.11,6.31-4,3.29.12,5,.91,5.45,1.82.32.64,1.39,1.57,2.15,1.57Z"/>
    <path class="cls-3" d="m182.9,115.32c-.37,1.36-.08,2.88.74,4.02.09.12.18.23.28.34.66.74,1.56,1.29,1.96,2.19.03.06.05.12.08.19.2.54.21,1.13.23,1.7.05,3.01.1,6.09-.85,8.94-.5,1.5-1.27,2.89-2.2,4.16-3.53,4.83-7.28,6.91-12.43,8.42-1.07.22-2.11.33-3.03.36-1.66.05-2.94-.18-3.45-.6-.79-.66-1.42-1.58-2.41-1.84-.7-.18-1.45,0-2.15.2-1.45.4-2.9.79-4.35,1.19-.63.17-1.28.36-1.76.81-.73.7-.77,1.7-.72,2.75.01.35.04.7.05,1.05.03,1.09-.88,1.99-1.96,1.91-2.21-.17-4.35-1.67-6.17-3.09-4.87-3.8-9.89-7.76-12.83-13.19-.59-1.08-1.09-2.25-1.13-3.47-.06-1.72.8-3.34,1.89-4.67.01-.02.03-.03.04-.05"/>
    <path class="cls-3" d="m161.84,125.6c.72.03,1.43.04,2.14.05,5.28.1,10.16-.11,17.18-.51"/>
    <path class="cls-3" d="m185.96,122.07c-.16-1.52-.65-2.43-2.05-2.7-.1-.02-.18-.03-.27-.03-2.25-.13-2.1,3.94-2.22,5.76v.05c-.06.85,0,1.76.34,2.52.1.24.24.46.41.66.73.87,2.28,1.09,2.96.18.34-.46.91-1.67.91-3.03s.01-2.51-.08-3.42Z"/>
    <path class="cls-3" d="m161.96,128.44c.04-.23.06-.46.06-.69.03-.79-.14-1.52-.44-2.12-.37-.73-.94-1.28-1.6-1.54-1.74-.69-3.62,1.13-3.76,2.99-.27,3.63.83,3.59,1.72,5.24.12.24.25.49.42.69.12.15.25.29.42.38.4.23,1.01.16,1.19-.27"/>
    <path class="cls-3" d="m162.18,127.76c4.05,1.91,9.36,3.89,13.41,5.79"/>
    <path class="cls-3" d="m158.2,132.76c.05.08.09.17.14.25,2.41,4.43,6.7,7.89,10.43,10.19"/>
    <path class="cls-3" d="m167.65,145.08c.24-.72.68-1.27,1.24-1.74,1.3-1.11,3.2-1.77,4.48-2.99.92-.88,1.51-2.05,2.08-3.2.4-.79.81-1.67.61-2.54-.08-.38-.27-.72-.39-1.09-.03-.08-.05-.16-.07-.24-.29-1.37.89-2.63,2.07-3.38,1.05-.66,2.44-1.57,4.09-2.23,1.15-.45,2.43-.78,3.79-.79"/>
    <path class="cls-3" d="m129.69,120.97c-11.3,3.5-20.97,11.29-28.08,20.76-2.08,2.78-3.98,5.71-6.27,8.33-1.72,1.95-3.64,3.71-5.3,5.71-3.4,4.11-5.6,9.24-6.24,14.54-.08.59-.12,1.2-.16,1.8-.03.7-.04,1.41-.02,2.12-1.14,4.09-3.12,7.94-5.77,11.25-1.82,2.28-3.96,4.3-5.52,6.76-1.46,2.28-2.36,4.86-3.25,7.41-3.18,9.14-6.38,18.27-9.56,27.41-.74,2.13-1.49,4.28-1.73,6.53-.2,1.82-.05,3.66.1,5.49.7,8.76,1.92,17.94,6.16,25.56,1,1.81,2.7,3.15,4.69,3.72.05.01.1.03.16.04,5.15,1.48,10.52,2.4,15.84,2.14,2.97-.15,5.92-.55,8.86-1.03,8.86-1.47,18.12-4.04,24.13-10.69,2.02-2.23,3.57-4.83,5.61-7.04,3.16-3.42,7.55-6.01,9.22-10.37"/>
    <path class="cls-3" d="m153.15,148.14c1.04.98.98,2.69.44,4.01-.55,1.32-1.47,2.46-2,3.79-.61,1.52-.66,3.2-.7,4.84-.03,1.15-.05,2.29-.08,3.44-.04,1.79-.08,3.57-.13,5.36-.2,8.58-.41,17.16-.61,25.75"/>
    <path class="cls-3" d="m114.65,158.43c-4.5,7.6-5.53,17.16-2.75,25.55.85,2.56,2.03,5,2.86,7.56,1.76,5.41,2.09,11.07,2.19,16.77.07,3.53.04,7.07.2,10.58,1.91,1.52,4.58,1.52,7.01,1.41.48-.02.96-.05,1.43-.08,4.11-.21,8.21-.55,12.3-1.01,4.65-.52,9.52-1.42,13.69-3.53.74-.37,1.46-.78,2.15-1.24.27-6.51-2.04-12.77-3.93-19.03-.17-.55-.33-1.11-.49-1.67-1.51-5.31-2.56-10.78-2.68-16.3-.11-5.09.55-10.26-.5-15.24-.33-1.56-.87-3.11-1.63-4.55-1.65-3.16-4.29-5.73-7.73-6.43"/>
    <path class="cls-3" d="m155.97,127c-1.06.9-1.76,2.21-1.92,3.59"/>
    <path class="cls-3" d="m189.34,206.19c-1.67.31-2.12-.95-2.12-2.27,0-3.48.15-4.09-.61-5.91-.91-.91-2.43-.76-2.95.08-.35.55-.55,1.13-.67,1.75-.1.53-.13,1.09-.13,1.65,0,.68.06,1.37.12,2.06.1,1.33-.25,3.94-.48,6.04-.1.89-.17,1.67-.18,2.24-.05,1.9-.1,3.31-1.91,4.78-4.62,2.79-9.5,5.59-14.56,7.48-1.74.65-3.52,1.19-5.3,1.73-.16.05-.33.1-.5.15-2.49.76-4.98,1.51-7.48,2.27.14-3.39,0-6.79-.43-10.16-.07-.6-.16-1.2-.25-1.8"/>
    <path class="cls-3" d="m182.67,201.49c-.45.71-1.5.8-2.02,1.46-.33.41-.38.96-.42,1.48-.04.41-.08.82-.11,1.23-.04.49,0,1.1.44,1.28.12.05.25.05.37.02h0c.27-.06.53-.29.7-.52.25-.33.49-.74.89-.88"/>
    <path class="cls-3" d="m181.01,207.24c.25.46.1,1.05.17,1.57.07.52.66,1.07,1.07.74"/>
    <path class="cls-3" d="m182.22,199.68c-.74.02-1.67-.09-1.95-.79-.28-.7.34-1.43.91-1.94.81-.72,2.13-1.34,3.01-1.97,1.8-1.31,3.12-1.07,4.85-.61.66.18,1.82,1.21,2.12,1.82.91,1.82.61,1.97,1.37,3.79.77,1.87,1.68,3.2,3.03,4.7,1.21,1.36,1.06,4.24.15,7.27-.73,2.44-1.21,4.99-3.64,6.21-.65.32-1.52,1.21-2.88,2.42-1.03.92-2.2,1.76-3.22,2.7-7.35,6.73-14.17,11.49-21.65,16.21-3.9,2.46-7.98,4.91-12.4,7.61-.96.59-3.79,1.97-6.36,3.33-1.59.83-3.03.76-5.04,1.08-.79.1-1.59-.03-2.32-.34-1.08-.45-2.04-1.28-2.73-2.24-1.15-1.61-1.68-3.57-2.21-5.49-.19-.69-.39-1.37-.59-2.06-2.02-6.98-4.37-13.87-7.04-20.64"/>
    <path class="cls-3" d="m152.38,218.03c1.87,3.02,4.46,5.58,7.5,7.41"/>
    <path class="cls-3" d="m215.57,184.92c.03-.23.04-.46.03-.68-.03-1.24-.75-2.47-1.76-3.28-1.18-.94-2.81-.97-4.11-.2-1.17.7-2.19,1.67-2.85,2.82-.18.31-.33.65-.42,1-.08.31-.08.61,0,.92.16.51.56.89.96,1.23,1.24,1.05,2.69,2.13,4.16,3.01.82.49,1.67.01,2.28-.73.72-.87,1.5-2.49,1.68-3.99"/>
    <path class="cls-3" d="m206.42,184.56c-.57,2.16-.8,3.07.45,3.86.53.34,1.65,1.35,2.16,1.71,1.13.79,1.4.88,2.5,1.36.4.18,1.56.25,1.93,0,.68-.45,1.33-.99,1.65-1.9.68-1.9.26-2.72.44-4.58,0-.03,0-.05,0-.08.01-.16.03-.31.06-.48"/>
    <path class="cls-3" d="m115.54,195.16c-1.82,2.63-5.16,3.72-8.31,4.29-8.58,1.57-17.62.57-25.64-2.84"/>
    <path class="cls-3" d="m115.78,196.98c-3.25,4.65-8.37,7.62-13.52,9.99-10.29,4.74-21.39,7.73-32.67,8.8"/>
    <path class="cls-3" d="m83.94,170.32c2.92-2.19,5.7-4.58,8.3-7.15,3.82-3.78,7.26-7.95,11.28-11.51,2.36-2.09,4.97-4,7.95-5.04,3.77-1.33,7.89-1.2,11.77-2.15,2.19-.53,4.33-1.41,6.57-1.51,1.97-.08,3.94.44,5.77,1.19,8.27,3.37,13.09,11.21,15.13,20.08"/>
    <path class="cls-3" d="m83.8,172.11c11.07-4.58,16.62-17.96,27.79-22.28,1.82-.7,3.72-1.14,5.63-1.56,7.45-1.63,15.8-2.92,22.25,1.13,2.77,1.75,4.89,4.46,6.55,7.58,2.13,3.96,3.53,8.57,4.65,12.61.01.03.02.06.03.09"/>
    <path class="cls-3" d="m116.5,202.66c-3.7,7.4-10.11,13.17-17.21,17.43-7.1,4.25-14.92,7.12-22.69,9.97"/>
    <path class="cls-3" d="m117.02,208.16s-.05.1-.08.15c-5.44,11.28-13.62,21.23-23.66,28.73"/>
    <path class="cls-3" d="m68.76,268.95c1.8,5.4,4.78,10.41,8.68,14.57.51.54,1.04,1.07,1.65,1.5.2.14.42.27.64.38,1.82.94,4.18.68,5.79,1.97"/>
    <path class="cls-3" d="m138.15,251.29c-.57,3.66-1.32,7.28-2.25,10.87-.29,1.15-.61,2.29-.94,3.42-.51,1.71-1.08,3.46-2.27,4.78-.18.2-.46.41-.7.27"/>
    <path class="cls-3" d="m85.67,313.79c3.06-9.78.4-21.13-6.69-28.53"/>
    <path class="cls-3" d="m135.94,262.16c-.23,3.16-.33,6.33-.49,9.5-.2,3.83-.5,7.64-1.26,11.4-.54,2.65-1.21,5.28-1.59,7.96-1.07,7.52.18,15.18-.18,22.77"/>
    <path class="cls-3" d="m79.18,272.92c4.38,1.18,8.81,2.35,13.34,2.45,3.31.08,6.62-.44,9.75-1.52"/>
    <path class="cls-3" d="m89.36,280.79c5.47-.53,10.88-1.6,16.13-3.18"/>
    <path class="cls-3" d="m121.1,295.43c-5.04,7.89-12.87,13.97-21.76,16.88"/>
    <path class="cls-3" d="m92.77,304.63c6.77,2.43,14.57,1.84,20.89-1.59"/>
    <path class="cls-3" d="m136.22,271.7c4.64,1.15,8.25,5.17,12.98,5.96.85.14,1.74.17,2.58.39,1.02.27,1.95.79,2.94,1.15.33.12.68.23,1.03.31,2.09.53,4.36.38,6.35-.45"/>
    <path class="cls-3" d="m185.3,313.79c-1-9.67,4.07-18.47,5.88-28.02.71-3.75.92-7.58,1.04-11.39.22-6.92.04-14.27-3.65-20.13-.65-1.04-1.41-2.02-2.34-2.8-.98-.83-2.13-1.43-3.26-2.04-6.2-3.27-12.39-6.55-18.59-9.83"/>
    <path class="cls-3" d="m155.71,279.66c1.75.9,2.18,3.64,2.18,5.61,0,9.61.55,17.62-1.27,28.53"/>
    <path class="cls-3" d="m158.86,285.65c2.73.77,5.9-.58,7.24-3.07"/>
    <path class="cls-3" d="m140.73,265.91c1.07-2.38,3.41-3.98,5.88-4.81,2.47-.83,5.1-1.01,7.69-1.28,5.23-.55,10.42-1.51,15.5-2.88"/>
    <path class="cls-3" d="m141.7,270.62c1.54-2.71,4-4.8,6.76-6.25,2.75-1.45,5.79-2.28,8.86-2.82"/>
    <rect class="cls-1" x="37.88" y="72.58" width="212.49" height="223.15"/>
  </g>
  <g>
    <path class="cls-2" d="m132.4,313.79s-.41-13.74-.24-17.06.5-6.64,1.21-9.9,1.48-7.19,1.7-9.92.37-5.25.37-5.25c0,0,1.86-.02,5.28,2s5.53,3.51,7.74,3.85,4.39.55,6.24,1.7,3.01,2.05,3.1,4.6.23,11.91.13,15.14-.38,8.42-.8,11.33-.52,3.52-.52,3.52"/>
    <path class="cls-2" d="m185.3,313.79s-.45-3.34,0-5.82,1.41-6.78,2.72-10.91,3.09-8.95,3.55-13.62.91-12.66.72-15.04-.38-7.2-1.85-10.35-1.73-4.71-3.82-6.25-6.27-3.77-10.08-5.79-12.22-6.53-12.22-6.53c0,0,10.82-7.06,14.8-10.35s9.96-8.65,11.45-9.81,3.06-1.64,3.81-3.55,2.14-5.84,2.03-7.61-.46-2.94-1.26-3.93-1.89-1.94-2.64-4.26-1.02-4.03-2.25-4.82-3.03-1.78-4.56-.98-3.85,2-4.53,2.77-1.39,2.2-.44,2.46,2.25.42,2.25.42l-.32,1.65s-1.14.62-1.66,1.18-.92,1.49-.91,2.24.09,2.01.46,2.03l.37.02s-.1,1.52.46,2.33,1.11.29,1.11.29l-.25,3.23s.35,2.09-1.24,3.23-9.83,5.91-12.82,7.09-7.66,2.68-7.66,2.68c0,0-2.37-1.29-3.83-2.68s-4.58-5.06-4.58-5.06l-.54-2.38,2.15-1.24s.25-2.95-.46-6.28-2.48-9.51-2.48-9.51l-1-3.24s.41-6.47.51-10.85.28-11.72.38-16.03,0-9.41.44-11,2.1-4.06,2.44-5.38.45-2.82,0-3.42-.77-1.36-.77-1.36c0,0-.27-1.39.73-1.98s6.89-2.19,6.89-2.19c0,0,1.48-.34,2.63.75s1.96,2.34,5.41,1.64,6.66-1.58,8.75-3.09,5.56-4.2,6.42-6.03,1.81-3.22,2.13-5.45.29-3.09.27-5.54.04-3.81-.3-4.52-1.13-1.61-1.83-1.6-.89-.85-1.03-1.7-.11-2.45-.11-2.45c0,0,.82-1.33,2.23-2.66s2.91-1.78,2.72-4.19-.32-4.26-1.52-6.59-3.15-5.31-5.4-7.17-4.62-3.91-7.58-5.3-4.7-2.21-7.08-2.8-5.88-1.28-7.65-1.47-3.7-.36-5.99-.65-2.91-.62-5.12-.61-4.09.15-6.22.81-3.81,2.15-5.45,3.97-3.57,3.62-4.51,5.14-2.44,3.7-2.78,5.79-.35,4.5-.24,8.16.04,5.51.44,7.58,1.31,5.66,1.31,5.66c0,0-1.88.46-4.35,1.56s-7.27,3.36-10.64,6.01-5.62,4.36-8.09,7.08-4.9,5.66-6.75,8.24-3.6,5.07-5.3,6.86-4.39,4.1-6.11,6.89-3.49,6.23-4.04,8.53-.98,4.9-1.01,6.04.1,2.02-.49,3.65-1.8,5.19-4.07,8.08-4.84,5.3-6.26,7.68-2.61,4.94-4.66,10.81-8.3,23.79-8.3,23.79c0,0-2.02,5.05-2.15,9.37s1.63,15.18,1.63,15.18c0,0,1.93,8.54,3.48,11.5s1.83,3.78,3.01,4.61,2.51,1.44,2.51,1.44c0,0,1.14,3.32,2.56,5.93s3.06,5.33,4.48,7,5.58,6.27,6.53,7.79,3.73,6.5,4.29,10.12,1.12,6.8.44,10.2-1,4.53-1,4.53"/>
    <path class="cls-2" d="m207.1,183.24s1.24-1.87,2.98-2.65,3.88-.38,4.67,1.33,1.22,4.64.89,5.87-.7,3.59-2.16,3.71-3.25-.44-4.3-1.27-2.53-1.73-3.14-2.8,1.06-4.19,1.06-4.19Z"/>
  </g>
</svg>