<?xml version="1.0" encoding="UTF-8"?>
<svg id="Layer_1" data-name="Layer 1" xmlns="http://www.w3.org/2000/svg" viewBox="0 0 223.94 220.66">
  <defs>
    <style>
      .cls-1 {
        fill: #bbb;
        stroke-width: 0px;
      }
    </style>
  </defs>
  <path class="cls-1" d="m0,220.66c5.15-37.71,18.5-69.64,46.06-91.54.35-.28.71-.54,1.06-.81,5.85-4.55,10.59-5.68,17.56-.04,28.99,23.47,68.53,22.5,97.34-1.33,3.97-3.28,7.09-3.27,11.12-.7,20.34,12.98,33.28,33.57,41.79,58.16,4.01,11.6,6.06,24.15,9,36.27H0Z"/>
  <path class="cls-1" d="m174.17,63.49c.4,34.23-28.57,63.95-64.21,62.37-31.63-1.41-59.76-29.45-58.52-65.46C52.53,28.49,79.48-1.17,115.34.04c32.44,1.09,59.37,29.58,58.83,63.46Z"/>
</svg>