<?xml version="1.0" encoding="UTF-8"?>
<svg id="Others" xmlns="http://www.w3.org/2000/svg" viewBox="0 0 288.26 381.24">
  <defs>
    <style>
      .cls-1 {
        stroke-width: .75px;
      }

      .cls-1, .cls-2 {
        fill: none;
        stroke: #1d1d1b;
        stroke-miterlimit: 10;
      }

      .cls-2 {
        stroke-width: .31px;
      }
    </style>
  </defs>
  <g>
    <path class="cls-2" d="m100.13,105.92c-.64-5.23-1.15-10.72,0-18.51,1.15-7.79,7.02-12.64,7.02-12.64,0,0,7.4-7.28,15.06-7.91s15.57.51,22.21,5.49,9.45,7.4,11.87,12.77,1.66,9.45,1.28,11.74-.64,4.72-.64,6.77-.77,3.57-1.66,2.3-1.53-2.55-1.4-4.09,0-2.68-1.66-2.68-3.32.38-5.23,2.68-4.09,4.21-6.51,11.11c-2.43,6.89-6.51,10.72-10.09,11.11s-6.51-1.4-10.09-2.55-7.28-1.91-9.45-1.15-2.43,2.55-4.09,1.4-3.96-5.87-4.85-8.3-1.79-7.53-1.79-7.53Z"/>
    <path class="cls-2" d="m157.39,98.08s1.13,3.58,1.47,5.88,1.62,5.96,1.96,7.91.77,5.36,0,9.87-1.79,9.45-2.81,11.4l-1.02,1.96"/>
    <path class="cls-2" d="m108.22,122.01s.09,3.57,0,5.53,0,3.32,0,3.32"/>
    <path class="cls-2" d="m151.54,99.18s-1.96,1.04-2.99,5.55-1.19,7.32-.51,8.6,2.38,2.3,2.3,3.28.44,1.75,1.2,2.6,2.04-.43,2.12-1.36.43-2.3-1.45-3.23-1.86-3.91-1.53-6.04,1.53-4.51,1.95-5.19,1.22-1.11,1.22-1.11"/>
    <path class="cls-2" d="m160.81,121.75s-.43-5.7-2.81-9.79-5.36-8.6-5.36-8.6"/>
    <path class="cls-2" d="m150.03,100.86s-2.24,2.25-2.75,4.38-1.5,5.02.36,8.34,2.96,5.62,5,9.19c2.04,3.57,3.4,6.81,3.57,8.68s0,3.66,0,3.66"/>
    <path class="cls-2" d="m153.07,140.3s.6-.77,1.19-2.47.09-2.72,1.02-2.72,2.21.17,2.72,0,.43-2.95.43-2.95"/>
    <path class="cls-2" d="m160.39,124.1s.16,1.56.42,3.86-.26,4.94-.51,7.15-3.32,5.19-3.32,5.19c0,0-2.3,1.28-4.6,4.34s-9.7,16.85-12,21.32-5.11,10.51-5.11,10.51"/>
    <path class="cls-2" d="m158.75,103.36s3.85-1.96,5.8-3.15,6.55-5.11,9.11-6.04,4.34-1.11,7.66-1.02,3.83.43,3.74,1.11-1.87.66-3.4,1.14-2.72,1.08-4.85,1.93-2.21.94-3.15,2.38-2.3,2.72-3.57,3.66-3.15,3.06-3.49,4.09-.09,3.32,1.02,4.09,2.81,1.62,5.53,1.62,2.21-.09,4.77-.6,6.72-1.36,8.09-1.36,1.87.68,2.64,1.36.68,1.7,0,1.79-2.72.26-4.34.94-6.47,2.98-7.83,3.66-3.4,2.89-4.68,4.09-3.74,3.32-5.62,4.34-5.29,2.04-5.29,2.04"/>
    <path class="cls-2" d="m214.01,122.29c.43.85.94,2.28,1.52,3.79,1.87,4.85,4.85,10.72,5.96,15.74s2.21,10.55,2.3,13.19"/>
    <path class="cls-2" d="m208.73,93.13c-.77-.44-2.72-2.79-3.74-4.15s-1.87-2.72-3.49-2.72-4,1.19-5.19,1.96-2.81,3.4-3.32,4.92,1.11.96,2.21.96,1.62-.85,2.72-1.96,1.62-.26,2.98,1.79,1.11,3.83.94,6.04-.77,1.87-1.96.9-3.15-4.3-4.34-4.39-2.3,0-2.89,1.61-1.11,2.3.34,4.51,4,6.13,6.72,9.36c2.72,3.23,5.45,4.09,7.66,5.11s5.19,3.15,5.19,3.15c0,0,.25.23.71.99"/>
    <path class="cls-2" d="m224.47,184.3s14.3-.6,21.11-5.62,7.91-5.96,7.74-10.72-.43-6.55-2.04-10.47c-1.62-3.91-4.94-13.36-7.83-18.3s-6.81-9.87-9.62-14.04-3.32-5.02-3.32-5.02"/>
    <path class="cls-2" d="m206.16,90.48s2.22.04,4.26,1.31,3.15,1.53,4.09,3.15,1.02,3.06,1.7,3.15,1.45,2.22,2.81,4.85,3.15,7.38,4.34,8.33,2.89,2.48,3.83,4.01,1.7,2.71,1.7,2.71"/>
    <path class="cls-2" d="m209.85,118.43s.95,1.8,2.3,2.48,3,.09,4.53-.79,4.89-2.15,8.55-2.15,4.15-.07,4.91.44.57,2.19,0,1.7-3.06-.89-5.68-.66-4.75.76-6.94,1.74-3.34,1.36-4.87.85-2.05-.99-2.81-1.93-1.26-2.44-1.26-2.44"/>
    <path class="cls-2" d="m176.17,104.55s-.77-.98-1.36-1.45-1.06-.55-1.7,0-1.32.98-2.3,1.45-1.36.13-1.36.68-.6,1.36.51,1.19,2.77-.34,3.4.64-.51,2.21-1.02,3.06-.54,2.32-.08,2.99"/>
    <path class="cls-2" d="m184.7,94.66s.14.17,0,.73"/>
    <path class="cls-2" d="m174.38,98.69s.56-.34.85.21"/>
    <line class="cls-2" x1="179.93" y1="96.02" x2="193.5" y2="94.18"/>
    <polyline class="cls-2" points="196.19 93.79 200 93.36 200.61 101.41"/>
    <line class="cls-2" x1="175.24" y1="98.01" x2="176.9" y2="112.77"/>
    <line class="cls-2" x1="197.84" y1="109.61" x2="186" y2="111.19"/>
    <polyline class="cls-2" points="192.32 101.41 193.07 109.32 177.45 111.87 176.17 98.58 192.04 96.26 192.25 99.12"/>
    <line class="cls-2" x1="200" y1="93.36" x2="200.9" y2="93.92"/>
    <path class="cls-2" d="m148.31,139.88s-1.54-1.79-5.03-3.24-9.7-3.32-13.19-4.09-8.09-1.79-11.06-1.7-7.92,0-9.36,0-3.74-.17-5.87,0-4,2.39-5.19,4.69-1.02,3.91-1.02,4.76-.17,2.72-1.36,3.15c0,0-1.28.68-2.81,1.02s-2.3,0-2.89.51-1.7,1.79-3.49,2.72-2.98,1.45-2.98,1.45c0,0-4,.68-5.87,5.02s-2.13,7.49-1.45,12.6c.68,5.11,2.89,17.62,4.43,23.91,1.53,6.3,4.85,20.17,4.85,20.17"/>
    <path class="cls-2" d="m77.42,152.41s-9.71,7.46-11.16,9.59-2.98,5.29-2.81,8.81.51,5.4.68,7.7.43,4,.43,4"/>
    <path class="cls-2" d="m94.77,144.64s4.17-1.79,6.98-2.21,12.51-.85,16.6-.85,10.21-1.53,13.36-2.55,6.47-.26,8.26,0,3.32.77,3.32.77"/>
    <path class="cls-2" d="m163.96,141.15s1.28.51,3.23,0,4.51-.68,6.3-.85,5.53-.85,6.89,0,7.57,2,10.38,3.15,5.87,3.06,8.43,4.09,8.3,3.62,11.23,4.68,5.71,1.32,8.47,1.83,4.8.77,5.57,1.53,4.68,5.06,3.57,11.96-2.21,11.15-2.89,13.96-2.13,7.83-3.74,10.13-3.06,2.89-5.19,2.72-4.6-1.36-6.81-1.79-4.43-.94-6.38-1.62-3.23-.6-5.11-.26-4,.94-6.72.77-8-.17-13.7-1.19-7.83-.51-11.74-1.7"/>
    <path class="cls-2" d="m179.87,141.57s-3.66,5.36-5.36,9.62-4.09,11.27-4.68,15.93-.77,10.03,0,14.28,1.36,5.28,1.36,5.28"/>
    <path class="cls-2" d="m223.79,155.02s2.55.34,5.79-1.11l3.23-1.45"/>
    <path class="cls-2" d="m175.36,182.17s24.34-3.82,33.53-11.36c9.19-7.54,10-8.98,10-8.98"/>
    <path class="cls-2" d="m199.11,167.53s8.17-2.3,11.57-5.7c3.4-3.4,3.91-5.19,3.91-5.19"/>
    <path class="cls-2" d="m189.92,191.38s-1.79.57-2.21,1.34-1.02,2.13-2.04,4.09-.94,4-1.45,6.21-1.19,5.45-.94,8.77c.26,3.32,1.82,15.06,3.29,21.19s7.35,24,8.88,30.21c1.53,6.21,4.17,11.66,5.28,15.4,1.11,3.74,2.04,9.28,2.81,10.38s1.53,7.49,1.62,12.51.04,18.08.04,18.08l-159.78-1.31s-.68-1.96,0-3.15,2.04-2.81,1.87-4.77-.58-7.95-.58-7.95"/>
    <path class="cls-2" d="m66.34,187.96s-.51,1.62-.43,4.6.16,8.09.21,11.32-.22,5.02-.22,5.02c0,0-1.18,0-1.44.6s-.34,1.11,0,1.36.06.68-.22,1.62-.37,1.87-1.39,1.7-2.81.17-5.19,1.62-6.13,4.09-7.4,5.02-.77,1.53-1.28,2.81-2.3,5.53-3.4,8.34-2.3,7.74-3.06,11.06-.85,8.85-1.53,9.96-2.55,4.6-2.81,6.38-1.19,3.66-1.19,4.77-.26,4.6-.68,6.04-.77,2.98-.77,4.6-.94,5.45-.77,6.72.6,1.79,1.53,1.7,1.53-.26,1.53-1.96.68-4.6.68-5.02.68-.09.94,1.79.94,6.04.94,8.26.43,7.15.51,8.85-.43,1.7,1.36,3.66,5.53,4.51,7.66,5.53,11.32,1.45,15.4,1.7,30.04,0,32.77-.94,9.7-3.06,10.3-4.94,1.11-8.6,1.36-11.83.68-17.7,0-21.28-1.62-9.02-3.91-11.49-5.53-4-9.02-2.72-10.89,3.83-15.83,4-13.19.17-19.91-.85-13.11-2.3-16.17-.94-5.46,2.76-6.65,3.95"/>
    <path class="cls-2" d="m161.74,305.09s2.99-11.51,4.65-17.39,5.62-21.45,7.66-27.32c2.04-5.87,3.57-9.32,4.47-14.17s6-24.55,6-24.55"/>
    <path class="cls-2" d="m167.49,310.59s5.66-18.8,7.32-26.08c1.66-7.28,4.21-21.6,4.85-29.95.64-8.35,1.15-15.88,2.77-22.61s2.27-9.09,2.27-9.09"/>
    <path class="cls-2" d="m159.36,193.49s14.3,1.28,19.15,0,6.19-2.37,6.19-2.37"/>
    <line class="cls-2" x1="177.87" y1="198.34" x2="186.3" y2="195.56"/>
    <path class="cls-2" d="m100.64,216.3s-.26-1.96.51-2.89,4.34-3.91,5.19-5.62,1.02-2.89,1.02-2.89"/>
    <path class="cls-2" d="m112.55,193.07s11.24-27.15,14.73-34.55c3.49-7.4,8.34-15.23,9.79-16.43s5.02-2.11,7.4-2.21,5.19,0,5.19,0c0,0,3.57.42,5.45.42s3.97,1.19,5.77,1.27,3.5-1.28,2.74,0-10.47,18.73-13.11,24.26c-2.64,5.53-9.02,19.66-12.77,26.3s-15.15,26.38-15.15,26.38"/>
    <path class="cls-2" d="m96.73,146.26s8.65-1.79,13.39-1.96,11.12-1.11,12.99-1.96"/>
    <path class="cls-2" d="m98.68,147.96s9.95-.94,13.87-1.7,5.45-1.62,5.45-1.62"/>
    <path class="cls-2" d="m199.11,150.6s-2.64,5.7-8,11.49l-5.36,5.79"/>
    <path class="cls-2" d="m185.75,145.75s-3.49,8.43-5.87,10.47-5.87,3.02-5.87,3.02"/>
    <path class="cls-2" d="m190,144.64s-3.91,12-8.34,16.43-7.06,5.62-7.06,5.62"/>
    <path class="cls-2" d="m142.52,140.09s-5.11,4.12-7.24,7.86c-2.13,3.74-8.85,17.45-10.89,21.96s-10.64,25.64-10.64,25.64"/>
    <path class="cls-2" d="m71.84,182.13s.2,3.36-.05,4.56-.43,4.3,0,8.88c.43,4.57,1.62,13.68,1.62,13.68"/>
    <line class="cls-2" x1="80.55" y1="212.72" x2="73.41" y2="180.81"/>
    <path class="cls-2" d="m83.36,211.7s-8.77-37.62-9.36-41.36-1.19-8.17,0-11.49,3.06-6.38,4.34-7.4,3.92-3.15,5.79-3.49,3.73-.75,3.73-.75"/>
    <path class="cls-2" d="m73.81,155.25s-3.72,7.43-3.89,10.5.25,6.64.51,8.51.58,3.59.58,3.59"/>
    <path class="cls-2" d="m71.23,157.36s-4.29,6.04-4.8,9.77c-.51,3.73.11,14.22.11,14.22"/>
    <path class="cls-2" d="m72.66,177.55s-1.82-8-1.43-11.3c.39-3.31,1.48-7.16,2.58-9.52l1.1-2.35"/>
    <path class="cls-2" d="m64.21,183.19s-.51,2.47,0,3.49,1.7,1.11,2.47.94.17-1.45,1.45-2.72,4.6-3.15,5.28-4.09-.13-1.87-.36-2.72-.83-.77-2.62,0-3.74,3.49-4.59,3.74-1.62,1.36-1.62,1.36Z"/>
    <path class="cls-2" d="m64.42,187s-.25-.96.73-1.9,4.21-3.62,5.45-4,2.22-.92,2.96-.57"/>
    <path class="cls-2" d="m146.17,139.84s-4.6,3.78-6.21,6.42-7.66,13.53-10.64,18.81-3.83,7.59-3.83,7.59"/>
    <path class="cls-2" d="m137.24,177.55s11.27-21.16,14.19-26.44c2.92-5.28,7.69-9.87,7.69-9.87"/>
    <path class="cls-2" d="m160.88,141.57s-3.58,3.07-4.59,5.11-9.69,19.74-12.08,24.85c-2.38,5.11-9.79,18.55-12.26,23.57s-12.34,21.7-12.34,21.7"/>
    <path class="cls-2" d="m124.38,172.66s2.81.49,6.13,1.77,3.91,1.82,5.32,2.47,2.17,1.16,1.74,2.28-.85,2.63-1.74,2.17-5.23-2.46-8.38-3.5-5.02-1.55-4.85-2.06,1.19-2.55,1.19-2.55c0,0,.13-.67.6-.58Z"/>
    <path class="cls-2" d="m148.31,139.88s-5.64,5.18-8.06,9.61-12.46,24.01-12.46,24.01"/>
    <line class="cls-2" x1="124.15" y1="176.76" x2="113.75" y2="198.34"/>
    <path class="cls-2" d="m108.04,195.68s1.87-.97,3.23-1.62,2.47-.88,2.47.31,0,3.97.43,6.19,1.79,6.13,1.36,9.02c-.43,2.89-.77,3.91-1.79,3.91s-3.15-.85-2.3-1.19,2.72-1.28,1.53-2.3-1.56-.26-2.87-.77-3.09-4.31-3.35-5.73-.6-3.55,0-5.16.47-2.25,1.28-2.66Z"/>
    <path class="cls-2" d="m112.35,193.64s-.22,6.32.89,8.88,2.43,5.72,2.36,6.39-1.07,2.04-2.99,2.8"/>
    <path class="cls-2" d="m126.53,177.55s-3.76,4.11-4.61,9.14-4.6,15.4-5.19,17.7-1.16,2.98-1.16,2.98"/>
    <path class="cls-2" d="m135.83,181.35s-11.7,23.12-13.57,26.01-4.94,6.3-6.64,6.73-3.69-1.05-3.69-1.05"/>
    <path class="cls-2" d="m133.4,180.22s-1.87,2.63-2.89,4.68-1.27,4.51-2.38,8c-1.11,3.49-3.69,9.19-5.55,12.34s-3.39,4.94-5.18,6.89l-1.79,1.96"/>
    <path class="cls-2" d="m66.23,209.66s.29-1.96,1.48-1.87,4.46,1.45,5.34,1.87.62-.43,1.56,0,3.15,2.3,3.83,3.06,1.19.6,2.72,0,4.56-1.62,6.71-2.21,6.74-1.7,7.25-.6,1.62,5.62,1.62,5.62"/>
    <path class="cls-2" d="m60.3,215.53s1.7-1.11,4.77,0c0,0,9.45,3.49,10.72,3.57s5.36-1.19,7.66-2.81,3.23-2.4,6.64-2.14,5.74,1.66,8.77,2.14,2.72.51,2.72.51c0,0,7.32-.94,11.83-1.28s8.72,2.72,10.74,4.09,3.73,2.13,5.77,5.45c2.04,3.32,4.17,10.21,4.85,14.72,0,0,1.51,10.13,3.41,16s11.1,18.53,14.8,24.27c3.7,5.73,7.37,14.8,7.9,17.61s.14,8.01,1.8,8.99,4.85,3.4,5.62,5.19,0,7.74,0,7.74"/>
    <path class="cls-2" d="m47.02,228.38s4.43-3.62,5.62-5.51,3.4-3,5.79-2.66,7.74,2.08,13.62,2.66,14.64.32,21.7-.79,12.69-2.64,18.18-1.36,10.84,4.51,13.31,9.79c2.47,5.28,6.64,16.09,9.53,25.11,2.89,9.02,7.68,18.72,13.54,27.23,5.86,8.51,7.9,18.06,9.44,23.24s.85,13.48.85,13.48"/>
    <path class="cls-2" d="m172.03,295.04s17.03,15.56,21.12,18.8,6.47,4.43,6.47,4.43"/>
    <line class="cls-2" x1="173.34" y1="240.47" x2="172.54" y2="265.2"/>
    <path class="cls-2" d="m183.28,211.79s-2.38,16.43-3.4,21.53-1.06,11.43-1.06,11.43"/>
    <path class="cls-2" d="m174.6,287.79s8.68-1.53,12.77,1.02,8.74,5.45,8.74,5.45"/>
    <path class="cls-2" d="m38.51,276.21s-.09-3.66,0-4.68-2.13-.94-2.13-.94"/>
    <path class="cls-2" d="m36.85,266.42s12.64,2.98,16.47,4.17,10.89,1.87,16.85,1.11,16.85-4.43,23.32-5.28,15.62-2.64,15.62-2.64"/>
    <path class="cls-2" d="m47.28,310.34s2.3.09,6.38,1.11,12.77,2.55,18.77,2.47,17.23-.68,23.19-1.36,6.21-2.04,8.85.09,5.64,6.93,5.64,6.93"/>
    <path class="cls-2" d="m41.2,252.4s2.25-2.4,6.84-2.48,11.23.51,18.72.85,16.51.68,24.77-1.36,13.96-1.19,16.26.51,6.55,8.56,6.98,13,1.28,26.91.68,31.34-2.64,9.62-4.77,11.06-14.98,2.64-20.85,3.06-30.98-.09-34.55-.77-6.69-4.03-6.69-4.03"/>
    <path class="cls-2" d="m37.83,270.6s1.19-.53,2.81-.73,11.32,3.03,17.53,3.97,12.68-1.11,16.77-.85,7.4-1.28,13.96-2.38,11.74-2.41,14.89-2.69,5.84-1.52,5.84-1.52"/>
    <path class="cls-2" d="m39.45,278s5.53,1.28,12.34,1.87,13.19-.43,21.19-.94,24.85-2.47,30.3-3.49,6.83-1.37,6.83-1.37"/>
    <path class="cls-2" d="m38.49,274.68s7.09,1.54,13.56,2.39,15.11.25,21.68-.43,15.68-2.3,21.81-3.23,14.52-2.38,14.52-2.38"/>
    <polygon class="cls-2" points="65.49 284.3 65.49 288.72 68.21 290.94 70.26 288.89 70.26 283.87 67.87 281.92 65.49 284.3"/>
    <path class="cls-2" d="m44.39,235.59s3.49-4.83,6.72-5.25,13.79.43,13.79.43"/>
    <path class="cls-2" d="m62.3,221.07s-.47,1.36,0,2.64,1.75,4.85,2.17,5.96.36,3.01,1.76,3.25,1.9-.01,2.16-1.63-2.16-9.61-2.16-9.61"/>
    <path class="cls-2" d="m68.4,230.85s13.52,1.11,20.75,0,15.67-3.23,20.47-2.64,6.93,2.72,9.14,6.21,8.77,16.94,9.96,21.96,1.36,19.73,3.66,21.99,6.72,9.92,10.38,15.11c3.66,5.19,8.94,14.38,9.36,18.13s0,7.95,0,7.95"/>
    <path class="cls-2" d="m67.49,232.91s25.68,1.24,26.96,1.5,1.4.13,1.47-.26-.83-1.34.13-1.53,5.11-.06,7.28,0,1.34,0,1.34,1.53-1.15,2.74-1.4,6.26-1.09,2.81-5.04,2.94-7.09.26-14.81-.55-28.28-.92-30.38-.41-3.64.77-4.02-.64,1.28-7.02,1.28-7.02c0,0,.7-1.82,3.06-1.74s12.88-.08,12.88-.08"/>
    <path class="cls-2" d="m56.02,237.53s8.11-.77,16.91-.38,15.89.83,15.89.83"/>
    <line class="cls-2" x1="171.94" y1="111.87" x2="176.79" y2="111.87"/>
    <path class="cls-2" d="m181.38,116.6s.06,19.64,0,20.98-.26,1.53-1.15,1.53-21.79-.45-21.79-.45"/>
    <polyline class="cls-2" points="163.81 128.41 163.96 136.85 179.07 137.19 179.07 117.69"/>
    <polyline class="cls-2" points="161.77 129.13 161.77 136.77 159.72 136.77"/>
  </g>
  <g>
    <path class="cls-1" d="m45.41,318.26s-.9-1.69,0-3.15,1.86-2.49,1.87-3.44-.11-2.63-.22-4.25-.35-5.02-.35-5.02c0,0-1.77-1.07-3.11-2.35s-2.67-2.39-2.68-3.34-.13-3.18-.25-4.96-.15-4.24-.3-6.12-.92-7.63-.92-7.63c0,0-.52-1.71-.59-1.79s-.35,0-.35,0c0,0-.42,2.12-.54,3.33s.23,2.87-.52,3.23-2.55.63-2.61-.87.23-3.29.44-4.85.55-4.15.64-4.97.88-4.61.97-6.05.22-2.83.57-3.95.62-1.57,1.07-3.37.89-2.79,1.79-4.56,1.07-2.26,1.25-3.86.39-4.61.79-6.46.99-4.42,1.52-6.34.74-2.96,1.37-4.6,1.7-4.31,2.35-5.88,1.12-2.24,1.4-3.41.23-1.87.75-2.34,4.24-3.18,6.31-4.47,3.67-2.48,5.24-2.56,2.3.31,2.7-.96.71-1.89.48-2.44-.13-1.43.21-1.62,1.27-.3,1.34-1.45.08-10.21,0-12.23,0-4.71.05-5.68.33-2.25-.37-2.33-1.28.03-1.49-.87-.79-1.76-.23-2.97.62-.76.51-1.59-1.07-9.01-1.07-9.01c0,0-.23-4.39.55-6.44s.89-3.08,2.19-4.54,3.27-3.31,5.05-4.77,4.12-3.34,5.16-4.15,1.46-1.42,2.7-2.35,2.54-2.01,4.49-2.9,3.93-.53,3.93-.53c0,0,1.51-1.04,2.08-1.58s1.06-1.13,1.98-1.19,3.75-.38,4.65-1.22,1.19-1.67,1.36-3.61.45-3.65,1.5-5.14,2.32-3.59,4.18-3.75,4.97-.09,4.97-.09v-8.84s-1.44.28-2.56-1.41-4.28-7.21-5.05-12.2-1.39-7.34-1.16-12.22.53-9.43,1.31-11.53,2.3-5.55,4.12-7.51,2.92-3.4,5.86-5.33,5.36-3.45,9.15-4.56,10.03-.42,11.44-.19,6.44,1.25,9.12,2.81,7.12,4.32,9.92,7.19,4.93,4.62,6.13,8.46,1.81,5.59,1.49,8.28-.58,4.29-.58,4.29c0,0,.89,3.09,1.05,3.8s.32,1.48.32,1.48c0,0,5.29-2.69,7.31-4.19s5.42-4.54,7.21-5,2.81-1.09,5.79-1.05,3.97-.21,4.94.23,1.42.49,1.06.89-.37,1.14-.37,1.14l8.37-1.22s-.6-.17.13-1.61,1.78-3.64,3.22-4.43,2.92-1.72,4.2-1.79,2.34.1,3.1,1.01,2.46,3.11,2.46,3.11c0,0,2.44.26,3.82,1.06s3.2,1.7,3.76,2.38,1.42,2.41,1.65,2.98.14.54.83,1.19,1.58,2.35,1.79,2.77,2.46,5.22,3.14,6.62,1.69,3.81,2.65,4.39,2.64,2.18,3.25,3.16,1.86,2.95,1.86,2.95c0,0,.91.03,1.26.44s.51,1.05.51,1.05l.55,1.73s11.35,16.16,12.61,18.63,6,13.99,6.73,15.82,2.08,4.34,2.38,7.24,1.15,6.86,0,8.76-1.45,2.62-4.57,4.94-4.72,3.85-8.66,4.97-10.48,2.74-12.67,2.72-2.57,0-2.57,0c0,0-.59,2.88-1.93,5.24s-2.26,4.25-3.64,4.52-2.53.52-4.3,0-4.17-1.3-5.03-1.47-2.34-.43-3.88-.86-2.8-1.02-3.99-1.16-2.39-.16-3.78.11-5.45.83-6.72.77l-1.28-.06s-1.61.49-1.99,1.06-2.4,4.39-2.67,5.31-.96,4.49-1.36,6.71-.73,4.94-.67,6.13.55,5.7.55,5.7c0,0,1.6,11.45,2.33,14.61s6.05,20.99,6.05,20.99c0,0,3.54,12.62,4.32,14.95s2.3,6.35,2.88,7.9,1.56,4.33,2.27,7.37,1.01,5.71,1.9,6.87,1.31,6.41,1.44,8.72.21,21.87.21,21.87l-159.78-1.31Z"/>
    <path class="cls-1" d="m176.17,104.55s-1.36-1.62-1.79-1.72-.84.16-2.04.86-1.93.74-2.41,1.14l-.48.4s-.42,1.3.51,1.19,3.25-.3,3.4.64.04,1.53-.6,2.55-.82,2.26-.82,2.26h4.85l-.62-7.32Z"/>
    <path class="cls-1" d="m181.38,116.6s3.14-1.53,4.36-1.78,3.44-.59,3.44-.59c0,0,.09-1.09-.54-1.67s-1.57-1.36-1.57-1.36l10.77-1.58s2.29,3.62,4.82,5.05,5.93,3.03,5.93,3.03c0,0,1.12,2.86,2.31,3.51s3.11,1.09,3.11,1.09l2.76,6.83s3.52,8.27,4.07,10.31,2.49,11.73,2.49,11.73l.45,3.86s-2.98-.65-4.89-.98-5.98-.95-7.72-1.57-7.25-2.95-10.08-4.14-5.27-2.44-7.08-3.34-3.11-1.63-5.32-2.24-3.74-.98-5.19-1.39-2-.52-2.81-.9-1.72-.58-2.32-.58-6.68.4-9.64.94-4.19.39-4.79.32-1.53-.26-2.19.08-1.83.25-2.66,0-2.47-.72-2.47-.72l1.8-1.85,21.43.45s1.49.21,1.51-1.53,0-20.98,0-20.98Z"/>
  </g>
</svg>