<?xml version="1.0" encoding="UTF-8"?>
<svg id="Others" xmlns="http://www.w3.org/2000/svg" viewBox="0 0 288.26 381.24">
  <defs>
    <style>
      .cls-1 {
        stroke-width: .75px;
      }

      .cls-1, .cls-2 {
        fill: none;
        stroke: #1d1d1b;
        stroke-miterlimit: 10;
      }

      .cls-2 {
        stroke-width: .5px;
      }
    </style>
  </defs>
  <g>
    <g>
      <path class="cls-2" d="m172.38,175.55s-.67-2.8-3.2-4.54c-.28-.19-.67-.45-1.14-.78-.86-.57-2-1.34-3.33-2.19-4.72-3.05-11.81-7.33-16.63-8.91-6.94-2.27-12.82-1.87-18.69-2.27-3.58-.25-9.9-.94-14.86-1.5-3.17-.36-5.78-.67-6.77-.77-2.54-.27-2.54,4.54-2.54,4.54,0,0-1.21,3.21,1.34,4.01,2.54.8,22.57,1.6,27.38,1.07,4.8-.53,18.96.39,20.96.86s4.81,1.94,6.94,3.95c1.86,1.75,6.19,5.45,7.24,6.34.15.13.24.2.24.2"/>
      <path class="cls-2" d="m247.16,206.13c-2.27-1.33-5.2-1.86-9.34-2.4s-9.82.02-9.82.02"/>
      <path class="cls-2" d="m181.47,177.96s-2.54,11.35-3.47,13.89,1.2,3.47,1.73,6.28c.53,2.8,3.07,14.55,2.81,18.56-.27,4.01.94,14.82,2.6,16.96,1.67,2.14,3.81,4.81,6.75,7.08.73.57,1.54.95,2.39,1.19.62.19,1.26.3,1.9.36.36.03.7.05,1.06.05,1.63.03,3.22-.22,4.53-.4,2.8-.4,16.56,2.81,19.77,2.94,3.2.13,6.41.67,12.28-1.87,5.88-2.54,12.56-4.54,14.82-8.28,1.86-3.06,3.1-6.85,4.3-10.24.26-.75.52-1.48.78-2.18,1.47-3.87,2.27-5.75.53-8.41-1.74-2.67-4.81-6.41-7.08-7.75"/>
      <path class="cls-2" d="m106.55,163.13s-1.61,1.46-3.47,1.93c-1.87.47-3.61,3.81-3.61,3.81"/>
      <path class="cls-2" d="m87.6,175.87s-7.23,3.43-10.3,7.97c-3.07,4.54-5.48,11.05-6.14,16.08s-.67,16.77-.67,16.77"/>
      <path class="cls-2" d="m201.77,241.92s1.07,4.68,1.07,7.88c0,2.81.14,6.84.74,9.24.09.34.18.65.28.92.84,2.13,2.31,6.01,2.58,9.08.27,3.07,1.87,13.62,2.67,16.96.8,3.34,2.54,12.55,2.93,15.09.4,2.54-.26,8.01,0,10.42.27,2.4,1.74,7.34,2.01,9.34.26,2.01,1.33,3.61,1.46,5.75.06.91-.17,1.53-.66,2.01-.65.65-1.75,1.05-3.21,1.59-2.54.94-3.74,3.47-5.61,4.14-1.86.67-10.01.67-12.42.67s-5.88,1.2-5.88,1.2"/>
      <path class="cls-2" d="m79.97,215.13s.02-.07.05-.2c.2-.75.89-3.45,1.32-5.71.14-.74.26-1.44.32-2.01.26-2.58-.09-13.8,0-17.36.09-3.56,1.6-7.57,2.76-9.61.88-1.56,1.96-3.06,3.18-4.36.38-.41.78-.8,1.19-1.16,1.69-1.52,4.36-2.67,4.36-2.67,0,0,2.52-1.48,4.24-2.45.55-.31,1.01-.57,1.28-.7.28-.14.49-.11.61.04.39.45.12,1.98-.61,2.85-.61.72-1.19,1.24-1.58,2.21-.24.58-.4,1.32-.47,2.38-.18,2.8-.18,11.83.62,15.6.8,3.76,1.43,5.1,1.43,5.1"/>
      <path class="cls-2" d="m94.75,197.32v-.02c-.05-.53-.88-10.73-.53-16.45.21-3.49.74-5.63,1.3-7.07.38-.98.78-1.65,1.11-2.19.8-1.34.76-2.01.76-2.01"/>
      <path class="cls-2" d="m118.07,201.24s.03-.03.08-.09c1.05-1.3,13.07-16.06,16.13-18.7,3.2-2.75,7.92-6.14,12.2-8.1,4.28-1.96,8.19-3.29,9.88-3.47.61-.07,1.4.13,2.29.43,1.61.57,3.52,1.55,5.19,2.23,1.99.82,3.51,1.49,5.24,1.81.51.1,1.05.16,1.62.2.49.03,1.07.05,1.69.05.35,0,.71,0,1.07,0,.94,0,1.88,0,2.67-.02.36,0,.69-.01.96-.02.56-.01.91-.02.91-.02,0,0,5.88-.26,7.14.67,1.27.93,3.54,1.86,5.15,2.13,1.6.26,2.13.13,2.8,1.07.67.94,2.54,1.6,3.6,1.47,1.07-.13,1.87,1.87,2.81,2s2.54,1.6,3.6,2.27c1.07.67,3.21,1.86,5.21,3.07,2,1.2,5.34,5.07,7.61,6.81.7.53,1.89,1.53,3.25,2.66,3.03,2.52,6.9,5.71,8.1,5.89.19.03.44.08.73.15,2.33.57,7.5,2.41,10.36,4.79,3.2,2.67,9.45,7.35,11.67,10.28,2.22,2.93,2.4,5.48,2.4,5.48"/>
      <path class="cls-2" d="m118.07,220.93s7.75-5.89,13.45-11.59c3.52-3.52,8.99-8.51,13.68-12.6.88-.77,1.73-1.51,2.54-2.2,1.84-1.58,3.45-2.91,4.61-3.81,4.36-3.38,10.42-7.66,15.58-10.32,5.17-2.67,8.19-4.82,8.19-4.82"/>
      <path class="cls-2" d="m82.24,214.48s-1.04-2.5-.6-5.19c.13-.79.38-1.59.82-2.35,1.37-2.37,2.78-5.16,4.47-7.01.73-.8,1.52-1.43,2.39-1.77,1.78-.69,3.62-.85,5.43-.86,1.09-.02,2.17.02,3.21.02h.71c3.59-.02,13.37-.11,15.85.84.28.11.55.22.78.35,1.52.76,2.34,1.75,2.85,2.64.18.32.34.62.46.89.53,1.16,1.15,3.12,0,5.61-1.16,2.49-2.32,4.54-2.05,7.48.22,2.47,0,3.87-.07,4.25-.02.07-.03.11-.03.11"/>
      <path class="cls-2" d="m88.69,213.34s-2.31-3.74-2.18-7.56.42-5.85.42-5.85"/>
      <path class="cls-2" d="m115.3,198.51s-.55,4.24-2.02,7.1c-.3.57-.63,1.09-.99,1.5-2.23,2.49-5.74,5.61-5.74,5.61"/>
      <path class="cls-2" d="m86.51,205.78s3.35-.45,8.86-.72c1.25-.07,2.62-.12,4.09-.16.18,0,.36,0,.54-.01,8.2-.18,13.28.72,13.28.72"/>
      <path class="cls-2" d="m100.98,212.28s-.02-.1-.06-.27c-.24-1.15-1.16-5.63-1.46-7.1"/>
      <polyline class="cls-2" points="95.37 205.05 95.37 205.06 96.53 212.28"/>
      <path class="cls-2" d="m48.49,286.88s5.05,7.64,7.84,11.06c.2.26.4.49.58.69,1.6,1.83,3.65,3.47,6.31,4.89,1.63.86,3.49,1.65,5.62,2.33,5.61,1.78,8.8,2.31,11.35,2.58,2.54.27,5.21,0,5.21,0"/>
      <path class="cls-2" d="m173.45,175.61s-4.55,1.77-10.15,4.44c-5.61,2.67-13.8,8.37-19.67,13.8s-14.96,14.7-17.81,17.63c-2.85,2.94-8.87,8.33-8.87,8.33"/>
      <path class="cls-2" d="m219.17,197.71s-.67-5.2-1.38-11.87c-.71-6.68-3.92-18.16-5.17-21.64-.05-.14-.11-.29-.16-.43-.1-.26-.2-.53-.32-.8-1.27-3-3.06-5.86-4.24-8.91-.11-.29-.2-.59-.27-.91-.8-3.43.63-7.99.63-7.99,0,0,1.96-5.88,2.4-9.09.45-3.2.45-7.83,1.16-8.72s1.33-1.25,2.58-1.16c.88.07,1.95.74,2.46,1.98.21.5.32,1.1.3,1.79-.09,2.39.09,6.39-.67,8.35-.76,1.96-1.29,4.36-1.29,5.25"/>
      <path class="cls-2" d="m228.61,161.94c-.05-.35-.09-.69-.13-1.03-.12-1.24-.08-2.37.25-3.3,1.07-3.02,3.03-7.12,2.5-10.86-.54-3.74-2.05-9.09-2.81-11.93s-2.18-4.36-2.81-4.72c-.62-.36-1.81-.08-1.81-.08"/>
      <path class="cls-2" d="m247.17,206.14s0,0,0,0c-.11-.38-3.7-12.47-7.2-18.78-3.56-6.41-8.9-13.98-9.62-17.72-.43-2.29-1.33-5.13-1.72-7.7"/>
      <path class="cls-2" d="m224.83,138.11s-.42-5.46-1.01-8.09c-.13-.59-.28-1.05-.42-1.26-.8-1.16-2.67-1.6-3.74-1.34-1.07.27-2.79.73-2.79.73"/>
      <path class="cls-2" d="m212.14,162.97s2.79-.45,7.02-1.53c4.23-1.07,5.84-1.6,7.17-1.25,1.34.36,2.15.72,2.15.72"/>
      <path class="cls-2" d="m228.62,161.94h0c-.07-.05-1.27-.86-2.99-.86s-7.83,1.37-9.79,1.88c-1.96.52-3.37.8-3.37.8"/>
      <path class="cls-2" d="m148.43,150.58s4.19,5.78,6.15,8.64c1.96,2.85,4.53,5.35,4.53,5.35"/>
      <path class="cls-2" d="m158.65,171.31s-7.81,2.35-12.18,4.3-13.26,9.69-16.65,13.34c-3.38,3.65-11.21,13.08-11.21,13.08"/>
      <path class="cls-2" d="m121.98,224.81c-.36-.3-.61-.51-.61-.51,0,0-1.51-1.59-3.29-3.37-.36-.37-.74-.74-1.13-1.11-.15-.15-.3-.3-.45-.43-1.43-1.38-2.81-2.63-3.58-3.1-1.61-.98-4.36-2.4-6.46-3.35-.57-.26-1.09-.48-1.53-.65-1.13-.43-2.64-.4-4.01-.27-1.14.11-2.19.27-2.88.27-.37,0-.88.06-1.5.14-1.9.28-4.69.86-6.52.92-.35.01-.8.05-1.32.11-1.79.2-4.41.64-6.47,1.03-.87.16-1.64.32-2.21.44-.38.09-.68.15-.86.2,0,0-1.77.43-4.03.88-1.28.25-2.71.5-4.07.68-.18.03-.38.05-.57.08-1.25.16-2.57.36-3.93.59-2.57.43-5.28.98-7.88,1.69-4.18,1.16-7.48,3.92-9.61,6.77-2.13,2.85-4.72,7.3-5.61,10.51-.19.69-.49,1.64-.82,2.73-.41,1.32-.88,2.87-1.34,4.45-.37,1.29-.72,2.61-1,3.86-.42,1.84-.7,3.55-.67,4.8.09,4.01.09,9.09-.44,11.58,0,0-.71,1.16.62,4.99,1.25,3.56,4.72,8.97,5.2,9.7.04.06.06.09.06.09"/>
      <path class="cls-2" d="m185.64,267.18c-1.76,3.11-3.96,6.15-5.69,8.31-2.13,2.67-3.83,3.91-5.25,5.61s-3.56,3.83-4.18,5.96c-.63,2.14-.8,3.21-1.79,4.18-.98.98-3.56,2.14-4.36,3.03-.8.89-1.07,2.67-1.87,3.56-.8.9-1.51.45-2.75,1.34-1.25.89-3.39.71-4.63.36s-5.17-.26-6.15-.26-1.83-2.32-4.63-4.86c-2.81-2.54-4.14-7.21-5.88-10.82-1.74-3.6-5.34-13.75-6.14-18.03-.16-.89-.37-1.95-.59-3.1-.19-.99-.39-2.06-.59-3.16-.69-3.76-1.39-7.86-1.63-10.56-.17-1.92-.3-4.36-.48-6.81-.24-3.19-.58-6.42-1.26-8.68-.67-2.23-1.33-3.83-1.98-4.94-.51-.88-1.02-1.44-1.5-1.74-.68-.42-1.68-1.22-2.32-1.75"/>
      <path class="cls-2" d="m190.81,254.24c-.13,1.34-2.19,7.04-4,10.75-.36.73-.75,1.47-1.17,2.2"/>
      <path class="cls-2" d="m196.17,242.28s-1.98,7.04-3.4,8.55c-.24.26-.46.49-.65.71-.94,1.05-1.3,1.7-1.3,2.58"/>
      <path class="cls-2" d="m167.18,162.73v-1.65c0-1.65-.67-5.83-2.27-9.7-.07-.15-.13-.31-.2-.47-1.59-3.78-3.81-8.34-3.81-8.34,0,0-1.79-4.01-1.79-5.88,0-.53.07-1.16.21-1.83.34-1.67,1.07-3.57,2.02-4.92,1.33-1.89,2.67-2.48,3.91-2.59,1.25-.11,2.92.24,3.65,1.23"/>
      <path class="cls-2" d="m164.7,168.04s.07-3.25,1.27-4.28c.36-.3.78-.62,1.27-.93.79-.49,1.75-.96,2.85-1.31.55-.18,1.13-.33,1.75-.44,1.55-.28,2.69-1.14,3.53-2.4.62-.92,1.07-2.04,1.41-3.33.64-2.42,1.83-4.7,1.52-7.01-.08-.59-.25-1.17-.55-1.77-.1-.18-.2-.38-.3-.58-1.52-2.91-3.83-6.93-5.08-9.3-.92-1.75-2.1-3.77-2.74-4.84-.03-.05-.05-.09-.08-.13-.24-.4-.38-.65-.38-.65"/>
      <path class="cls-2" d="m117,145.06s-1.38-2.36-2.48-3.56c-1.11-1.2-4.24-5.61-4.5-7.74-.27-2.13-.8-7.48,0-11.75.8-4.28,3.07-13.89,3.87-15.09.8-1.21,4.41-5.34,5.48-6.94,1.07-1.61,5.08-5.21,6.28-6.01,1.2-.8,4.14-5.48,5.88-6.68,1.73-1.2,9.88-1.07,12.02-.8,2.14.27,10.15-.13,13.49.8,3.34.94,16.43,7.75,16.43,7.75,0,0,9.08,6.81,9.61,9.08s2.4,4.94,3.74,7.35c1.33,2.4,1.07,5.61.93,7.88-.13,2.27-1.07,4.87-1.07,6.84s-1.47,2.5-3.87,3.78c-.99.52-1.75,1.05-2.46,1.46-1.02.57-1.94.87-3.27.48-1.16-.34-3.08-.34-4.67-.26-.28.02-.55.03-.8.05-1.13.08-1.95.18-1.95.18"/>
      <path class="cls-2" d="m159.11,134.82s-2.48,2.13-4.63,4.54c-2.13,2.4-3.47,1.07-5.34,2.67-1.87,1.6-5.5,1.47-7.63,1.07-2.12-.4-3.99-1.47-6.27-2-2.27-.53-2.27-2.81-4.01-1.74-1.73,1.07-2.13-.36-4.41-1.25-2.27-.89-8.14,1.25-8.14,1.25,0,0-.98,2.31-1.69,5.7-.71,3.38-2.48,10.29-2.48,10.29"/>
      <path class="cls-2" d="m166.33,134.37s1.25-.16,2.58-1.64c.29-.32.51-.67.65-1.01.26-.61.31-1.23.2-1.77-.07-.31-.2-.61-.37-.86-.13-.2-.3-.37-.48-.51-1.07-.8-3.33-.05-4.87,1.36-1.54,1.4-2.43,5.41-2.16,6.92.26,1.52,1.87,4.72,3.2,6.41,1.34,1.69.68,2.85.74,4.36.06,1.52-1.12,3.27-1.12,3.27"/>
      <path class="cls-2" d="m169.39,129.1s1.23,1.03,3,2.52c2.09,1.76,4.92,4.14,7.35,6.19.89.74,1.73,1.44,2.44,2.06,1.32,1.1,2.27,1.9,2.49,2.08.98.8.36,1.96,0,1.96-.3,0-1.11-.7-3.41-2.94-.41-.4-.88-.86-1.4-1.38-.19-.19-.4-.39-.61-.6-2.29-2.23-5.61-5.38-7.66-7.31-1.03-.98-1.75-1.64-1.83-1.72h0"/>
      <path class="cls-2" d="m177.06,148.35h0c.07,0,.57.03,1.25,0,1.22-.06,2.99-.27,3.78-1.05,1.25-1.25,2.58-3.39,2.58-3.39"/>
      <path class="cls-2" d="m180.33,131.4s.21,2.79,0,3.78c-.2.98-.6,2.63-.6,2.63"/>
      <path class="cls-2" d="m177.39,146.52c-.06.42-.16,1.06-.32,1.83-.42,1.97-1.19,4.8-2.54,7-2.32,3.78-4.43,6.17-4.43,6.17"/>
      <path class="cls-2" d="m177.76,145.15c-.16.5-.3.84-.3.84,0,0-.03.19-.07.52"/>
      <path class="cls-2" d="m179.25,138.98s-1.14,1.89-.89,2.96c.16.7-.28,2.24-.6,3.2"/>
      <path class="cls-2" d="m177.76,145.15h0c.13-.17,1.91-2.29,3.5-4.19.32-.38.63-.76.92-1.1.63-.77,1.16-1.42,1.42-1.75.98-1.25,3.83-3.65,5.61-4.54,1.79-.89,7.66-.53,10.33-.45,2.67.09,5.43.53,6.23,1.48.46.54.42,1.09.11,1.46-.22.27-.58.44-.99.43-.98-.01-4.01.55-6.68,1.3-.59.17-1.2.33-1.81.47-2.13.53-4.2.96-4.96,1.3-.98.45-4.8,3.7-5.34,6.54-.05.3-.09.56-.09.8-.05,1.15.43,1.67,1.03,2.13.47.35,1.01.67,1.46,1.2.57.67,1.32,1.27,2.16,1.67.88.42,1.86.62,2.83.43.87-.16,1.84-.49,2.91-.78,1.23-.34,2.6-.65,4.12-.67,2.85-.03,5.43.92,6.5,1.72.23.17.36.36.41.56.19.72-.69,1.54-1.75,1.75-1.33.26-3.65.8-6.5,1.78-2.85.98-3.92,2.23-6.23,5.22-2.31,3-3.21,3.6-6.68,5.2s-5.4,3.73-5.4,3.73l-3.78,4.7-.03.04"/>
      <line class="cls-2" x1="210.67" y1="136.07" x2="205.88" y2="136.07"/>
      <polyline class="cls-2" points="196.4 138.28 196.4 140.07 196.4 142.75 196.4 147.64 196.4 151.58"/>
      <path class="cls-2" d="m190.66,151.92s1.67-1.34,2.38-2.37c.72-1.03,3.36-1.92,3.36-1.92"/>
      <path class="cls-2" d="m196.4,140.07s-4.22.63-5.04,1.52c-.81.89-2.06,2.05-2.77,2.94s-2.59,2.4-2.59,2.4"/>
      <path class="cls-2" d="m196.4,142.75s-2.71,1.96-3.79,2.31-2.6,1.16-3.4,1.87c-.8.71-2.17,2.13-2.17,2.13"/>
      <path class="cls-2" d="m129.03,241.92s39.7,5.61,44.42,5.43c4.72-.18,10.55,0,14.4-1.6s6.41-3.83,6.41-3.83"/>
      <path class="cls-2" d="m138.65,248.96s22.66.36,27.17,0,9.49-1.6,9.49-1.6"/>
      <path class="cls-2" d="m147.74,194.54s-.02,6.12.69,9.46c.72,3.33.27,5.2.3,6.27"/>
      <polyline class="cls-2" points="145.2 196.73 145.2 196.74 147.1 201.06"/>
      <path class="cls-2" d="m97,296.37c-.28.77-.49,1.44-.61,1.97-.67,3.14-.13,13.56.94,17.17,1.07,3.6,2.13,13.75,2.4,14.69.26.94-.27,6.01-.27,6.01"/>
      <path class="cls-2" d="m125.8,228.31s-2.83,1.47-3.5,4.14c-.55,2.21-2.76,15.09-6.39,23.91-.2.49-.41.97-.62,1.43-.57,1.25-1.17,2.39-1.8,3.37-5.08,7.88-8.15,14.82-10.28,20.57-1.54,4.12-4.04,9.28-5.57,13.02-.24.57-.45,1.11-.63,1.61"/>
      <path class="cls-2" d="m84.38,336.21s-1.6-4.54-.53-9.88c.74-3.68,1.98-8.06,3.81-12.62.83-2.06,1.78-4.14,2.86-6.21,3.37-6.47,6.3-10.86,6.48-11.13,0,0,0-.01,0-.01"/>
      <path class="cls-2" d="m97.63,294.74s.13-2.52.32-5.68c.23-3.83.55-8.6.84-10.95.41-3.26,1.83-10.02,2.54-15.65.14-1.11.25-2.17.32-3.16.04-.57.07-1.11.08-1.61.03-1.03.16-2.21.38-3.48.15-.86.34-1.75.56-2.67.63-2.67,1.48-5.5,2.32-8.04.86-2.61,1.69-4.9,2.21-6.38,1.47-4.14,5.88-8.68,8.08-9.74,2.15-1.04,6.48-2.48,6.68-2.56h0"/>
      <path class="cls-2" d="m42.92,317.74c-.74,3.85-1.55,8.14-1.55,9.66,0,2.54.13,3.6-1.6,3.47-1.74-.14-6.41.02-6.81,0-.4,0-.27-.81,0-3.08.27-2.27,3.07-14.29,3.87-18.3.8-4.01,3.07-9.69,3.07-9.69"/>
      <path class="cls-2" d="m45.5,300.96c-.46,3.54-1.18,8.43-1.46,10.55-.16,1.23-.62,3.63-1.12,6.23"/>
      <path class="cls-2" d="m75.13,216s-4.78,4.82-6.38,9.49c-.82,2.39-3.18,9.39-5.53,16.43-.3.91-.61,1.82-.9,2.72-.51,1.54-1.01,3.04-1.48,4.47-.47,1.42-.91,2.76-1.3,3.99-.7,2.17-1.27,3.95-1.61,5.11-1.73,5.88-5.07,17.49-6.27,21.1-.34,1.03-.7,2-1.07,2.94-.64,1.59-1.32,3.08-2.1,4.63-.35.71-.72,1.43-1.11,2.18-1.73,3.34-1.34,6.15-1.47,8.28-.04.67-.2,2-.42,3.6"/>
      <path class="cls-2" d="m66.57,217.35s-4.9,5.08-7.7,11.89c-.98,2.38-2.47,6.2-4.05,10.54-.3.8-.59,1.63-.9,2.48-.53,1.48-1.05,2.99-1.57,4.51-.4,1.17-.78,2.33-1.16,3.49-1.62,4.98-2.98,9.73-3.54,13.04-1.19,6.99-1.76,12.6-2.64,15.14-.2.61-.43,1.05-.7,1.28-1.34,1.21-3.47,2.67-3.34,4.68s-1.07,5.48-2.8,7.75c-1.74,2.27-2.54,2.02-1.34,4.22.72,1.31,2.02,2.46,3.18,3.32.77.57,1.47,1.01,1.9,1.27,1.03.65,3.44.04,3.59,0h0"/>
      <line class="cls-2" x1="50.58" y1="282.26" x2="44.31" y2="279.72"/>
      <line class="cls-2" x1="40.31" y1="247.36" x2="51.18" y2="250.25"/>
      <path class="cls-2" d="m59.54,253.11s24.5,5.56,30.7,6.67c6.2,1.11,11.1,2.68,11.1,2.68"/>
      <line class="cls-2" x1="43.47" y1="236.32" x2="54.81" y2="239.78"/>
      <path class="cls-2" d="m63.22,241.92s13.52,3.84,20.25,5.44c6.73,1.6,19.21,4.18,19.21,4.18"/>
      <path class="cls-2" d="m118.07,220.93s-7.92,2.21-10.42,6.13c-2.49,3.91-2.66,16.44-2.66,16.44"/>
      <path class="cls-2" d="m115.29,257.78s3.41,7.02,4.47,14.5c.97,6.78,1.06,14.28,1.07,15.63v.21"/>
      <path class="cls-2" d="m117.35,257.21c-.86-.49-1.44-.86-1.44-.86"/>
      <path class="cls-2" d="m131.73,262.46s-6.27-2.54-8.4-2.68c-1.42-.09-4.23-1.57-5.95-2.56"/>
      <path class="cls-2" d="m197.23,242.33s-1.79,9.47-1.97,11.61c-.03.45-.07,1.12-.12,1.93-.11,1.94-.23,4.68-.44,6.96-.12,1.3-.26,2.45-.43,3.22-.61,2.67.32,8.72,1.9,12.29,1.59,3.56,1.48,2.85-.51,3.92-2,1.07-3.6,2.58-4.66-2.54-.57-2.75-.59-9.92-.47-15.98.09-4.72.26-8.77.28-9.5,0-.08,0-.12,0-.12"/>
      <path class="cls-2" d="m159.12,321.11c4.49-7.69,14.33-25.06,19.15-33.7.76-1.37,1.4-2.52,1.86-3.37,4.1-7.48,10.4-20.3,10.4-20.3"/>
      <path class="cls-2" d="m156.99,336.21s-1.03-4.06-.94-7.6c.04-1.54.3-2.99.94-3.97.35-.53,1.1-1.77,2.12-3.52"/>
      <path class="cls-2" d="m194.7,262.83s3.41,1.98,5.55,2.51,2.67-.75,2.85-2.51c.11-1.05.37-2.59.1-3.69-.19-.76-.63-1.32-1.56-1.36-2.27-.1-6.49-1.91-6.49-1.91"/>
      <path class="cls-2" d="m113.89,336.21v-5.33l4.18-5.17s1.83,2.27,4.6,3.51c.94.42,2,.72,3.13.77,4.43.18,6.79-1.07,12.13-7.48,1.94-2.33,3.22-5.55,4.03-8.78,1.41-5.67,1.35-11.4.78-12.47l6.23-1.98"/>
      <path class="cls-2" d="m141.95,313.71s-2.56-6.35-5.49-7.02-4.84,1.34-7.43-1.74c-2.59-3.06-5.02-8.6-5.61-10.21"/>
      <path class="cls-2" d="m114.33,300.16s5.17,8.27,4.36,12.01-1.55,6.01-1.11,8.01,5.08,9.03,5.08,9.03"/>
      <path class="cls-2" d="m120.83,287.92c-.13-.12-.3-.22-.51-.28-2.42-.8-5.59.69-7.32,2.46-.06.06-.12.13-.18.18-.77.86-2.66,3.49-1.6,4.62,1.17,1.25,4.67.96,7.23-1,1.73-1.32,2.92-3.42,2.86-4.84-.01-.47-.16-.87-.48-1.15Z"/>
      <path class="cls-2" d="m121.32,289.07l2.01,3.61s.28.99.09,2.07h0c-.09.56-.31,1.14-.75,1.61-1.3,1.39-4.06,2.98-5.93,3.61-.98.33-1.77.36-2.4.19-.58-.15-1.04-.47-1.42-.9-.8-.9-1.69-4.36-1.69-4.36"/>
      <path class="cls-2" d="m175.38,158.68s-.32,5.79-1.92,7.33c-1.61,1.54-4.55,4.2-4.55,4.2"/>
      <path class="cls-2" d="m212.8,130.81c.32,0,1.79,0,2.4,0s.8,0,.89-.87c.09-.87,0-2.09-.67-2.59s-1.54-.68-2.15-.37c-.61.31-.83.96-1.01,1.84-.18.88-.18,1.12-.18,1.12,0,0-.31.89.71.87Z"/>
      <path class="cls-2" d="m97.96,289.07s-3.83,6.94-6.37,9.48c-2.54,2.54-3.74,5.34-4.67,6.81-.42.66-.92,1.88-1.39,3.12-.59,1.52-1.12,3.05-1.42,3.56-.53.94,3.55,1.67,3.55,1.67"/>
      <path class="cls-2" d="m77.97,263.74s-10.13,10.77-14.75,14.91c-4.62,4.14-6.49,8.04-6.89,8.76"/>
      <path class="cls-2" d="m91.85,267.17s-7.17,10.55-7.79,14.56c-.62,4.01.45,7.48.72,11.75"/>
      <polyline class="cls-2" points="56.33 297.95 57 325.12 63.22 329.93 63.22 303.53"/>
      <path class="cls-2" d="m42.92,317.73h0c.14.21,2.98,4.4,6.22,7.52,3.31,3.21,3.31,5.21,3.58,7.35.26,2.14,1.19,3.6,1.19,3.6h163.74s.26-2.8-.53-4.67c-.8-1.87-2.27-2.93-2.27-2.93"/>
      <path class="cls-2" d="m70.49,234.04s16.02-7.21,21.37-12.02,10.11-8.59,9.13-6.9-5.38,14.91-6.85,18.92-3.08,6.81-4.41,8.95"/>
      <path class="cls-2" d="m107.75,238.99s3.6-3.47,6.14-4.8c2.54-1.34,4.92-2.67,3.06,1.47-1.85,4.14-5.74,9.89-7.14,13.16s-3.26,11.86-3.26,11.86"/>
      <path class="cls-2" d="m117.35,257.21s0,0,.03,0c.52.05,8.85.89,10.54,1.54,1.73.67,3.23.55,3.23.55"/>
      <path class="cls-2" d="m60.84,249.12s18.65,4.56,23.03,5.49,17.79,4.68,17.79,4.68"/>
      <path class="cls-2" d="m52.35,246.77s-6.31-1.41-8.04-2.12c-1.74-.72-3-1.15-3-1.15"/>
      <path class="cls-2" d="m102.12,254.21s-28.69-7.07-32.84-8.14c-4.14-1.07-6.96-1.42-6.96-1.42"/>
      <path class="cls-2" d="m53.92,242.26s-5.64-1.4-7.09-1.94-4.18-1.27-4.18-1.27"/>
      <path class="cls-2" d="m159.11,321.11h0c.44-.05,19.11-1.83,24.22-2.53,5.16-.71,9.97-.53,12.1,0,2.14.53,11.04-2.3,11.04-2.3"/>
      <path class="cls-2" d="m208.62,309.5s-8.28,4.13-11.35,5.18"/>
      <path class="cls-2" d="m168.34,305.03s21.99-5.99,25.52-7.08c3.54-1.09,6.96-4.12,9.08-4.47"/>
      <path class="cls-2" d="m163.75,271.22s10.03-1.42,14.01-2.31c3.87-.87,7.68-1.67,7.88-1.72h0"/>
      <path class="cls-2" d="m206.48,220.93s-4,12.36-4.85,14.5c-.85,2.13-2.62,6.5-2.62,6.5"/>
      <path class="cls-2" d="m216.5,229.37s-2.18,6.39-5.2,10.41"/>
      <path class="cls-2" d="m225.54,208.59s2.67,10.41,1.25,16.22"/>
      <path class="cls-2" d="m222.15,234.58s-4.32,6.01-7.29,7.35"/>
      <path class="cls-2" d="m237.64,212.28s4.81,9.62,2.85,17.99"/>
      <path class="cls-2" d="m176.12,255.87s11.08-1.94,16-4.34"/>
      <line class="cls-2" x1="178.26" y1="287.41" x2="190.99" y2="279.72"/>
      <path class="cls-2" d="m156.05,328.6s10.55-.52,20.08.61,18.44-.61,22.89-.72"/>
      <path class="cls-2" d="m131.73,180.76s8.16-10.59,10.65-11.89c2.49-1.29,6.34-2.87,6.34-2.87"/>
    </g>
    <polyline class="cls-2" points="209.91 139.58 198.88 139.58 198.88 148.35 207.45 148.35"/>
  </g>
  <path class="cls-1" d="m54.19,336.32s-.91-2.17-1.26-4.17c0,0,.37-1.98-1.24-4.04-1.61-2.06-3.4-3.8-4.44-5.03-1.04-1.23-4.05-5.23-4.05-5.23,0,0-.61,3.17-.84,4.52s-.61,3.57-.66,4.36.31,3.65-.44,3.95-6.62.32-7.32.32-1.14-.02-.95-1.26c.18-1.24,1.4-7.64,2.17-11.13.77-3.49,1.78-8.69,2.38-10.79.6-2.09,1.77-5.56,2.05-6.31s.6-1.57.6-1.57c0,0-1.26-1-2.09-2.1s-1.68-2.54-1.56-2.97.57-.98,1.24-1.79,1.78-2.38,2.24-3.48,1.06-2.23,1.15-3.66-.14-2.36.64-3.33,1.87-1.71,2.55-2.57,1.13-1.16.42-2.29-3.43-5.57-4.19-7.66c-.76-2.08-1.49-4.05-1.3-5.14s.34-1.56.45-2.88.24-4.39.23-6.08c0-1.69-.26-3.61.09-5.62.35-2.01.69-3.95,1.69-7.26,1-3.32,1.67-6.69,3.03-9.42,1.36-2.73,1.98-4.44,4-6.95s3.07-4.08,5.43-5.39,4.71-2.39,8.68-3.14c3.97-.75,7.89-1.41,7.89-1.41,0,0,0-4.18.1-7.26.1-3.08.24-5.8.57-9.52.33-3.72,1.48-7.03,2.88-9.99,1.4-2.95,2.03-5.09,4.05-7.13,2.02-2.04,1.8-2.07,3.7-3.38,0,0,2.59-1.85,4.2-2.7s2.57-1.99,3.73-2.74c1.16-.75,4.4-2.5,5.44-3.1,1.04-.6,2.15-1.69,3.23-1.84s1.15-.39,1.68-1.15.89-1.99,2.42-2.56,2.42-.93,3.11-1.45.7-.98,0-1.28-.82-1.4-.64-2.33.27-2.08.4-2.68.38-2.3,1.19-2.65,1.75-.28,3.05-.14c1.3.15,4.92.56,4.92.56,0,0,1.15-4.48,1.67-6.7.52-2.22,1.07-3.27.4-4.29s-2.05-2.45-3.56-4.78c-1.51-2.32-2.79-3.78-3.01-5.83s-.5-5.28-.42-7.19c.08-1.9.63-5.81,1.13-8.02.5-2.21,1.19-5.45,1.92-7.93s.8-3.2,1.68-4.3,2.38-2.9,3.41-4.21,2.01-2.77,3.13-3.89,3.22-2.91,4.44-4.02c1.22-1.11,3.56-4.32,4.77-5.53s1.56-1.81,3.59-2.03c2.03-.22,5.55-.52,7.71-.34,2.15.18,5.37.28,7.34.31s5.69-.11,7.69.52c2,.63,5.66,2.19,8.69,3.69,3.03,1.5,7.4,3.41,9.51,5.09s5.43,4.41,6.49,5.57c1.07,1.16,1.55,1.58,2.05,2.94s1.87,3.94,2.76,5.48c.89,1.54,2,3.06,1.94,5.77s-.17,4.66-.54,6.41c-.36,1.75-.53,2.13-.61,3.35-.08,1.22.29,1.99-1,2.82s-2.4,1.35-3.48,2-1.88,1-1.85,1.98.18,1.94-.14,3.36-.66,2.08-.16,2.49,2.1,1.76,2.1,1.76c0,0,2.15-2.7,3.51-3.79,1.35-1.09,3.01-2.59,4.47-2.79,1.46-.2,4.81-.32,6.98-.24,2.17.08,4.39,0,6.05.47,1.66.48,2.25.35,2.59,1.09s.19,1.47,1.24,1.47h3.66s.33-4.51.57-6.15c.24-1.63.42-2.8,1.37-3.34s1.75-.56,2.36-.28,1.09.48,1.45,1.06.32.84.98.66,2.15-.65,3.15-.66,2.03.44,2.47.97.63.95.71,1.27.24.38.58.36,1.24-.14,1.86.58,1.27,1.32,1.76,2.76,1.27,4.3,1.6,5.58c.33,1.28,1.03,3.87,1.37,5.83.34,1.96.59,3.65.31,5.1s-1.07,4.13-1.56,5.42-.99,2.25-1.09,3.15-.25,1.81.08,3.58c.33,1.77,1.02,4.56,1.29,5.76s.56,2.74,1.01,3.77c.45,1.03,3.27,6.54,4.39,8.06s4.08,6.62,4.97,8.4c.88,1.78,2.8,6.19,3.48,8.05.68,1.86,1.6,4.4,2.25,6.45s1.16,3.7,1.16,3.7c0,0,.93.47,2.12,1.68s2.83,2.95,3.99,4.66c1.16,1.72,2.24,2.98,1.95,4.65-.29,1.67-.88,3.05-1.43,4.93s-2.04,5.72-2.04,5.72c0,0-1.87,4.88-2.68,6.18s-1.09,1.87-2.07,2.63c-.98.76-2.41,1.91-5.51,3.22s-8.1,3.53-9.98,4.08-5.1,1.16-6.55,1.12-3.66-.05-6.08-.47c-2.42-.42-5.29-.98-8.38-1.52-3.08-.53-4.34-.8-5.92-.95s-2.73-.15-2.73-.15c0,0-.05.09.2,1.48s.59,2.91.68,5.01c.09,2.1.08,3.96.2,5.57.12,1.61.38,4.54.81,5.68s1.29,2.91,1.89,5.43c.6,2.51.74,4.14,1.2,7.38.46,3.25,1.26,8.42,1.59,10.18.33,1.76,1.89,9.14,1.89,9.14,0,0,1.33,6.84,1.55,8.3.23,1.47.35,3.08.25,5.42-.1,2.34-.38,4.01-.1,5.78s1.28,5.91,1.62,7.52c.34,1.61.55,2.94.75,3.56s1.2,2.63,1.12,4.23-.55,1.89-.55,1.89c0,0-.18-.05.39.55s1.41,1.23,1.93,2.94.41,3.02.41,3.02l-.04,1.2"/>
</svg>