<?xml version="1.0" encoding="UTF-8"?>
<svg id="Church" xmlns="http://www.w3.org/2000/svg" viewBox="0 0 288.26 381.24">
  <defs>
    <style>
      .cls-1 {
        stroke-width: .75px;
      }

      .cls-1, .cls-2 {
        fill: none;
        stroke: #1d1d1b;
        stroke-miterlimit: 10;
      }

      .cls-2 {
        stroke-width: .5px;
      }
    </style>
  </defs>
  <g>
    <path class="cls-2" d="m115.58,95.29c.7-.96.57-2.49.77-4.98s.96-5.43,2.11-8.94c2.07-6.33,7.35-13.84,14.68-14.3,7.97-.5,14.76,5.86,18.96,11.94,3,4.34,4.85,7.98,4.85,8.94s-1.72.77-1.72.77c0,0-2.55-.83-4.02,1.02s-2.62,2.3-3.89,4.79-3.19,5.62-3.19,5.62"/>
    <path class="cls-2" d="m134.48,95.36s-3,.19-4.66,2.3-3.45,6.89-4.91,7.02-3.32-1.28-4.79-.96-1.98,1.15-2.04.19,0-3.26,0-3.26"/>
    <path class="cls-2" d="m115.58,102.12s-1.66,3.06-1.47,6.45.83,3.89,1.09,4.47.1,1.85-1.1,4.09c-1.2,2.23-5.54,8.81-6.3,10.6s-3.13,5.55-4.02,9.51-1.66,9.32-1.72,12,.7,5.87-.32,5.87-1.79-2.04-2.74-2.11-1.28-.77-1.6-2.11,1.91-5.43,2.55-8.17,2.55-9.13,3.13-13.53,2.97-12.26,3.4-15.7,1.07-8.55,2.09-10.53,4.28-4.66,4.28-4.66"/>
    <path class="cls-2" d="m118.33,104.36s-.38,3.24-1.23,5.62-1.8,3.54-1.8,3.54"/>
    <path class="cls-2" d="m116.41,95.85s1.36,1.02,2.21,1.91,1.32,1.53.64,1.96-1.4.85-1.79,1.53-.08,1.38-1.06,1.28-1.83-1.83-2.6-2.38-1.15-1.83-1.28-2.47,1.06-1.06.89-1.83.47-1.11.89-1.19,1.83.99,2.09,1.19Z"/>
    <path class="cls-2" d="m108.16,126.99s2.09-1.53,4.98-2.55,6.21-1.28,7.62-.81,5.02,2.21,6.77,3.06,2.89,1.7,3.87,1.7-.26-1.02,0-1.23.81.09,1.7,1.23,1.96,2.55,2.89,5.36,2.81,9.28,4.3,13.19,3.28,8.51,3.87,11.66,2.3,9.02,2.3,9.02"/>
    <path class="cls-2" d="m112.13,148.66s.38-4.53,3.8-8.11,6.16-5.3,8.97-4.91,6.26,1.6,7.09,3,4.21,12.13,4.72,14.62,1.53,5.17,1.47,6.32.51,3,.89,5.04-.45,4.4.32,5.49,1.09,3.19,1.4,4.4.7,2.55-.51,3.45-5.3,2.87-10.15,3.38c-4.85.51-5.81.64-6.7-.7s-1.09-3.89-1.79-5.49c-.7-1.6-1.91-3.45-1.91-3.45,0,0-4.02-7.66-5.43-12s-2.17-8.23-2.17-8.23"/>
    <path class="cls-2" d="m102.15,154.74s1.18,12.24,2.2,16.51,3.51,14.55,4.53,19.21,1.47,4.72.7,6.06-1.91,7.53-1.91,10.91-1.28,8.74-1.21,11.87-.47,15.38-.4,20.36.27,16.6.59,19.34,1.02,8.49,1.02,13.47-.38,9.45.26,11.11,1.02,3.57.77,4.72-.26,2.11.26,2.68.77,1.72,1.34,1.53,1.4-.19,2.68.7,1.98,3.38,2.81,4.53,2.68,4.85,4.09,5.74,3.06,2.23,4.15,2.23,2.43.7,4.21,1.6,6.32,4.02,8.49,4.79,3.57,1.47,4.02,1.91,1.53.89,2.87.89,2.36-.26,3.38-1.15.89-1.09,2.11-2.04.06-1.4,1.09-2.3,1.4-1.34.83-2.23-.49-1.4.27-2.3.75-5.3.82-7.34.64-12.51.45-13.91-.19-2.94.51-2.49,3.06,2.55,5.11,3.26,3.89,1.4,3.77-.89-.5-6,0-6.51.64-1.53,0-3.06-.71-5.17-1.35-12.89-1.66-18.06-2.74-25.85c-1.09-7.79-1.28-10.4-1.72-14.3s-1.28-13.34-2.81-18.89-3.45-11.04-3.77-12.45-.83-4.15-1.09-5.55-.45-4.15-.45-4.15"/>
    <path class="cls-2" d="m155.69,88.73s-.08,3.33-.85,6.14c-.77,2.81-.77,3.66-.77,4.21,0,.55-.34,1.06-.34,1.06"/>
    <path class="cls-2" d="m140.96,96.06l-.51-2.38c-.13-.6-.72-1.15-1.49-1.62s-2.68-.04-3.53,1.45-.98,1.74-1.23,3.4-.21,3.49.28,4.26,1.09,1.23,1.79,2.04,1.26,1.74,1.51,1.74.81-.51.55-1.28-.34-1.14-.34-1.14"/>
    <path class="cls-2" d="m139.05,95.68s.68-1.45,0-1.74-1.91-.56-2.79.72-1.51,3.15-1,4.6.89,2,1.62,1.53"/>
    <path class="cls-2" d="m135.48,122.32s-.21-1.19-1-1.15-1.94.64-2.36,1.91-1.15,2.38-.72,4.09"/>
    <path class="cls-2" d="m172.94,143.74s-.14.45-1.96,1.24c-1.82.8-4.79,1.69-5.87,1.69s-1.18-.04-1.66-1.16-.64-2.07-.93-2.67-.61-.86-1.12-.8-1.15-.03-1.82,1.31-.77,2.65-.99,4.53-.03,4.28-.89,6.19-2.71,4.44-4.91,7.05-4.83,5.37-5.59,5.94-6.9,5.36-6.9,5.36"/>
    <path class="cls-2" d="m124.19,181.39s1.38,7.03,4.06,9.43,4.4,3.26,6.29,2.2,4.15-2.71,6.99-5.78c2.84-3.06,6.83-7.72,8.11-9.38s4.37-6.06,5.87-7.98c1.5-1.91,3.93-6.38,5.59-8.01s4.47-4.76,5.46-5.71,2.36-1.88,2.49-2.3,1.18-1.63,1.5-1.91.38-.86.54-1.85.35-1.95,1.5-2.49,2.71-1.82,2.94-2.74,0-2.82,0-2.82"/>
    <path class="cls-2" d="m143.11,154.74s9.39-8.44,10.64-9.59,2.3-1.97,3.64-3.11c1.34-1.14,2.74-2.54,4.12-3.82s2.68-1.66,3.99-2.43c1.31-.77,2.11-1.56,3.26-1.31s1.56.54,2.68.7c.48.07,1.84,0,1.48.81-.41.93-1.52,1.54-2.47,1.68-1.31.19-1.82-.1-2.81.64s-1.4.93-1.4.93"/>
    <line class="cls-2" x1="173.28" y1="138.35" x2="170.21" y2="137.71"/>
    <path class="cls-2" d="m158.36,151.34s-1.61-1.15-2.73-1.82-2.01-.45-2.11.35.77,1.5,1.85,2.27,2.42,1.73,2.42,1.73"/>
    <path class="cls-2" d="m163.26,145.04s7.79-5.1,8.9-5.9,3.04-2.11,3.45-2.39.51-.38,1.24-.38h3.54s.38.29,0,.61-13.63,9.43-13.63,9.43"/>
    <line class="cls-2" x1="158.55" y1="148.43" x2="156.41" y2="150"/>
    <path class="cls-2" d="m180.4,136.37s1.5.67.29,1.66-7.88,5.87-7.88,5.87"/>
    <line class="cls-2" x1="153.86" y1="157.24" x2="145.87" y2="165.58"/>
    <path class="cls-2" d="m154.73,151.66s-3.09,1.88-3.73,2.21-.85.32-.34.87,4.41,3.54,4.41,3.54"/>
    <path class="cls-2" d="m159.94,163.25s4.22,4.34,5.62,5.87,3.11,3.91,3.49,4.3.47.6.98.21,14.64-9.7,16.64-11.32,15.4-10.68,19.91-13.66c4.51-2.98,9.4-5.82,8.98-7.27s-.77-2.08-2.89-3.68c-2.13-1.6-5.15-2.8-7.83-4.97-2.68-2.17-6.68-5.49-8.26-6.04s-1.83-.21-2.55,0-2-.51-4.47,1.15-11.32,8.52-11.32,8.52"/>
    <path class="cls-2" d="m140.23,172.14s-1.73,2.72-3.56,3.49-3.91,1.49-7.53,1.96-6.61.63-6.61.63"/>
    <path class="cls-2" d="m142.05,151.66s-.32,1.37-1.17,2.21-.81.79-1.23,1.52.26,1.21-.6,1.86-1.04,1.04-1.04,1.04"/>
    <path class="cls-2" d="m120.01,172.14s-3.22.64-4.2.51-1.57-.85-2.81-.98-3.49-.47-4.85-1.4-2.89-1.74-3.36-2-1.03-.15-1.03-.15"/>
    <path class="cls-2" d="m116.67,140.8s-1.47,7.5-.45,13.93,2.23,9.56,2.81,12.37"/>
    <path class="cls-2" d="m138.31,168.38s-1.6-3.48-3.51-6.97-2.87-5.22-2.87-5.22"/>
    <path class="cls-2" d="m130.96,139.78s2.87,10.03,4.15,11.87"/>
    <path class="cls-2" d="m150.72,193.46s-6.03,2.49-13.12,4.03-14.94,2.17-19.66,1.85c-4.72-.32-8.57-2.35-8.57-2.35"/>
    <path class="cls-2" d="m111.58,292.53s.49,11.78.4,14-.38,2.25-.4,2.25c-.22.06-.26,1.44-.26,1.63,0,.78.19,1.58.68,2.2,1.22,1.57,1.52,2.21,3.1,2.55s1.62.81,3.02-.23l1.4-1.04s-.89-.47-1.53-1.53.6-1.66,2.98-3.19,2.83-3.44,2.83-3.44"/>
    <path class="cls-2" d="m133.46,310.46s1.12,1.47,2.48,2.32,4.47,2,5.4,2.89,1.74,1.4,1.79,3.11,0,3.53-1.91,5.02-4.26,2.55-6.85,2.72-5.06.09-7.74-.68-6.26-1.96-9.32-2.3-6.43-.85-8-2.34-1.91-2.17-1.87-3.62.47-2.34.6-4.38.77-3.62,1.23-4.43,1.23-1.7,1.62-2,1.11-.26,1.11-.26"/>
    <path class="cls-2" d="m142.96,317.69c-.24,5.21-6.13,6.96-10.47,6.96-3.4,0-4.34-.09-8.51-1.62-2.74-1.01-5.59-1.65-8.43-2.29-2.12-.47-4.63-.96-6.29-2.48-1.02-.94-1.65-2.18-1.65-2.18"/>
    <line class="cls-2" x1="140.62" y1="94.44" x2="145.87" y2="103.82"/>
    <line class="cls-2" x1="137.22" y1="104.42" x2="140.03" y2="109.43"/>
    <path class="cls-2" d="m137.5,96.57s-1.05,1.63-.41,2.56.99.61,1.02,0,.16-1.18-.26-1.18"/>
    <path class="cls-2" d="m151.9,109.59c-.2-.23-.5-.57-.95-1.12-1.56-1.88-2.59-3.05-2.65-3.79,0,0,.03-1.02-1.24-1.03s-1.56.27-2.07,1.03-.99,2.48-2.07,3.15-3.27,1.56-3.55,2.01-.92,1.44-.22,2.65,1.05,1.15.67,2.2-2.05,4.7-3.19,6.16-1.37,1.63-.93,1.82,5.43.8,6.48.86,1.56-.06,2.59-1.4,4.6-6.32,6-7.72,2.23-2.46,1.85-3.54c-.27-.77-.21-.7-.71-1.28"/>
    <path class="cls-2" d="m146.69,95.69s5.91,3.89,6.65,4.33,1.69,1.08,2.07,1.3.62.61.28.83-.6-.26-1.39-.77-7.8-5.34-7.8-5.34"/>
    <path class="cls-2" d="m154.25,100.59s.62-.75,1.1-.89.8.28.83.69-.49,1.75-.49,1.76c-.51,1.32-1.41,2.44-2.27,3.55-.76.97-1.58,1.99-2.81,2.37"/>
    <path class="cls-2" d="m152,107.27s-.21-.49-.82-.49-1.51.14-1.51.14"/>
    <path class="cls-2" d="m153.39,100.66s-.57.86-.98,1.15-.26.61-.41,1.24-.4,3.22-.82,3.73"/>
    <path class="cls-2" d="m134.28,96.42s-1.14,1.13-2.1,2-1.18.71-1.56.39-.48-.65.8-1.49,2.39-1.86,2.39-1.86"/>
    <path class="cls-2" d="m132.11,111.46c-.16,2.01-.41,4.06-.07,6.06.23,1.38.72,2.74,1.32,4"/>
    <path class="cls-2" d="m153.05,281.17s-4.85-26.55-7.02-35.11c-2.17-8.55-5.87-16.72-7.91-21.45-2.04-4.72-1.53-13.02-1.53-13.02"/>
    <path class="cls-2" d="m141.07,196.64s4.57,10.73,5.72,17.37c1.15,6.64,1.15,12.64,2.04,17.87"/>
    <path class="cls-2" d="m117.56,207s-.77,28.6,0,36.38,2.68,15.19,2.68,15.57"/>
    <path class="cls-2" d="m111.32,209.68s1.39,39.96,1.65,47.36,1.66,28.34,1.66,32.3.89,6.26.89,6.26"/>
    <path class="cls-2" d="m126.17,199.17s3.65,17.53,4.67,25.45c1.02,7.91,2.43,20.04,3.7,25.66s1.91,11.23,3.45,16.47"/>
    <path class="cls-2" d="m123.8,215.04s.4,36.64,3.47,50.3c3.06,13.66,2.51,20.55,2.79,24"/>
    <path class="cls-2" d="m137.6,197.49s2.34,13.21,3.47,20.36,3.57,9.83,3.88,13.53"/>
    <path class="cls-2" d="m110.26,307.41s-.36,3.93.41,5.55,3.66,3.77,4.17,3.61,2.38.21,3.32-.47,2.43-2.12,2.43-2.12c0,0,0-.88-1.07-.09"/>
  </g>
  <g>
    <path class="cls-1" d="m111.99,306.53l-.23-9.53-.17-4.47s-.5-.17-.9-.09-.59.42-1.16-.52-1.09-1.81-.99-2.59.5-1.31.14-2.93-1.38-3.7-1.25-4.85.32-4.98.24-8.62-.5-9.36-.77-11.74-.51-6.26-.59-9.45-.27-6.97-.24-11.81c.03-4.84.27-13.98.27-13.98l.12-6.64s.09-2.19.24-3.32.57-3.72.73-5.34.2-4.07.38-5.58.75-5.3,1.11-6.56.88-2.09.97-2.61.12-.83-.28-2.44-3.71-15.8-3.71-15.8c0,0-1.74-7.87-2.12-10.02s-1.74-12.67-1.74-12.67c0,0,.01.4-.51.11s-1.63-1.73-2.08-1.9-1.15-.29-1.38-.61-1.06-2.38-.7-3,2.02-4.77,2.88-8.02,1.93-6.73,2.52-10.38,1.04-5.95,1.56-8.07,1.96-7.78,2.16-9.48.72-6.03,1.19-7.79,1.05-3.51,2.39-4.87,2.48-2.39,2.48-2.39c0,0-.28-.94,0-1.24s.88-.94.9-1.47.37-1.31.76-1.41,1.47,1.41,1.72.21-.06-2.68.63-5.92,2.09-8.53,4.05-12.18,4.49-6.53,7.09-7.72,3.71-2.02,7.84-1.69,7.53,2.36,9.9,4.52,5.45,5.24,7.62,8.78,3.62,6.22,3.76,6.87.3,1.09-.26,1.25-.78-.4-.9,1-.39,3.65-.81,5.31-.68,2.59-.74,3.55-.25,1.75.18,1.73,1.68-.72,1.78-.12.2,1.48-.77,2.99-1.53,2.44-2.41,3.35-2.11,1.91-1.7,2.38,1.79,1.81,1.52,2.72-.83,1.67-1.94,2.95-3.34,4.14-4.54,5.76-1.69,3.22-3.49,3.23-7.03-.73-7.03-.73c0,0-.16-.83-.54-1.15s-1.28-.37-1.78,0-1.25,1.5-1.58,2.41-.66,2.29-.53,2.76.89.58,1.36,1.14,2.63,3.51,3.74,7.08,2.88,9.26,3.72,11.48,3.04,8.33,3.04,8.33l8.78-7.91s6.58-5.79,8.33-7.4,2.59-2.06,4.61-3.27,2.92-1.93,3.91-1.66,1.79.61,2.68.7,2.08,0,1.48.81-.49.9-1.16,1.21-.09.94.59,1.14,1.35-.27,1.89-.64,2-1.34,2-1.34h2.01s4.46-3.47,7.19-5.5,4.71-4.2,6.24-4.17,2.34-.23,3.11-.25,1.64-.16,3.71,1.36,7.02,5.66,9.77,7.24,5.62,3.24,6.29,4.33,1.79,2.32,0,3.75-43.72,29.95-43.72,29.95c0,0-1.05,1.27-1.8.35s-3.68-4.53-5.4-6.32-3.71-3.85-3.71-3.85c0,0-6.79,9.91-8.82,12.6s-3.11,4.02-3.11,4.02c0,0,.52,5.42,1.23,8.26s2.84,10.51,3.81,12.55,1.44,6.44,1.91,10.21,3.2,26.7,3.2,26.7l1.73,15.65s1.19,15.39,1.44,17.4.69,3.45,1.03,3.96.43,1.41,0,1.91-.78,1.15-.67,3.13.46,3.68.16,4.71-.88.98-2.19.56-1.89-.36-3.59-1.55-2.05-2.25-2.76-2.19-.93.14-.89,1.03.11,5.49-.07,9.45-.18,8.5-.44,10.4-.8,2.74-1.04,3.41-.35.85-.01,1.51,1.07.69.19,1.59-1.26,1.25-1.35,1.92-.28.93-.92,1.52-1.37,1.82-2.48,2.29-1.28.83-2.7.65-2.38-.69-3.23-1.17-3.47-1.25-4.29-1.77-2.22-.79-1.18,0,4.05,1.98,5.42,2.99,2.61,1.68,2.72,2.96.42,2.9-.65,4.61-3.64,3.25-5.83,3.62-4.34.92-7.43.22-9.08-2.4-10.17-2.58-4.61-.48-6.23-1-3.23-.99-4.15-2.31-1.28-2.34-1.16-3.19.37-2.89.63-4.47.48-2.72.93-3.53,1.17-1.85,1.53-2.19,1.46-.59,1.46-.59Z"/>
    <path class="cls-1" d="m153.86,157.24l-4.83,5.05-2.98,3.11.4,2.24s2.37-2.06,3.41-3.2,3.65-4.18,3.65-4.18l1.56-1.98-1.22-1.04Z"/>
    <path class="cls-1" d="m115.58,102.12s-1.1,2.13-1.29,3.84-.31,3.06,0,4.43,1,3.11,1,3.11c0,0,1.15-1.26,1.8-3.54s1.23-5.62,1.23-5.62l-.28-1.82s-.03-2.15-.36-1.59-.48,1.55-.87,1.57-1.23-.39-1.23-.39Z"/>
  </g>
</svg>