<?xml version="1.0" encoding="UTF-8"?>
<svg id="Church" xmlns="http://www.w3.org/2000/svg" viewBox="0 0 288.26 381.24">
  <defs>
    <style>
      .cls-1 {
        stroke-width: .75px;
      }

      .cls-1, .cls-2 {
        fill: none;
        stroke: #1d1d1b;
        stroke-miterlimit: 10;
      }

      .cls-2 {
        stroke-width: .5px;
      }
    </style>
  </defs>
  <g>
    <g>
      <path class="cls-2" d="m141.21,53.7c.7-.66,1.35-1.38,2.01-1.82,1.27-.85,2.81-.17,3.49,1.19.09.17.19.36.3.55.29.47.65,1,1.04,1.53.77,1.01,1.67,2.01,2.4,2.6.15.12.31.23.47.31,1.18.68,2.52.54,3.87.46,1.53-.08,3.49-.43,5.33.17s2.76.68,4.12,1.87.85,2.56,1.53,3.92c.14.27.31.49.5.65.78.65,1.93.48,2.82-.06,1.11-.68,2.3-1.27,3.23-4.17.94-2.89.69-6.29,0-9.1-.68-2.81-4.93-6.9-6.12-7.32-.31-.11-.49-.25-.59-.43-.29-.52.03-1.33-.35-2.47-.51-1.53-1.11-3.66-4.59-6.89-3.49-3.23-13.37-5.79-13.37-5.79,0,0-.22-.11-.56-.31-.36-.22-.86-.54-1.36-.96-.39-.31-.79-.69-1.14-1.11-1.19-1.45-2.72-2.81-4.94-2.47-2.21.34-3.91,1.28-4.76,3.58-.85,2.29-2.22,4.25-2.9,5.61-.65,1.31-.7,3.83-.7,4.04"/>
      <path class="cls-2" d="m165.61,44.05s-2.31-.42-7.16-2.55-8.51-7.49-10.27-9.79c-.53-.69-1.28-1.23-2.13-1.65-.42-.21-.88-.39-1.34-.55-1.68-.54-3.47-.7-4.64-.61-1.91.15-7.29,5.49-9.13,8.38h0c-.22.34-.38.64-.49.9-1.02,2.47-5.02,7.74-6.13,9.02-1.1,1.28-1.1,6.64-.45,7.66s.88,8.68.11,10.47c-.58,1.38,1.24,1.79,2.77,1.53.46-.08.9-.22,1.23-.42,1.45-.86,3.92.85,5.45.59,1.53-.25,2.72-3.66,3.32-5.96.6-2.29.68-5.53,2.3-5.95.79-.2,1.49-.78,2.15-1.4"/>
      <path class="cls-2" d="m146.74,28.59s-.26.02-.69,1.47"/>
      <path class="cls-2" d="m145.38,27.63s-.62.64-.67,1.88h0"/>
      <path class="cls-2" d="m145.77,65.12s-.72,2.68-1.23,2.25c-.11-.09-.27-.23-.48-.41-.8-.71-2.21-2.12-3.05-3.84-1.07-2.17-1.07-5.28-.73-6.6.32-1.24.86-2.63.92-2.8.01-.01.01-.02.01-.02"/>
      <path class="cls-2" d="m145.77,58.39s1.6-1.51,2-2.3c.41-.78.28-.94.28-.94"/>
      <path class="cls-2" d="m145.09,57.12s1.49-1.11,1.49-2.17c0-.4-.14-.83-.38-1.19-.4-.61-1.08-1.01-1.83-.69-1.19.51-2.43,2.38-2.85,3.7-.43,1.32.01,5.32,1.41,6.64,1.39,1.32,2.29,1.15,2.5,0s-.47-1.1-.3-2.12c.13-.82.14-1.46-.06-1.46-.05,0-.11.04-.19.14"/>
      <path class="cls-2" d="m126.75,66.85h0c-.11.32-2.24,6.71-3.66,9.24-1.45,2.6-4.68,5.88-4.68,5.88"/>
      <path class="cls-2" d="m166.27,65.13s-1.14,1.52-1.86,2.29c-.72.76-1.06.76-1.06,1.61v1.28"/>
      <polyline class="cls-2" points="150.91 58.07 158.29 68.28 158.62 68.73"/>
      <path class="cls-2" d="m143.97,67.06s1.12,1.97,2.18,3.76c.67,1.12,1.78,3.2,2.52,4.6.45.84.76,1.44.76,1.44"/>
      <path class="cls-2" d="m148.67,75.42c-.28.01-.51.08-.73.08-.51,0-1.42-.04-1.24.85s-.55,4.94-.93,6.09c-.38,1.14-.59,2.46-.59,2.46,0,0-.68,1.86-.34,2.71.06.17.18.3.34.36.97.38,4.55,1.1,6.68,1.02,2.12-.09,4.89-1.53,6.76-3.11,1.87-1.57,3.07-3.02,3.92-3.91.85-.9,1.1-3.83,1.4-5.58.3-1.74.64-4.59.6-4.89-.04-.26-.37-.36-1.23-1.15-.12-.11-.25-.24-.39-.38-1.15-1.15-.43-2.38-1.74-2.55-1.32-.18-2.58-.16-2.77.3-.07.19-.07.32-.12.56-.06.35-.2.93-.77,2.24-.98,2.21-1.96,4.09-2.51,4.6-.56.51-.64.8-1.88,1.14-1.23.35-2.04.47-3.06-.34-.59-.46-1.03-.53-1.4-.5Z"/>
      <path class="cls-2" d="m144.67,87.67s-1.2,1.28-2.98,2.47c-1.79,1.19-1.58,1.74-2.17,3.66-.24.77-.2,1.36-.06,1.8.21.65.62.96.62.96,0,0,1.73,1.3,1.93,2.45.19,1.15-.64-.38-1.93-1.6-1.29-1.21-4.2-3.76-8.86-8.41-4.66-4.66-6.77-6.14-9.7-6.59-1.47-.22-2.41-.36-3.11-.32s-1.17.26-1.68.77c-1.02,1.02-1.47,1.4-1.47,1.4,0,0-1.34.64-1.72,1.73-.39,1.08-2.94,2.55-4.47,4.15-.87.91-1.94,2.38-2.74,3.89-.61,1.14-1.08,2.3-1.22,3.26-.32,2.23-.89,2.61-1.79,10.53-.89,7.91-1.21,15.13-.31,20.04.61,3.39.92,6.8,1.27,10.41.07.82.15,1.65.24,2.49.08.84.17,1.69.27,2.55.37,3.22,1.32,9.17,2.18,14.32.62,3.73,1.19,7.04,1.46,8.59.64,3.7,1.09,7.73,2.3,9.39,1.21,1.65,2.74,4.27,1.28,7.46-.36.79-.73,1.59-1.04,2.37,0,0-.6,1.42-.94,4.4s-1.11,2.81-1.19,4.77c-.09,1.95.68,3.74.68,3.74"/>
      <path class="cls-2" d="m139.46,95.6s.95.03,2.1,1.49c1.15,1.47,2,2.45,3.11,3.47,1.1,1.02,2.8,3.66,3.74,6.47.94,2.81,2.21,4.94,4.34,12,2.13,7.06,3.66,17.28,4,23.75.34,6.46,1.79,16.08,2.21,22.29.43,6.22,2.98,16.26,4,22.81.69,4.39,1.64,11.28,2.27,16.01,0,0,1.14,5.35-.48,6.55-1.62,1.19-5.11,1.87-5.45,3.82-.14.79-.2,1.27-.42,1.66-.33.59-.99.97-2.73,1.83-2.66,1.33-6.77,2.02-7.41,2.11-.06.02-.09.02-.09.02"/>
      <path class="cls-2" d="m135.96,118.5c-.07-1.34-.27-2.89-.74-4.83-1.36-5.62-5.28-10.47-8.94-11.92-3.66-1.44-6.3-1.78-8.17-1.61s-2.64.51-2.64.51c0,0-5.36,2.64-7.74,8.59-2.38,5.96-1.7,13.28,0,18.22,1.7,4.93,3.32,11.74,5.19,17.1.63,1.82,1.22,3.97,1.75,5.96,1.03,3.89,1.86,7.14,2.42,5.96.85-1.79,1.53-4.36,2.55-4.65.18-.05.55-.14,1.07-.25,2.39-.51,7.85-1.43,10.93-.8,1.18.24,2.4.4,3.54.49,2.5.23,4.65.19,5.23.19.85,0,.26.68,0-2.56-.04-.48-.16-1.25-.33-2.24-.99-5.67-3.81-18.3-4.1-21.42-.22-2.39.1-4.2-.02-6.74Z"/>
      <path class="cls-2" d="m119.39,113.16s-.43,22.72,0,28.25c.17,2.3.41,4.27.63,5.77.3,2.12.56,3.34.56,3.34"/>
      <path class="cls-2" d="m114.67,150.52s2.98-2.21,4.53-2.98c.22-.11.5-.23.82-.36,1.93-.78,5.62-1.8,10.43-1.51,5.62.34,9.63.99,9.63.99"/>
      <path class="cls-2" d="m142.79,122.44s4,21.44,4.68,31.48c.68,10.05,1.71,24.43.85,29.37-.85,4.93.06,14.04.33,16"/>
      <path class="cls-2" d="m147.81,120.73s3.32,26.22,3.66,30.22,2.13,23.66,2.13,26.63.34,11.24.77,13.79"/>
      <path class="cls-2" d="m132.84,222.95s-5.71-1.62-7.41-2.47c-.55-.27-1.1-.54-1.64-.79-1.15-.53-2.23-.99-3.04-1.34-1.19-.51-1.96-3.15-3.32-4.85s-3.32-4.77-4.51-5.19c-.93-.34-1.76-1.55-1.96-2.67-.05-.32-.05-.63,0-.91.13-.63-.07-1.81-.3-2.83-.21-.98-.46-1.81-.5-1.93"/>
      <path class="cls-2" d="m120.3,172.29s-7.53,18.89-8.81,21.83c-.54,1.26-1.23,2.87-1.83,4.29-.81,1.91-1.48,3.49-1.48,3.49"/>
      <polyline class="cls-2" points="121.64 176.89 121.63 176.9 110.16 199.96 110.16 199.97 109.2 201.9"/>
      <path class="cls-2" d="m110.16,212.75s-.06-.02-.16-.06c-.75-.32-3.99-1.68-5.78-2.74-2.04-1.22-3.26-1.03-4.41-1.34-.42-.12-.64-.29-.77-.53-.24-.43-.2-1.11-.44-2.16-.38-1.66-.45-13.85-1.15-19.66-.7-5.8-2.23-13.21-2.49-17.36-.15-2.54-.4-5.27-.34-7.78,0-.48.04-.96.07-1.42.09-1.06.25-2.07.53-2.98,1.02-3.33,1.98-5.43,3-8.11,1.02-2.69,3.03-5.05,4.17-7.28,1.13-2.24,1.89-3.06,1.89-3.06"/>
      <path class="cls-2" d="m103.57,142.19c-.39.79-.83,1.91-1.1,3.43-.61,3.43-.93,5.79-1.63,7.39"/>
      <path class="cls-2" d="m104.52,140.76s-.42.42-.9,1.35"/>
      <path class="cls-2" d="m99.37,150.52s1.47-4.53,2.23-5.62c.67-.95,1.72-2.37,1.97-2.71.03-.05.05-.08.05-.08"/>
      <polyline class="cls-2" points="94.69 159.7 100.54 159.7 100.58 159.7"/>
      <polyline class="cls-2" points="94.61 161.12 94.62 161.12 100.07 161.12"/>
      <path class="cls-2" d="m135.18,151.27s.58,4.87,0,8.12c-.58,3.26-.62,5.05.26,6.7.88,1.66,4.78,11.88,4.97,16.86.19,4.97.89,11.49,1.15,14.36.25,2.87,3.57,11.95,3.76,14.14.2,2.2.71,5.2,1.92,6.6.63.74,1.07,1.26,1.5,1.81.38.51.75,1.03,1.24,1.77,1.03,1.53,1.66,2.81,1.86,4.85.19,2.04.76,4.98,0,6.06-.77,1.09-1.28,1.92-1.28,3.9s-.26,2.8-1.34,3.82c-1.09,1.03-1.28.83-2.11.58-.83-.26-1.63-1.47-1.39-1.92.24-.44.75-1.21.69-2.1-.06-.9-.49-1.66-.69-1.02s-.14,4.46-.59,4.91c-.44.45-1.29.41-2.34.33-1.04-.07-1.42-.46-1.36-2.05.06-1.6,0-2.43-.19-2.49s-.32.51-.32,1.21.06,2.75-.7,2.87c-.77.13-3.19.26-3.19-1.21s.12-2.87.19-3.64c.06-.76-.64-2.04-.58-.51.07,1.53-.19,2.62-.76,2.62s-1.92-.19-2.04-1.47c-.13-1.28-.86-4.34-1-6.19-.13-1.57-.24-4.77.24-7.18.08-.42.19-.82.31-1.18.83-2.43,1.72-4.85.64-7.15-1.09-2.3-8.94-24.45-8.94-24.45,0,0-1.93-7.58-3.46-13.32-.48-1.83-.92-3.47-1.25-4.63-.23-.85-.41-1.44-.49-1.64-.54-1.34-.74-2.17-.99-5.11-.26-2.94-1.81-9.04-1.81-9.04"/>
      <path class="cls-2" d="m100.11,161.07c-.11-.12-.16-.28-.04-.51,0,0,.06-.31.47-.86.27-.36.68-.81,1.32-1.35,1.61-1.36,2.46-1.57,3.15-1.36.39.12.76.44.85.83.07.29-.03.61-.39.92-.85.72-2.85,1.48-3.08,1.82-.24.34.66,1.24.08,1.19-.57-.04-1.42-.12-1.63-.29-.14-.1-.53-.19-.73-.39Z"/>
      <path class="cls-2" d="m123.18,267.49c.37.36.68.7.89.99,1.28,1.78,6.64,2.21,8.77,1.36.78-.32,2.38-.56,4.33-.78.8-.09,1.65-.18,2.54-.27,2.82-.29,5.94-.58,8.27-.99,4.86-.85,5.88-1.71,5.96-4,.09-2.3,1.19-10.3,2.3-15.92s4.08-12.42,2.98-17.1c-1.11-4.69-.34-14.86-.34-14.86"/>
      <path class="cls-2" d="m110.97,205.62s0,.01,0,.02c-.09.26-.98,2.87-.96,7.05,0,.9.05,1.89.16,2.94.18,1.72.56,3.84,1.04,6.06,1.22,5.69,3.07,11.98,3.68,13.51.85,2.13-.03,11.58.54,16.68.56,5.11-.54,8.85.9,10.04,1.21,1,4.93,3.67,6.86,5.56"/>
      <path class="cls-2" d="m139.71,268.79s-.39,10.41-.32,13.09c.06,2.68.64,5.85.64,5.85"/>
      <path class="cls-2" d="m120.41,314.28c.54.64,1.95,1.65,3.32,2.16,1.96.72,5.19.48,7.02-1.42,1.83-1.9,2.5-2.67,2.48-3.39-.01-.73.03-1.02.03-1.02,0,0,0-.28-.01-.77,0-1.15-.02-3.5-.02-6.3,0-1.26.02-2.6.03-3.98.02-1.65.14-3.64.31-5.72.42-5.14,1.12-10.82,1.16-13.23.06-3.39-.7-5.43.51-6.77s1.93-4.78,1.93-4.78"/>
      <path class="cls-2" d="m133.25,309.84s.44.13.78,1.91c.11.6.25,1.07.4,1.47.27.71.59,1.19.92,1.73l.12.21c.18.31.39.61.59.88.41.56.78.99.78.99"/>
      <path class="cls-2" d="m162.6,340.79c.19-2.15.24-2.91-1.17-4.18-1.45-1.32-3.74-2.6-5.11-3.75-1.36-1.15-3.36-2.13-5.74-3.32s-2.55-1.7-4.51-3.32c-1.96-1.61-2.38-1.78-3.53-3.15-1.15-1.36-1.58-3.15-2.64-4.51s-1.53-2.38-2.17-2.21c-.37.1-.63.35-.89.68-.19.24-.39.52-.64.81-.6.68-2,3.02-2.3,4-.15.49-.22,1.23-.39,2-.18.77-.47,1.57-1.06,2.21-1.19,1.28-3.44,2.34-5.06,2.3s-3.11-1.06-3.87-2.17c-.77-1.11-1.07-1.23-1.07-1.23,0,0,.04-4.26-.55-6.39-.17-.6-.32-1.11-.46-1.53-.35-1.08-.61-1.68-.82-2.17-.09-.2-.16-.4-.21-.58-.13-.43-.17-.74-.17-.74,0,0-.26-.47-1.02-2.17-.77-1.7-3.15-7.49-4.74-12.42-1.59-4.94-1.99-8.51-1.9-12.6s2.04-10.98,3.06-15.57c1.03-4.6.68-8.86.68-8.86"/>
      <path class="cls-2" d="m121.44,317.03s-1.63,1.75-1.92,2.55c-.3.81.59,1.96.89,2.47s.21,1.02-.47,1.79-.38,1.62-1.23,2.38c-.85.77-1.75,2.34-2.34,3.58-.6,1.23-.94,2.08-.56,3.74.39,1.66,1.88,4.13,4.6,5.53,2.72,1.41,8.34,2.6,10.43,3.62,2.08,1.02,6.55,3.92,8.85,5.23,2.29,1.32,6.12,2.39,9.87,1.96,3.74-.42,8.04-.98,10.04-3.06,2-2.09,2.77-3.53,2.98-5.83,0-.05,0-.1,0-.15"/>
      <path class="cls-2" d="m126.07,320.95c.9-.09,1.8-.2,2.7-.35,2.19-.35,4.6-.86,5.88-2.91.52-.82.52-1.81.7-2.74"/>
      <path class="cls-2" d="m125.64,324.18s3.66-.51,5.88-1.66c2.21-1.15,2.91-1.88,2.91-1.88"/>
      <path class="cls-2" d="m127.47,326.65s2.6-1.02,3.92-1.7c1.32-.69,2.12-1.11,2.12-1.11"/>
      <path class="cls-2" d="m118.71,326.22s-.04.85-.47,2.56c-.43,1.7.25,5.02,3.06,6.38s8.73,3.7,10.94,4.93c2.21,1.24,5.87,3.71,8.08,4.73,2.22,1.02,8,3.27,11.41,3.02,3.4-.26,6.08-1.19,7.62-2.3,1.51-1.09,3.11-3.4,3.24-4.7.01-.02.01-.03.01-.05"/>
      <path class="cls-2" d="m133.57,293.84s3.44-1.36,4.88-2.85c1.45-1.49,1.58-1.77,1.58-2.51v-.75s.64,1.51,1.23,3.06c.05.13.1.26.15.38.07.16.14.32.2.45.42.9.7,1.28.67,1.75-.02.24.04.76.12,1.3.12.78.27,1.59.27,1.59.27,1.47.46,3.12-.29,4.51-.75,1.38-2.3,2.29-3.71,2.86-1.78.71-3.62.34-5.42-.09"/>
      <path class="cls-2" d="m141.61,291.62s1.14-.63,2.12.64c.98,1.28.81,2.6,2.17,3.2,1.36.59,3.79.72,5.53.8,1.75.09,5.41.22,8.17.47,2.77.26,5.36.94,6.21,1.71.24.21.43.49.57.83.36.86.4,2.08.16,3.55-.42,2.49-2.9,4.38-4.92,5.64-1.98,1.22-4.45,2.44-6.8,2.64-.07.01-.13.01-.2.02-1.95.08-5.06.21-6.68.38s-2.85.42-4.42,1.15c-1.58.72-3.07,2.42-4.22,2.55s-3.24.84-3.24.84"/>
      <path class="cls-2" d="m166.38,299.27c-.22,2.08-1.06,4.07-2.3,5.75-2.55,3.47-7.65,4.08-11.59,4.44-2.38.21-4.29.04-6.55.38-2.25.34-4.72,2.25-6.17,2.77-1.45.51-5.34.61-5.34.61"/>
      <path class="cls-2" d="m138.88,298.52s1.74-.94,2.34-1.79c.59-.85,1.18-2.06,1.18-2.06"/>
      <path class="cls-2" d="m140.03,293.84s1.11-1.82,1.38-2.67"/>
      <path class="cls-2" d="m133.25,301.07s2.01.13,3.33-.34"/>
      <path class="cls-2" d="m99.04,208.08s1.41-.07,4.65-2.84c3.23-2.76,3.32-3.36,4.04-3.34.12,0,.27.01.45,0,.3.01.66.01,1.02.01.69,0,1.36-.01,1.46-.01h.01"/>
      <path class="cls-2" d="m106.33,94.03s3.76-4.79,8.8-5.68c5.05-.89,11.68,4.02,13.28,6.32s6.51,11.17,8.23,13.4c1.25,1.62,1.56,6.87,1.8,10.26.1,1.29.18,2.32.31,2.76"/>
      <path class="cls-2" d="m111.2,221.69s6.74,4.57,9.1,4.96c2.37.38,3.05-2.34,3.17-4.21.13-1.88.32-2.75.32-2.75"/>
      <path class="cls-2" d="m123.18,267.49h0c.07-.55,2.01-16.53,2.68-20.8.68-4.34-.09-10.13.68-11.74"/>
    </g>
    <path class="cls-2" d="m157.07,146.95l12.13,4.88s5.17,9.1,6.19,12.8,1.53,3.96,2.11,3.96h1.48"/>
    <path class="cls-2" d="m158.69,161.84s13.89,1.89,16.13,1.77"/>
    <path class="cls-2" d="m168.18,151.42s2.49-.39,6.38-.77,49.72-4.79,50.36-4.85.83-.06,1.79,1.15,2.04,3.23,3.51,4.33,2.94,3.52,3.45,3.97-.06.72-.7.81-5.55,2.11-7.47,2.56c-1.91.46-19.02,5.57-22.09,6.75-3.06,1.18-12,3.54-13.91,4.24-1.91.7-7.28,2.36-7.91,2.74s-1.21.04-1.6-1.13-3.38-8.64-4.09-10.04-3.38-6.38-4.21-7.4-2.09-2.56-2.09-2.56"/>
    <path class="cls-2" d="m233.07,154.53s-36.81,11.31-40.32,12.46-9.19,2.81-10.28,3.51c-1.09.7-1.33.89-2.17-.83s-2.56-7.49-4.85-11.05c-2.3-3.56-5.11-7.5-5.11-7.5"/>
    <path class="cls-2" d="m195.97,167.68s1.44.5,2.53.29.81-1.27.81-1.27"/>
  </g>
  <path class="cls-1" d="m119.47,311.93s-2.88-6.32-4.33-11.01-2.24-8.95-2.57-12.35.23-5.4.83-8.11,1.44-5.88,2-8.59.87-3.75.92-6.12,0-3.82,0-3.82c0,0-.79-.94-.78-2.64s-.35-9.44-.33-12.34.11-7.73.03-9-.46-2.78-1.14-5.07-2.09-7.66-2.09-7.66c0,0-1.17-4.48-1.53-7.3s-.31-5.16-.31-5.16c0,0-.88-.24-3.22-1.41s-3.25-2.02-4.97-2.33-2.95-.64-3.19-2.08-.45-4.66-.61-8.58c-.16-3.92-.15-6.93-.54-10.28s-1.05-7.61-1.61-11.18-1.44-8.51-1.42-11.14-.45-5.58.45-8.42,2.87-8.65,4.03-10.58,2.5-3.96,3.3-5.42,1.87-3.33,1.87-3.33c0,0-.97-5.61-1.37-10.89s-.53-8.08-.21-12.12.67-9.32,1.42-12.84,1.3-6.57,2.23-8.12,1.75-3.19,3.62-4.71,3.19-1.9,3.59-3.33,1.41-1.39,2.3-2.26,1.99-1.89,2.57-1.76,1.05-.89,2.49-2.79,2.66-3.65,3.77-6.62,2.07-5.71,2.07-5.71c0,0-.76.43-1.68,0s-1.29-.15-1.01-1.73.03-2.26.4-5.08-.28-4.1-.59-5.19-.47-3.13-.3-4.69.42-2.49,1.36-3.72,1.82-2.1,3.41-4.67,2.51-3.18,2.59-4.51.22-3.14.71-4.04,1.97-3.51,2.68-5.08,1.31-2.74,2.37-3.24,3.71-1.65,4.66-.93,2.09,1.99,3.35,3.04,4.69,2.81,8.49,3.74,8.23,3.93,9.77,6.38,2.33,4.18,2.48,5.53l.15,1.35s.93,0,2.97,2.3,3.5,3.53,3.89,6.12.69,4.32,0,7.08-.58,3.58-1.98,4.56-2,1.88-3.11,1.45l-1.11-.42s-1.67,2.09-2.49,2.89-.44,2.29-.44,2.29c0,0,1.33.94,1.2,1.87s-.86,6.64-1.2,7.8-.7,1.9-1.75,3.01-1.75,2.18-3.57,3.36-3.32,1.8-4.43,2.32-1.64.39-2.69.31-2.46-.23-3.49-.45-2.03-.4-2.24-.56-.51-.3-.51-.3c0,0-1.61,1.51-2.3,1.99s-1.65,1.03-1.96,1.61-.83,1.84-.94,2.73-.21,1.77.82,1.91,1.21,1.1,1.5,1.46,2.38,2.51,3.16,3.47,2,2.49,2.74,4.34,1.54,3.88,2.4,6.12,2.27,6.2,2.84,8.29.96,3.12,1.66,6.9,1.6,9.46,1.84,12.06.65,8.4.65,8.4l11.11,4.47s.11-.1,3.55-.47,21.36-2.09,21.36-2.09l14.24-1.37,17.03-1.71s1.09-.43,1.98.72,1.61,2.53,2.64,3.57,1.99,1.75,2.8,2.78,1.7,2.2,1.7,2.2c0,0,.96.57-.41.99s-6.7,2.29-9.74,3.18-13.4,4.02-13.4,4.02l-10.61,3.46s.2.83-.31,1.05-1.16.4-1.7.27-1.15-.39-1.15-.39c0,0-8.67,2.66-10.6,3.31s-3.31,1.29-3.97,1.42-1.08.27-1.47-.79-1.13-2.98-1.13-2.98c0,0-.6.09-1.25,0s-1.06-.21-1.44-1.23-1.23-3.75-1.23-3.75c0,0-1.64-.02-3.42-.2s-9.24-1.08-9.24-1.08l-3.71-.49s.54,6.75,1.41,11.18,2.38,12.02,2.38,12.02c0,0,1.45,9.33,1.8,11.85s.84,6.19,1.02,7.33.51,2.5.32,4.29-.62,1.87-1.47,2.3-3.04,1.12-3.85,2-1.23,2.03-1.35,2.95-.29,4.66-.29,4.66c0,0,0,6.65.19,8.01s.88,4.17.49,6.5-2.6,10.48-2.92,12.06-1.59,8.98-1.87,11.16-.52,4.09-.59,5.11-.31,1.94-.83,2.74-3.74,1.59-5.56,1.85-7.88.92-7.88.92c0,0-.49,12.66-.19,15.13s.68,3.5.98,4.94,1.12,2.76,1.12,2.76c0,0,1.14-.31,1.63.17s1.56,2.19,1.72,2.89,1.11,1.14,3.23,1.34,10.16.43,12.43.84,4.21.74,5.27,1.67.74,2.63.79,3.53-.97,2.81-2.54,4.56-2.15,1.94-4.41,2.92-3.82,1.53-4.92,1.58-5.96.26-7.13.42-2.62.08-4.33,1.2-1.79,1.84-3.34,2.23-3.79,1.03-3.79,1.03l.6.82s.9-.68,1.24-.43,1.39,1.37,2.06,2.52,1.57,3.4,2.65,4.47,3.07,2.65,4.07,3.53,1.51,1.51,4.08,2.82,2.74,1.21,5.22,3,4.27,2.84,5.14,3.77,1.59,1.59,1.39,4.02-.62,3.29-1.53,4.45-1.67,2.39-3.18,3.02-2.64,1.12-5.03,1.45-5.36.79-7.45.38-5.03-1.19-6.12-1.95-1.88-1.25-3.79-2.41-3.26-2.17-4.76-2.76-2.75-.82-6.22-2.04-5.7-2.03-6.85-3.61-1.78-2.34-2.04-3.94-.22-1.66.61-3.24,1.99-3.17,2.37-3.64.45-1.77,1.06-2.38.9-.8.64-1.79-1.19-1.39-.9-2.46,1.93-2.56,1.93-2.56l-1.03-2.75-.94-2.35Z"/>
</svg>