<?xml version="1.0" encoding="utf-8"?>
<!-- Generator: Adobe Illustrator 27.8.1, SVG Export Plug-In . SVG Version: 6.00 Build 0)  -->
<svg version="1.1" id="Layer_1" xmlns="http://www.w3.org/2000/svg" xmlns:xlink="http://www.w3.org/1999/xlink" x="0px" y="0px"
	 viewBox="0 0 389.2 491.8" style="enable-background:new 0 0 389.2 491.8;" xml:space="preserve">
<path d="M156.3,491.8c9.7-8.6,15.3-19.6,19.2-31.7c1.7-5.2,2-10.4,1-15.7c-1.6-8.7-1.4-17.5-0.4-26.2c0.4-3.3,0.9-6.6,1.4-10.2
	c-1.3,0.6-2.4,0.9-3.4,1.5c-6.3,3.5-12.6,7.1-18.8,10.8c-5.5,3.2-10.8,6.8-16.3,10c-8.8,5.2-18.2,8.7-27.8,11.8
	c-9,2.9-18.3,4.4-27.5,6c-2.8,0.5-5.6,0.9-8.4,1.4c-0.3,1.9,0.3,3.7,0.5,5.5c1,9.6,2.1,19.2,3.1,28.9c0.3,2.7,0.1,5.4,0.2,8.1h-0.8
	c0.3-6-0.4-11.9-0.9-17.8c-0.7-6.8-1.6-13.5-2.5-20.2c-0.2-1.4-0.4-2.7-0.6-4.1c-0.6,0-0.9,0-1.2,0c-5.4,0.8-10.9,1.5-16.3,2.5
	c-2.2,0.4-4,0-5.6-1.5c-1.5-1.4-3.1-2.7-4.7-4c-0.9-0.7-1.8-1.4-2.7-2.2c-0.1,0.1-0.3,0.2-0.4,0.4c5.7,13.6,14.6,25.4,22.4,38.3
	c-1.2-0.2-1.4-1-1.8-1.5c-3.9-6-7.8-12-11.6-18c-4.3-6.8-8.3-13.8-10.9-21.5c-0.1-0.3-0.3-0.7-0.5-0.9c-3.8-5.5-6.2-11.7-8.5-18
	c-0.2-0.6-0.5-1.1-0.8-1.8c-0.3,0.4-0.5,0.5-0.5,0.7c0,4.2-0.4,8.5,0.2,12.7c1,7,2.7,14,4.2,21c1.9,8.3,4,16.6,5.9,25
	c0.2,0.7,0.7,1.5,0,2.6c-0.3-0.8-0.5-1.3-0.6-1.8c-3-12.7-6-25.3-8.9-38c-1.8-7.9-2.7-15.9-1.3-24c0.1-0.6,0-1.3-0.1-1.9
	c-1.5-5.5-3.1-11-4.7-16.5c-0.1-0.4-0.3-0.8-0.5-1.2c-0.3,0.6-0.4,1.2-0.4,1.7c-0.1,14.9-0.2,29.9-0.2,44.8
	c0,11.9-0.5,23.8-2.5,35.5c-0.5,3.2-0.9,6.4-1.3,9.6h-1.3c0.5-3.3,1.2-6.5,1.6-9.8c0.7-5.4,1.4-10.8,1.9-16.2
	c0.4-4.9,0.6-9.9,0.6-14.8c0.1-18.5,0.1-37,0.2-55.4c0-0.8,0-1.6-0.1-2.3c-0.1-1.4-0.6-2.4-2-3.1c-2.6-1.3-4.1-3.6-4.3-6.6
	c-0.6-10.9-2.5-21.6-4.1-32.4c-0.9-6.1-1.5-12.4-2.3-18.5c-0.6-5-1.3-10.1-1.9-15.2c-0.6-5.3-1.1-10.5-1.5-15.8
	c-0.4-4.8-1.2-9.4-3.2-13.9C1.2,280-0.1,272,0,263.7c0.1-5.9,1.3-11.3,3.1-16.8c3.2-9.8,7.3-19.3,11.8-28.6
	c3.9-8.1,9.2-15.2,15.2-21.9c7.5-8.2,15.1-16.5,22.4-25c3-3.5,6.4-6.4,9.9-9.2c2.5-2,4.6-4.3,6-7.1c1.9-3.7,3.5-7.6,5.2-11.4
	c0.6-1.4,0.5-2.8,0.1-4.1c-2.9-8.8-5.8-17.6-8.8-26.3c-1.4-4.1-2.1-8.3-2.2-12.5c-0.3-9-0.5-18-0.5-27c0.1-9.5,1.9-18.7,4.4-27.8
	c1.8-6.3,3.7-12.6,6.5-18.6c0.8-1.7,1.7-3.4,2.6-5.1c1.6-2.8,3.7-5.1,6.3-7.1c6.2-4.7,13.3-7.8,20.4-10.7c9.7-3.9,19.7-5,29.9-4.5
	c4.6,0.2,9.2,0.6,13.8,0.9c7.2,0.5,13.5,3.3,19.6,7c1.4,0.8,2.8,1.5,4.2,2.2c0.3,0.2,0.5,0.4,0.8,0.6c1,0.8,2,1.5,3,2.2
	c0.4,0.3,0.8,0.7,1.2,1c1,0.8,2,1.6,2.9,2.4c0.3,0.2,0.6,0.5,0.8,0.8c0.3,0.4,0.5,0.9,0.9,1.1c1.8,1.4,3.1,3.1,4.6,4.8
	c1,1.1,1.9,2.2,2.9,3.2c1.7,1.9,3.4,3.7,5,5.6c0.5,0.6,0.7,1.5,1.2,2.2c1.1,1.5,2.1,3.1,3.1,4.7c1,1.5,1.7,3.2,2.8,4.6
	c1.7,2,2.2,4.6,4,6.6c0.7,0.8,0.7,2.2,1.4,3c1.7,2.1,2.2,4.6,3.4,6.9c1.1,2.1,1.3,4.7,2,7c1,3.4,1.3,6.9,1.4,10.5
	c0.1,2.2,0,4.4-0.1,6.6c-0.1,2.5-0.3,4.9-0.4,7.4c-0.1,4.6-2.4,8.4-4.2,12.4c-0.4,0.8-0.6,1.7-1,2.5c-0.6,1.2-1.2,2.4-2.1,3.4
	c-3.1,3.7-5.4,7.9-7.6,12.2c-0.1,0.3-0.2,0.6-0.4,1c1.4,1.3,2.8,2.5,4.2,3.8c1.4,1.3,2.7,2.6,4.2,4.1c-0.3,0.6-0.5,1.2-0.9,1.8
	c-2,2.8-4,5.5-5.9,8.3c-2.8,4.2-6.1,7.9-9.8,11.4c-1.2,1.2-1.7,2.4-1.5,4.1c0.2,1.3-0.2,2.6-0.2,4c-0.1,1.5,0.2,3-0.1,4.4
	c-0.5,2.1-1.4,4.1-2.2,6.1c-0.2,0.4-1.1,0.6-1.6,0.9c-1.2,0.6-2.4,1-3.6,1.6c-2.4,1.2-3.1,3.8-4,6c-1.1,2.8-3.1,4.4-5.8,5.6
	c-4.9,2.1-9.8,4.4-14.8,6.6c0.2,0.7,0.3,1.2,0.5,1.7c1.1,2.7,2.3,5.3,3.4,8c0.5,1.2,0.6,2.5,1,3.6c1.3,3.2,2.1,6.6,3,10
	c0.7,2.6,1.3,5.2,2,7.7c0.7,2.5,1.5,4.9,2.1,7.4c0.7,2.9,1.2,5.9,1.8,8.9c1.3,5.7,2.6,11.3,3.9,17c0.1,0.4,0.3,0.8,0.5,1.4
	c2.4-0.4,4.9-0.7,7.3-1c13.2-1.9,26.1-4.8,39-7.9c5.8-1.4,11.5-3.1,16.5-6.6c2.9-2,5.6-4.1,8.4-6.2c1.9-1.4,4-2.7,5.9-4.1
	c2.3-1.6,4.6-3.1,6.8-4.7c8.5-6.2,17.8-8.4,28.1-6.4c0.3,0.1,0.5,0.1,0.8,0.2c0.1,0,0.1,0,0.5,0c1.8-2.1,3.7-4.3,5.6-6.6
	c8.8-10.2,17.8-20.4,26.4-30.8c4.2-5,7.8-10.4,11.6-15.7c0.8-1.1,1.5-2.3,2.3-3.3c1.6-2,3.8-1.7,5.2,0.4c0.7,1,1.7,1.8,2.5,2.8
	c0.6,0.7,1,1.5,1.6,2.1c1.8,1.9,3.8,3.6,5.3,5.6c1.3,1.9,3.3,3.1,4.5,5.1c0.4,0.7,1.1,1.4,1.7,1.9c0.7,0.5,1.4,0.9,1.6,1.8
	c0.1,0.5,0.7,0.9,1.1,1.3c1,1.1,2,2,2.9,3.2c1.7,2.1,3.8,3.9,5.6,5.9c1.5,1.6,2.8,3.5,4.3,5.1c1.9,2.1,3.9,4.1,5.9,6.3
	c0.8,0.9,1.3,2,2.1,2.9c1.6,1.8,3.3,3.4,4.8,5.2c0.7,0.8,1.1,2,1.8,2.8c2.1,2.4,4.1,5,6,7.6c1.6,2.2,1.7,4,0.1,6.2
	c-1.4,1.9-2.9,3.6-4.6,5.3c-2.9,2.8-5.9,5.5-8.8,8.3c-6.1,5.8-12.2,11.6-18.3,17.4c-3.1,3-6,6.2-9.4,8.9c-9.6,7.9-18.3,16.7-27.4,25
	c-8.4,7.6-16.6,15.4-24.9,23.1c-1.3,1.2-2.6,2.6-3.9,3.9c-3.4,3.3-6.8,6.6-10.3,9.8c-2.2,2-4.5,3.8-6.7,5.8c-2,1.8-3.9,3.7-5.9,5.5
	c-0.3,0.3-0.5,0.6-0.9,1.1c0.5,0,0.7,0,1-0.1c0.4,1.7,1.3,3.3,1.1,5.2c-0.2,2.1-0.5,4.2-1.6,6c-0.5,0.8-1.1,1.4-1.8,2.1
	c-1,1-2.1,1.9-3,3c-0.4,0.5-0.6,1.3-0.5,1.9c0.4,1.8,0.3,3.4-0.4,5.1c-2.1,5.4-5.2,9.8-10.3,12.8c-2.4,1.4-4.6,3.2-7.1,4.3
	c-2.6,1.2-5.4,2-8.2,2.6c-2.6,0.6-5.4,0.9-8.1,1.4s-5.4,1.1-7.9,1.7c-0.5,1.8-0.4,3.4,0,5.1c0.6,2.9,0.7,6,0.6,9
	c0,1.1,0.4,2.2,0.5,3.3c0.1,1.3-0.1,2.7,0,4c0,1,0.3,1.9,0.4,2.9c0.1,0.3,0.1,0.7,0.1,1c0,1.3-0.1,2.5-0.1,3.8
	c0.1,1.9,0.3,3.8,0.4,5.7c0.3,4.7,1.4,9.2,2.7,13.7c0.4,1.5,0.8,3.1,1.3,4.6c0.3,0.8,0.8,1.5,1.1,2.2c0.1,0.3,0.4,0.6,0.4,0.9
	c-0.2,1.7,0.7,3.1,1.2,4.6c0.5,1.5,0.7,3.1,1.2,4.6c0.8,2.4,1.2,4.9,2.5,7.1c0.6,1.2,0.6,2.9,0.4,4.2c-0.1,1.2-1.4,1.6-2.6,1.8
	c-5.2,0.8-10.3,0.4-15.4-0.5c-6.2-1.1-12.3-2.7-18.2-4.9c-3.9-1.4-7.5-3.5-11.1-5.6c-1.8-1-3.6-2.2-5.4-3.2
	c-0.3-0.2-0.6-0.1-1.2-0.3c0,1.6-0.1,3.1,0,4.5c0.4,3.7-0.3,7.3-1.7,10.7c-1.8,4.2-3.6,8.4-5.6,12.5c-1.1,2.1-2.7,4-4,6
	c-0.6,0.9-1.2,1.9-1.8,2.9h-1.3c1.2-1.9,2.5-3.8,3.7-5.7c3.9-6.2,7.4-12.5,9.2-19.7c0.9-3.5,0.7-6.9,0-10.4
	c-0.4,0.7-0.6,1.4-0.8,2.1c-3.8,12.7-9.6,24.3-19.4,33.6L156.3,491.8L156.3,491.8z M94.5,305c0-0.7,0.1-1.4-0.1-2
	c-1.2-4.7-2.3-9.5-3.8-14.1c-1.7-5.7-3.7-11.3-6.7-16.5c-4.5-7.5-10.4-13.7-17.1-19.2c-4.9-4-10.2-7.4-16.3-9.3
	c-6.9-2.1-13.9-3.3-21-3.9c-2.7-0.2-5.5-0.2-8.2,0.2c-6.2,0.8-11.5,3.8-16.6,7.2c-0.6,0.4-1.1,1.2-1.2,1.9c-0.6,2.5-1.2,4.9-1.6,7.5
	c-1.4,8.7-1.3,17.3,1.9,25.7c0.2,0.4,0.4,0.8,0.5,1.2c0.3-0.5,0.4-1,0.3-1.5c-0.2-3,0.4-5.9,1.7-8.6c2.2-4.8,4.4-9.6,6.6-14.5
	c0.2-0.4,0.5-0.7,0.8-1.1c0.1,0.1,0.3,0.1,0.4,0.2c-0.3,0.7-0.6,1.4-0.8,2c-2.3,5.2-4.7,10.5-7,15.7c-0.4,1-0.8,2-0.8,3.1
	C5.3,283,5.3,287.1,7,291c0.6,1.3,0.8,2.7,1,4.1c0.4,2.7,0.6,5.5,0.9,8.2c0.5,5,0.7,10,1.4,15c1.3,10.5,2.9,20.9,4.3,31.3
	c1.1,8.3,2.2,16.7,3.2,25c0.2,1.4,0.7,2.2,2,2.5c4.3,1.2,8.5,2.6,12.8,3.6c7.8,1.9,15.8,2.5,23.8,1.3c10.3-1.5,20.4-3.9,30.4-6.7
	c2-0.5,3.9-1.2,6-1.8c0-1.6-0.1-3.2,0-4.8c0.3-3.7,0.6-7.5,1.2-11.1c0.4-2.5,0.9-4.9,0.9-7.4c0.1-7.6-0.2-15.1,0.4-22.7
	c0.4-5.5,0.2-11.2,0.3-16.7c0-2.3-0.8-4.3-2.2-6.1c-1.6-2.1-3.1-4.2-4.8-6.2c-8.6-10.3-17.6-20.3-27-30c-0.3-0.4-0.6-0.8-0.9-1.2
	C64.1,269.1,82.9,290.2,94.5,305c0.3,0.4,0.6,0.8,1,1.4c0.6-0.8,1.1-1.4,1.5-2c3.3-4.9,5.9-10.1,8.2-15.5c2.3-5.3,2.6-10.6,1.4-16.2
	c-1.2-6-3.5-11.6-6.3-17.1c-0.3-0.5-0.4-1-0.8-1.8c0.5,0.2,0.7,0.2,0.8,0.3c0.2,0.1,0.3,0.3,0.4,0.5c3.3,6.1,5.8,12.4,7,19.2
	c0.9,5.2,0.4,10.2-1.7,15.2c-2.6,6.1-5.6,11.9-9.4,17.3c-0.6,0.8-0.8,1.5-0.6,2.5c0.3,1.7,0.4,3.5,0.5,5.3c0.1,1.6,0,3.2,0,5.2
	c2-0.7,3.8-1.2,5.5-1.8c11.7-4.5,23.3-9,35-13.5c0.8-0.3,1.5-0.5,2.3-0.8c0.1,0.2,0.1,0.4,0.2,0.5c-4.6,2.2-9.4,3.9-14.2,5.8
	s-9.5,3.7-14.2,5.5c-4.8,1.8-9.7,3.6-14.6,5.4c-0.1,2.2-0.3,4.3-0.4,6.4c-0.2,4.7-0.6,9.3-0.7,14c-0.1,2.9,0.2,5.8,0.2,8.7
	c0,1.3,0.5,1.9,1.6,2.4c3.2,1.4,6.3,2.9,9.4,4.4c6.3,3,12.7,5.9,19,8.9c0.4,0.2,0.8,0.5,1.2,0.8c-0.1,0.2-0.2,0.3-0.3,0.5
	c-10.2-4.8-20.5-9.6-30.9-14.4c-0.7,3.7-1.5,7.1-1.8,10.6c-0.4,3.6-0.3,7.2-0.3,10.8c0,3.5-0.1,7,0.2,10.6c0.9-0.1,1.6-0.1,2.2-0.2
	c4.8-1,9.6-1.8,14.3-2.9c23.9-5.4,45.6-15.6,65.6-29.5c1.3-0.9,1.8-1.8,1.7-3.5c-0.8-7.2-1.4-14.4-2-21.5
	c-0.7-7.5-1.3-14.9-1.9-22.4c-0.6-7.6-1.3-15.2-2-22.8c-0.6-6.7-0.9-13.4-2.2-20c-1.1-5.3-2.3-10.6-4.5-15.7
	c-1.9-4.3-3.2-8.8-3.2-13.6c0.1-4.6-1.6-8.4-5-11.5c-1.9-1.7-3.3-3.7-4.3-6c-2.4-5.4-5.1-10.8-7-16.4c-1.2-3.5-3.5-4.9-6.5-5.8
	c-1-0.3-2-0.4-3.2-0.6c0,1.2,0,2,0,2.8c0,2.6-0.4,5.2-1.4,7.7c-1.4,3.7-4,6.1-7.9,7c-3.8,0.8-7.7,0.8-11.6,0.3
	c-7.8-1.1-14.9-4-21.6-7.9c-10.5-6.1-20.8-12.3-31.2-18.5c-1.4-0.9-2.8-1.8-4.3-2.7c-0.4,0.7-0.7,1.2-1,1.8
	c-2.8,4.8-5.6,9.7-8.4,14.5c-3.1,5.5-6.3,10.9-9.3,16.4c-3.6,6.6-6.8,13.4-8.4,20.8c-0.4,1.7-0.8,3.4-1.2,5.2
	c0.5,0.1,0.9,0.1,1.2,0.2c3.7,0.5,7.4,0.9,11.1,1.6c5.8,1.1,11.6,2.6,16.8,5.6c6.1,3.5,11.4,8.1,16.3,13.1
	c5.6,5.7,10.2,12.1,13.2,19.6c3.1,7.8,5.3,15.8,7.2,23.9c0.1,0.6,0.2,1.2,0.2,1.9C95.2,305,94.8,305,94.5,305L94.5,305z
	 M128.6,138.9c0.2-0.9,0.3-1.4,0.4-1.9c0.4-2.4,0.7-4.9,1-7.4c0.2-1.9,1.1-3.3,2.7-4.4c2.9-1.9,5.7-3.9,8.6-5.8
	c4.8-3.2,9.7-6.1,14.1-9.9c1.7-1.5,3.8-1.8,6-1.5c2.9,0.4,5.4,1.7,7.8,3.2c2.7,1.6,5.2,3.4,7.9,4.9c2.1,1.2,4.3,2.4,6.6,3.3
	c3,1.2,5.9,0.9,8.8-0.5c3.2-1.6,6-3.8,8-6.8c4-5.8,7-11.9,8.4-18.8c2.6-12.5,1.9-24.7-3.6-36.2c-2.7-5.7-5.9-11.1-9.2-16.5
	c-8.1-13.2-18.2-24.5-31.8-32.3c-5.2-3-10.6-5.4-16.6-6c-5.5-0.6-11-1-16.5-1.2c-9.5-0.4-18.8,0.5-27.6,4.3
	C96.2,8.5,89,11.5,82.5,16.1c-2.2,1.5-4,3.4-5.4,5.6c-1,1.7-2.1,3.4-2.9,5.2C68,41.5,63.9,56.5,63.2,72.4
	c-0.5,10.1-0.3,20.2,0.5,30.3c0.3,3.3,0.9,6.8,1.9,10c2.8,8.9,5.9,17.7,8.8,26.6c0.5,1.4,0.8,3.1,2.5,3.4c1.7,0.3,2.7-1.1,3.6-2.3
	c2.9-4,4.6-8.4,4.8-13.4c0.2-5.5,1.5-10.6,4.4-15.3c2.1-3.4,4.5-4.5,8.4-3.7c3.3,0.7,6.2,2.2,9,4.1c0.6,0.4,1,1,1.3,1.6
	c0.6,0.9,1.1,2,1.7,2.9c4.5,5.8,9.1,11.6,13.7,17.3C125.4,135.5,126.8,137,128.6,138.9L128.6,138.9z M220,319.2
	c-3.7-0.3-6.5,0.7-9.1,2.7c-1.1,0.8-2.2,1.5-3.3,2.2c-3.6,2.3-6.7,5.1-9.6,8.3c-4.2,4.6-8.4,9.2-13.2,13.2
	c-8.3,6.8-17.2,12.6-26.6,17.8c-10.9,6-22.3,11-34.2,14.7c-10.9,3.4-22,5.7-33.3,7.4c-3.8,0.6-7.7,1.2-11.3,2.8
	c-3.6,1.6-7.6,2.4-10.4,5.3c-2.9,0.9-4.8,3.2-6.7,5.3c-3,3.1-5.7,6.5-8.5,9.7c-0.3,0.4-0.7,0.7-1,1c-0.1-0.1-0.2-0.3-0.4-0.4
	c4.1-5.4,8.6-10.5,13.7-15.3c-13.8-0.2-27.6-0.4-41.6-2.7c0.3,1.6,0.4,2.9,0.7,4.1c1.9,7.1,3.7,14.2,5.8,21.3
	c2.1,7.2,4.7,14.3,8.5,20.8c1.4,2.4,3,4.7,4.9,6.6c2.2,2.3,4.9,4.2,7.4,6.4c1.2,1.1,2.6,1.3,4.2,1c1.2-0.3,2.5-0.6,3.7-0.8
	c8.7-1.3,17.4-2.5,26-3.9c10.7-1.6,21.3-3.9,31.5-7.6c7.9-2.9,15.7-6.1,22.9-10.5c6.7-4.2,13.5-8.4,20.2-12.5
	c6.6-4,13.3-7.7,20.5-10.6c7.4-3,14.8-6.1,22.1-9.2c9.2-3.8,18.6-7.2,28.6-8.5c6.9-0.9,13.2-3.4,19.1-7.2c5.5-3.6,8.9-8.4,10.8-14.4
	c0.5-1.6,0.1-2.9-0.9-4.2c-1.6,0.8-3.1,1.5-4.6,2.3c-1.5,0.7-2.9,1.4-4.4,2c-1.5,0.6-2.9,1.5-4.6,1.5c0.9-0.7,1.9-1.2,2.8-1.6
	c5-2.3,10.1-4.4,14.7-7.5c3.8-2.5,4.4-6.1,4.2-10.2c0-0.7-0.6-1.4-1.2-1.9c-1.3-1.3-3-1.8-4.8-2c-3.1-0.5-6-0.5-8.8,1.1
	c-1.8,1-3.7,1.8-5.6,2.6c-0.4,0.2-0.9,0.2-1.3,0.4c-0.1-0.1-0.1-0.3-0.2-0.4c0.6-0.3,1.1-0.6,1.8-0.9c4-1.9,8.1-3.8,12.1-5.7
	c1.6-0.8,3.2-1.8,4.7-2.9c1.7-1.2,2.5-3.1,2.4-5.2c-0.2-3.7-2.1-6.4-5.4-8c-1.1-0.5-2-0.7-3.2-0.3c-5.5,1.9-11.1,3.8-16.7,5.6
	c-0.9,0.3-1.8,0.6-2.7,0.6c-1.5,0-3,0.1-4.2-1.1c0.6-0.1,1.1-0.1,1.6,0c1.8,0.3,3.5,0.3,5.2-0.3c4.6-1.6,9.3-3,13.9-4.7
	c5.2-1.9,10.5-3.9,15.6-6.2c1.9-0.9,3.6-2.5,5.1-4c1.5-1.5,1.2-3.2-0.5-4.5c-1.6-1.2-3.4-2-5.4-2.4c-4.2-0.9-8.3-0.1-12.4,0.7
	c-10.8,2.2-21.4,5.3-32,8.5c-2.1,0.6-4.1,1.5-6,2.6c-4.2,2.5-8.4,5.3-12.6,7.9c-0.3,0.2-0.7,0.3-1.1,0.5c-0.1-0.1-0.2-0.3-0.2-0.4
	C210.7,324.8,215.3,322.1,220,319.2L220,319.2z M387.8,227.3c0.3-1.5-0.6-2.3-1.3-3.2c-11-14.2-23-27.6-35.1-40.9
	c-5.2-5.8-10.5-11.5-15.6-17.3c-2.2-2.5-3-2.5-4.9,0.3c-2.4,3.6-4.7,7.3-7.4,10.6c-5.5,6.9-11.3,13.6-17,20.3
	c-8.9,10.4-18.1,20.7-26,31.9c-0.5,0.7-1,1.4-1.5,2.1c0.5,0.4,0.9,0.6,1.2,0.9c1.5,1.3,1.8,2.8,0.6,4.3c-2.6,3.4-5.9,5.7-10.5,5.4
	c-0.9-0.1-1.5,0.1-2.1,0.6c-3.5,2.6-7.2,5.1-10.5,7.9c-5.6,4.9-11.1,9.9-16.5,15c-3.5,3.2-6.8,6.6-8.4,11.3
	c-0.3,0.8-0.4,1.4-0.2,2.1c3.2,10.4,6.5,20.8,9.7,31.2c0.2,0.6,0.5,1.1,0.7,1.7c0.9-0.2,1.5-0.4,2.2-0.5c5.3-1.2,10.6-2.5,15.9-3.5
	c1.8-0.3,3.1-1,4.5-2.1c7.2-6.2,14.3-12.4,21.7-18.4c11.9-9.6,24.4-18.5,36.9-27.2c7-4.8,14-9.5,21.8-13.1c6.5-3,12.9-6.1,19.4-9.1
	c4-1.9,7.6-4,10.1-7.8c1.3-2,3.2-2.8,5.7-2.6C383.4,227.4,385.6,227.3,387.8,227.3L387.8,227.3z M219.2,391.3
	c-3.1,1.1-5.9,1.9-8.6,3c-10.2,4.1-20.4,8.3-30.6,12.5c-1,0.4-1.6,1-1.7,2.1c-0.6,5.6-1.5,11.2-1.9,16.8c-0.3,4.1-0.1,8.4,0.2,12.5
	c0.4,4.4,1.4,8.6,2,13c0.2,1.5,0.6,2.5,2.2,3.3c3.5,1.6,6.8,3.8,10.2,5.6c4,2,7.9,4.1,12.3,5.2c4.5,1.1,8.9,2.1,13.4,3
	c4.5,0.9,9,1,13.5,0.3c1.8-0.3,2-0.6,1.8-2.4c0-0.3-0.1-0.6-0.2-0.8c-1.8-5.9-3.4-11.8-5.4-17.6c-2-5.9-4-11.8-4.6-18
	c-0.9-8.9-1.4-17.7-2.1-26.6C219.5,399.3,219.4,395.5,219.2,391.3L219.2,391.3z M177.5,299.5c0.8-0.2,1.2-0.2,1.6-0.3
	c7.3-1.9,14.3-4.6,21.1-7.8c9.7-4.6,19.4-9.4,29.1-14c1.4-0.7,2.4-1.6,3.3-2.9c2-2.8,4-5.5,6.2-8c1.5-1.7,3.3-3.1,4.9-4.6
	c7.3-6.8,14.5-13.7,22.8-19.3c0.4-0.2,0.7-0.6,1.1-1c-1.6-0.6-3.1-0.7-4.4-0.3c-3.1,1-6.2,2-9.3,3c-0.4,0.1-0.9,0.1-1.4,0.2
	c0-0.1,0-0.3-0.1-0.4c0.6-0.2,1.3-0.5,1.9-0.7c2.4-0.8,4.9-1.5,7.2-2.4c2.2-0.9,4.3-1,6.6-0.4c4.5,1.3,8.1-0.5,11.2-3.7
	c0.9-0.9,1.4-2.1,0.8-3.3c-0.6-1.3-1.9-1.5-3.1-1.2c-2.4,0.5-4.8,0-7.1-0.3c-4.7-0.7-9.4-1.2-14.1-0.7c-4.5,0.5-8.5,2-12,4.9
	c-2.2,1.8-4.4,3.5-6.7,5.2c-4.1,2.9-8.4,5.3-13.2,6.6c-5.3,1.5-10.6,2.9-16,4.2c-11.2,2.8-22.6,4.4-34,6c-1,0.1-2,0.3-3.2,0.5
	C173,272.4,175.2,285.8,177.5,299.5L177.5,299.5z M388.1,228.3c-2.5,0-4.5,0.1-6.5,0c-2.6-0.2-4.5,0.7-6,2.8c-2.1,3.1-5,5.1-8.4,6.7
	c-4.7,2.2-9.5,4.5-14.2,6.7c-6.7,3.2-13.5,6.2-19.7,10.3c-22.7,15.1-44.6,31.2-65.1,49.3c-0.9,0.8-1.8,1.7-3,2.8
	c1.2,0.1,2,0.1,2.8,0.1c3.1,0.2,6,0.8,8.5,2.8c2.5,2,2.6,3.8,0.5,6.1c-2,2.2-4.5,3.9-7.3,5c-2.5,1.1-5.1,2.1-7.7,3.2
	c1.2,1,2.5,1.8,3.5,2.8c4.3,4.3,3.7,10.1-1.3,13.4c-1.1,0.7-2.2,1.2-3.3,1.9c-0.4,0.2-0.7,0.5-1.4,0.9c2.4,0.4,4.3,0.8,6.3,1.1
	c5.6-5.2,11.1-10.3,16.6-15.5c8.8-8.2,17.6-16.4,26.4-24.6c7.7-7.1,15.3-14.3,23-21.4c7.2-6.7,14.4-13.5,21.5-20.2
	c8.7-8.1,17.4-16.2,26.1-24.3c2.4-2.3,4.6-4.8,6.9-7.2C387,230.5,387.3,229.5,388.1,228.3L388.1,228.3z M75.1,142.8
	c-0.2,0.2-0.3,0.4-0.3,0.5c-2.6,7.3-6,14-10.8,20.1c-0.4,0.5-0.7,1.2-1,1.9c-0.5,1.4-0.2,2.6,1,3.6c0.4,0.4,0.9,0.7,1.4,1
	c9.2,5.5,18.4,11.1,27.8,16.4c6.2,3.6,12.7,6.6,19.6,8.5c2.9,0.8,5.8,1.4,8.8,1c1.4-0.2,2.9-0.7,4.2-1.4c1.1-0.6,1.8-1.7,1.8-3
	c-3.1-1-6.1-1.7-9-2.8c-5.8-2.4-11.1-5.6-15.4-10.4c-5.7-6.2-9.9-13.4-13.7-20.9c-0.2-0.4-0.2-0.9-0.4-1.4c0.3,0.1,0.5,0.1,0.6,0.2
	c0.3,0.5,0.6,1.1,0.9,1.6c2.8,4.7,5.4,9.4,8.4,14c4.2,6.6,10.1,11.5,17.1,14.9c1.3,0.6,2.6,1.3,4.2,1.5c-2.1-4.2-4.1-8.3-6-12.3
	c-0.5-0.9-0.9-1.9-1.2-2.9c-0.3-1.1,0.2-1.8,1.4-1.8c0.6,0,1.2,0.2,1.9,0.4c0.7,0.2,1.4,0.4,2.3,0.6c-5.1-9-10-17.7-15-26.5
	c-0.6,0-1.3,0-1.9,0c-1.9-0.1-3.6-0.8-4.8-2.3c-3.7-4.5-7-9.2-9.8-14.3c-0.2-0.4-0.5-0.8-0.9-1.4c-0.1,0.6-0.1,0.9-0.1,1.2
	c-0.7,4.8-2.5,9.1-5.6,12.9C78.7,143.7,77.5,143.9,75.1,142.8L75.1,142.8z M104.9,145.9c0.8,1.4,1.5,2.9,2.4,4.4
	c4,6.9,7.9,13.9,12,20.8c0.5,0.9,1.1,1.7,1.8,2.3c2.7,2.1,5.7,3.4,9,4c4.4,0.8,6.3-0.3,8.1-4.5c0.2-0.5,0.4-0.9,0.6-1.4
	c1.6-5.2,3.1-10.4,4.7-15.6c0.4-1.2,0-2-0.9-2.8c-3.4-3.1-6.9-6.3-10.3-9.5c-1-0.9-1.9-1.8-3-2.7c-0.3,0.7-0.5,1.3-0.8,1.7
	c-0.7,1.1-1.6,1.1-2.4,0.1c-0.4-0.5-0.6-1.1-0.9-1.7c-0.6-1.4-1.1-2.8-1.6-4.1c-0.9-2.2-2.3-4.1-4.4-5.3c-1.7-1-3.3-2.1-5.1-3.1
	c-3.1-1.8-4.7-4.5-5.1-8.1c-0.2-2-0.6-3.9-1.1-5.8c-0.2-0.6-0.5-1.4-1.1-1.7c-2.9-1.9-6-3.5-9.5-4.1c-3-0.5-5.4,0.5-7,3.2
	c-1.8,3.1-3,6.4-3.8,9.9c-0.4,1.7-0.2,3.2,0.3,4.8c1,3.2,2.9,5.8,4.8,8.5c1.8,2.5,3.5,4.9,5.3,7.4c1.2,1.6,2.9,2.3,4.8,2.3
	c1.5,0,2.9-0.3,4.4-0.5c0.4-0.1,0.9-0.1,1.5-0.2C107.2,145.5,105.7,144.8,104.9,145.9L104.9,145.9z M177.7,300.8
	c0.2,1.7,0.4,3.2,0.6,4.8c0.9,4.9,0,4.7,5.6,6.2c8.9,2.4,17.8,4.6,26.7,6.9c0.6,0.2,1.3,0.3,1.9,0.2c3.8-0.6,7.7-1,11.5-2
	c5.8-1.4,11.4-3.2,17.1-4.9c0.2,0,0.3-0.2,0.6-0.4c-3.5-11.3-7-22.6-10.5-34c-6.2,2.9-12.2,5.6-18.1,8.5c-5.7,2.7-11.3,5.6-17,8.2
	c-3.3,1.5-6.7,2.5-10.1,3.8C183.3,299,180.6,299.8,177.7,300.8L177.7,300.8z M113.7,171.9c0.3,1,0.5,1.6,0.8,2.3
	c1.7,3.5,3.3,7,5,10.5c0.5,0.9,1.1,1.8,1.7,2.7c0.8,1.2,1.8,2,3.2,2.2c2.2,0.4,4.4,0.9,6.6,0.9c4.2,0,8.3,0.5,12.1,2.6
	c1.7,0.9,3.5,0.9,5.3,0c2.6-1.3,5.2-2.5,7.9-3.7c4.1-1.9,8.1-3.7,12.2-5.5c2.2-0.9,3.9-2.3,4.7-4.6c0.4-1.1,1.1-2.1,1.5-3.3
	c1-2.5,2.7-4,5.5-4.5c1.7-0.2,2.8-1.3,3.2-3c0.1-0.6,0.3-1.2,0.4-1.9c0.5-5.2,1-10.4,1.5-15.6c0-0.3-0.1-0.7-0.1-0.8
	c-2.5,2.3-4.9,4.7-7.4,6.9c-2.1,1.8-4.3,3.5-6.5,5c-1.8,1.2-3.8,1.9-6,2c-1,0-2.1,0.2-2.7-0.8c-0.6-1,0.3-1.7,0.7-2.5
	c1.2-2.1,2.5-4.2,3.7-6.4c-1.2-1.2-2.3-1.7-3.9-1.6c-5.2,0.3-10.3-0.2-15.1-2.5c-0.5-0.3-1.1-0.4-1.9-0.6c-0.3,0.9-0.5,1.5-0.7,2.2
	c-1.2,4.3-2.2,8.6-3.5,12.9c-1,3.4-2.3,6.7-3.6,10c-1,2.4-2.9,3.5-5.5,3.5c-3.8,0-7.2-1.2-10.4-3.1c-2-1.2-4.3-2.1-6.5-3
	C115.3,171.9,114.6,172,113.7,171.9L113.7,171.9z M131.6,127c0.6,0.4,1,0.7,1.3,0.9c4.1,2.6,8.3,5.2,12.4,7.8
	c7.4,4.6,14.8,9.2,22.1,13.8c1.1,0.7,1.9,0.8,3.1,0.2c2-1.1,4.1-2.1,6.2-2.7c4-1,7.1-3.2,9.6-6.5c0.5-0.6,0.8-1.3,1.1-2
	c1.3-3.3,2.6-6.6,4-9.8c1.4-3.2,2.9-6.3,4.4-9.4c0.2-0.4,0.2-0.9,0.4-1.6c-1.4,0.8-2.5,1.4-3.6,2c-3.1,1.6-6.4,1.8-9.6,0.4
	c-1.5-0.6-3-1.3-4.4-2.1c-3.6-2.2-7.2-4.5-10.9-6.6c-1.6-0.9-3.3-1.6-5-2.2c-2.9-0.9-5.5-0.6-7.9,1.6c-1.7,1.5-3.5,2.8-5.4,4.1
	c-4.5,3-9,5.9-13.5,8.9C134.6,124.8,133.2,125.8,131.6,127L131.6,127z M53,173c-0.2-0.1-0.3-0.1-0.5-0.2c-0.2,0.4-0.4,0.8-0.7,1.1
	c-6.7,7.6-13.5,15.1-20.2,22.7c-3,3.4-6.1,6.7-8.7,10.4c-6.2,8.5-10.2,18.2-14.2,27.9c-0.1,0.2,0,0.4,0,0.9c0.5-0.6,0.8-0.8,1.1-1.2
	c4.1-5,8.2-9.9,12.2-14.9c4.4-5.4,8.6-10.9,12.9-16.3c0.4-0.5,0.6-1.2,1.7-1.1c-0.3,0.4-0.4,0.8-0.6,1
	c-8.7,10.8-17.3,21.6-26.2,32.3c-1.9,2.4-3.5,4.8-4.3,7.6c-0.2,0.9-0.6,1.8-0.8,2.6c4-1.9,7.8-3.8,11.7-5.4c4-1.6,8.3-1.3,12.4-1.4
	c1.4-7.6,3.5-14.8,7.1-21.5c2.6-4.9,5.2-9.7,7.9-14.5c3.9-6.9,8-13.7,12-20.5c0.5-0.9,1-1.8,1.5-2.7C55.3,177.6,53.4,175.7,53,173
	L53,173z M58.2,179.6c1.9,1.2,3.5,2.3,5.2,3.3c9.5,5.7,19.1,11.4,28.6,17c6.1,3.6,12.4,6.5,19.3,8.1c5.3,1.2,10.6,1.7,15.9,0.2
	c2.8-0.8,4.8-2.5,6-5.2c1.5-3.4,1.8-6.9,1.6-10.6c0-0.2-0.2-0.5-0.4-0.8h-5.7c-2.5,4.3-4.7,5.5-9.9,5.1c-3.3-0.2-6.4-1-9.5-2
	c-6.4-2.2-12.4-5.1-18.2-8.5c-9.1-5.3-18.1-10.8-27.1-16.2c-0.2-0.1-0.5-0.2-0.8-0.3C61.6,172.9,60,176.1,58.2,179.6L58.2,179.6z
	 M18.1,377.5c0,2.9,0.1,5.6,0.8,8.2c0.2,0.8,0.8,1.5,1.4,2c1.9,1.6,3.9,2.9,6.4,3.1c1.5,0.2,3.1,0.5,4.6,0.7
	c11.7,1.4,23.4,1.6,35.2,1.4c0.7,0,1.5-0.2,2.2-0.6c6-3.2,12.2-6,19-7.2c1.7-0.3,3.3-0.6,4.9-0.9v-9.6c-0.8,0.2-1.4,0.3-2,0.5
	c-10.9,3.1-22,6.1-33.3,7.6c-3.8,0.5-7.6,1.1-11.4,0.9c-8.8-0.5-17.4-2.4-25.7-5.4C19.7,378,19,377.8,18.1,377.5L18.1,377.5z
	 M130.7,130c12.4,8.1,24.7,16.1,37.2,24.2c-1.8,3-3.4,5.9-5.2,9c1,0.1,1.8,0.4,2.4,0.2c1.6-0.4,3.4-0.7,4.8-1.5
	c6.3-3.4,11-8.8,15.5-14.3c0.5-0.6,0.7-1.4,1.2-2.5c-3.5,0.2-6.3,1.4-9.1,2.5c-2.9,1.1-5.7,2.4-8.8,3.6
	c-12.3-7.6-24.8-15.5-37.5-23.3C131,128.9,130.9,129.5,130.7,130L130.7,130z M162.5,151.7c-0.3-0.2-0.6-0.5-0.9-0.8
	c-10.2-6.6-20.4-13.1-30.6-19.7c0,0-0.1,0-0.2,0c-0.1,0-0.1,0.1-0.3,0.1c-0.2,2.1-0.3,4.3-0.7,6.5c-0.3,1.4,0,2.4,1.1,3.3
	c4.2,3.9,8.4,7.8,12.6,11.6c0.1,0.1,0.4,0.2,0.7,0.3c0.3-1,0.5-2,0.8-2.9c0.4-1.2,0.9-1.5,2.1-1.1c0.9,0.3,1.8,0.7,2.7,1.1
	C153.7,152.1,158,152.3,162.5,151.7L162.5,151.7z M152.2,192.4c-2.4,0.9-4.6,1.8-7,2.7c0.1,0.3,0.2,0.6,0.3,0.9
	c2,4.8,3.9,9.7,6,14.5c1.7,4,3.8,7.8,7.2,10.9c2.7,2.5,3.9,5.8,3.9,9.6c0,0.9,0.1,1.8,0.1,2.8c0.5,7,4.1,13.1,6.1,19.6
	c0.1-0.3,0.2-0.6,0.1-0.9c-0.6-3.3-1.1-6.7-1.9-10c-2.3-9.3-4.8-18.6-7.1-27.9c-1.8-7.3-4.6-14.3-7.3-21.2
	C152.6,193,152.4,192.7,152.2,192.4L152.2,192.4z M211.5,320.5c0-0.2,0-0.4,0-0.5c-10.3-2.7-20.5-5.3-31-8c0,3.2,0,6,0,8.8
	c0,0.4,0.5,1,0.9,1.2c1.2,0.5,2.4,1,3.6,1.2c6.1,0.8,12.2,1.5,18.3,2.3c0.4,0,1-0.1,1.4-0.3C207,323.6,209.2,322,211.5,320.5
	L211.5,320.5z M252.5,230.8c1.7-0.2,3.1-0.4,4.6-0.5c4.8-0.5,9.4,0.3,14.1,0.9c1.7,0.2,3.5,0.2,5.3,0.2c0.7,0,1.5-0.5,1.9-1
	c2-2.5,3.8-5.1,5.7-7.6c0.1-0.2,0.2-0.5,0.3-0.7C274.1,218.5,260.4,222.9,252.5,230.8L252.5,230.8z M202.6,326.5
	c-0.4-0.2-0.7-0.3-0.9-0.3c-3.1-0.3-6.2-0.6-9.3-1c-2.7-0.4-5.4-0.9-8.1-1.4c-1.4-0.2-2.5-1.3-4-0.9c-0.1,0-0.4-0.1-0.5-0.3
	c-0.8-1.2-2.2-1.3-3.7-2c0.1,1.2,0.1,2.1,0.2,3c0.2,1.7-0.2,3.7,0.7,5c0.9,1.3,2.8,2,4.4,2.8c3.5,1.8,7.2,3.3,11,4.2
	c0.8,0.2,1.4,0.3,2.1-0.4C197,332.3,199.7,329.5,202.6,326.5L202.6,326.5z M176.7,329.9c0.6,6.7,1.2,12.9,1.8,19.5
	c5.3-4,10.1-7.8,14.3-12.8C187.1,335.3,182,332.8,176.7,329.9L176.7,329.9z M172.4,275c-0.1,0-0.3,0-0.4,0
	c1.3,14.8,2.5,29.6,3.8,44.5c1.3,0.5,2.4,1,3.9,1.6c0-3.2,0-6.1,0-9c0-0.3-0.1-0.8-0.3-1c-1.5-1.2-1.7-2.9-1.9-4.6
	c-0.4-2.9-0.5-5.9-1-8.8c-0.7-4.5-1.6-8.9-2.4-13.3C173.4,281.4,172.9,278.2,172.4,275L172.4,275z M187.2,145.9
	c0.1,0,0.2,0.1,0.3,0.1c1.1-1.2,2.1-2.7,3.4-3.7c3.5-2.8,5.7-6.7,8.8-10.1c-2.2-1.7-4.2-3.4-6.4-4.9c-2.1,3.5-3.4,7.1-4.6,10.7
	c-0.1,0.2-0.2,0.4-0.1,0.6c0.6,1.7-0.3,3.2-0.6,4.7C187.7,144.1,187.4,145,187.2,145.9L187.2,145.9z M62.7,163.6l-0.6-0.2
	c-2.4,2.3-4.8,4.7-7.3,6.9c-1.1,1-1.3,2.1-0.8,3.4c0.7,2,1.8,3.6,3.7,5c1.6-3.2,3.2-6.2,4.7-9.3c0.1-0.3,0.2-0.7,0.1-1
	C61.7,166.9,62,165.3,62.7,163.6L62.7,163.6z M120.1,131.2c0.1-0.1,0.2-0.2,0.3-0.3c-3.5-4.5-7-9-10.5-13.5
	c-0.1,0.1-0.3,0.1-0.4,0.2c0.4,2,0.7,4,1.3,5.9c0.2,0.8,0.8,1.7,1.4,2.3C114.5,128,117.5,129.4,120.1,131.2L120.1,131.2z
	 M196.5,139.1c-3.5,2.3-7.1,4.6-8.8,8.7c-0.6,1.3-1.9,2.4-1.6,4.4C190.4,148.2,193.6,143.8,196.5,139.1L196.5,139.1z M193.6,126.3
	c1.9,1.5,3.7,2.9,5.5,4.3c0.8,0.7,1.7,0.9,2.7,0.5c-0.6-1.6-4.9-5.8-7.1-6.8C194.3,125,194,125.6,193.6,126.3L193.6,126.3z
	 M124.4,135.5c1.1,4.6,1.7,6,3.1,7.1c0.7-1,1.4-2,0.5-3.2C126.8,138,125.6,136.8,124.4,135.5z M187.5,141.1
	c-0.1-0.1-0.2-0.1-0.4-0.2c-1,1.1-2,2.1-3.4,3.6c1.3-0.1,2.1-0.2,2.9-0.2C187,143.1,187.3,142.1,187.5,141.1L187.5,141.1z
	 M201.4,132.4c-0.3,0-0.6-0.1-0.8,0c-1.4,1.2-2.5,2.7-3.6,4.5C199.1,135.8,200.3,134.5,201.4,132.4L201.4,132.4z"/>
<path d="M79.8,491.8c2.4-3.1,4.7-6.2,7.1-9.2c2.9-3.6,6.5-6.3,10.5-8.5c13.5-7.6,27-15.2,40.5-22.8c0.5-0.3,1-0.4,1.6-0.7
	c0,1-0.8,1.2-1.2,1.4c-6.8,3.8-13.6,7.5-20.4,11.3c-7.2,4-14.2,8.2-21.4,12.2c-3.4,1.9-6.3,4.3-8.8,7.3c-2.4,2.9-4.7,6-7.1,9
	L79.8,491.8L79.8,491.8z"/>
<path d="M44.5,279c10.7,10,22.7,18.2,34.4,27c-1.1,0.5-1.6-0.3-2.1-0.6c-4.1-2.9-8.2-5.8-12.1-8.9c-6.2-4.8-12.3-9.8-18.3-14.7
	C44.9,280.5,45,280.5,44.5,279L44.5,279z"/>
</svg>
