<?xml version="1.0" encoding="UTF-8"?>
<svg id="SKHLMC" xmlns="http://www.w3.org/2000/svg" viewBox="0 0 288.26 381.24">
  <defs>
    <style>
      .cls-1 {
        fill: #010101;
        stroke-width: 0px;
      }
    </style>
  </defs>
  <path class="cls-1" d="m141.07,303.39c4.63-4.09,7.3-9.33,9.16-15.09.81-2.48.95-4.95.48-7.47-.76-4.14-.67-8.33-.19-12.47.19-1.57.43-3.14.67-4.86-.62.29-1.15.43-1.62.71-3.01,1.67-6.01,3.38-8.97,5.14-2.62,1.52-5.15,3.24-7.78,4.76-4.2,2.48-8.69,4.14-13.27,5.62-4.3,1.38-8.73,2.09-13.12,2.86-1.34.24-2.67.43-4.01.67-.14.9.14,1.76.24,2.62.48,4.57,1,9.14,1.48,13.76.14,1.29.05,2.57.1,3.86h-.38c.14-2.86-.19-5.66-.43-8.47-.33-3.24-.76-6.43-1.19-9.62-.1-.67-.19-1.29-.29-1.95h-.57c-2.58.38-5.2.71-7.78,1.19-1.05.19-1.91,0-2.67-.71-.72-.67-1.48-1.29-2.24-1.9-.43-.33-.86-.67-1.29-1.05-.05.05-.14.1-.19.19,2.72,6.47,6.97,12.09,10.69,18.23-.57-.1-.67-.48-.86-.71-1.86-2.86-3.72-5.71-5.54-8.57-2.05-3.24-3.96-6.57-5.2-10.23-.05-.14-.14-.33-.24-.43-1.81-2.62-2.96-5.57-4.06-8.57-.1-.29-.24-.52-.38-.86-.14.19-.24.24-.24.33,0,2-.19,4.05.1,6.05.48,3.33,1.29,6.66,2,10,.91,3.95,1.91,7.9,2.82,11.9.1.33.33.71,0,1.24-.14-.38-.24-.62-.29-.86-1.43-6.05-2.86-12.04-4.25-18.09-.86-3.76-1.29-7.57-.62-11.42.05-.29,0-.62-.05-.9-.72-2.62-1.48-5.24-2.24-7.85-.05-.19-.14-.38-.24-.57-.14.29-.19.57-.19.81-.05,7.09-.1,14.23-.1,21.33,0,5.66-.24,11.33-1.19,16.9-.24,1.52-.43,3.05-.62,4.57h-.62c.24-1.57.57-3.09.76-4.66.33-2.57.67-5.14.91-7.71.19-2.33.29-4.71.29-7.04.05-8.81.05-17.61.1-26.37,0-.38,0-.76-.05-1.09-.05-.67-.29-1.14-.95-1.48-1.24-.62-1.96-1.71-2.05-3.14-.29-5.19-1.19-10.28-1.96-15.42-.43-2.9-.72-5.9-1.1-8.81-.29-2.38-.62-4.81-.91-7.24-.29-2.52-.52-5-.72-7.52-.19-2.28-.57-4.47-1.53-6.62-1.62-3.76-2.24-7.57-2.2-11.52.05-2.81.62-5.38,1.48-8,1.53-4.66,3.48-9.19,5.63-13.61,1.86-3.86,4.39-7.24,7.25-10.42,3.58-3.9,7.21-7.85,10.69-11.9,1.43-1.67,3.05-3.05,4.72-4.38,1.19-.95,2.2-2.05,2.86-3.38.91-1.76,1.67-3.62,2.48-5.43.29-.67.24-1.33.05-1.95-1.38-4.19-2.77-8.38-4.2-12.52-.67-1.95-1-3.95-1.05-5.95-.14-4.28-.24-8.57-.24-12.85.05-4.52.91-8.9,2.1-13.23.86-3,1.77-6,3.1-8.85.38-.81.81-1.62,1.24-2.43.76-1.33,1.77-2.43,3.01-3.38,2.96-2.24,6.35-3.71,9.74-5.09,4.63-1.86,9.4-2.38,14.27-2.14,2.2.1,4.39.29,6.59.43,3.44.24,6.44,1.57,9.35,3.33.67.38,1.34.71,2,1.05.14.1.24.19.38.29.48.38.95.71,1.43,1.05.19.14.38.33.57.48.48.38.95.76,1.38,1.14.14.1.29.24.38.38.14.19.24.43.43.52.86.67,1.48,1.48,2.2,2.28.48.52.91,1.05,1.38,1.52.81.9,1.62,1.76,2.39,2.67.24.29.33.71.57,1.05.52.71,1,1.48,1.48,2.24.48.71.81,1.52,1.34,2.19.81.95,1.05,2.19,1.91,3.14.33.38.33,1.05.67,1.43.81,1,1.05,2.19,1.62,3.28.52,1,.62,2.24.95,3.33.48,1.62.62,3.28.67,5,.05,1.05,0,2.09-.05,3.14-.05,1.19-.14,2.33-.19,3.52-.05,2.19-1.15,4-2,5.9-.19.38-.29.81-.48,1.19-.29.57-.57,1.14-1,1.62-1.48,1.76-2.58,3.76-3.63,5.81-.05.14-.1.29-.19.48.67.62,1.34,1.19,2,1.81s1.29,1.24,2,1.95c-.14.29-.24.57-.43.86-.95,1.33-1.91,2.62-2.82,3.95-1.34,2-2.91,3.76-4.68,5.43-.57.57-.81,1.14-.72,1.95.1.62-.1,1.24-.1,1.9-.05.71.1,1.43-.05,2.09-.24,1-.67,1.95-1.05,2.9-.1.19-.52.29-.76.43-.57.29-1.15.48-1.72.76-1.15.57-1.48,1.81-1.91,2.86-.52,1.33-1.48,2.09-2.77,2.67-2.34,1-4.68,2.09-7.06,3.14.1.33.14.57.24.81.52,1.29,1.1,2.52,1.62,3.81.24.57.29,1.19.48,1.71.62,1.52,1,3.14,1.43,4.76.33,1.24.62,2.48.95,3.67s.72,2.33,1,3.52c.33,1.38.57,2.81.86,4.24.62,2.71,1.24,5.38,1.86,8.09.05.19.14.38.24.67,1.15-.19,2.34-.33,3.48-.48,6.3-.9,12.46-2.28,18.61-3.76,2.77-.67,5.49-1.48,7.87-3.14,1.38-.95,2.67-1.95,4.01-2.95.91-.67,1.91-1.29,2.82-1.95,1.1-.76,2.2-1.48,3.25-2.24,4.06-2.95,8.5-4,13.41-3.05.14.05.24.05.38.1h.24c.86-1,1.77-2.05,2.67-3.14,4.2-4.86,8.5-9.71,12.6-14.66,2-2.38,3.72-4.95,5.54-7.47.38-.52.72-1.09,1.1-1.57.76-.95,1.81-.81,2.48.19.33.48.81.86,1.19,1.33.29.33.48.71.76,1,.86.9,1.81,1.71,2.53,2.67.62.9,1.57,1.48,2.15,2.43.19.33.52.67.81.9.33.24.67.43.76.86.05.24.33.43.52.62.48.52.95.95,1.38,1.52.81,1,1.81,1.86,2.67,2.81.72.76,1.34,1.67,2.05,2.43.91,1,1.86,1.95,2.82,3,.38.43.62.95,1,1.38.76.86,1.57,1.62,2.29,2.48.33.38.52.95.86,1.33,1,1.14,1.96,2.38,2.86,3.62.76,1.05.81,1.9.05,2.95-.67.9-1.38,1.71-2.2,2.52-1.38,1.33-2.82,2.62-4.2,3.95-2.91,2.76-5.82,5.52-8.73,8.28-1.48,1.43-2.86,2.95-4.49,4.24-4.58,3.76-8.73,7.95-13.08,11.9-4.01,3.62-7.92,7.33-11.88,11-.62.57-1.24,1.24-1.86,1.86-1.62,1.57-3.25,3.14-4.92,4.66-1.05.95-2.15,1.81-3.2,2.76-.95.86-1.86,1.76-2.82,2.62-.14.14-.24.29-.43.52.24,0,.33,0,.48-.05.19.81.62,1.57.52,2.48-.1,1-.24,2-.76,2.86-.24.38-.52.67-.86,1-.48.48-1,.9-1.43,1.43-.19.24-.29.62-.24.9.19.86.14,1.62-.19,2.43-1,2.57-2.48,4.66-4.92,6.09-1.15.67-2.2,1.52-3.39,2.05-1.24.57-2.58.95-3.91,1.24-1.24.29-2.58.43-3.87.67s-2.58.52-3.77.81c-.24.86-.19,1.62,0,2.43.29,1.38.33,2.86.29,4.28,0,.52.19,1.05.24,1.57.05.62-.05,1.29,0,1.9,0,.48.14.9.19,1.38.05.14.05.33.05.48,0,.62-.05,1.19-.05,1.81.05.9.14,1.81.19,2.71.14,2.24.67,4.38,1.29,6.52.19.71.38,1.48.62,2.19.14.38.38.71.52,1.05.05.14.19.29.19.43-.1.81.33,1.48.57,2.19s.33,1.48.57,2.19c.38,1.14.57,2.33,1.19,3.38.29.57.29,1.38.19,2-.05.57-.67.76-1.24.86-2.48.38-4.92.19-7.35-.24-2.96-.52-5.87-1.29-8.69-2.33-1.86-.67-3.58-1.67-5.3-2.67-.86-.48-1.72-1.05-2.58-1.52-.14-.1-.29-.05-.57-.14,0,.76-.05,1.48,0,2.14.19,1.76-.14,3.47-.81,5.09-.86,2-1.72,4-2.67,5.95-.52,1-1.29,1.9-1.91,2.86-.29.43-.57.9-.86,1.38h-.62c.57-.9,1.19-1.81,1.77-2.71,1.86-2.95,3.53-5.95,4.39-9.38.43-1.67.33-3.28,0-4.95-.19.33-.29.67-.38,1-1.81,6.05-4.58,11.57-9.26,15.99l-.38.43h0Zm-29.49-88.92c0-.33.05-.67-.05-.95-.57-2.24-1.1-4.52-1.81-6.71-.81-2.71-1.77-5.38-3.2-7.85-2.15-3.57-4.96-6.52-8.16-9.14-2.34-1.9-4.87-3.52-7.78-4.43-3.29-1-6.63-1.57-10.02-1.86-1.29-.1-2.62-.1-3.91.1-2.96.38-5.49,1.81-7.92,3.43-.29.19-.52.57-.57.9-.29,1.19-.57,2.33-.76,3.57-.67,4.14-.62,8.24.91,12.23.1.19.19.38.24.57.14-.24.19-.48.14-.71-.1-1.43.19-2.81.81-4.09,1.05-2.28,2.1-4.57,3.15-6.9.1-.19.24-.33.38-.52.05.05.14.05.19.1-.14.33-.29.67-.38.95-1.1,2.48-2.24,5-3.34,7.47-.19.48-.38.95-.38,1.48-.1,1.9-.1,3.86.72,5.71.29.62.38,1.29.48,1.95.19,1.29.29,2.62.43,3.9.24,2.38.33,4.76.67,7.14.62,5,1.38,9.95,2.05,14.9.52,3.95,1.05,7.95,1.53,11.9.1.67.33,1.05.95,1.19,2.05.57,4.06,1.24,6.11,1.71,3.72.9,7.54,1.19,11.36.62,4.92-.71,9.74-1.86,14.51-3.19.95-.24,1.86-.57,2.86-.86,0-.76-.05-1.52,0-2.28.14-1.76.29-3.57.57-5.28.19-1.19.43-2.33.43-3.52.05-3.62-.1-7.19.19-10.81.19-2.62.1-5.33.14-7.95,0-1.09-.38-2.05-1.05-2.9-.76-1-1.48-2-2.29-2.95-4.1-4.9-8.4-9.66-12.89-14.28-.14-.19-.29-.38-.43-.57,1.62.86,10.6,10.9,16.13,17.95.14.19.29.38.48.67.29-.38.52-.67.72-.95,1.57-2.33,2.82-4.81,3.91-7.38,1.1-2.52,1.24-5.05.67-7.71-.57-2.86-1.67-5.52-3.01-8.14-.14-.24-.19-.48-.38-.86.24.1.33.1.38.14.1.05.14.14.19.24,1.57,2.9,2.77,5.9,3.34,9.14.43,2.48.19,4.86-.81,7.24-1.24,2.9-2.67,5.66-4.49,8.24-.29.38-.38.71-.29,1.19.14.81.19,1.67.24,2.52.05.76,0,1.52,0,2.48.95-.33,1.81-.57,2.62-.86,5.58-2.14,11.12-4.28,16.7-6.43.38-.14.72-.24,1.1-.38.05.1.05.19.1.24-2.2,1.05-4.49,1.86-6.78,2.76s-4.53,1.76-6.78,2.62c-2.29.86-4.63,1.71-6.97,2.57-.05,1.05-.14,2.05-.19,3.05-.1,2.24-.29,4.43-.33,6.66-.05,1.38.1,2.76.1,4.14,0,.62.24.9.76,1.14,1.53.67,3.01,1.38,4.49,2.09,3.01,1.43,6.06,2.81,9.07,4.24.19.1.38.24.57.38-.05.1-.1.14-.14.24-4.87-2.28-9.78-4.57-14.75-6.85-.33,1.76-.72,3.38-.86,5.05-.19,1.71-.14,3.43-.14,5.14s-.05,3.33.1,5.05c.43-.05.76-.05,1.05-.1,2.29-.48,4.58-.86,6.82-1.38,11.41-2.57,21.76-7.43,31.31-14.04.62-.43.86-.86.81-1.67-.38-3.43-.67-6.85-.95-10.23-.33-3.57-.62-7.09-.91-10.66-.29-3.62-.62-7.24-.95-10.85-.29-3.19-.43-6.38-1.05-9.52-.52-2.52-1.1-5.05-2.15-7.47-.91-2.05-1.53-4.19-1.53-6.47.05-2.19-.76-4-2.39-5.47-.91-.81-1.57-1.76-2.05-2.86-1.15-2.57-2.43-5.14-3.34-7.81-.57-1.67-1.67-2.33-3.1-2.76-.48-.14-.95-.19-1.53-.29v1.33c0,1.24-.19,2.48-.67,3.67-.67,1.76-1.91,2.9-3.77,3.33-1.81.38-3.67.38-5.54.14-3.72-.52-7.11-1.9-10.31-3.76-5.01-2.9-9.93-5.85-14.89-8.81-.67-.43-1.34-.86-2.05-1.29-.19.33-.33.57-.48.86-1.34,2.28-2.67,4.62-4.01,6.9-1.48,2.62-3.01,5.19-4.44,7.81-1.72,3.14-3.25,6.38-4.01,9.9-.19.81-.38,1.62-.57,2.48.24.05.43.05.57.1,1.77.24,3.53.43,5.3.76,2.77.52,5.54,1.24,8.02,2.67,2.91,1.67,5.44,3.86,7.78,6.24,2.67,2.71,4.87,5.76,6.3,9.33,1.48,3.71,2.53,7.52,3.44,11.38.05.29.1.57.1.9h-.43Zm16.27-79.07c.1-.43.14-.67.19-.9.19-1.14.33-2.33.48-3.52.1-.9.52-1.57,1.29-2.09,1.38-.9,2.72-1.86,4.1-2.76,2.29-1.52,4.63-2.9,6.73-4.71.81-.71,1.81-.86,2.86-.71,1.38.19,2.58.81,3.72,1.52,1.29.76,2.48,1.62,3.77,2.33,1,.57,2.05,1.14,3.15,1.57,1.43.57,2.82.43,4.2-.24,1.53-.76,2.86-1.81,3.82-3.24,1.91-2.76,3.34-5.66,4.01-8.95,1.24-5.95.91-11.76-1.72-17.23-1.29-2.71-2.82-5.28-4.39-7.85-3.87-6.28-8.69-11.66-15.18-15.38-2.48-1.43-5.06-2.57-7.92-2.86-2.62-.29-5.25-.48-7.87-.57-4.53-.19-8.97.24-13.17,2.05-3.53,1.48-6.97,2.9-10.07,5.09-1.05.71-1.91,1.62-2.58,2.67-.48.81-1,1.62-1.38,2.48-2.96,6.95-4.92,14.09-5.25,21.66-.24,4.81-.14,9.62.24,14.42.14,1.57.43,3.24.91,4.76,1.34,4.24,2.82,8.43,4.2,12.66.24.67.38,1.48,1.19,1.62.81.14,1.29-.52,1.72-1.09,1.38-1.9,2.2-4,2.29-6.38.1-2.62.72-5.05,2.1-7.28,1-1.62,2.15-2.14,4.01-1.76,1.57.33,2.96,1.05,4.3,1.95.29.19.48.48.62.76.29.43.52.95.81,1.38,2.15,2.76,4.34,5.52,6.54,8.24.76.76,1.43,1.48,2.29,2.38h0Zm43.62,85.83c-1.77-.14-3.1.33-4.34,1.29-.52.38-1.05.71-1.57,1.05-1.72,1.09-3.2,2.43-4.58,3.95-2,2.19-4.01,4.38-6.3,6.28-3.96,3.24-8.21,6-12.7,8.47-5.2,2.86-10.64,5.24-16.32,7-5.2,1.62-10.5,2.71-15.89,3.52-1.81.29-3.67.57-5.39,1.33-1.72.76-3.63,1.14-4.96,2.52-1.38.43-2.29,1.52-3.2,2.52-1.43,1.48-2.72,3.09-4.06,4.62-.14.19-.33.33-.48.48-.05-.05-.1-.14-.19-.19,1.96-2.57,4.1-5,6.54-7.28-6.59-.1-13.17-.19-19.85-1.29.14.76.19,1.38.33,1.95.91,3.38,1.77,6.76,2.77,10.14,1,3.43,2.24,6.81,4.06,9.9.67,1.14,1.43,2.24,2.34,3.14,1.05,1.09,2.34,2,3.53,3.05.57.52,1.24.62,2,.48.57-.14,1.19-.29,1.77-.38,4.15-.62,8.3-1.19,12.41-1.86,5.11-.76,10.17-1.86,15.03-3.62,3.77-1.38,7.49-2.9,10.93-5,3.2-2,6.44-4,9.64-5.95,3.15-1.9,6.35-3.67,9.78-5.05,3.53-1.43,7.06-2.9,10.55-4.38,4.39-1.81,8.88-3.43,13.65-4.05,3.29-.43,6.3-1.62,9.12-3.43,2.62-1.71,4.25-4,5.15-6.85.24-.76.05-1.38-.43-2-.76.38-1.48.71-2.2,1.09-.72.33-1.38.67-2.1.95s-1.38.71-2.2.71c.43-.33.91-.57,1.34-.76,2.39-1.09,4.82-2.09,7.02-3.57,1.81-1.19,2.1-2.9,2-4.86,0-.33-.29-.67-.57-.9-.62-.62-1.43-.86-2.29-.95-1.48-.24-2.86-.24-4.2.52-.86.48-1.77.86-2.67,1.24-.19.1-.43.1-.62.19-.05-.05-.05-.14-.1-.19.29-.14.52-.29.86-.43,1.91-.9,3.87-1.81,5.77-2.71.76-.38,1.53-.86,2.24-1.38.81-.57,1.19-1.48,1.15-2.48-.1-1.76-1-3.05-2.58-3.81-.52-.24-.95-.33-1.53-.14-2.62.9-5.3,1.81-7.97,2.67-.43.14-.86.29-1.29.29-.72,0-1.43.05-2-.52.29-.05.52-.05.76,0,.86.14,1.67.14,2.48-.14,2.2-.76,4.44-1.43,6.63-2.24,2.48-.9,5.01-1.86,7.45-2.95.91-.43,1.72-1.19,2.43-1.9s.57-1.52-.24-2.14c-.76-.57-1.62-.95-2.58-1.14-2-.43-3.96-.05-5.92.33-5.15,1.05-10.21,2.52-15.27,4.05-1,.29-1.96.71-2.86,1.24-2,1.19-4.01,2.52-6.01,3.76-.14.1-.33.14-.52.24-.05-.05-.1-.14-.1-.19,1.91-1.57,4.1-2.86,6.35-4.24h0Zm80.08-43.75c.14-.71-.29-1.09-.62-1.52-5.25-6.76-10.98-13.14-16.75-19.47-2.48-2.76-5.01-5.47-7.45-8.24-1.05-1.19-1.43-1.19-2.34.14-1.15,1.71-2.24,3.47-3.53,5.05-2.62,3.28-5.39,6.47-8.11,9.66-4.25,4.95-8.64,9.85-12.41,15.18-.24.33-.48.67-.72,1,.24.19.43.29.57.43.72.62.86,1.33.29,2.05-1.24,1.62-2.82,2.71-5.01,2.57-.43-.05-.72.05-1,.29-1.67,1.24-3.44,2.43-5.01,3.76-2.67,2.33-5.3,4.71-7.87,7.14-1.67,1.52-3.25,3.14-4.01,5.38-.14.38-.19.67-.1,1,1.53,4.95,3.1,9.9,4.63,14.85.1.29.24.52.33.81.43-.1.72-.19,1.05-.24,2.53-.57,5.06-1.19,7.59-1.67.86-.14,1.48-.48,2.15-1,3.44-2.95,6.82-5.9,10.36-8.76,5.68-4.57,11.65-8.81,17.61-12.95,3.34-2.28,6.68-4.52,10.4-6.24,3.1-1.43,6.16-2.9,9.26-4.33,1.91-.9,3.63-1.9,4.82-3.71.62-.95,1.53-1.33,2.72-1.24,1.05.1,2.1.05,3.15.05h0Zm-80.47,78.07c-1.48.52-2.82.9-4.1,1.43-4.87,1.95-9.74,3.95-14.6,5.95-.48.19-.76.48-.81,1-.29,2.67-.72,5.33-.91,8-.14,1.95-.05,4,.1,5.95.19,2.09.67,4.09.95,6.19.1.71.29,1.19,1.05,1.57,1.67.76,3.25,1.81,4.87,2.67,1.91.95,3.77,1.95,5.87,2.48,2.15.52,4.25,1,6.4,1.43s4.3.48,6.44.14c.86-.14.95-.29.86-1.14,0-.14-.05-.29-.1-.38-.86-2.81-1.62-5.62-2.58-8.38-.95-2.81-1.91-5.62-2.2-8.57-.43-4.24-.67-8.43-1-12.66-.1-1.86-.14-3.67-.24-5.66h0Zm-19.9-43.7c.38-.1.57-.1.76-.14,3.48-.9,6.82-2.19,10.07-3.71,4.63-2.19,9.26-4.47,13.89-6.66.67-.33,1.15-.76,1.57-1.38.95-1.33,1.91-2.62,2.96-3.81.72-.81,1.57-1.48,2.34-2.19,3.48-3.24,6.92-6.52,10.88-9.19.19-.1.33-.29.52-.48-.76-.29-1.48-.33-2.1-.14-1.48.48-2.96.95-4.44,1.43-.19.05-.43.05-.67.1,0-.05,0-.14-.05-.19.29-.1.62-.24.91-.33,1.15-.38,2.34-.71,3.44-1.14,1.05-.43,2.05-.48,3.15-.19,2.15.62,3.87-.24,5.35-1.76.43-.43.67-1,.38-1.57-.29-.62-.91-.71-1.48-.57-1.15.24-2.29,0-3.39-.14-2.24-.33-4.49-.57-6.73-.33-2.15.24-4.06.95-5.73,2.33-1.05.86-2.1,1.67-3.2,2.48-1.96,1.38-4.01,2.52-6.3,3.14-2.53.71-5.06,1.38-7.64,2-5.35,1.33-10.79,2.09-16.23,2.86-.48.05-.95.14-1.53.24,1.1,6.47,2.15,12.85,3.25,19.37h0Zm100.51-33.89c-1.19,0-2.15.05-3.1,0-1.24-.1-2.15.33-2.86,1.33-1,1.48-2.39,2.43-4.01,3.19-2.24,1.05-4.53,2.14-6.78,3.19-3.2,1.52-6.44,2.95-9.4,4.9-10.83,7.19-21.29,14.85-31.07,23.47-.43.38-.86.81-1.43,1.33.57.05.95.05,1.34.05,1.48.1,2.86.38,4.06,1.33s1.24,1.81.24,2.9c-.95,1.05-2.15,1.86-3.48,2.38-1.19.52-2.43,1-3.67,1.52.57.48,1.19.86,1.67,1.33,2.05,2.05,1.77,4.81-.62,6.38-.52.33-1.05.57-1.57.9-.19.1-.33.24-.67.43,1.15.19,2.05.38,3.01.52,2.67-2.48,5.3-4.9,7.92-7.38,4.2-3.9,8.4-7.81,12.6-11.71,3.67-3.38,7.3-6.81,10.98-10.19,3.44-3.19,6.87-6.43,10.26-9.62,4.15-3.86,8.3-7.71,12.46-11.57,1.15-1.09,2.2-2.28,3.29-3.43.33-.24.48-.71.86-1.29h0Zm-149.38-40.7c-.1.1-.14.19-.14.24-1.24,3.47-2.86,6.66-5.15,9.57-.19.24-.33.57-.48.9-.24.67-.1,1.24.48,1.71.19.19.43.33.67.48,4.39,2.62,8.78,5.28,13.27,7.81,2.96,1.71,6.06,3.14,9.35,4.05,1.38.38,2.77.67,4.2.48.67-.1,1.38-.33,2-.67.52-.29.86-.81.86-1.43-1.48-.48-2.91-.81-4.3-1.33-2.77-1.14-5.3-2.67-7.35-4.95-2.72-2.95-4.72-6.38-6.54-9.95-.1-.19-.1-.43-.19-.67.14.05.24.05.29.1.14.24.29.52.43.76,1.34,2.24,2.58,4.47,4.01,6.66,2,3.14,4.82,5.47,8.16,7.09.62.29,1.24.62,2,.71-1-2-1.96-3.95-2.86-5.85-.24-.43-.43-.9-.57-1.38-.14-.52.1-.86.67-.86.29,0,.57.1.91.19.33.1.67.19,1.1.29-2.43-4.28-4.77-8.43-7.16-12.61h-.91c-.91-.05-1.72-.38-2.29-1.09-1.77-2.14-3.34-4.38-4.68-6.81-.1-.19-.24-.38-.43-.67-.05.29-.05.43-.05.57-.33,2.28-1.19,4.33-2.67,6.14-.91.95-1.48,1.05-2.62.52h0Zm14.22,1.48c.38.67.72,1.38,1.15,2.09,1.91,3.28,3.77,6.62,5.73,9.9.24.43.52.81.86,1.09,1.29,1,2.72,1.62,4.3,1.9,2.1.38,3.01-.14,3.87-2.14.1-.24.19-.43.29-.67.76-2.48,1.48-4.95,2.24-7.43.19-.57,0-.95-.43-1.33-1.62-1.48-3.29-3-4.92-4.52-.48-.43-.91-.86-1.43-1.29-.14.33-.24.62-.38.81-.33.52-.76.52-1.15.05-.19-.24-.29-.52-.43-.81-.29-.67-.52-1.33-.76-1.95-.43-1.05-1.1-1.95-2.1-2.52-.81-.48-1.57-1-2.43-1.48-1.48-.86-2.24-2.14-2.43-3.86-.1-.95-.29-1.86-.52-2.76-.1-.29-.24-.67-.52-.81-1.38-.9-2.86-1.67-4.53-1.95-1.43-.24-2.58.24-3.34,1.52-.86,1.48-1.43,3.05-1.81,4.71-.19.81-.1,1.52.14,2.28.48,1.52,1.38,2.76,2.29,4.05.86,1.19,1.67,2.33,2.53,3.52.57.76,1.38,1.09,2.29,1.09.72,0,1.38-.14,2.1-.24.19-.05.43-.05.72-.1-.19.62-.91.29-1.29.81h0Zm34.74,73.73c.1.81.19,1.52.29,2.28.43,2.33,0,2.24,2.67,2.95,4.25,1.14,8.5,2.19,12.74,3.28.29.1.62.14.91.1,1.81-.29,3.67-.48,5.49-.95,2.77-.67,5.44-1.52,8.16-2.33.1,0,.14-.1.29-.19-1.67-5.38-3.34-10.76-5.01-16.18-2.96,1.38-5.82,2.67-8.64,4.05-2.72,1.29-5.39,2.67-8.11,3.9-1.57.71-3.2,1.19-4.82,1.81-1.29.43-2.58.81-3.96,1.29h0Zm-30.54-61.36c.14.48.24.76.38,1.09.81,1.67,1.57,3.33,2.39,5,.24.43.52.86.81,1.29.38.57.86.95,1.53,1.05,1.05.19,2.1.43,3.15.43,2,0,3.96.24,5.77,1.24.81.43,1.67.43,2.53,0,1.24-.62,2.48-1.19,3.77-1.76,1.96-.9,3.87-1.76,5.82-2.62,1.05-.43,1.86-1.09,2.24-2.19.19-.52.52-1,.72-1.57.48-1.19,1.29-1.9,2.62-2.14.81-.1,1.34-.62,1.53-1.43.05-.29.14-.57.19-.9.24-2.48.48-4.95.72-7.43,0-.14-.05-.33-.05-.38-1.19,1.09-2.34,2.24-3.53,3.28-1,.86-2.05,1.67-3.1,2.38-.86.57-1.81.9-2.86.95-.48,0-1,.1-1.29-.38-.29-.48.14-.81.33-1.19.57-1,1.19-2,1.77-3.05-.57-.57-1.1-.81-1.86-.76-2.48.14-4.92-.1-7.21-1.19-.24-.14-.52-.19-.91-.29-.14.43-.24.71-.33,1.05-.57,2.05-1.05,4.09-1.67,6.14-.48,1.62-1.1,3.19-1.72,4.76-.48,1.14-1.38,1.67-2.62,1.67-1.81,0-3.44-.57-4.96-1.48-.95-.57-2.05-1-3.1-1.43-.29-.14-.62-.1-1.05-.14h0Zm8.54-21.37c.29.19.48.33.62.43,1.96,1.24,3.96,2.48,5.92,3.71,3.53,2.19,7.06,4.38,10.55,6.57.52.33.91.38,1.48.1.95-.52,1.96-1,2.96-1.29,1.91-.48,3.39-1.52,4.58-3.09.24-.29.38-.62.52-.95.62-1.57,1.24-3.14,1.91-4.66s1.38-3,2.1-4.47c.1-.19.1-.43.19-.76-.67.38-1.19.67-1.72.95-1.48.76-3.05.86-4.58.19-.72-.29-1.43-.62-2.1-1-1.72-1.05-3.44-2.14-5.2-3.14-.76-.43-1.57-.76-2.39-1.05-1.38-.43-2.62-.29-3.77.76-.81.71-1.67,1.33-2.58,1.95-2.15,1.43-4.3,2.81-6.44,4.24-.62.48-1.29.95-2.05,1.52h0Zm-37.51,21.9c-.1-.05-.14-.05-.24-.1-.1.19-.19.38-.33.52-3.2,3.62-6.44,7.19-9.64,10.81-1.43,1.62-2.91,3.19-4.15,4.95-2.96,4.05-4.87,8.66-6.78,13.28-.05.1,0,.19,0,.43.24-.29.38-.38.52-.57,1.96-2.38,3.91-4.71,5.82-7.09,2.1-2.57,4.1-5.19,6.16-7.76.19-.24.29-.57.81-.52-.14.19-.19.38-.29.48-4.15,5.14-8.26,10.28-12.5,15.38-.91,1.14-1.67,2.28-2.05,3.62-.1.43-.29.86-.38,1.24,1.91-.9,3.72-1.81,5.58-2.57,1.91-.76,3.96-.62,5.92-.67.67-3.62,1.67-7.05,3.39-10.23,1.24-2.33,2.48-4.62,3.77-6.9,1.86-3.28,3.82-6.52,5.73-9.76.24-.43.48-.86.72-1.29-.95-1.05-1.86-1.95-2.05-3.24h0Zm2.48,3.14c.91.57,1.67,1.09,2.48,1.57,4.53,2.71,9.12,5.43,13.65,8.09,2.91,1.71,5.92,3.09,9.21,3.86,2.53.57,5.06.81,7.59.1,1.34-.38,2.29-1.19,2.86-2.48.72-1.62.86-3.28.76-5.05,0-.1-.1-.24-.19-.38h-2.72c-1.19,2.05-2.24,2.62-4.72,2.43-1.57-.1-3.05-.48-4.53-.95-3.05-1.05-5.92-2.43-8.69-4.05-4.34-2.52-8.64-5.14-12.93-7.71-.1-.05-.24-.1-.38-.14-.76,1.52-1.53,3.05-2.39,4.71h0Zm-19.14,94.2c0,1.38.05,2.67.38,3.9.1.38.38.71.67.95.91.76,1.86,1.38,3.05,1.48.72.1,1.48.24,2.2.33,5.58.67,11.17.76,16.8.67.33,0,.72-.1,1.05-.29,2.86-1.52,5.82-2.86,9.07-3.43.81-.14,1.57-.29,2.34-.43v-4.57c-.38.1-.67.14-.95.24-5.2,1.48-10.5,2.9-15.89,3.62-1.81.24-3.63.52-5.44.43-4.2-.24-8.3-1.14-12.27-2.57-.24-.1-.57-.19-1-.33h0Zm53.74-117.81c5.92,3.86,11.79,7.66,17.75,11.52-.86,1.43-1.62,2.81-2.48,4.28.48.05.86.19,1.15.1.76-.19,1.62-.33,2.29-.71,3.01-1.62,5.25-4.19,7.4-6.81.24-.29.33-.67.57-1.19-1.67.1-3.01.67-4.34,1.19-1.38.52-2.72,1.14-4.2,1.71-5.87-3.62-11.84-7.38-17.9-11.09-.1.48-.14.76-.24,1h0Zm15.18,10.33c-.14-.1-.29-.24-.43-.38-4.87-3.14-9.74-6.24-14.6-9.38h-.1s-.05.05-.14.05c-.1,1-.14,2.05-.33,3.09-.14.67,0,1.14.52,1.57,2,1.86,4.01,3.71,6.01,5.52.05.05.19.1.33.14.14-.48.24-.95.38-1.38.19-.57.43-.71,1-.52.43.14.86.33,1.29.52,1.86.95,3.91,1.05,6.06.76h0Zm-4.92,19.37c-1.15.43-2.2.86-3.34,1.29.05.14.1.29.14.43.95,2.28,1.86,4.62,2.86,6.9.81,1.9,1.81,3.71,3.44,5.19,1.29,1.19,1.86,2.76,1.86,4.57,0,.43.05.86.05,1.33.24,3.33,1.96,6.24,2.91,9.33.05-.14.1-.29.05-.43-.29-1.57-.52-3.19-.91-4.76-1.1-4.43-2.29-8.85-3.39-13.28-.86-3.47-2.2-6.81-3.48-10.09,0-.19-.1-.33-.19-.48h0Zm28.3,60.98v-.24c-4.92-1.29-9.78-2.52-14.8-3.81v4.19c0,.19.24.48.43.57.57.24,1.15.48,1.72.57,2.91.38,5.82.71,8.73,1.09.19,0,.48-.05.67-.14,1.1-.76,2.15-1.52,3.25-2.24h0Zm19.57-42.7c.81-.1,1.48-.19,2.2-.24,2.29-.24,4.49.14,6.73.43.81.1,1.67.1,2.53.1.33,0,.72-.24.91-.48.95-1.19,1.81-2.43,2.72-3.62.05-.1.1-.24.14-.33-4.92-1.71-11.45.38-15.22,4.14h0Zm-23.82,45.55c-.19-.1-.33-.14-.43-.14-1.48-.14-2.96-.29-4.44-.48-1.29-.19-2.58-.43-3.87-.67-.67-.1-1.19-.62-1.91-.43-.05,0-.19-.05-.24-.14-.38-.57-1.05-.62-1.77-.95.05.57.05,1,.1,1.43.1.81-.1,1.76.33,2.38s1.34.95,2.1,1.33c1.67.86,3.44,1.57,5.25,2,.38.1.67.14,1-.19,1.19-1.38,2.48-2.71,3.87-4.14h0Zm-12.36,1.62c.29,3.19.57,6.14.86,9.28,2.53-1.9,4.82-3.71,6.82-6.09-2.72-.62-5.15-1.81-7.68-3.19h0Zm-2.05-26.13h-.19c.62,7.04,1.19,14.09,1.81,21.18.62.24,1.15.48,1.86.76v-4.28c0-.14-.05-.38-.14-.48-.72-.57-.81-1.38-.91-2.19-.19-1.38-.24-2.81-.48-4.19-.33-2.14-.76-4.24-1.15-6.33-.33-1.43-.57-2.95-.81-4.47h0Zm7.06-61.45s.1.05.14.05c.52-.57,1-1.29,1.62-1.76,1.67-1.33,2.72-3.19,4.2-4.81-1.05-.81-2-1.62-3.05-2.33-1,1.67-1.62,3.38-2.2,5.09-.05.1-.1.19-.05.29.29.81-.14,1.52-.29,2.24-.14.38-.29.81-.38,1.24h0Zm-59.42,8.43l-.29-.1c-1.15,1.09-2.29,2.24-3.48,3.28-.52.48-.62,1-.38,1.62.33.95.86,1.71,1.77,2.38.76-1.52,1.53-2.95,2.24-4.43.05-.14.1-.33.05-.48-.38-.71-.24-1.48.1-2.28h0Zm27.39-15.42s.1-.1.14-.14c-1.67-2.14-3.34-4.28-5.01-6.43-.05.05-.14.05-.19.1.19.95.33,1.9.62,2.81.1.38.38.81.67,1.09,1.1,1.05,2.53,1.71,3.77,2.57h0Zm36.46,3.76c-1.67,1.09-3.39,2.19-4.2,4.14-.29.62-.91,1.14-.76,2.09,2.05-1.9,3.58-4,4.96-6.24h0Zm-1.38-6.09c.91.71,1.77,1.38,2.62,2.05.38.33.81.43,1.29.24-.29-.76-2.34-2.76-3.39-3.24-.19.33-.33.62-.52.95h0Zm-33.03,4.38c.52,2.19.81,2.86,1.48,3.38.33-.48.67-.95.24-1.52-.57-.67-1.15-1.24-1.72-1.86Zm30.12,2.67s-.1-.05-.19-.1c-.48.52-.95,1-1.62,1.71.62-.05,1-.1,1.38-.1.19-.57.33-1.05.43-1.52h0Zm6.63-4.14c-.14,0-.29-.05-.38,0-.67.57-1.19,1.29-1.72,2.14,1-.52,1.57-1.14,2.1-2.14h0Z"/>
  <path class="cls-1" d="m104.56,303.39c1.15-1.48,2.24-2.95,3.39-4.38,1.38-1.71,3.1-3,5.01-4.05,6.44-3.62,12.89-7.24,19.33-10.85.24-.14.48-.19.76-.33,0,.48-.38.57-.57.67-3.25,1.81-6.49,3.57-9.74,5.38-3.44,1.9-6.78,3.9-10.21,5.81-1.62.9-3.01,2.05-4.2,3.47-1.15,1.38-2.24,2.86-3.39,4.28h-.38Z"/>
  <path class="cls-1" d="m87.72,202.09c5.11,4.76,10.83,8.66,16.42,12.85-.52.24-.76-.14-1-.29-1.96-1.38-3.91-2.76-5.77-4.24-2.96-2.28-5.87-4.66-8.73-7-.72-.62-.67-.62-.91-1.33h0Z"/>
</svg>