<?xml version="1.0" encoding="UTF-8"?>
<svg id="Elderly" xmlns="http://www.w3.org/2000/svg" viewBox="0 0 288.26 381.24">
  <defs>
    <style>
      .cls-1 {
        stroke-width: .75px;
      }

      .cls-1, .cls-2 {
        fill: none;
        stroke: #1d1d1b;
        stroke-miterlimit: 10;
      }

      .cls-2 {
        stroke-width: .5px;
      }
    </style>
  </defs>
  <g>
    <path class="cls-2" d="m107.27,101.47l-.09-.51c-.09-.51-.34-3.83-1.19-6.04s-.77-4.26-.77-8.85.94-11.66,1.96-14.89c1.02-3.23,3.83-7.32,9.87-9.36s13.45-1.19,13.45-1.19c0,0,4.09.85,6.55,2.64s6.13,3.4,8.09,7.66c1.96,4.26,3.4,5.53,3.32,8.43s-.68,4.09-2.21,3.66-2.81-1.88-4.51-2.05-3.4.09-5.11,1.79-2.38,1.96-4,3.06-2.21,2.81-3.06,4.51-2.47,2.3-3.15-.09-2.21-5.28-3.15-6.98-1.79-3.4-3.49-3.49-3.06,1.02-3.57,2.21-.26,5.87-.17,6.64-1.62.6-2.04,2.38.85,2.47-.17,4.43-3.83,2.98-4.6,3.32-1.96,2.72-1.96,2.72Z"/>
    <path class="cls-2" d="m122.17,93.55s.6,1.19-.85,1.19-1.96,0-3.49-1.87-1.79-4.26-1.79-4.26"/>
    <path class="cls-2" d="m145.4,82.65s-.17,2.9,0,5.96c.17,3.06-1.14,4.61-1.14,4.61"/>
    <line class="cls-2" x1="122.94" y1="82.65" x2="131.61" y2="94.74"/>
    <line class="cls-2" x1="120.38" y1="94.72" x2="126.19" y2="105.4"/>
    <line class="cls-2" x1="107.27" y1="101.47" x2="104.04" y2="106.87"/>
    <path class="cls-2" d="m116.55,102.6s3.26,6.89,5.17,9.64,3.13,5.62,3.13,5.62"/>
    <path class="cls-2" d="m127.28,117.47s-1.28.38-1.86.38-.64.32-.26,1.91,2.11,4.28,2.11,4.28"/>
    <path class="cls-2" d="m89.25,166.47s.08,12.21,0,14.38.24,3.77,1.2,4.72,5.68,3.57,7.28,4.6,12.45,3.13,14.81,3.32,3.26,0,3.26,0"/>
    <path class="cls-2" d="m90.44,185.57s-1.28.7-1.98,1.79-.65,1.28-1.6,4.53c-.95,3.26-1.4,4.98-1.4,8.17s-.57,5.3-.32,7.6.57,6.19.83,7.21.96,3.13.96,3.13"/>
    <path class="cls-2" d="m88.66,205.87s-.83,6.64-1.34,9.19-.38,3.26-.38,4.21-.52,1.21.85,1.34,3.49,0,3.49,0"/>
    <path class="cls-2" d="m95.8,210.98s-1.66,3.19-2.74,5.55-2.04,4.4-2.11,4.98.06,1.15.96,1.15,2.62.38,4.4,1.34,8.43,2.3,12.38,3.13,8.94,1.6,14.81,1.28,6.64-.57,8.81-1.72,3-1.21,4.85-2.17,3.13-4.4,3.51-5.68.38-3.96.96-5.11.89-3.83.96-4.91,1.72-4.47,2.04-7.98c.32-3.51-.26-11.3-.26-11.3"/>
    <path class="cls-2" d="m110.17,192.53s5.68-.32,10.98.45,9.83,1.4,11.17,1.91"/>
    <path class="cls-2" d="m89.27,179.51s2.64,3.89,4.36,4.98,10.34,4.47,10.98,4.72"/>
    <path class="cls-2" d="m126.06,192.47s9.26-1.21,11.49-.44,3.64.96,3.64.96"/>
    <path class="cls-2" d="m91.08,174.53c-.26-.77-3-12.57-3.32-16.85-.32-4.28-.96-7.53-.89-10.6.06-3.06.96-8.11,2.23-13.91,1.28-5.81,2.3-7.79,4.4-11.36s2.62-3.38,4.09-5.81,2.17-4.47,3-5.49,1.28-1.53,1.28-1.53c0,0,.64-1.02,1.15-1.72s.7-.38,1.6,0,5.17,3.57,7.09,5.04,4.72,4.02,6.83,5.17,5.23,4.02,6.89,5.43,2.23,1.02,3.06,1.53,1.02.83.83,2.17-.19,1.72,1.21,3.19,3.89,4.85,3.89,4.85c0,0,2.11,6.13,3.96,8.17s4.6,4.79,5.68,6.06.51,8.11.67,11.11c.16,3,0,14.55,0,14.55"/>
    <path class="cls-2" d="m106.21,126.28s-5.3,3.64-7.34,9.13c-2.04,5.49-1.4,9.38-.45,12.19.96,2.81,4.6,10.53,5.3,12.7s1.66,4.66,1.79,5.17.32.86,1.34,1,8.55-1.58,11.49-1.58,5.62-.64,11.81-2.36,7.09-2.11,7.47-2.17.64.57,0-1.47-1.28-5.87-2.23-8.17-4.21-11.87-5.55-14.11-4.53-6.19-6.83-7.91-5.26-4.02-7.16-4.28-4.65.38-5.6.51-4.02,1.34-4.02,1.34Z"/>
    <path class="cls-2" d="m91.21,141.66c-.19.13,2.87,4.85,3.89,7.28s6.63,6.56,6.63,6.56"/>
    <path class="cls-2" d="m96.47,144.21c-.41-.19-.73-9.51-.6-11.23s-.32-4.71-.32-4.71"/>
    <path class="cls-2" d="m95.55,146.06s2.3,4.6,2.81,4.98,1.83.9,1.83.9"/>
    <path class="cls-2" d="m112.78,116.96s1.6,3.51,2.11,4.6.94,2.87.94,2.87"/>
    <path class="cls-2" d="m89.55,156.02s4.43,4.15,6.46,6.19,4.18,4.79,4.18,4.79"/>
    <path class="cls-2" d="m117.31,193.57s6.45,6.74,8.3,9.3,2.43,4.91,2.81,5.17"/>
    <path class="cls-2" d="m144.77,161s8.29,1.92,11.8,2.87,13.21,2.17,15.45,2.04,5.94-.42,9.13.56,4.34,1.17,4.34,1.17"/>
    <path class="cls-2" d="m135.96,160.85s2.86,7.55,4.14,10.17.61,3.51,2.62,3.51,7.28.51,11.04,1.72,8.3,3,14.62,4.09,9.64,1.72,11.68,1.76,5.49-.41,10.34-2.07,7.09-1.98,8.94-2.68,2.23-1.79,3.06-1.79,1.6.06,1.53.96"/>
    <path class="cls-2" d="m181.02,167.06s3.19,1.72,5.43,2.17,3,.57,2.49,1.34-1.47,1.53-3.45,1.47-3.26-.56-4.15-.57-3.32,1.08-4.53.89-2.55-1.21-2.55-1.21"/>
    <path class="cls-2" d="m150.48,175.42s14.32-.64,17.96-.45,4.72,1.72,6.77,2.68,2.81,1.4,2.81,1.4"/>
    <path class="cls-2" d="m198,180.02s.83-1.02,1.85-.96,2.36-.06,3.06-.32,1.03-.96,1.03-.96c0,0-.07-.57.51,0s1.79,1.98,1.4,3.26-1.4,2.3-1.91,2.74-.58.38-.64,1.34.06,1.53-.57,2.68-1.28,1.34-1.79,2.43.26,1.98-.38,2.74-.89,1.91-3.13,2.68-5.43-.26-6.45-.38-2.87-1.02-3.83-1.34-10.09-.36-10.09-.36"/>
    <path class="cls-2" d="m111.8,165.75s7.31,9.29,9.73,11.78,4.28,2.94,5.17,3.06.83,2.23,3.13,4.53,3.51,1.11,4.66,1.61,9.06,2.8,11.55,3.37,9.26,2.23,12.57,2.87,3.96.13,7.4,0,7.66,0,7.66,0"/>
    <path class="cls-2" d="m174.6,181.41s-.03,6.91-.35,8.82-.7,2.93,0,3.45,1.98.32,1.98.32c0,0,.57.77.83-1.02s.32-4.6.51-7.34,0-3.77,0-3.77"/>
    <line class="cls-2" x1="174.45" y1="187.79" x2="177.42" y2="188.25"/>
    <path class="cls-2" d="m179.74,182.09l-3.8-6.28s-.36-.45,0-.87,5.4-3.47,5.4-3.47"/>
    <path class="cls-2" d="m184.49,168.65s16.18-11.6,20.46-16.2c4.28-4.6,8.11-7.91,8.11-7.91,0,0,.19-.83,1.28,0s6.83,6.32,7.98,6.32,3.06,1.02,4.02,1.02,3.06-1.02,4.09-1.02,3.77,2.55,5.3,4.34,1.47,2.74,1.72,3.45.13,1.09-.89,1.02-10.09,1.47-13.4,2.94-7.85,3.06-10.53,5.36-10.69,11.01-10.69,11.01"/>
    <path class="cls-2" d="m121.86,80.95s1.89-.83,4.99,1.09,14.72,9.89,14.72,9.89"/>
    <path class="cls-2" d="m141.57,96.83s.51.04,1.23.04.98.38,1.11.98.09,1.49,0,2.72-.51,4.81-.72,6.72-1.45,3.66-2.17,4.43-.98.77-1.66,1.91-1.96,2.47-2.77,3.32-7.15.77-8.26.89-1.49-.89-1.49-.89c0,0-.3-.81-.94-2.34s-1.62-8.21-1.7-9.45.72-1,.72-1c0,0,2.09.36,2.94.57s.94.81,1.23,1.02.68-1.11.85-1.6.85-1.64,1.11-3,.6-7.23.55-7.68.68-.19.68-.19l2.77.38s1.7.21,2.34.64,1.89,1.7,1.89,1.7"/>
    <path class="cls-2" d="m143.57,90.82c-.1,0-.2,0-.29,0-.31.02-.63.07-.9.23s-.47.39-.66.62c-1.15,1.4-2.51,3.21-2.42,5.12.02.42.17.92.58,1.02.25.06.51-.05.74-.18.72-.43,1.3-1.06,1.84-1.69.84-.98,1.66-2.03,2-3.27.17-.61.14-1.39-.4-1.7-.15-.08-.31-.12-.48-.13Z"/>
    <path class="cls-2" d="m142.8,96.87s1.04-1.86,2.18-2.55,1.82-.15,2.07.39-.13,2.15-.85,3.11-2.25,1.98-2.25,1.98"/>
    <line class="cls-2" x1="143.27" y1="94.92" x2="143.99" y2="95.43"/>
    <path class="cls-2" d="m89.4,220.67s2.06,2.41,1.54,3.86-1.5,5.36-.5,10.13,2.02,11.49,4.15,17.36,2.89,9.11,2.98,11.49,1.11,12.6,1.7,16.51,2.21,12.94,2.72,16.09c.51,3.15.77,6.21,1.19,8.6s3.4,4.85,5.28,5.7,3.91.68,6.3-.68,8.17-3.15,10.21-4.85,2.98-1.36,3.49-4.43c.51-3.06,1.53-5.45,1.7-9.11.17-3.66,1.96-12.17,2.47-14.64s.68-12.09.77-15.74c.09-3.66-.26-13.53,0-20.26s-.91-9.11.01-10.64,1.6-3.49,1.6-3.49"/>
    <path class="cls-2" d="m138.92,222.74s.41,9.29,0,14.99-.84,14.72-1.94,19.57-1.02,12-1.96,17.62c-.94,5.62-1.62,9.28-1.96,10.55s-.09,2.64-1.02,2.64-1.58.43-1.58.43"/>
    <path class="cls-2" d="m102.3,298.15s.97,3.65,4.12,5.7,4.43.17,6.89,0,5.36-1.43,8.85-2.38,6.94-3.98,6.94-3.98"/>
    <path class="cls-2" d="m105.85,226.53s-.45,12.55.49,18.09c.94,5.53,2.55,16.85,2.47,21.53-.09,4.68.86,16.26,0,22.39-.85,6.12-.37,16.19-.37,16.19"/>
    <path class="cls-2" d="m102.98,303.38s-2.38.53-3.41,2.51-2.36,6.06-2.74,7.72-.89,4.6,1.47,6.7,5.49,3.57,7.91,3.51,3.19-.51,4.6,1.28,3.7,4.66,8.81,5.87,7.85.64,11.17-1.4,4.09-4.15,5.11-6.32-.83-5.14-2.04-5.76-4.09-2.16-5.81-3.24-2.49-1.21-5.23-2.81-2.99-3.95-2.99-3.95"/>
    <path class="cls-2" d="m97.43,311.46s-.35,3.79,4.56,6.03,10.02,5.38,12.64,7.23,5.74,4.53,10.6,4.09,8.88-2.11,9.55-3.06"/>
    <path class="cls-2" d="m118.42,308.07s-.31,2.19-2.71,3.39-3.11.24-4.96.94-4.85,1.28-6.06.83-3.26-3.26-3.26-3.26l1.77-5.28"/>
    <path class="cls-2" d="m129.34,296.53s7.51,2.08,9.23,2.47,3.57,1.15,3.96,2.43.19,4.98-1.02,6.57-1.85,2.77-6.13,3.46-6.96.35-9.45-.54-5.56-1.88-5.56-1.88"/>
    <path class="cls-2" d="m122.69,306.24s4.46,2.34,9.88,1.89,6.7-1.63,8.36-2.49,1.72-1.46,1.72-1.46"/>
    <line class="cls-2" x1="131.46" y1="282.58" x2="133.74" y2="282.22"/>
    <path class="cls-2" d="m107.45,234.91s12.58.51,17.52-.6,5.87-2.21,5.87-2.21"/>
    <path class="cls-2" d="m115.27,239.25s9.28-1.36,13.11-2.13,4.22-2.1,4.22-2.1"/>
    <path class="cls-2" d="m106.25,244.03s10.64,2.37,16.77,1.35,8.44-2.38,8.44-2.38"/>
  </g>
  <g>
    <path class="cls-1" d="m107.54,70.21s-1.91,5.81-2.11,11.61-.31,9.13.23,11.41,1.01,3.97,1.16,4.93.46,3.56.46,3.56l-3.23,5.15s-.61-.27-1.29.77-2.16,2.58-3.18,4.62-2.38,4.76-4.58,7.26-3.25,5.3-3.78,6.64-1.75,4.94-2.62,9.43-1.83,10.06-1.72,12.21,1.13,11.85,1.13,11.85l1.28,6.93-.04,6.24s-.03,7.76.04,9,.16,2.2.52,2.8.65.94.65.94c0,0-1.14.56-1.7,1.41s-1.34,2.64-2.12,5.73-.93,4.72-1.17,8.09c-.24,3.37-.35,4.22-.37,7.23s.86,6.78,1.08,7.49.78,2.47.78,2.47l-.1,2.12s-.47.09.95.49,1.61.06,1.61.06c0,0,1.03,1.22,1.3,2.06s.34.82-.06,2.76-.71,4.21-.5,7.31,1.76,9.76,2.57,12.84c.81,3.08,1.74,5.74,2.67,8.64.93,2.9,1.98,6.34,2.18,9.23.21,2.89,1.25,13.06,1.25,13.06l2.58,16s.98,6.2,1.24,8.24.34,2.57.34,2.57c0,0-.63-.25-1.8.8s-1.48,1.01-2.38,3.46-1.89,5.26-2.07,6.47-.26,3.65.71,5.23,3.1,2.8,4.36,3.35,3.16,1.21,4.42,1.15,2.21-.37,2.96,0,2.38,2.43,3.54,3.45,3.16,2.73,7.19,3.76,6.32.79,8.94-.43,3.62-1.63,5.36-4.36,2.41-3.91,1.66-6.1-1.87-2.55-3.81-3.61-5.23-2.95-6.77-3.76-2.51-1.03-3.48-2.04-1.42-1.7-1.42-1.7c0,0,7.14,2.79,8.73,2.78s3.1.28,6.78-.45,3.93-1,4.99-2.54,1.47-1.81,1.65-3.61.48-4.06-.66-4.78-2.04-1.07-5.44-1.98-7.08-1.92-7.08-1.92c0,0,.52-1.47.77-4.39.25-2.93.34-3.6.34-3.6,0,0,1.22-.33,1.58-.43s.67-.46.82-1.42.76-3.26,1.58-8.36,1.17-8.41,1.44-11.74c.27-3.34.75-6.53,1.31-10.33s.79-4.82,1.19-10.62.72-8.92.72-12.81-.18-10.09-.18-10.09c0,0,1.1-1.47,1.54-3.23s.45-3.81.98-5.26.85-2.44,1-3.94.35-2.11,1.03-4.43,1.43-3.37,1.33-6.49c-.09-3.12-.42-9.85-.42-9.85,0,0,8.84,2.4,12.23,3.03s4.24.68,7.64.52,9.43-.11,9.43-.11c0,0,.17.89,1.19.97s1.87.08,1.87.08l.33-.46s7.15-.06,8.78.21,3.54,1.27,6.17,1.7,4.18.74,5.41.18,1.68-.55,2.71-2.09.38-2.16.66-2.88,1.35-1.74,1.81-2.68.39-1.84.7-2.89.58-1.01,1.33-2.02,1.52-2.08,1.3-2.82-.77-1.88-1.29-2.31-1.44-.38-.36-1.54,6.23-7,8.34-8.49,5.63-3.43,9.17-4.78,6.9-2.3,9.82-2.8,4.94-.72,4.94-.72c0,0,1.24.17.89-1.02s-.67-2.46-2.3-4.09-2.78-2.93-3.75-3.31-1.29-.43-2.25-.12-1.68.73-2.44.72-1.48-.23-2.49-.54-1.8-.24-2.45-.65-4.14-3.24-5.57-4.5-2.29-1.89-2.29-1.89c0,0-.29-.23-.85.27s-6.46,6.17-7.48,7.25-3.9,3.77-6.18,5.59-9.82,7.56-9.82,7.56l-4.09,2.71s.19.14-1.81-.43-4.44-1.28-6.02-1.35-4.71.14-6.17.07-8.69-.89-8.69-.89l-10.53-2.25-7.5-1.92s.14-6.29-.05-8.46.04-2.8-1.13-4.07-4.49-4.8-5.75-6.24-1.89-3.37-2.65-5.41-.73-2.24-2.69-4.57-3.34-3.96-3.26-4.74.21-2.34-.4-2.71-1.59-.68-1.59-.68c0,0-1.25-1.57-1.74-3.23s-1.16-2.73-.09-2.9,1.75.03,2.55,0,7.32-.56,8.18-.65,2.93-3.45,3.62-4.19,1.92-1.33,2.63-3.27,1.15-5.11,1.36-7.52l.2-2.41s1.72-1.04,2.25-1.98,1.18-1.91.92-2.65-.74-1.26-1.18-1.17-1.03.29-1.41.65-.55.78-.55.78l-.72-.5s1.25-1.87,1.53-2.64.67-1.61.61-3.21-.03-6.18-.03-6.18c0,0-.05-.24.86.1s1.45.03,1.71-.7.66-2.5.51-3.56-.37-2.15-1.16-3.61-1.56-3.54-2.47-4.91-1.41-2.46-3.27-3.83-5.64-3.47-7.11-4.52-4.47-1.43-6.51-1.42-5.02-.28-8.31.67-4.72,1.27-6.4,2.48-2.26,1.49-3.25,2.73-2.45,3.89-2.45,3.89Z"/>
    <path class="cls-1" d="m151.38,175.39s7.06,2.47,8.86,3,7.1,1.77,9.35,2.16,7.37,1.26,8.25,1.36,1.79,0,1.79,0l-1.78-2.94s-.66-.35-1.92-.97-3.05-1.86-4.06-2.24-2.03-.87-5.48-.82-10.98.28-10.98.28l-4.04.16Z"/>
  </g>
</svg>