<?xml version="1.0" encoding="UTF-8"?>
<svg id="Kids" xmlns="http://www.w3.org/2000/svg" viewBox="0 0 288.26 381.24">
  <defs>
    <style>
      .cls-1 {
        stroke-width: .75px;
      }

      .cls-1, .cls-2 {
        fill: none;
        stroke: #1d1d1b;
        stroke-miterlimit: 10;
      }

      .cls-2 {
        stroke-width: .5px;
      }
    </style>
  </defs>
  <g>
    <path class="cls-2" d="m144.07,27.34s4.58,1.59,7.39,4.12c2.81,2.53,7.58,7.86,7.58,13.75,0,5.89-2.43,14.41-4.77,18.99-2.34,4.58-2.62,5.99-2.71,7.48s-.19,2.34-2.25,1.03c-2.06-1.31-2.53-1.22-4.4-1.4s-2.53-3.37-3.18-3.46-1.68.19-1.5,1.78c.19,1.59-1.03.47-1.87,0s-.47-.47-.84.47-.19-.28-1.96-1.31-1.22-2.53-2.62-1.78-3.09.56-4.58.47-2.53-.75-4.02.75c-1.5,1.5-1.03,2.9-2.53,2.81s-5.61-6.83-6.27-11.97c-.65-5.15.47-11.97,3.09-16.93,2.62-4.96,5.99-10.48,10.76-12.91s7.02-3.09,8.61-3.09,6.08,1.22,6.08,1.22Z"/>
    <path class="cls-2" d="m142.76,76.27s-.56-1.31,0-2.53,2.15-2.43,2.15-2.43"/>
    <path class="cls-2" d="m154.83,85.43c-1.4,0-5.15,3.55-5.99,6.46s.65,8.14.84,10.29c.19,2.15,1.03,9.64,1.31,13.28.28,3.65-.75,6.08,1.22,6.66s3.46-.21,6.86-.02c3.4.19,9.32-1.12,10.91-.94s.09-4.12-.28-5.61.56-4.77.84-5.89-.94-5.33-1.31-7.58-2.62-12.91-4.02-15.44c-1.4-2.53-5.61-5.71-7.95-7.3-2.34-1.59-9.82-3.09-9.82-3.09,0,0-4.02.65-5.8-1.03-1.78-1.68-4.12-3.74-5.52-3.93s-8.61-.56-10.01-.56-3.46-.19-5.43,1.4-2.81,3.46-6.46,5.24c-3.65,1.78-6.74,4.96-7.11,6.92-.37,1.96-2.06,7.02-2.43,11.6-.37,4.58.56,6.17.65,7.3s.37,1.59.37,1.59"/>
    <path class="cls-2" d="m166.06,145.87s-.84,3.27,0,5.52c.84,2.25,1.12,5.52,1.31,6.64.19,1.12,1.87,5.24,1.87,7.02s.84,2.62.94,4.49,1.22,3.93,1.5,4.86c.28.94-2.06,1.31-2.99,1.87s-11.51,3.09-15.06,3.46c-3.55.37-13.28.37-19.37,0-6.08-.37-12.82-1.4-16.09-2.06-3.27-.65-7.58-1.4-8.79-1.78-1.22-.37-1.59-.84-1.87-2.81s1.12-11.6,1.31-15.9c.19-4.3,1.87-5.89,1.12-7.11s-1.68-4.12-.75-6.17.37-4.86.19-7.67c-.19-2.81.28-6.74.09-9.17-.19-2.43-1.78-8.14-2.53-9.54"/>
    <path class="cls-2" d="m141.64,75.24s-8.42,1.22-12.16,4.49c-3.74,3.27-14.78,14.22-17.68,19.46-2.9,5.24-4.68,11.04-4.86,13.47s.75,5.71,0,4.86-1.39-2.9-2.33-4.49-.84-2.9,0-3.55-1.21-1.5,0-2.81c1.21-1.31,2.8-7.11,6.54-12.07,3.74-4.96,9.73-11.79,13.1-15.16s5.89-5.34,8.7-6.09c2.81-.74,5.46-.9,5.46-.9"/>
    <path class="cls-2" d="m117.42,75.31s9.32-.4,11.95-.28"/>
    <path class="cls-2" d="m170.69,175.45s2.19,3.16,2.19,6.06c0,2.9,1.31,6.92,3.18,12.44,1.87,5.52,5.61,19.55,6.55,23.01.94,3.46,2.53,5.05,1.5,6.36s-2.71,2.62-3.74,4.96c-1.03,2.34-1.22,2.9-3.65,4.49s-13.47,6.36-16.84,6.92-9.73.09-11.88,0-2.25-1.31-4.77-1.96c-2.53-.65-3.27-1.4-3.37-3.37-.09-1.96,1.4-2.81.65-4.68-.75-1.87-2.99-4.49-2.25-6.64.75-2.15.47-7.2-.75-9.73s-5.52-11.79-6.46-13.47c-.94-1.68-1.87-2.34-2.81-4.4"/>
    <path class="cls-2" d="m183.6,219.75s-2.48,2.64-3.7,4.23-.56,3.27-2.53,4.77-8.51,4.86-12.72,6.08c-4.21,1.22-9.73,2.25-12.35,1.78s-8.79-1-9.73-1.15-2.69-1.58-2.69-1.58c0,0-9,2.17-12.18,1.42s-8.98-2.99-10.76-4.3c-1.78-1.31-2.71-2.34-2.97-4.77s-.4-5.15-.03-8.79c.37-3.65-3.55-13.1-4.86-20.58-1.31-7.48-.66-21.41-.66-21.41"/>
    <path class="cls-2" d="m140.71,230.71s-8.43,1.32-11.33.94c-2.9-.37-6.64-1.12-9.64-2.43s-5.78-2.99-5.78-2.99"/>
    <path class="cls-2" d="m170.32,170.59s-13.15,3.85-18.67,4.86c-5.52,1.01-29.19-1.29-34.89-2.43-5.71-1.14-9.25-2-9.25-2"/>
    <path class="cls-2" d="m170.48,118.49s.58-2.52,1.21-3.57.77-.56,2.11-.49.84,1.54,1.61,2.1,1.89,0,1.89,0c0,0,1.54-1.19,2.81-.77s2.03,1.73,1.75,2.73.35,3.03-.63,4.29-2.53,4.77-3.79,7.65c-1.26,2.88-5.03,10.1-8.21,12.77s-5.33,4.07-7.44,4.07-5.05-3.09-6.17-7.02c-1.12-3.93-1.54-7.44-2.03-10.74-.49-3.3-1.01-7.31-1.01-7.31"/>
    <path class="cls-2" d="m169.99,121.17s.64,1.89.72,2.67.26,1.26-.36,1.82-1.25.84-1.25.84"/>
    <line class="cls-2" x1="168.31" y1="121.24" x2="169.1" y2="128.68"/>
    <path class="cls-2" d="m178.4,115.93l1.58-3.81s.63-1.26-.42-1.4c-1.05-.14-.84-.21-1.16.98-.32,1.19-2.22,5.08-2.22,5.08"/>
    <path class="cls-2" d="m169.66,113.96s5.54-2.83,7.16-3.32,2.74.08,2.74.08"/>
    <path class="cls-2" d="m142.66,237.57s-.92,5.22-1.95,9.99c-1.04,4.77-3.37,15.25-3.75,20.11s-.56,18.8-.65,24.51c-.09,5.71,0,11.51,1.22,15.81,1.22,4.3,2.34,6.46,2.34,6.46"/>
    <path class="cls-2" d="m124.14,318.66s.09-3.55-1.03-9.82c-1.12-6.27-4.49-22.17-5.43-26.66s-1.5-12.44-.75-17.12c.75-4.68,2.06-11.51,2.99-14.69.94-3.18,1.22-7.22.84-10.39-.37-3.17-.41-7.2-.41-7.2"/>
    <path class="cls-2" d="m174.96,233.75s-.58,12.5-.58,14.56-.37,6.17-.84,8.33c-.47,2.15-.37,17.4-.65,21.61s-2.15,27.04-2.62,31.9c-.47,4.86-.28,9.36,0,12.07.28,2.71.56,4.68.56,4.68"/>
    <path class="cls-2" d="m156.05,329.14s.47-5.33-.56-14.03c-1.03-8.7-3.27-18.52-4.02-22.64,0,0-1.5-8.98-1.31-14.78.19-5.8,0-10.66.94-15.25.94-4.58,1.31-6.36.84-9.07-.47-2.71-2.62-13.59-2.62-13.59"/>
    <path class="cls-2" d="m183.83,336.34s-3.84-1.78-5.61-3.55-4.02-6.55-4.02-6.55c0,0-.37-1.78-1.12-2.62-.75-.84-1.05-.12-1.68,1.31s0,2.53-2.15,4.68c-2.15,2.15-5.61,3.09-7.58,2.15s-1.68-1.68-2.9-1.68-1.66,0-2.61-.28-.57-2.25-1.6-1.59-2.15,1.68-2.62,2.9c-.47,1.22-.75,4.21-.84,6.36l32.74-1.12Z"/>
    <path class="cls-2" d="m173.58,324.41s-1.82,5.94-3.6,7.81-3.46,2.53-4.67,2.53-2.15-.28-3.65-2.99"/>
    <path class="cls-2" d="m138.93,312.11s.75.09,2.06,1.22c1.31,1.12,4.68,2.15,6.92,3.09s6.64.94,7.9,1.88"/>
    <path class="cls-2" d="m140.98,313.33s-1.59,2-2.81,3.48-1.82,2.69-3.39,3.63-3.07,1.4-4.09,1.4c0,0-2.43-1.59-3.37-2.62-.94-1.03-2.06-.56-2.62-.56s-1.96.09-2.71-.94c-.75-1.03-2.25-1.4-2.62,0s-1.4,7.67-1.5,10.57-.47,8.14,0,9.17c.47,1.03,2.67,2.21,4.58,2.71,1.4.37,13.47-2.71,17.01-4.21s12.46-4.86,12.46-4.86"/>
    <path class="cls-2" d="m156.15,323.26s-4.6,1.76-6.47,2.42-12.02.65-14.9,0-5.12-.19-6.9,1.22c-1.78,1.4-2.9,3.66-5.24,3.47s-3.19-.1-4.68-3.47"/>
    <path class="cls-2" d="m164.65,252.14s-2.43.19-5.33.65c-2.9.47-3.09,1.12-4.49,1.12h-2.82"/>
    <path class="cls-2" d="m132.85,250.55c-.37,0-4.02-1.31-6.08-1.59-2.06-.28-3.09-.65-3.84-.94s-2.23-1.41-2.23-1.41"/>
    <path class="cls-2" d="m150.57,146.43s-7.72.98-14.87.84c-7.16-.14-9.55.15-12.91-.41"/>
    <path class="cls-2" d="m155.77,157.52s-5.29,0-10.85-2.95c-5.57-2.95-10.76-3.51-13.85-3.79"/>
    <path class="cls-2" d="m140.89,92.12s1.59,11.23,4.02,15.86c2.43,4.63,4.26,8.8,4.26,8.8"/>
    <path class="cls-2" d="m144.91,132.54s-9.36-5.47-13.28-8.7c-3.93-3.23-7.44-4.99-9.54-7.06"/>
    <path class="cls-2" d="m162.92,93.39s-7.02,6.28-8.28,11.07-2.81,6.76-2.81,6.76"/>
    <path class="cls-2" d="m154.78,94.23s-3.09,3.65-2.95,7.3c.14,3.65,0,6.6,0,6.6"/>
  </g>
  <path class="cls-1" d="m129.38,29.21s-3.94,2.33-5.99,5.26-4.48,6.89-5.98,10.34-2.19,9.13-2.06,11.49.53,5.69,1.83,8.28,2.34,4.39,2.92,5.05,1.07,1.22,1.39,1.31.38.39-.1.71-1.82,1.51-2.42,2.14-.64.8-1.56,1.53-2.17,1.31-4.08,2.54-4.58,3.18-5.35,4.63-1.84,5.31-2.35,7.73-1.21,7.08-1.01,8.84.67,3.76.71,4.15.37,1.59.37,1.59c0,0-.26.64-.69,1.26s-1.24.88-.76,1.83.51,1.12.13,1.78-.99.88-.28,2.33,2.88,5.37,3.38,6.92,2.04,6.37,2,8.98-.22,7.36-.02,9.65.26,4.79-.02,5.57-.89,1.89-.65,3.31,1.54,3.79,1.26,4.8-.95,2.64-1.11,4.3-1,10.6-1,10.6c0,0-.44,5.05-.45,6.01s-.16,1.89.38,2.6.52,1.21.52,1.21l-.14,11.57s.31,6.82.82,9.34,1.93,7.82,2.81,10.86,2.2,7.36,2.08,9.04-.33,6.07-.13,8.03.1,3.42,1.3,4.59,5.23,3.41,5.23,3.41c0,0,.58,9.06.57,10.08s.12,2.75-1.05,7.69-2.23,9.9-2.67,12.88-1.13,9.15-.13,14.88,3.85,19.43,3.85,19.43c0,0,1.38,6.81,1.7,8.51s1.21,6.86,1.35,8.95.16,3.46.16,3.46c0,0-.4.42-1.28-.26s-1.38-1.38-1.9-1.48-1.19-.7-1.5.55-1.37,7.03-1.5,9.43-.43,7.2-.32,8.65-.18,2.39,1.72,3.32,2.9,1.59,5.13,1.15,12.15-3,18.16-5.34,9.27-3.57,9.27-3.57l-.72,4.43-.12,1.93,32.74-1.12s-1.75-.81-2.96-1.59-3.16-2.34-3.97-3.65-2.23-3.63-2.78-5.16-1.1-2.69-1.39-2.68-.52-.13-.93.77-.94,3.18-1.06,2.19-.82-7.72-.75-10.41.71-10.33,1.16-15.83,1.35-14.56,1.61-19.92.33-9.63.38-12.95.1-8.72.33-10.02.58-2.93.74-5.49.38-9.39.38-9.39l.37-8.47s2.89-1.2,3.81-2.59,1.78-3.81,3.09-5.29,2.01-1.91,2.44-2.87-.1-1.8-.55-2.89-1.49-4.53-2.74-9.09-3.29-11.88-4.04-14.24-2.13-6.39-2.64-8.13-1.24-4.19-1.34-5.67.04-2.67-.65-4.27-1.65-3.27-1.65-3.27c0,0,1.28-.25.98-1.05s-1.25-2.46-1.35-3.41-.16-2.21-.46-3.13-.53-1.94-.63-2.81-.08-1.21-.53-2.67-1.32-4.12-1.41-4.86-.16-2.17-.61-3.89-1-2.61-.98-4.08.36-3.89.36-3.89c0,0,1.51-.72,3.18-2.45s5.63-7.23,7.21-10.66,3.18-7.2,3.98-8.48,1.62-1.49,1.49-2.89.1-2.77,0-3.23-.44-1.47-1.13-1.82-2.1-.31-2.1-.31c0,0,1.1-2.83,1.27-3.7s.1-1.68-.92-1.68-2.06.03-3.68.76-5.71,2.75-5.71,2.75c0,0,.63-2.91.78-3.86s-.02-2.58-.41-4.29-1.28-6.91-2.38-11.18-1.26-6.57-2.62-8.29-2.45-3.01-4.49-4.56-3.5-2.82-5.57-3.49-7.53-2.02-7.53-2.02c0,0-2.65.15-3.31.02s-1.85.3-1.61-1.12.4-1.99,1.19-2.75,1.09-1.24,1.83-1.1,2.63.82,3.77,1.4,1.97,1.35,2.21-.6.71-3.76,1.68-5.74c0,0,2.09-4.03,2.93-6.62s2.02-5.37,2.45-9.5,1.02-5.66-.02-8.35-2.35-5.55-4.47-7.77-4.82-4.35-7.58-5.79-5.11-2.16-7.46-2.13-3.22.11-4.81.76-4.86,2.22-4.86,2.22Z"/>
  <path class="cls-1" d="m142.66,237.57s-2.32,11.52-3.13,15.46-2.58,12.7-2.75,18.07-.44,17.72-.47,21.08-.21,8.91.5,12.36,2.11,7.57,2.11,7.57c0,0,1.13.59,2.06,1.22s4.67,2.28,6.38,2.87,3.13.88,4.56,1.11,3.88.98,3.88.98c0,0-.33-4.78-1.52-11.19s-2.85-13.08-3.21-16.5-1-9.86-.92-13.44-.14-4.88.23-8.85.75-5.75,1.18-8.29.7-4.87.14-7.87-2.4-12.38-2.4-12.38c0,0-1.78.06-2.5-.28s-1.55-.98-2.26-1.27-1.89-.64-1.89-.64Z"/>
</svg>