<?xml version="1.0" encoding="UTF-8"?>
<svg id="Elderly" xmlns="http://www.w3.org/2000/svg" viewBox="0 0 288.26 381.24">
  <defs>
    <style>
      .cls-1 {
        stroke-width: .75px;
      }

      .cls-1, .cls-2 {
        fill: none;
        stroke: #1d1d1b;
        stroke-miterlimit: 10;
      }

      .cls-2 {
        stroke-width: .5px;
      }
    </style>
  </defs>
  <g>
    <path class="cls-2" d="m139.74,35.55s5.16.45,7.75,1.57,6.29,3.37,9.32,7.52,3.59,8.19,4.15,10.89-.33,8.08-1.23,5.84-2.58-4.27-4.38-4.94-3.82.9-5.95,3.7-3.93,4.27-4.38,6.85c-.45,2.58-1.01,5.05-2.13,5.5s-1.8-3.7-3.14-5.95c-1.35-2.25-2.88-4.94-5.05-5.24s-3.37.82-4.27,2.17-1.05,3.97-1.65,5.31-1.87,4.27-1.87,6.06,0,3.89-2.02,4.04-2.92-.07-4.04,0-.45-.67-1.05-2.25-1.2-5.61-1.27-9.35c-.07-3.74-.15-8.08-.37-11s.52-7.26,3.37-10.78,5.69-6.88,8.61-8.08,4.79-1.72,6.14-1.87,3.48,0,3.48,0Z"/>
    <path class="cls-2" d="m136.04,76.26s-.52,1.35-1.95,1.27-2.32-1.05-3.52-3.89-1.43-6.01-1.43-6.01"/>
    <path class="cls-2" d="m158.87,59.67s-.07,4.76,0,6.71-.15,2.47-.6,3.14-.6,1.05-.6,1.05"/>
    <line class="cls-2" x1="137.76" y1="63.99" x2="145.69" y2="77.54"/>
    <line class="cls-2" x1="134.09" y1="77.54" x2="137.76" y2="86.37"/>
    <path class="cls-2" d="m120.85,78.88s.07,5.39-1.57,7.48-4.49,5.24-4.49,5.24"/>
    <line class="cls-2" x1="137.35" y1="62.98" x2="154.9" y2="71.77"/>
    <path class="cls-2" d="m156.84,70.58s-1.65.28-2.32,2.01-1.12,2.25-.82,3.68.5,1.42,1.52.9,2.07-2.32,2.44-3.67.84-1.8.61-2.17-1.43-.75-1.43-.75Z"/>
    <path class="cls-2" d="m155.23,77.16l1.47.32c1.47.32.97.28.97,1.45s-.22,3.69-.37,5.19c-.15,1.5-.6,5.01-1.32,6.88-.72,1.87-3.17,4.42-4.29,5.39s-3.97,2.25-5.99,2.47-4.71.52-6.07.3-1.41-1.5-1.96-3.52-1.62-7.26-1.62-8.38.82-.9.82-.9c0,0,.9,0,1.52.37s.8.45,1.7.9,1.8,0,2.54-.67,1.27-2.54,1.8-5.01,1.02-4.85,1.27-5.84.37-1.27,1.27-1.12,1.5.52,1.5.52c0,0,1.35.22,2.62.75s2.8.71,2.8.71"/>
    <path class="cls-2" d="m157.67,73.49s1.33-1.14,1.95-.91.73.57.28,1.44-1.5,2.5-1.62,2.78-1.06.8-1.06.8"/>
    <path class="cls-2" d="m137.76,100.96s2.39,2.47,3.59,3.29,4.49,5.84,6.44,8.91,5.09,7.63,5.99,11.6c0,0,.97,4.49,1.5,8.23.52,3.74.97,7.26.9,9.58s-.67,5.01-1.35,6.74c-.67,1.72.07,1.57.67,2.39s1.8,3.82,2.47,5.54c.67,1.72.82,3.67.82,3.67"/>
    <path class="cls-2" d="m126.16,128.12s1.05,11.97,1.05,14.14-1.27,4.57-2.25,9.43c-.97,4.86-1.8,8.16-2.25,9.2s-.37,1.65-1.5,1.65-6.21-.9-8.46-1.65-7.18-.75-8.53-.67-.15.6-1.27.67-1.27-.37-1.5-1.65-.97-10.63-1.8-16.09c-.82-5.46-1.12-9.88-1.57-12.24s-.82-4.38-1.5-6.4-1.42-4.49,0-8.01c1.42-3.52,2.84-7.56,5.16-10.78s7.26-7.93,7.78-9.43-.06-2.02,1.95-3.14,2.69-2.1,3.81-.9,2.39,1.65,4.34,3.22,6.81,4.12,8.91,5.46,4.49,2.92,6.36,2.84,2.84-.67,2.84-.67c0,0-.22-1.2,0-2.17s1.35-1.8,1.35-1.8"/>
    <path class="cls-2" d="m118.12,97.74s-3.63,4.19-5.13,5.99-2.17,4.49-2.17,4.49"/>
    <path class="cls-2" d="m127.12,140.33s2.56-3.83,3.08-5.25-.46-3.89-1.54-6.59-5.42-8.83-8.19-12.27-5.84-6.74-7.86-7.71-5.99-.82-8.01.6-5.54,7.63-6.14,9.95-1.15,8.07-1.15,8.07"/>
    <path class="cls-2" d="m137.76,102.68s1.65,1.42,1.72,2.69-.75,2.43-2.25,2.52-5.54-1.77-7.48-3.12-2.69-2.39-4.64-2.92-4.42-.97-5.46-2.17-2.99-2.92-4.57-4.19-2.64-2.89-2.64-2.89"/>
    <path class="cls-2" d="m150.93,124.12s-4.57-7.52-6.06-10.66c-1.5-3.14-3.37-5.69-3.89-6.66l-.52-.97"/>
    <path class="cls-2" d="m148.28,130.93s-3.41-9.77-4.9-14.71c-1.5-4.94-2.92-8.01-2.92-8.01"/>
    <path class="cls-2" d="m134.39,137.48s1.5-1.8,2.02-3.14,1.27-2.39-.37-1.5-3.22,2.92-4.27,2.84"/>
    <path class="cls-2" d="m128.48,157.84s6.96-.22,11.6-1.8,7.33-3.44,7.33-3.44"/>
    <path class="cls-2" d="m141.13,150.28s5.69-4.71,7.15-5.91,3.63-2.47,3.63-2.47"/>
    <path class="cls-2" d="m155.5,161.73s-11.15-1.27-13.62-1.2-5.61-1.05-5.61-1.05"/>
    <path class="cls-2" d="m141.13,164.65s-6.14-1.27-9.35-1.72-9.06-2.02-9.06-2.02"/>
    <path class="cls-2" d="m124.37,141.89s-2.69-6.96-4.04-11.3c-1.35-4.34-2.84-9.77-3.89-11.02s-2.92-3.87-2.92-3.87"/>
    <path class="cls-2" d="m123.26,159.21s-11.25-2.12-12.89-2.42-3.14-.52-3.14-.52h-3.14c-.75,0-2.8,1.47-2.8,1.47"/>
    <path class="cls-2" d="m107.3,118.32s-1.8,25.74-2.1,27.32-.6,3.07-.6,3.07"/>
    <path class="cls-2" d="m104.08,113.98c.22,0-1.71,6.51-2.8,7.78s-2.44,4.42-2.44,4.42"/>
    <path class="cls-2" d="m176.51,157.2s-4.03-1.46-5.08-1.53-2.62.67-4.42,1.42-5.54,3.22-6.88,3.52-7.86,2.02-9.2,2.47-8.99,1.95-13.89,2.32c-4.9.37-14.7-.22-16.95,0s-5.01,1.8-5.01,1.8l-2.32,1.65"/>
    <line class="cls-2" x1="121.68" y1="162.5" x2="121.68" y2="165.34"/>
    <path class="cls-2" d="m102.57,160.9s1.52,10.48,4.14,15.04,2.61,4.57,5.57,4.71,6.94-.3,9.4,0,6.43.51,10.25.03c3.82-.48,8.79-1.83,12.44-3.1s7.76-2.77,11.13-3.74c3.37-.97,7.11-1.12,8.83-.75s5.69.67,7.63.75,3.82-.82,5.61-1.8,2.62-1.57,3.29-2.1.37-1.57.37-1.57"/>
    <path class="cls-2" d="m174.88,170.63s2.41-.8,4.42-1.35,2.99-.82,3.29-2.1c.3-1.27.3-1.85.3-1.85"/>
    <path class="cls-2" d="m175.55,166.59s3.37-.52,5.01-.75,2.62-.6,3.07-1.2.97-1.72.9-2.54-.52-1.2-.52-1.2"/>
    <path class="cls-2" d="m175.55,161.73s3.58-.6,5.75-.82,3.3.07,3.83-.67,1.27-2.54,0-2.99-2.69-.97-5.09-.52-10.26,1.22-10.93,1.02"/>
    <path class="cls-2" d="m160.38,172.98s.95,5.99.58,7.13c-.37,1.14-.56,2.12-.58,3.16s-.32,3.89-.62,4.42-.75,2.25-.6,2.84-.67,2.32-1.8,3.89c-1.12,1.57-2.62,4.71-4.71,5.69s-10.1,1.95-13.92,1.87-10.7,1.27-13.84.6-6.74-1.72-9.95-2.69-8.23-3.82-10.33-5.54-1.71-2.32-3.33-4.04-1.69-3.07-.79-4.64,1.75-4.27,2.07-6.21.47-3.59.92-4.64,1.46-3.18,1.46-3.18"/>
    <path class="cls-2" d="m155.95,189.04s-2.62-.15-5.99-3.37c-3.37-3.22-6.81-6.29-7.11-6.29"/>
    <path class="cls-2" d="m138.51,197.57s-3.67-.97-6.59-2.32-3.82-3.74-5.99-4.04"/>
    <path class="cls-2" d="m153.68,199.44s-.65,6.97-1.4,10.41-.52,7.78-1.27,10.7c-.75,2.92-.97,6.51-1.95,8.61-.97,2.1-1.57,3.29-2.17,4.94-.6,1.65-.9,2.1-1.5,3.37-.6,1.27-.3,9.13,0,11.45s.13,7.41-.35,9.43-3.62,13.7-4.29,16.16-1.87,8.01-2.99,9.43-3.82,5.09-5.01,5.99-1.95,3.97-2.39,5.99-2.1,5.01-2.02,6.74,1.57,2.77,0,3.67-1.57,1.8-2.24,2.84,0,2.54-1.8,3.14-1.35.9-2.47,1.57-3.29.9-4.79.82-3.52-.45-3.89-1.12-2.1-2.1-2.62-3.97-1.12-3.07-1.2-5.01,1.27-8.53,1.2-9.5-.07-11.23-.22-13.1.15-5.99.52-7.63.9-3.07,1.2-4.42.37-3.89.37-4.57-.22-1.8.67-5.76c.9-3.97,1.5-6.66,1.12-8.08s-2.1-5.99-3.22-11.9c-1.12-5.91-2.17-9.88-2.02-11.38s.45-1.42,1.72-2.54,2.25-2.92,2.62-4.57"/>
    <path class="cls-2" d="m100.19,188.75s.46,6.43.76,8.83,1.16,5.84,1.63,7.18,1.29,3.14,1.29,3.14"/>
    <path class="cls-2" d="m107.68,200.72s-1.95,1.35-2.39,3.37-1.65,3.82-2.02,4.57,0,1.87.6,2.39,3.29,3.22,3.82,4.64,2.32,4.94,2.99,5.99,1.02,2.92,1.02,2.92"/>
    <path class="cls-2" d="m121.78,201.85s-7,1.49-8.64,2.46-1.72,1.65-2.69,2.62-2.25,2.02-2.54,3.29-.5,2.84-.5,2.84"/>
    <path class="cls-2" d="m158.47,192.66s.21,8.06,0,11.72c-.21,3.67-.95,7.03-1.55,8.68s-.52,7.11-.97,9.06-1.05,6.44-1.35,7.56.07,3.52,0,5.24c-.07,1.72-.19,3.59-.92,4.86s-1.25,2.54-1.25,2.54"/>
    <path class="cls-2" d="m152.88,237.46s-.67,4.57,0,6.59c.67,2.02,1.98,6.81.8,9.06s-2.53,4.49-2.45,6.74.89,4.79,0,7.78-.75,3.67-2.54,5.16-4.34,2.39-4.34,3.97v1.57"/>
    <path class="cls-2" d="m134.16,288.48s1.73,1.29,3.38,1.21,3.74-.84,4.94-.61,1.57.59,3.29,0,3.15-1.94,3.48-2.84c.33-.9.34-1.65,0-3.07-.34-1.42.11-1.57.56-3.22.45-1.65,1.42-3.74.9-4.79s-1.46-2.9-1.46-2.9"/>
    <path class="cls-2" d="m148.39,277.42s0,2.64-2.32,3.57-4.94,2.57-4.94,2.57"/>
    <path class="cls-2" d="m149.15,282.08s-2.03,2.15-5.25,3.65-4.71.67-5.69.67-2.13-.3-2.13-.3"/>
    <path class="cls-2" d="m145.77,279.37s-4.47-.3-6.28,0"/>
    <path class="cls-2" d="m129.83,258.19s-.3,7.86-1.12,10.4-2.92,12.95-3.89,14.97-2.47,10.7-2.84,12.35-.37,7.11-.75,8.53,0,2.54,0,2.54"/>
    <path class="cls-2" d="m128.26,305.04s-4.6,2.02-7.2,2.69-6.87.6-8.37.67"/>
    <path class="cls-2" d="m124.96,308.41s-2.62.75-5.84,1.5-5.24-.22-6.44-.37"/>
    <path class="cls-2" d="m143.9,222.27s-7.11,1.27-8.68,1.35-8.46-.97-10.4-.67-6.36.23-7.48,0-1.5,0-1.5,1.2-.07,4.49,0,5.54-.07,2.39,1.12,2.47,4.94,1.12,6.96,1.27,7.18,0,8.91,0,7.93-1.05,9.28-1.05,2.92-1.05,2.92-2.39c0-1.35-.22-2.62,0-4.27s0-2.62,0-2.62c0,0,.47-1.1-1.12-.82Z"/>
    <path class="cls-2" d="m143.7,231.92s.33,3.74,0,6.29-.7,11.08-.48,12.95.28,2.99.28,2.99c0,0,.25,1.57-.95,1.8s-3.37,1.57-6.44,1.95-6.29-.07-9.5-.82c-3.22-.75-4.79-1.87-6.36-2.25s-1.42-.9-1.57-1.87,0-6.88-.67-9.2,0-5.76,0-7.26c0-1.5.34-4.12.34-4.12"/>
    <path class="cls-2" d="m125.94,202.73s.3,8.24.52,12.06.81,8.16.81,8.16"/>
    <path class="cls-2" d="m143.3,259.54s-8.08,6.51-10.1,8.68-2.84,3.14-2.84,3.14"/>
    <path class="cls-2" d="m123.02,264.1s-2.25-4.57-4.19-6.59-2.84-3.52-2.84-3.52"/>
    <path class="cls-2" d="m118.83,305.04s-2.84-8.53-4.27-11-1.42-4.64-1.42-4.64"/>
    <path class="cls-2" d="m122.64,279.82s-6.06-.37-7.63-1.5-1.87-1.5-1.87-1.5"/>
    <path class="cls-2" d="m128.86,279.82s4.12-2.25,5.61-2.99,2.99-.37,2.99-.37"/>
    <path class="cls-2" d="m149.49,285.27s5.26,2.33,6.83,3.23c1.57.9,5.69,1.13,6.36,1.2s3.37,1.34,4.79,2.54,2.02,4.27.67,5.99c-1.35,1.72-2.39,2.92-5.91,3.59s-5.76.9-10.55,0-9.35-.24-11.82.59-4.94.83-7.11.38-3.77-2.94-3.77-2.94"/>
    <path class="cls-2" d="m130.35,295.91s1.5,1.87,3.44,2.25,5.16-.07,7.63,0,7.49-.67,9.43-.15,6.43,1.27,8.46,1.35,5.24-.45,6.51-.67,2.32-.45,2.32-.45"/>
    <path class="cls-2" d="m128.33,306.31s.3,2.99,2.55,5.69,5.19,6.44,8.62,8.38c3.43,1.95,5.53,3.82,7.02,5.54s2.1,4.57,1.35,5.84-2.92,4.94-5.99,5.54-8.08,1.57-11.52.37c-3.44-1.2-4.27-2.39-6.96-4.79-2.69-2.39-3.82-2.77-6.59-3.82-2.77-1.05-5.39-1.2-7.41-3.67-2.02-2.47-1.87-3.52-1.95-5.76s.45-4.42.97-6.51,1.73-4.71,1.73-4.71"/>
    <path class="cls-2" d="m107.98,314.17s-.22,4.49,2.32,6.59,7.71,5.76,10.18,6.81,3.74,2.39,5.69,3.59,4.55,2.47,8,3.29c3.45.82,5.78.52,8.47,0s4.15-.99,4.15-.99"/>
    <path class="cls-2" d="m144.76,289.4s-2.56,1.87-5.26,3.14-3.68.6-4.73-.82-1.1-2.68-1.1-2.68"/>
    <path class="cls-2" d="m119.5,314.71s-2.92,1.78-4.34,2.01-3.82.48-4.34-2.01-.09-4.52-.09-4.52"/>
    <path class="cls-2" d="m155.19,148.23s4.5.4,6.89.7c2.39.3,3.82,0,3.82,0"/>
    <line class="cls-2" x1="158.59" y1="159.48" x2="163.07" y2="159.21"/>
    <path class="cls-2" d="m168.59,148.65s2.99.61,5.54-.42,2.92-1.92,4.75-2.82,3.78-1.8,5.28-2.39,3.07-1.05,5.39-1.12,3.14-.15,3.82,0,1.5.6,1.5.6"/>
    <path class="cls-2" d="m186.63,143.47s2.25-.07,3.59,0,1.8.38,2.54-.03,2.47-.27,1.5,1.23c-.97,1.5-2.47,2.1-4.27,2.1s-4.16.45-4.16.45"/>
    <line class="cls-2" x1="174.88" y1="156.54" x2="188.21" y2="146.87"/>
    <path class="cls-2" d="m166.66,157.25s-.46-1.74-.76-4.65c-.3-2.92-.06-3.8.76-3.77s2.01-.34,1.94.63c0,0-.22,2.1,0,3.59.22,1.5.4,3.22.4,3.22"/>
    <path class="cls-2" d="m184.24,156.54s7.11-4.02,10.63-6.71,13.47-9.95,16.61-12.8,7.18-6.14,9.95-8.23c2.77-2.1,6.88-5.01,6.88-5.01,0,0,.37-.07.45,1.27s.07,2.77-.37,4.34-1.2,2.77-1.65,3.74-.67,2.17-1.57,2.39-14.67,9.88-15.94,10.55-25,15.64-25,15.64"/>
    <path class="cls-2" d="m194.55,143.23s.61-1.04,1.8-2.09,4.64-2.84,7.41-3.97,13.51-5.11,13.51-5.11"/>
  </g>
  <path class="cls-1" d="m118.15,56.28s.25,5.05.31,8.02c.06,2.98.03,5.1.37,7.47s.8,4.65,1.13,5.83.88,1.28.88,1.28c0,0,.07.68-.09,2.1s-.27,3.52-1.06,4.67-1.88,2.49-2.81,3.55-2.11,2.39-2.11,2.39c0,0-.81.05-1.85.7s-2.58,1.37-3.13,2.97-2.21,3.65-4.39,6.13-3.81,4.13-5.02,6.5-2.35,4.98-3.07,6.81-1.89,4.71-1.54,6.52,1.48,5.22,1.98,8.01c.5,2.79,2.15,16.85,2.15,16.85,0,0,1.1,9.69,1.37,11.65s.19,3.17.74,3.17.66.84.85,1.87,1.64,7.46,1.86,8.17.17.79-.12,1.42-1.25,2.32-1.5,3.74-.37,3.59-1.09,5.71-1.04,2.66-1.53,3.86-.67,2.04-.49,2.56.37,3.17.48,4.43.39,5.48,1.02,8.06,1.22,5.38,1.84,6.02.51,1.17.51,1.17c0,0-1.45,1.34-.5,2.45s2.27,2.29,3.14,3.5,1.91,3.59,2.63,4.98,1.9,3.39,2.13,4.12.44,1.64.44,1.64c0,0-2.12,1.62-2.39,2.38s-.55,1.44-.12,3.67,1.34,7.9,2.46,12.07,2.56,8.82,2.56,8.82c0,0,.25,1.79-.26,4.26s-1.52,5.7-1.53,7.91.3,3.79-.38,6.23-1.45,4.77-1.6,7.48.01,10.88.04,13.35.17,4.23-.18,6.45-1.21,5.52-.95,7.37.83,3.82.83,3.82c0,0-.83,1.78-1.22,3.04s-1.5,6.12-1.49,7.15-.34,4.32,1.49,6.2c1.83,1.88,3.2,2.75,5.54,3.5s5.28,1.59,7.1,3.08c1.82,1.49,4.35,4.57,6.98,5.54,2.63.98,4.93,1.7,8.53,1.14,3.61-.55,4.85-.28,6.32-1.35,1.47-1.07,2.01-1.73,3.63-3.63s1.35-3.69.73-5-1.88-3.11-3.42-4.34-5.42-3.49-6.88-4.76c-1.46-1.27-2.28-1.88-4.3-4.29s-3.4-3.91-3.95-5.41-1-3.22-.35-3.42.15-.43-.19-1.83-.33-2.06-.18-2.63.39-1.54.99-.89,2.07,2.3,4.2,2.43,3.24.3,5.54-.35,5.88-1.57,9.17-1.18,7.53,1.34,10.56.89,5.62-.57,7.07-1.91,3.18-2.61,2.89-4.5-.46-3.19-2.11-4.18-2.61-1.89-4.11-2.03-2.74-.34-4.33-.67-2.5-.83-4.2-1.63-4.67-2.14-4.67-2.14c0,0-.34-2.18-.34-2.68s.36-1.62.95-3.56.99-3.09.42-4.21-1.24-2.29-.76-3.1,1.29-2.14,1.59-4.52c.3-2.38.15-3.46.03-5.74-.12-2.28-.57-2.27.38-4.38.95-2.11,2.42-3.76,2.4-5.37-.02-1.61-.44-4.36-.99-6.73-.55-2.37-1-2.06,0-4.24,1-2.18,1.42-3.51,1.41-5.46s-.13-4.51.2-6.45c.33-1.93.72-5.76,1.38-8.21.66-2.45.04-2.47.33-4.74s1.14-5.11,1.38-6.55c.24-1.44.74-3.15.72-6.13s-.12-10.53-.12-10.53c0,0,.55-.77.62-1.45s-.09-1.42.29-2.47c.38-1.05.8-2.59.9-4.03s.33-2.89.54-4.16.13-2.31,0-3.83-.44-3.74-.44-3.74c0,0,1.82-.2,3.95.12s7.43,1.13,8.83.73,3.11-.89,5.15-2.19c2.04-1.3,3-1.81,3-1.81,0,0-.28-.67.42-1.42s1.2-1.69,1.16-2.15.33-.93.75-1.61,1.2-2.17.9-2.54.07-.61.07-.61c0,0,32.58-20.81,35.96-23.03s4.17-2.69,4.61-2.93.7-.59,1.46-2.14,1.84-3.11,2-5.08c.16-1.97.65-3.87.17-4.2s-.74-.16-2.5,1.11c-1.76,1.28-9.86,7.53-9.86,7.53,0,0-4.98,1.42-9.17,3.06s-8.01,3.09-9.78,4.51c-1.76,1.42-2.63,2.16-2.63,2.16,0,0-.6-.71-2.04-.69s-2.18-.13-4.08.13-4.1.81-6.14,1.74-3.95,1.74-5.12,2.58-2.6,1.9-3.98,2.19-3.6.04-4.9.2-2.76.42-3.86.42-5.95-.5-6.99-.59-2.56-.24-2.56-.24c0,0,1.04-2.62.97-5.48-.07-2.86-.59-9.19-1.58-13.96-.99-4.77-1.38-6.5-2.67-8.83s-4.38-7.5-6.64-10.69c-2.26-3.19-3.06-4.11-4.81-5.75s-2.69-2.58-2.69-2.58c0,0,.83-1.8,1.35-1.8s6.65.04,8.7-.8,6.44-3.05,7.59-6.25c1.16-3.19,1.6-4.59,1.89-8s.45-6.64.45-6.64c0,0,.95-1.35,1.55-2.4.6-1.05,1.05-2.6.32-2.49s-2.33.9-1.63-.03.66-1.25-.24-1.62-.26-.17.23-.95c.49-.78.92-1.26.89-3.6s-.02-5.15-.02-5.15c0,0,0-1.76.44-.81s.99,1.99,1.27,1.03.86-5.64-.31-9.21c-1.17-3.56-1.4-5.16-3.45-7.61s-3.04-3.8-5.22-5.18-4.12-2.9-8.17-3.41-8.36-.5-10.83.44-3.6.99-5.69,3.07-4.72,4.49-6.05,6.86-1.9,3.47-2.2,4.84-.5,5.03-.5,5.03Z"/>
</svg>