<?xml version="1.0" encoding="UTF-8"?>
<svg id="SKHLMC" xmlns="http://www.w3.org/2000/svg" viewBox="0 0 288.26 381.24">
  <defs>
    <style>
      .cls-1 {
        fill: #010101;
        stroke-width: 0px;
      }
    </style>
  </defs>
  <path class="cls-1" d="m114.59,295.9c-2.42-3.07-4.09-6.51-5.72-10-2.28-4.79-4.56-9.63-6.7-14.47-2.42-5.54-3.81-11.35-4.23-17.35-.19-2.56-.37-5.12-.33-7.68.09-3.02-.09-6.05.42-9.03.7-3.95,2.05-7.68,3.86-11.21,2.28-4.33,5.12-8.19,8.56-11.68,3.44-3.44,7.63-5.07,12.42-5.16h1.95c.05-.09.05-.19.09-.23-.42-.23-.88-.47-1.3-.7-3.12-1.44-6.47-2.19-9.86-2.65-7.3-1.02-14.14.6-20.7,3.63-4.09,1.91-8.09,4.05-12.14,6.09-.88.47-1.77.93-2.7,1.35-.28.14-.6.23-1.02.19.09-.09.19-.28.28-.33,3.44-1.81,6.89-3.68,10.37-5.44,4.56-2.33,9.21-4.33,14.24-5.49.05,0,.09-.09.33-.28-1.35,0-2.51-.05-3.68,0-6.28.28-12.51.93-18.66,2.28-4.28.93-8.42,2.23-12.14,4.56-2.93,1.86-5.35,4.23-7.26,7.16-.28.42-.47.93-.51,1.44-.88,7.21-1.67,14.38-2.56,21.59-.33,2.74-.84,5.44-1.12,8.19-.19,1.86-.23,3.81-.09,5.68.23,3.35.6,6.65,1.02,9.96.74,5.95,2.09,11.77,3.86,17.49,1.58,5.16,3.12,10.33,4.47,15.54.65,2.56.84,5.26,1.21,7.91,0,.09-.09.19-.14.37-.42-.23-.33-.65-.37-.98-.33-2.28-.47-4.61-1.02-6.84-1.12-4.51-2.51-8.93-3.77-13.4-.28-.93-.56-1.86-.93-3.02-.19.47-.28.65-.33.88-1.26,5.77-2.47,11.58-3.77,17.31-.42,1.81-.65,3.58-.42,5.4v.74c-.23-.28-.37-.42-.42-.51-.23-1.54-.19-3.02.14-4.56,1.44-6.51,2.88-13.07,4.28-19.59.09-.51.14-1.07,0-1.54-1.49-4.7-2.33-9.54-3.07-14.38,0-.14-.05-.28-.14-.65-.14.56-.28.93-.33,1.26-.93,5.68-1.95,11.35-2.84,17.03-.37,2.47-.51,4.93-.74,7.44-.51,4.98-1.35,9.86-2.47,14.7-.05.23-.19.42-.47.56,0-.28,0-.56.09-.84,1.26-5.4,2.14-10.89,2.61-16.38.65-8.37,2.23-16.56,3.77-24.8.19-.88.05-1.86-.05-2.79-.42-3.95-.79-7.91-.47-11.91.19-2.09.6-4.19.88-6.28.51-3.81,1.02-7.68,1.49-11.49.47-3.91.88-7.82,1.35-11.86-.51.42-.93.79-1.35,1.12-.6-.42-.42-.88-.33-1.3.23-1.07.51-2.19.88-3.21.37-1.12,0-2-.6-2.98-.47.42-.88.7-1.21,1.07-3.95,5.26-8.05,10.42-11.54,16-2.05,3.3-3.44,6.93-4.93,10.47-.09.28-.19.56-.19.88.19,6.23.79,12.37,2.84,18.33.23.6.47,1.16.74,1.77.05.14.19.23.37.56,3.49-13.58,7.4-26.84,11.63-40.01.33.42.09.79,0,1.16-1.16,3.91-2.37,7.82-3.54,11.72-2.93,9.96-5.86,19.91-8.23,30.01-.98,4.14-1.67,8.33-2.7,12.42-1.12,4.61-2.42,9.12-3.63,13.68-.19.7-.28,1.35-.19,2.09.56,4.14,1.21,8.23,2.42,12.24.05.09,0,.19,0,.37-.47.05-.47-.28-.51-.56-.6-2.7-1.21-5.35-1.77-8.05-.23-1.12-.37-2.23-.7-3.4-.42,1.35-.88,2.74-1.3,4.09-.42,1.35-.84,2.7-1.3,4.05-.47,1.35-.79,2.74-1.4,4-.09-.05-.19-.05-.33-.09.09-.37.19-.74.33-1.07,2.23-6.65,4.37-13.35,6.14-20.14,1.07-4.19,1.95-8.37,2.98-12.56.19-.79.05-1.4-.42-2.09-1.77-2.65-2.7-5.63-3.3-8.7-.51-2.65-.79-5.35-1.16-8.05,0-.09-.05-.19-.14-.51-.14.37-.28.56-.33.74-.98,5.02-2,10.05-2.84,15.12-.84,3.81-1.35,7.77-1.81,11.72-.33,2.74-.47,5.54-.6,8.33-.23,4.33-.33,8.7-.47,13.03-.05,1.07-.09,2.14-.14,3.21,0,.33-.09.65-.14,1.02h-.23c-.05-.14-.19-.28-.19-.47.05-1.02.09-2.09.14-3.12.09-2.7.19-5.35.28-8,.14-3.44.19-6.93.47-10.37.33-3.54.79-7.07,1.3-10.61.51-3.63,1.12-7.26,1.72-10.89,1.02-5.77,2.14-11.54,3.91-17.17,2.42-7.63,5.77-14.84,10.61-21.26,2.23-3.02,4.47-6.05,6.7-9.07.6-.84,1.35-1.54,2.05-2.37-1.02-1.21-2.28-1.21-3.63-.93-1.26.23-2.47.56-3.72.65-2.05.19-4-.19-5.72-1.4-.42-.28-.51-.56-.51-.98-.05-.84.09-1.67.65-2.28,1.58-1.67,3.12-3.4,4.75-4.98,1.49-1.44,3.4-2.09,5.54-1.95,2.42.14,4.79.33,7.21.51.28,0,.51.09.79.09.98.05,1.07-.05,1.4-1.02.79-2.33,1.58-4.65,2.37-6.98.79-2.28,1.86-4.37,3.12-6.42,1.02-1.67,1.95-3.44,2.42-5.35.09-.37.37-.74.7-.93.7-.42.84-.98.84-1.67-.05-.93-.14-1.81-.42-2.79-.33.05-.6.05-.79.19-.84.37-1.54.19-2.09-.51-1.07-1.21-2.23-2.33-3.12-3.63-3.07-4.61-5.86-9.35-8.7-14.1-1.4-2.37-2.7-4.79-3.86-7.3-1.95-4.14-3.02-8.51-3.4-13.07-.28-3.63-.47-7.26-.33-10.93.14-3.58.88-7.12,2.51-10.33,3.35-6.61,8.61-10.98,15.82-12.89,3.68-.98,7.44-1.3,11.26-1.58,3.12-.19,6.23-.19,9.35.05,4.47.33,8.98.74,13.21,2.37,1.95.74,3.86,1.58,5.44,2.98.98.84,1.91,1.81,2.56,3.02.33.65.47,1.4.19,2.05-.23.7-.05,1.16.42,1.58,1.16,1.12,2.33,2.19,3.44,3.3,1.02.98,2,2.05,2.79,3.26.93,1.4,1.91,2.74,2.74,4.14,1.16,1.86,2.33,3.72,3.35,5.63.37.65.42,1.49.47,2.28.05,1.21,0,2.37-.05,3.58-.05,1.02.37,1.91.74,2.74.19.37.6.6.88.93.28-.14.47-.28.65-.33.42-.19.7-.05.93.33,1.67,2.47,3.44,4.88,5.12,7.4.79,1.16,1.44,2.47.84,3.95-.09.19-.05.42-.05.65.09,1.35.23,2.74.37,4.09.05.37.09.74.05,1.12-.14,1.49.28,2.79,1.07,4.05.42.65.6,1.35.51,2.14-.14,1.44-.37,2.88-1.02,4.28-1.02,2.05-1.86,4.23-2.79,6.28-.28.56-.65,1.07-1.02,1.58-1.3,1.49-2.61,2.88-4.61,3.54-1.16.37-2.23,1.16-3.3,1.81-.51.28-1.02.47-1.63.6-2.33.42-4.28,1.49-6,3.35.37.19.65.33.93.42,2.09.7,3.95,1.81,5.63,3.3,1.26,1.12,2.74,2,4.05,3.12,3.26,2.74,6.51,5.54,9.72,8.33,1.86,1.67,4.09,2.7,6.33,3.68,1.26.56,2.56,1.02,3.81,1.58,1.58.7,3.21.74,4.79.09,1.02-.42,2.05-.88,2.98-1.54,9.03-6.42,17.82-13.17,26.42-20.14,2.56-2.09,5.12-4.19,7.72-6.23,2.51-1.95,4.7-4.19,6.75-6.61,5.58-6.56,12.1-11.96,19.73-15.96.56-.33.84-.65.79-1.3,0-.42.05-.84.05-1.21.05-.93.6-1.4,1.44-1.58.51-.09,1.02-.19,1.54-.19,4.05-.14,8.09-.23,12.14-.33,2.14-.05,4.33-.19,6.47-.19.7,0,1.16-.28,1.44-.93.37-.79.88-1.54,1.35-2.33.42-.7.98-1.16,1.91-1.02.65.09,1.3-.14,2-.14,1.67,0,2.79,1.4,2.42,3.02v.33c.09.09.23.28.42.37,1.21.84,1.67,2,1.58,3.44-.05.56-.14,1.12.28,1.54h1.91c1.86-.05,4.19,1.35,4.19,3.86,0,.28.09.6.09.88.05.98.28,1.77,1.16,2.47.84.65,1.44,1.67,2.19,2.51.56.65,1.16,1.26,1.63,1.95.37.56.74,1.16.88,1.77.37,1.72.37,3.4-.33,5.12-1.58,3.81-3.49,7.44-5.82,10.89-1.35,1.95-2.93,3.72-4.42,5.58-.65.84-1.26,1.77-1.58,2.79-1.07,3.12-1.95,6.28-2.47,9.58-.47,3.02-1.02,6.05-1.58,9.12-.51,2.65-1.02,5.3-1.58,7.96-.65,3.02-1.3,6-2,8.98-.37,1.54-.93,3.07-1.4,4.56-.88,2.7-1.67,5.4-2.65,8-.7,1.91-1.58,3.77-2.42,5.63-1.26,2.84-2.56,5.68-3.81,8.56-1.02,2.33-2.05,4.7-3.07,7.02-.88,1.95-1.81,3.91-2.7,5.86-1.35,3.02-3.81,4.88-6.7,6.23-.74.37-1.58.7-2.37.93-1.02.28-2.09.47-3.12.65-2.51.47-5.02.93-7.54,1.26-1.44.23-2.98.23-4.42.33-2.65.14-5.35.23-8,.47-2.19.19-4.37.14-6.56.14-2.51.05-4.98.05-7.44.05-2.98-.05-5.95-.14-8.89-.23-3.21-.09-6.37-.19-9.58-.23-1.26-.05-1.81.7-1.49,1.95.37,1.58.79,3.16,1.16,4.75.42,1.86.84,3.77,1.21,5.63.74,3.54,1.49,7.07,2.23,10.65.33,1.58.7,3.16,1.02,4.75.05.33.09.65.09.98,0,.56-.33.56-.65.42,0-.47.09-.93,0-1.35-1.81-8.47-3.68-16.93-5.49-25.4-.05-.23-.09-.42-.19-.7-.51.05-.7.42-.93.7-2.74,2.98-5.54,5.91-8.61,8.56-1.63,1.4-3.4,2.65-5.35,3.63-2.7,1.3-5.3,1.12-7.86-.33-.65-.37-1.35-.79-1.95-1.3-.47-.42-.98-.47-1.54-.42-3.07.33-6.09,1.02-8.93,2.23-1.16.47-2.33.98-3.54,1.4-.56.23-.88.6-1.12,1.12-1.12,2.23-2.28,4.42-3.44,6.61-.33.6-.74,1.12-1.16,1.63-.51.7-1.16.93-1.95.7-.98-.28-1.95-.65-2.98-.93-.14-.05-.28-.09-.56-.19-.98,1.35-2,2.7-3.12,4.19,0-.47.37-1.21,1.16-2.28.47-.65.98-1.3,1.4-1.91-.05-.7-.09-1.3-.14-1.95,0,0-.09-.05-.14-.05-1.12.65-2.37,1.02-3.63,1.35-.98.28-1.95.7-2.98,1.07-.19,1.77-1.58,2.56-2.61,3.68-.09-.05-.14-.09-.23-.14.09-.14.14-.33.28-.47.37-.37.7-.74,1.12-1.12.88-.79,1.02-1.72.88-2.84-.19-1.26-.28-2.51-.42-3.77-.09-1.12.14-2.23.56-3.26,1.07-2.65,2.61-5.02,4.33-7.26.05-.09.19-.09.42-.05-.09.23-.23.47-.37.65-.98,1.58-2,3.12-2.98,4.7-.33.51-.56,1.12-.84,1.72-.56,1.3-.88,2.61-.7,4,.14,1.21.28,2.42.47,3.68,1.02-.37,1.91-.84,2.84-1.02,2.19-.42,4-1.54,5.82-2.74,1.58-1.07,3.12-2.14,4.7-3.21.33-.33.6-.56.93-.84h0Zm-10.93-146.77c.65.14,1.3.28,1.95.37,4.79.93,9.63,1.3,14.38,2.61.05,0,.14-.05.28-.09-.28-.56-.51-1.12-.79-1.72-.42-.88-.37-1.07.51-1.63.79-.51,1.58-.93,2.42-1.44,1.95-1.21,3.07-3.07,4.14-5.07-1.02-.42-1.4-1.3-1.72-2.19-.51-1.4-.51-2.84-.37-4.28.14-1.63-.19-3.12-.98-4.51-.42-.7-.84-1.4-1.26-2.09-2.7-4.7-5.82-9.07-10-12.61-.47-.37-.88-.79-1.3-1.16-1.58.98-3.3,1.12-5.02,1.26-1.49.14-1.77.6-1.02,1.95.23.42.47.84.79,1.21.74.88,1.44,1.77,2.28,2.61.98.98,1.58,2.14,1.91,3.49.42,2,.47,4.05.42,6.09-.09,2.51-.14,4.98-.19,7.44,0,.98.09,1.95-.05,2.88-.14,1.26-.28,2.51-.6,3.72-.6,2.05-1.91,2.93-4.05,2.98-.65.05-1.21.14-1.72.19-.14-.05-.23-.19-.33-.28-1.21-.51-2.37-1.02-3.58-1.54-.7-.33-1.35-.65-2-.98-1.21-.6-2.51-.6-3.81-.23-2.19.6-4.09,1.77-5.77,3.26-1.4,1.21-2.19,2.79-2.56,4.61-.56,2.79-.56,5.58.14,8.28.51,2,1.3,3.95,2,5.91.65,1.81.47,2.42-.98,3.68-2.37,2.05-5.12,3.4-8.05,4.47-1.44.51-2.93.98-4.42,1.49.23,2.51.42,4.98.65,7.49,2.51.65,5.02,1.4,7.54,2,3.07.7,5.95,1.81,8.7,3.35,2.42,1.3,4.84,2.61,7.26,3.91,3.16,1.67,6.28,3.63,9.58,5.02,5.54,2.33,11.21,4.33,16.89,6.47-1.77-3.77-8.65-10.65-10.98-11.03.6,1.4,1.16,2.74,1.77,4.05-.28,0-.47-.09-.51-.23-.98-1.91-1.81-3.91-2.33-6-.37-1.63-.09-3.07.74-4.51,1.63-2.79,3.91-4.84,7.07-5.77.14-.05.23-.14.37-.19-.09-.93-.42-1.77-.93-2.51-1.54-2.33-3.07-4.61-4.65-6.93-.37-.56-.37-.74.14-1.26.37-.37.79-.74,1.26-1.16-1.02-.88-2.14-1.3-3.3-1.77-2.47-.98-4.98-2-7.44-3.02-.74-.33-1.49-.65-2-.88-1.02.47-1.86.98-2.74,1.16-2.7.6-5.21.05-7.26-1.91-2.88-2.74-4.51-6.19-5.35-9.96-.37-1.77-.19-3.49,1.26-4.84,1.12-1.02,2.42-1.58,3.86-1.86.84-.19,1.67-.09,2.47.42.28.19.6.33.93.37,2.19.28,4.28.6,6.37.93h0Zm44.29,73.92c-.33-.23-.42-.33-.56-.42-2.19-1.12-4.33-2.33-6.23-3.91-.37-.33-.79-.33-1.26-.19-2.23.65-4.51,1.26-6.75,1.91-5.91,1.77-11.77,3.72-17.31,6.51-4.61,2.33-9.07,4.84-13.44,7.54-.28.14-.56.28-.79.42-.05-.09-.09-.19-.14-.33,3.91-2.51,7.96-4.79,12.1-6.93,4.19-2.19,8.51-4.09,13.03-5.54,4.47-1.44,8.93-2.79,13.49-4.19-1.4-1.21-2.79-2.33-4.09-3.49-.56-.51-1.16-.79-1.91-.88-2.19-.28-4.33-.7-6.51-.84-1.95-.14-3.95-.09-5.91.14-2.33.28-4.61.84-6.93,1.26-.42.09-.84.09-1.26.19v-.23c6.75-1.86,13.54-2.56,20.52-.98-1.44-1.35-2.88-2.56-4.84-3.07-.05,0-.14-.05-.23-.05-2.79-.19-5.58-.37-8.33,0-3.4.51-6.47,1.72-8.98,4.09-4.75,4.37-8.28,9.63-10.79,15.54-1.49,3.49-2.51,7.12-2.61,10.89-.09,4.19-.05,8.42.14,12.61.23,5.68,1.44,11.21,3.58,16.47,2.74,6.79,5.91,13.4,9.26,19.91.93,1.77,2,3.49,3.07,5.16.65,1.02.84,1.02,1.95.65,1.44-.51,2.84-1.12,4.28-1.67,2.51-.98,4.93-2.09,7.63-2.51,3.21-.56,6.42-.93,9.58-1.35.19,0,.37.05.51.09v.23c-1.58.23-3.21.51-4.98.79,1.07.98,2.14,1.49,3.21,2,.51.23.98.19,1.49-.05,2.7-1.26,5.02-2.98,6.98-5.21,3.86-4.42,7.91-8.7,11.91-13.03,2.79-3.02,5.49-6.09,7.96-9.35.23-.28.37-.56.7-1.07-.51.19-.79.28-1.02.37-2.7,1.21-5.44,2.42-8.14,3.68-2.61,1.26-5.16,2.61-8,3.4-8.61,2.37-17.45,3.72-26.28,4.93-.14,0-.33-.05-.47-.05.09-.23.23-.33.42-.37.56-.09,1.12-.14,1.67-.23,6.84-.93,13.68-2.05,20.42-3.63,3.26-.74,6.47-1.67,9.49-3.16,3.91-1.91,7.91-3.63,11.86-5.4.51-.23.93-.56,1.26-1.02,1.4-2.23,2.88-4.42,4.19-6.75,2.37-4.19,4.28-8.56,5.21-13.35.51-2.56.6-5.07.09-7.63-.19-1.02-.65-1.58-1.72-1.86-3.77-1.07-7.54-2.23-11.3-3.35-.05,0-.14.05-.37.09-.05.05-.14.19-.28.33-3.77,4.23-7.77,8.23-12.05,11.91-4.75,4.09-9.86,7.68-15.63,10.23-4.09,1.77-8.19,3.58-12.33,5.21-3.86,1.54-7.82,2.84-11.77,4.19-.33.09-.7.42-1.12.14.05-.14.09-.23.14-.23.28-.09.56-.23.84-.33,6.42-2.09,12.7-4.42,18.89-7.07,4.7-2,9.35-4.09,13.58-6.98,6.56-4.47,12.28-9.86,17.63-15.68.6-.65,1.16-1.3,1.77-2-4.47-2.74-9.4-4.09-13.96-6.42-.88.84-1.72,1.63-2.61,2.37-.88.74-1.77,1.49-2.65,2.23-.88.7-1.81,1.4-2.74,2.09s-1.86,1.35-2.79,2c-.98.7-1.95,1.35-2.93,2.05-.93.65-1.91,1.3-2.84,1.95-.93.65-1.91,1.3-2.84,1.95-.93.6-1.81,1.35-2.88,1.81,0-.23,0-.33.05-.33.37-.28.7-.56,1.07-.79,5.12-3.58,10.23-7.16,15.31-10.84,1.72-1.3,3.4-2.93,5.3-4.61h0Zm11.72,54.8c2,.09,3.72.19,5.49.23,3.91.09,7.82.19,11.72.23,4.23,0,8.47,0,12.7-.09,4.42-.14,8.84-.42,13.26-.7,4.23-.28,8.42-.98,12.51-2.05,4.42-1.16,7.58-3.72,9.44-7.96,2.42-5.58,4.93-11.07,7.35-16.65,1.67-3.91,3.4-7.77,4.88-11.72,1.72-4.65,3.07-9.4,4.19-14.24,1.3-5.86,2.61-11.68,3.49-17.59.6-3.95,1.35-7.91,2.51-11.77.74-2.47,1.86-4.65,3.58-6.56,3.86-4.28,6.65-9.21,8.84-14.51.19-.47.37-.88.51-1.35.6-2,.28-3.81-1.07-5.44-1.16-1.35-2.28-2.74-3.4-4.14-.14-.19-.28-.37-.47-.47-.79-.37-.93-1.07-.98-1.86s-.14-1.54-.28-2.33c-.09-.42-.19-.93-.51-1.21-.93-.88-2.19-1.35-3.44-1.35-1.12,0-2.28.28-3.3.84-.51.28-1.07.51-1.63.65-1.21.33-1.86-.19-1.58-1.44.23-1.21.7-2.33,1.07-3.49.33-.93.74-1.86,1.07-2.79.42-1.26-.19-2.19-1.49-2.42-.56-.09-1.16-.14-1.77-.19-.93-.05-1.67.28-2.14,1.12-.88,1.67-1.86,3.3-2.56,5.07-1.26,3.12-1.95,6.37-2.47,9.72-.37,2.33-.6,4.65-1.12,6.93-.47,2.05-1.16,4-1.77,6-1.63,5.82-3.54,11.49-5.82,17.07-4.51,10.89-9.96,21.31-17.12,30.7-2.47,3.26-4.75,6.65-7.07,10-1.4,2.05-2.47,4.28-3.49,6.65,1.3,1.02,2.74,1.86,3.68,3.21-.19.05-.33,0-.42-.05-2.23-2.23-5.02-3.54-7.91-4.7-4.33-1.77-8.84-2.84-13.26-4.19-.14-.05-.28,0-.42,0,.19.84.42,1.58.47,2.33.28,6.98-1.26,13.49-5.12,19.4-3.81,5.82-7.96,11.3-12.37,16.65-1.21,1.4-2.42,2.79-3.81,4.42h0ZM51.69,132.15c.23,3.07.37,6.14.7,9.21.23,2.37.74,4.7,1.54,6.93,1.12,3.07,2.42,6.09,4.09,8.93,3.26,5.49,6.61,10.93,10,16.38.6.98,1.49,1.86,2.23,2.79.79.93,1.54,1.4,2.93.98,1.3-.37,2.65-.65,3.95-1.07,3.44-1.16,6.79-2.61,9.58-5.07.98-.88,1.16-1.26.7-2.51-.37-1.07-.84-2.14-1.26-3.21-1.44-3.86-1.81-7.82-.98-11.82.28-1.26.7-2.42,1.54-3.44,1.91-2.23,4.28-3.77,7.12-4.56,1.44-.42,2.88-.33,4.23.37.88.47,1.77.93,2.65,1.4,1.12.6,2.28,1.12,3.58,1.16,2.88.09,3.95-.7,4.7-3.07.14-.47.28-.93.28-1.44.09-1.4.14-2.84.19-4.23.05-2.28,0-4.61.14-6.93.14-2.05.09-4.09-.19-6.14-.23-1.77-.98-3.3-2.33-4.56-.98-.93-1.86-2.05-2.61-3.16-1.21-1.86-.65-2.74,1.54-2.98,1.21-.09,2.42-.33,3.58-.7,1.67-.56,2.05-1.77,1.07-3.21-.65-.93-1.4-1.81-2.28-2.61-2.56-2.23-5.77-3.21-8.98-4-3.58-.93-7.26-1.12-10.93-1.3-5.12-.23-10.19.05-15.21.88-3.58.56-7.02,1.58-10.14,3.54-4.88,3.12-8.37,7.26-10.1,12.89-.93,3.35-1.44,6.93-1.35,10.56h0Zm164.78,45.96c-.65-.05-1.21-.14-1.77-.05-1.3.19-2.61.51-3.91.74-1.81,1.44-3.95,2.51-5.58,4.14-.42.42-.84.74-1.21,1.12-2.19,2.23-4.65,4.05-7.35,5.58-3.35,1.91-5.95,4.56-8.14,7.68-1.26,1.77-2.47,3.54-3.68,5.3-1.07,1.54-2,3.16-3.12,4.7-1.44,2-3.12,3.91-4.56,5.91-3.63,5.16-8.42,8.98-13.54,12.51-.98.7-2,1.35-3.12,2.14.33.19.51.28.7.37,2.74.98,5.44,2.05,8.19,2.88,4.47,1.35,9.03,2.56,13.49,3.91,3.72,1.12,7.44,2.28,11.17,3.54,1.44.47,2.79,1.21,4.28,1.81.42-.88.84-1.72,1.26-2.61,2-4.05,4.75-7.63,7.35-11.3,2.56-3.58,5.26-7.02,7.58-10.75,7.4-11.86,12.98-24.56,16.79-38.01.05-.23.05-.47.09-.79-2.47-.19-4.79-.33-7.26-.51.09.37.09.6.19.84.23.56,0,.93-.51,1.16-.23.09-.47.23-.7.33-.65.23-1.16.7-1.4,1.35-.28.74-.88,1.02-1.63,1.26-.37-.47-.74-.88-1.16-1.4-.98.93-1.63,2.19-3.26,2-.37-1.3.65-2.42.79-3.86h0Zm-1.63-15.91c.14-1.86.37-3.63.28-5.54-.6.28-1.07.51-1.54.74-3.49,1.91-6.75,4.19-9.77,6.79-3.21,2.74-6.37,5.49-8.98,8.84-1.72,2.19-3.72,4.14-5.95,5.86-1.95,1.54-3.91,3.12-5.82,4.7-8.61,6.98-17.35,13.77-26.33,20.33-1.72,1.26-3.54,2.42-5.35,3.68,1.4,2.05,2.74,4.19,3.26,6.75.47,2.47.7,4.93.37,7.44-.19-.09-.28-.23-.28-.33-.09-1.91-.14-3.77-.33-5.68-.28-2.88-1.63-5.4-3.26-7.72-.19-.28-.42-.47-.84-.42-.88.09-1.81.19-2.74.28,1.02,2,1.07,2.23.79,4.33-.05.19,0,.37-.05.56-.33,2.7-1.21,5.12-2.79,7.3-.14.23-.28.56-.65.37.05-.09.05-.19.05-.23.09-.19.23-.37.37-.56,1.91-2.74,2.7-5.77,2.7-9.03,0-1.26-.47-2.28-1.58-2.88-1.3-.7-2.61-1.44-4-1.91-2.47-.79-4.61-2.09-6.51-3.77-3.35-2.88-6.7-5.82-10.1-8.61-1.95-1.63-4.05-3.16-6.14-4.65-1.35-.98-2.93-1.54-4.56-1.91-1.49,1.77-2.33,3.63-1.77,5.91.19.74.47,1.26,1.16,1.67,3.21,2,6,4.51,8.23,7.58.93,1.3,1.95,2.56,2.88,3.86.42.6.93,1.02,1.54,1.44,1.3.93,3.02,1.3,3.77,2.88.05.05.14.09.19.09,2.61,1.58,4.88,3.68,7.21,5.63,2.05,1.72,4.09,3.44,6.42,4.79,4.79,2.84,10.05,4.65,15.17,6.89.37-.23.7-.42,1.02-.65,2.79-2,5.58-3.95,8.28-6.05,2-1.54,3.81-3.3,5.4-5.3.93-1.21,1.86-2.42,2.79-3.63,3.68-4.84,7.16-9.82,10.47-14.89,1.54-2.37,3.35-4.47,5.68-6.09,1.91-1.35,3.81-2.74,5.72-4.05,1.95-1.35,3.81-2.7,5.54-4.33.93-.88,1.91-1.63,2.84-2.51,2.23-2.05,4.93-2.65,7.82-2.7.33,0,.7,0,.98.09.56.19.74.56.56,1.12-.19.65-.47,1.26-.7,1.86-.09.23-.05.51-.09.93,1.16-.56,1.86-1.3,2.42-2.14.14-.23.23-.56.19-.84-.19-.79-.47-1.54-.74-2.37-.98-.09-1.91-.19-2.84-.28-1.49-.19-2.33-1.16-2.23-2.65.05-.88.19-1.77.28-2.65.09-.93.14-1.86.23-2.79-.05-.05-.14-.05-.23-.09-.42.51-.88,1.07-1.3,1.63-.42.51-.79,1.07-1.16,1.58-.09-.05-.19-.09-.23-.19.23-.42.47-.88.74-1.3.88-1.12,1.77-2.19,2.65-3.3.47-.6.88-1.21,1.26-1.86.47-.88.14-1.44-.79-1.63-.98-.19-1.81.05-2.65.56-3.16,2-6.28,4-8.93,6.61-.14.14-.33.14-.51.19-.09-.09-.14-.19-.23-.28.42-.33.84-.6,1.21-.98,2.56-2.42,5.54-4.23,8.51-6.09.88-.51,1.86-.7,3.02-.42h0Zm-97.56,7.82c.93-1.26,2.19-1.72,3.49-2.14.88-.33,1.72-.88,2.47-1.44.7-.51,1.3-1.21,1.95-1.81.74-.6.88-1.35.51-2.19-.37-.84-.74-1.72-1.21-2.51-1.35-2.37-2.7-4.7-4.09-7.12-2.42-.84-5.07-1.21-7.72-1.63-4.79-.74-9.58-1.58-14.42-2.37-.23-.05-.47-.05-.7-.05.05.65.74,1.02.42,1.91-.28-.51-.51-.93-.74-1.3-.7-1.07-1.63-1.77-2.98-1.58-1.4.23-2.74.74-3.81,1.72-1.44,1.26-1.58,2.88-1.21,4.61.6,2.84,1.91,5.4,3.54,7.77.42.65.98,1.21,1.54,1.77,1.91,1.81,4.14,2.37,6.7,1.95.98-.14,1.86-.56,2.56-1.26.84-.84.88-1.35.09-2.28-.33-.42-.7-.79-1.02-1.21-.09-.14-.19-.33-.28-.51.05-.05.14-.09.19-.14.74.74,1.49,1.49,2,2.42.14.23.05.65,0,.98-.05.23-.19.47-.28.74,2.7,1.3,5.35,2.61,8.14,3.54,1.77.47,3.35,1.07,4.88,2.14h0Zm-58.94,51.5c.09.05.19.09.28.14.28-.37.56-.79.84-1.16,1.07-1.44,2.05-2.93,3.21-4.28,3.44-3.95,7.96-6.33,12.93-7.77,8-2.37,16.24-3.16,24.56-3.44,2.56-.09,5.12-.05,7.72,0,3.63.05,7.21.28,10.7,1.21.19.05.37,0,.56,0-.98-.7-2-1.26-3.02-1.72-7.54-3.54-15.35-6.47-23.21-9.12-1.49-.51-3.07-.88-4.61-1.3-1.58-.47-3.21-.47-4.79-.56-3.02-.19-5.82.65-8.42,2.14-3.4,1.91-6.56,4.23-9.49,6.79-1.4,1.21-2.47,2.61-2.84,4.42-.65,3.35-1.81,6.51-2.88,9.72-.6,1.58-1.02,3.26-1.54,4.93h0Zm68.34-62.01c.65-.6,1.21-1.07,1.77-1.58,1.26-1.12,2.47-2.28,3.72-3.35.7-.6,1.49-1.12,1.4-2.19,0-.09.05-.23.09-.33.28-.47.19-.93-.05-1.4-.28-.51-.56-.98-.84-1.44-1.4-2-2.79-4.05-4.19-6.05-.33-.47-.65-.98-1.12-1.63-.47.74-.88,1.35-1.26,2-1.16,2.09-2.79,3.77-4.93,4.84-.33.19-.65.37-.98.56-.23.14-.47.37-.7.56.88,1.81,1.63,3.58,2.51,5.3.88,1.67,1.91,3.26,2.84,4.93.51.88.88,1.86,1.3,2.84.37.88.05,1.58-.6,2.23-.7.65-1.4,1.35-2.14,1.95-.6.51-1.21,1.12-1.95,1.26-2.28.51-3.86,2-5.35,3.58-.19.19-.37.42-.51.6.56.88,1.12,1.67,1.63,2.51.6.98,1.16,2,1.86,2.93,1.02,1.4,2.05,2.74,2.42,4.47,0,.05.09.09.28.23.42-.19.88-.37,1.3-.6,1.26-.65,2.47-1.35,3.72-2.05.79-.42,1.54-.88,2.28-1.44.56-.42.98-.98,1.54-1.58-1.21-1.4-2.37-2.61-3.44-3.95-1.07-1.3-2.74-1.91-3.72-3.3,3.07,1.54,5.12,4.19,7.35,6.79.37-.6.7-1.16,1.02-1.67,1.49-2.61,2.65-5.4,3.44-8.33.33-1.21.37-2.33-.56-3.44-2.84.88-5.68,1.72-8.7,2.05.51-.28,1.02-.47,1.58-.6,2.05-.56,4.09-1.07,6.14-1.63.28-.09.51-.23.79-.37-.14-.42-.33-.74-.42-1.12-.28-.98-.74-1.91-.42-2.93.42-1.4.05-2.7-.23-4.14-.37.28-.7.47-.98.74-1.54,1.35-3.02,2.74-4.56,4.09-.37.37-.6.74-1.35.65h0Zm105.51,15.63c.09-.23.19-.37.23-.56.56-2.28,1.3-4.51,1.67-6.79.56-3.44.93-6.93,1.86-10.28.37-1.35.79-2.7,1.26-4.14-1.44.05-2.79.09-4.14.19-4.19.28-8.37.56-12.56.74-1.21.05-1.67.33-1.95,1.77-.05.28-.05.51-.09.79-.28,3.49-.6,6.98-.88,10.42-.14,1.91-.33,3.77-.47,5.68-.09.98.05,1.12.98,1.21.65.05,1.35.09,2,.14,2.74.19,5.49.42,8.23.65,1.21.05,2.51.14,3.86.19h0Zm-93.97,118.07c.88.47,1.72.37,2.51.19,1.35-.33,2.61-.93,3.77-1.67,2.23-1.4,4.23-3.07,6.05-4.93,3.12-3.21,6.23-6.42,9.16-9.72,5.07-5.72,9.82-11.72,14.1-18.1,1.58-2.37,3.21-4.75,4.28-7.44,1.67-4.09,2.42-8.33,2.42-12.75,0-1.16,0-2.37-.6-3.49-.19-.33-.42-.7-.7-.79-.93-.42-1.91-.65-2.98-.74v.47c.7,2.51.65,5.07.23,7.63-.56,3.77-1.86,7.26-3.49,10.65-3.44,7.21-8.05,13.63-13.35,19.54-4.84,5.4-9.77,10.7-14.7,16.05-1.44,1.58-2.84,3.12-4.84,4.09-.6.28-1.21.65-1.86,1.02h0Zm-66.8-105.74c1.54,1.49,3.35,2.37,5.21,3.07,2.09.74,4.23,1.44,6.33,2.14.28.09.56.19.84.19,3.16.19,6.23.93,9.21,2,5.4,1.95,10.79,4,16.19,6,5.44,2,10.42,5.07,15.63,7.63.14.05.28.14.37.23,1.3.98,2.84.6,4.33.7-.51-.47-1.07-.84-1.63-1.16-1.86-1.12-3.68-2.28-5.72-3.02-1.95-.65-3.95-1.3-5.91-2-5.35-1.86-10.51-4.09-15.45-6.93-3.63-2.09-7.35-3.95-10.98-5.95-2.14-1.16-4.42-1.95-6.75-2.56-2.51-.6-5.02-1.3-7.54-2-.98-.28-1.95-.7-2.93-1.02-.37.93-.79,1.77-1.21,2.7h0Zm166.17-35.54c-1.16.05-2.23.14-3.35.14-5.07.19-10.1.33-15.12.51-.51,0-1.02,0-1.54.05-.93.14-1.54.79-1.63,1.72-.19,2.33-.42,4.65-.6,6.98-.05.51-.09,1.02.28,1.49.42.47.33,1.07.05,1.58-.33.56-.74,1.12-1.07,1.67-.19.33-.47.7-.47,1.07-.23,2.05-.47,4.14-.6,6.19-.09,1.26.6,1.95,1.81,2.09.79.09,1.63.14,2.42.19,2.47.14,4.88.28,7.35.42,2.23.14,4.42.28,6.7.42.05-.28.09-.51.14-.84-3.02-.23-5.91-.47-8.84-.65-1.72-.14-3.49-.23-5.21-.42-1.16-.09-1.4-.51-1.26-1.63.19-2.05.37-4.14.51-6.23.28-3.16.51-6.37.79-9.54.05-.6.14-1.26.33-1.86.28-.98.84-1.4,1.86-1.44,4.14-.23,8.33-.47,12.47-.7,1.4-.09,2.74-.14,4.09-.23.47-.05.93-.09.88-.98h0Zm-195.2,119.84c.23-.23.28-.28.33-.37.47-2.05.98-4.14,1.4-6.19.09-.37-.09-.79-.23-1.16-.51-1.35-1.16-2.65-1.58-4.05-1.4-4.56-1.95-9.3-2.23-14.05,0-.37.14-.79-.28-1.16-.09.19-.19.28-.23.42-.65,2.19-1.26,4.33-1.86,6.51-.09.37-.09.84-.05,1.21.19,2,.37,4,.65,5.95.47,3.49,1.26,6.93,2.7,10.19.42.93.88,1.77,1.4,2.7h0Zm28.84-83.83c-3.02,4.19-4.33,9.03-5.86,13.82.37-.19.65-.37.93-.6,3.07-2.51,6.28-4.88,9.86-6.61,1.54-.74,3.12-1.26,4.79-1.4.28-.05.51-.05.79-.09-3.58-1.67-7.54-2.37-10.51-5.12h0Zm-7.68,15.68c-1.63-.19-3.07-.37-4.56-.51-.19,0-.47.05-.65.14-1.86.93-3.72,1.77-5.58,2.79-1.4.74-2.19,2.14-3.02,3.54,2.28-.09,4.42-.19,6.61-.23,1.72-.05,3.44-.09,4.79,1.44.93-2.47.98-4.98,2.42-7.16h0Zm-18.05,8.75c.14.19.19.23.23.28.09.05.19.14.28.19,1.67.65,3.44.93,5.26.65,1.07-.19,2.09-.42,3.16-.7,1.12-.28,2.19-.19,3.07.56.74.65,1.4,1.49,2.09,2.28.05-.09.14-.28.23-.47.33-.93.6-1.81.93-2.74.37-1.12.09-1.77-.93-2.23-.98-.47-2-.51-3.07-.47-1.21.05-2.47.23-3.68.14-2.93-.19-5.21,1.21-7.58,2.51h0Zm62.2,90.72c1.07.37,2.09.79,3.16,1.12,1.07.33,1.91.09,2.56-.93,1.58-2.37,2.84-4.93,4.05-7.54.05-.05,0-.14-.05-.28-1.07.37-2.19.56-3.16,1.26-1.77,1.3-3.58,2.56-5.4,3.72-.93.6-1.3,1.35-1.16,2.65h0Zm-50.57-99.83c0-.09-.05-.19-.05-.23-.7,0-1.4.05-2.09,0-1.81-.09-3.4.51-4.75,1.63-.84.7-1.67,1.49-2.42,2.28-.93.98-1.77,2-2.61,3.02-.51.6-.6,1.3-.09,2.09,1.07-.56,2.09-1.07,3.12-1.58.51-.23.93-.56,1.21-1.12,1.16-2.19,2.84-3.77,5.12-4.79.6-.28,1.21-.56,1.81-.88.19-.14.47-.28.74-.42h0Zm190.64-47.08c-.05-1.02-.14-1.95-.19-2.88-.05-1.16-.79-1.72-1.81-2.14-.14.42-.28.74-.47,1.12.6.37.65.88.6,1.54-.09.98,0,2,0,3.16.65-.28,1.21-.51,1.86-.79h0Zm-27.08,24.56c.56-.6.37-1.4.6-2.09.37-.98-.47-1.54-.84-2.28-.05-.05-.19-.09-.28-.09-.51-.05-.98-.05-1.58-.09.37,1.3.7,2.51,1.02,3.68.19.42.47.84,1.07.88h0Zm24.66-23.54c.19-1.77.14-3.72-.28-4.42-.09.09-.14.23-.19.37-.33.93-.74,1.86-.98,2.84-.33,1.26.09,1.91,1.44,1.21h0Zm-24.1,19.07c-.05.09-.09.19-.14.28.37.51.7,1.02,1.07,1.54.28.37.6.6,1.02.33.23-.14.51-.42.56-.7.09-.42-.37-1.21-.7-1.26-.6-.09-1.21-.14-1.81-.19h0Zm-147.01,6.14c-.98.51-1.49,1.12-1.3,1.58.19.56.74.74,1.3.74v-2.33Z"/>
  <path class="cls-1" d="m44.71,306.56c.05-.84.09-1.67.19-2.51.56-4.7,1.02-9.44,1.72-14.14.42-3.02,1.21-5.95,1.77-8.98.93-4.84,1.86-9.72,2.7-14.56,1.3-7.68,2.51-15.4,3.72-23.07.19-1.07.33-2.14.47-3.21.05-.19.14-.37.37-.56,0,.33.05.7,0,1.02-.84,5.3-1.63,10.56-2.47,15.86-.98,6-1.95,12-3.07,18-.65,3.63-1.63,7.16-2.23,10.79-.7,3.91-1.21,7.86-1.72,11.77-.37,2.93-.65,5.91-.93,8.84-.05.23-.09.47-.14.7-.19.05-.28.05-.37.05h0Z"/>
  <path class="cls-1" d="m94.07,295.9c-2.7,3.81-5.54,7.54-7.68,11.72l-.28-.14c.09-.28.14-.6.33-.84.6-1.07,1.16-2.14,1.86-3.16,1.58-2.37,3.26-4.7,4.88-7.07.19-.23.42-.47.65-.7l.23.19h0Z"/>
  <path class="cls-1" d="m115.15,273.39c.28-.09.56-.19.84-.23,8.79-1.81,17.59-3.68,26.28-6,3.07-.79,6.09-1.67,9.07-2.7,6.42-2.19,12.05-5.77,17.03-10.37.23-.23.42-.65,1.07-.51-.33.37-.56.6-.84.88-5.3,4.98-11.4,8.7-18.33,10.93-6.42,2.05-12.98,3.63-19.54,5.12-4.7,1.07-9.44,2.05-14.14,3.07-.47.09-.88.14-1.35.23-.05-.19-.09-.28-.09-.42h0Z"/>
</svg>