<?xml version="1.0" encoding="UTF-8"?>
<svg id="Elderly" xmlns="http://www.w3.org/2000/svg" viewBox="0 0 288.26 381.24">
  <defs>
    <style>
      .cls-1 {
        stroke-width: .75px;
      }

      .cls-1, .cls-2 {
        fill: none;
        stroke: #1d1d1b;
        stroke-miterlimit: 10;
      }

      .cls-2 {
        stroke-width: .5px;
      }
    </style>
  </defs>
  <g>
    <path class="cls-2" d="m105.59,71.52s-.84.15-2.36.84-3.73,3.2-4.64,5.25-4.19,2.97-5.25,2.17-1.75-1.4-3.12-.19-.76-3.81-.38-6.93-.23-9.14,0-12.64,1.83-7.77,3.2-9.06,1.52-2.06,2.28-3.65,3.96-1.75,5.56-2.28,2.06-.3,3.58-1.68,6.47-2.44,6.47-2.44c0,0,3.65.23,6.32,2.36s3.96.91,5.86,2.13,2.66,2.21,4.34,3.81.53,3.43,3.2,5.25,4.19,4.64,5.33,6.93,1.9,5.79,1.52,7.77-.84.46-2.44,2.21-2.44,3.5-5.03,3.58-4.26-1.07-5.48-2.13-3.2-1.75-4.8-.61-2.51,3.2-3.73,4.19-2.28,1.07-3.43.15-1.45-2.36-1.6-3.27-.38-2.36-2.13-2.44-3.2.3-4.19,1.68-2.36,4.42-1.9,6.85.99,3.5,2.28,4.72,1.75,1.98,2.51,1.37c.45-.36.69-1.14.7-1.83"/>
    <path class="cls-2" d="m89.83,79.77s-.76,4.39-2.51,6.82-4.11,4.72-4.11,4.72"/>
    <path class="cls-2" d="m131.22,74.76s-.12,3.15-1.34,5.44c-1.22,2.28-2.21,2.82-2.66,3.58s-.99,1.89-.99,1.89"/>
    <path class="cls-2" d="m98.59,89.41s3.2,7.46,5.48,11.42c2.28,3.96,2.97,3.73,3.88,3.96s2.51.53,2.51.53"/>
    <line class="cls-2" x1="111" y1="73.27" x2="121.43" y2="86.44"/>
    <line class="cls-2" x1="106.67" y1="85.54" x2="111.76" y2="96.8"/>
    <path class="cls-2" d="m120.52,87.36l.52-1.42s.02-.43,1.62,0,2.21.52,2.89.12,1.98-.84,2.21.38.76,8.68,0,10.35-3.27,4.42-5.03,5.94-2.51,2.13-4.72,2.59-4.34-.3-5.63,0-2.36.61-1.9-1.22-.14-4.95-.11-5.94-.88-1.37.87-1.37,2.28.38,2.97.57.46,1.03,2.02-.57,2.48-2.51,2.93-4.87,1.37-4.57,1.37-4.57Z"/>
    <path class="cls-2" d="m107.18,104.6s.93,4.99,1.69,6.82,1.6,4.49,1.6,4.49"/>
    <path class="cls-2" d="m87.09,188.09c-.84-.08-4.87-1.98-7.54-3.2s-3.96-3.12-4.11-5.03-1.6-7.69-2.13-12.33-.76-14.24-1.68-17.82c-.91-3.58-2.89-14.39-3.27-19.87-.38-5.48,0-6.17,1.37-12.26s4.87-14.01,7.39-18.73c2.51-4.72,3.5-5.79,4.8-6.7s1.29-.84,4.19,0,4.49,2.66,7.61,4.64,5.79,5.25,5.79,5.25c0,0,7.08,8.6,8.53,10.89s6.24,7.54,6.24,7.54"/>
    <path class="cls-2" d="m104.91,188.85c-.76,0-4.19-1.68-8.6-2.59s-12.18-1.07-13.7-1.37"/>
    <path class="cls-2" d="m76.84,182.97s-.4,4.74-1.85,8.7-1.29,4.34-1.52,5.1-.3,1.14.99,2.89,8.38,5.63,14.16,7.31c5.79,1.68,7.08,2.06,17.44,1.6s16.98-4.11,19.87-5.1,3.73-3.27,3.96-5.63,1.9-5.33,2.51-8.45.76-6.01,0-7.77-.38-3.12-.08-4.57-.3-5.18-.3-5.18"/>
    <path class="cls-2" d="m103.12,195.47s8.64-1.6,17.32-8.15c8.68-6.55,11.11-8.83,11.11-8.83"/>
    <path class="cls-2" d="m123.26,189.99s3.88-1.83,6.32-3.01,3.33-2.09,3.33-2.09"/>
    <path class="cls-2" d="m68.22,128.32s1.59,6.69,8.29,12.98c6.7,6.29,13.7,10.32,15.84,11.39l2.13,1.07"/>
    <path class="cls-2" d="m77.12,132.2s7.16,10.35,10.89,14.01c3.73,3.65,4.34,4.42,5.79,6.24s4.34,7.23,5.03,7.84,1.45.84,2.28.84,2.36-.69,2.36-.69"/>
    <path class="cls-2" d="m87.09,95.6s-1.98,5.99,1.29,12.85,11.27,19.87,14.54,24.36,8.07,11.57,8.07,11.57"/>
    <path class="cls-2" d="m98.82,160.3s.92-.99,4.3-3.81c3.39-2.82,7.61-5.33,14.22-7.84s7.6-1.98,7.6-1.98c0,0,3.12,3.96,5.1,4.64s9.06,1.6,13.1,2.44,4.72,1.45,11.19,1.6,10.58.4,10.58.4"/>
    <path class="cls-2" d="m95.94,155.75s-.55-1.41,4.32-4.75c4.87-3.34,7.99-5.78,12.72-7.53s5.86-2.06,7.46-1.98,2.21,1.6,3.05,2.89,1.07,2.24,1.07,2.24"/>
    <path class="cls-2" d="m107.62,106.76s4.52,5.95,6.35,9.15c1.83,3.2,3.96,6.24,6.55,8.83s5.79,6.78,6.4,9.59c.61,2.82.53,5.41.76,8.45s.84,7.61.84,7.61"/>
    <path class="cls-2" d="m99.35,109.44s7.93,9.97,9.86,14.31c1.94,4.34,5.59,10.81,7.42,12.18s3.81,5.56,3.81,5.56"/>
    <path class="cls-2" d="m100.96,158.33s8.21,7.15,13.32,9.2,5.56,1.37,9.21,2.36,8.68,2.36,17.28,1.98,10.96-1.68,17.28-2.89c6.32-1.22,8.15-1.83,8.15-1.83"/>
    <path class="cls-2" d="m169,155.11s6.64-2.32,9.69-1.65,3.65,1.2,7.77,1.43,4.64,1.29,5.03,1.9.99,2.06-.69,2.82-2.89.69-2.89.69"/>
    <path class="cls-2" d="m186.61,164.56s1.45,0,2.89-.91,1.14-1.75,1.14-2.51-.37-1.31-.37-1.31"/>
    <path class="cls-2" d="m169.4,167.23s2.06,1.75,6.7,2.59,6.09.23,7.16-.38.76-1.37.76-1.37c0,0,1.22-.53,1.98-1.22s1.29-2.28,1.29-2.28"/>
    <path class="cls-2" d="m127.62,141.94s11.46.28,13.17,0,4.51-2.68,6.97-3.76,4.11-1.54,5.25-1.88,1.71-.57,1.71-.57"/>
    <path class="cls-2" d="m136.48,152.58s4.66-1.21,7.68-1.44,3.77.23,5.08,0,3.2-1.31,3.2-1.31"/>
    <path class="cls-2" d="m145.76,146.62s3.43.24,4.74-1.19,1.2-2.28,2.57-2.86,3.2-1.03,4.17-1.6,2.34-1.31,2.34-2.08-.34-1.8-1.08-1.57-3.25,1.03-4.4,1.14-2.91.23-4.11.43"/>
    <path class="cls-2" d="m164.19,155.71s.13-1.26,2.58-1.26c4.35,0,5.41,5.96,4.41,9.23-.83,2.73-2.22,5.74-5.67,5.05-1.14-.23-1.92-.91-1.92-.91"/>
    <path class="cls-2" d="m164.34,155.35s2.72-.32,4.09,1.85c2.12,3.36,1.82,8.93-2.61,10.07"/>
    <path class="cls-2" d="m149.43,146.13l-.93,1.24s-.86,1.54,0,.91,2.74,0,3.6.86,9.59,6.45,9.59,6.45"/>
    <path class="cls-2" d="m153.23,138.54s2.97-5.22,4.86-10.59,4.8-13.88,5.42-16.67,1.83-6.8,1.83-6.8c0,0-.11-1.26,1.03-.8s18.96,6.4,23.24,7.71,9.71,3.31,12.96,3.48,7.54-.29,10.56.57,6.4,2.51,6.4,2.51c0,0,1.14.11,0,.86s-9.94,7.14-11.93,9.54-8.91,12.11-11.31,15.82-7.66,10.97-7.66,10.97"/>
    <path class="cls-2" d="m97.21,157.87s-7.19,6.5-9.7,9.39c-2.51,2.89-5.24,6.21-6.16,7.12"/>
    <path class="cls-2" d="m80.43,152.58s2.63,2.16,7.08,1.87,6.97-.7,6.97-.7"/>
    <path class="cls-2" d="m87.45,125.46s13.7,8.49,16.59,8.89"/>
    <path class="cls-2" d="m73.85,198.79s-.16,7.09.52,9.95,1.48,10.18,2.51,15.77.57,16.56.91,21.81c.34,5.25,1.48,15.87,1.71,23.87.23,7.99,1.48,23.76,1.48,27.52s0,5.6,2.28,8.11,6.85,6.05,9.02,5.37,7.99-3.43,12.56-6.05,8.22-5.48,8.91-8.91c.69-3.43,4.45-18.39,5.48-23.76s2.63-29.58,3.08-33.69,3.2-19.19,3.2-22.27,2.82-14.63,2.82-14.63"/>
    <path class="cls-2" d="m108.64,208.75s-2.06,2.52-4.11,4.35-4.45,3.08-4.45,3.08"/>
    <path class="cls-2" d="m99.27,208.75s1.14,5.84.8,9.26c-.34,3.43-2.17,26.15-2.51,31.29-.34,5.14-.46,23.41-1.26,29.81-.8,6.4-4,22.84-3.88,25.58s-.69,6.6-.69,6.6"/>
    <path class="cls-2" d="m114.69,242.34c.46-.23,2.51-1.26,4.68-2.17s3.16-2.83,3.16-2.83"/>
    <path class="cls-2" d="m107.38,243.48s6.17,1.26,9.25,2.06,5.14,0,5.14,0"/>
    <path class="cls-2" d="m128.97,201.04s-.86,7.26-.6,18.56.78,27.41-.05,36.55-1.4,14.5-1.75,17.82-.69,5.14-2.86,6.74-4.91,2.4-6.85,2.4"/>
    <path class="cls-2" d="m85.86,308.26s-1.49,3.29-2.12,6.03-1.08,3.77-.74,5.2,1.31,3.25,3.94,4.23,6.4,1.31,8.74,1.6,4.97.57,8.17,1.94,4.8,2.97,10.16,2.63c5.37-.34,7.48-.69,10.22-3.37s3.54-4.34,3.31-6.51-.91-3.14-2.8-4.23-6.62-3.14-9.76-4.48-5.65-1.74-7.2-3.74-1.94-2.97-1.94-2.97"/>
    <path class="cls-2" d="m83.84,313.87s.24,3.16,2.64,4.53,8.91,3.71,12.22,4.91,9.42,2.97,14.1,2.97,8.49-.57,11.36-1.94,3.4-3.83,3.4-3.83"/>
    <path class="cls-2" d="m89.33,310.58s.23,3.7,3.26,3.87,4.91-2,6.05-2.28,1.14-1.03.91-2,.12-2.25.12-2.25"/>
    <path class="cls-2" d="m115.75,287.77l1.74,5.79s1.08,1.43,3.65.8,5.6-1.88,6.43-3.65.8-2.63.8-2.63c0,0,.94-.91,1.97-.97s1.08.74,2.34,2.17,1.83,3.14,4.17,3.94,5.37,1.2,7.88,1.54,5.31.8,6.4,1.31,2.06,1.37,1.88,4.34c-.17,2.97-1.37,4.68-3.83,6.74s-6.17,2.23-8.85,2.11-6.4-1.08-9.19-.91-4.63,1.77-7.2,2.85-7.32.8-7.32.8"/>
    <line class="cls-2" x1="126.11" y1="277.04" x2="128.37" y2="287.77"/>
    <path class="cls-2" d="m116.86,292.07s-.69,1.08-2,4.11-2.06,7.08-2.57,8.39-.91,2.34-.46,3.65,1,2.22,1,2.22"/>
    <path class="cls-2" d="m117.49,293.56s.97,4,2.63,5.6,6.23,1.26,7.45,0,1.45-3.03,3.05-3.6,3.31-1.26,2.68-2.57-2.97-5.88-2.97-5.88"/>
    <path class="cls-2" d="m112.81,302.81s1.6,3.6,4.05,3.82,9.24-1.14,11.5-1.54,3.51-.23,7.74.29,6.45,1.77,10.28-.06,5.71-3.14,6.62-4.91"/>
  </g>
  <g>
    <path class="cls-1" d="m90.74,55.44s-.86,3.39-.91,5.01.3,8.37.11,10.64-.6,4.68-.58,6.13.47,2.56.47,2.56c0,0,.05,1.28-.95,3.59s-1.59,3.51-3.15,5.24-2.87,2.3-4.38,3.98-3.77,5.03-5.53,8.81-4.22,8.5-5.55,14.06c-1.32,5.55-2.17,7.91-2.05,10.95s.31,6.43,1.05,10.88c.74,4.45,2.61,13.07,2.84,15.29s.63,12.83,1.21,15.86,1.82,9.23,2.02,10.64.65,2.82,1.07,3.35.39.98.28,1.74-.17,2.93-1.44,6.67c-1.27,3.74-2.29,7.11-1.93,7.39s.51,1.28.51,1.96.15,5.73.8,9.82,2.16,13.28,2.4,15.43.57,9.82.59,12.63.51,12.59.51,12.59c0,0,1.33,19.27,1.49,22.48s.73,11.67,1.04,17.54.19,8.13.38,9.74.39,3.43,1.83,4.96,2.98,2.89,2.98,2.89c0,0-1.36,2.78-2.12,6.03s-1.62,5.16.45,7.57,6.27,2.8,8.09,3.03,7.47.74,9.94,1.74,4.63,2.61,7.11,2.94,4.85.67,8.94-.1c4.08-.77,4.01-1.1,6.56-3.57s3.41-4.55,2.62-6.56-1.32-3-4.09-4.3-5.87-2.67-5.87-2.67c0,0-.67-.3.78-.34s3.99-.02,5.67-.83,4.34-2.41,5.77-2.63,3.52-.41,8.3.46,9.82-.22,12.32-2.91,2.88-3.81,2.7-5.89-.38-3.84-2.34-4.33-6.92-1.05-10.02-1.75-4.81-.99-5.75-2.07-1.91-2.9-3.12-3.93-1.17-1.26-2.3-.82l-1.13.44s-.6-2.19-1.13-5.02c-.52-2.83-1.04-5.28-1.04-5.28,0,0,.48-5.21,1.04-10.46.56-5.25,1.29-12.34,1.39-16,.1-3.66-.06-22.72-.06-22.72,0,0-.21-8.68-.21-12.85s.2-9.29.2-9.29l.35-4.59s.44-.45.84-2.76.58-3,1.29-5.04,1.62-4.47,1.74-6.89-.21-4.23-.51-5.59-.17-2.52-.02-3.93-.24-5.48-.24-5.48c0,0,4.55.06,7.28,0s6.72-.14,10.83-1.1,13.47-2.95,13.47-2.95c0,0,.66.6,2.61,1s3.2-1.59,3.2-1.59c0,0,3.08,2.18,6.7,2.59s5.56.74,6.69-.14,1.23-1.61,1.23-1.61c0,0,1.09.1,1.98-1.22s1.29-2.28,1.29-2.28c0,0,1.42-.24,2.21-.91s1.2-1.5,1.17-2.01-.4-1.81-.4-1.81c0,0,1.47-.36,1.54-1.18s-.26-2.32-1.14-2.76-2.03-.75-2.03-.75l7.18-10.23,7.3-10.56s3.55-5.37,5.64-7.17,10.34-8.06,10.34-8.06c0,0,1.63-.61.44-1.16s-5.34-2.7-8.28-2.88-6.55.08-8.68-.21-6.74-1.52-10.46-2.69-24.69-8.13-24.69-8.13c0,0-1.68-.95-2.08.42s-3.42,12.83-5.96,19.76-4.66,11.47-4.66,11.47c0,0-.28.09-2.28.74s-4.3,1.35-6.07,2.43-4.27,2.99-5.76,3.07-12.99-.02-12.99-.02c0,0-.08-4.35-.45-6.22s-.64-3.44-2.4-5.82-5.83-6.62-7.33-8.71-2.9-4.66-4.8-7.41-5.03-7.03-5.03-7.03l-.44-2.17s2.88.52,3.29.73,1.5.04,2.44,0,4.36.63,6.24-.29,5.12-3.13,6.86-5.69,2.2-3.33,2.14-6.14-.07-5.1-.31-6.14-.52-1.39-.79-1.41-1.3.95-.76-.12,2.49-3.45,3.04-4.4,1.27-2.29,1.53-3.73.67-2.76.67-2.76c0,0,1.19-.56,1.9-1.39s1.85-2.4,2.53-2.65,1.45-.66,1.53-1.46.19-2.52-.75-5.87c-.94-3.35-2.39-5.36-3.87-6.8s-3.1-2.31-3.6-3.35-.6-2.71-1.83-3.92-2.8-3.23-4.34-3.81-2.38-.16-3.96-1.02-1.73-1.49-3.75-2.25-2.35-1.32-3.63-1.22-1.98.15-3.71.77-1.97.57-3.6,1.67-2.42,1.38-4.86,2-3.37.41-3.99,1.54-.75,2.01-2.02,3.51-2.84,5.04-2.84,5.04Z"/>
    <path class="cls-1" d="m141.17,151.55l-4.69,1.03s8.01,1.59,10.3,2.01,8.46.76,11.14.86,3.37-.12,3.37-.12c0,0-.56-.35-2.16-1.4s-5.33-3.53-5.33-3.53l-1.35-.57s-.21.36-1.7.84-2.53.67-3.55.54-4.87.16-4.87.16l-1.15.19Z"/>
    <path class="cls-1" d="m115.75,288.19s-1.05,4.61-1.77,7.08-1.05,3.62-2.44,4.95-5.7,4.35-5.7,4.35c0,0,1.01,2.76,2.78,3.84s4.21,2.04,4.21,2.04c0,0-1.77-2.5-1.45-3.24s1.03-3.1,1.44-4.53,1.08-4.22,1.81-5.9,2.42-4.71,2.42-4.71l-1.29-3.88Z"/>
  </g>
</svg>