<?xml version="1.0" encoding="UTF-8"?>
<svg id="Kids" xmlns="http://www.w3.org/2000/svg" viewBox="0 0 288.26 381.24">
  <defs>
    <style>
      .cls-1 {
        stroke-width: .75px;
      }

      .cls-1, .cls-2 {
        fill: none;
        stroke: #1d1d1b;
        stroke-miterlimit: 10;
      }

      .cls-2 {
        stroke-width: .5px;
      }
    </style>
  </defs>
  <g>
    <path class="cls-2" d="m153.32,120.11c.45,2.81,3.1,9.95,4.13,12.14,1.03,2.2,2.45,2.84,5.04,4.59,2.58,1.75,5.55,2.91,6.85,3.42s4.78-.78,6.85-1.81c2.07-1.03,3.75-1.68,5.94-2.2,2.2-.52,3.1,1.16,4.39,2.33s1.42,3.49.78,5.43-2.71,3.49-3.75,4.13-1.42,1.81-1.81,2.58-1.03,3.88,1.16,6.2c2.2,2.33,3.75,3.36,6.85,5.04s5.94,2.45,7.23,3.62,3.36,4.52,5.94,6.98c2.58,2.45,7.49,8.4,8.91,9.69s.13-2.71-1.29-5.43-3.62-6.98-5.43-10.33-.9-8.27-1.42-12.14.39-10.72-1.81-14.08c-2.2-3.36-3.36-13.43-4.39-19.89-1.03-6.46-6.85-13.05-9.3-14.47s-5.94-6.72-10.85-9.82c-4.91-3.1-10.85-5.94-19.12-4.52s-14.85,8.78-14.85,8.78c0,0-10.2,8.78-11.88,18.34-1.68,9.56-1.16,11.37,0,14.21,1.16,2.84,1.52,4.47,2.84,5.04.61.27-.47-2.76-.9-5.25s.43-9.64.43-9.64c0,0,1.29-1.89,1.29.78s-.34,7.23.6,9.82c.95,2.58,1.38,3.53,2.15,4.13s1.03,0,2.93-.09,3.01.17,2.33-1.46-2.41-7.32-2.58-10.68.26-4.39.78-3.62.26,4.91,1.21,7.75,2.07,6.16,2.84,7.17c.78,1.01,1.89,1.1,3.7,1.1s2.5.26,1.29-2.24c-1.21-2.5-3.27-8.96-3.27-11.45s.26-4.48.69-2.67,1.98,8.87,3.36,11.97,1.98,4.56,3.7,4.48,3.7.6,2.07-1.98c-1.64-2.58-2.93-8.09-3.96-11.45-1.03-3.36.07-6.18.34-4.48Z"/>
    <path class="cls-2" d="m177.69,141.64s-.43-2.5,1.12-2.41,3.53,1.12,4.22,2.41c.69,1.29.86,2.33-.78,2.67s-2.76,1.03-3.96,1.38-2.24-.26-1.12-1.12.52-2.93.52-2.93Z"/>
    <path class="cls-2" d="m175.8,147.67s-1.21,2.76.43,2.93,3.4-1.6,4.82-1.46,1.95-.54,1.95-.54"/>
    <line class="cls-2" x1="172.92" y1="139.8" x2="160.64" y2="151.55"/>
    <line class="cls-2" x1="177.09" y1="150.61" x2="170.03" y2="159.21"/>
    <path class="cls-2" d="m133.16,136.84s1.13,4.37,2.08,5.32,1.12,0,1.29,1.89c.17,1.89.6,2.33.6,2.33"/>
    <path class="cls-2" d="m136.7,139.23s2.76,3.27,2.93,5.34c.17,2.07-.78,4.57-.78,4.57"/>
    <path class="cls-2" d="m136.7,145.67s-.26,2.77,0,4.41c.26,1.64.69,6.03.43,7.58-.26,1.55.02,3.25,1.04,5.03s5.76,5.74,7.91,7.03c2.15,1.29,3.79,2.41,9.64,1.12,5.86-1.29,11.11-2.41,13.18-3.88s3.62-3.96,4.65-5.51,1.29-2.33,0-2.24-2.5-1.38-4.05.43c-1.55,1.81-2.84,3.96-4.22,4.65s-2.24,1.03-2.5-.43c-.26-1.46-1.21-5.51-1.55-8.44s-.26-4.63-1.29-4.81-10.76.1-14.21,0-6.95.16-7.57-.53-1.04-5.2-1.47-4.41Z"/>
    <path class="cls-2" d="m138.18,151.29s1.11,4.31.42,5.77c-.69,1.46-.86,2.58-.86,2.58"/>
    <path class="cls-2" d="m139.65,163.95s12.12-.26,15.39-.43c3.27-.17,5.6-1.55,5.6-1.55"/>
    <path class="cls-2" d="m146.81,170.15s9.35-1.55,11.85-2.76c2.5-1.21,2.93-1.98,2.93-1.98"/>
    <path class="cls-2" d="m157.96,170.34s-1.54,2.3.62,4.19c2.15,1.89,3.66,2.93,8.2,1.46s12.89-5.51,15.13-7.84c2.24-2.33,4.56-4.31,6.29-4.82s3.55-.39,3.55-.39"/>
    <path class="cls-2" d="m154.2,171.13s-4.69,4.7-7.39,8.23c-2.7,3.53-3.65,6.54-4.42,10.33-.78,3.79-1.38,9.04-2.07,12.66-.69,3.62-1.72,12.14-1.72,12.14"/>
    <path class="cls-2" d="m142.99,219.92s-1.64-9.64-1.81-11.8c-.17-2.15,0-3.7,0-3.7"/>
    <path class="cls-2" d="m222.77,290.1v-4.56s-1.5-7.66-1.93-11.02-1.12-4.65-4.13-6.8c-3.01-2.15-1.46-2.67-1.38-4.22.09-1.55.26-4.39-.26-5.77s.6-1.72,1.03-3.53-.17-4.39-1.29-6.98c-1.12-2.58-1.29-2.67.09-4.82s4.99-5.34,5.34-7.92-1.81-3.53-3.36-4.48.69-3.1,3.01-7.66,2.41-9.3,2.76-12.06c.34-2.76.09-5.68-2.24-10.76-2.33-5.08-7.96-17.3-7.96-17.3"/>
    <path class="cls-2" d="m134.03,288.81s-8.96-16.62-9.99-17.91-1.64-.86-1.64-.86c0,0-35.22,11.37-36.51,11.8s-.34.95-.34.95l3.96,7.32"/>
    <path class="cls-2" d="m145.49,264.7s-6.89,1.12-9.9,2.76c-3.01,1.64-1.03,2.62-2.5,2.51s-7.81,2.94-7.81,2.94"/>
    <path class="cls-2" d="m143.77,261.17s.69,5.43,2.41,6.37,3.62.69,3.27,1.89c-.34,1.21.52,3.53,1.55,5.6,1.03,2.07,1.38,2.33,2.58,2.15s6.54-1.55,8.27-1.55,8.44-.09,12.14.6,11.71,5.12,13.78,7.56c2.07,2.43,3.62,3.81,3.62,3.81"/>
    <path class="cls-2" d="m210.76,286.14c-.26-.86-5.08-4.05-8.44-4.56-3.36-.52-6.98-2.24-9.39-3.01s-8.53-4.18-8.53-4.18"/>
    <path class="cls-2" d="m194.14,277.45s-9.04-3.01-11.63-3.62-7.84-.02-14.38-.92-13.43-2.79-15.93-5.29-5.08-4.22-7.32-5.86-3.7-4.65-5.43-5.94-.78-5.34-.86-7.66,2.51-8.87,2.51-8.87"/>
    <path class="cls-2" d="m197.75,166.4s-4.21.09-6.36,1.38c-2.15,1.29-8.87,5.55-14.3,9.95-5.43,4.39-11.37,5.41-14.21,4.77s-4.84-1.15-5.45-4,0-6.33,0-6.33"/>
    <path class="cls-2" d="m150.15,180.18s-1.47,5.3-2.64,8.78-.67,8.4-1.11,13.05-1.73,13.82-1.73,13.82"/>
    <path class="cls-2" d="m184.07,186.12s-8.88,15.5-9.48,21.06c-.6,5.55.05,8.78,1.34,11.11,1.29,2.33,1.52,2.97,1.52,2.97"/>
    <path class="cls-2" d="m194.14,166.4s6.2,7.2,8.53,10.29c2.33,3.1,3.62,12.66,3.62,12.66"/>
    <path class="cls-2" d="m176.32,212.99s4-11.37,7.75-14.98c3.75-3.62,10.98-9.17,15.5-9.3,4.52-.13,8.65.78,11.75,2.97,3.1,2.2,5.3,4.91,7.1,9.69,1.81,4.78,3.36,9.3,2.33,11.63-1.03,2.33-6.2,6.33-6.2,6.33"/>
    <path class="cls-2" d="m214.29,198.78s.13,18.99-.52,24.8c-.65,5.81-1.42,11.28-2.07,15.72s-.52,6.5-1.94,6.24-6.48-1.81-12.02-2.33c-5.55-.52-8-1.16-10.71-1.55s-4.65-1.25-5.55-2.37-2.33-10.42-2.84-13.26-1.19-11.54-1.19-11.54"/>
    <path class="cls-2" d="m118.45,211.68s0-1.92.52-2.44,1.55-1.12,2.24-2.41c.69-1.29,1.55-1.72,3.62-1.64s5.6,1.46,5.6,1.46c0,0,4.94,1.81,6.17,3.62s2.11,5.17,4.52,7.75,10.27,9.17,14.41,11.37c4.14,2.2,15.77,7.75,19.9,8.91s7.38,2.05,7.38,2.05"/>
    <path class="cls-2" d="m188.84,241.96s4.79,4.62,7.76,9.14"/>
    <path class="cls-2" d="m209.77,245.54s-2.71,13.78-5.94,19.16c-3.23,5.38-5.81,6.19-9.69,5.27-3.88-.92-20.02-8.41-27.13-13.06-7.1-4.65-19.12-13.05-24.03-16.15s-8.27-4.91-11.5-5.55-16.15-3.06-18.39-3.4-4.13-1.81-6.37-2.93-3.7-1.89-3.88-2.84c-.17-.95.09-1.21,1.81-1.21s4.74,1.98,6.98,2.84,5.08,1.46,5.08,1.46"/>
    <path class="cls-2" d="m122.84,212.17s-1.21-.95,1.64-.86,5.51,1.64,2.93,1.55c-2.58-.09-7.66-.87-10.85-1.56-3.19-.68-8.09-2.92-9.82-4.13s-3.02-1.03-3.92-.78c-.9.26-1.5,1.88.3,3.14,1.81,1.25,5.25,4.44,9.13,5.73s6.2,1.38,6.2,1.38"/>
    <path class="cls-2" d="m113.22,228.21s-8.38-5.36-10.96-6.96-3.7-1.68-3.96-3.14c-.26-1.46.09-2.33,1.03-2.28s2.41.3,4.48,1.59c2.07,1.29,3.01,1.72,4.48,2.84,1.46,1.12,7.84,3.88,7.84,3.88"/>
    <path class="cls-2" d="m107.58,212.85s-5.66-2.92-6.95-3.26-2.84.17-3.1.86,0,1.53,1.38,2.4c1.38.87,8.92,7.07,8.92,7.07"/>
    <path class="cls-2" d="m118.56,210.09s-21.17-17.9-22.33-18.42-1.81-1.29-3.23,0-17.7,15.5-19.25,16.79c-1.55,1.29-2.07,1.55-3.1,0-1.03-1.55-5.17-11.75-5.17-11.75,0,0-.13-1.42,1.68-.26s11.27,7.97,11.27,7.97"/>
    <path class="cls-2" d="m113.11,231.8l-5.29,3.66s-.1.9-2.03-.65-34.13-25.34-34.13-25.34"/>
    <path class="cls-2" d="m138.82,246.37s-21.41-6.08-25.03-7.07-8.27-3.44-10.2-4.09-8.4-4.52-9.3-5.94c-.9-1.42-2.27-4.71-2.27-4.71"/>
    <path class="cls-2" d="m180.03,233.87s5.85,1.97,9.34,1.59,12.66,1.55,15.11,2.2,7.23,1.64,7.23,1.64"/>
    <path class="cls-2" d="m146.4,104.61s4.28-3.1,11.03-1.16,12.69,6.85,14.62,11.88,2.7,13.16,7.16,17.05,6.4,5.29,6.4,5.29"/>
    <path class="cls-2" d="m189.19,106.61s3.66,10.92,1.6,17.12c-2.07,6.2-6.72,10.33-6.72,10.33"/>
    <path class="cls-2" d="m187.74,142.51s5.88,1.01,8.34,8.1c2.45,7.09,3.23,14.2,5.68,17.17,2.45,2.97,9.62,10.82,9.62,10.82"/>
  </g>
  <path class="cls-1" d="m89.51,290.1l-3.96-7.32-.33-.62s1.16-.49,1.86-.71,33.74-10.9,34.54-11.16,1.47-.75,2.24.38,1.43,2.24,1.43,2.24c0,0,4.59-2.07,5.65-2.42s2.52-.53,2.52-.53c0,0,.42-1.42,1.28-1.97s3.51-1.73,5.85-2.27,4-.87,4-.87l-.81-4.07s-.86-.98-2.02-2.42c-1.16-1.44-2.25-2.35-2.55-2.79s-.81-1.26-.78-2.71.41-6.5.41-6.5c0,0-4.6-1.31-7.68-2.18s-8.32-2.36-10.47-2.96-6.86-1.83-8.4-2.41-6.66-2.84-8-3.36-4.12-1.84-6.06-3.15-3.45-2.22-3.92-3.05-2.27-4.71-2.27-4.71l-20.37-15.08s-.59-.11-1.24-1.42-4.55-10.42-4.55-10.42c0,0-.93-1.49.31-1.63s12.26,8.41,12.26,8.41l13.95-12.19,1.59-1.26s1.34-.04,2.65.96,21.94,18.16,21.94,18.16c0,0,.11-.61.77-1.18s1.29-1.11,1.64-1.7.7-1.37,1.37-1.63,2.84-1.01,6.83.63c3.99,1.64,6.53,2.68,7.27,3.88s2.15,4.15,2.15,4.15l1.25-9.06,1.57-9.72s.58-4.44,1.19-6.77c.6-2.33,1.96-6.29,3.38-8.19,1.42-1.9,6.08-7.16,6.08-7.16l2.14-2.21s-1.66.32-2.78.27-1.78.21-3.33-.61-4.04-2.38-5.73-3.87-3.42-2.91-4-3.98-1.43-3.17-1.3-4.46c.13-1.29.2-2.82.08-4.27-.11-1.45-.33-3.49-.43-5.08-.1-1.59,0-3.47,0-3.47l-.35-2.7s-.72-.26-1.11-.82-1.51-3.37-1.51-3.37l-.57-1.95s-1.39-2.86-1.93-4.59-.98-4.03-.74-6.34.7-5.83,1.33-8.72c.63-2.89,2.98-6.95,4.43-8.88,1.45-1.93,4.78-5.97,7.72-8.59,2.94-2.62,6.92-5.84,9.9-6.85s6.28-1.96,9.28-1.68,6.66.95,8.96,2.07c2.3,1.12,5.19,2.38,7.54,4.52,2.35,2.13,3.72,3.56,5.15,5.04s2.4,2.39,3.39,3.09,2.79,2.25,3.9,3.68,3.3,3.78,4.3,7.01,1.61,7.22,2,9.7c.39,2.48,1.25,7.53,1.74,9.29.49,1.76,1.09,3.33,1.75,4.69s1.31,2.89,1.44,5.31.2,7.21.32,8.3.24,3.49.25,4.61c0,1.12-.03,4.69.53,6.21s2.04,4.29,3.59,7.28,2.95,5.51,3.45,6.84c.51,1.33,1.19,3.85,1.19,3.85l3.3,7.17s4.62,9.24,5.82,13.09,1.11,6.1.63,9.6-.52,5.42-1.7,7.95-2.31,4.53-2.31,4.53c0,0-1.13,1.72-1.73,3.02-.6,1.29-.47,1.49.83,2.35s2.86,1.67,2.73,3.15-.3,2.37-1.16,3.56c-.87,1.18-3.36,4.19-3.36,4.19,0,0-2.29,2.51-1.7,4,.59,1.5,2.17,4.73,2.16,6.63-.01,1.9.21,2.08-.42,3.26s-.89,1.77-.69,2.56.52,3.13.31,4.85c-.22,1.72-.98,3.17.07,4.08s3.69,2.31,4.38,4.17,1.44,6.63,1.9,9.13c.46,2.5,1.05,5.59,1.05,5.59v4.56"/>
</svg>