<?xml version="1.0" encoding="UTF-8"?>
<svg id="Elderly" xmlns="http://www.w3.org/2000/svg" viewBox="0 0 288.26 381.24">
  <defs>
    <style>
      .cls-1 {
        stroke-width: .75px;
      }

      .cls-1, .cls-2 {
        fill: none;
        stroke: #1d1d1b;
        stroke-miterlimit: 10;
      }

      .cls-2 {
        stroke-width: .5px;
      }
    </style>
  </defs>
  <g>
    <path class="cls-2" d="m116.22,75.34c-.73,1.83-.59,5.12.51,6.73s.95,2.2-.29,1.98-2.27,0-4.24,0-4.03,1.17-5.78.66-4.76,0-6.44-2.56-2.05-3.95-2.27-6.73c-.22-2.78.22-4.61.44-8.12.22-3.51,2.05-10.61,2.71-12.81.66-2.2,3.59-6.22,4.46-7.76s3.37-4.39,5.05-4.98,4.76-.44,6.59-.59,4.98-.22,6.44-.37,3.22.59,4.76,1.32c1.54.73,3.44,1.61,3.44,1.61,0,0,3.15.73,5.34,1.76s3.59,1.83,5.05,2.2.81,3.29,1.98,4.1,3.22,3.95,2.71,7.32c-.51,3.37-1.39,4.24-3.07,4.24s-4.24,1.72-4.83-.53c-.59-2.25-2.2-2.32-2.78-2.54s-2.42.26-3,2.54c-.59,2.29-1.76,5.36-3.37,8s-1.9,5.56-3.59,5.12-2.56-3.51-3.29-4.83-1.02-2.27-2.05-2.42-2.93.59-3.81,2.34c-.88,1.76-1.1,3.29-.29,6.07s3,5.56,3.59,6,1.39-.59,1.39-.59"/>
    <path class="cls-2" d="m120.75,81.65c1.88.31,1.76,2.98.15,3.19"/>
    <path class="cls-2" d="m119.23,82.06s.54.91,1.31,2.5,4.67,8.07,5.27,8.56.88.71.88.71"/>
    <path class="cls-2" d="m121.44,80.36s.23,1.25.17,1.7"/>
    <line class="cls-2" x1="121.99" y1="69.73" x2="130.82" y2="83.8"/>
    <path class="cls-2" d="m143.18,63.37s.63,3.24.68,4.29-.6,2.42-1.37,3.73-1.37,2.85-1.26,3.95l.11,1.1"/>
    <path class="cls-2" d="m108.8,84.66s-.39,6.1-1.16,8.41c-.77,2.31-1.43,3.29-1.43,3.29"/>
    <path class="cls-2" d="m125.69,102.4s.6-.99.99-1.59.44-1.7.44-1.7"/>
    <path class="cls-2" d="m133.76,78.91s4-1.39,5.76-2.15,1.92-.16,2.63.72,3.45,4.61,4.58,7.36,1.51,3.51,0,6.09-4.14,7.3-4.86,8.51-1.15,1.92-2.14,1.81-11.25-1.43-12.08-1.81-2.63-1.15-2.8-2.03-1.32-3.35,0-6.09,2.49-7.46,3.51-8.62c1.02-1.15,3.37-3.07,5.38-3.79Z"/>
    <path class="cls-2" d="m151.27,171.8s1.32,2.78,1.39,3.73,1.9,7.32,1.76,9.29.81,4.24.59,6.07c-.22,1.83-.73,3.15-2.78,5.12s-6.15,2.71-12.73,4.17c-6.59,1.46-16.25,2.34-19.03,2.07s-4.76-.61-7.1-.17-6.81,0-8.42-.95-2.05-1.46-1.76-3.15c.29-1.68.29-6.37.29-8.27s.51-4.46-1.39-8.42c-1.9-3.95-1.24-8.05-.73-10.76s-1.02-5.12-3.44-8.27c-2.42-3.15-2.27-10.1-2.42-13.61-.15-3.51-1.17-9.08-2.2-11.2-1.02-2.12-1.54-8.34-1.1-13.17s2.42-9.88,3.68-12.68c1.26-2.8,3.29-7.58,5.05-9.22s1.87-3.35,1.98-4.94c.11-1.59,1.26-.93,2.2-.82s2.14,0,2.14,0c0,0,3.07,1.54,3.68,1.54s.71-.44,1.37.22,2.69,1.98,4.56,1.92,5.47.74,6.69.94.72,1.42,1.82,1.42,1.65.16,1.76,1.04-.22,1.48,1.15,3.24c1.37,1.76,8.45,9.88,9.83,11.64,1.37,1.76,2.09,5.05,3.02,5.82s2.42,1.81,3.79,3.51c1.37,1.7.82,2.03,1.1,3.51s.71,2.2,1.37,3.07,1.37,2.2,1.32,2.74-.27-.16,1.87.38,4.67.82,5.54,2.03,1.54,4.56,1.43,6.04-1.65,3.84-2.85,5.38c-1.21,1.54-3.35,3.4-3.35,3.4"/>
    <path class="cls-2" d="m142.56,186.96s-.81-12.3-.81-13.39v-2.05"/>
    <path class="cls-2" d="m134.09,169.54s-2.8,1.65-4.34,2.74c-1.54,1.1-6.64,2.36-7.68,2.09s-.93-1.76-1.43-3.18-1.98-6.97-1.87-9.28c.11-2.31-.93-3.73-.93-3.73,0,0-2.09-.6-4.5-2.2s-6.97-5.1-9.83-8.4-7.63-10.26-8.95-12.02-1.87-2.8-1.87-2.8"/>
    <path class="cls-2" d="m156.7,140.88s12.09-2.69,13.9-2.96,4.45-1.76,4.45-1.76"/>
    <path class="cls-2" d="m178.12,134.95s6.75-2.91,8.01-3.24,1.59-1.59,3.68-2.47c2.09-.88,4.39-2.42,5.82-2.2s2.47,1.59,5.43,1.87,2.8-.11,3.4-.22,1.15.38.71,1.59-2.03,2.47-3.18,2.69-3.4-.66-4.06-.66-1.43,1.37-2.25,1.98-1.81.99-3.29,1.15-3.07.33-3.07.33"/>
    <path class="cls-2" d="m205.34,125.9s-2.68-.16-3.95-.44-2.31-.99-3.51-.66-2.25,2.25-2.25,2.25"/>
    <path class="cls-2" d="m161.92,153.45s9.28-4.34,11.8-5.82c2.53-1.48,3.29-1.92,3.29-1.92"/>
    <path class="cls-2" d="m180.15,144.18s4.67-2.91,5.43-3.02,1.32-.28,1.32-.28"/>
    <path class="cls-2" d="m121.58,174.08s1.64-.48,2.41-1.58-.54-1.59-1.2-2.14-2.75-.44-1.59-2.14,1.94-2.42,3.6-2.53,7.21.22,8.47-.82,2.14-3.35,3.07-4.72,5.36-3.13,6.22-4.01,2.78-1.15,3.82-1.54,1.76-.11,1.15-.77-4.83-1.54-6.37-3.07c-1.54-1.54-4.67-4.17-5.98-5.65"/>
    <path class="cls-2" d="m145.07,134.13c.27.16,2.85,4.56,3.18,7.96.33,3.4.6,12.19.6,12.19"/>
    <path class="cls-2" d="m147.44,154.36s6.09.47,9.77-.08,5.27-.82,8.34-1.15,10.76-1.1,13.28-1.87,5-2.25,7.47-2.85,6.26-1.98,8.07-3.02,4.22-1.54,6.12-2.86c1.9-1.32,3.05-1.65,3.87-1.65s1.87,1.92,2.85,1.38,1.7-2.26,4.23-1.38,3.84.5,5.1,2.09,1.59,3.13,1.04,3.84-1.59.33-1.76,1.65-.99,1.92-1.43,2.36-.33,1.1-.55,1.7-.99,1.41-.05,2.02.6,1.87-.38,2.7-1.98,1.26-3.13,1.7-1.26.44-2.69.38-3.73-.66-5.21-.93-3.46-.93-4.45-.88-2.58,1.21-4.23,1.48-3.79.22-7.14,1.65c-3.35,1.43-8.84,3.84-11.91,4.78-3.07.93-14.38,5.14-18.88,5.76-4.5.62-10.36.88-12.19.77s-4.78-.66-6.26-1.21-4.39-2.2-5.93-2.91-2.36-2.2-2.36-2.2"/>
    <path class="cls-2" d="m123.33,152.36s-7.36-5.16-11.58-11.03c-4.23-5.87-10.32-15.04-11.69-17.18l-1.37-2.14"/>
    <path class="cls-2" d="m103.3,100.76s3.02-.93,4.45-.33,5.9,3.4,11.48,4.45c5.59,1.04,6.47,1.15,6.47,1.15l.71.22"/>
    <path class="cls-2" d="m182.63,149.75l-2.76-4.64s8.34-5.21,9.83-6.15c1.48-.93,4.94-3.13,7.41-4.45s3.05-1.7,3.05-1.7"/>
    <path class="cls-2" d="m187.83,160.15s.33,1.09,0,2.08-.51,1.59.07,1.37,7.72-5.24,7.72-5.24"/>
    <path class="cls-2" d="m202.65,129.01s4.12-4.38,8.51-9.92,8.62-10.65,9.61-11.8.99-1.32,1.54-.99,10.92,8.12,10.92,8.12"/>
    <path class="cls-2" d="m216.13,142.53s16.87-19.38,19.56-21.96,3.24-3.13,3.07-4.94c-.16-1.81-.93-2.42-1.04-3.79s-.05-2.14-.05-2.14c0,0-1.37.99-2.91,2.85s-12.02,15.48-14.71,19.6c-2.69,4.12-5.72,9.47-5.72,9.47"/>
    <path class="cls-2" d="m180.57,146.28s-1.3.67-2.22.82-.99-.66-1.34-2.01c-.35-1.35-.93-3.44-1.26-5.38s-.51-3.93-.51-3.93c0,0-.11-.46.81-.68s1.5-.33,1.5-.33c0,0,.7-.48.77.7.07,1.17,1.17,7.73,1.83,9.47"/>
    <path class="cls-2" d="m117.13,156.3s1.43-2.03,4.83-3.95c3.4-1.92,11.03-5.16,12.13-6.2"/>
    <path class="cls-2" d="m125.61,153.58s.74,3.88,2.06,5.42,1.98,3.07,2.42,3.18"/>
    <path class="cls-2" d="m130.85,151.23s.44,1.84,1.65,3.05,2.85,2.31,3.07,3.07"/>
    <path class="cls-2" d="m149.3,142.53s2.2,1.65,3.62,2.58,2.2,2.01,2.2,2.01"/>
    <path class="cls-2" d="m148.57,147.12s2.7,1.5,3.63,2.62"/>
    <path class="cls-2" d="m102.75,111.57s7.3-1.54,12.1,1.76c4.8,3.29,13.48,13.83,16.77,16.58s3.07,6.03,3.95,8.62.42,5.66.42,5.66"/>
    <path class="cls-2" d="m101.43,114.1c0,.33-1.98,3.84-2.74,11.31-.77,7.47-1.43,10.76-1.43,10.76"/>
    <path class="cls-2" d="m113.86,156.3s1.41,15.54,1.96,19.6c.55,4.06.99,10.87.55,14.05-.44,3.18,1.32,11.42,1.32,11.42"/>
    <path class="cls-2" d="m97.92,159.11s2.85,2.96,6.7,5.05c3.84,2.09,5.82,2.74,5.82,2.74"/>
    <path class="cls-2" d="m104.56,200.92s.61,2.87,1.27,6.06c.66,3.18,1.32,4.28,1.87,6.92.55,2.63.77,5.6,2.31,7.9,1.54,2.31,1.32,5.27,1.65,7.25s.33,1.76,1.76,3.4l1.43,1.65"/>
    <path class="cls-2" d="m113.86,231.01s1.12,2.42.38,4.32c-.73,1.9-1.9,2.71-.88,5.34,1.02,2.63,2.78,6.73,2.42,9.81s-1.98,11.2-2.42,14.49c-.44,3.29-.29,8.78-.4,12.44-.11,3.66-.84,5.86-.62,8.12s-.73,8.12-1.46,10.69c-.73,2.56-.66,9.44-.73,13.91-.07,4.46-.81,6-1.54,7.68-.73,1.68-1.61,4.46-1.39,7.54.22,3.07.73,5.71,2.56,6.88,1.83,1.17,6.51,3.66,9.44,3.59s8.49,1.1,11.93.88c3.44-.22,7.83-1.24,9.44-2.85,1.61-1.61,1.24-2.78,1.76-5.56s2.87-21.66,3.3-26.71c.43-5.05,1.38-24.23,2.04-33.74.66-9.51.81-31.84,1.46-39.45.66-7.61,1.47-31.23,1.47-31.23"/>
    <path class="cls-2" d="m153.74,194.33s-3.41,35.14-4.95,40.71"/>
    <path class="cls-2" d="m123.02,202.32s-1.17,3.95-1.61,5.49"/>
    <path class="cls-2" d="m120.46,202.28s1.61,12.77,2.12,15.23,3.07,16.51,3.81,18.49,2.31,18,2.51,21.52-2.22,33.45-2,36.96c.22,3.51-1.21,22.47-2.22,26.27s-3.56,15.15-3.56,15.15"/>
    <path class="cls-2" d="m115.82,249.68s2,9,2.44,10.61,2.2,3.44,2.2,3.44"/>
    <path class="cls-2" d="m116.51,246.6s5.27,4.83,6.59,7.1c1.32,2.27,2.78,5.93.37,8.27-2.42,2.34-5.12,4.8-5.71,4.96s-.88,1.33-.88,1.33"/>
    <path class="cls-2" d="m118.81,261.54s-2.14,2.12-2.99,4.38c-.85,2.27-.91,4.61,0,8.64.91,4.03.26,9.44,0,12.22-.26,2.78,0,3.88,0,3.88"/>
    <path class="cls-2" d="m110.27,302.08s-1.6,1.1-2.62,4.4c-1.02,3.29-1.17,4.24-1.68,5.64-.51,1.39-1.24,2.49-.88,3.95.37,1.46,1.54,3.15,1.54,3.15"/>
    <path class="cls-2" d="m109.45,315.64s-.88-.02-1.81-1.63c-.93-1.61-1.19-3.37-1.19-3.37"/>
    <path class="cls-2" d="m144.41,312.68s4.01,1.33,5.26,3.53,2.05,4.39-.95,6.81c-3,2.42-6.05,3.22-6.05,3.22"/>
    <path class="cls-2" d="m143.05,323.38s3.54-.29,5.15-1.53c1.61-1.24,1.89-2.66,2.15-4.26"/>
    <path class="cls-2" d="m108.07,319.21s-1.64-.31-3.08,1.27c-1.44,1.58-2.32,3.42-2.83,5.76-.51,2.34-.95,2.7-1.61,4.02-.66,1.32-.73,3.81,0,5.64.73,1.83,3.22,3.37,6.63,4.68,3.4,1.32,5.6,1.83,6.69,1.76s1.68-1.16,3.22,0c1.54,1.16,3.59,4.31,8.34,5.78,4.76,1.46,10.03,1.46,13.98,1.1s6.44-2.71,7.68-4.46c1.24-1.76,1.39-4.03.88-5.49s-.95-3.22-3.29-4.17c-2.34-.95-3.41-2.08-3.41-2.08"/>
    <path class="cls-2" d="m101.71,327.91s-.27,4.32,2.14,5.79c2.42,1.46,4.46,2.49,7.98,3.44,3.51.95,5.42,2.27,7.47,3.81,2.05,1.54,4.68,4.32,11.49,5.2s11.56.15,13.54-1.1,2.56-2.78,2.93-3.59.73-2.2.73-2.2"/>
    <path class="cls-2" d="m108.39,318.34s1.24,2.4,4.32,2.77,3.88.73,4.83,1.17"/>
    <path class="cls-2" d="m137.73,313.5s-6.08,7.9-8.82,10.54-4.07,4.76-4.07,4.76"/>
    <path class="cls-2" d="m181.61,150.19s.9,6.12.73,8.18-.88,5.18-.99,6.5-.58,2.25-.78,1.21,0-2.89,0-2.89"/>
  </g>
  <g>
    <path class="cls-1" d="m99.87,58.12s-1.44,6.15-1.79,10.05c-.36,3.9-1.05,7.29,0,9.95s1.64,4.44,2.9,5.13,2.87,1.25,4.73,1.42,3.09,0,3.09,0c0,0-.04.74-.16,1.97s-.28,3.92-.75,5.5-1.68,4.56-1.68,4.56c0,0-.9-.1-1.77-.18s-1.44-.08-1.53.95,0,2.74-1.16,4.02-1.97,1.89-3.36,4.76c-1.39,2.88-4.27,8.49-5.15,12.62s-1.24,6.3-1.19,8.83.16,6.09.65,7.81,1.4,3.72,1.85,6.17,1.13,6.79,1.1,11.26c-.03,4.47,1.19,7.42,1.44,7.93s1.72,2.36,2.61,3.91,2.08,3.1,1.73,5.23-.78,4.54-.6,6.24.41,2.97,1.25,5.09,1.51,3.86,1.45,6.41.06,5.88-.17,8.22-.78,3.43.2,4.2,1.08,1.22,1.08,1.22c0,0,1.26,6.38,1.78,8.06s1.04,3.55,1.6,6.26.97,4.44,1.67,5.61,1.29,1.82,1.52,3.87.27,4.73.83,5.54,2.44,2.98,2.44,2.98c0,0,.03,1.06-.65,2.55s-1.32,1.92-.75,3.54,2.11,5.25,2.41,7.13.35,3.57-.15,6.48c-.5,2.92-2.1,11.5-2.19,14.05s-.14,10.76-.42,12.96-.43,2.56-.41,4.79-.55,7.33-.99,9.18-1.07,5.17-1.05,6.13,0,1.56,0,1.56c0,0-1.69,1.58-2.33,3.56s-1.03,3.54-1.5,5.01-1.45,3.92-1.35,5.42,1.54,3.15,1.54,3.15c0,0-1.07.16-2.2,1.94s-1.8,2.92-2.27,5.09-.84,2.47-1.32,3.47-1.39,2.64-.53,5.46,3.46,3.92,4.68,4.47,5.18,2.28,7.03,2.49c1.85.21,2.32,0,3.01-.15s1.48-.25,2.5.74,4.15,4.15,6.61,4.94c2.46.79,5.8,1.65,8.68,1.71s7.02.31,9.84-.97,4.43-3.16,4.9-4.41.95-3.26.42-4.71-.87-2.71-1.91-3.37c-1.04-.65-1.94-.9-3.01-1.59-1.07-.7-1.78-1.29-1.78-1.29,0,0,.48-.64.78-2.69s.61-4.09.61-4.09c0,0,.81-.2,1.78-.65s2.71-1.23,4.49-2.75,2.01-2.71,1.84-3.63-.1-2.17-1.36-3.38-3.08-2.37-3.84-2.68-1.17-.46-1.17-.46c0,0,1.26-10.97,1.42-13.58s1.38-23.73,1.38-23.73l.94-18.26.37-13.66.31-9.64s1.32-6.83,1.78-10.7c.46-3.86,1.8-15.91,1.8-15.91l.99-9.65.32-3.22s1.03-.54,1.15-2.64-.16-2.83-.31-4.73-.37-2.57-.3-3.93-.66-2.99-1.16-5.38-1.84-5.84-1.84-5.84c0,0,2.39-.2,4.5-.62s7.46-1.9,12.85-3.73,11.95-4.26,11.95-4.26c0,0-.31,3.36,0,3.34s.61-.25.85-1.97,1.23-2.24,1.23-2.24l5.18-2.16s.34.48.13,1.39-.84,2.07-.06,2.06,5.97-4.01,5.97-4.01c0,0,2.02-1.41,2.85-1.71s1.86-.36,3.76.07,6.21,1.51,7.61,1.39,4.2-1.31,5.32-2.1,1.06-2.13.64-2.48-.88-.84-.54-1.54.49-1.82.69-2.11,1.17-1.08,1.37-1.74.08-1.52.94-1.93,1.61-.62,1.32-1.72-.87-2.18-1.08-2.46-.61-.72-.61-.72c0,0,8.05-9.21,10.77-12.27,2.72-3.06,7.15-8.05,8.24-9.12s1.93-1.68,2.63-2.64,1.28-2.52,1.03-3.28-.77-1.82-.92-2.59-.21-2.58-.21-2.58c0,0,.12-.46-.42,0s-4.01,4.38-4.01,4.38l-10.63-7.92s-.45-.86-1.42.29-15.85,19.1-15.85,19.1c0,0-.54.06-2.24-.19s-2.68-.64-3.51-.81-1.82-.28-2.42.27-1.54,1.88-1.54,1.88c0,0-.44-.22-1.52.22s-2.61,1.2-3.77,1.74-2.16,1.24-2.79,1.78-1.13.75-2.73,1.39-6.69,2.77-6.69,2.77c0,0-.13-.29-1.1-.07s-1.81.58-1.77.9.5.08-.79.7-2.01,1.03-5.3,1.72-5.95,1.26-8.18,1.75-4.27.94-4.27.94c0,0,.07-.61-.59-1.2s-.18-.7-1.95-1.15-3.66-.98-4.35-1.04-1.11-.22-1.11-.22c0,0-.37-1.39-.93-2.18s-1.31-1.56-1.57-2.82-.01-1.85-.36-2.69-.7-1.56-1.71-2.54-2.26-2.02-2.63-2.31-1.29-1.84-1.78-3-.88-2.22-1.61-3.12-2.65-3.18-4.27-5.07-3.26-3.7-4.62-5.43-1.95-2.18-2.02-3.28-.13-1.93-.79-2.03-.9-.1-.31-1.04.71-.96.84-1.53-.23-1.02.74-.78,8.72,1.39,10.4,1.6,2.5.47,3.16-.57,2.61-4.49,3.99-6.9,2.52-3.82,2.52-4.74,0-1.84-.87-3.71-2.05-4.04-3.28-5.72-2.32-2.69-2.32-3.77.09-2.15.79-3.43,1.33-1.77,1.57-3.16.19-2.11,0-3.25-.38-2.16-.38-2.16c0,0,.18-.04,1-.36s.83.02,1.74-1.5.97-3.6.69-4.86-.59-2.55-1.29-3.52-1.86-1.99-2.01-2.55-.42-2.31-.7-2.64-1.28-.59-2.87-1.36-4.48-2.13-6.34-2.63-2.2-.26-3.39-1.21-3.84-1.96-5.09-2.09-4.46-.15-5.47,0-4.73.26-6.2.39-2.92.1-4.08,1.09-1.93,1.24-3.89,4.33-3.86,5.83-4.32,7.33-1.12,4.07-1.12,4.07Z"/>
    <path class="cls-1" d="m177.02,145.71s-6.55,3.65-8.84,4.76-4.76,2.28-4.76,2.28c0,0-1.34.78,0,.62s10.73-1.15,12.81-1.56,3.99-1.01,5.2-1.54l1.21-.53-2.06-3.46s-.51.32-1.26.55-1.53.36-1.72,0-.57-1.13-.57-1.13Z"/>
  </g>
</svg>