<?xml version="1.0" encoding="UTF-8"?>
<svg id="Church" xmlns="http://www.w3.org/2000/svg" viewBox="0 0 288.26 381.24">
  <defs>
    <style>
      .cls-1 {
        stroke-width: .75px;
      }

      .cls-1, .cls-2 {
        fill: none;
        stroke: #1d1d1b;
        stroke-miterlimit: 10;
      }

      .cls-2 {
        stroke-width: .5px;
      }
    </style>
  </defs>
  <g>
    <path class="cls-2" d="m104.61,98.53s1.19-.94,2.21-2.21,1.96-3.57,2.89-7.23.68-2.64.6-10.64,2.04-11.74,2.04-11.74c3.67-6.46,10.73-10.28,17.68-12.38,3.98-1.2,8.24-.18,12.06,1.12,2.73.93,4.85,2.91,6.63,5.11,3.76,4.65,5.59,9.64,5.92,15.62.17,3.04.08,4.87.08,4.87"/>
    <path class="cls-2" d="m152.51,66.72s-.64.54-1.34-.29-3.96-3.83-5.3-3.83-2.11,1.44-1.6,4.29-2.94,5.09-6.19,3.56c-3.26-1.53-6.89-1.75-9.96.5-3.06,2.25-6.83,5.44-9.06,8.44s-4.47,5.81-6.26,6.26-2.47.66-2.47.66"/>
    <path class="cls-2" d="m125.45,55.98s-1.22-.53-3.84-.27c-2.62.26-6.32,1.4-9.06,4.98-1.22,1.59-2.28,3.29-3.04,5.15-.81,2.01-.99,4.19-1.07,6.34-.06,1.62.12,3.65,1.9,4.27"/>
    <path class="cls-2" d="m107.04,96.03s5.38,3.78,8.26,5.89,7.72,6,10.02,8.68,4.49,6.83,6.11,8.81,2.51,2.3,2.51,2.3"/>
    <path class="cls-2" d="m140.19,111.49s-1.21,1.28-3.51,1.79c-2.3.51-3.51.38-4.6,1.15s-1.4,1.98-1.4,1.98"/>
    <path class="cls-2" d="m156.15,195.23s.57,2.49,0,4.6,0,2.87,0,4.28c0,1.4,1.09,2.68,2.49,6.19s.83,9.64.83,12.45-.96,3.83-.45,5.04-.26,3.51-1.53,7.91-3.96,7.15-6.57,9.38c-2.62,2.23-10.79,3.7-14.81,3.89-4.02.19-12.57.13-15.77-.57s-11.36-2.62-14.23-3.64c-2.87-1.02-9.7-5.55-11.43-7.15s-5.17-7.98-5.94-9.77-1.21-3.45-1.21-6.7-.26-6.45.06-8.55.89-3,1.47-4.6.77-2.49.83-3.57-1.34-3.13-2.17-4.47-1.4-2.17-.7-2.94.89-.57-.06-3.45-1.66-5.23-1.66-6.89-1.79-7.15-2.68-11.43c-.89-4.28-1.47-17.04-1.34-19.34s.77-7.91,1.15-12.32.7-7.53,1.4-10.79,1.98-11.11,3.26-13.98c1.28-2.87,4.98-7.6,7.09-9.64s4.28-4.79,5.17-5.74.57-2.11,1.28-2.49,1.53-.51,2.62-1.66,1.38-.77,3.45,0,9.51,5.11,12.38,6.7c2.87,1.6,6,4.3,7.75,6.53s3.87,3.87,4.62,4.45.53,1.09.85,2.36,2.55,4.02,2.55,4.02c0,0,6.57,8.68,8.39,13.02s3.61,6.38,5.46,13.4,2.3,10.47,3.13,14.11,1.53,5.81,1.53,5.81"/>
    <path class="cls-2" d="m126.66,121.34s7.34,7.74,8.78,12.34,3.39,13.11,4.76,17.79,2.72,10.21,2.72,10.21l.28,1.38s.25.83-.67.51-8.45-.19-12.03.38c-3.57.57-14.74,3.06-17.49,4.66s-2.81,2.62-3.96,2.11-4.72-7.47-6.77-11.36-6-10.09-7.85-13.91-2.74-9.57-.7-13.66,4.91-8.74,9.77-12,8.11-4.85,11.74-4.98,5.25.64,5.25.64"/>
    <path class="cls-2" d="m87.78,141.36s3.77,4.47,5.62,6.38,3.84,2.86,3.84,2.86"/>
    <path class="cls-2" d="m87.97,225.61s-.98,5.18-.72,6.28,1.02,3.66.72,5.62-.21,6.98.73,12.26,2.13,8.51,5.19,15.23,4.51,9.62,6.04,11.49,1.62,1.28,2.81.94,5.45-3.06,7.23-3.83,2.13-2.3,1.87-4.68-.6-6.98-1.45-10.47-2.64-9.28-3.06-10.81-.31-2.57-.31-2.57"/>
    <path class="cls-2" d="m158.96,230.36s.61,2.82.62,6.22.11,10.04-.62,15.49-1.16,6.38-1.07,12,1.45,16,2.13,20.51,2.47,14.3,2.89,22.04.26,10.89,0,14.81-.68,6.13-.68,6.13"/>
    <path class="cls-2" d="m112.78,327.55s-2.81-1.79-3.32-5.7-.43-5.02,0-8.17c.43-3.15.26-4.77-.77-8.43s-1.7-6.47-3.15-11.23-2.55-7.32-2.3-10.98,1.77-4.74,1.48-6.58"/>
    <path class="cls-2" d="m192.87,161.51s-13.11,5.19-18.55,5.96c-5.45.77-17.49,2.02-19.23,2.13s-5.87.9-7.57,1.26-2.04.02-2.3-1.09-2.07-6.23-2.07-6.23"/>
    <path class="cls-2" d="m200.61,175.89s-19.83,12-25.53,14.21-16.2,4.7-17.53,5.11-11.53,1.96-14.41,2.38-5.76,2.13-9.68.43-7.23-5.19-10.98-9.87-6.64-9.87-8.77-12.77-3.11-5.08-3.11-5.08"/>
    <path class="cls-2" d="m183.84,162.51s-4.52,2.11-8.59,3.74-5.38,1.78-5.38,1.78"/>
    <path class="cls-2" d="m189.59,151.83s1.09.38,2.94-.77,3.13-1.21,4.47-2.17,3-2.49,2.74-3.38-.45-1.28-2.62-.77c-2.17.51-4.28.64-7.21,1.56s-4.4,1.95-6.19,3.48-3.45,3.13-5.74,3.64-6.21,1.15-9.97,1.4c-3.75.26-9.56.89-12.95.51s-5.19-.73-5.19-.73"/>
    <polyline class="cls-2" points="185.41 164.28 182.95 161.51 193.63 150.47"/>
    <path class="cls-2" d="m213.27,151s3.06-.64,4.66-1.85,2.87-2.84,2.87-2.84c0,0,14.81-19.56,15.89-21.29s2.36-2.87,2.36-2.87c0,0,.19-.13-1.34.51s-3.7,1.53-4.72,1.98-1.72.13-3.19.19-1.59.96-3.63.77-4.47-1.4-5.81-1.66-4.02-.06-4.02-.06l-17.68,20.64"/>
    <path class="cls-2" d="m197.44,159.36s.89-1.91,3-4.47,3.32-4.15,6.83-5.62,5.68-2.23,7.21-2.97,1.91-1.19,3.06-1.79,1.98-.41,2.04.74-.15,1.89-.52,2.92"/>
    <path class="cls-2" d="m221.26,145.71s.69,1.53.95,2.99-.44,2.94-.47,4.34,1.11,3.19,1.43,4.72.38,2.3-.45,3.32-1.28,2.74-1.09,3.83-1.09,2.81-2.36,3.83-4.4,3.51-7.53,4.53-5.68.55-5.68.55"/>
    <path class="cls-2" d="m130.15,78.4s1.87-1.96,1.87-2.89-.81-2.26-2.6-2.09-2.51.3-3.15,2.09-.94,3.74.68,5.66,2.21,2.43,3.4,2.43,2.47-.13,1.66-.89-1.4-.55-1.02-1.62l.38-1.06"/>
    <path class="cls-2" d="m154.73,81.34s-11.27-5.36-14.03-6.6-3.4-1.74-5.62-1.57-2.81.41-2.81.41"/>
    <path class="cls-2" d="m154.4,82.45s-13.57-6.89-15.32-7.66-1.62-1.02-3.45-1.06-3.07.13-3.07.13"/>
    <path class="cls-2" d="m155.17,81.34s.81.81.68,1.11-.68.26-.68,1.15c0,.89-.02,2.17-.43,2.7s-1.27,2.11-1.74,2.92-1.79,1.36-1.19-.38,1.79-4.17,2.17-5.02.76-2.77.76-2.77l.43.3Z"/>
    <path class="cls-2" d="m145.98,89.34s-10.94-11.11-11.83-12.47-1.04-2.43-1.04-2.43c0,0-.89-1.13-1.98-1.7s-2.87-.45-3.83,0-3,1.4-2.74,4.72c.2,2.61.05,4.73,2.3,6.45,2.43,1.85,3.4,2.04,4.57,2.74s.85.89.85.89"/>
    <path class="cls-2" d="m129.23,85.51s2.88,4.85,4.71,7.49,3.83,6.47,3.83,6.47"/>
    <path class="cls-2" d="m151.67,89.34s-3.99-2-4.59-2h-.94s-.51,2.38-.51,3.57-.09,4.77-.72,5.96-1.05,2.64-2.4,2.6-3.31,0-4.03,0-1.28.38-1.28.38c0,0,.04,2.43,1.02,4.6s2.26,7.04,2.26,7.04c0,0,.68-.28,2.34-1.13s2.55-.98,3.36-.94,1.74.11,1.7-.56.26-2.2,1.06-2.16,2.09.26,2.43-.77.17-3.28.81-3.66,1.74-1.45,1.79-2.81.34-2.89.43-4.6-.69-3.7-.64-4.21,0-1.02,0-1.02l-1.14.03"/>
    <path class="cls-2" d="m202.66,163.68s-1.6-2.15-3.4-3.23-1.74-1.4-2.55-1.09-3.15,1.64-3.49,1.89-.47.55,0,.55,1.79.51,2.64,1.62,1.28,1.45,1.6,2.21.45.72.83.61,1.45-1.04,2.55-1.46,2.38-.89,1.83-1.11Z"/>
    <path class="cls-2" d="m202.66,163.68s2-.04,2.6,1.15,2.26,6.68,2.26,6.68c0,0,.38.64-.21,1.4s-1.74,1.57-3.15,2.17-2.3.68-3.19.68-1.49-.39-2.3-1.83-1.58-3.83-1.49-4.68.31-2.53,1.11-3"/>
    <path class="cls-2" d="m205.65,165.8s-.91-.8-1.93-.97-2.6.8-3.57,1.42-1.66.92-1.83,2.15-.26,1.64,0,2.59,1.11,3.11,1.74,3.63,1.22.96,1.84,1.1"/>
    <path class="cls-2" d="m148.02,240.15s-25.28,6.21-35.32,1.62-16.6-9.46-18.64-11.41"/>
    <path class="cls-2" d="m142.52,228.75s-19.69-14.3-23.09-17.02-4.94-5.79-4.94-5.79"/>
    <path class="cls-2" d="m107.51,220.32c-.34.26-8.43-7.66-11.15-9.19-2.72-1.53-6.59-5.6-6.59-5.6"/>
    <path class="cls-2" d="m106.49,190.36s-9.87-7.57-12.85-10.21c-2.98-2.64-7.4-5.87-7.4-5.87"/>
    <path class="cls-2" d="m142.43,159.78s-10.42-.65-16.97.71c-6.55,1.36-12.68,2.81-14.85,4.34s-3.57,3.27-3.57,3.27"/>
    <path class="cls-2" d="m138.72,145.98s-4.57-4.3-8.4-6.34-5.58-4.26-5.58-4.26"/>
    <path class="cls-2" d="m137.21,157.94s-10.64-6.62-15.4-7.95-5.87-3.2-8.34-4.48"/>
    <path class="cls-2" d="m121.72,158.96s-6.3-4.6-10.47-6.47-5.28-3.32-5.28-3.32"/>
    <path class="cls-2" d="m132.21,249.07s-1.92,4.63-4.09,5.59-.89.57-.89.57c0,0-3.13-2.81-4.02-4.21s-.81-2.31-.81-2.31"/>
    <path class="cls-2" d="m109.39,254.65s-4.81-.03-7.88.66-4.53,1.39-5.11,1.78-.7-.36-1.98-1.78-3.84-3.81-5.56-4.66"/>
    <path class="cls-2" d="m135.02,249.02s-3.89,5.64-6.06,7.55-2.43,2.55-2.3,3.7,1.79,12.26,2.04,16.18.19,6.28.19,6.28"/>
    <path class="cls-2" d="m126.63,282.43s-.61-9.19-1.63-15.13-1.09-9.06-2.17-11.3-2.3-3.89-3.06-4.98-.82-2.93-.82-2.93"/>
    <path class="cls-2" d="m148.36,283.58c0-.19-.26-1.4-.26-2.23s-.45-.57-1.91-.32-4.28,1.85-7.02,2.3-7.25-.26-9.89-.57c-2.64-.32-8.81-.45-13.02-1.53-4.21-1.09-4.4-1.47-6.13-1.28s-2.91-.13-2.12,1.28,1.68,4.72,3.4,6.83,1.21,3.13,3.13,3.51c1.91.38,7.53.57,10.79.45,3.26-.13,5.62.21,8.49.04,2.87-.17,4.72-.93,6.19-2.59s1.66-3.53,3.57-3.46,1.72-.56,2.62-.5,2.17.5,2.17.5v-2.41Z"/>
    <path class="cls-2" d="m146.84,285.58s2.41,8.65,3.75,15.1c1.34,6.45,1.91,10.02.57,12.57s-5.3,5.3-9.7,6.26-12.19.7-16.66,0c-4.47-.7-7.66-4.4-9.06-6.51s-3.45-8.04-4.21-12.57-2.43-16.66-2.43-16.66"/>
    <path class="cls-2" d="m135.02,291.92s1.34,7.34,1.4,10.03.45,6.45,1.47,9.45,1.99,8.38,1.99,8.38"/>
    <path class="cls-2" d="m120.78,292.09s1.39,11.15,2,14.72,1.76,8.87,1.89,9.89.65,2.88.65,2.88"/>
    <line class="cls-2" x1="131.83" y1="320.14" x2="132.4" y2="327.55"/>
    <line class="cls-2" x1="133.81" y1="320.14" x2="134.51" y2="327.55"/>
    <path class="cls-2" d="m144.59,285.94s2.04,9.06,2.81,13.14,2.23,10.98,1.66,12.89-4.34,3.64-8.62,4.4c-4.28.77-14.5.7-17.66-.38s-6.22-4.15-7.11-6.96-3.23-12.19-3.75-15.7-.9-5.79-.9-5.79"/>
    <path class="cls-2" d="m139.43,290.02s-13.41-.57-17.44-.57h-9.64"/>
  </g>
  <path class="cls-1" d="m112.78,327.55s-1.95-1.27-2.58-3.14-1.24-3.98-1.09-6.6c0,0,.67-4.19.56-6.46s-.31-3.61-1.18-6.85-1.91-7.18-2.94-10.48-2.61-6.76-2.33-9.74.4-3.61.89-4.99.62-2.83.62-2.83c0,0-1.8,1.29-2.73,1.23s-.97.33-2.07-1.2-3.39-5.72-4.79-8.76-1.8-3.74-2.91-6.46-2.1-5.29-2.53-6.98-.96-3.68-1.28-6.21-.65-5.76-.61-7.64.24-3.68,0-5.45-.91-2.65-.61-4.65.76-4.75.76-4.75c0,0-.38-2.26-.46-5.93s-.26-6.17.21-7.82,1.38-3.51,1.73-5.06.72-2.91-.68-5.16-2.25-3.81-2-4.22,1.11-.95.59-2.56-1.6-4.24-1.84-6.22-.24-2.85-.79-4.96-2.09-7.07-2.45-10.47-1.03-10.51-1.03-13.59.42-8.29.71-11.17.12-5.63,1.11-11.23,2.27-12.07,2.27-12.07c0,0,.97-5.62,2.86-8.39s5.02-6.33,7.47-9.13,3.72-3.69,4.09-4.83.43-1.66,1.16-2,1.56-.9,2.3-1.5,1.68-.85,2.64-1.91,1.78-1.56,2.69-4.45,1.84-5.01,1.84-7.43-.05-9.07-.05-9.07c0,0-1.48-.85-1.91-2s-.02-5.07.53-6.84,2.3-5.64,3.82-7.22,2.6-3,5.01-3.74,4.06-1.11,5.35-1.01,1.38.65,3.16-.02,4.82-2.35,8.33-1.84,7.42,1.51,9.92,2.86,4.38,3.92,5.5,5.68,2.35,3.63,3.04,5.88,1.46,4.89,1.56,7.98.09,4.69.51,5.17,1.32.3.68,1.11-.46,1.08-.72,2.34-1.07,2.55-1.37,3.08-1.49,1.55-.74,1.78.66.43.74,1,.66,2.54.64,3.69-.18,5.28-.64,6.09-1.83,1.62-1.97,2.63.04,3.63-1.4,3.63-1.96-.37-2.22.64-.23,2.12-1.11,2.1-2.02-.18-3.85.73-2.59,1.23-3.7,1.87-2.1,1.15-3.58,1.39-3.25.45-3.86,1-1.27,1.6-1.27,1.6c0,0,1.05,1.14,1.25,2.22s1.32,3.26,2.14,4.32,5.82,7.47,7.62,11.1,4.97,9.75,5.91,12.93,2.13,8.01,2.13,8.01c0,0,3.13.87,6.2.85s12.73-.63,14.91-.9,6.42-.31,8.55-1.67,3.35-2.84,5.53-4.18,4.44-2.54,7.81-3.15,6.08-1.37,6.08-1.37l12.02-14.03,5.38-6.28s3.26-.27,5.27.43,3.82,1.63,5.2,1.32,2.13-.85,3.49-.8,2.75-.22,4.56-.97,3.45-1.43,3.45-1.43c0,0,.64-.6-.77,1.42s-12.76,17.22-12.76,17.22l-3.52,4.65s1.31,2.07.99,3.99-.89,3.2-.17,5.04,1.71,4.47,1.17,5.41-1.55,2.5-1.66,4.14-.11,2.87-2.74,4.79-5.5,4.08-8.02,4.46-4.78.29-4.78.29c0,0-1.79,1.27-2.5,1.49s-1.11.33-2.03.45l-.92.13-12.86,7.56s-4.13,2.64-8.54,4.7-6.98,3.09-11.21,4.26-11.81,3.1-11.81,3.1c0,0,.85,1.89.07,3.76s-.35,4.78.03,5.75,3.23,5.98,3.24,10.41.03,5.8-.07,7.32-1.09,4.55-.45,5.04-.05,2.57-.05,2.57c0,0,.4,2.19.49,3.46s.29,10.31-.1,14.28c-.39,3.97-1.5,10.91-1.47,13.72s1.41,17.5,1.41,17.5c0,0,2.3,14.59,2.78,18.72s1.2,11.44,1.1,16.04-.94,13.49-.94,13.49"/>
</svg>