<?xml version="1.0" encoding="UTF-8"?>
<svg id="Church" xmlns="http://www.w3.org/2000/svg" viewBox="0 0 288.26 381.24">
  <defs>
    <style>
      .cls-1 {
        stroke-width: .75px;
      }

      .cls-1, .cls-2 {
        fill: none;
        stroke: #1d1d1b;
        stroke-miterlimit: 10;
      }

      .cls-2 {
        stroke-width: .5px;
      }
    </style>
  </defs>
  <g>
    <path class="cls-2" d="m138.83,71.9c.89-1.34,2.02-2.35,2.96-3.51,1.87-2.3,2.81-4.51,2.13-6.38s-4-8-7.4-8.85-12-5.7-16.26-5.28c-4.26.43-11.83,6.47-13.11,8.94s-1.45,3.91-1.19,6.98,1.19,5.79,1.19,5.79c0,0,1.96,2.04,1.62,5.53s-.77,4.6.34,6.13,2.81,2.98,3.74,3.57,1.36,1.28,1.36,1.28c0,0,.68-.34,1.19-.85s.51-2.81.51-5.45.6-3.66,1.28-4.17,2.3-3.66,4.43-4.34,4.94-.51,6.04.26,1.19.68,1.11-.68,2.72-3.06,4.51-5.87c1.5-2.36,1.5.68,1.97,6.29"/>
    <path class="cls-2" d="m135.33,72.27c.07.8.15,1.64.25,2.51.85,7.74,1.87,7.49,1.79,2.55-.03-1.88.33-3.29.89-4.44"/>
    <path class="cls-2" d="m106.79,68.36s-2.27-.05-1.59,1.83.19,2.47.73,3.4.97,1.53,1.91,1.53.97-.77.97-.77"/>
    <path class="cls-2" d="m105.2,70.19s-5.62,4.09-6.98,8-3.66,9.11-3.49,13.19-1.36,9.28-1.96,10.98-1.96,4.17-3.66,6.72-3.23,4.6-2.21,5.7.17,1.62.17,3.23,1.79,2.38,1.96,3.83,1.36,3.83,3.23,3.83,3.91-1.87,4.85-1.96,1.87-2.55,3.06-2.55-.17-1.7.6-4.94,1.19-4.51,2.89-6.55,3.39-8.68,5.14-10.72,2.18-4.43,3.37-6.47c1.19-2.04,1.53-3.91,0-5.45s-2.18-4.38-3.65-6.96-1.59-5.21-1.59-5.21"/>
    <path class="cls-2" d="m109.76,97.62s8.12-.69,10.29-.56,4.91,1.53,8.74,3.96c3.83,2.43,8.36,3.57,10.09,4.72s3.19,2.68,3.51,4.6,1.72,10.79,2.87,14.81c1.15,4.02,2.11,6.83,1.53,7.85s-3.06,2.49-3.06,2.49"/>
    <path class="cls-2" d="m128.92,111.29s-4.72,5.3-5.55,8.74-.13,6.57,1.15,9.83,1.72,5.3,1.91,6.51-.51,2.55.77,1.79,5.74-2.68,10.15-3.77c4.4-1.09,6.13-1.47,7.34-1.47s2.11.06,2.11.06"/>
    <path class="cls-2" d="m98,123.09s1.5,17.44,2.71,23.31,3.57,16.15,3.89,19.79-.38,2.94.45,4.4.83,3.96.45,5.94-.7,3.7,1.6,4.28,3.89.32,5.17-.57,2.43-.77,4.4-.7,10.6-.19,10.6-.19"/>
    <path class="cls-2" d="m128.16,179.21s12.38.19,15.19,0c2.81-.19,4.85-.45,5.62-.45s.38.28,2.04.27,3.51-.97,4.72-1.03,1.72-.32,1.02-1.72-1.28-5.17-2.3-7.85-2.43-5.81-2.43-5.81"/>
    <path class="cls-2" d="m146.79,133.31s.19,5.13-.49,7.09-2.21,4.68-1.45,5.62,3.06,3.49,3.23,5.02"/>
    <path class="cls-2" d="m134.79,166.25s-6.96,11.87-8.62,15.13-3.19,6-3.19,6"/>
    <path class="cls-2" d="m135.31,166.95s-6.64,10.91-8.55,14.55-3.06,6.32-3.06,6.32"/>
    <path class="cls-2" d="m108.43,181.05s-.13,3.52,0,5.37"/>
    <path class="cls-2" d="m122.41,205.76s2.3,1.72,3.13,2.55.32,3.26,1.02,3.26,2.85.77,2.67,1.85-.44,2.81.33,3.7.06,3.57.38,4.09,1.47,1.4,1.21,4.09-.44,4.72.04,6.77.42,3.45,0,4.91-.19,2.34.34,4.23.84,5.15.65,6.55-.14,2.17.06,3.38.06,2.04,0,3.77-.44,3.26-.44,4.21-.13,3.77-.32,5.36-.7,4.28-.7,4.28c-.26,2.87-.13,11.3-.77,17.74s-.64,11.74-.77,13.15.83,2.74,2.68,3.51,4.15,1.02,6.96.57,5.49-2.17,6.83-3.13.77-2.04.64-4.28.26-3.32.77-7.21,2.43-15.77,2.87-18.32,3.45-6.96,3.8-9.7.61-6.32,1.67-11.94.85-9.51,1.17-15c.32-5.49.64-20.17.45-25.09s-.45-14.68-1.47-18.51-1.82-12.11-1.82-12.11"/>
    <path class="cls-2" d="m130.53,276.45s-1.26,2.65-2.18,3.89-2.94,1.76-4.4,2.27-3.22.41-4.28.16-1.91-1.12-2.39-1.91,0-4.47,0-6.73.22-12.99.22-15.7.77-9.34,1.23-12.74.68-7.19,1.32-9.49,1.49-3.83,1.53-6.34-.94-9.45-1.4-11.49-.34-7.83-.77-8.77-.68-1.45-.68-1.45"/>
    <path class="cls-2" d="m126.19,211.02s5.52-2.28,9.65-4.96c4.13-2.68,7.83-5.45,9.15-6.51l1.32-1.06"/>
    <path class="cls-2" d="m129.56,217.12s4.57.3,7.68-2.21,9.74-8.81,9.74-8.81"/>
    <path class="cls-2" d="m136.25,222.02s4.91-3.66,6.31-4.51,3.23-3.36,3.74-4"/>
    <path class="cls-2" d="m109.58,186.82s3.36,1.23,4.47.55,1.87-1.28,2.51-.55,2.09.6,2.77.55,1.83-.34,2.51-.34,2.38.59,2.72,1.23.34,2.94.21,4.94-1.11,4.26-1.53,6.04-.83,5.4-.83,5.96-.83,2.17-1.38,2.64-2.17-.04-3.02,0-1.96-.3-2.77-.6-2.34-.38-3.66-.64-2-.26-2.72-.3-2.64-.34-4.34-.64-2.64-.85-2.81-1.57-.26-5.79-.21-9.06.49-5.11-.01-6.13.1-1.79,1.03-2.77,2.72-1.28,3.45-.81,3.19,1.34,3.62,1.49Z"/>
    <path class="cls-2" d="m129.35,297.33s2.75,2,6.24,2.3c3.49.3,6.6-.6,8.26-1.15s2.6-1.15,2.6-1.15"/>
    <path class="cls-2" d="m117.08,278.36s2.63,1.79,5.33,1.32,4.7-1.45,5.94-2.43,2.18-2.21,2.18-2.21"/>
    <path class="cls-2" d="m135.33,303.93l.21,4.34s2.6,2.68,3.87,3.06,3.91-.85,5.06-1.87,2.64-2.6,2.77-3.83,0-2.77,0-2.77l-1.03-2.73"/>
    <path class="cls-2" d="m135.33,305.38s-1.19.55-1.7,2.17c-.73,2.32-1.61,4.69-2,7.11-.34,2.13-.25,4.28-.34,6.43-.04.89,1,1.89,1.6,2.42.84.74,1.9,1.36,3.04,1.41,2.38.09,3.36.17,7.4-1.96,3.32-1.75,6.85-2.66,10.47-3.57,2.73-.69,5.48-1.66,7.73-3.4,1.81-1.4,3.55-3.01,4.64-5.05s2.08-4.97,1.47-7.3c-.51-1.92-1.41-3.6-3.55-3.86-1.76-.22-3.54,0-5.27.35s-3.56.46-5.35.74c-1.46.23-2.88,1.01-4.34.39s-2.38-1.46-2.68-1.49"/>
    <path class="cls-2" d="m131.43,316.43c.38.78.96,1.5,1.6,2.07,2.32,2.06,5.42,1.4,8.21,1.01,3.35-.47,6.69-1.09,9.96-1.95,1.51-.39,3-.84,4.48-1.33,3.77-1.27,7.47-3.23,9.5-6.79.21-.37.4-.75.55-1.15.76-1.91,1.3-4.4.29-6.32-.34-.63-.85-1.14-1.47-1.49-.68-.38-1.56-.79-1.56-.79"/>
    <path class="cls-2" d="m134.76,305.77s-.37,2.41.91,3.82,2.38,3.57,4.47,3.91,4.89-.85,6.72-2.94,2.51-4.54,2.15-6.61-1.14-3.35-1.14-3.35"/>
    <path class="cls-2" d="m122.41,282.94s.16,2.42.45,3.38.48,1.31.48,1.31c0,0,2.65.16,4.28-.77s2.5-1.57,2.5-1.57"/>
    <path class="cls-2" d="m121.77,282.98s-.16,1.55-1.09,2.89-1.4,1.95-1.47,3.45-.06,4.69-.29,6-.29,2.94-.35,4.12-.19,2.46,1.6,3.1,4.63.83,5.9.35,2.87-2.55,3.16-3.22"/>
    <path class="cls-2" d="m129.41,295.53c-.72,1.08-1.58,2.07-2.68,2.78-1.22.78-2.67.77-4.06.52-1.2-.22-2.05-.7-2.88-1.58-.54-.57-.97-1.15-.97-1.15"/>
    <path class="cls-2" d="m120.53,286.1s-.26,1.65,1.09,1.91,3.19.03,3.96.45,1.76.83,2.55.73,1.74-1.18,1.74-1.18"/>
    <path class="cls-2" d="m120.43,244.31h4.94c2.64,0,2.38-.6,3.83-.77"/>
    <path class="cls-2" d="m121.2,238.02s4-.17,5.79,0,3.15-.08,3.15-.08"/>
    <path class="cls-2" d="m128.86,227.8s-1.28.51-3.19,2.72-2.89,3.66-3.26,4.77"/>
    <path class="cls-2" d="m122.41,222.44c.74-.51,1.79-2.21,3.22-3.57s2.29-3.57,2.29-3.57"/>
    <path class="cls-2" d="m120.43,255.12s1.96-1.11,5.23-2.13c3.28-1.02,4.07-2.13,4.86-2.81"/>
    <path class="cls-2" d="m132.86,236.31s.99-2.55,3.39-2.64,4.7-.34,6.23,0"/>
    <path class="cls-2" d="m137.67,229.42s2.34-3.49,4.47-4.6,3.15-3.23,3.4-3.57"/>
    <path class="cls-2" d="m145.54,259.97s1.79-1.45,4.26-3.83,3.4-3.74,4.09-4.94"/>
    <path class="cls-2" d="m143.24,268.23s2.72-2.21,4.6-3.4,2.04-1.87,3.06-2.55"/>
    <path class="cls-2" d="m142.48,273.76s2.47-1.7,4.6-2.64,1.87-1.79,2.64-2.89"/>
    <path class="cls-2" d="m153.45,214.78s-2.47,13.53-5.19,17.96-5.79,8.17-7.4,10.81-4,4.94-5.87,6.64"/>
    <path class="cls-2" d="m147.32,178.87s-.34,4.88-.85,6.24-1.79,1.88-1.49,2.71.85,6.91,1.53,8.32,1.45,5.19,1.49,6.21.38,1.15,2.85.64,5.85-2.51,5.85-2.51"/>
    <path class="cls-2" d="m141.96,179.29s.28,4.09.65,4.98,2.21,2.8,2.37,3.55"/>
    <path class="cls-2" d="m113.5,179.65s4.63.88,6.29,1.01,5.45-1.26,5.45-1.26"/>
    <path class="cls-2" d="m130.09,179.29s.47,5.4,1.4,8.34,2.68,9.11,2.81,10.17-.3,2.51-.72,3.57-1.11,1.19-2.3,1.57-8.73.68-8.73.68"/>
    <path class="cls-2" d="m143.57,133.02s.82,6.38.82,9.16.22,8.52.26,9.16,1.19.3,2.32,0,4.19-.43,8.23-2.34,10.26-5.4,10.26-5.4"/>
    <path class="cls-2" d="m126.82,138.35s2.09,7.15,2.68,10.94,2.64,12.64,3.91,14.89,2.89,4.17,4.64,4.64,4.3-.85,7.32-2.57,7.87-4.32,10.21-5.51c2.34-1.19,7.02-5.49,11.23-8.43,4.21-2.94,7.79-5.57,10.43-8.68,2.64-3.11,5.53-5.87,6.47-7.11s.85-1.83,1.19-3.96.47-4.17.47-4.17"/>
    <path class="cls-2" d="m179.62,134.1s.98-1.41.98-2.81c0-.77-.49-1.98.07-2.65s2.11-.52,2.19.48c.09,1.06.55,3.57,0,4.6s-1.02,1.77-1.02,1.77"/>
    <path class="cls-2" d="m142.5,110.98s1.72-.84,2.96-.84,1.96.55,1.11,1.62-3.54,2.35-3.54,2.35"/>
    <path class="cls-2" d="m142.26,109.46s1.57-.43,2.09-.38.26.67,0,1.23"/>
    <path class="cls-2" d="m146.79,137.46s1.98-1.83,2.91-1.98,3.19,1.68,4.51,4.02,2.72,4.3,2.38,5.32-.71,3.83-.71,3.83"/>
    <path class="cls-2" d="m160.62,146.23s-.53-2.43.28-2.98,3.4-2,6.68-4.3c3.28-2.3,13-8.01,13-8.01"/>
    <path class="cls-2" d="m182.91,129.64s16.54-9.71,17.9-10.98.98-1.32.55-2-2.55-4.17-4.72-4.98-3.06-1.15-6.21-.94c-3.15.21-4.72.85-5.79.94s-2.94-.81-4.07-1.53-8.31-6.09-9.68-6.89-2.94-1.19-4.6-1.19-5.7,1.11-9.53,2.21-11.02,3.1-12.43,4.81"/>
    <path class="cls-2" d="m162.33,142.36s6.86,2.64,8.69,2.93,2.26-.51,4.09-2.17,4.5-4.6,5.46-5.83,1.44-1.7.8-2.3-1.54-.85-1.54-.85l-3.49-.68"/>
    <path class="cls-2" d="m163.62,141.57l6.6,1.77s1.66.1,2.64-.88,6.77-6.6,6.77-6.6c0,0,.77-.89-.51-1.11s-3.41-.89-3.41-.89"/>
    <path class="cls-2" d="m102.05,186.65s-1.45-2.42-1.71-4.98-.6-41.63-.6-41.63"/>
    <path class="cls-2" d="m100.3,144.04s.73,33.58.6,36.62,1.62,5.48,1.62,5.48"/>
    <path class="cls-2" d="m113.5,160.23s8.11.68,11.35,1.62,6.64,0,6.64,0"/>
    <path class="cls-2" d="m108.86,168.92s6.81-.18,10.13-1.97,5.96-1.06,7.49-.7"/>
    <path class="cls-2" d="m118.65,144.99s4.84,2.89,6.21,4.51,5.35,3.48,5.35,3.48"/>
    <path class="cls-2" d="m110.22,152.98s5.62,4.86,8.43,5.8,4.34,1.45,4.34,1.45"/>
    <path class="cls-2" d="m126.82,158.61s3.83,1.4,5.36,2.27"/>
    <path class="cls-2" d="m115.16,119.29s4.13,9.96,7.34,14.56,4.8,6.2,4.8,6.2"/>
    <path class="cls-2" d="m108.86,122.19s.34,14.98,1.36,19.23,3.57,7.74,5.96,9.02"/>
    <path class="cls-2" d="m118.63,73.83s.31,2.4,2.14,4.23,2.34,2,2.98,1.91.77-1.06.77-1.79"/>
    <line class="cls-2" x1="125" y1="70.88" x2="134.14" y2="77.8"/>
    <line class="cls-2" x1="123.41" y1="79.98" x2="129.13" y2="85.69"/>
    <path class="cls-2" d="m137.46,75.48c.6,0,1.18.05,1.61.15,1.45.34,2.7.57,2.7.57"/>
    <path class="cls-2" d="m143.75,75.93s.77,1.36,1.02,2.85.47,5.23.6,6.72-.51,1.57-1.22,3.91-1.16,3.28-3.12,4.77-3.23,2-4.68,2.21-4.55,1.74-5.41,1.7-1.14-1.66-1.61-3.62-1.96-7.28-2.17-8.13.43-.68,1.2-.68,4.33.17,5.48.21.89-1.02.89-1.02c0,0-.6-5.02-.6-6.04s-.55-3.19,0-3.19c.22,0,.81-.05,1.53-.1"/>
    <line class="cls-2" x1="128.94" y1="70.19" x2="142.29" y2="72.5"/>
    <line class="cls-2" x1="138.26" y1="72.89" x2="141.92" y2="73.67"/>
    <line class="cls-2" x1="128.77" y1="70.87" x2="138.26" y2="72.89"/>
    <path class="cls-2" d="m142.96,71.36c-.63.65-.98,2.46-1.04,2.98-.1.8-.42,2.35.3,2.96s1.24-1.2,1.42-1.68c.39-1.06.59-2.47.51-3.6-.03-.37-.16-.72-.53-.86-.24-.09-.46,0-.65.2Z"/>
    <path class="cls-2" d="m144.11,63.82s.17,3.43.05,4.96-.27,2.56-.27,2.56"/>
    <line class="cls-2" x1="114.22" y1="86.1" x2="113.02" y2="88.32"/>
    <line class="cls-2" x1="130.15" y1="97.39" x2="128.79" y2="101.02"/>
    <path class="cls-2" d="m120.48,72.89s-.34,2.14.64,2.23,1.7-1.28,1.87,0,.68,1.83,1.11,2,.38-.56,0-.92"/>
  </g>
  <path class="cls-1" d="m105.2,70.19s-3.56,2.68-4.93,4.62-2.67,4.97-3.47,7.28-1.9,5.4-1.98,7.35-.09,5.67-.81,8.5-1.24,5.47-3.48,8.93-3.65,5.8-3.95,6.44.3,1.3.53,1.72.3.79.14,1.74-.53,1.58.38,2.75,1.19,1.21,1.35,2.02.38,2.21,1.49,3.31,2.35,1.08,3.83.28,2.34-1.17,2.82-1.4.88-.01.88-.01l1.81,16.85.16,20.69.25,16.71s-.14,3.36.33,4.92,1.5,3.77,1.5,3.77c0,0-1.05.95-.75,1.78s.49,1.21.37,3.03.06,7.7-.14,9.67-.31,3.88,1.34,4.21,5.61.82,7.16,1.04,4.24.56,4.82.75,2.26.69,2.7.7,1.17.31,1.17.31c0,0,.74,1.3.82,2.05s.23,4.09.32,5.37.45,3.29.74,5.17.98,6.79.96,8.3-.19,3.07-.66,4.47-1.12,3.42-1.35,5.16-1.42,11.39-1.66,13.99-.46,10.45-.46,10.45l-.14,8.3-.22,6.95s-.22,2.27.58,3.05,2.01,1.58,2.77,1.57,1.44-.11,1.23.62-.22,1.56-1.4,2.88-1.01,2.12-1.03,2.71-.1,4.5-.3,6.11-.36,2.78-.35,4.12.03,2.69,1.6,3.1,3.77.44,5.01.62,2.02-.88,2.62-1.56,1.16-1.45,1.16-1.45c0,0,.24.6.67,1.19s1.15,1.51,2.53,1.93,3.16.67,3.16.67v1.45s-.79.31-1.2,1.12-1.57,4.26-1.87,5.37-.98,4.34-.98,6.78-.19,2.93.52,3.72,1.7,2.03,2.91,2.29,2.64.51,5.06-.1,4.99-2.5,7.53-3.31,9.78-2.54,11.78-3.74,5.5-3.25,6.8-6.09,1.97-5.16,1.88-7.07-.67-2.72-1.38-3.36-1.21-1.33-2.93-1.3-7.47.61-8.87.92-2.82.8-3.67.83-1.97-.19-2.75-.66-1.72-1.02-1.72-1.02c0,0,.09-1.43,0-2.42s-.17-2.49.2-4.92,2.02-13.55,2.65-17.38.78-5.07,1.6-6.81,2.45-4.46,2.74-6.33.69-5.65,1.01-7.79,1.04-5.48,1.29-7.85.66-9.33.85-15.07.4-12.89.36-17.23-.17-10.55-.42-13.85-.46-6.74-.98-9.03-1.02-4.9-1.29-7.06-.65-5.56-.65-5.56c0,0,2.39-.47,2.62-.54s1.25-.57.67-1.42-1.22-3.31-1.66-4.93-3.38-8.95-3.38-8.95c0,0,1.77-.55,4.06-2.16s9.95-7.31,13.74-10.28,5.26-4.16,7.67-6.83,5.58-5.73,6.22-6.81.85-1.59,1.12-3.51.54-4.62.54-4.62l9.21-5.73s5.72-3.37,6.41-4.19.99-.88.38-1.83-1.08-2.04-2.38-3.22-1.86-1.91-3.9-2.31-3.35-.67-5.73-.29-3.29.83-4.4.8-2.07-.05-3.59-1.02-5.51-3.87-7.24-5.11-2.52-2.15-4.03-2.66-3.58-1.12-6.76-.32-11.83,3.24-13.67,3.93-3.15,1.13-3.99,1.65-1.34.98-1.34.98l-2.09.38s-1.26-2.1-2.17-2.8-3.43-1.89-5.96-3-5.34-2.64-5.34-2.64l1.35-3.62s.43.9,1.07.71,2.38-.85,3.33-1.18,3-.52,4.37-1.36,4.05-2.04,4.54-3.78.74-2.73,1.26-3.89.82-1.8.67-3-.19-3.17-.46-4.92-1.29-4.36-1.29-4.36c0,0,.3-.85.42-1.94s.39-2.33.12-2.33-.21-.27-.12-1.28.14-4.81.06-6.25-.63-3.08-1.53-4.52-2.64-3.69-3.94-4.97-2.79-1.31-3.88-1.75-3.75-1.22-5.63-2.36-3.65-1.57-5.49-1.93-2.62-.82-4.35-.22-4.08,1.51-6.42,3.32-3.9,2.58-5.01,4.42-2.29,2.81-2,6.18.85,6.09.85,6.09c0,0,.16-.03-.85.45s-.66,1.66-.66,1.66Z"/>
</svg>