<?xml version="1.0" encoding="UTF-8"?>
<svg id="Elderly" xmlns="http://www.w3.org/2000/svg" viewBox="0 0 288.26 381.24">
  <defs>
    <style>
      .cls-1 {
        stroke-width: .75px;
      }

      .cls-1, .cls-2 {
        fill: none;
        stroke: #1d1d1b;
        stroke-miterlimit: 10;
      }

      .cls-2 {
        stroke-width: .5px;
      }
    </style>
  </defs>
  <g>
    <path class="cls-2" d="m142.42,63.88s.51-.38,1.85-2.43.83-2.11,1.15-4.79-3.38-7.4-5.68-10.21-5.87-3.7-7.79-3.57-3.32-1.02-3.32-1.02c0,0-3.32-2.68-6.38-3.06s-6.51.26-12,4.09c-5.49,3.83-8.3,7.15-11.36,17.23s-2.43,14.43,0,17.23,4.85,2.94,8.43,4.09,7.4,1.53,8.68,1.4.13-2.3.89-4.6,3.45-10.21,4.6-12.26c0,0,1.66-4.6,2.36-6.77"/>
    <path class="cls-2" d="m141.46,56.8s.96,2.74.96,4.91.32,5.49.32,5.49"/>
    <path class="cls-2" d="m120.9,67.2s5.75-1.66,8.81-4.6c3.06-2.94,4.02-4.79,4.02-4.79"/>
    <path class="cls-2" d="m127.32,64.4s3.15-.32,5.55-1.67,4.38-3,4.38-3"/>
    <path class="cls-2" d="m142.22,59.73s-2.35,2.68-4.52,3.32-8.54,1.02-8.54,1.02"/>
    <path class="cls-2" d="m107.88,81.61s1.33,7.61,0,11.25-5.48,7.02-5.48,7.02"/>
    <line class="cls-2" x1="129.53" y1="98.16" x2="128.51" y2="106.01"/>
    <path class="cls-2" d="m128.86,103.26s.79,1.09,2,2.75,2.94,2.62,4.66,5.3,3.45,7.21,4.53,9.26,1.53,3.89-1.91,3.64-6.06-1.02-9.13-3.13-8.17-7.47-10.15-9.64-9.26-7.6-12.7-9.89-3.77-1.66-4.4-1.66-1.66,1.34-1.66,1.34c0,0-5.04,3.38-6.77,7.53s-4.28,10.64-5.04,15.47.06,11.34.45,12.93,1.79,4.34,3.83,6.51,2.62,2.94,3.26,2.94,1.02-.38,1.02-.38"/>
    <path class="cls-2" d="m129.53,104.17s4.09,2.16,6.7,3.11,5.11,2.87,6.57,5.11,4.53,8.74,5.81,11.49,4.34,9.26,4.72,10.66.57,8.17.64,10.85,0,5.17,0,5.17"/>
    <path class="cls-2" d="m108.08,116.6s5.43,5.68,7.6,8.23,2.55,2.87,2.74,4.72.96,5.04,1.15,6,.51,1.47-.51,1.47-7.91,1.02-10.15,1.6-6.83,2.17-9.51,3.83-3.93,3.31-4.17,3.92"/>
    <path class="cls-2" d="m99.65,108.75s6.51,1.91,9.19,4.72,6.56,11.04,6.56,11.04"/>
    <path class="cls-2" d="m111.27,127.07s6.5,3.42,7.75,5.96"/>
    <path class="cls-2" d="m89.76,130.71s3.26,7.6,3.38,9.13,0,2.62,0,2.62"/>
    <path class="cls-2" d="m119.68,136.87s.78,4.51,1.55,8.53,1.09,8.04,1.6,10.34l.51,2.3"/>
    <path class="cls-2" d="m116.44,159.69s1.79-1.6,3.96-1.66,3-.32,5.62-.45,12.56-.45,14.83-1.4,3.3-1.4,3.3-1.4"/>
    <path class="cls-2" d="m95.83,145.45s3.31,4.8,5.8,9.33,7.4,13.64,9.64,17.13,4.34,5.59,6.89,5.27,4.28-1.15,9.19-1.47,9.38-.7,12.13-2.17,7.4-4.91,7.4-4.91"/>
    <path class="cls-2" d="m150.46,151.97s5.81-1.98,7.02-3,4.15-3.77,4.79-5.04-.32-3.38,1.6-4.28,8.62-2.74,10.15-3.06,3.77,0,5.04,1.21,1.21,1.98.7,2.87-.64,1.34-.64,1.34"/>
    <path class="cls-2" d="m169.68,142.9s5.04-1.21,6.89-1.47,2.36.26,2.81,1.21.57,2.03-.32,2.8-6.83,2.88-6.83,2.88"/>
    <path class="cls-2" d="m174.08,152.8s3.64-1.72,4.72-2.55,1.7-1.7,1.3-2.8-1.34-1.77-1.83-1.53"/>
    <path class="cls-2" d="m157.42,163.46s4.53-1.98,7.02-3.26,3.77-1.09,3.77-1.09c0,0,4.66.32,5.87-1.09s3.19-2.23,4.53-3.26,1.76-1.66,1.62-2.81-1.1-1.99-1.1-1.99"/>
    <path class="cls-2" d="m147.78,152.54s-1.34-.57-2.55.57-1.4,2.87-1.72,4.12-.32,4.31.64,6.8,2.17,4.47,3.64,4.91,2.62.06,3.48-.83.97-2.14.97-2.14"/>
    <path class="cls-2" d="m146.89,154.78s-1.21.19-1.47,3.26c-.26,3.06,0,5.3,1.47,7.47s2.43,1.91,2.43,1.91l3.89-1.91"/>
    <path class="cls-2" d="m153.62,136.87s3.1,5.14,3.1,6.23-.26,3.96-.83,5.23"/>
    <path class="cls-2" d="m162.63,141.37s-2.52.9-3.74.9-2.28.33-2.28.33"/>
    <path class="cls-2" d="m152.79,151.13s-1.09-.5-1.65-.33-1.23,1.06-1.06,2.3,1.87,2.94,3.13,5.28,1.38,3.96,2.28,4.3,1.43,1.01,2.52.53"/>
    <path class="cls-2" d="m159.62,162.48s.23,1.25-1.61,2.19-3.36,1.36-4.39.98-2.56-1.33-3.37-2.28-3.45-5.71-3.57-6.65-.13-2.09.51-3.5c.79-1.74,2.59-4.27,4.85-3.45.94.34,1.17,1.19,1.17,1.19"/>
    <path class="cls-2" d="m146.64,155.17s.46-1.01,1.52-1.01,1.49.72,2.3,2.34,2.83,4.43,3.16,5.53,0,1.74-.41,2.21-1.23.56-1.23.56"/>
    <line class="cls-2" x1="110.78" y1="82.32" x2="110.78" y2="87.9"/>
    <ellipse class="cls-2" cx="110.78" cy="90.03" rx="1.87" ry="2.13"/>
    <circle class="cls-2" cx="110.78" cy="86.05" r=".79"/>
    <path class="cls-2" d="m113.7,94.33s5.1,6.57,7.43,7.76l2.33,1.18"/>
    <path class="cls-2" d="m118.23,96.5s3.83,3.89,5.23,3.96,3.06-.66,3.06-.66"/>
    <path class="cls-2" d="m107.05,94.58s10.8,8.94,13.16,11.43,6.51,7.28,8.81,10.15,4.34,5.43,4.72,5.3-.84-2.62-.87-4.85-1.41-7.26-1.43-8.59-.94-2.51-.94-2.51"/>
    <path class="cls-2" d="m120.55,68.05s4.13,1.19,5.6,1.06,1.94-.83,3.01-1.91,1.7-1.85,3.71-1.47,4.44.89,5.27,1.98,1.21,2.36.7,4.72-2.43,4.47-3.83,5.23-2.43.77-3.89.32-2.87-.64-3.32-2.17-.51-2.94-1.28-3.32-7.11-1.5-7.11-1.5"/>
    <path class="cls-2" d="m144.97,66.24s-2.01.51-3.21,1.6-1.83,2.36-2.02,3.57-.38,3.45,0,4.85.93,2.62,2.51,1.66,2.38-3.42,3.19-5.67,1.19-4.73.87-5.37-1.34-.64-1.34-.64Z"/>
    <line class="cls-2" x1="125.58" y1="69.11" x2="125.32" y2="72.16"/>
    <path class="cls-2" d="m117.97,75.07s3.26,3.43,4.03,4"/>
    <line class="cls-2" x1="113.95" y1="82.78" x2="117.97" y2="86.54"/>
    <path class="cls-2" d="m128.13,76.51c-2.11.06-3.84.09-4.28.07-1.28-.06-2.49,0-2.49,0v1.68s-.13,4.89-.23,5.91-.16.97-1.15.93-3.41.94-3.41.94c0,0,1.29,3.55,2.85,5.72s4.43,6.51,6.79,6.7,4.18-.9,6.08-1.41,4.33-.78,5.67-2.5.71-1.65,1.57-2.42.78-1.47,1.33-3.45.93-3.26.62-4.85,0-5.61,0-5.61"/>
    <path class="cls-2" d="m139.29,75.75l-1.09.26c-.18.04-.67.09-1.36.14"/>
    <path class="cls-2" d="m174.02,136.58s1.85-1.85,2.49-2.55,1.02-1.09,1.66-.83.77,1.02.77,1.02"/>
    <path class="cls-2" d="m177.15,136.58s6.31-7.4,7.52-8.87,2.87-4.47,4.02-6.77,5.68-9.06,8.11-11.17,9.83-10.28,9.83-10.28c0,0,3.06-.26,3.89-1.4s1.53-2.31.32-3.52-4.66-3.69-4.66-3.69l-3.2,12.58"/>
    <path class="cls-2" d="m210.85,94.58s1.34.33,1.66,2.37-.77,2.74-1.91,4.66-13.47,22.09-14.3,22.85-3.96,3.45-4.4,4.28-.51,1.72,0,1.72-.38,1.66.77,1.72c0,0-1.15,2.94-2.23,5.74s-5.68,12.06-5.68,12.06l-5.1.58"/>
    <path class="cls-2" d="m177.65,133.12s1.79-.69,2.87-1.96,1.98-2.62,2.68-3.51,3.77-3.47,3.77-3.47"/>
    <path class="cls-2" d="m190.19,138.49s3.33-.84,5.12-1.9,1.53-1.7,2.81-2.34,1.7-.47,2.77-1.66.64-1.91.3-2.21-.77-.6-.77-.6"/>
    <path class="cls-2" d="m196.85,123.7s-.69,1.91.46,1.95,2.47-1.53,3.02-2.55.3-1.7,0-2.68-.49-1.36-.49-1.36"/>
    <path class="cls-2" d="m191.89,130.46s1.42-.55,4.21-1.8,4-2.07,4.56-3,.3-1.89-.56-2.16"/>
    <path class="cls-2" d="m192.65,132.18s5.09-.91,6.57-1.72,1.83-1.14,2.04-1.8-.19-1.77-1.33-2.17"/>
    <path class="cls-2" d="m199.09,133.82s-1.74.22-3,0-2.13-1.26-1.48-2.03"/>
    <path class="cls-2" d="m169.68,159.14s-.97,2.14-.84,3.48.84,3.57,3.77,5.62,3.57,3,3.19,1.15-.8-4.34-1.1-6.77-.62-4.6-.62-4.6"/>
    <path class="cls-2" d="m92.57,143.67s.83,5.17,1.47,6.89.73,2.09,1.19,7.14.59,5.63,1.74,8.09.77,2.65,1.15,4.59.13,3.86.64,4.88-.64,2.43-.64,4.21,1.15,2.04-.51,5.62-2.44,9.32-4.41,11.62-1.97,4.72-2.35,5.87-.13,2.43,1.15,3.83,10.31,9.19,15.05,11.36,13.8,2.04,21.33,2.04,11.11.38,14.94-2.3,3.81-4.85,4.46-7.79c.65-2.94.59-4.34,2.28-9.19,1.69-4.85,2.27-7.4,3.06-15.32.79-7.91.5-19.57.5-19.57"/>
    <path class="cls-2" d="m109.23,168.5s-1.28,10.55-.9,13.26-1.91,7.49-2.17,11.03c-.26,3.54-2.68,5.84-3.06,10.56"/>
    <path class="cls-2" d="m92.51,206.92s-.64,2.94,0,5.62,1.4,5.14,1.4,7.3-1.15,3.17,0,4.45,1.4,4.72,1.4,7.15.13,13.79,0,17.87.37,4.98.06,10.6c-.31,5.62-.31,8.3-.95,10.21s-3.32,9.19-4.85,15.19c-1.53,6-2.81,18.89-5.11,26.55s-3.06,10.34-3.06,10.34c0,0-.77,1.66.77,4.34s8.49,6.77,13.31,9.32,11.71,4.6,16.43,3.19,6.13-3.19,6.13-3.19c0,0,.51-.26,0-3.32s-1.28-12.51-2.3-15.45-1.66-5.49-1.66-5.49"/>
    <path class="cls-2" d="m114.97,328.58s-2.81.13-5.49,0-4.85-.13-8.43-2.81-6.38-6.38-6.38-6.38"/>
    <path class="cls-2" d="m108.85,326.41s-1.4-3.32.89-7.02,4.6-7.4,5.23-10.09,1.53-5.74,1.53-9.45v-6"/>
    <path class="cls-2" d="m114.34,297.05s3.19-4.09,4.47-6.89,3.06-8.17,3.96-11.87,1.15-9.96,2.68-19.02c1.53-9.06,3.57-20.43,4.85-26.81s3.45-9.96,3.96-10.72,1.28-1.94,1.28-1.94"/>
    <path class="cls-2" d="m146.56,214.1s-1.58,21.93-2.22,30.36-.13,21.83-2.17,27.45c-2.04,5.62-5.61,14.17-6.63,20.04-1.03,5.87-1.79,13.15-1.03,15.96"/>
    <path class="cls-2" d="m116.69,321.83s13.36,1.16,17.5,0,4.91-1.8,5.42-5.12c.51-3.32.38-4.85,0-7.53s-3.8-18.63-3.8-18.63"/>
    <path class="cls-2" d="m93.87,218.92s3.75.56,4.64.92,1.06.09,1.23-.92,0-5.93,0-5.93"/>
    <path class="cls-2" d="m107.05,217.78s-2.92,10.34-3.05,17.36-1.66,24.38-2.55,32.68c-.89,8.3-5.74,27.83-6.77,34.09-1.02,6.26-2.17,13.28-2.04,18.77s0,10.98,0,10.98"/>
    <path class="cls-2" d="m102.08,298.97c.38,0,6,7.79,8.3,8.94s3.96,0,3.96,0"/>
    <path class="cls-2" d="m121.48,294.5s-.38,12.77,4.47,17.87,6.92,6.51,6.92,6.51"/>
    <path class="cls-2" d="m117.5,328.36s4.66,1.67,6.36,1.33,4.68-2.55,6.38-2.55,4.17,3.32,6.81,5.45,9.62,3.4,12.85,3.06c3.23-.34,3.32-1.11,5.11-3.23s1.02-3.49,0-4.43-4.51-4.23-7.32-5.64-5.11-3.04-5.96-3.46-2.19-1.77-2.19-1.77"/>
    <path class="cls-2" d="m89.87,332.69s-1.32,3.3,1.92,5.77c3.23,2.47,5.81,2.81,8.05,2.72s3.95,2.55,4.54,4.17,1.28,3.66,5.45,5.45c4.17,1.79,10.13,2.55,13.28,1.45,3.15-1.11,3.4-1.96,4.6-3.4,1.19-1.45.34-3.38-1.45-6.12s-2.47-4.01-4.26-5.71c-1.79-1.7-3.74-2.47-3.74-2.47"/>
    <path class="cls-2" d="m134.19,329.93s6.44,2.83,11.37,3.59c4.94.77,6.98.21,7.74-.83s2.04-2.83,1.7-4.7"/>
    <path class="cls-2" d="m116.94,323.64s5.66,2.47,8,3.24,3.39.8,3.39.8"/>
    <path class="cls-2" d="m95.48,335.86s3.48,4.39,5.21,5.42"/>
    <path class="cls-2" d="m104.38,345.35s3.06.6,5.28,2.04,7.49,3.66,10.38,3.4c2.89-.26,4.09-1.94,5.28-2.71s2.56-2.43,2.56-2.43"/>
  </g>
  <path class="cls-1" d="m103.5,49.39s-2.67,4.19-4.09,9.08-2.21,7.17-2.58,10.64.05,6.46,2.07,8.24,2.98,2.5,5.34,3.18,3.64,1.07,3.64,1.07c0,0,.49,3.07.54,4.93s.24,4.4-.89,7.13-3.93,5.12-3.93,5.12c0,0-1.42.94-1.84,1.09s-.89.78-1.66,1.34-3.48,2.04-5.12,4.79-3.11,5.43-4.65,10.6-2.62,8.37-2.34,12.85.31,7.29,1.25,9.14,1.59,2.98,2.24,3.78,1.09,1.29,1.09,1.29c0,0,.32,2.82.95,5s1.44,5.05,1.71,8.39.12,5.02,1.05,7.14,1.32,2.09,1.71,5.39.27,5.29.77,5.67-.1,1.3-.19,1.95-.59,1.41-.37,2.69.59,2.27,0,3.73-1.19,2.72-2.03,5.54c-.83,2.81-1.88,6.13-2.63,7.1s-1.85,2.6-2.41,5.07-.41,3.53.35,4.43.9,1.38.82,2.56-.17,2.64.32,4.66,1.34,3.66,1.24,5.93-.61,3.45-.46,4.13,1.31.93,1.6,4.17c.29,3.24.36,16.68.36,16.68,0,0,.3,9.62.08,14.13s-.26,9.5-.8,11.25-2.06,5.69-3.41,10.25-2.19,7.78-2.73,11.03-2.18,13.93-3.03,17.35-1.63,5.95-2.85,10.12-2.04,6.56-.53,8.38,2.25,2.67,4.37,4.08,3.4,2.2,3.4,2.2c0,0-.77,2.44.25,3.82s2.79,3.44,5.36,4.03c2.57.59,4.94.24,5.99,1.06s1.86,2.07,3.11,4.27c1.24,2.2,2.35,3.87,6.77,5.5,4.42,1.63,9.9,1.5,11.28,1.01,1.38-.49,3.02-.95,4.55-2.89s1.19-3.12.38-4.56-2.9-5.25-4.53-6.85c-1.63-1.6-4.77-3.55-4.77-3.55l-.76-6.19s2.97.91,5.13,1.34,4.78-1.81,6.08-2.17,2.29-.65,4.14,1.12,3.47,4.25,6.55,5.24c3.08.98,6.61,1.93,10,1.81,3.39-.13,3.73-.92,4.84-2.3s2.08-3.32,1.75-3.99-2.19-2.78-4.46-4.45-5.07-3.18-7.23-4.51-4.75-3.32-4.75-3.32c0,0,.94-2.51.4-5.81s-4.14-20.76-4.14-20.76c0,0,2.19-7.6,3.85-11.99s2.92-5.64,3.42-10.66,1.41-25.61,1.41-25.61l1.28-17.44.78-10.75s.66-1.38,1.31-4.78,1.61-6.7,2.6-9.96,2.44-8.04,2.66-12.39.5-16.58.5-16.58v-4.73s1.05.69,3.1-.39,2.49-1.37,2.67-1.8.63-1.16.63-1.16c0,0,4.47-2.45,6.1-2.82s3.56-.34,3.56-.34c0,0-.84,2.36-.84,2.92s.36,3.08,1.78,4.42,4.08,3.28,4.08,3.28c0,0,1.42,1.26,1.1-.37s-1.2-7.54-1.34-8.63-.45-2.81.24-3.35,3.88-1.86,5.02-3.64-.09-3.21-.09-3.21l5.1-.58,5.45-11.5s4.2-1.25,5.12-1.9,2.81-2.34,2.81-2.34c0,0,1.67-.19,2.51-1.39s1.31-1.42.69-2.14-1.28-.71-.67-1.38,1.06-1.66.17-2.26l-.89-.6s1.33-1.27,1.02-1.96-.86-1.03-.86-1.03c0,0,.93-.58.52-2.03s-.78-2.41-.78-2.41l8.77-14.18s2.6-3.88,3.2-5.07,1.07-2.25.61-3.3-1.83-2.17-1.83-2.17l-4.4-3.45-3.2,12.58s-6.23,6-7.93,8.16-4.2,5.24-5.98,8.6-2.19,3.99-3.23,4.92-2.35,1.73-3.54,3.51-1.22,2.44-2.68,3.34-1.94.8-3.13,2.04-2.49,2.55-2.49,2.55c0,0-5.22,1.26-7.69,2.16s-3.05,1.03-3.33,1.61-.38,1.01-.38,1.01c0,0-1.3.68-3.01.82s-3.01.4-3.01.4l-2.99-5.73s.06-1.58-.5-2.96-4.66-10.57-6.69-14.64-3.64-7.85-5.95-9.47-8.6-4.44-8.6-4.44l-3.02-2.1.66-5.1,3.55-1.28s3.89-.67,4.88-2.3,1.77-2.08,2.12-3.11,1.33-4.92,1.33-4.92c0,0,.2-1.88.06-3.32s0-4.97,0-4.97c0,0,1.5-.25,2.36-2.1s2.21-5.89,2.21-5.89c0,0,.5-1.85.39-2.61s-.46-1.73-1.45-1.4-2.23.96-2.23.96l-.27-3.73s1.65-.94,2.22-2.69,1.33-4.19.39-6.2-2.61-5.09-4.65-7.28-2.86-3.2-4.74-3.74-3.46-.33-4.78-.73-1.46-.8-3.84-2.07-3.81-2.27-6.16-2.06-5.27.8-7.66,2.29-4.95,3.22-6.09,4.28-3.65,4.13-3.65,4.13Z"/>
</svg>