<?xml version="1.0" encoding="UTF-8"?>
<svg id="Kids" xmlns="http://www.w3.org/2000/svg" viewBox="0 0 288.26 381.24">
  <defs>
    <style>
      .cls-1 {
        stroke-width: .75px;
      }

      .cls-1, .cls-2 {
        fill: none;
        stroke: #1d1d1b;
        stroke-miterlimit: 10;
      }

      .cls-2 {
        stroke-width: .5px;
      }
    </style>
  </defs>
  <g>
    <path class="cls-2" d="m142.34,93.22s-.69-.77-1.37-1.63c-1.39-1.73-4.98-.38-6.25.84-1.63,1.56-2.16,3.91-3,5.93-1.03,2.48-.51,6.08-3.34,8.39s-7.79,3.68-10.88,3.68-5.4-2.23-7.71-4.97c-2.31-2.74-3.94-6.77-4.63-8.82s-3.68-5.57-4.71-8.39-1.46-6.94-1.03-10.62,1.46-8.48,3.43-10.88c1.97-2.4,6.17-5.65,10.88-7.02s13.53-1.88,13.53-1.88c0,0,5.91-.26,9.34,1.88s6.08,5.57,7.19,7.2,1.88,3.17,1.37,4.88c-.51,1.71-1.03,3.25-.77,5.91.26,2.66.75,6.85.93,8.57s.87,3.94.61,5.14-.86,2.4-.86,2.4"/>
    <path class="cls-2" d="m144.53,74.17s1.24,6.12,1.46,7.05,1.01,3.39.93,4.68-.64,2.27-.3,3.6.86,2.74.86,2.74"/>
    <path class="cls-2" d="m115.19,112.21s-1.93,1.86-3.21,3.34-3.85,4.63-4.37,5.4"/>
    <path class="cls-2" d="m115.19,109.99s.21,4.3-.26,6.59-1.58,4.13-2.53,5.12l-.94.98"/>
    <path class="cls-2" d="m112.66,116.58s1.5.55,2.04.93"/>
    <path class="cls-2" d="m141.18,112.7s-2.23,1.41-2.95,2.1-.81.77-.86,1.78-.04,4.43,0,5.42.51,1.93.81,2.57.73,1.28.73,1.28"/>
    <path class="cls-2" d="m114.45,118.24s-2.27.16-3.34.41-1.75.88-2.57,1.5-.98.98-1.84,1.28-2.53.64-3.6,1.41-2.95,2.95-3.55,4.2-1.07,3.9-1.16,5.27-.09,6.47,0,8.99.94,11.56,1.46,14.05,2.53,9.68,3.13,11.39.98,3.04,1.03,4.11-.21,2.1.43,3.51,2.18,5.74,4.33,8.95,4.28,5.61,5.95,6.64"/>
    <path class="cls-2" d="m111.73,122.4s-.94.31-1.14.73-.19,1.73.32,2.86,2.44,2.09,4.32,2.63,4.96.13,7.08-.29,5.46-1.35,7.77-2.15,4.05-.84,4.98-.77,3.5.46,5.27.44c0,0,1.8.15,2.44-.21s1.32-.39,2.02-.39,2.25-.42,2.76-.39,1.09.45,1.64.32,1.27-.24,1.66-.06.69.17.94-.17.81-.73,1.46-.69,1.46.56,2.14.69,1.67.13,2.18.34.98.48,1.5.35,1.24-.38,1.8,0,1.58-.42,2.27,0,1.16,0,1.8.21,1.24.04,1.8,0,1.8-.16,2.23-.21,4.8-.26,5.61-.18,6.77-.34,7.84-.43,1.71.43,1.84.81,1.76,3.77,1.63,6.08-.17,6.12-.56,7.88-.81,3.55-1.58,5.35c-.77,1.8-1.58,3.04-2.06,3.77s-.98.94-1.46.94-3.81.17-6.68.3-7.37,1.07-8.61,1.41-4.03,2.14-5.61,3.04-6.68,3.17-8.52,4.5-4.54,2.7-5.05,3.08"/>
    <path class="cls-2" d="m141.05,177.33s6.6-4.37,8.52-7.32c1.93-2.95,3.43-6.6,4.84-8.22s4.33-4.24,5.82-5.74,2.88-3.62,2.88-3.62"/>
    <path class="cls-2" d="m191.21,124.61s-2.22.26-3.34.26-4.83.19-4.83.19"/>
    <path class="cls-2" d="m146.87,84.98s1.17-2.12,4.16-2.83,4.37-.58,5.85,0,2.06,1.38,1.19,1.67-2.41.25-3.15.32-1.12.07-1.7.52-.84.87-1.38,1-.42.9-1.22,1.61c0,0-.95.44-1.3,1.08s-1.41,1.8-1.07,3.21.64,2.87,2.1,3.47,2.96.6,2.96.6"/>
    <path class="cls-2" d="m141.18,93.64s.95,1.06.41,2.25-.61.67-.93,1.45-.45,1.48-1.25,1.93-1.48,1.06-1.7,1.54-.29,1.06,0,1.45"/>
    <path class="cls-2" d="m154.98,124.83s-2.4,1.57-3.17,5.24-.96,10.92-.77,14c.19,3.08.18,6.1,1.05,8.61s1.8,4.69,1.8,4.69"/>
    <path class="cls-2" d="m178.9,125.28s1.81,2.34,2.32,5.75c.51,3.4-.01,8.74-1.16,11.82-1.15,3.08-2.68,6.15-3.52,7.18"/>
    <path class="cls-2" d="m159.51,125.53s-.9,4.22-3.22,7.04c-2.31,2.83-2.7,3.21-2.7,3.21"/>
    <path class="cls-2" d="m153.92,140.67s4.89-6.85,5.59-10.01.77-5.21.77-5.21"/>
    <path class="cls-2" d="m171.01,125.53s3.73,1.97,4.5,4.47c.77,2.51-2.12,6.75-4.5,8.74s-8.29,5.52-10.02,6.49"/>
    <path class="cls-2" d="m111.99,122.12s-1.69-.21-2.65.56-1.93,1.39-1.73,3.17.45,3.41,3.85,4.81,6.94,1.79,12.08.44c5.14-1.35,8.67-2.76,10.34-3.79s2.78-1.72,2.78-1.72"/>
    <path class="cls-2" d="m105.1,123.77s-3.28,3.66-3.6,5.46-.51,4.26.71,1.42,1.93-4.08,3.21-5.13,2.16-1.76,2.16-1.76"/>
    <path class="cls-2" d="m105.18,176.15s-.27,3.13.44,5.5,2.18,7.69,2.83,8.31"/>
    <path class="cls-2" d="m160.24,156.04s1.13,16.62,1.97,23.04c.84,6.42,1.99,13.49,2.7,16.38s.9,5.97.39,8.86c-.51,2.89-1.62,4.18-2.38,4.95"/>
    <path class="cls-2" d="m105.73,182.04s-1.02,4.69-.6,6.55c.42,1.86.78,5.2.6,6.68s-.67,1.86-.33,3.21.79,3.08.38,4.11-.36,1.93-.29,2.63-.51,3.28-.9,4.63-.84,3.6-1.03,4.63-.9,1.48,0,1.93,8.35,4.18,11.82,5.52,12.85,4.37,17.09,5.2c4.24.84,10.28,2.25,16.12,2.12,5.85-.13,8.78-.77,11.65-1.48,2.87-.71,3.45-1.93,4.86-3.02s2.51-1.61,3.02-2.31.06-1.73-.39-3.85-2.75-12.94-2.75-12.94"/>
    <path class="cls-2" d="m111.4,179.4s8.09,8.03,10.73,9.19,4.75,2.12,11.24-1.99c0,0,9.12-5.1,13.36-10.45,4.24-5.35,7-9.66,7-9.66"/>
    <path class="cls-2" d="m107.09,199.45s12.14,5.52,15.8,7.13,8.29,3.02,12.53,2.7,5.2-.64,5.2-.64"/>
    <path class="cls-2" d="m163.11,200.92s-4.5,2.36-8.23,3.46c-3.73,1.1-4.88,2.64-7.77,3.8s-4.56,1.73-7.64,2.06c-3.08.32-4.69.39-4.69.39"/>
    <path class="cls-2" d="m105.47,205.65s1.3,2.98,9.97,5.94c8.67,2.95,16.19,3.53,19.01,4.95s9.7,5.46,12.01,6.68c2.31,1.22,7.26.51,7.26.51"/>
    <path class="cls-2" d="m106.06,189.59s3.15,6.77,4.63,8.51"/>
    <path class="cls-2" d="m146.86,135.79s-3.02,7.32-4.37,9.44-2.95,4.11-2.95,4.11"/>
    <path class="cls-2" d="m143.64,125.85s1.81-.21,2.35.69.41,1.62,1.31,1.33,2.38-.7,3.08-.98,1.69.62,1.69.62"/>
    <path class="cls-2" d="m167.86,125.75s1.54,1.1.45,4.19-3.08,6.23-5.97,8.35c-2.89,2.12-6.68,4.75-6.68,4.75"/>
    <path class="cls-2" d="m154.98,152.43s15.84-9.06,19.95-15.36,3.08-8.08,1.99-9.21-2.68-2.41-2.68-2.41"/>
    <path class="cls-2" d="m137.83,115.18c1.58-.22,2.1-.64,2.88-1.49s2.1-3.94,2.44-5.14.77-1.07,1.38-1.33,1.79-.9,3.2-2.31,1.16-3,1.28-4.07-.77-3.6-1.28-5.27-.26-3.08-.26-3.08c0,0,.04-.73.39-.26s.47,1.22.47,1.83.32,3.18.7,3.91,1.1,3.9,1.27,4.84-.17,2.1-1.28,2.74-2.91,2.7-3.6,3.73-1.63,3.24-2.83,4.19-1.45,1.33-2.95,1.72-2.14.47-2.14.47"/>
    <path class="cls-2" d="m148.62,103.58s-.58,1.84-1.14,2.4-1.97,1.53-2.44,1.75-.98.35-1.11.99-.99,3.13-1.42,3.98-1.33,1.86-1.33,1.86"/>
    <path class="cls-2" d="m147.48,94.39s-1.88-.44-3.85-.87-3.42-.64-4.36-.34-1.53,1.5-1.92,2.36-.7,2.18-1.25,3.17-.6,3.6.26,4.24,5.4,2.95,6.34,3.64,1.4.8,1.4.8"/>
    <path class="cls-2" d="m144.53,107.22s-2.88-2.09-4.64-2.66-4.11-1.93-4.58-3.21-.09-2.91.69-4.07,1.76-2.72,2.95-3.22,2.06-.55,3.34-.25,5.27,1.11,5.27,1.11"/>
    <path class="cls-2" d="m138.7,99.73s-.12,1.07.94,1.71,1.28,1.58.94,1.84-1.34,1.08-1.89.81"/>
    <path class="cls-2" d="m168.38,82.13s-1.03,1.07-1.5,1.28-1.2.05-1.58-.21-.3-.9.3-2.32,1.11-2.78,2.18-2.95,1.41-.73,2.18-.77,1.88,0,2.1.9,1.1,3.38,1.1,3.38c0,0,2.18.42,2.99.67s1.96,1.51,3.63,2.99,4.59,3.82,5.88,4.91,3.31,3.12,4.72,4.75,2.79,4.91,3.82,6.75,4.4,7.48,5.78,9.96c1.38,2.47,3.95,9.41,4.56,11.08s1.96,6.1,2.06,7.36-.16,3.24-.9,4.11-2.25,2.28-6.68,5.01-15.41,6.46-15.41,6.46"/>
    <path class="cls-2" d="m168.08,79s-.13,1.5,0,1.97.43,1.28.86,1.84.47,1.97.39,2.7.69,1.37.69,2.27.59,2.13.27,2.82c0,0-.58,1.45-1.48,2.28s-2.31,1.64-3.53,2.09-2.31,1.35-2.67,1.73-.45,1.41.45,1.8,2.67.45,4.43,0,3.31-1.12,4.34-1.03,2.54.51,4.5.45,2.57.39,3.21,1.09,2.57,3.12,3.24,5.72c.67,2.6,1.9,7.16,2.38,10.15s.67,5.33,1.03,7.03.58,2.95.58,2.95"/>
    <path class="cls-2" d="m166.49,80.03s.67,1.37,1.73,1.39"/>
    <path class="cls-2" d="m149.59,99.73s4.65-.26,5.59-.47,1.76-.73,2.53-1.03,1.24-.86,1.03-1.37-.69-1.04-.69-1.04"/>
    <path class="cls-2" d="m153.3,87.26s-.73.21-.94.9-.6,1.76-.86,2.31-.6,1.01-.73,1.6-.47,1.49-.43,1.87.47,1.24.47,1.24"/>
    <path class="cls-2" d="m158.47,83.2s.4.12.91.72"/>
    <path class="cls-2" d="m153.21,84.65v10.66s-.1.4.61.5,10.13-.2,10.13-.2"/>
    <line class="cls-2" x1="157.79" y1="83.89" x2="169.23" y2="83.56"/>
    <line class="cls-2" x1="169.47" y1="92.07" x2="169.4" y2="86.08"/>
    <polygon class="cls-2" points="154.19 85.78 154.19 94.74 163.33 94.58 163.33 85.46 154.19 85.78"/>
    <path class="cls-2" d="m153.86,84.53l10.26-.26s.53-.03.56.55,0,10.15,0,10.15c0,0-.19.23-.56.23s-10.04.16-10.04.16c0,0-.32.03-.39-.35s0-10.56,0-10.56"/>
    <ellipse class="cls-2" cx="166.67" cy="89.81" rx="1.55" ry="1.77"/>
    <circle class="cls-2" cx="165.85" cy="86.01" r=".55"/>
    <circle class="cls-2" cx="167.43" cy="86.71" r=".62"/>
    <circle class="cls-2" cx="167.43" cy="92.7" r=".62"/>
    <circle class="cls-2" cx="165.85" cy="93.32" r=".62"/>
    <path class="cls-2" d="m100.71,151.03s8.63,6.68,12.97,7.54"/>
    <path class="cls-2" d="m102.08,157.37s8.57,3.77,10.88,4.84"/>
    <path class="cls-2" d="m103.11,164.14s6.59,5.05,13.44,6.25,7.88,1.28,7.88,1.28"/>
    <path class="cls-2" d="m109.7,191.89s14.13,9.25,17.22,10.62,9.94.34,11.65-.77"/>
    <path class="cls-2" d="m127.09,197.53s3.32-.33,5.47-1.61,4.98-.26,6.01,0"/>
    <path class="cls-2" d="m157.84,161.74s-6.77,16.27-10.11,19.96c-3.34,3.68-8.82,6.42-11.65,7.19"/>
    <path class="cls-2" d="m155.44,182.66s-6.6,12.03-9.68,14.87"/>
    <path class="cls-2" d="m166.24,223.93s1.27,1.79.59,3.33-1.37,3.77-2.14,5.31-1.54,4.03-2.48,4.71"/>
    <line class="cls-2" x1="160.24" y1="227.78" x2="163.11" y2="236.07"/>
    <path class="cls-2" d="m168.12,222.44s.54,3.53.23,4.73-.83,2.56-.66,4.75-.06,16.32.66,21.29c.71,4.97-1,8.57-2.46,11.39-1.46,2.83-5.22,10.88-6.6,12.93s-3,6.34-6.08,8.48c-3.08,2.14-4.71,3.77-4.71,3.77"/>
    <path class="cls-2" d="m103.56,216.41s.66,5.57.58,7.53.43,5.14.6,6.68.51,2.31,0,3.34-1.07,1.88-1.18,4.37-.15,7.79,0,10.19-.19,3.6-.96,4.88-1.37,7.28-1.71,9.42-.86,3.25-1.28,4.54c-.43,1.28.43,3.34,0,5.05-.43,1.71-1.2,3.25-1.37,3.94s-.17,1.2.51,1.97,2,2.83,6.27,3.6,9.06,1.11,11.98.94,10.36-.77,10.36-.77"/>
    <path class="cls-2" d="m128.89,253.81s-.6,9.59-.69,13.53-1.54,9.59-1.37,11.48.84,5.31,1.02,6.42-.42,5.05-.51,7.02c-.09,1.97-.26,3,.86,5.05s3.6,4.37,9.08,5.4,7.71.34,11.91-.94,5.31-2.06,6.51-3.17,1.28-1.71,3.25-2.74c1.97-1.03,1.8-2.74,2.31-4.97s1.55-7.81,1.85-12.38,1.51-11.36,1.51-11.36"/>
    <path class="cls-2" d="m105,232.57s7.02,8.91,9.85,11.73c2.83,2.83,5.48,4.11,6.94,4.37s4.03,2.23,5.57,3.68,3.77,3.08,5.14,4.37,3.43,4.03,6.25,5.05"/>
    <path class="cls-2" d="m125.12,230.61s8.39,1.88,12.85,1.96,10.96-.44,12.51-.65,1.97.13,2.06.65,1.37,9.85,1.2,11.91-.34,8.14-1.11,10.02.17,1.54-1.97,2.57-7.71,1.71-10.02,1.88-3.96.26-4.89-.86-3.93-3.17-4.96-4.28-3.08-2.4-3.43-3.08-.09-.86.77-3-.2-4.45-1.3-5.82-1.7-4.2-1.7-6.42-1.08-5.11,0-4.88Z"/>
    <path class="cls-2" d="m99.38,273.16s4.33,3.44,9.04,4.3,12.25-.34,14.65-.51,3.75-.26,3.75-.26"/>
    <path class="cls-2" d="m127.56,289.79s1.76,4.45,7.5,6.25,10.19,1.54,14.82,0,5.65-2.74,8.22-4.45c2.57-1.71,3.58-2.64,3.58-2.64"/>
    <path class="cls-2" d="m136.34,272.74s12.33-8.91,14.99-10.96c2.66-2.06,4.71-3.51,5.65-4.28"/>
    <path class="cls-2" d="m162.64,263.92s-6.42,4.28-8.22,6.6-4.8,3.89-5.91,4.94"/>
    <path class="cls-2" d="m126.82,262.55s-10.95,6.77-15.75,8.14c-4.8,1.37-6.08,2.06-6.08,2.06"/>
    <path class="cls-2" d="m131.63,242.25s5.31-1.88,8.99-.69,5.1,2.66,5.1,2.66"/>
    <path class="cls-2" d="m153.74,300.04s-2.97,3.54-1.69,13.18c1.28,9.64,1.69,23.9,1.69,23.9"/>
    <path class="cls-2" d="m129.17,298.71s-2.68,18.48-1.01,26.19c1.67,7.71,3.73,13.88,3.73,13.88"/>
    <path class="cls-2" d="m121.11,282.56s-5.41,7.42-7.08,10.56c-1.67,3.13-3.85,13.15-5.4,16.75s-3.85,10.92-4.24,12.98.05,2.44.6,5.01.02,5.37.02,5.37"/>
    <path class="cls-2" d="m98.16,277.25s-5.71,11.33-6.61,15.87c-.9,4.55-1.67,13.41-1.16,21.12s.64,17.47.64,17.47"/>
    <path class="cls-2" d="m90.96,328.21s-2.5.21-3.44,2.7-.81,3.13-1.41,3.81-1.03,2.57-1.03,2.74"/>
    <path class="cls-2" d="m104.72,326.7s3.27.91,5.02.48,2.53-1.2,4.58-1.41,3.9.39,4.8,2.01,1.63,4.11,1.54,5.57-1.84,3.47-2.83,4.11"/>
    <path class="cls-2" d="m88.72,331.59s.43-1.63,1.11-1.71.39,1.8,1.71,2.61,2.66,1.07,3.21,1.28.39,1.11,1.2,1.8,2.53.43,2.87.43,1.16-.77,2.06-1.41,2.59-1.11,3.84-1.28,1.6-1.46,1.47-3.17-.76-3.26-.76-3.26"/>
  </g>
  <path class="cls-1" d="m85.08,337.45s.39-1.83.79-2.39.64-1.04.94-2.02.47-1.98.96-2.69.72-1.13,1.37-1.47,1.82-.68,1.82-.68l-.18-6.1-.38-7.7s-.2-5.11-.17-6.52.39-8.27.61-10.04.8-5.4,1.19-6.55,1.79-4.77,2.45-6.23,2.73-5.89,2.73-5.89l.95-1.93.07-.91.47-1.3s.95-1.83.97-3.08,0-3.05,0-3.05c0,0-.17-1.31-.08-1.57s.7-1.81.93-2.85.47-2.55.69-4.18.45-3.6.74-4.83.55-1.74.93-2.65.72-2.79.66-4.33-.14-4.66-.08-7.34,0-4.2.43-5.31.92-2.14.92-2.14l.17-1.15s-.62-4.32-.74-5.9-.09-3.84-.22-5.32-.48-4.94-.48-4.94c0,0-.47-.33-.45-.51s.19-.29.37-1.1.55-2.82,1.01-4.59.97-2.99.98-3.88-.4-2.29,0-3.16.6-1.39.41-2.45-.58-2.27-.58-2.82.11-.92.26-1.71.29-1.96.16-3.31,0-1.8-.43-3.5-.29-2.42-.19-3.28.18-1.6.3-2.25.46-1.23.23-2.21-.44-2.35-.46-3.03.03-2.47.03-2.47c0,0-.6-1.27-.83-1.99s-.37-1.11-.35-2.05.13-1.35-.14-2.44-1.98-6.61-1.98-6.61c0,0-1.46-5.29-1.74-6.5s-.86-5.26-1.04-7.05-.77-6.77-.75-8.56-.14-5.71.03-7.83.16-3.58.81-5.08,1.66-3.03,2.53-3.89.95-1.28,2.18-1.75,2.94-.79,3.72-1.45,2.41-3.11,3.49-4.37,4.09-4.37,4.09-4.37v-2.22s-1.39-.51-2.53-1.55-2.62-2.52-3.41-3.65-1.82-2.76-2.4-4.02-.99-2.38-1.57-3.77-1.37-2.74-2.11-3.89-1.89-2.66-2.44-4.16-1.5-4.85-1.48-6.16.07-5.09.41-6.93,1.36-6.71,2.58-8.26,3.3-3.68,5.06-4.77,3.58-2.2,5.28-2.72,6.5-1.49,8.72-1.72,5.24-.62,6.9-.54,5.13.09,7.17,1.27,1.48.73,2.25,1.32,3.2,2.59,4.6,4.43,3.48,4.32,3.09,6.02-1.02,3.22-.53,4.55,1.05,5.19,1.4,6.54.68,3.01.68,3.01c0,0,.71-1.07,1.46-1.57s1.47-1.04,3.02-1.33,2.95-.57,4.61-.22,3.22,1.88,3.22,1.88l5.88-.17s-.09-.69.03-1.16.63-1.97,1.02-2.71.73-1.37,1.12-1.55,1.28-.57,2.01-.78,2.02-.49,2.65.32,1.28,3.76,1.28,3.76c0,0,2.69.38,3.34.84s6.62,5.65,6.62,5.65c0,0,4.2,3.58,5.18,4.6s2.88,3.12,3.87,5.05,5.72,10.27,5.72,10.27c0,0,2.41,4.09,3.18,5.88s3.4,8.13,4.3,11.33c.91,3.2,1.15,4.19,1.25,5.6s-.27,2.94-1.61,4.08-5.17,4.22-9.12,5.93-12.28,4.82-12.28,4.82c0,0-1.36,2.82-1.91,3.44s-.97.91-1.95.96-5.41.17-6.94.33-4.67.59-6.37,1.01-3.2,1.04-3.64,1.67-1.3,1.77-1.8,2.33-.86,1-.75,1.68.86,10.59.86,10.59c0,0,.34,4.21.54,6.21s.95,8.15,1.06,8.94.86,5.88,1.33,8.43.84,4.11,1,4.9.56,2.67.54,4.33-.13,3.48-.36,4.4,0,2.01,0,2.01l1.71,8.05,1.17,5.37s.48,1.27.25,1.78-.02.75,0,1.66.22,2.55.17,3.4-.59,1.56-.69,2.26-.05,6.81-.05,6.81c0,0-.14,7.19.11,8.97s.18,5.61.33,6.89.67,4.19.02,6.55-2.14,5.75-2.14,5.75l-1.7,3.41s-.65,5.02-.83,6.53-.61,6.91-.95,9.22-1.41,7.84-1.41,7.84c0,0-.27,2.52-.82,3.27s-1.35,1.29-1.87,1.61-1.11.74-1.96,1.62-1.51,1.51-2.03,1.84-1.03.84-1.03.84c0,0-1.1,2.34-1.32,3.64s-.55,3.8-.41,5.81.87,8.21,1.04,10.43.94,16.82.94,16.82"/>
  <path class="cls-1" d="m117.84,337.45s1.85-1.18,2.45-2.88.57-2.47-.14-4.32-.95-2.5-2.06-3.66-2.63-1.02-3.54-.87-2.42.61-3.26.93-1.81.74-2.99.63-3.57-.59-3.57-.59c0,0-.59-1.97-.48-2.8s.9-4.17,1.81-6.89,2.66-7.1,3.24-8.93,2.14-7.56,2.97-10.14,1.56-4.62,2.62-6.28,6.22-9.08,6.22-9.08l6-.46s.62,1.34.69,2.82-.4,6.11-.45,7.35-.27,2.88.46,4.24,1.33,2.4,1.33,2.4c0,0-1.08,9.41-1.21,11.32s-.47,11.46.13,14.17,2.81,11.07,2.81,11.07l1.02,3.3"/>
  <path class="cls-1" d="m143.33,112.7s-.63.7-1.34,1.25-1.53,1-1.94,1.11-1.84.46-1.84.46l-.58.13s-.28,1.07-.29,1.84-.08,4.33-.01,4.61.31,1.42.76,2.3.75,1.36.75,1.36c0,0,2.6.26,3.27.07s1.46-.68,1.81-.68,1.08.12,2.07-.06,1.03-.29,1.73-.23,1.03.41,1.48.32,1.05-.26,1.49-.12.78.13,1.19-.2,1.06-.8,1.85-.51,2.07.8,2.84.73,1.1.3,1.59.44,1.42-.09,1.84-.08,1.07.59,1.46.4,1.05-.4,1.71-.21,1.39.2,1.77.11,1.07.22,1.63.14,5.27-.41,6.1-.43,2.88.03,3.64-.02,4.82-.36,5.68-.39,2.68-.08,2.68-.08l2.1-.11s-.77-3.86-.91-5.14-.75-5.29-.97-6.33-1.12-4.94-1.68-7.02-1.28-4.44-2.63-6.06-2.07-2.34-2.91-2.37-2.26.01-3.11-.09-1.95-.32-2.48-.36-1.63.12-2.66.44-2.24.73-3.2.8-1.69.18-2.43-.03-1.53-.66-1.43-1.21.28-.88.66-1.18.96-.7.96-.7c0,0-.97-.36-1.93-.27s-3.87.27-3.87.27c0,0,.4.71.58,1.24s-.16.99-.76,1.25-1.22.59-1.79.81-1.05.39-2.15.49-4.27.32-4.27.32c0,0,.42,2.13.5,2.86s.21,1.5-.33,2.1-1.47,1.19-2.02,1.73-1.9,1.85-2.49,2.86-1.3,2.28-1.49,2.57-.6.85-.6.85Z"/>
  <path class="cls-1" d="m153.13,87.33s-.51.27-.64.55-.54,1.6-.82,2.21-.82,1.7-1.06,2.6-.28,1.32-.15,1.66.36.83.36.83c0,0,1.12.43,1.72.43s.76-.59.76-.59v-6.83l-.17-.86Z"/>
</svg>