<?xml version="1.0" encoding="UTF-8"?>
<svg id="Elderly" xmlns="http://www.w3.org/2000/svg" viewBox="0 0 288.26 381.24">
  <defs>
    <style>
      .cls-1 {
        stroke-width: .75px;
      }

      .cls-1, .cls-2 {
        fill: none;
        stroke: #1d1d1b;
        stroke-miterlimit: 10;
      }

      .cls-2 {
        stroke-width: .5px;
      }
    </style>
  </defs>
  <g>
    <path class="cls-2" d="m134.36,62.01s-.51,4.26,0,5.53,1.02,1.7,2.04.77,1.45-1.53,1.45-1.53c0,0,1.28-1.28,2.04-1.36s2.3-.42,2.3-.42l1.28-.94c1.28-.94,3.06-3.15,5.53-3.57s3.49.34,5.11,1.28.68,4.09,2.38,2.81,1.11-2.98,1.79-5.36-.43-6.72-1.62-9.19-.6-4.34-2.3-5.79-6.13-6.72-7.57-7.91-5.79-2.98-5.79-2.98c0,0-3.83-1.79-7.23-1.62s-5.87-.87-7.57-.01-6.38,3.76-8,6.05-5.19,5.87-8.77,11.06-6.13,9.7-4.77,10.81,1.53-.09,1.53,2.21-.68,4.6,1.11,4.6,4.17-.51,6.72,1.79,2.38,2.21,4,.68,2.89-2.81,2.89-2.81"/>
    <path class="cls-2" d="m132.06,61.92s1.21-2.62.32-4.21-1.98-2.62-3.06-2.94-3.13-.19-4.85,1.47-3,4.21-3.45,6.64-.19,4.09,0,5.87.57,3.77,3.13,4.6,2.68,1.21,2.94,1.53,1.79.32,1.09-1.91-1.66-3.89-2.17-4.98"/>
    <path class="cls-2" d="m128.04,62.56s1.98-.77,2.62-2.36.77-2.81,0-3.26-2.68-1.34-4.72.57-3.13,3.32-3.32,5.87-.32,3.83,0,4.28"/>
    <path class="cls-2" d="m107.99,66.42s-1.97,3.87-3.06,5.15-1.85,1.98-1.85,1.98"/>
    <path class="cls-2" d="m118.72,83.31s1.85,5.68,2.74,7.02"/>
    <path class="cls-2" d="m154.59,62.19s-1.08,5.04-1.28,6.18-.38,2.49-.38,2.49"/>
    <path class="cls-2" d="m132.71,59.75s7.97,10.09,8.54,11.11.77,1.79.77,1.79"/>
    <line class="cls-2" x1="127.08" y1="74.88" x2="131.19" y2="82.73"/>
    <path class="cls-2" d="m150.32,77.75s-.19,3.77-.7,5.87-1.15,2.81-1.91,3.45-1.02,1.21-1.02,1.6.19.7-1.53,1.98-2.87,2.55-5.04,3.51-6.77,1.53-7.66,1.53-.77-.89-1.06-2.43-1.36-9.26-1.36-9.26c0,0-.26-1.21,0-1.28s2.43.13,3.77,0,2.68-.19,3.89-1.02.89-.64,1.79-2.9,1.6-4.95,2.11-6.16.19-1.66,1.28-1.28,4.15,3.13,4.85,3.51,1.21,1.85,1.21,1.85"/>
    <path class="cls-2" d="m132.67,58.6s15.61,11.42,16.88,12.64,2.04,1.86,2.04,1.86"/>
    <path class="cls-2" d="m152.27,71.24s-1.61,2.64-2.72,4.69-1.62,2.89-1.66,3.62.51.3,1.28-.47,1.45-1.4,2.85-4.04,1.89-3.42,1.4-3.8-.65-.26-1.15,0Z"/>
    <path class="cls-2" d="m131.85,95.42s-1,1.42-2.22,1.86-1.53,0-1.53,0"/>
    <path class="cls-2" d="m107.99,76.35s-1.97-1.53-3.44-2.17-3.38-1.66-4.79-2.17-2.17-1.22-3.19-.77-1.6,1.52-1.21,2.48,1.47,2.5.83,3.65-2.35,1.21-.95,1.79,4.78.57,7.4,2.94,9.38,6.7,12.7,7.53l3.32.83s.89-.19,1.15,1.02.51,3.83,1.66,4.21,2.68-.26,3.32-.83,1.09-.96-.57-2.04-3.38-2.94-5.49-5.55-4.72-6.26-6.57-7.66-4.16-3.26-4.16-3.26Z"/>
    <path class="cls-2" d="m95.24,79.16s-3.9,4.85-6.26,8.36-4.09,4.98-6.13,10.47-4.66,13.91-4.98,16.98.45,10.98.83,14.36c.38,3.38,2.04,10.85,2.49,13.28s3.13,7.85,3.45,8.62"/>
    <path class="cls-2" d="m80.04,136.92s.32,10.53,1.28,15.9c.96,5.36,2.43,15.96,2.94,18.51s.96,5.94.96,5.94l.83,3.51"/>
    <path class="cls-2" d="m99.32,159.01s-6.06,11.49-8.43,13.72-3.77,3.32-3.77,3.32"/>
    <path class="cls-2" d="m100.15,169.41s-4.4,7.79-9.06,10.53-5.43,2.17-5.87,1.79"/>
    <path class="cls-2" d="m85.21,177.26s-1.91,1.34-2.17,2.94-.19,2.49,1.66,3.89,8.81,5.04,12.32,6.45,4.09,3,9.51,3.77,13.66,2.68,16.91,2.74,8.55.57,11.04,1.09"/>
    <path class="cls-2" d="m149.11,184.22s-.83,2.94-.77,3.96-.19,5.36-.77,7.28-.89,1.4-.26,2.68.51,2.3,0,3.06-1.15.89-.7,1.6,1.15,2.17.7,3.83-.37,2.81-.85,3.57-.93,2.04-2.02,2.43-1.53.45-1.79,0-.83-2.04-1.85-3-2.87-1.53-4.66-2.23-5.62-2.23-5.62-2.23"/>
    <path class="cls-2" d="m85.21,184.45s-1.21,1.37-1.85,3.25-.96,2.27.38,3.54,5.49,3.13,8.04,3.38,5.62.06,7.85,0,5.11,2.11,5.11,2.11"/>
    <path class="cls-2" d="m89.42,191.37s1.85.13,3.8-.32,2.45-1.08,2.45-1.08"/>
    <path class="cls-2" d="m95.67,192.2s2.5-1.04,4.56,0"/>
    <path class="cls-2" d="m83.74,191.24s-2.43,3.26-2.43,5.87.13,4.4,0,6.89-.22,2.74,1.61,4.09,5.98,3.24,12.24,4.84,6.19,2.56,6.51.33.06-5.11,1.34-7.09,1.6-2.74,3.13-2.23,5.74,1.66,8.87,4.02,2.62,3,3.32,2.68,6.57-6.06,6.57-6.06"/>
    <path class="cls-2" d="m87.7,200.24s10.28,2.21,13.85,2.67,4.01.9,4.01.9"/>
    <path class="cls-2" d="m84.7,191.97s.63,2.34,3.89,4.03l3.26,1.69"/>
    <path class="cls-2" d="m91.79,194.63s3.63,1.85,4.85,2.43,3.6,2.11,3.6,2.11"/>
    <path class="cls-2" d="m105.56,202.91s4.16-.82,11.37.33,9.26,1.21,12.26,1.53,10.66,1.02,13.28,2.04,3,1.02,3,1.02"/>
    <path class="cls-2" d="m138.06,196.89s3.96,1.37,5.68,2.27,2.36,1.72,2.36,1.72"/>
    <path class="cls-2" d="m105.56,201.46s-.51-4.12-.44-5.74-.89-6-.89-8.01-.57-16.63-.7-20.17c-.13-3.54,0-3.86,0-3.86"/>
    <path class="cls-2" d="m117.51,189.65s4.02-.06,6.83-1.47,6.51-.45,8.04-.48"/>
    <path class="cls-2" d="m100.83,80.85s-1.19,5.07-.94,8.96.94,5.99.94,5.99"/>
    <path class="cls-2" d="m78.89,126.84s.38-7.47,2.68-11.65,5.74-9.03,10.6-13.31,7.85-6.41,9.57-6.46,7.91.46,12.06,3.78,8.74,12.57,10.21,15.99,2.04,5.84,2.36,7.69.89,2.94.96,4.34-.45,3.77-.89,6.26-.13,9.77-.06,11.11-.06,4.72-.06,4.72"/>
    <path class="cls-2" d="m108.25,128.05s6.51,14.17,11.68,17.36c5.17,3.19,6.78,3.64,7.41,4.34s.38,1.66.38,2.3-.5,1.02-.38,1.85.43,1.34.43,1.34c0,0-.05.38-.75.38s-14.81,3.13-18.13,3.83-5.81,1.6-6.57,1.85-.96.64-1.79-.45-1.66-2.87-2.3-4.09-2.04-4.15-3.57-6.89-2.74-6.89-3.26-8.17-1.34-3.32-1.34-3.32"/>
    <path class="cls-2" d="m82.08,121.16c.19.06,1.79.57,2.17,2.68s1.72,10.02,3.32,13.34,4.47,6.34,4.47,6.34"/>
    <path class="cls-2" d="m79.28,127.54s.26,3.06,2.36,4.53,4.4,3.26,4.4,3.26"/>
    <path class="cls-2" d="m98.82,157.92s6.18-2.23,12.24-3.63,16.71-3.06,16.71-3.06"/>
    <path class="cls-2" d="m99.53,159.26s8.35-3.06,14.66-4.21,13.25-2.03,13.25-2.03"/>
    <path class="cls-2" d="m125.35,93.95s1.11.72,2,.85.76.06.76,1.28.7,7.02.7,8.23.64,3.7,1.66,5.11,1.53,5.11,2.55,6.32,2.23,1.72,2.62,3.38,2.11,8.36,3.32,10.34,1.28,10.28.77,14.49-2.04,8.43-2.04,8.43"/>
    <path class="cls-2" d="m151.15,165.9s-.57-9.89-2.04-13.53-4.15-10.28-4.66-12.7-1.34-7.21-2.49-10.28-3.38-8.55-4.47-10.53-1.91-5.81-2.36-7.72.45-6.7,0-7.79-1.53-3.13-1.53-4.4-.48-1.98-.91-2.11-1.5-.64-1.5-.64"/>
    <path class="cls-2" d="m108.3,86.17s7.68,8.08,9.15,9.25l1.47,1.17"/>
    <path class="cls-2" d="m121.05,95.42s4.48,7.86,6.72,11.89,4.74,7.56,4.74,7.56"/>
    <line class="cls-2" x1="122.42" y1="95.81" x2="128.49" y2="105.71"/>
    <path class="cls-2" d="m133.47,98.18s-.51.32-1.98,0-2.35-.45-2.35-.45"/>
    <path class="cls-2" d="m129.14,98.95s3.69,2.16,5,2.13"/>
    <path class="cls-2" d="m112.85,112.67c.19.13,10.34,12.38,11.74,13.47s2.75,2.17,2.75,2.17"/>
    <path class="cls-2" d="m116.04,106.99s7.66,9.64,8.55,11.81,1.64,3.28,1.64,3.28"/>
    <path class="cls-2" d="m117.57,115.19s7.53,9.16,8.23,9.93,1.54,1.79,1.54,1.79"/>
    <path class="cls-2" d="m112.85,94.67s6.38,7.02,7.6,8.94,6.84,10.53,6.9,12.83.7,7.91.76,9.19"/>
    <path class="cls-2" d="m132.96,133.09s-3.13.51-4.09.83-2.09.96-2.09.96"/>
    <line class="cls-2" x1="81.5" y1="206.73" x2="81.5" y2="209.88"/>
    <path class="cls-2" d="m103.47,205.23s7.52,2.73,8.87,2.6,2.29-.15,2.29-.15"/>
    <path class="cls-2" d="m97.96,213.72s-4.64.5-6.87.56-5.11-.13-6.83-.83-1.66-1.6-1.98-2.55-1.33-1.28-1.02-.64,1.21,3.89,1.53,5.94,2.11,9.38,3.32,12.89,2.62,8.68,3.77,9.45,3.45,2.81,4.85,4.15.19,1.85,2.55,1.28,5.23-1.85,6.51-2.17.63-1.34.73-2.49-1.11-8.04-1.43-11.94-1.58-13.21-1.58-13.21"/>
    <path class="cls-2" d="m89.87,238.54s3.96,5.81,4.47,7.28.64,2.3,2.23,4.02,1.72,2.49.83,3.26-1.72,1.47-2.04,3.06,1.47,3.13,1.4,4.6,0,10.34-.26,11.74-.38,3.89-.38,3.89c0,0-.57,3-.51,4.85s-1.15,5.74-1.4,7.98-.21,9.13-.3,11.87.62,12.26.36,16.6-.53,12.06-.36,13.98,1.89,5.87,1.89,8.49-1.21,4.15-.57,6,3.38,4.91,6.51,5.94c3.13,1.02,7.85,2.55,12,1.72s5.36-2.11,6.38-3.32c1.02-1.21,1.4-3.32,1.4-3.06"/>
    <path class="cls-2" d="m117.64,349.73s4.53-2.43,6.13-3.83,3.57-3.13,4.02-6.64,1.53-8.55,2.04-12.32.83-5.23,1.28-7.72,1.21-3.19,1.02-7.34-.32-6.57-.32-6.57"/>
    <path class="cls-2" d="m124.21,309.46s6.64-3.57,8.49-4.85,2.04-1.85,1.98-3.51-.26-1.98,1.34-3.96,2.49-3.89,2.87-6.89.96-10.66,1.66-15.26,1.6-10.98,1.91-16.21,1.47-14.11,1.34-18.51-.38-10.02-.38-14.04-.45-9-.45-9"/>
    <path class="cls-2" d="m146.23,210.61s-.82,3.29-1.33,4.76-1.59,6.7-1.59,6.7"/>
    <path class="cls-2" d="m121.03,208.31s5.54.81,8.29.43,5.62-1.82,5.62-1.82"/>
    <line class="cls-2" x1="118.34" y1="210.65" x2="118.34" y2="215.95"/>
    <line class="cls-2" x1="134.49" y1="212.18" x2="134.49" y2="207.12"/>
    <path class="cls-2" d="m137.41,207.87s1.1,4.88-.56,8.07-2.36,3.57-3.77,3.64-6.57-.19-9.51-.77-5.11-1.15-6.06-3.89-2.05-6.62-2.05-6.62"/>
    <path class="cls-2" d="m129.82,219.5s.52-4.64.71-5.34.64-1.28,1.85-1.47,5.39-.51,5.39-.51"/>
    <path class="cls-2" d="m137.77,213.73s-2.39-.42-3.28,0-.57.49-1.47.3-2.01-.73-2.01-.73"/>
    <line class="cls-2" x1="133.08" y1="219.58" x2="133.79" y2="214.1"/>
    <path class="cls-2" d="m114.06,207.84s.24,1.72.57,2.81,3.45,6.89,4.16,9.57,3.83,19.34,4.28,22.15-.06,9.32-.38,13.85-2.11,21.77-2.74,27.38c-.64,5.62-2.23,20.17-3.26,22.34s-1.91,6.51-1.6,10.21,2.55,11.49,1.72,16.66-1.85,7.34-1.47,11.62.32,6.06.83,6.7,1.47,1.43,1.47,1.43"/>
    <path class="cls-2" d="m106.87,263.34s-2.81,8.29-5.11,11.44-6.15,6.47-6.15,6.47"/>
    <path class="cls-2" d="m97.88,252.49s4.82-5.97,5.59-7.24"/>
    <path class="cls-2" d="m96.44,272.94s.71-4.38,1.44-6.42,2.1-4.6,2.1-4.6"/>
    <path class="cls-2" d="m131.91,307.29s3.92,1.27,5.26,2.17,2.11,2.55.77,4.85-3.13,3.32-4.34,3.96-2.49.96-2.49.96"/>
    <path class="cls-2" d="m131.87,316.09s3.32-.61,4.91-1.66,1.85-1.98,1.85-1.98"/>
    <path class="cls-2" d="m127.79,339.26s10.4,4.85,13.15,8.49,3.06,4.85,1.28,8.17-4.66,4.72-8.3,5.81c-3.64,1.09-8.68,1.21-11.17.64-2.49-.57-3.45-1.09-6.77-2.55-3.32-1.47-10.6-3-13.91-4.09s-5.49-3.05-7.21-4.75.23-6.43.23-6.43"/>
    <path class="cls-2" d="m114.06,354.06s6.7,4.04,12.26,4.55,11.68-.85,13.72-2.27,3.27-4.06,3.27-4.06"/>
    <path class="cls-2" d="m145.54,143.2s6.24,2.09,9.5,2.47,9.28,1.02,9.28,1.02"/>
    <path class="cls-2" d="m150.64,160.14s5.51-.34,8.49-.47,3.7-.47,3.7-.47"/>
    <path class="cls-2" d="m168.06,147.24s2.26-.34,4.04-.55,6-.47,8.64-.3,4.6.4,4.6.4"/>
    <path class="cls-2" d="m178.87,147.5s3.96.6,5.45,1.32,1.57,1.11,2.68,1.32,1.53.85.89,1.79-1.02,1.53-2.72,1.36-2.13-.77-3.06-.64-1.15-.33-2.09.67-2.89,2.31-5.49,3.38-6.47,2.21-6.47,2.21"/>
    <path class="cls-2" d="m127.77,155.24s.77,1.91,4.91,3.19,11.06,5.17,14.76,6.32,14.49,3.96,18.45,4.72,4.09.77,6.06.38,5.81,0,7.85.83,4.72,3.57,7.72,4.66,4.66,1.02,5.94,2.23,1.15,3.13,0,4.15-1.28,1.02-2.49,1.02-2.15-.83-2.15-.83"/>
    <path class="cls-2" d="m185.81,187.2s3.06.98,4.47.3,1.45-1.57,1.49-2.43-.79-2.32-.79-2.32"/>
    <path class="cls-2" d="m181.85,189.63c.21.04,1.91,1.15,3.28.72s2.03-1.33,2.25-2.77"/>
    <path class="cls-2" d="m103.12,161.04s1.28,8.38,2.82,9.74,3.66,2.38,5.7,3.32,7.25,5.19,13.71,7.06,16.93,3.06,21.7,3.06,12.17-.13,15.79.23,4.04.11,6.51,2.41,4.17,2.78,6.72,3.82,3.06,1.2,4.68.57c0,0,1.22-.99,1.63-1.37"/>
    <path class="cls-2" d="m183.82,148.62s3.64-3.58,7.22-8.95,7.02-11.49,7.66-12.57.77-1.47,1.34-1.09,16.09,11.62,18.96,13.66,6.7,4.42,9.57,5.28,5.17,1.17,8.3,4.55,2.43,2.87,2.43,2.87c0,0,0,.57-1.53.83s-12.32,2.43-18.45,6-12.06,8.11-16.28,10.79-10.3,7.06-10.3,7.06"/>
    <path class="cls-2" d="m166.08,160.14s-.7.18,0,.9,6.53,8.73,6.53,8.73"/>
    <path class="cls-2" d="m163.94,147.8s-.09-1.18.68-1.46,1.83-.18,2.64,0,1.32.14.81,1.46-.68,2.3-.72,3.49.17,1.57-.13,1.57h-3.28s-.38.34-.38-.49.38-4.57.38-4.57Z"/>
    <path class="cls-2" d="m163.57,152.63s-1.03,1.4-1.38,2.26c-.38.93-.59,2.14-.19,3.1.64,1.55,2.04,2.08,3.65,1.89,1.43-.17,2.83-.97,3.27-2.41.35-1.16-.22-2.5-.65-3.57-.33-.83-.9-1.52-.9-1.52"/>
  </g>
  <g>
    <path class="cls-1" d="m92.45,82.73s-4.88,6.37-6.41,8.91-3.63,7.05-5.14,11.95-3.17,10.07-3.1,12.89.15,5.91.59,9.87c.44,3.96,1.87,11.64,1.87,11.64,0,0-.08,5.03.37,9.16l2.03,14.43,1.49,9.17,1.07,6.51s-1.69,1.11-1.96,2.26-.55,2.48.1,3.23,1.86,1.7,1.86,1.7c0,0-1.36,1.71-1.85,3.25s-.62,2.34-.32,2.73.7.81.7.81c0,0-2.24,2.62-2.33,4.91s-.15,9.08-.15,9.08v.87s.24.63.24.63v3.15l-.24.38,2.95,12.23,3.49,11.45s1.12,3.06,1.4,3.55,2.42,3.52,2.42,3.52c0,0,2.43,3.67,2.82,4.8s.67,2.24,1.67,3.38,1.87,1.7,1.87,2.5v.8s-2.11,1.6-2.38,3.14,0,1.88.49,2.9.77,1.01.76,3.4-.23,10.57-.23,10.57l-.88,7.7s.02,1.46-.1,2.24-1.22,5.39-1.32,6.78-.26,9.9-.26,9.9l.34,13.34-.29,11.35s-.24,7.66.14,9.07,2,5.77,1.65,7.84-1.2,5.8-1.65,7.17.13,2.56,1.05,3.43,3.94,3.57,6.87,4.41,10.95,2.84,13.04,3.73c2.09.9,5.03,2.6,7.64,2.91s8.44.79,12.28-.99,5.6-2.4,6.78-4.77c1.19-2.37,1.95-4.4,1.5-5.15s-2.55-4.53-5.24-6.32c-2.69-1.79-6.2-3.8-6.2-3.8l-4.09-2.07,1.33-7.9,1.46-9.24.53-2.9s2.2-.43,3.77-1.7,2.58-2.31,3.42-3.93.14-3.07-.49-3.6-5.89-2.7-5.89-2.7l-.1-1.98s2.1-.95,2.48-2.13.36-3.45.36-3.45c0,0-.32-.36.93-2.02s2.88-3.86,3.24-6.94,1.25-12.01,2.04-17.83,1.93-18.16,1.93-18.16l1.02-12.93s-.09-4.34-.17-6.64-.33-14.38-.33-14.38l2.8-9.74s.62-1.47.87-2.78.81-2.73.33-3.94-.7-1.96-.18-2.91.84-1.78.37-2.88-.24-2.13-.08-2.63.8-3.24.86-5.51.38-4.45.38-4.45l.45-1.77h8.16s8.19-.1,9.69.88,3.72,3.25,5.66,4.11,5.39,2.66,6.61,2.4,2.49-1.17,2.49-1.17c0,0,.09-.82.67-.57s2.44,1.06,3.43.19,1.54-2.32,1.54-2.32c0,0,2.12.3,2.93-.24s1.71-1.36,1.49-2.43-.79-2.32-.79-2.32c0,0,1.69.28,2.49-1.02s1.1-2.46.69-3.14-1.42-1.54-1.42-1.54c0,0,9.07-6.13,13.51-9.21,4.44-3.08,9.06-6.29,11.49-7.7s6.88-3.79,12.44-5.16,8.53-2.05,8.53-2.05c0,0,.72-.56,0-1.38s-2.25-2.96-4.04-4.05-3.58-1.55-6.11-2.55-3.9-1.46-6.74-3.37-18-12.84-18-12.84l-3.8-2.73s-.44-.44-.89.32-5.35,9.15-7,11.64-6.62,8.81-6.62,8.81c0,0-5.43-.51-7.41-.45s-6.82.45-6.82.45l-3.24.45s0-.77-.81-.91-2.33-.18-2.33-.18l-.6.53s-7.25-.57-9.78-1.09-6.94-1.75-6.94-1.75l-2.06-.65s-1.21-4.42-1.86-7.31-1.26-5.36-2.14-7.58-2.96-6.68-4.05-9.45-1.86-4.12-2.17-6.91-.05-5.4-.08-6.81-.72-2.94-1.1-4.07.11-2.45-.67-3.35-2.28-1.53-2.28-1.53l.67-.78s2.77.38,5.51-.44,4.77-1.97,4.77-1.97c0,0,3.35-2.61,3.43-2.68s.93-.91.93-.91c0,0-.12-1.1.76-1.92s1.68-.73,2.19-3.23.87-6.51.87-6.51c0,0,1.43-2.04,2.32-3.88s1.28-2.26.79-2.64-.43-.94-.21-2.24,1.23-6.13,1.23-6.13c0,0,.13-1.39.51,0s.2,1.81,1.04,1.97,1.55-1.26,1.7-2.18.48-4.13.79-5.49-.35-3.15-.81-4.5-1.04-2.46-1.76-4.94-1.08-2.95-2.14-4.05-2.35-2.53-4.21-4.51-1.92-2.59-3.98-3.65-3.84-2.25-6.53-2.93-2.89-.64-5.96-.85-4.21-.44-5.11-.38-2.17.44-3.71,1.44-4.57,3-5.65,4.41-3.51,3.97-6.23,7.62-5.86,8.28-6.63,9.81-1.79,3.64-1.45,4.32,1.96,1.11,1.88,2.89-.44,4.13.33,4.36,1.68-.15,1.05,1.01-1.76,3.36-2.64,4.35-1.85,1.98-1.85,1.98c0,0-3.14-1.7-4.56-2.07s-1.96-.47-2.47.08-1.27.95-.7,2.17,1.21,2.37,1.02,3.01-.4,1.04-.99,1.46-1.04-.13-.59.42.45.94.45.94l-2.79,3.19Z"/>
    <path class="cls-1" d="m150.64,160.14l.51,5.76,11.68,2.9s5.17,1.35,6.71,1.28,3.07-.32,3.07-.32l-6.7-8.94s-.3-.75-1.16-.91-1.92-.72-1.92-.72c0,0-3.28.3-5.14.47s-7.05.47-7.05.47Z"/>
  </g>
</svg>