<?xml version="1.0" encoding="UTF-8"?>
<svg id="Church" xmlns="http://www.w3.org/2000/svg" viewBox="0 0 288.26 381.24">
  <defs>
    <style>
      .cls-1 {
        stroke-width: .75px;
      }

      .cls-1, .cls-2 {
        fill: none;
        stroke: #1d1d1b;
        stroke-miterlimit: 10;
      }

      .cls-2 {
        stroke-width: .5px;
      }
    </style>
  </defs>
  <g>
    <path class="cls-2" d="m158.52,52.72s1.12,2.04,1.48,4.2c.36,2.17.43,6.17.36,7.88-.07,1.71-.72,2.96-.72,2.96"/>
    <path class="cls-2" d="m126.54,80.82s5.87,4.99,6.92,6.13,2.45,3.33,2.45,3.33"/>
    <path class="cls-2" d="m93.53,135.99s-2.36-.79-4.2-2.1c-1.84-1.31-1.23-2.1-.53-5.43.7-3.33,1.31-7.53,1.58-10.24s.35-4.29,1.49-7.97c1.14-3.68,4.38-8.84,5.78-9.98s1.14-2.1,2.89-4.38,3.77-3.33,6.74-4.55,3.68-1.58,5.17-2.63c1.49-1.05,2.36-1.93,3.41-2.45s2.1-1.23,2.89-1.23,3.33.53,3.33.53c0,0,6.74,1.05,9.72,2.54s6.83,4.64,9.81,6.13,9.98,4.55,12.08,5.78,2.98,4.47,4.47,7.97c1.49,3.5,2.36,7.62,2.45,12.61.09,4.99.09,9.02.61,11.91s.88,4.47,2.19,6.13c1.31,1.66,1.31,1.31-.53,2.36s-8.32,3.06-11.47,4.47-3.94,1.93-6.13,2.45-2.71.61-3.06-1.05-2.28-5.6-2.89-8.14c-.61-2.54-.53-6.65-1.4-8.32s-1.66-5.69-1.05-9.81c.61-4.12,3.24-10.24,6.83-13.48,3.59-3.24,6.48-5.43,8.23-5.69"/>
    <path class="cls-2" d="m94.84,105.16s-2.28,4.82-2.19,11.3.61,16.11,1.09,22.24c.48,6.13,3.72,26.36,4.25,32.57.53,6.22,1.05,18.91,1.31,23.99.26,5.08-.61,7.35.96,9.11,1.58,1.75,2.89,1.93,5.43,3.24,2.54,1.31,3.77,1.31,3.77,1.31"/>
    <path class="cls-2" d="m96.33,120.58s3.68,29.95,5.6,38.96c1.93,9.02,5.78,27.84,6.74,35.02.96,7.18.26,15.41.79,16.11s3.94,2.36,6.83,2.98,9.63.53,12.52.53,9.37-.18,13.57-1.05,9.37-1.93,13.83-4.2c4.47-2.28,7-3.24,6.13-5.17-.88-1.93-2.54-7.79-2.71-9.28s-.79-2.54-1.66-5.25-.26-4.2-1.49-7.62c-1.23-3.41-.88-3.94-.35-5.6.53-1.66.44-4.2.44-4.2"/>
    <path class="cls-2" d="m118.39,135.2s5.78,13.13,13.66,22.85c7.88,9.72,14.01,16.11,17.42,18.04"/>
    <path class="cls-2" d="m141.86,186.33s2.71-2.71,5.78-5.08c3.06-2.36,6.65-3.94,6.65-3.94"/>
    <path class="cls-2" d="m125.14,194.91s7.18-.09,12,1.66,10.59-1.75,12.35-2.1"/>
    <path class="cls-2" d="m141.18,143.89s8.56-2.65,13.73-4.58c5.17-1.93,7.18-3.09,7.18-3.09"/>
    <path class="cls-2" d="m145.63,112.34s-4.42,9.81-4.45,16.46c-.02,6.65,0,10.77,0,10.77"/>
    <path class="cls-2" d="m144.05,136.22s2.54-6.1,5.43-9.08,2.8-4.03,2.8-4.03"/>
    <path class="cls-2" d="m127.94,124.25s4.55,8.97,7.79,11.97c3.24,3,3.83,3.35,3.83,3.35"/>
    <path class="cls-2" d="m131.7,125.96s3.95,6.07,7.01,8.18"/>
    <path class="cls-2" d="m162.09,141.37s-.1,3.03.43,7.23c.53,4.2,1.81,7.05,1.81,7.05"/>
    <path class="cls-2" d="m143.01,148.17s4.54,18.19,7.08,21.17,7.79,2.89,10.68,1.05c0,0,13.97-8.27,18.1-12.28,4.14-4.01,9.72-8.59,10.38-9.94s2.56-4.45,4.53-6.81c1.97-2.36,2.43-3.26,2.5-5.14s0-4.31,0-4.31"/>
    <path class="cls-2" d="m163.46,153.16s10.95-4.17,14.63-6.4c3.68-2.23,4.99-3.75,5.98-5.39s1.84-5.05,3.35-6.17,4.66-2.5,5.32-3.81c.66-1.31.92-3.81,2.17-4.14s2.3-.26,2.04.92-.53,4.14-1.18,5.06c-.66.92-1.64,2.69-1.64,2.69"/>
    <path class="cls-2" d="m183.46,142.28s-3.29-.43-3.99-.69-.96-1.01-.57-1.88c.39-.88,6.83-7.35,8.1-8.71s8.54-9.37,8.54-9.37c0,0,.53-.74,1.84-.61s4.16.18,4.16.18c0,0,1.4.26,1.14,1.36s-.09.57-1.23,1.84c-1.14,1.27-4.73,5.07-4.73,5.07"/>
    <path class="cls-2" d="m196.68,127.24s3.62-4.13,4.28-4.78.44-.88,0-.92-4.28,0-4.28,0c0,0-.36-.18-.8.31s-16.33,17.56-16.33,17.56c0,0-.61.79,0,.92s4.65.8,4.65.8"/>
    <path class="cls-2" d="m179.99,138.35s-.13-.61-.22-1.66c-.09-1.05.39-1.31,1.18-1.18s1,.72,1,.72"/>
    <path class="cls-2" d="m183.73,134.38s-.93-.89-1.02-1.55-.09-1.34.83-1.52,2.06,1.13,2.06,1.13"/>
    <path class="cls-2" d="m187.19,130.79s-.85-.58-.85-1.32.44-1.05,1.09-1.05,1.58.39,1.58.39"/>
    <path class="cls-2" d="m162.52,205.16s2.72,6.66,3.24,9.02c.53,2.36,2.01,18.56,1.4,21.36-.61,2.8-1.87,15.15-2.25,19.35-.38,4.2-1.87,21.01-2.39,26.71-.52,5.69-2.01,16.11-2.54,19.53-.53,3.41-.88,3.5-2.01,6.04-1.14,2.54-3.33,6.57-2.36,7.53s1.84,2.28,2.19,4.47c.35,2.19,1.14,3.15,1.05,4.99s.96,2.19,0,3.15-7.88,4.55-10.77,5.69-4.47,1.66-6.13,1.4-3.94-1.75-4.47-3.15-.96-2.01-2.1-4.47c-1.14-2.45-1.14-3.41-1.14-6.13s.53-6.13,0-10.86c-.53-4.73-.88-13.66-1.4-16.55-.53-2.89-.35-6.57,0-8.84.35-2.28,1.14-4.47.44-7.09s-2.1-8.49-2.45-12.43c-.35-3.94-1.84-16.64-3.41-20.75-1.58-4.12-1.58-7.88-4.29-13.83-2.71-5.95-5.69-10.86-7.35-12.17-1.66-1.31-2.36-2.98-2.36-2.98"/>
    <path class="cls-2" d="m102.76,206.22s1.37,4.37,1.98,6.73c.61,2.36,1.23,4.38,1.84,8.93.61,4.55,1.58,9.98,1.66,14.36.09,4.38-1.84,9.37-1.84,11.82s.09,14.8-.26,20.66c-.35,5.87-.61,12.17-.09,15.94.53,3.77,1.75,9.02,1.05,10.94-.7,1.93-2.5,3.41-1.6,4.82s4.05,3.15,6.94,3.06c2.89-.09,9.28-2.45,11.38-2.63s3.59-.7,3.85-2.19-.61-1.4-.96-3.06-.96-2.45.26-4.47c1.23-2.01,1.76-3.24.75-4.55s-.84-4.82-.66-7.44.02-8.58,1.19-13.31c1.17-4.73,1.86-7.39,1.86-7.39"/>
    <path class="cls-2" d="m136.34,275.2s4.9,2.98,7.53,0c2.63-2.98,5.69-8.93,7.62-13.66,1.93-4.73,3.06-9.37,3.06-9.37"/>
    <path class="cls-2" d="m122.16,219.87s17.51,6.13,22.77,7.09,8.32,1.49,8.32,1.49"/>
    <path class="cls-2" d="m122.95,223.46s11.03,6.83,15.41,9.28,7.09,3.77,7.09,3.77"/>
    <path class="cls-2" d="m140.36,215.23s12.71,4.73,14.64,4.64,3.77,1.14,3.77,1.14"/>
    <path class="cls-2" d="m131,218.12s12.08,1.58,15.32,2.89,8.67,1.31,8.67,1.31"/>
    <path class="cls-2" d="m113.4,272.23s9.11-7.71,10.59-11.56c1.49-3.85,3.06-6.57,3.06-6.57"/>
    <path class="cls-2" d="m113.4,251.48s6.57-.61,8.84-2.1c2.28-1.49,3.15-2.54,3.15-2.54"/>
    <path class="cls-2" d="m106.9,296.09s4.25,3.55,9.54,3.02c5.29-.53,10.08-4.31,10.08-4.31"/>
    <path class="cls-2" d="m127.06,296.6s2.8-.21,4.12-.91c1.31-.7,1.88-.89,1.88-.89"/>
    <path class="cls-2" d="m110.93,303.37s-.68,7.82-1.12,10.79c-.44,2.98,0,3.41,0,5.34s.53,3.33,2.63,3.85,4.12,1.23,6.65-.53,3.77-3.06,6.13-6.22c2.36-3.15,3.24-4.47,5.43-5.52s3.54-1.76,3.54-1.76"/>
    <path class="cls-2" d="m158.85,324.15s7.03-.48,8.46-.2,3.14-.11,8.24-.09c5.1.02,5.8.29,7.37,2.56s.7,6.57-.53,8.41c-1.23,1.84-4.82,6.57-8.14,8.32-3.33,1.75-6.65,2.89-10.77,3.94-4.12,1.05-13.31,3.68-16.2,4.38-2.89.7-6.83.44-8.67-.79s-2.63-2.71-2.54-4.73.53-5.68.53-8.1,1.63-5.44,1.38-5.78"/>
    <path class="cls-2" d="m136.32,342.69s.69,3.69,4.03,4.22,9.82-.53,13.94-1.4,12.61-1.66,16.2-3.33,7.27-4.29,9.54-7.09,3.33-4.64,2.63-6.74-.98-3.17-2.9-4.26"/>
    <path class="cls-2" d="m109.66,317.33s.59,2.53,4.36,2.61c3.77.09,4.47-.44,7.53-2.98,3.06-2.54,3.94-4.2,6.65-6.13s5.82-3.43,5.82-3.43"/>
    <path class="cls-2" d="m138.36,325.29s4.47.35,7.44.96,8.41-.96,9.63-.96"/>
    <path class="cls-2" d="m140.72,329.05s4.73-.35,6.17,0,5.56-.79,5.56-.79"/>
    <path class="cls-2" d="m140.36,294.8s5.71-5.76,8.51-8.3,5.25-4.12,5.25-4.12"/>
    <path class="cls-2" d="m88.54,133.19s-2.19,13.48-2.63,16.46-.7,4.82,1.31,6.39c2.01,1.58,9.7,6.57,9.7,6.57"/>
    <path class="cls-2" d="m144.14,94.68c.46-.02,10.18,2.04,11.43,2.1s1.38.17,1.97-1.07,5.52-9.38,5.52-9.38c0,0,.33-.59,0-1.71-.33-1.12-1.25-4.99-1.64-6.7s-1.18-3.02-1.18-3.02c0,0,.13-.59-.99-.39s-4.93.59-7.35,2.89c-2.43,2.3-4.27,5.05-5.45,8.24-1.18,3.19-1.71,5.55-1.97,6.67s-.64,2.37-.33,2.36Z"/>
    <path class="cls-2" d="m163.05,86.34s-7.22-4.79-8.93-5.52-2.99-2.66-2.99-2.66"/>
    <path class="cls-2" d="m155.56,96.78s-7.42-7.22-8.47-7.81-1.39-1.21-1.39-1.21"/>
    <path class="cls-2" d="m138.82,74.13s-.07,1.84-1.05,1.9-2.36-.85-3.61-1.9c-1.25-1.05-2.43-3.41-1.97-6.11.46-2.69,1.58-3.81,2.89-4.6s3.68-.66,4.2-.26,1.07,1.97.57,1.84-3.46-.13-4.31.2-1.97,1.18-2.3,2.76"/>
    <path class="cls-2" d="m138.23,69.44c.99,1.22.39,1.47,0,2.13s-1.31-.13-2.16-.92-1.32-.07-1.45-1.21c-.13-1.14,1.29-2.54,1.29-2.54,0,0,1.07-.99,1.99-1.12s.59.79-.07,1.31"/>
    <path class="cls-2" d="m137.9,62.85s1.27-.61,2.15.31,11.34,14.74,11.34,14.74"/>
    <line class="cls-2" x1="150.63" y1="78.69" x2="140" y2="64.46"/>
    <path class="cls-2" d="m136.69,75.8s5.55,7.91,6.93,9.85,1.8,3.05,1.8,3.05"/>
    <line class="cls-2" x1="145.97" y1="86.97" x2="137.77" y2="76.03"/>
    <path class="cls-2" d="m132.33,67.31s-2.18,1.2-1.85,1.48.37.05.74,0,.9-.32.9-.32"/>
    <path class="cls-2" d="m139.63,62.85s3.38.31,5.68.97,13.53,3.94,14.32,3.94,1.25-.12,1.25.37-.99,3.38-1.31,4.89c-.33,1.51-.85,1.82-1.18,1.47s-.07-1.37.2-2.67c.26-1.3,1.05-4.05,1.05-4.05"/>
    <path class="cls-2" d="m140.77,64.04s11.64,2.86,14.79,3.78c3.15.92,3.75,1.11,3.75,1.11"/>
    <path class="cls-2" d="m135.14,78.69s3.87,5.3,5.25,8.28c1.38,2.98,1.77,7.53,1.77,7.53"/>
    <line class="cls-2" x1="144.14" y1="94.68" x2="141.6" y2="94.22"/>
    <path class="cls-2" d="m121.15,70.64s6.31-.81,8.21-3.32c1.9-2.51,3.07-5.6,5.24-6.19s4.14.07,5.03.53,1.14,1.32,1.14,1.32"/>
    <path class="cls-2" d="m146.09,64.04s3.02-2,5.29-3.8,1.48-3.05,1.15-4.3.1-1.97,1.07-2.36,3.47-.2,4.19-.53,1.18-.53,2.04.39,1.84,2.04,2.04,4.53c0,0,.26,1.63,0,2.92-.26,1.29.66,2.2,1.64,0s2.23-6.35.72-8.12c-1.51-1.76-2.52-2.55-3.85-3.08s-2.08-1.25,0-.92,2.67,1.12,3.65,1.77.42-.85-.84-3.09-.93-3.35-3.89-5.25c-4.83-3.11-9.2-7.57-15-8.78-1.43-.3-3.01-.15-4.46-.07,0,0-6.74.79-10.42,3.41s-4.47,4.2-5.78,7c-1.31,2.8-3.94,10.59-4.12,14.27s.88,7.88,1.31,10.07c0,0,1.23,7.97,0,11.12-1.23,3.15-2.89,5.78-2.89,5.78"/>
    <path class="cls-2" d="m121.15,50.64s.22,1.47,2.32-1.42c2.22-3.05,4.89-6.14,8.92-6.39,4.54-.28,9.55,2.31,12.92,5.17,2.06,1.75,4.58,7.13,7.13,7.03"/>
  </g>
  <g>
    <path class="cls-1" d="m102.51,93.88s3.44-2.59,5.33-2.79,4.03-1.92,5.36-2.95,3.26-2.2,4.28-3.12,1.75-1.58,2.7-4.2,1.36-5.07,1.16-7.63-.94-5.41-1.38-9.52-.91-5.29.14-9.17,2.98-10.88,5.5-14.22,5.39-4.97,9.01-5.82,7.93-1.87,10.81-.76,9.46,5.45,11.68,6.98,4.14,2.51,4.97,4.35,2.12,4.2,2.29,4.73.91,1.66-.31.78-1.83-1.45-3-1.64-2.57-.33-.66.79,5.04,3.04,4.55,5.8-1.29,5.44-1.74,5.99-1.53,1.4-1.37-.13.56-3.7-.35-5.38-3.59-4.31-2.39-2.06,1.31,6.87,1.3,8.73-.39,4.2-.39,4.2c0,0-.43.85.13.89s.9.13.52,1.43-1.33,4.7-1.33,4.7c0,0-.49.76.14.73s1.02-.03,1.59,2.09,2.01,7.93,2.01,7.93c0,0,.62.66-.86,3.13s-4.56,7.76-4.56,7.76c0,0-.26,1.51-1.79,1.29s-12.44-2.32-12.44-2.32c0,0-.64.3,1.25,1.17s7.69,3.36,8.96,3.99,2.54,3.32,3.27,5.16,2.09,4.26,2.71,7.52.94,5.19,1.02,9.4,0,7.91.59,10.74.29,3.52,1.6,5.28,1.65,2.35.65,2.89-1.43.7-1.37,2.29.26,5.6.76,7.71.61,2.5.61,2.5c0,0,4.96-1.84,8.53-3.46s5.26-2,7.78-4.02,3.33-3.39,3.33-3.39c0,0-2.63-.27-3.33-.61s-1.52-.9-.93-1.79,1.06-1.43,1.06-1.43c0,0-.28-1.81-.28-2.24s.81-.92,1.35-.72,1.29.72,1.29.72l1.48-1.84s-.86-.47-.89-1.54-.11-1.67.7-1.52,2.06,1.13,2.06,1.13l1.59-1.66s-1.13-.54-.85-1.32.35-1.16,1.09-1.05,1.69.26,1.69.26l6.7-7.17s.38-.56,1.75-.48,3.96.16,3.96.16c0,0,1.21.15,1.14.88s-.19,1.18-1.23,2.31-4.47,4.79-4.47,4.79c0,0-.27.48-.48,1.61s-.19,1.81-.19,2.75.28,3.71-.54,5.04-3.08,4.09-3.99,5.45-1.75,3.02-2.45,4-1.36,1.39-3.15,3.39-4.25,3.94-6.6,6.04-6.31,5.04-8.12,6.23-4.9,2.84-6.01,3.7-3.21,2.16-4.22,2.75-2.12,1.13-2.96,1.29-1.69.38-1.69.38c0,0,.17,1.61-.18,3.03s-.65,2.2-.69,2.71-.1,1.44.37,2.84.96,2.41,1.24,4.89.26,2.85.77,4.3,1.25,3.11,1.47,4.41.39,2.2.82,3.71,1.25,4.22,1.53,4.96.63,2.55.93,3.3,1.79,4.58,2.23,5.92,1.01,2.59,1.05,4.73.88,9.58.88,9.58c0,0,.35,5.62.31,7.02s-.38,3.59-.53,4.7-.78,6.21-1.15,9.78-1.33,14.06-1.53,16.32-.83,9.55-1.31,14.56-1.17,10.81-1.17,10.81c0,0-1.28,9.92-1.67,11.94s-.56,2.79-1.35,4.49-2.53,5.21-2.85,6.38-.56,1.76.29,2.98,1.34,2.38,1.78,4.15.73,2.35.87,3.22.16,1.62.16,1.62c0,0,5.23-.29,6.12-.29s2.64.4,3.53.29,4.43-.09,5.7-.29,4.73-.05,6.39.45,2.61,2.27,2.83,3.08.69,2.98-.09,5.33-3.3,5.32-4.14,6.22-2.06,2.51-3.83,3.53-4.28,2.27-6.28,2.94-6.28,1.56-10.26,2.92-9.82,2.78-11.28,3.07-3.67.82-5.8.29-2.87-.46-4.41-2.12-1.4-2-1.24-3.91.33-2.83.43-5.32.19-3.98.56-5.16.91-3.11.91-3.11c0,0-.66-1.33-1.66-3.38s-1.53-2.46-1.93-4.83-.01-5.09.03-7.6-.05-4.94-.05-4.94l-.19-1.99s-.52.26-2.44,1.23-3.3,1.82-4.47,3.34-2.82,3.98-5.08,6.36-3.58,3.55-6.35,3.68-3.96-.42-4.69-1.13-1.04-1.17-1.32-2.53-.24-3.32-.19-4.29.46-4.13.7-6.51.58-6.12.58-6.12c0,0-1.47.14-3.22-1.13s-2.66-1.67-2.4-3.09,1.19-1.41,1.59-3.07.49-3.22,0-6.18-1.14-6.02-1.13-9.47.28-11.15.55-16.68-.06-12.08.08-14.59.39-3.76.77-5.51.97-4.81,1.06-7.14-1.67-14.62-1.67-14.62c0,0-.11-2.42-1.25-6.68s-2.57-8.99-2.57-8.99c0,0-.29-.08-1.7-1.08s-1.73-1.43-1.74-3.38-.05-7.12-.18-9.92-.5-10.33-.5-10.33l-.67-10.51-1.06-8.56s-1.81-1.01-3.78-2.32-5.65-3.76-6.71-4.87-.9-2.43-.77-3.53,1.58-10.42,1.58-10.42l1.31-8.1s-.64-.8-.28-2.36.99-3.49,1.58-8.31,1.11-7.93,1.44-10.22,1.17-4.31,2.77-6.95,2.19-3.74,3.14-4.65,1.34-1.43,1.9-2.48,1.46-2.48,2.1-3.12,1.31-1.21,1.31-1.21Z"/>
    <path class="cls-1" d="m129.8,259.67s-1.66,6.15-1.94,8.07-.68,10.01-.8,11.87-.44,4.62,0,5.62,1.32,1.72,1.19,2.68-.92,2.58-1.27,3.24-.97,1.17-.72,2.42.8,3.05.8,3.05c0,0,2.01,0,3.31-.59s2.68-1.22,2.68-1.22c0,0-.74-2.98-.54-6.21s.22-2.42.63-5.83.55-5.04-.09-6.99-1.87-7.36-2.19-10.51-.75-6.79-1.07-5.59Z"/>
  </g>
</svg>