<?xml version="1.0" encoding="UTF-8"?>
<svg id="SKHLMC" xmlns="http://www.w3.org/2000/svg" viewBox="0 0 288.26 381.24">
  <defs>
    <style>
      .cls-1 {
        fill: #010101;
        stroke-width: 0px;
      }
    </style>
  </defs>
  <path class="cls-1" d="m117.16,307.02c.18-1.12.36-2.23.58-3.35.76-3.66,1.52-7.32,2.32-10.98.13-.62,0-.98-.45-1.38-2.23-2.1-4.46-4.24-6.65-6.38-.4-.4-.89-.54-1.43-.62-3.48-.54-6.92-1.34-10.31-2.32-4.15-1.25-7.5-3.75-10.62-6.65-.18-.18-.36-.4-.49-.62.04-.04.09-.09.13-.18.18.13.4.27.58.45,2.86,2.59,5.85,5.04,9.64,6.25,2.19.71,4.46,1.25,6.69,1.83,1.43.36,2.86.58,4.33.85l.09-.18c-.45-.4-.89-.85-1.43-1.21-2.77-1.92-5.36-4.06-7.85-6.29-3.57-3.12-7.59-5.8-10.76-9.42-2.41-2.72-4.42-5.8-5.22-9.46-.49-2.19-.18-4.33.76-6.34,1.25-2.63,2.95-4.95,4.91-7.1,1.74-1.92,3.66-3.7,5.49-5.53.13-.13.27-.22.49-.36-.22-.31-.36-.58-.49-.8-2.14-3.03-4.28-6.07-6.43-9.1-3.44-4.82-5.58-10.18-6.38-16.07,0-.13-.04-.27-.09-.54-.27,0-.54-.04-.8,0-1.03.22-2.1.4-3.12.71-3.12.98-6.34,1.65-9.64,1.83-.13,0-.27.04-.54.09-.36,1.65-.76,3.3-1.12,4.95-.31,1.38-.58,2.77-.85,4.2-.13.76-.18,1.52-.04,2.32.49,3.39.89,6.78,1.43,10.18.58,3.66,1.29,7.32,1.92,10.93.4,2.28.76,4.55.71,6.92,0,.45.22.85.36,1.29.09.22.18.45.27.71.67,3.75,1.43,7.5,2.01,11.25.45,2.9.71,5.85,1.03,8.79.4,4.11.71,8.26,1.07,12.36.54,5.8,1.12,11.65,1.7,17.45.04.49.04.98.09,1.52h-.62c-.18-2.14-.31-4.24-.49-6.38-.22-2.68-.49-5.4-.76-8.08-.36-3.88-.71-7.77-1.03-11.6-.22-2.63-.45-5.27-.67-7.9-.36-4.11-1.07-8.21-1.87-12.27-.31-1.65-.71-3.35-1.03-5-.13.04-.27.04-.27.04-.45,1.47-1.61,2.14-2.95,2.54-2.99.89-5.94,2.01-8.79,3.3-.4.18-.76.45-1.12.62-.62.27-1.25.54-1.83.8-.54.22-1.03.54-1.52.8-.62.36-1.25.71-1.87,1.07-1.52.8-3.12.94-4.86.89-1.47-.04-2.77-.45-4.11-.98-.67-.22-1.16-.67-1.7-1.03-.45-.27-.89-.54-1.38-.8-.13-.09-.27-.22-.36-.36-.22-.27-.4-.58-.71-.76-1.29-.8-2.05-2.1-3.3-2.95-.31-.22-.4-.62-.62-.94-1.74-2.63-3.26-5.36-4.06-8.44-.89-3.39-.45-6.56,1.56-9.46,1.92-2.72,3.79-5.44,5.67-8.17,1.25-1.83,2.32-3.75,3.12-5.85.27-.71.36-1.38.22-2.19-.98-5.8-2.01-11.6-2.9-17.41-.58-3.79-1.03-7.63-1.38-11.47-.4-4.2-.71-8.39-.98-12.59-.22-3.7-.4-7.41-.58-11.11-.31-6.38-.13-12.76.04-19.15.13-4.95,1.47-9.55,4.28-13.7,1.38-2.05,3.17-3.66,5.09-5.18,1.16-.94,2.45-1.74,3.66-2.63.31-.27.67-.58.85-.94.89-1.79,2.45-2.54,4.42-1.96.13.04.27.09.45.13.18-.27.36-.49.54-.76,2.72-4.37,5.04-8.93,7.27-13.57,2.05-4.28,4.78-8.12,7.9-11.65,2.99-3.39,6.69-5.8,11.07-7.01,2.05-.58,4.2-.71,6.34-.98,7.36-.89,14.24.98,20.93,3.66,1.52.62,2.9,1.52,4.33,2.32,1.12.62,2.28,1.16,3.35,1.87,1.29.89,2.68,1.83,3.75,2.99.98,1.07,1.74,2.41,2.37,3.75.85,1.79,1.38,3.66,1.92,5.49.31,1.07.85,2.14,1.21,3.21,1.21,3.3,2.37,6.65,3.57,9.95.58,1.61,1.03,3.21,1.29,4.86.22,1.43.13,2.9-.18,4.33-.27,1.38-.58,2.81-.18,4.28l1.47.18c.4-.71.76-1.34,1.16-1.96.27-.45.58-.85,1.16-.94.85-.09,1.47.54,1.43,1.38-.09.98-.27,1.92-.31,2.9-.04,1.29-.54,2.45-.67,3.75-.04.31,0,.67.18.89.67.94,1.47,1.83,2.1,2.81.67.98,1.21,2.1,1.79,3.12.27.49.45,1.07.76,1.52.71,1.12.8,2.32.62,3.62-.27,1.96-.49,3.97-.98,5.89-.4,1.7-1.16,3.3-1.74,4.91-.13.36-.18.76-.36,1.12-.18.45-.4.89-.62,1.34-1.07,1.74-2.28,3.39-3.7,4.86-1.74,1.79-3.48,3.57-5.27,5.31-.98.98-2.28,1.61-3.53,2.19-.22.09-.54.09-.8.09h-3.17c-.18,0-.4-.04-.58-.09-.85-.27-1.74-.58-2.59-.89-.4-.13-.8-.4-1.25-.54-.94-.4-1.87-.76-2.86-1.07-.4-.13-.85-.13-1.21-.18-1.03,1.52-2.77,6.56-3.12,9.1.22.09.45.27.71.31,3.12.62,6.07,1.83,8.97,3.08,1.96.85,3.7,2.05,5.36,3.48,1.34,1.16,2.68,2.28,3.84,3.57.8.85,1.47,1.83,2.1,2.77.85,1.29,1.96,2.19,3.35,2.86,4.95,2.37,9.86,4.78,14.82,7.14,1.92.94,3.84,1.87,5.58,3.17.31.22.67.36,1.07.49,3.57,1.29,7.19,2.54,10.76,3.88,1.43.54,2.59.18,3.66-.76,1.29-1.12,2.32-2.5,3.21-3.97,5.09-8.39,9.68-17.05,13.12-26.29,2.59-6.92,5.8-13.52,8.93-20.22.54-1.16,1.21-2.28,1.96-3.3,1.47-1.92,2.45-4.02,3.03-6.34.31-1.16.71-2.32.98-3.48.85-3.3,2.23-6.43,3.79-9.46.71-1.38,1.43-2.77,2.05-4.2,1.43-3.12,3.03-6.07,5.44-8.57,1.12-1.16,2.05-2.5,2.95-3.88.67-1.03,1.56-1.65,2.72-1.83,1.38-.18,2.23.58,2.01,1.96-.09.62-.45,1.25-.76,1.83-.27.54-.67.98-1.16,1.61,5.71.54,11.29,1.07,16.83,1.56.62-1.52,1.21-2.95,1.83-4.37.58-1.25,1.7-1.7,2.9-1.12.62.31.71.94.71,1.56v3.7c0,.49,0,.98.4,1.38.13.13.22.36.22.58.09,2.28.18,4.55.27,6.83.04.76.09,1.47.13,2.32.54.04.98.09,1.43.09.94,0,1.92.04,2.9-.04,2.23-.18,3.48,2.32,2.86,3.97-.4,1.03-.67,2.1-1.07,3.12-.18.45-.09.8.13,1.21.67,1.16,1.29,2.41,1.07,3.84-.13.8-.31,1.61-.54,2.41-.62,2.14-1.38,4.28-1.83,6.47-.45,2.05-.58,4.15-.8,6.2-.31,2.95-.13,5.94-.89,8.79-.31,1.16-.89,2.23-1.29,3.39-.94,2.86-2.14,5.62-3.26,8.44-.71,1.83-1.52,3.66-2.19,5.53-.94,2.54-1.83,5.09-2.72,7.63-.67,1.87-1.29,3.75-1.96,5.62-.71,2.1-1.43,4.15-2.14,6.25-.76,2.19-1.52,4.37-2.28,6.56-.76,2.23-1.65,4.37-2.32,6.65-.45,1.43-3.35,8.08-3.84,9.15-.09.27-.36-.18-.22-.45l.71-1.47c.49-1.03,1.65-4.02,1.92-4.86,3.79-10.93,7.59-21.82,11.43-32.71.67-1.83,1.38-3.66,2.1-5.49,1.52-3.84,3.03-7.68,4.51-11.56.94-2.45,1.34-5.04,1.65-7.63.27-2.32.45-4.69.62-7.01.13-2.05.62-4.02,1.25-5.94.54-1.7,1.03-3.39,1.47-5.13.36-1.29.22-2.54-.49-3.7-.09-.13-.22-.27-.31-.4-.04-.04-.13-.04-.31-.09-1.74,2.41-2.19,5.36-3.35,8.08,0-.18-.09-.36-.04-.54.71-2.5,1.43-5,2.63-7.32.85-1.7,1.43-3.57,1.92-5.44.49-1.87-.67-3.12-2.59-3.08-.62,0-1.21.04-1.83.04-1.29-.04-1.65-.04-2.68-.04-.04,1.34-.13,2.63-.18,3.84.58.27.8,0,.98-.36.31-.58.62-1.21.94-1.79.09-.18.27-.36.58-.45-.04.18-.04.4-.18.54-1.29,2.23-2.54,4.46-3.84,6.69-.27.45-.62.89-.98,1.29-.45.54-.98.62-1.43.4-.4-.22-.45-.54-.4-.85.09-.58.31-1.47.54-2.01,1.12-2.99,1.65-6.11,2.05-9.28.36-2.81.62-5.67.8-8.52.09-1.52.04-3.03.04-4.6,0-1.03-.22-1.25-.94-1.43-.94-.22-1.43-.04-1.79.85-.71,1.79-1.43,3.57-1.96,5.44-1.03,3.53-1.96,7.05-2.95,10.62-.71,2.68-1.74,5.22-2.95,7.68-.09.22-.22.45-.31.67-1.61,3.03-2.95,6.2-3.17,9.68-.04.4-.13.8-.27,1.21-.09.31-.27.62-.49.85-.76.85-1.65.67-1.96-.36-.13-.45-.18-.89-.22-1.38-.04-.76,0-1.47,0-2.37-.8-.18-1.7-.36-2.37-.49-.67.58-1.25,1.03-1.79,1.56-.22.18-.31.54-.36.85-.09,1.52-.22,3.08-.27,4.6-.04,1.12.04,2.19.09,3.3.13,4.11.31,8.21.4,12.27.13,4.51-.04,8.97-1.21,13.39-1.38,5.31-2.68,10.67-4.06,15.98-1.87,7.14-4.82,13.88-8.39,20.31-3.21,5.85-6.52,11.65-9.86,17.41-1.38,2.41-2.95,4.69-4.46,7.05-.85,1.29-2.01,2.23-3.17,3.12-.71.54-1.56.76-2.41.54-1.61-.36-3.21-.62-4.78-1.12-3.62-1.12-7.19-2.32-10.8-3.48-.36-.13-.76-.22-1.25-.4.04.36.04.58.13.8.27,1.25.18,2.45-.09,3.7-.71,2.95-1.83,5.71-3.12,8.44-1.83,3.88-3.75,7.68-5.62,11.56-.22.4-.4.8-.67,1.29,2.14.4,4.15.8,6.2,1.16,5.49.89,10.98,1.79,16.51,2.54,3.12.45,6.25.67,9.37.76,2.59.09,5.18.09,7.68-.71.18-.04.36,0,.58.13-.27.13-.58.4-.85.45-1.34.22-2.72.54-4.11.58-2.01.09-4.06-.09-6.07.09-1.12.09-2.05-.36-3.12-.31-.54,0-1.07.04-1.56,0-.54-.04-1.07-.27-1.65-.36-1.29-.22-2.54-.22-3.84-.54-1.34-.31-2.72-.4-4.11-.54-.62-.04-1.29-.18-1.92-.31-2.05-.45-4.15-.67-6.2-1.03-1.79-.31-3.57-.71-5.36-1.12-.8-.18-1.29,0-1.87.58-.85.85-1.47,1.83-1.92,2.9-.18.45-.18.98-.09,1.43.58,2.54,1.25,5.04,1.83,7.54.4,1.79.71,3.57,1.07,5.31.22,1.12.49,2.23.76,3.3.09.36.09.71.09,1.07h-.62v-.45c-1.21-5.58-2.41-11.11-3.62-16.69-.04-.18-.13-.4-.27-.67-.22.27-.36.45-.49.62-1.29,2.14-2.54,4.28-4.06,6.29-2.63,3.53-4.78,7.45-7.94,10.58-.04.04-.04.18-.09.27h-.62c.94-1.07,1.92-2.1,2.77-3.26,1.74-2.37,3.48-4.73,5.04-7.19,2.81-4.28,5.67-8.57,8.21-13.03,2.32-4.11,4.28-8.39,6.25-12.63,1.12-2.41,1.96-4.95,2.86-7.5.36-.98.45-2.1.45-3.17,0-2.45-1.43-4.06-4.2-4.6-.94-.18-1.83-.58-2.63-1.12-.4-.27-.71-.31-1.34-.49v1.25c-.04.8-.04,1.65-.18,2.45-.49,3.62-1.61,7.01-3.26,10.26-3.3,6.52-6.61,13.03-10,19.5-1.96,3.75-4.2,7.36-6.29,11.07-1.12,1.96-2.72,3.26-4.73,4.15-.62.27-1.25.54-1.87.8-.18.09-.36.18-.71.31.49.49.94.89,1.34,1.34.62.62,1.29,1.25,1.92,1.87h-.62c-.22-.27-.45-.54-.71-.8-1.87-1.79-3.79-3.57-5.71-5.36-1.79-1.7-3.57-3.39-5.36-5.09-.18-.13-.36-.27-.62-.45.04.85.09,1.61.09,2.37.18,3.08.31,6.2.49,9.28h-.45c-.04-.94-.09-1.92-.13-2.9-.13-2.9-.31-5.76-.45-8.66,0-.31-.04-.71-.22-.89-.71-.8-1.47-1.47-2.37-2.23-.13.4-.18.62-.27.89-.58,2.77-1.16,5.53-1.74,8.26-.4,1.83-.85,3.66-1.25,5.53l-.18.18h0Zm-7.5-111.35c-.09.04-.18.09-.27.13.09.49.18.98.27,1.43.18,1.03.67,1.74,1.61,2.32,2.63,1.61,4.86,3.57,6.11,6.52.27.58.62,1.12.89,1.7.36.76.71,1.56.98,2.37.13.45.18.89.18,1.38,0,.67-.36,1.16-.98,1.43-.4.18-.89.27-1.34.27-1.79-.04-3.57-.09-5.36-.18-5.09-.36-10.18-.71-15.26-1.07-2.5-.18-5.04-.45-7.54-.58-1.29-.09-2.63-.18-3.88.18v.36c.54,4.55,1.96,8.84,4.28,12.81,2.54,4.33,5.53,8.39,8.52,12.45.09.13.18.31.27.49.36-.22.54-.31.71-.45,1.07-.89,2.28-1.47,3.62-1.83,2.63-.71,5.31-1.38,7.99-1.96,2.41-.54,4.86-.85,7.32-.4.76.13,1.52.27,2.28.4-.18-.36-.45-.54-.71-.76-2.19-1.43-4.64-2.37-7.19-2.9-2.99-.62-6.03-1.16-9.02-1.79-.4-.09-.94,0-1.38-.54.49.04.8,0,1.07.04,2.68.49,5.4,1.03,8.08,1.56,3.08.62,6.11,1.43,8.75,3.35,1.47,1.07,3.03,1.83,4.82,2.14.18.04.31.18.49.27-.04.09-.04.13-.09.22-.31-.09-.67-.13-.98-.22-1.16-.31-2.32-.67-3.53-.89-1.74-.31-3.53-.76-5.27-.67-4.37.27-8.66,1.29-12.85,2.68-1.21.4-2.28.98-3.26,1.79-.94.8-1.92,1.56-2.81,2.45-3.12,2.95-5.89,6.2-8.08,9.91-1.83,3.17-2.01,6.43-.54,9.73,1.52,3.39,3.53,6.43,6.43,8.84,3.62,3.03,7.32,6.03,10.98,9.06,2.59,2.14,5.27,4.15,7.72,6.43,5.4,5.04,10.67,10.22,16.02,15.31,1.43,1.34,2.86,2.68,4.37,4.11,1.12-.49,2.23-.94,3.35-1.47,1.61-.71,2.86-1.83,3.79-3.35.49-.8,1.03-1.56,1.47-2.37,2.99-5.53,6.03-11.02,8.93-16.56,2.28-4.37,4.51-8.75,6.65-13.21,1.74-3.62,2.77-7.5,2.86-11.56.04-1.21,0-1.16-1.07-1.61-5.22-2.14-10.67-3.84-15.8-6.2-.8-.36-1.43-.85-2.05-1.52-1.43-1.61-2.86-3.17-4.42-4.64-2.05-1.96-4.46-3.17-7.36-3.3-2.59-.09-5.18-.27-7.81-.36-2.5-.04-5,0-7.5,0-.22,0-.4-.04-.62-.09v-.22c1.74-.18,3.53-.09,5.27-.13h5.36c1.74,0,3.53.27,5.44.22-.36-.58-.58-.94-.85-1.34-1.47-1.96-3.39-3.48-5.49-4.69-4.64-2.68-9.64-4.42-14.82-5.8-2.32-.62-4.64-.67-6.92.31-.09.04-.22,0-.54-.04.76-.58,1.43-.71,2.1-.89,2.05-.49,4.15-.27,6.11.36,2.9.89,5.76,1.96,8.61,2.9.22.09.49.13.71.22-.45-.67-.94-1.29-1.52-1.7-1.83-1.25-3.66-2.5-5.58-3.57-3.66-2.1-7.54-3.79-11.43-5.4-.36-.13-.67-.31-.98-.45.04-.09.04-.18.09-.22.22.04.45.04.67.13,4.91,2.01,9.77,4.2,14.33,6.96,1.43.89,2.9,1.79,3.97,3.03,1.25,1.38,2.68,2.41,4.33,3.12.18.09.36.22.58.31,2.81,1.65,5.31,3.57,7.01,6.47.13.22.49.45.71.49,2.5.31,4.51,1.56,6.25,3.21,1.65,1.56,3.17,3.3,4.69,4.95.62.67,1.34,1.07,2.32,1.21-.13-.36-.18-.58-.27-.8-2.05-4.95-4.15-9.86-6.16-14.82-1.25-3.03-2.95-5.8-5-8.3-.36-.4-.76-.71-1.07-1.16-1.03-1.34-2.01-2.77-3.03-4.15-.18-.22-.31-.49-.45-.71-.8-1.47-1.61-2.95-2.45-4.42-1.83-3.12-3.79-6.11-6.52-8.57-2.5-2.19-4.91-4.46-7.41-6.65-.62-.4-1.25-.94-1.92-1.52h0Zm-57.75-64.98c-1.25.89-2.5,1.74-3.7,2.63-3.3,2.37-5.8,5.31-7.5,9.02-1.16,2.63-1.96,5.36-2.14,8.21-.18,3.12-.27,6.29-.27,9.42,0,4.24.09,8.48.18,12.72.04,2.32.18,4.64.31,6.96.31,4.51.62,9.02.98,13.52.27,3.03.49,6.11.94,9.15.94,6.25,2.01,12.45,2.99,18.7.13.85.31,1.7.49,2.54h.22c.13-.31.31-.62.45-.94.62-1.7,1.25-3.39,1.79-5.18,1.56-5.27,2.41-10.67,1.96-16.16-.31-3.66-.76-7.32-1.29-10.93-1.38-9.33-3.12-18.61-4.06-28.03-.22-2.37-.22-4.78-.27-7.14,0-.4,0-.8.45-1.25v1.16c-.04.98-.18,2.01-.09,2.99.4,4.02.71,8.03,1.29,12.01,1.16,8.08,2.5,16.11,3.7,24.19.4,2.86.71,5.76.85,8.61.13,2.99-.27,5.98-.71,8.93-.85,5.27-2.81,10.18-4.69,15.09-1.07,2.86-2.95,5.27-4.69,7.77-1.56,2.28-3.12,4.6-4.64,6.92-1.03,1.61-1.29,3.48-1.16,5.36.09,1.56.54,3.08,1.07,4.55,1.87,5,5.22,8.84,9.6,11.74,3.7,2.45,7.54,2.68,11.47.31,1.83-1.12,3.75-2.05,5.71-2.86,2.72-1.12,5.53-2.05,8.3-3.08.45-.18.98-.36,1.29-.71,1.03-1.12,1.61-2.5,1.43-4.02-.27-2.41-.58-4.82-.94-7.19-.71-4.64-1.52-9.28-2.28-13.92-.4-2.59-.8-5.22-1.21-7.81-.13-1.03-.36-2.05-.4-3.08-.18-3.17-.13-6.34.18-9.51.22-2.28.54-4.55.58-6.83.09-3.35-.04-6.69-.13-10.04-.09-2.86-.62-5.62-1.74-8.21-1.87-4.42-3.79-8.84-5.8-13.21-1.61-3.57-3.26-7.14-4.55-10.85-1.43-4.15-1.7-8.44-1.12-12.76.45-3.21,1.21-6.34,2.68-9.28-.8-1.65-1.56-3.3-2.45-4.86-.89-1.47-1.96-2.95-3.08-4.64h0Zm5.09-2.05c1.83,2.14,3.57,4.15,5.27,6.25.8.98,1.29,2.14,1.52,3.39.04.22.09.54.22.67,1.38,1.34,1.79,3.03,1.74,4.86-.04.89-.09,1.79-.18,2.68-.4,3.93-.18,7.77.85,11.56.4,1.47.98,2.81,2.05,3.93,1.79,1.87,3.97,3.21,6.25,4.42.27.13.54.22.8.31,2.32.76,4.46.13,5.71-2.01.49-.85.94-1.79,1.29-2.72.45-1.16.76-2.37,1.12-3.57.67-2.54,1.65-4.95,2.99-7.19.36-.58.54-1.21.67-1.87.31-1.43.62-2.86,1.07-4.24.89-2.68,2.72-4.46,5.4-5.31.49-.13.94-.31,1.43-.49,1.03-.31,2.05-.45,3.17-.13.85.27,1.74.31,2.63.54.94.27,1.92.22,2.86.09,2.81-.45,5.58-1.21,8.3-2.1,3.53-1.16,6.69-2.81,9.19-5.62,4.15-4.6,5.85-10.04,5-16.2-.36-2.63-1.43-5.09-2.5-7.5-1.07-2.37-2.68-4.28-4.95-5.62-.62-.36-1.21-.76-1.83-1.12-4.02-2.5-8.21-4.6-12.85-5.71-2.86-.67-5.76-1.43-8.7-1.61-2.59-.18-5.13.18-7.68.4-5.58.54-10.22,2.9-14.19,6.78-2.14,2.1-3.97,4.51-5.49,7.1-1.52,2.5-2.95,5.04-4.2,7.68-2.19,4.28-4.55,8.39-6.96,12.36h0Zm82.34,105.77c.49,1.12,1.07,2.19,1.52,3.3,1.21,2.95,2.41,5.94,3.53,8.93.22.62.62.98,1.25,1.21,1.03.36,2.01.71,2.99,1.12,5.4,2.05,10.85,4.2,16.29,6.2,1.21.45,2.37,1.03,3.3,1.92.54.54,1.21.85,1.92,1.07,2.32.71,4.6,1.52,6.92,2.23,2.14.67,4.28,1.34,6.43,1.96,2.63.76,4.86.09,6.52-2.14.94-1.21,1.87-2.45,2.68-3.75,5.27-8.3,9.82-16.96,14.33-25.66,2.19-4.2,4.11-8.44,5.49-12.99,1.83-6.16,3.3-12.41,4.86-18.61.62-2.41,1.16-4.86,1.25-7.36.09-2.41.09-4.78,0-7.19-.09-3.08-.27-6.2-.36-9.28-.04-1.96-.04-3.93-.04-5.89,0-.22-.04-.45-.09-.67-.13.04-.18.04-.18.04-.27.36-.54.67-.76,1.03-2.1,2.77-4.24,5.49-7.05,7.54-.89.67-1.79,1.34-2.59,2.1-.94.89-1.96,1.74-2.59,2.81-.98,1.65-1.7,3.44-2.45,5.22-.22.49-.31,1.07-.54,1.61-.22.54-.49,1.03-.71,1.56-.8,2.05-1.56,4.11-2.32,6.16-.62,1.74-1.21,3.48-1.87,5.22-.4,1.12-.94,2.14-1.34,3.26-.4,1.07-.67,2.19-1.07,3.21-.45,1.21-1.03,2.32-1.52,3.53-.45,1.07-.71,2.23-1.16,3.3-.4.98-.89,1.96-1.25,2.95-.45,1.12-.76,2.28-1.21,3.39-.49,1.29-1.07,2.54-1.61,3.84-.4,1.03-.67,2.1-1.12,3.08-.54,1.21-1.21,2.32-1.79,3.53-.62,1.38-1.16,2.81-1.83,4.15-.45.89-1.07,1.7-1.52,2.59-.89,1.74-2.14,3.03-4.06,3.53-.09.04-.18.13-.27.13-.36.04-.71.13-1.12.18-.31,0-.62,0-.94-.04-.76-.04-1.56,0-2.32-.18-1.12-.22-2.23-.49-3.21-.98-1.34-.67-2.86-.76-4.2-1.38-1.07-.54-2.32-.71-3.48-1.21-.98-.4-2.01-.58-2.99-1.03-.58-.27-1.25-.31-1.83-.49-1.38-.49-2.72-1.07-4.11-1.61-.98-.4-2.05-.67-3.03-1.12-1.07-.49-2.19-.76-3.26-1.25-.8-.36-1.65-.62-2.5-.94-.49-.18-.94-.22-1.43,0-1.12.71-2.28,1.25-3.57,1.87h0Zm4.95-2.41c.4.18.67.31.94.4,6.83,2.45,13.61,4.91,20.44,7.27,2.77.94,5.53,1.92,8.39,2.45,3.44.67,5.76-.67,7.05-3.12,2.1-4.06,4.2-8.12,5.85-12.36,3.7-9.46,7.27-18.97,10.93-28.47,1.7-4.46,3.44-8.93,5.13-13.39,1.12-2.81,2.9-5.04,5.4-6.74,2.28-1.56,4.33-3.39,6.03-5.58,1.07-1.38,2.1-2.81,3.21-4.15.89-1.07.8-2.28.76-3.53-.18,0-.31-.04-.4,0-2.41.67-4.86.8-7.32.98-2.32.18-2.37.22-2.99,2.5-.31,1.21-.67,2.41-1.12,3.57-.45,1.21-1.25,2.23-2.45,2.86-.36.18-.8.27-1.21.4,0-.27.04-.36.13-.4,1.96-.58,2.9-2.1,3.48-3.88.36-1.12.62-2.28.98-3.39.45-1.61.76-1.83,2.45-2.01,1.96-.18,3.93-.36,5.85-.62,1.16-.18,2.32-.49,3.39-.94,1.16-.45,1.47-1.52.8-2.54-.31-.49-.8-.94-1.29-1.25s-1.12-.54-1.7-.62c-3.21-.49-6.43-.67-9.42.76-2.68,1.29-5.31,2.63-7.94,3.97-.22.09-.4.27-.54.49-1.03,1.61-2.23,3.17-3.08,4.91-2.9,6.07-5.8,12.14-8.3,18.43-2.72,6.83-5.31,13.7-9.15,19.99-2.1,3.48-3.88,7.14-6.25,10.49-.71,1.03-1.61,1.83-2.63,2.5-.94.62-1.83.76-2.9.36-3.48-1.29-6.96-2.5-10.49-3.75-.4-.13-.8-.27-1.29-.45,0,.36-.04.62,0,.85.18,1.29-.04,2.5-.62,3.62-.49.94-1.03,1.87-1.7,2.72-2.1,2.77-4.69,4.95-7.54,6.92-.22.27-.54.49-.89.76h0Zm-70.65-27.31c.45.09.76.18,1.12.18,2.23.04,4.51,0,6.74-.27,1.7-.22,3.39-.45,5.09-.45s3.48.22,5.22.4c4.55.4,9.06.85,13.61,1.21,1.83.13,3.7.04,5.53.04.76,0,1.56-.04,2.23-.62-.36-.54-.67-1.03-1.03-1.52-3.12-4.64-4.15-9.64-2.41-15.04.67-2.1,1.38-4.2,2.1-6.29.13-.4.27-.76.4-1.16-.27-.09-.4-.13-.54-.18-1.96-.31-3.48-1.38-4.73-2.9s-2.59-2.95-3.88-4.42c-1.83-2.1-3.62-4.24-4.37-7.01-.27-.89-.94-1.29-1.79-1.52-2.45-.67-4.55-2.01-6.65-3.3-2.19-1.38-3.17-3.39-3.35-5.89,0-.18,0-.36-.04-.54-.04-1.21-.13-2.37-.18-3.75-.18.31-.31.45-.4.62-.94,1.79-1.7,3.62-2.23,5.53-.36,1.34-.76,2.68-1.21,3.97-.71,2.14-1.7,4.15-3.88,5.27.71,3.12,1.43,6.16,1.74,9.28.31,3.26.27,6.47-.45,9.68-.98,4.51-2.37,8.88-4.28,13.08-.71,1.87-1.52,3.66-2.37,5.58h0Zm59.58-53.51c-.76.49-1.38.89-2.01,1.29-.71.49-1.47.89-2.37.94-1.43.13-2.86-.04-4.11-.85-1.38-.85-2.72-1.65-4.06-2.54-3.12-2.1-6.2-4.2-9.33-6.29-2.05-1.34-4.28-2.23-6.65-2.81-1.38-.36-2.86-.45-4.24-.85-2.19-.67-4.42-1.16-6.65.09-.09.04-.18.09-.31.09-2.28.76-3.79,2.28-4.69,4.51-.71,1.83-1.16,3.75-1.38,5.71-.27,2.5-.27,5,.31,7.45.31,1.21.89,2.14,1.87,2.9,2.28,1.7,4.64,3.17,7.41,3.93,1.12.31,1.92.94,2.23,2.1.49,1.83,1.52,3.39,2.72,4.82,1.96,2.28,3.93,4.55,5.89,6.78.36.4.85.8,1.29,1.12,1.16.76,2.41,1.21,3.84.98.49-.09,1.07.04,1.56.18.67.18,1.34.49,2.01.71,1.87.76,3.75,1.56,5.8,1.79.85.09,1.7.04,2.54-.13,1.65-.31,3.03-1.21,4.24-2.37,1.38-1.38,2.81-2.72,4.15-4.15,1.43-1.52,2.86-3.03,3.84-4.86,1.47-2.81,2.68-5.76,3.21-8.93.27-1.47.54-2.95.8-4.42.22-1.29.04-2.45-.49-3.62-1.16-2.41-2.5-4.73-4.2-6.83-.09-.13-.27-.18-.45-.36-.09.45-.18.76-.27,1.12-.62,2.41-1.25,4.82-1.87,7.23-.09.36-.22.67-.4.98-.31.45-.85.4-.94-.13-.09-.49-.09-1.07,0-1.56.18-1.03.45-2.01.62-3.03,0-.27,0-.54.04-.98h0Zm-69.18-11.47c-1.16.8-2.37.8-3.62.8-.45,0-.94.04-1.38,0-.85-.04-1.43.36-1.7,1.16-.49,1.56-1.12,3.08-1.43,4.69-.45,2.05-.62,4.15-.89,6.2-.13,1.03-.13,2.05.13,3.08.09.22.09.49.09.76-.09,1.79.36,3.48.98,5.09.8,2.28,1.74,4.51,2.68,6.69.8,1.87,1.65,3.75,2.5,5.62.45.98.94,1.92,1.38,2.86.71,1.61,1.47,3.26,2.1,4.86.89,2.23,1.74,4.51,2.59,6.78.94,2.68.98,5.53,1.25,8.35.4,4.33.04,8.61-.45,12.9-.49,4.02-.62,8.03-.36,12.05,0,.18.09.36.13.58.4-.89.54-1.74.76-2.63,1.03-4.82,2.05-9.64,3.88-14.19.09-.27.18-.54.13-.8-.04-.85.27-1.56.89-2.1.54-.49.89-1.07,1.16-1.74,1.21-3.21,2.41-6.38,3.57-9.6,1.34-3.66,2.05-7.41,2.05-11.29s-.76-7.85-1.7-11.69c-.04-.22-.18-.45-.36-.76-.98.31-1.92.31-2.81-.04-1.65-.62-3.21-1.38-4.6-2.45-.67-.49-1.29-.98-1.96-1.47-.27-.18-.67-.27-.8-.49-.8-1.29-1.83-2.45-2.19-4.06-.67-2.86-1.38-5.71-1.29-8.66.04-2.14.27-4.28.45-6.38.04-1.47-.45-2.72-1.21-4.11h0Zm65.29,62.13s-.13.09-.18.09c.09.31.18.58.27.89,1.03,3.12,2.1,6.2,3.12,9.33,1.25,3.84,1.74,7.77,1.56,11.78,0,.27.09.67.27.89,1.65,2.1,2.68,4.55,3.75,6.92.27.62.58,1.21.85,1.87.45-.13.85-.18,1.21-.31,2.59-.98,5.04-2.19,7.14-4.02.8-.67,1.61-1.34,2.32-2.05,1.74-1.65,3.3-3.44,4.37-5.62.54-1.12.76-2.28.62-3.53-.09-.67-.27-1.29-.85-1.7-.98-.67-2.05-1.25-3.12-1.92-.67.58-1.29,1.07-1.87,1.56-.58.49-1.16.94-1.74,1.43-.62.49-1.21,1.03-1.79,1.52s-1.16.98-1.7,1.43c-.58.49-1.21,1.03-1.79,1.56-.58.49-1.12,1.03-1.7,1.47s-.98,1.16-1.74,1.34c.49-.67,1.07-1.29,1.7-1.83,3.17-2.72,6.34-5.44,9.51-8.12.18-.13.31-.31.58-.58-3.7-1.79-7.27-3.48-11.16-5.31.62,2.01.8,3.79.36,5.58-.4,1.74-.85,3.48-1.83,5.04-.04-.27,0-.54.09-.8.4-1.34.85-2.72,1.25-4.06.49-1.79.36-3.57-.27-5.36-.18-.49-.45-.85-.94-1.07-1.29-.62-2.54-1.25-3.84-1.87-1.34-.67-2.45-1.56-3.26-2.86-.27-.58-.76-1.12-1.2-1.7h0Zm97.12-39.94c.8-2.77,2.14-5.13,3.26-7.59.71-1.56,1.47-3.12,1.96-4.73,1.16-3.84,2.19-7.77,3.26-11.65.04-.18.04-.36.04-.54-.27-.09-.45-.18-.67-.18-1.79-.18-3.57-.31-5.31-.45-3.03-.27-6.03-.54-9.06-.8-.49-.04-.98-.04-1.52-.04-.67.04-.89.31-.94.94-.04.58-.09,1.21-.13,1.83-.18,3.93-.31,7.85-.45,11.74-.04,1.03-.13,2.05-.18,3.08-.09,1.79-.13,3.62-.18,5.44,1.25.27,2.41.62,3.3,1.52.13.13.31.18.49.22,2.01.4,4.02.8,6.11,1.21h0Zm-99.21-44.14c-.09,0-.18,0-.27.04-.04.94-.09,1.87-.18,2.86-.94,7.9-5.09,13.48-12.41,16.6-3.08,1.34-6.34,2.23-9.64,2.77-.22.04-.45.13-.8.27,1.83.54,3.48,1.16,5.18,1.47,6.74,1.25,13.57,2.41,20.31,3.57,1.65.27,3.3.54,5.04.85.54-2.59,1.07-5.04,1.61-7.54-1.47.62-1.61,2.05-2.14,3.17-.45.89-.8,1.96-.31,3.12-1.47-.98-2.45-3.03-2.32-4.69.09-1.03.18-2.05.36-3.08.54-2.99.4-5.85-.67-8.75-.98-2.59-1.74-5.22-2.63-7.81-.36-.94-.76-1.87-1.12-2.86h0Zm89.48,27.05l-.22-.09c-.62.76-1.16,1.61-1.83,2.32-.62.62-1.29,1.25-2.01,1.74-.85.54-1.47.09-1.43-.94.04-.58.13-1.16.31-1.7.62-1.96,1.34-3.93,2.01-5.85.54-1.61,1.43-2.99,2.59-4.28.27-.31.58-.62.85-.98.89-1.12,1.79-2.23,2.63-3.39.4-.49.49-1.12.31-1.74-.22-.76-.58-.98-1.34-.89-.89.09-1.61.58-2.14,1.29-1.43,1.83-2.86,3.66-4.28,5.44-1.29,1.61-2.28,3.35-3.17,5.18-1.07,2.14-2.1,4.28-3.21,6.38-1.65,3.12-2.95,6.38-3.84,9.82-.54,2.05-1.25,4.02-1.87,6.03-.04.09-.04.18-.04.4.4-.18.71-.31.98-.49,1.12-.62,2.23-1.25,3.39-1.83,3.08-1.56,6.2-2.86,9.82-2.45.45.04.85.04,1.29,0,.22,0,.49-.04.76-.04.04-4.64.27-9.28.45-13.92h0Zm-105.91,54.94c-.04.09-.13.18-.18.27.27.22.54.45.76.67.8.85,1.65,1.61,2.28,2.5.94,1.34.49,2.41-1.12,2.81-.8.22-1.61.31-2.41.31-2.72-.04-5.4-.13-8.12-.36-4.33-.36-8.66-.85-12.99-1.21-1.29-.13-2.59-.27-3.88-.04-.22,1.34-.18,5.44.04,6.2.18,0,.36.04.54.04,1.61,0,3.21-.04,4.82.04,4.06.27,8.17.62,12.23.94,3.66.27,7.32.58,10.98.85,1.25.09,2.5.09,3.75,0,1.25-.04,1.79-.8,1.56-2.01-.13-.67-.4-1.38-.71-2.01-.67-1.34-1.43-2.63-2.1-3.97-1.25-2.32-3.39-3.62-5.44-5.04h0Zm19.77,20.22c.09-.04.13-.09.22-.13-.49-2.41-1.07-4.78-1.52-7.19-.54-2.68-1.07-5.4-2.28-7.9-1.16-2.37-2.41-4.6-4.46-6.34-3.21-2.72-6.83-4.91-10.44-7.05-.67-.4-1.43-.58-2.28-.62-.4,1.29-.54,2.54-.45,3.84,0,.22.22.49.45.67,2.45,2.23,4.95,4.42,7.41,6.65,1.96,1.79,4.02,3.57,5.58,5.76,2.05,2.86,3.79,5.94,5.49,9.06.62,1.16,1.52,2.19,2.28,3.26h0Zm-20.17-77.52s-.04.13-.04.18c.45.27.89.54,1.34.85,3.17,2.14,6.29,4.28,9.46,6.43,1.43.94,2.86,1.87,4.42,2.63,1.79.85,3.66.85,5.36-.36.62-.45,1.34-.85,1.96-1.25.18-.13.49-.27.54-.49.36-1.21.67-2.45.85-3.79-7.99-1.43-15.93-2.81-23.88-4.2h0Zm-39.77,71.23c.54,0,.98.04,1.38,0,1.87-.31,3.75-.54,5.58-.94s3.57-.98,5.36-1.43c.49-.13,1.03-.18,1.56-.27v-6.34c-1.92.18-3.75.45-5.58.54-1.87.09-3.75.04-5.71.04-1.12,2.68-1.92,5.44-2.59,8.39h0Zm43.96-21.65c-.04.09-.09.13-.09.22.36.22.67.45,1.03.67,1.96,1.34,3.97,2.63,5.89,4.06,1.38.98,2.68,2.14,3.66,3.57,1.96,2.81,3.35,5.89,4.06,9.24.76,3.57,1.52,7.19,2.32,10.76.18.85,1.38,2.5,2.19,2.99,0-.13.04-.27.04-.45,0-3.75-.45-7.41-1.61-10.93-1.21-3.66-2.41-7.32-3.66-10.98-.13-.45-.45-.89-.76-1.25-2.45-2.63-5.4-4.64-8.61-6.2-1.47-.71-2.99-1.16-4.46-1.7h0Zm-54.18-52.08v.09c.67-.09,1.34-.13,2.01-.27.8-.13.98-.45.89-1.29-.13-1.25-.62-2.32-1.34-3.3-1.61-2.23-3.48-4.24-5.44-6.16-1.03-.98-1.61-1.12-3.08-.4-1.07.49-1.29,1.12-.8,2.19.36.76.76,1.43,1.21,2.14.36.58.76,1.12,1.16,1.7.89,1.34,1.74,2.68,2.19,4.28.13.45.27,1.03.89,1.03.8.04,1.56,0,2.32,0h0Zm156.65-4.24c-.18.13-.31.18-.4.31-1.07,1.16-2.01,2.37-2.54,3.93-.36,1.03-.8,2.05-1.16,3.08-.4,1.21-.8,2.41-1.12,3.66-.18.58-.31,1.25,0,1.83.94-.22,1.29-.36,1.92-1.12.98-1.16,1.83-2.41,2.72-3.66.13-.22.22-.54.22-.8.18-2.41.27-4.78.36-7.23h0Zm20.49,20.93c.4.27.71.09.98-.18,1.29-1.61,2.45-3.17,2.41-5.4-.09-2.32.13-4.69.22-7.05.04-1.87.13-3.75.18-5.67,0-.4-.18-.8-.22-1.21h-.22c-.04.49-.13.94-.18,1.43-.18,3.75-.67,7.45-1.47,11.11-.4,1.79-.98,3.57-1.47,5.36-.18.54-.45,1.07-.22,1.61h0Zm-2.23-20.66c-.76-.09-1.52-.18-2.32-.27-2.99-.27-5.94-.54-8.93-.8-1.79-.18-3.62-.36-5.4-.49-.89-.04-1.07.18-.98,1.16.89,0,1.79-.04,2.63,0,3.53.31,7.01.62,10.53.98,1.25.09,2.5.22,3.7.31.67.04.67,0,.76-.89h0Zm-102.47,20.71c.76-.94,2.72-8.52,2.63-9.77-.67-.04-.71-.04-.85.54-.62,2.72-1.21,5.4-1.79,8.12-.09.31,0,.62,0,1.12h0Zm93.32,7.19c-.8-.13-1.47-.27-2.23-.4,0,1.16-.04,2.19.04,3.17,0,.27.27.71.54.8.45.18.8-.22.98-.62.09-.22.22-.45.27-.71.13-.62.27-1.34.4-2.23Zm-5.36-1.43c1.83.31,3.57.62,5.36.98.04-.4.09-.71.18-1.07-1.96-.4-3.79-.76-5.8-1.16.09.49.18.8.27,1.25Zm-85.11-16.02c.36-2.5.98-4.78.98-7.19-.09,0-.18-.04-.27-.04-.49,2.32-.98,4.64-1.47,7.01.27.09.45.13.76.22Zm-24.23,55.12c.54,1.16,1.12,2.23,2.05,3.26.18-1.12-.49-2.19-2.05-3.26Zm21.96-59.98c-.54-.09-1.07-.22-1.61-.31.18.94.45,1.7,1.16,2.28.13-.67.27-1.25.45-1.96Zm25.97,143.17s-.13-.09-.22-.13c-.13.18-.27.4-.4.58.04.04.09.04.13.09.18-.22.36-.4.49-.54h0Z"/>
  <path class="cls-1" d="m85.65,307.02c-.09-.36-.18-.76-.27-1.12-2.05-6.25-4.11-12.54-6.2-18.79-1.12-3.35-1.7-6.83-2.28-10.31-.36-2.23-.62-4.51-.94-6.78-.04-.22.04-.45.04-.62h.27c.04.36.13.71.18,1.07.71,4.28,1.25,8.61,2.19,12.85.8,3.62,2.1,7.19,3.26,10.71,1.29,3.97,2.63,7.9,3.93,11.87.13.36.18.76.27,1.12h-.45Z"/>
  <path class="cls-1" d="m203.7,284.57c6.65-14.01,13.17-28.07,18.7-42.58.09-.27.31-.54.49-.85.45.36.18.67.04.98-.58,1.38-1.21,2.72-1.7,4.15-.89,2.68-2.19,5.18-3.12,7.81-.85,2.32-2.05,4.42-2.95,6.69-.36.85-.62,1.74-1.03,2.59-.58,1.25-1.21,2.5-1.83,3.75-2.63,5.49-5.27,10.98-7.9,16.47-.18.36-.49.67-.71.98h0Z"/>
  <path class="cls-1" d="m203.34,285.33c-.76.67-2.59,2.5-3.7,2.54.89-.49,2.68-1.92,3.3-2.5.09-.04.27-.04.4-.04h0Z"/>
  <path class="cls-1" d="m203.34,285.33c-.18-.4,0-.62.4-.8-.13.31-.27.54-.4.8h0Z"/>
  <path class="cls-1" d="m74.58,248.87c.13.31.27.62.36.98,2.99,8.44,6.43,16.69,10.4,24.73,2.95,5.98,7.5,10.62,12.85,14.5.31.22.76.36.94.98-.36-.18-.58-.22-.76-.36-5.62-4.02-10.35-8.79-13.48-15.09-3.93-7.94-7.32-16.07-10.31-24.41-.13-.4-.22-.85-.36-1.29.13-.04.27-.04.36-.04h0Z"/>
  <path class="cls-1" d="m110.37,165.23c-2.14-.04-4.15-.76-6.07-1.61-.85-.36-1.7-.8-2.5-1.21-2.45-1.25-4.91-2.5-7.32-3.75-2.59-1.34-4.33-3.48-5.4-6.11-1.38-3.3-.8-6.47,1.21-9.33,1.52-2.14,3.75-2.86,6.34-2.54,1.07.13,1.74.94,2.37,1.7.4.54.85,1.07,1.38,1.47,2.28,1.65,4.6,3.26,6.92,4.82,2.41,1.61,4.78,3.26,6.87,5.27,1.7,1.61,2.54,3.66,3.26,5.8.27.89.13,1.74-.49,2.37-1.43,1.38-2.99,2.54-5,2.95-.58.13-1.07.13-1.56.18h0Zm-10.18-4.2c2.68,1.52,5.31,2.9,8.26,3.53.85.18,1.7.22,2.54.18,2.1-.09,3.75-1.29,5.27-2.59.8-.71.94-1.61.62-2.54-.8-2.32-1.87-4.42-3.79-6.07-2.01-1.74-4.15-3.26-6.38-4.69-1.7-1.07-3.3-2.23-4.95-3.35-.54-.36-1.07-.8-1.61-1.21-.13.22-.22.4-.36.67-.4-.8-.71-1.47-1.12-2.14-.67-1.12-1.56-1.83-2.95-1.83-2.23.04-4.11.85-5.36,2.77-.98,1.47-1.52,3.12-1.56,4.91-.09,3.62,1.56,6.43,4.28,8.52,1.65,1.25,3.66,2.05,5.49,3.03.71.36,1.43.4,1.96-.36,0,0,.13.04.27.09-.18.4-.36.67-.62,1.07h0Z"/>
</svg>