<?xml version="1.0" encoding="UTF-8"?>
<svg id="Layer_1" data-name="Layer 1" xmlns="http://www.w3.org/2000/svg" viewBox="0 0 485.21 477.83">
  <defs>
    <style>
      .cls-1, .cls-2 {
        stroke-width: 0px;
      }

      .cls-2 {
        fill: #fff;
      }
    </style>
  </defs>
  <path class="cls-2" d="m189.13,477.82h-69.57c-.19-.85-.32-1.72-.59-2.55-2.94-8.87-5.98-17.71-8.84-26.61-2.57-7.98-5.44-15.9-7.28-24.05-2.14-9.48-3.31-19.18-4.89-28.78-.13-.8-.26-1.61-.39-2.41-.2.02-.4.03-.6.05-.03.48-.14.97-.08,1.43.68,5.06,1.32,10.13,2.12,15.17,1.25,7.81,2.58,15.6,5.08,23.14,4.64,14.02,9.26,28.06,13.88,42.09.27.82.43,1.68.64,2.52h-14.87c-.06-1.12-.09-2.24-.19-3.35-1.25-13.03-2.54-26.05-3.76-39.09-.86-9.22-1.55-18.45-2.44-27.67-.63-6.59-1.26-13.19-2.27-19.73-1.3-8.44-2.97-16.82-4.5-25.23-.1-.54-.38-1.04-.55-1.57-.29-.96-.81-1.94-.8-2.9.04-5.22-.75-10.35-1.63-15.46-1.42-8.18-3.01-16.33-4.3-24.54-1.19-7.57-2.03-15.19-3.15-22.77-.26-1.78-.21-3.49.11-5.21.59-3.14,1.22-6.27,1.89-9.39.8-3.73,1.66-7.44,2.48-11.14.56-.08.87-.15,1.18-.17,7.39-.32,14.56-1.82,21.59-4.06,2.27-.72,4.64-1.15,6.98-1.65.58-.12,1.21-.02,1.8-.02.09.57.15.88.2,1.2,1.8,13.16,6.61,25.12,14.27,35.95,4.8,6.78,9.6,13.57,14.4,20.35.35.5.64,1.03,1.1,1.77-.43.3-.8.49-1.08.77-4.12,4.12-8.39,8.11-12.3,12.42-4.36,4.8-8.2,10.02-10.99,15.93-2.15,4.55-2.81,9.31-1.74,14.25,1.79,8.21,6.23,15.05,11.66,21.19,5.57,6.3,12.32,11.37,18.83,16.66,7.88,6.4,15.8,12.74,23.7,19.11.81.65,1.56,1.39,2.33,2.08-.09.14-.18.28-.28.42-3.2-.62-6.44-1.1-9.61-1.89-5.03-1.25-10.07-2.54-15.01-4.09-8.44-2.66-15.1-8.18-21.55-13.97-.41-.36-.86-.68-1.29-1.01-.1.13-.2.25-.31.38.37.48.68,1.01,1.12,1.42,7,6.42,14.46,12.05,23.76,14.86,7.59,2.29,15.29,4.01,23.1,5.25,1.2.19,2.27.49,3.2,1.4,4.93,4.79,9.89,9.54,14.89,14.26.97.91,1.32,1.73,1.01,3.12-1.82,8.19-3.53,16.4-5.22,24.61-.51,2.49-.85,5.01-1.26,7.51Zm-95.33-130.35c-.23.04-.46.08-.69.11.26.97.44,1.96.78,2.9,6.68,18.67,14.29,36.94,23.09,54.71,6.95,14.03,17.56,24.8,30.19,33.76.41.29.92.43,1.7.78-.44-1.39-1.43-1.67-2.14-2.19-12-8.71-22.13-19.11-28.78-32.52-8.91-17.98-16.61-36.48-23.34-55.38-.26-.72-.54-1.44-.81-2.16Z"/>
  <path class="cls-1" d="m189.2,477.83c.42-2.51.75-5.03,1.26-7.51,1.69-8.21,3.4-16.42,5.22-24.61.31-1.39-.04-2.21-1.01-3.12-5-4.71-9.97-9.46-14.89-14.26-.94-.91-2-1.2-3.2-1.4-7.82-1.24-15.52-2.96-23.1-5.25-9.3-2.81-16.76-8.44-23.76-14.86-.44-.4-.75-.94-1.12-1.42.1-.13.2-.25.31-.38.43.34.88.65,1.29,1.01,6.45,5.8,13.11,11.31,21.55,13.97,4.94,1.56,9.98,2.84,15.01,4.09,3.18.79,6.44,1.28,9.67,1.9l.22-.43c-1.03-.93-2.01-1.91-3.16-2.7-6.22-4.26-11.99-9.11-17.64-14.09-7.98-7.03-16.99-13.04-24.07-21.06-5.43-6.14-9.87-12.98-11.66-21.19-1.08-4.94-.42-9.69,1.74-14.25,2.79-5.91,6.63-11.13,10.99-15.93,3.91-4.31,8.18-8.3,12.3-12.42.28-.28.65-.47,1.08-.77-.46-.74-.75-1.28-1.1-1.77-4.79-6.79-9.6-13.57-14.4-20.35-7.66-10.83-12.47-22.8-14.27-35.95-.04-.31-.1-.63-.2-1.2-.6,0-1.22-.11-1.8.02-2.34.5-4.71.93-6.98,1.65-7.04,2.24-14.2,3.74-21.59,4.06-.31.01-.62.09-1.18.17-.83,3.7-1.68,7.41-2.48,11.14-.67,3.12-1.3,6.25-1.89,9.39-.32,1.72-.37,3.43-.11,5.21,1.12,7.58,1.96,15.2,3.15,22.77,1.29,8.2,2.88,16.35,4.3,24.54.89,5.12,1.67,10.24,1.63,15.46,0,.97.5,1.94.8,2.9.16.53.45,1.03.55,1.57,1.53,8.4,3.2,16.79,4.5,25.23,1.01,6.54,1.64,13.14,2.27,19.73.89,9.22,1.58,18.45,2.44,27.67,1.21,13.03,2.51,26.06,3.76,39.09.11,1.11.13,2.23.19,3.35h-1.44c-.38-4.78-.72-9.55-1.14-14.33-.53-6.05-1.13-12.09-1.68-18.13-.79-8.67-1.56-17.35-2.32-26.02-.52-5.89-1.02-11.78-1.5-17.67-.75-9.25-2.38-18.37-4.17-27.47-.73-3.74-1.55-7.46-2.33-11.19-.35.07-.58.06-.6.12-1,3.29-3.55,4.78-6.58,5.68-6.73,2-13.28,4.49-19.68,7.38-.87.39-1.65.97-2.52,1.37-1.36.64-2.76,1.17-4.12,1.81-1.15.54-2.27,1.16-3.39,1.78-1.4.77-2.75,1.62-4.17,2.36-3.42,1.77-7.05,2.15-10.89,2.01-3.26-.12-6.18-1.04-9.16-2.17-1.45-.55-2.56-1.45-3.79-2.26-.98-.65-2.05-1.16-3.06-1.77-.32-.19-.58-.5-.84-.78-.52-.57-.92-1.34-1.56-1.72-2.88-1.75-4.63-4.73-7.4-6.61-.66-.45-.93-1.43-1.41-2.15-3.93-5.87-7.3-11.99-9.08-18.91-1.97-7.63-1.03-14.71,3.53-21.24,4.26-6.09,8.48-12.21,12.69-18.34,2.81-4.1,5.24-8.4,7.01-13.06.61-1.6.81-3.14.51-4.88-2.24-12.99-4.53-25.97-6.51-39-1.3-8.52-2.28-17.11-3.11-25.69-.91-9.39-1.57-18.8-2.19-28.21-.54-8.29-.9-16.6-1.29-24.91-.68-14.31-.28-28.61.14-42.92.33-11.14,3.32-21.41,9.6-30.67,3.09-4.56,7.15-8.18,11.42-11.55,2.63-2.07,5.48-3.87,8.17-5.87.74-.55,1.46-1.27,1.86-2.08,1.98-4.04,5.53-5.67,9.86-4.38.3.09.6.2,1.05.35.39-.56.82-1.12,1.19-1.72,6.12-9.77,11.34-20,16.29-30.4,4.56-9.59,10.66-18.21,17.69-26.13,6.72-7.57,14.96-13.03,24.75-15.71,4.59-1.26,9.43-1.65,14.18-2.22,16.45-1.96,31.87,2.15,46.9,8.25,3.38,1.37,6.46,3.45,9.68,5.22,2.52,1.39,5.14,2.62,7.5,4.24,2.95,2.03,5.98,4.1,8.39,6.7,2.23,2.4,3.9,5.36,5.34,8.43,1.87,3.99,3.06,8.15,4.27,12.34.71,2.44,1.86,4.75,2.73,7.15,2.68,7.42,5.27,14.88,7.98,22.29,1.3,3.56,2.32,7.19,2.86,10.92.47,3.23.26,6.46-.4,9.72-.62,3.08-1.26,6.27-.43,9.6l3.29.38c.91-1.57,1.71-3.03,2.61-4.44.62-.97,1.3-1.91,2.59-2.09,1.87-.25,3.29,1.21,3.16,3.09-.16,2.17-.59,4.33-.67,6.5-.11,2.87-1.2,5.54-1.47,8.36-.06.66,0,1.49.35,1.99,1.5,2.14,3.26,4.11,4.69,6.3,1.48,2.25,2.7,4.67,3.99,7.04.61,1.12,1.02,2.36,1.71,3.43,1.6,2.51,1.81,5.25,1.41,8.05-.63,4.41-1.12,8.87-2.18,13.18-.93,3.77-2.59,7.36-3.91,11.04-.29.82-.43,1.69-.76,2.49-.41,1.02-.86,2.04-1.44,2.96-2.43,3.86-5.05,7.58-8.26,10.85-3.91,3.99-7.84,7.98-11.81,11.92-2.25,2.23-5.08,3.57-7.92,4.86-.53.24-1.21.22-1.82.22-2.35.02-4.7.01-7.05-.02-.43,0-.85-.07-1.26-.21-1.95-.63-3.91-1.27-5.84-1.97-.95-.34-1.83-.86-2.77-1.23-2.12-.85-4.24-1.72-6.41-2.45-.87-.29-1.85-.26-2.66-.36-2.27,3.35-6.16,14.7-7.02,20.41.51.21,1.04.55,1.63.67,7,1.44,13.61,4.11,20.13,6.89,4.39,1.87,8.33,4.64,11.99,7.78,2.98,2.56,5.96,5.11,8.64,7.97,1.78,1.91,3.27,4.06,4.69,6.24,1.89,2.89,4.41,4.91,7.49,6.39,11.09,5.32,22.14,10.71,33.24,16.01,4.33,2.07,8.62,4.19,12.47,7.11.68.52,1.54.83,2.35,1.13,8.04,2.89,16.12,5.68,24.12,8.68,3.2,1.2,5.8.38,8.17-1.66,2.94-2.52,5.2-5.64,7.19-8.93,11.4-18.83,21.69-38.2,29.4-58.87,5.77-15.48,12.99-30.34,20.05-45.26,1.24-2.61,2.66-5.14,4.41-7.44,3.27-4.29,5.45-9.03,6.84-14.18.7-2.62,1.56-5.2,2.23-7.83,1.9-7.45,4.96-14.43,8.53-21.23,1.62-3.09,3.21-6.2,4.65-9.38,3.17-6.97,6.8-13.64,12.23-19.24,2.54-2.62,4.63-5.62,6.62-8.69,1.46-2.26,3.48-3.69,6.08-4.07,3.13-.45,5.05,1.31,4.53,4.4-.25,1.44-.99,2.84-1.7,4.14-.64,1.16-1.55,2.17-2.57,3.57,12.84,1.19,25.34,2.36,37.68,3.51,1.42-3.38,2.7-6.63,4.14-9.8,1.29-2.83,3.81-3.77,6.52-2.46,1.39.67,1.56,2.1,1.56,3.5,0,2.78-.01,5.56,0,8.34,0,1.12,0,2.22.92,3.12.3.29.45.85.47,1.29.23,5.1.41,10.2.62,15.3.07,1.66.2,3.32.32,5.18,1.18.06,2.19.16,3.2.16,2.15,0,4.31.07,6.45-.09,4.96-.38,7.79,5.22,6.38,8.94-.87,2.31-1.55,4.7-2.43,7.01-.39,1.02-.19,1.76.33,2.66,1.54,2.64,2.88,5.39,2.39,8.58-.28,1.81-.72,3.6-1.21,5.36-1.36,4.83-3.07,9.59-4.1,14.49-.97,4.58-1.31,9.29-1.83,13.95-.73,6.56-.3,13.26-2.05,19.7-.71,2.6-1.99,5.04-2.85,7.61-2.15,6.43-4.81,12.65-7.31,18.95-1.64,4.14-3.36,8.24-4.91,12.42-2.1,5.68-4.07,11.4-6.07,17.11-1.47,4.2-2.91,8.42-4.36,12.64-1.61,4.67-3.21,9.33-4.82,14-1.68,4.89-3.35,9.79-5.06,14.67-1.74,4.95-3.73,9.83-5.24,14.85-.97,3.22-7.55,18.08-8.61,20.48-.23.63-.75-.42-.54-1.03,0-.02,1.6-3.31,1.61-3.33,1.09-2.27,3.67-8.97,4.32-10.85,8.5-24.45,17.01-48.9,25.57-73.33,1.45-4.15,3.09-8.23,4.68-12.32,3.36-8.64,6.81-17.24,10.08-25.91,2.06-5.48,3.04-11.26,3.72-17.05.61-5.23,1.02-10.49,1.38-15.74.32-4.59,1.44-8.97,2.78-13.34,1.17-3.82,2.31-7.65,3.34-11.5.77-2.88.55-5.71-1.11-8.31-.21-.33-.47-.63-.74-.92-.09-.1-.29-.09-.67-.2-3.92,5.4-4.91,12.04-7.49,18.15-.04-.39-.2-.81-.1-1.16,1.6-5.6,3.2-11.16,5.89-16.43,1.94-3.8,3.21-8.01,4.3-12.16,1.12-4.24-1.5-7.02-5.77-6.89-1.35.04-2.7.11-4.06.09-2.89-.06-3.69-.05-5.99-.05-.15,2.96-.3,5.86-.44,8.63,1.29.59,1.77.03,2.18-.75.7-1.35,1.41-2.69,2.15-4.01.24-.43.61-.78,1.28-.97-.11.41-.15.87-.36,1.23-2.85,5-5.69,10-8.6,14.96-.6,1.03-1.39,1.96-2.19,2.85-1.04,1.16-2.17,1.43-3.19.89-.89-.47-.97-1.21-.88-1.95.16-1.28.72-3.3,1.17-4.5,2.49-6.72,3.74-13.72,4.62-20.77.79-6.33,1.37-12.7,1.84-19.07.25-3.41.13-6.84.07-10.27-.04-2.28-.48-2.8-2.12-3.17-2.1-.47-3.23-.1-4.05,1.94-1.61,4-3.2,8.02-4.42,12.15-2.33,7.89-4.43,15.85-6.57,23.79-1.6,5.97-3.87,11.67-6.64,17.19-.25.5-.48,1.01-.74,1.51-3.58,6.84-6.56,13.86-7.11,21.7-.06.91-.29,1.84-.61,2.7-.25.69-.6,1.35-1.09,1.91-1.68,1.9-3.68,1.49-4.37-.82-.29-.98-.41-2.04-.46-3.07-.07-1.67-.02-3.34-.02-5.26-1.84-.36-3.77-.75-5.34-1.06-1.51,1.3-2.81,2.32-3.96,3.48-.45.45-.74,1.23-.79,1.88-.25,3.42-.49,6.85-.57,10.28-.06,2.47.13,4.95.22,7.42.32,9.18.68,18.36.94,27.54.29,10.09-.07,20.11-2.68,29.96-3.15,11.89-6.02,23.85-9.12,35.76-4.18,16.03-10.81,31.08-18.77,45.55-7.21,13.09-14.58,26.1-22.06,39.04-3.11,5.39-6.65,10.55-10.03,15.78-1.85,2.86-4.45,4.99-7.15,7.02-1.64,1.23-3.45,1.66-5.43,1.22-3.58-.79-7.21-1.43-10.71-2.5-8.1-2.48-16.13-5.18-24.18-7.78-.83-.27-1.66-.52-2.77-.86.11.75.15,1.26.27,1.75.64,2.79.42,5.55-.25,8.3-1.59,6.56-4.11,12.79-6.96,18.86-4.07,8.68-8.39,17.24-12.61,25.85-.45.92-.93,1.82-1.5,2.91,4.8.9,9.32,1.84,13.88,2.57,12.33,1.99,24.65,4.04,37.02,5.74,6.97.96,13.99,1.51,21.02,1.72,5.76.17,11.59.2,17.22-1.58.36-.11.77-.05,1.31.32-.65.34-1.26.88-1.94,1-3.05.53-6.11,1.18-9.19,1.34-4.53.22-9.1-.2-13.61.17-2.45.2-4.61-.8-6.96-.71-1.18.05-2.38.09-3.54-.05-1.23-.15-2.43-.6-3.66-.8-2.85-.45-5.74-.51-8.58-1.19-3.01-.72-6.15-.91-9.24-1.19-1.43-.13-2.85-.38-4.26-.68-4.6-.98-9.3-1.45-13.94-2.28-4.04-.72-8.05-1.58-12.04-2.52-1.75-.41-2.93-.01-4.23,1.26-1.93,1.9-3.33,4.1-4.32,6.54-.39.95-.43,2.21-.2,3.22,1.3,5.66,2.78,11.27,4.09,16.92.91,3.95,1.6,7.95,2.44,11.92.52,2.49,1.15,4.95,1.69,7.43.17.77.17,1.57.25,2.36h-1.44c0-.32.04-.64-.03-.95-2.69-12.46-5.39-24.92-8.11-37.38-.1-.44-.32-.86-.57-1.5-.48.62-.81.97-1.08,1.42-2.88,4.8-5.74,9.62-9.1,14.1-5.91,7.9-10.74,16.66-17.84,23.68-.14.14-.15.42-.22.63h-1.44c2.07-2.42,4.3-4.73,6.18-7.29,3.89-5.28,7.75-10.58,11.33-16.06,6.28-9.64,12.71-19.21,18.36-29.21,5.18-9.16,9.61-18.77,14.03-28.34,2.5-5.42,4.44-11.12,6.35-16.79.75-2.22.97-4.7.97-7.07,0-5.5-3.17-9.07-9.4-10.32-2.11-.42-4.09-1.29-5.89-2.45-.94-.61-1.64-.68-3.04-1.08,0,1.08.04,1.93,0,2.77-.09,1.83-.12,3.68-.36,5.49-1.09,8.08-3.65,15.7-7.33,22.95-7.43,14.6-14.77,29.25-22.41,43.74-4.43,8.4-9.4,16.53-14.09,24.79-2.47,4.35-6.12,7.31-10.64,9.29-1.39.61-2.79,1.19-4.19,1.78-.42.18-.84.37-1.59.7,1.14,1.1,2.09,2.02,3.04,2.95,1.43,1.39,2.86,2.77,4.29,4.16h-1.44c-.52-.59-1.01-1.23-1.58-1.77-4.24-4.01-8.5-7.99-12.75-12-4.01-3.79-8-7.59-12.01-11.38-.35-.33-.8-.57-1.35-.95.09,1.94.17,3.61.25,5.27.35,6.94.7,13.88,1.05,20.82h-.96c-.1-2.15-.2-4.3-.31-6.45-.33-6.46-.66-12.92-1.03-19.37-.04-.69-.1-1.56-.51-2.02-1.55-1.76-3.32-3.31-5.28-4.99-.26.9-.45,1.42-.56,1.96-1.31,6.17-2.59,12.35-3.92,18.52-.89,4.13-1.86,8.25-2.79,12.37h-.48Zm-16.78-249.51c-.18.09-.37.18-.55.27.2,1.08.41,2.16.61,3.24.42,2.3,1.53,3.95,3.65,5.24,5.9,3.57,10.95,8.02,13.73,14.59.56,1.32,1.44,2.5,2.03,3.8.8,1.74,1.56,3.51,2.16,5.32.32.96.39,2.04.38,3.06-.02,1.48-.78,2.64-2.16,3.17-.95.36-2.01.63-3.01.61-3.99-.07-7.99-.16-11.97-.43-11.39-.76-22.78-1.59-34.16-2.42-5.65-.41-11.3-.98-16.95-1.32-2.91-.18-5.87-.44-8.72.43,0,.37-.02.6,0,.83,1.19,10.23,4.39,19.82,9.58,28.67,5.71,9.73,12.43,18.8,19.14,27.86.24.32.38.72.57,1.09.8-.51,1.22-.72,1.57-1.01,2.4-1.95,5.11-3.34,8.06-4.12,5.94-1.56,11.9-3.08,17.9-4.4,5.4-1.18,10.87-1.86,16.41-.93,1.72.29,3.43.58,5.15.87-.43-.78-1.02-1.24-1.65-1.66-4.94-3.25-10.37-5.32-16.14-6.48-6.73-1.36-13.48-2.64-20.21-4.01-.93-.19-2.06.01-3.09-1.24,1.06.06,1.75.03,2.4.15,6.04,1.14,12.09,2.26,18.12,3.47,6.93,1.39,13.74,3.24,19.56,7.46,3.29,2.39,6.76,4.12,10.76,4.84.37.07.7.4,1.05.61-.06.17-.11.34-.17.52-.73-.16-1.47-.3-2.2-.48-2.63-.66-5.24-1.49-7.9-1.95-3.92-.68-7.93-1.73-11.84-1.5-9.84.57-19.41,2.87-28.78,5.96-2.69.89-5.14,2.2-7.32,4-2.15,1.78-4.32,3.54-6.34,5.47-6.97,6.65-13.24,13.86-18.11,22.23-4.12,7.09-4.53,14.37-1.2,21.82,3.4,7.6,7.93,14.44,14.36,19.84,8.13,6.84,16.37,13.55,24.57,20.31,5.79,4.78,11.83,9.29,17.32,14.4,12.11,11.27,23.93,22.85,35.89,34.3,3.17,3.03,6.38,6.02,9.75,9.19,2.53-1.1,5.03-2.14,7.49-3.27,3.57-1.64,6.45-4.09,8.47-7.51,1.05-1.79,2.32-3.46,3.31-5.28,6.72-12.35,13.5-24.68,20.05-37.12,5.13-9.76,10.1-19.61,14.86-29.56,3.9-8.14,6.24-16.76,6.44-25.86.06-2.66.02-2.63-2.44-3.63-11.74-4.8-23.87-8.61-35.41-13.92-1.78-.82-3.23-1.88-4.55-3.36-3.18-3.58-6.44-7.1-9.88-10.43-4.56-4.42-10-7.09-16.48-7.36-5.82-.24-11.64-.65-17.46-.79-5.59-.13-11.19,0-16.79.01-.47,0-.94-.11-1.41-.17.01-.18.03-.36.04-.55,3.92-.42,7.88-.22,11.82-.26,4-.04,8,.01,11.99.03,3.93.01,7.85.62,12.25.51-.82-1.26-1.32-2.14-1.92-2.95-3.3-4.44-7.55-7.82-12.29-10.54-10.4-5.97-21.65-9.85-33.17-12.95-5.21-1.4-10.43-1.47-15.51.7-.21.09-.52-.04-1.25-.13,1.66-1.27,3.19-1.61,4.69-1.96,4.65-1.1,9.27-.56,13.73.83,6.48,2.01,12.85,4.35,19.28,6.55.53.18,1.08.3,1.63.45-1-1.55-2.09-2.86-3.45-3.78-4.1-2.77-8.19-5.59-12.48-8.03-8.21-4.66-16.85-8.47-25.57-12.06-.75-.31-1.47-.7-2.21-1.05.07-.17.14-.35.21-.52.49.1,1.01.13,1.46.32,11.02,4.54,21.9,9.38,32.07,15.65,3.18,1.96,6.47,4.04,8.95,6.75,2.83,3.09,5.98,5.37,9.73,7.01.44.19.84.46,1.26.7,6.26,3.7,11.92,8.05,15.69,14.47.31.52,1.05,1.02,1.65,1.09,5.57.72,10.12,3.47,14.04,7.25,3.67,3.54,7.09,7.36,10.54,11.13,1.39,1.52,2.96,2.43,5.17,2.74-.26-.78-.41-1.32-.62-1.83-4.61-11.06-9.26-22.1-13.84-33.18-2.8-6.78-6.58-12.95-11.23-18.61-.75-.91-1.74-1.62-2.44-2.56-2.29-3.05-4.51-6.16-6.75-9.26-.37-.52-.67-1.08-.98-1.64-1.82-3.29-3.55-6.62-5.46-9.86-4.12-6.96-8.52-13.72-14.64-19.17-5.55-4.95-11.03-9.96-16.55-14.94-1.41-1.27-2.84-2.51-4.26-3.76ZM43.04,82.72c-2.77,1.96-5.57,3.91-8.34,5.91-7.35,5.28-13.04,11.89-16.76,20.25-2.63,5.92-4.41,12.02-4.77,18.45-.39,7.02-.63,14.05-.64,21.08-.02,9.51.2,19.02.41,28.52.12,5.19.35,10.38.7,15.56.68,10.12,1.39,20.23,2.24,30.33.57,6.84,1.14,13.7,2.15,20.49,2.08,13.98,4.45,27.91,6.71,41.86.31,1.91.71,3.81,1.06,5.72.16.01.33.03.49.04.32-.69.7-1.36.95-2.07,1.35-3.84,2.81-7.65,3.96-11.56,3.47-11.81,5.4-23.87,4.42-36.2-.65-8.19-1.73-16.36-2.93-24.49-3.08-20.93-7.01-41.74-9.15-62.81-.54-5.31-.47-10.68-.65-16.02-.03-.9.03-1.83,1.03-2.77,0,1.11.02,1.87,0,2.63-.06,2.23-.39,4.49-.18,6.69.87,8.98,1.64,17.98,2.92,26.9,2.6,18.1,5.61,36.14,8.26,54.23.94,6.39,1.59,12.85,1.89,19.3.32,6.71-.56,13.38-1.64,20.02-1.92,11.76-6.29,22.76-10.5,33.78-2.44,6.37-6.61,11.84-10.47,17.44-3.54,5.13-7.03,10.29-10.39,15.54-2.32,3.62-2.92,7.77-2.62,11.98.25,3.52,1.2,6.91,2.44,10.22,4.19,11.2,11.67,19.79,21.46,26.33,8.28,5.53,16.9,6,25.71.7,4.09-2.46,8.44-4.58,12.85-6.41,6.12-2.53,12.42-4.61,18.63-6.94,1.02-.38,2.17-.82,2.88-1.59,2.32-2.5,3.55-5.56,3.2-8.98-.56-5.39-1.27-10.78-2.1-16.14-1.62-10.41-3.38-20.8-5.05-31.21-.93-5.83-1.81-11.67-2.69-17.51-.35-2.29-.81-4.57-.93-6.88-.39-7.11-.29-14.21.39-21.31.48-5.08,1.17-10.17,1.27-15.27.15-7.5-.07-15.01-.27-22.52-.17-6.36-1.37-12.55-3.89-18.42-4.25-9.91-8.48-19.83-12.95-29.65-3.64-8-7.31-15.98-10.21-24.3-3.25-9.33-3.81-18.89-2.47-28.6.99-7.22,2.69-14.25,5.99-20.84-1.82-3.65-3.47-7.37-5.49-10.87-2.03-3.52-4.43-6.82-6.93-10.62Zm11.32-4.64c4.07,4.81,7.97,9.35,11.79,13.96,1.81,2.19,2.88,4.77,3.38,7.58.09.52.17,1.18.51,1.51,3.09,3.02,3.96,6.8,3.86,10.91-.05,1.99-.22,3.98-.42,5.97-.9,8.75-.38,17.38,1.94,25.89.9,3.29,2.2,6.33,4.57,8.84,4.01,4.24,8.88,7.25,14.04,9.86.57.29,1.17.52,1.78.72,5.24,1.69,10.03.29,12.82-4.52,1.12-1.93,2.09-3.96,2.86-6.05.97-2.62,1.74-5.31,2.46-8.01,1.5-5.68,3.69-11.06,6.67-16.12.79-1.34,1.17-2.73,1.48-4.24.67-3.2,1.37-6.41,2.39-9.5,1.97-6.02,6.05-10.04,12.15-11.94,1.07-.33,2.12-.71,3.19-1.05,2.32-.74,4.63-.98,7.05-.27,1.91.56,3.93.72,5.85,1.24,2.15.59,4.27.51,6.41.16,6.32-1.02,12.48-2.65,18.56-4.67,7.86-2.61,15.02-6.33,20.64-12.56,9.34-10.35,13.15-22.46,11.23-36.27-.82-5.91-3.16-11.38-5.63-16.76-2.42-5.28-6.03-9.58-11.07-12.59-1.37-.82-2.73-1.66-4.09-2.5-9.02-5.57-18.39-10.29-28.79-12.77-6.45-1.54-12.87-3.15-19.52-3.6-5.77-.4-11.47.35-17.2.88-12.48,1.17-22.94,6.54-31.77,15.19-4.81,4.71-8.86,10.12-12.35,15.85-3.4,5.59-6.62,11.32-9.44,17.22-4.6,9.6-9.89,18.8-15.33,27.63Zm184.5,237.02c1.14,2.48,2.37,4.89,3.39,7.4,2.71,6.65,5.36,13.33,7.95,20.03.54,1.4,1.36,2.22,2.76,2.69,2.27.76,4.5,1.63,6.74,2.49,12.15,4.65,24.29,9.36,36.47,13.94,2.74,1.03,5.27,2.28,7.35,4.34,1.23,1.21,2.71,1.9,4.34,2.42,5.17,1.64,10.32,3.38,15.5,5.02,4.79,1.52,9.59,3.02,14.42,4.42,5.94,1.72,10.88.16,14.63-4.82,2.06-2.74,4.19-5.46,6.02-8.36,11.77-18.58,22.02-38,32.14-57.5,4.86-9.36,9.21-18.93,12.26-29.08,4.14-13.77,7.44-27.75,10.9-41.69,1.35-5.43,2.58-10.89,2.77-16.49.18-5.35.18-10.71.05-16.07-.17-6.94-.61-13.88-.83-20.82-.14-4.39-.08-8.79-.13-13.19,0-.49-.13-.98-.21-1.51-.28.1-.38.1-.42.15-.58.76-1.16,1.52-1.74,2.28-4.67,6.21-9.47,12.28-15.81,16.94-1.99,1.46-3.96,2.97-5.75,4.67-2.08,1.97-4.38,3.91-5.82,6.32-2.2,3.68-3.77,7.74-5.53,11.66-.51,1.14-.72,2.42-1.17,3.6-.46,1.19-1.11,2.3-1.57,3.48-1.76,4.6-3.49,9.21-5.18,13.84-1.42,3.88-2.72,7.81-4.16,11.69-.91,2.46-2.06,4.84-2.97,7.3-.88,2.37-1.49,4.85-2.4,7.21-1.03,2.67-2.34,5.24-3.38,7.91-.95,2.43-1.63,4.97-2.57,7.41-.85,2.23-1.95,4.37-2.8,6.6-.97,2.52-1.71,5.13-2.69,7.65-1.12,2.9-2.43,5.72-3.57,8.61-.91,2.29-1.55,4.69-2.55,6.93-1.19,2.69-2.7,5.23-3.95,7.9-1.44,3.08-2.64,6.27-4.12,9.32-.97,2-2.36,3.78-3.39,5.75-2.02,3.85-4.8,6.76-9.15,7.88-.23.06-.42.26-.64.3-.82.14-1.65.3-2.48.35-.71.05-1.43-.02-2.14-.06-1.74-.1-3.52-.02-5.2-.38-2.46-.53-5.01-1.07-7.22-2.19-3.01-1.52-6.4-1.66-9.42-3.14-2.44-1.21-5.23-1.65-7.78-2.7-2.17-.89-4.51-1.33-6.69-2.29-1.29-.57-2.78-.66-4.11-1.15-3.08-1.15-6.12-2.43-9.19-3.61-2.25-.87-4.6-1.46-6.82-2.46-2.36-1.06-4.89-1.71-7.27-2.79-1.8-.82-3.71-1.38-5.55-2.1-1.1-.43-2.12-.52-3.23.04-2.54,1.27-5.12,2.48-8.07,3.89Zm11.1-5.41c.86.39,1.48.71,2.12.94,15.27,5.47,30.51,11.02,45.82,16.33,6.18,2.14,12.44,4.29,18.84,5.5,7.73,1.46,12.93-1.5,15.79-7.02,4.72-9.08,9.37-18.2,13.08-27.74,8.27-21.21,16.34-42.5,24.49-63.76,3.83-9.99,7.66-19.99,11.54-29.96,2.45-6.29,6.52-11.26,12.12-15.08,5.1-3.48,9.72-7.55,13.52-12.47,2.39-3.1,4.67-6.29,7.16-9.31,1.97-2.41,1.75-5.1,1.67-7.88-.41,0-.66-.05-.88,0-5.35,1.46-10.86,1.78-16.35,2.21-5.24.41-5.32.48-6.73,5.61-.74,2.69-1.51,5.39-2.51,7.99-1.05,2.74-2.81,5.03-5.51,6.4-.84.43-1.82.61-2.73.9,0-.56.1-.84.28-.89,4.41-1.28,6.51-4.68,7.84-8.69.83-2.5,1.44-5.07,2.17-7.6,1.03-3.61,1.71-4.14,5.49-4.51,4.37-.43,8.75-.77,13.09-1.42,2.58-.39,5.17-1.09,7.6-2.05,2.59-1.01,3.26-3.35,1.78-5.68-.7-1.1-1.75-2.09-2.86-2.78-1.12-.7-2.48-1.21-3.79-1.41-7.18-1.09-14.35-1.54-21.15,1.74-5.97,2.88-11.86,5.91-17.77,8.91-.48.24-.94.65-1.23,1.1-2.33,3.63-5.03,7.09-6.86,10.96-6.47,13.64-13,27.25-18.59,41.3-6.08,15.28-11.88,30.7-20.51,44.84-4.74,7.77-8.73,15.99-14.01,23.45-1.61,2.28-3.56,4.06-5.86,5.56-2.07,1.35-4.11,1.7-6.55.79-7.78-2.9-15.64-5.62-23.46-8.4-.88-.31-1.77-.6-2.85-.97,0,.81-.07,1.36.01,1.89.42,2.86-.08,5.6-1.37,8.13-1.08,2.12-2.31,4.21-3.76,6.11-4.7,6.16-10.52,11.13-16.9,15.47-.65.44-1.3.89-2.17,1.48Zm-158.3-61.23c.96.18,1.73.42,2.51.44,5.03.14,10.05.03,15.06-.59,3.8-.47,7.62-.96,11.43-.98,3.9-.01,7.8.52,11.69.87,10.17.91,20.33,1.95,30.51,2.73,4.12.32,8.28.15,12.42.09,1.72-.02,3.49-.14,5.04-1.39-.8-1.19-1.54-2.32-2.29-3.43-7.04-10.4-9.33-21.57-5.39-33.72,1.53-4.71,3.13-9.38,4.71-14.07.29-.87.61-1.73.94-2.65-.57-.17-.86-.3-1.17-.35-4.42-.69-7.76-3.11-10.58-6.46-2.83-3.36-5.78-6.62-8.67-9.93-4.11-4.71-8.13-9.46-9.84-15.68-.55-2.01-2.14-2.87-4-3.39-5.46-1.52-10.19-4.47-14.94-7.45-4.94-3.1-7.06-7.61-7.48-13.18-.03-.4-.04-.8-.06-1.2-.13-2.66-.26-5.33-.41-8.35-.43.67-.7,1.04-.91,1.44-2.07,3.98-3.76,8.11-4.97,12.43-.84,3-1.68,6-2.68,8.95-1.64,4.84-3.83,9.33-8.68,11.8,1.55,6.97,3.23,13.78,3.86,20.8.65,7.29.58,14.53-.96,21.69-2.17,10.1-5.33,19.89-9.63,29.3-1.82,3.98-3.59,7.99-5.52,12.28Zm133.54-119.88c-1.74,1.12-3.15,1.98-4.51,2.92-1.61,1.11-3.31,1.96-5.27,2.12-3.25.26-6.4-.11-9.24-1.85-3.06-1.88-6.15-3.73-9.14-5.72-6.98-4.66-13.86-9.45-20.86-14.08-4.57-3.02-9.59-4.98-14.93-6.31-3.14-.78-6.35-.98-9.48-1.94-4.88-1.5-9.95-2.55-14.88.16-.21.11-.45.15-.68.23-5.09,1.73-8.51,5.14-10.5,10.13-1.64,4.12-2.58,8.4-3.06,12.77-.6,5.58-.62,11.16.73,16.67.65,2.66,1.98,4.84,4.21,6.49,5.1,3.78,10.45,7.09,16.63,8.8,2.51.69,4.27,2.15,4.97,4.7,1.12,4.1,3.35,7.59,6.06,10.78,4.35,5.11,8.75,10.18,13.18,15.21.83.95,1.86,1.78,2.91,2.47,2.6,1.71,5.37,2.7,8.6,2.16,1.12-.19,2.38.07,3.51.38,1.53.42,3.02,1.05,4.5,1.64,4.24,1.68,8.45,3.47,13.02,3.97,1.86.21,3.82.06,5.67-.26,3.74-.66,6.79-2.73,9.46-5.34,3.14-3.07,6.28-6.15,9.3-9.34,3.18-3.36,6.41-6.75,8.57-10.89,3.3-6.32,5.96-12.9,7.24-19.97.6-3.3,1.16-6.6,1.77-9.9.53-2.85.1-5.52-1.14-8.14-2.58-5.43-5.58-10.6-9.39-15.27-.22-.27-.55-.44-.96-.76-.25.98-.45,1.74-.65,2.51-1.4,5.41-2.78,10.83-4.2,16.23-.2.76-.5,1.54-.94,2.18-.69,1.02-1.87.86-2.12-.34-.23-1.14-.21-2.39-.02-3.54.38-2.28.96-4.53,1.43-6.79.11-.51.1-1.05.19-2.07Zm-154.95-25.72c-2.63,1.85-5.35,1.8-8.08,1.77-1.04-.01-2.08.07-3.12.04-1.94-.06-3.2.8-3.79,2.64-1.12,3.49-2.51,6.93-3.25,10.5-.95,4.59-1.39,9.29-2.01,13.94-.31,2.3-.32,4.6.33,6.87.15.53.18,1.11.15,1.66-.22,3.98.85,7.75,2.16,11.4,1.82,5.08,3.9,10.06,5.99,15.04,1.78,4.25,3.72,8.43,5.63,12.62.99,2.17,2.12,4.28,3.09,6.45,1.62,3.63,3.26,7.26,4.74,10.95,2,5.02,3.95,10.07,5.75,15.17,2.13,6.02,2.23,12.4,2.83,18.66.93,9.68.11,19.31-1.03,28.93-1.06,8.99-1.37,18-.8,27.03.03.42.17.84.26,1.26.86-1.96,1.25-3.94,1.68-5.91,2.32-10.77,4.56-21.56,8.67-31.84.23-.57.39-1.23.35-1.84-.13-1.92.6-3.47,1.99-4.67,1.25-1.09,2.04-2.41,2.6-3.93,2.67-7.18,5.4-14.34,8.03-21.53,2.99-8.17,4.64-16.6,4.6-25.32-.04-8.93-1.74-17.62-3.83-26.25-.13-.52-.45-.99-.78-1.68-2.15.69-4.26.68-6.34-.13-3.66-1.43-7.18-3.1-10.32-5.51-1.46-1.12-2.9-2.25-4.39-3.33-.56-.41-1.47-.56-1.78-1.08-1.75-2.95-4.12-5.49-4.95-9.05-1.49-6.39-3.07-12.76-2.91-19.36.12-4.78.55-9.56.99-14.33.3-3.28-.85-6.07-2.47-9.18Zm146.23,139.19c-.13.08-.26.16-.4.24.21.67.4,1.34.62,2,2.32,6.97,4.67,13.93,6.97,20.91,2.83,8.58,3.86,17.41,3.51,26.42-.03.65.19,1.46.59,1.97,3.74,4.68,5.99,10.16,8.45,15.53.62,1.36,1.26,2.72,1.93,4.17,1.03-.28,1.9-.42,2.7-.73,5.76-2.22,11.28-4.9,16.02-8.96,1.76-1.51,3.56-2.97,5.24-4.57,3.89-3.71,7.44-7.69,9.77-12.63,1.19-2.52,1.72-5.14,1.35-7.92-.19-1.45-.57-2.9-1.86-3.75-2.25-1.48-4.59-2.84-6.96-4.29-1.54,1.28-2.88,2.4-4.23,3.52-1.29,1.07-2.59,2.13-3.88,3.21-1.35,1.13-2.68,2.27-4.02,3.41-1.28,1.08-2.57,2.16-3.84,3.25-1.33,1.15-2.66,2.3-3.97,3.47-1.26,1.11-2.47,2.27-3.76,3.34-1.27,1.04-2.17,2.57-3.93,3.02,1.14-1.52,2.41-2.91,3.83-4.13,7.08-6.1,14.19-12.16,21.29-18.24.39-.33.73-.73,1.3-1.3-8.28-3.96-16.31-7.79-24.98-11.93,1.35,4.51,1.8,8.5.84,12.54-.93,3.91-1.89,7.82-4.08,11.29-.13-.64,0-1.2.18-1.75.94-3.05,1.95-6.08,2.81-9.15,1.14-4.05.78-8.05-.55-12.02-.38-1.14-1-1.89-2.11-2.41-2.89-1.35-5.72-2.84-8.59-4.24-3.01-1.47-5.52-3.46-7.29-6.37-.84-1.38-1.94-2.6-2.93-3.89Zm217.59-89.44c1.83-6.16,4.82-11.46,7.33-16.97,1.59-3.48,3.28-6.97,4.39-10.62,2.62-8.63,4.91-17.37,7.32-26.06.1-.36.07-.75.1-1.16-.59-.16-1.04-.36-1.5-.4-3.97-.36-7.95-.68-11.93-1.03-6.76-.6-13.51-1.24-20.27-1.83-1.11-.1-2.24-.14-3.35-.06-1.48.11-1.98.65-2.11,2.08-.12,1.35-.23,2.7-.28,4.06-.35,8.78-.67,17.55-1.02,26.33-.09,2.31-.27,4.62-.36,6.94-.16,4.04-.27,8.09-.41,12.2,2.81.57,5.38,1.36,7.41,3.35.26.26.7.38,1.08.46,4.45.9,8.9,1.78,13.59,2.72ZM211.81,53.71c-.19.03-.38.05-.57.08-.14,2.12-.2,4.25-.45,6.36-2.12,17.73-11.43,30.16-27.81,37.18-6.92,2.97-14.16,4.96-21.59,6.25-.51.09-.98.34-1.8.64,4.12,1.17,7.81,2.55,11.63,3.26,15.15,2.79,30.35,5.38,45.53,8.03,3.68.64,7.37,1.24,11.26,1.9,1.22-5.76,2.41-11.33,3.59-16.9-3.26,1.39-3.57,4.6-4.84,7.1-1.04,2.04-1.77,4.38-.67,6.98-3.27-2.25-5.48-6.75-5.19-10.47.17-2.31.39-4.62.8-6.9,1.21-6.67.88-13.14-1.54-19.56-2.17-5.75-3.9-11.67-5.88-17.49-.74-2.18-1.64-4.3-2.47-6.45Zm200.49,60.56l-.45-.21c-1.35,1.73-2.59,3.57-4.09,5.17-1.35,1.44-2.85,2.82-4.52,3.86-1.89,1.18-3.3.2-3.19-2.06.06-1.26.28-2.56.67-3.76,1.43-4.4,3.01-8.75,4.45-13.14,1.19-3.64,3.25-6.74,5.78-9.56.64-.71,1.29-1.42,1.89-2.17,1.97-2.51,3.95-5.01,5.87-7.56.86-1.14,1.12-2.46.69-3.86-.51-1.68-1.27-2.19-3.01-1.99-2.03.24-3.58,1.31-4.81,2.87-3.22,4.07-6.4,8.17-9.64,12.22-2.87,3.57-5.14,7.5-7.15,11.59-2.36,4.8-4.72,9.6-7.19,14.35-3.67,7.04-6.65,14.31-8.65,22.02-1.18,4.55-2.81,8.98-4.23,13.47-.06.2-.06.43-.13.95.88-.41,1.58-.71,2.25-1.06,2.54-1.35,5.04-2.77,7.6-4.08,6.89-3.52,13.94-6.43,21.95-5.54.95.11,1.92.05,2.87.04.53,0,1.06-.07,1.69-.11.45-10.57.9-21,1.35-31.43Zm-237.31,123.1c-.15.19-.3.38-.45.57.58.51,1.19.98,1.72,1.54,1.75,1.85,3.7,3.57,5.13,5.64,2.06,3.01,1.06,5.36-2.5,6.3-1.75.46-3.63.73-5.43.69-6.06-.15-12.13-.29-18.16-.78-9.7-.78-19.37-1.85-29.06-2.73-2.91-.26-5.84-.55-8.72-.09-.46,2.99-.36,12.2.14,13.93.38.03.77.1,1.16.1,3.59.03,7.19-.12,10.77.12,9.15.61,18.28,1.4,27.43,2.11,8.19.64,16.38,1.31,24.57,1.86,2.78.19,5.6.18,8.38.03,2.84-.15,4.04-1.75,3.46-4.52-.32-1.55-.86-3.09-1.56-4.51-1.48-3-3.18-5.91-4.71-8.89-2.72-5.28-7.57-8.17-12.15-11.38Zm44.33,45.35c.17-.11.33-.22.5-.34-1.15-5.38-2.37-10.74-3.43-16.14-1.19-6.04-2.4-12.07-5.11-17.67-2.55-5.27-5.42-10.32-10-14.18-7.24-6.11-15.26-11.04-23.41-15.79-1.51-.88-3.22-1.27-5.11-1.39-.86,2.86-1.16,5.69-.99,8.56.03.54.52,1.14.96,1.54,5.51,4.98,11.08,9.89,16.57,14.9,4.42,4.04,8.96,7.97,12.49,12.88,4.62,6.44,8.49,13.33,12.32,20.26,1.45,2.62,3.45,4.92,5.21,7.37Zm-45.2-173.68c-.05.14-.1.28-.14.42,1,.62,2.02,1.2,3,1.86,7.07,4.78,14.1,9.64,21.22,14.36,3.19,2.11,6.43,4.21,9.86,5.86,4.03,1.94,8.17,1.85,12.04-.8,1.45-.99,2.97-1.88,4.43-2.84.45-.3,1.1-.62,1.22-1.06.79-2.72,1.49-5.48,1.95-8.46-18.02-3.14-35.8-6.24-53.58-9.34Zm-89.1,159.57c1.18,0,2.15.12,3.07-.02,4.18-.66,8.37-1.23,12.5-2.14,4.05-.89,8.01-2.16,12.02-3.2,1.13-.3,2.32-.4,3.52-.59v-14.17c-4.28.44-8.37,1.04-12.48,1.24-4.21.21-8.44.05-12.8.05-2.54,5.99-4.34,12.23-5.83,18.84Zm98.44-48.56c-.08.16-.16.33-.25.49.76.51,1.53,1,2.29,1.52,4.42,3.02,8.89,5.95,13.23,9.09,3.11,2.25,5.96,4.81,8.2,8,4.41,6.3,7.51,13.16,9.13,20.69,1.73,8.04,3.44,16.08,5.18,24.11.42,1.94,3.12,5.56,4.92,6.72.04-.34.12-.65.12-.96.04-8.36-.97-16.56-3.64-24.53-2.74-8.18-5.4-16.38-8.17-24.55-.34-1.01-.98-2.01-1.72-2.79-5.53-5.91-12.13-10.38-19.34-13.93-3.18-1.57-6.64-2.59-9.97-3.87ZM62.14,103.44c0,.08.01.17.02.25,1.5-.19,3.01-.3,4.5-.58,1.83-.34,2.2-.97,1.96-2.86-.35-2.76-1.41-5.22-3.04-7.45-3.63-4.98-7.75-9.53-12.21-13.78-2.26-2.16-3.56-2.47-6.89-.87-2.36,1.14-2.86,2.52-1.76,4.88.77,1.66,1.74,3.23,2.71,4.79.8,1.29,1.71,2.51,2.57,3.76,2.05,2.96,3.91,6.02,4.87,9.55.28,1.04.58,2.28,2.05,2.31,1.75.04,3.49,0,5.24,0Zm351-9.57c-.41.3-.69.45-.89.67-2.35,2.62-4.53,5.35-5.71,8.75-.81,2.33-1.81,4.6-2.6,6.94-.92,2.71-1.78,5.45-2.52,8.22-.35,1.32-.71,2.76.05,4.11,2.09-.52,2.85-.76,4.32-2.53,2.18-2.63,4.15-5.44,6.14-8.22.34-.48.48-1.18.51-1.79.26-5.31.47-10.61.7-16.14Zm45.9,46.97c.92.56,1.63.2,2.16-.45,2.85-3.55,5.53-7.06,5.38-12.1-.16-5.25.32-10.52.51-15.77.15-4.22.33-8.45.41-12.67.02-.9-.35-1.81-.54-2.71-.17,0-.35,0-.52,0-.13,1.07-.33,2.14-.39,3.21-.42,8.38-1.49,16.68-3.26,24.87-.87,4.04-2.23,7.97-3.32,11.97-.32,1.19-1.01,2.38-.44,3.65Zm-5.07-46.32c-1.72-.19-3.44-.39-5.17-.55-6.66-.61-13.33-1.22-20-1.81-4.05-.36-8.09-.76-12.15-1.05-1.97-.14-2.39.43-2.19,2.55,1.97,0,3.96-.14,5.92.02,7.86.67,15.71,1.43,23.56,2.15,2.78.25,5.56.49,8.34.67,1.47.09,1.48.03,1.68-1.99Zm-229.59,46.4c1.7-2.11,6.13-19.07,5.92-21.9-1.51-.12-1.58-.14-1.88,1.19-1.37,6.05-2.71,12.1-4.02,18.16-.15.7-.02,1.46-.02,2.55Zm209.16,16.12c-1.75-.33-3.26-.62-5-.95,0,2.6-.09,4.88.06,7.15.04.65.63,1.6,1.19,1.8,1.04.39,1.76-.46,2.21-1.36.25-.49.45-1.03.56-1.56.33-1.55.6-3.1.98-5.08Zm-12.07-3.27c4.07.74,7.95,1.45,12.03,2.2.14-.89.24-1.55.38-2.39-4.38-.87-8.55-1.7-13.01-2.58.23,1.07.39,1.81.6,2.77Zm-190.65-35.86c.81-5.57,2.2-10.74,2.18-16.08-.22-.04-.43-.07-.65-.11-1.11,5.22-2.22,10.44-3.34,15.71.68.18,1.12.29,1.81.48Zm-54.3,123.46c1.17,2.58,2.54,5.02,4.55,7.33.4-2.54-1.09-4.89-4.55-7.33Zm49.13-134.35c-1.25-.25-2.35-.47-3.65-.73.42,2.14.99,3.77,2.62,5.1.36-1.53.67-2.83,1.03-4.37Zm58.26,320.73c-.15-.11-.31-.23-.46-.34-.3.42-.59.85-.89,1.27.09.07.19.15.28.22.36-.39.72-.77,1.07-1.16Z"/>
  <path class="cls-2" d="m232.79,477.82c-1.43-1.39-2.86-2.77-4.29-4.16-.95-.92-1.9-1.84-3.04-2.95.75-.33,1.17-.52,1.59-.7,1.4-.59,2.8-1.17,4.19-1.78,4.51-1.98,8.17-4.94,10.64-9.29,4.69-8.27,9.66-16.39,14.09-24.79,7.64-14.49,14.98-29.14,22.41-43.74,3.68-7.25,6.24-14.87,7.33-22.95.25-1.81.27-3.66.36-5.49.04-.85,0-1.7,0-2.77.91.26,1.52.38,2.09.6,3.21,1.23,6.4,2.5,9.61,3.72,4.4,1.67,6.63,4.93,6.63,9.54,0,2.36-.22,4.85-.97,7.07-1.91,5.67-3.85,11.37-6.35,16.79-4.41,9.57-8.84,19.18-14.03,28.34-5.66,10-12.09,19.57-18.36,29.21-3.57,5.49-7.44,10.79-11.33,16.06-1.89,2.56-4.11,4.87-6.18,7.29h-14.39Z"/>
  <path class="cls-2" d="m248.63,477.82c.07-.21.08-.49.22-.63,5.72-5.65,9.96-12.44,14.48-18.99,4.3-6.23,8.37-12.63,12.55-18.95.25-.38.55-.72.98-1.26.25.64.47,1.06.57,1.5,2.71,12.46,5.41,24.92,8.11,37.38.07.3.02.63.03.95h-36.94Z"/>
  <path class="cls-2" d="m204.96,477.82c-.35-6.94-.7-13.88-1.05-20.82-.08-1.67-.16-3.33-.25-5.27.55.38,1,.61,1.35.95,4.01,3.78,8,7.59,12.01,11.38,4.24,4.01,8.51,7.99,12.75,12,.57.54,1.06,1.18,1.58,1.77h-26.39Z"/>
  <path class="cls-2" d="m189.61,477.82c.93-4.12,1.89-8.24,2.79-12.37,1.33-6.17,2.61-12.34,3.92-18.52.11-.54.3-1.06.56-1.96,1.96,1.69,3.73,3.23,5.28,4.99.41.47.47,1.33.51,2.02.37,6.46.7,12.92,1.03,19.37.11,2.15.21,4.3.31,6.45h-14.39Z"/>
  <path class="cls-1" d="m118.6,477.82c-.21-.84-.37-1.7-.64-2.52-4.62-14.03-9.23-28.06-13.88-42.09-2.5-7.54-3.84-15.33-5.08-23.14-.8-5.04-1.44-10.11-2.12-15.17-.06-.47.05-.96.08-1.43.2-.02.4-.03.6-.05.13.8.26,1.61.39,2.41,1.59,9.6,2.75,19.3,4.89,28.78,1.84,8.15,4.72,16.08,7.28,24.05,2.86,8.9,5.9,17.73,8.84,26.61.27.82.4,1.7.59,2.55h-.96Z"/>
  <path class="cls-1" d="m383.12,427.49c14.93-31.41,29.48-62.92,41.92-95.36.24-.63.68-1.19,1.07-1.85,1.04.84.39,1.52.1,2.21-1.28,3.09-2.72,6.13-3.79,9.29-2.03,5.96-4.88,11.59-7.02,17.49-1.88,5.18-4.64,9.94-6.65,15.04-.75,1.92-1.4,3.89-2.26,5.76-1.29,2.82-2.74,5.58-4.09,8.38-5.91,12.3-11.8,24.61-17.74,36.91-.38.78-1.03,1.42-1.56,2.13Z"/>
  <path class="cls-1" d="m382.3,429.2c-1.67,1.5-5.75,5.6-8.34,5.73,2.02-1.14,5.96-4.28,7.44-5.61.19-.17.6-.08.91-.11h0Z"/>
  <path class="cls-1" d="m382.31,429.2c-.4-.9.01-1.4.92-1.8-.35.68-.64,1.24-.93,1.8,0,0,0,0,0,0Z"/>
  <path class="cls-1" d="m93.8,347.47c.27.72.55,1.44.81,2.16,6.73,18.9,14.43,37.4,23.34,55.38,6.64,13.41,16.78,23.81,28.78,32.52.71.52,1.7.8,2.14,2.19-.78-.35-1.29-.49-1.7-.78-12.63-8.96-23.24-19.73-30.19-33.76-8.8-17.77-16.41-36.04-23.09-54.71-.34-.94-.52-1.93-.78-2.9.23-.04.46-.08.69-.11Z"/>
  <path class="cls-2" d="m172.35,228.31c1.42,1.25,2.86,2.49,4.26,3.76,5.52,4.98,11,10,16.55,14.94,6.12,5.45,10.52,12.21,14.64,19.17,1.91,3.23,3.64,6.57,5.46,9.86.31.56.61,1.12.98,1.64,2.23,3.1,4.45,6.21,6.75,9.26.7.94,1.7,1.65,2.44,2.56,4.65,5.65,8.43,11.83,11.23,18.61,4.58,11.07,9.23,22.12,13.84,33.18.21.51.36,1.05.62,1.83-2.21-.31-3.78-1.23-5.17-2.74-3.45-3.77-6.87-7.58-10.54-11.13-3.91-3.78-8.47-6.52-14.04-7.25-.6-.08-1.35-.57-1.65-1.09-3.77-6.42-9.43-10.77-15.69-14.47-.41-.24-.82-.51-1.26-.7-3.75-1.64-6.9-3.92-9.73-7.01-2.48-2.72-5.77-4.79-8.95-6.75-10.16-6.27-21.04-11.11-32.07-15.65-.45-.19-.97-.22-1.46-.32-.07.17-.14.35-.21.52.74.35,1.46.74,2.21,1.05,8.73,3.59,17.36,7.4,25.57,12.06,4.3,2.44,8.39,5.25,12.48,8.03,1.36.92,2.45,2.23,3.45,3.78-.54-.15-1.09-.27-1.63-.45-6.42-2.19-12.8-4.53-19.28-6.55-4.45-1.38-9.08-1.93-13.73-.83-1.5.36-3.04.69-4.69,1.96.73.08,1.04.22,1.25.13,5.09-2.17,10.3-2.1,15.51-.7,11.53,3.1,22.77,6.98,33.17,12.95,4.74,2.72,9,6.1,12.29,10.54.6.81,1.11,1.69,1.92,2.95-4.41.11-8.32-.5-12.25-.51-4-.01-8-.06-11.99-.03-3.94.04-7.89-.16-11.82.26-.01.18-.03.36-.04.55.47.06.94.17,1.41.17,5.6,0,11.2-.14,16.79-.01,5.82.13,11.64.55,17.46.79,6.48.27,11.91,2.94,16.48,7.36,3.44,3.33,6.69,6.86,9.88,10.43,1.32,1.48,2.77,2.53,4.55,3.36,11.54,5.31,23.67,9.12,35.41,13.92,2.46,1,2.5.97,2.44,3.63-.2,9.1-2.54,17.72-6.44,25.86-4.76,9.95-9.73,19.8-14.86,29.56-6.54,12.45-13.33,24.77-20.05,37.12-.99,1.82-2.26,3.49-3.31,5.28-2.02,3.43-4.89,5.87-8.47,7.51-2.46,1.13-4.95,2.17-7.49,3.27-3.37-3.18-6.58-6.16-9.75-9.19-11.95-11.44-23.78-23.02-35.89-34.3-5.49-5.11-11.53-9.62-17.32-14.4-8.19-6.76-16.44-13.47-24.57-20.31-6.42-5.4-10.96-12.24-14.36-19.84-3.33-7.45-2.92-14.73,1.2-21.82,4.87-8.37,11.14-15.59,18.11-22.23,2.02-1.92,4.19-3.69,6.34-5.47,2.17-1.8,4.63-3.11,7.32-4,9.37-3.09,18.94-5.39,28.78-5.96,3.91-.23,7.91.82,11.84,1.5,2.67.46,5.27,1.3,7.9,1.95.73.18,1.47.32,2.2.48.06-.17.11-.34.17-.52-.35-.21-.68-.54-1.05-.61-3.99-.72-7.46-2.46-10.76-4.84-5.82-4.21-12.63-6.06-19.56-7.46-6.03-1.21-12.08-2.33-18.12-3.47-.66-.12-1.34-.09-2.4-.15,1.03,1.26,2.16,1.06,3.09,1.24,6.73,1.37,13.48,2.65,20.21,4.01,5.77,1.17,11.2,3.23,16.14,6.48.63.41,1.22.88,1.65,1.66-1.72-.29-3.43-.58-5.15-.87-5.54-.93-11.01-.25-16.41.93-6,1.32-11.96,2.84-17.9,4.4-2.95.78-5.67,2.17-8.06,4.12-.36.29-.78.5-1.57,1.01-.19-.37-.34-.77-.57-1.09-6.71-9.06-13.43-18.13-19.14-27.86-5.19-8.85-8.39-18.44-9.58-28.67-.03-.23,0-.46,0-.83,2.85-.87,5.81-.6,8.72-.43,5.66.34,11.3.91,16.95,1.32,11.39.83,22.77,1.66,34.16,2.42,3.98.27,7.98.36,11.97.43,1,.02,2.07-.25,3.01-.61,1.38-.53,2.15-1.68,2.16-3.17.01-1.02-.06-2.11-.38-3.06-.61-1.81-1.36-3.58-2.16-5.32-.6-1.3-1.48-2.48-2.03-3.8-2.78-6.57-7.83-11.03-13.73-14.59-2.13-1.29-3.23-2.94-3.65-5.24-.2-1.08-.41-2.16-.61-3.24.18-.09.37-.18.55-.27Z"/>
  <path class="cls-2" d="m42.97,82.7c2.5,3.8,4.9,7.1,6.93,10.62,2.02,3.5,3.67,7.22,5.49,10.87-3.31,6.59-5,13.62-5.99,20.84-1.33,9.71-.77,19.27,2.47,28.6,2.89,8.32,6.57,16.29,10.21,24.3,4.47,9.81,8.7,19.74,12.95,29.65,2.51,5.87,3.72,12.06,3.89,18.42.2,7.5.41,15.02.27,22.52-.1,5.1-.78,10.18-1.27,15.27-.67,7.1-.78,14.2-.39,21.31.13,2.3.59,4.59.93,6.88.88,5.84,1.75,11.68,2.69,17.51,1.67,10.41,3.43,20.8,5.05,31.21.83,5.36,1.54,10.74,2.1,16.14.35,3.41-.88,6.48-3.2,8.98-.71.77-1.86,1.2-2.88,1.59-6.21,2.33-12.51,4.41-18.63,6.94-4.42,1.82-8.76,3.94-12.85,6.41-8.81,5.3-17.43,4.83-25.71-.7-9.78-6.54-17.27-15.13-21.46-26.33-1.24-3.31-2.19-6.71-2.44-10.22-.3-4.22.3-8.36,2.62-11.98,3.36-5.25,6.85-10.41,10.39-15.54,3.86-5.6,8.03-11.07,10.47-17.44,4.22-11.02,8.59-22.02,10.5-33.78,1.08-6.64,1.96-13.31,1.64-20.02-.31-6.45-.96-12.91-1.89-19.3-2.65-18.09-5.65-36.13-8.26-54.23-1.28-8.92-2.05-17.92-2.92-26.9-.21-2.2.11-4.46.18-6.69.02-.76,0-1.52,0-2.63-1,.94-1.06,1.87-1.03,2.77.18,5.34.12,10.71.65,16.02,2.14,21.07,6.07,41.88,9.15,62.81,1.2,8.13,2.27,16.3,2.93,24.49.98,12.33-.95,24.38-4.42,36.2-1.15,3.9-2.61,7.71-3.96,11.56-.25.71-.63,1.38-.95,2.07-.16-.01-.33-.03-.49-.04-.36-1.91-.75-3.81-1.06-5.72-2.26-13.95-4.63-27.88-6.71-41.86-1.01-6.79-1.58-13.64-2.15-20.49-.84-10.1-1.56-20.22-2.24-30.33-.35-5.18-.58-10.37-.7-15.56-.22-9.51-.43-19.01-.41-28.52.01-7.03.26-14.06.64-21.08.36-6.44,2.14-12.53,4.77-18.45,3.71-8.35,9.4-14.96,16.76-20.25,2.77-1.99,5.57-3.95,8.34-5.91Z"/>
  <path class="cls-2" d="m54.3,78.06c5.45-8.83,10.73-18.03,15.33-27.63,2.82-5.9,6.04-11.63,9.44-17.22,3.49-5.74,7.54-11.14,12.35-15.85,8.84-8.65,19.3-14.02,31.77-15.19,5.73-.54,11.43-1.28,17.2-.88,6.65.45,13.07,2.06,19.52,3.6,10.4,2.48,19.77,7.21,28.79,12.77,1.36.84,2.72,1.68,4.09,2.5,5.04,3.01,8.65,7.31,11.07,12.59,2.46,5.38,4.8,10.85,5.63,16.76,1.92,13.81-1.88,25.93-11.23,36.27-5.63,6.23-12.78,9.96-20.64,12.56-6.08,2.02-12.24,3.65-18.56,4.67-2.14.34-4.26.43-6.41-.16-1.92-.53-3.95-.68-5.85-1.24-2.42-.71-4.73-.47-7.05.27-1.07.34-2.12.72-3.19,1.05-6.09,1.9-10.17,5.92-12.15,11.94-1.02,3.1-1.72,6.31-2.39,9.5-.31,1.5-.69,2.9-1.48,4.24-2.98,5.05-5.17,10.44-6.67,16.12-.71,2.7-1.49,5.4-2.46,8.01-.77,2.09-1.74,4.12-2.86,6.05-2.79,4.82-7.58,6.21-12.82,4.52-.61-.2-1.21-.43-1.78-.72-5.16-2.61-10.02-5.62-14.04-9.86-2.38-2.51-3.68-5.55-4.57-8.84-2.32-8.51-2.83-17.14-1.94-25.89.2-1.98.37-3.98.42-5.97.1-4.11-.77-7.9-3.86-10.91-.34-.33-.42-.99-.51-1.51-.49-2.81-1.56-5.39-3.38-7.58-3.82-4.61-7.72-9.15-11.79-13.96Z"/>
  <path class="cls-2" d="m238.79,315.08c2.95-1.42,5.53-2.62,8.07-3.89,1.1-.55,2.13-.46,3.23-.04,1.84.72,3.75,1.28,5.55,2.1,2.37,1.08,4.91,1.73,7.27,2.79,2.23,1,4.57,1.59,6.82,2.46,3.07,1.19,6.1,2.47,9.19,3.61,1.33.49,2.82.59,4.11,1.15,2.18.95,4.52,1.4,6.69,2.29,2.56,1.05,5.34,1.49,7.78,2.7,3.02,1.49,6.4,1.62,9.42,3.14,2.22,1.12,4.77,1.66,7.22,2.19,1.68.36,3.47.28,5.2.38.71.04,1.43.11,2.14.06.83-.06,1.66-.21,2.48-.35.23-.04.42-.24.64-.3,4.35-1.12,7.12-4.03,9.15-7.88,1.04-1.97,2.42-3.76,3.39-5.75,1.49-3.05,2.69-6.24,4.12-9.32,1.24-2.67,2.75-5.21,3.95-7.9,1-2.25,1.64-4.64,2.55-6.93,1.14-2.89,2.45-5.71,3.57-8.61.97-2.52,1.72-5.13,2.69-7.65.85-2.23,1.95-4.37,2.8-6.6.93-2.44,1.62-4.98,2.57-7.41,1.04-2.67,2.35-5.23,3.38-7.91.91-2.36,1.52-4.84,2.4-7.21.91-2.46,2.06-4.84,2.97-7.3,1.44-3.88,2.74-7.81,4.16-11.69,1.69-4.63,3.43-9.24,5.18-13.84.45-1.19,1.11-2.3,1.57-3.48.45-1.18.66-2.45,1.17-3.6,1.76-3.93,3.34-7.98,5.53-11.66,1.44-2.41,3.73-4.35,5.82-6.32,1.79-1.69,3.76-3.21,5.75-4.67,6.34-4.66,11.14-10.74,15.81-16.94.57-.76,1.15-1.52,1.74-2.28.04-.05.15-.06.42-.15.08.53.21,1.02.21,1.51.05,4.4,0,8.8.13,13.19.22,6.94.66,13.88.83,20.82.13,5.35.14,10.72-.05,16.07-.19,5.6-1.42,11.06-2.77,16.49-3.45,13.94-6.76,27.92-10.9,41.69-3.05,10.15-7.4,19.72-12.26,29.08-10.12,19.5-20.38,38.93-32.14,57.5-1.83,2.9-3.96,5.61-6.02,8.36-3.75,4.98-8.69,6.54-14.63,4.82-4.83-1.4-9.63-2.9-14.42-4.42-5.18-1.64-10.32-3.38-15.5-5.02-1.63-.52-3.11-1.21-4.34-2.42-2.08-2.06-4.61-3.31-7.35-4.34-12.18-4.58-24.32-9.29-36.47-13.94-2.24-.86-4.47-1.73-6.74-2.49-1.39-.47-2.22-1.29-2.76-2.69-2.59-6.7-5.24-13.38-7.95-20.03-1.02-2.5-2.24-4.92-3.39-7.4Z"/>
  <path class="cls-2" d="m249.89,309.67c.87-.59,1.52-1.04,2.17-1.48,6.38-4.34,12.2-9.32,16.9-15.47,1.44-1.89,2.67-3.98,3.76-6.11,1.29-2.53,1.79-5.27,1.37-8.13-.08-.53-.01-1.08-.01-1.89,1.08.37,1.97.65,2.85.97,7.83,2.78,15.68,5.5,23.46,8.4,2.45.91,4.48.56,6.55-.79,2.3-1.5,4.25-3.29,5.86-5.56,5.28-7.46,9.27-15.68,14.01-23.45,8.62-14.14,14.43-29.56,20.51-44.84,5.59-14.05,12.12-27.66,18.59-41.3,1.83-3.87,4.52-7.33,6.86-10.96.29-.45.75-.86,1.23-1.1,5.91-3,11.8-6.03,17.77-8.91,6.8-3.28,13.97-2.83,21.15-1.74,1.31.2,2.67.71,3.79,1.41,1.11.7,2.16,1.68,2.86,2.78,1.48,2.33.81,4.67-1.78,5.68-2.43.95-5.02,1.66-7.6,2.05-4.34.65-8.72,1-13.09,1.42-3.78.37-4.46.9-5.49,4.51-.72,2.53-1.34,5.1-2.17,7.6-1.33,4.01-3.43,7.41-7.84,8.69-.17.05-.28.33-.28.89.91-.29,1.89-.47,2.73-.9,2.7-1.37,4.46-3.66,5.51-6.4,1-2.6,1.77-5.3,2.51-7.99,1.41-5.13,1.48-5.19,6.73-5.61,5.49-.43,11-.76,16.35-2.21.22-.06.47,0,.88,0,.08,2.78.3,5.47-1.67,7.88-2.48,3.03-4.76,6.21-7.16,9.31-3.8,4.92-8.42,8.99-13.52,12.47-5.6,3.82-9.67,8.79-12.12,15.08-3.88,9.97-7.71,19.97-11.54,29.96-8.16,21.26-16.22,42.55-24.49,63.76-3.72,9.53-8.37,18.65-13.08,27.74-2.87,5.52-8.07,8.48-15.79,7.02-6.4-1.21-12.66-3.35-18.84-5.5-15.32-5.32-30.56-10.87-45.82-16.33-.65-.23-1.26-.56-2.12-.94Z"/>
  <path class="cls-2" d="m91.58,248.44c1.93-4.29,3.7-8.29,5.52-12.28,4.3-9.41,7.46-19.2,9.63-29.3,1.54-7.16,1.6-14.4.96-21.69-.62-7.02-2.3-13.83-3.86-20.8,4.84-2.47,7.04-6.96,8.68-11.8,1-2.95,1.84-5.95,2.68-8.95,1.21-4.33,2.9-8.46,4.97-12.43.21-.4.49-.77.91-1.44.15,3.02.28,5.69.41,8.35.02.4.03.8.06,1.2.42,5.57,2.53,10.08,7.48,13.18,4.75,2.98,9.48,5.93,14.94,7.45,1.86.52,3.45,1.38,4,3.39,1.71,6.22,5.73,10.98,9.84,15.68,2.89,3.31,5.84,6.56,8.67,9.93,2.82,3.36,6.16,5.77,10.58,6.46.31.05.6.18,1.17.35-.32.92-.64,1.78-.94,2.65-1.58,4.69-3.18,9.37-4.71,14.07-3.94,12.15-1.66,23.32,5.39,33.72.76,1.12,1.5,2.24,2.29,3.43-1.56,1.24-3.32,1.36-5.04,1.39-4.14.05-8.3.22-12.42-.09-10.18-.78-20.34-1.82-30.51-2.73-3.89-.35-7.79-.88-11.69-.87-3.81.01-7.64.51-11.43.98-5.01.62-10.03.73-15.06.59-.78-.02-1.55-.27-2.51-.44Z"/>
  <path class="cls-2" d="m225.13,128.57c-.09,1.02-.08,1.55-.19,2.07-.47,2.27-1.06,4.51-1.43,6.79-.19,1.15-.21,2.4.02,3.54.24,1.2,1.43,1.35,2.12.34.44-.64.74-1.42.94-2.18,1.42-5.4,2.81-10.82,4.2-16.23.2-.77.4-1.53.65-2.51.41.32.75.49.96.76,3.81,4.67,6.81,9.84,9.39,15.27,1.24,2.61,1.67,5.29,1.14,8.14-.61,3.3-1.17,6.6-1.77,9.9-1.28,7.07-3.94,13.65-7.24,19.97-2.16,4.14-5.39,7.53-8.57,10.89-3.02,3.19-6.16,6.26-9.3,9.34-2.67,2.61-5.72,4.68-9.46,5.34-1.85.33-3.81.47-5.67.26-4.57-.5-8.78-2.3-13.02-3.97-1.48-.59-2.96-1.22-4.5-1.64-1.13-.31-2.39-.56-3.51-.38-3.23.54-6.01-.45-8.6-2.16-1.06-.7-2.08-1.53-2.91-2.47-4.43-5.04-8.83-10.1-13.18-15.21-2.71-3.19-4.94-6.67-6.06-10.78-.7-2.55-2.46-4.01-4.97-4.7-6.19-1.71-11.53-5.02-16.63-8.8-2.23-1.65-3.56-3.83-4.21-6.49-1.35-5.51-1.33-11.09-.73-16.67.47-4.37,1.41-8.65,3.06-12.77,1.99-4.99,5.41-8.4,10.5-10.13.23-.08.47-.12.68-.23,4.93-2.71,10-1.66,14.88-.16,3.13.96,6.34,1.15,9.48,1.94,5.34,1.34,10.36,3.29,14.93,6.31,6.99,4.63,13.88,9.42,20.86,14.08,2.99,1.99,6.07,3.84,9.14,5.72,2.84,1.74,5.99,2.12,9.24,1.85,1.96-.16,3.67-1.02,5.27-2.12,1.36-.94,2.77-1.8,4.51-2.92Zm-51.17,31.57c1.11-.12,2.23-.18,3.32-.39,4.5-.86,8.03-3.45,11.2-6.57,1.49-1.46,1.79-3.35,1.14-5.34-1.58-4.82-3.55-9.39-7.32-13.02-4.69-4.51-9.96-8.24-15.37-11.81-5.27-3.47-10.41-7.13-15.53-10.82-1.2-.86-2.14-2.11-3.08-3.27-1.43-1.76-2.88-3.56-5.28-3.84-5.73-.68-10.77.89-14.17,5.7-4.52,6.41-5.72,13.51-2.67,20.91,2.44,5.92,6.32,10.72,12.14,13.72,5.46,2.82,10.94,5.6,16.42,8.38,1.85.94,3.7,1.9,5.6,2.73,4.33,1.91,8.76,3.49,13.6,3.6Z"/>
  <path class="cls-2" d="m70.18,102.85c1.63,3.11,2.77,5.9,2.47,9.18-.44,4.77-.87,9.55-.99,14.33-.16,6.6,1.41,12.97,2.91,19.36.83,3.56,3.2,6.1,4.95,9.05.31.53,1.21.67,1.78,1.08,1.48,1.08,2.93,2.22,4.39,3.33,3.14,2.41,6.66,4.08,10.32,5.51,2.07.81,4.19.82,6.34.13.33.69.66,1.16.78,1.68,2.08,8.63,3.78,17.32,3.83,26.25.04,8.72-1.61,17.15-4.6,25.32-2.63,7.19-5.36,14.35-8.03,21.53-.57,1.52-1.35,2.84-2.6,3.93-1.39,1.21-2.11,2.76-1.99,4.67.04.6-.12,1.27-.35,1.84-4.11,10.28-6.36,21.07-8.67,31.84-.42,1.97-.81,3.95-1.68,5.91-.09-.42-.23-.84-.26-1.26-.57-9.04-.27-18.05.8-27.03,1.14-9.61,1.96-19.25,1.03-28.93-.6-6.27-.7-12.64-2.83-18.66-1.8-5.1-3.74-10.15-5.75-15.17-1.47-3.69-3.11-7.32-4.74-10.95-.97-2.18-2.1-4.28-3.09-6.45-1.91-4.19-3.85-8.38-5.63-12.62-2.09-4.97-4.17-9.96-5.99-15.04-1.31-3.65-2.38-7.42-2.16-11.4.03-.55,0-1.14-.15-1.66-.66-2.27-.64-4.57-.33-6.87.62-4.66,1.06-9.35,2.01-13.94.74-3.57,2.13-7.01,3.25-10.5.59-1.84,1.85-2.7,3.79-2.64,1.04.03,2.08-.05,3.12-.04,2.73.03,5.45.08,8.08-1.77Z"/>
  <path class="cls-2" d="m216.41,242.04c.98,1.29,2.09,2.51,2.93,3.89,1.77,2.91,4.27,4.91,7.29,6.37,2.87,1.4,5.7,2.88,8.59,4.24,1.11.52,1.73,1.27,2.11,2.41,1.34,3.96,1.69,7.97.55,12.02-.86,3.07-1.87,6.1-2.81,9.15-.17.55-.3,1.11-.18,1.75,2.19-3.47,3.15-7.37,4.08-11.29.96-4.04.52-8.03-.84-12.54,8.67,4.14,16.7,7.98,24.98,11.93-.57.58-.91.97-1.3,1.3-7.1,6.08-14.21,12.13-21.29,18.24-1.42,1.22-2.68,2.61-3.83,4.13,1.76-.45,2.66-1.98,3.93-3.02,1.29-1.06,2.51-2.23,3.76-3.34,1.32-1.16,2.64-2.32,3.97-3.47,1.27-1.09,2.56-2.17,3.84-3.25,1.34-1.14,2.67-2.28,4.02-3.41,1.29-1.08,2.59-2.14,3.88-3.21,1.35-1.12,2.69-2.24,4.23-3.52,2.37,1.45,4.71,2.8,6.96,4.29,1.29.85,1.67,2.3,1.86,3.75.36,2.77-.17,5.4-1.35,7.92-2.32,4.93-5.88,8.92-9.77,12.63-1.67,1.6-3.48,3.06-5.24,4.57-4.74,4.06-10.26,6.74-16.02,8.96-.8.31-1.67.46-2.7.73-.67-1.45-1.3-2.8-1.93-4.17-2.46-5.37-4.71-10.85-8.45-15.53-.4-.5-.62-1.31-.59-1.97.35-9.01-.68-17.84-3.51-26.42-2.3-6.98-4.65-13.94-6.97-20.91-.22-.66-.41-1.34-.62-2,.13-.08.26-.16.4-.24Z"/>
  <path class="cls-2" d="m434,152.6c-4.69-.93-9.14-1.82-13.59-2.72-.38-.08-.82-.2-1.08-.46-2.03-1.98-4.61-2.78-7.41-3.35.13-4.11.25-8.16.41-12.2.09-2.31.27-4.62.36-6.94.35-8.78.67-17.55,1.02-26.33.05-1.35.16-2.71.28-4.06.13-1.43.63-1.97,2.11-2.08,1.11-.08,2.24-.04,3.35.06,6.76.59,13.51,1.23,20.27,1.83,3.97.36,7.95.67,11.93,1.03.46.04.91.24,1.5.4-.03.42,0,.81-.1,1.16-2.41,8.7-4.71,17.43-7.32,26.06-1.1,3.65-2.8,7.13-4.39,10.62-2.52,5.51-5.5,10.81-7.33,16.97Z"/>
  <path class="cls-2" d="m211.75,53.7c.83,2.15,1.73,4.28,2.47,6.45,1.98,5.82,3.71,11.74,5.88,17.49,2.42,6.42,2.76,12.89,1.54,19.56-.41,2.27-.63,4.59-.8,6.9-.28,3.73,1.92,8.23,5.19,10.47-1.1-2.6-.37-4.94.67-6.98,1.27-2.5,1.58-5.72,4.84-7.1-1.18,5.57-2.37,11.14-3.59,16.9-3.89-.65-7.58-1.25-11.26-1.9-15.18-2.65-30.37-5.24-45.53-8.03-3.82-.7-7.51-2.08-11.63-3.26.81-.29,1.29-.55,1.8-.64,7.43-1.29,14.67-3.28,21.59-6.25,16.38-7.03,25.69-19.45,27.81-37.18.25-2.11.3-4.24.45-6.36.19-.03.38-.05.57-.08Z"/>
  <path class="cls-2" d="m412.24,114.26c-.45,10.43-.89,20.86-1.35,31.43-.63.04-1.16.11-1.69.11-.96,0-1.93.06-2.87-.04-8.01-.89-15.06,2.02-21.95,5.54-2.56,1.31-5.06,2.73-7.6,4.08-.67.36-1.37.65-2.25,1.06.07-.52.06-.74.13-.95,1.42-4.49,3.05-8.92,4.23-13.47,2-7.7,4.98-14.98,8.65-22.02,2.47-4.74,4.84-9.54,7.19-14.35,2.01-4.1,4.29-8.02,7.15-11.59,3.25-4.05,6.42-8.15,9.64-12.22,1.23-1.56,2.78-2.63,4.81-2.87,1.74-.2,2.5.31,3.01,1.99.43,1.41.17,2.72-.69,3.86-1.92,2.55-3.9,5.05-5.87,7.56-.59.75-1.25,1.45-1.89,2.17-2.53,2.82-4.59,5.92-5.78,9.56-1.44,4.4-3.02,8.75-4.45,13.14-.39,1.2-.61,2.49-.67,3.76-.11,2.26,1.29,3.24,3.19,2.06,1.67-1.04,3.17-2.42,4.52-3.86,1.5-1.6,2.74-3.44,4.09-5.17l.45.21Z"/>
  <path class="cls-2" d="m174.93,237.35c4.58,3.21,9.44,6.1,12.15,11.38,1.53,2.98,3.23,5.88,4.71,8.89.7,1.42,1.24,2.96,1.56,4.51.58,2.77-.62,4.36-3.46,4.52-2.79.15-5.6.16-8.38-.03-8.2-.55-16.38-1.22-24.57-1.86-9.14-.71-18.28-1.5-27.43-2.11-3.58-.24-7.18-.08-10.77-.12-.39,0-.79-.07-1.16-.1-.5-1.73-.59-10.94-.14-13.93,2.89-.46,5.82-.17,8.72.09,9.69.88,19.36,1.96,29.06,2.73,6.04.48,12.11.63,18.16.78,1.81.04,3.68-.23,5.43-.69,3.56-.93,4.56-3.29,2.5-6.3-1.42-2.08-3.38-3.79-5.13-5.64-.53-.56-1.14-1.03-1.72-1.54.15-.19.3-.38.45-.57Z"/>
  <path class="cls-2" d="m219.26,282.7c-1.75-2.45-3.76-4.75-5.21-7.37-3.83-6.93-7.69-13.82-12.32-20.26-3.53-4.91-8.07-8.84-12.49-12.88-5.49-5.01-11.06-9.92-16.57-14.9-.44-.4-.93-1.01-.96-1.54-.17-2.87.12-5.7.99-8.56,1.89.13,3.6.51,5.11,1.39,8.15,4.75,16.17,9.69,23.41,15.79,4.58,3.87,7.46,8.91,10,14.18,2.7,5.59,3.92,11.62,5.11,17.67,1.06,5.39,2.28,10.76,3.43,16.14-.17.11-.33.22-.5.34Z"/>
  <path class="cls-2" d="m174.06,109.02c17.78,3.1,35.56,6.2,53.58,9.34-.45,2.98-1.16,5.73-1.95,8.46-.13.44-.77.76-1.22,1.06-1.47.96-2.99,1.85-4.43,2.84-3.86,2.65-8.01,2.74-12.04.8-3.43-1.65-6.68-3.75-9.86-5.86-7.12-4.72-14.15-9.57-21.22-14.36-.97-.66-2-1.24-3-1.86.05-.14.1-.28.14-.42Z"/>
  <path class="cls-2" d="m84.96,268.59c1.49-6.6,3.29-12.85,5.83-18.84,4.36,0,8.59.17,12.8-.05,4.11-.21,8.2-.8,12.48-1.24v14.17c-1.2.2-2.39.3-3.52.59-4.01,1.05-7.98,2.32-12.02,3.2-4.12.9-8.32,1.48-12.5,2.14-.92.14-1.88.02-3.07.02Z"/>
  <path class="cls-2" d="m183.41,220.03c3.33,1.27,6.78,2.29,9.97,3.87,7.2,3.55,13.81,8.02,19.34,13.93.73.79,1.37,1.78,1.72,2.79,2.77,8.17,5.43,16.37,8.17,24.55,2.67,7.96,3.68,16.16,3.64,24.53,0,.31-.08.62-.12.96-1.81-1.15-4.5-4.78-4.92-6.72-1.74-8.04-3.45-16.08-5.18-24.11-1.62-7.52-4.71-14.39-9.13-20.69-2.24-3.19-5.09-5.75-8.2-8-4.33-3.14-8.81-6.07-13.23-9.09-.76-.52-1.52-1.01-2.29-1.52.08-.16.16-.33.25-.49Z"/>
  <path class="cls-2" d="m62.07,103.43c-1.75,0-3.49.03-5.24,0-1.47-.03-1.76-1.27-2.05-2.31-.96-3.53-2.82-6.59-4.87-9.55-.86-1.25-1.77-2.47-2.57-3.76-.96-1.56-1.93-3.13-2.71-4.79-1.1-2.36-.6-3.74,1.76-4.88,3.32-1.6,4.63-1.29,6.89.87,4.46,4.26,8.58,8.8,12.21,13.78,1.63,2.24,2.69,4.7,3.04,7.45.24,1.89-.13,2.52-1.96,2.86-1.48.28-3,.39-4.5.58,0-.08-.01-.17-.02-.25Z"/>
  <path class="cls-2" d="m413.07,93.86c-.23,5.53-.44,10.84-.7,16.14-.03.61-.17,1.31-.51,1.79-1.99,2.78-3.96,5.59-6.14,8.22-1.47,1.77-2.23,2.01-4.32,2.53-.75-1.35-.4-2.78-.05-4.11.74-2.77,1.6-5.51,2.52-8.22.79-2.34,1.79-4.61,2.6-6.94,1.18-3.4,3.36-6.12,5.71-8.75.2-.22.48-.36.89-.67Z"/>
  <path class="cls-2" d="m458.98,140.83c-.58-1.28.11-2.46.44-3.65,1.08-4,2.45-7.93,3.32-11.97,1.77-8.19,2.84-16.49,3.26-24.87.05-1.07.25-2.14.39-3.21.17,0,.35,0,.52,0,.19.91.56,1.81.54,2.71-.08,4.22-.26,8.45-.41,12.67-.19,5.26-.67,10.53-.51,15.77.15,5.04-2.52,8.55-5.38,12.1-.52.65-1.24,1.01-2.16.45Z"/>
  <path class="cls-2" d="m453.91,94.51c-.2,2.01-.2,2.08-1.68,1.99-2.78-.18-5.56-.42-8.34-.67-7.85-.71-15.7-1.48-23.56-2.15-1.96-.17-3.95-.02-5.92-.02-.2-2.13.21-2.69,2.19-2.55,4.05.29,8.1.68,12.15,1.05,6.67.6,13.33,1.2,20,1.81,1.73.16,3.45.37,5.17.55Z"/>
  <path class="cls-2" d="m224.32,140.91c0-1.09-.13-1.85.02-2.55,1.31-6.06,2.65-12.12,4.02-18.16.3-1.33.37-1.32,1.88-1.19.21,2.84-4.22,19.79-5.92,21.9Z"/>
  <path class="cls-2" d="m433.48,157.04c-.38,1.98-.65,3.54-.98,5.08-.11.54-.31,1.07-.56,1.56-.45.9-1.17,1.75-2.21,1.36-.56-.21-1.15-1.16-1.19-1.8-.14-2.27-.06-4.55-.06-7.15,1.74.33,3.25.62,5,.95Z"/>
  <path class="cls-2" d="m421.41,153.77c-.21-.96-.37-1.7-.6-2.77,4.45.88,8.62,1.71,13.01,2.58-.13.84-.24,1.49-.38,2.39-4.08-.74-7.96-1.45-12.03-2.2Z"/>
  <path class="cls-2" d="m230.76,117.9c-.69-.18-1.13-.3-1.81-.48,1.12-5.28,2.23-10.49,3.34-15.71.22.04.43.07.65.11.02,5.34-1.38,10.52-2.18,16.08Z"/>
  <path class="cls-2" d="m176.46,241.36c3.46,2.45,4.95,4.79,4.55,7.33-2.01-2.31-3.38-4.75-4.55-7.33Z"/>
  <path class="cls-2" d="m225.59,107.01c-.36,1.54-.67,2.84-1.03,4.37-1.63-1.32-2.2-2.95-2.62-5.1,1.3.26,2.4.48,3.65.73Z"/>
  <path class="cls-2" d="m283.85,427.74c-.36.39-.72.77-1.07,1.16-.09-.07-.19-.15-.28-.22.3-.42.59-.85.89-1.27.15.11.31.23.46.34Z"/>
  <path class="cls-1" d="m173.96,160.14c-4.84-.11-9.27-1.69-13.6-3.6-1.9-.84-3.75-1.79-5.6-2.73-5.48-2.78-10.96-5.57-16.42-8.38-5.82-3-9.7-7.8-12.14-13.72-3.05-7.41-1.85-14.5,2.67-20.91,3.39-4.81,8.44-6.38,14.17-5.7,2.41.28,3.85,2.08,5.28,3.84.95,1.16,1.89,2.41,3.08,3.27,5.12,3.69,10.26,7.35,15.53,10.82,5.42,3.57,10.68,7.3,15.37,11.81,3.77,3.62,5.74,8.19,7.32,13.02.65,1.99.34,3.88-1.14,5.34-3.17,3.12-6.7,5.71-11.2,6.57-1.09.21-2.21.26-3.32.39Zm-22.77-9.42c5.97,3.38,11.87,6.54,18.52,7.92,1.85.39,3.8.5,5.69.39,4.72-.25,8.36-2.89,11.8-5.82,1.83-1.55,2.05-3.59,1.35-5.69-1.75-5.21-4.22-9.94-8.52-13.62-4.5-3.86-9.27-7.3-14.27-10.48-3.77-2.4-7.42-4.98-11.11-7.51-1.24-.85-2.41-1.79-3.63-2.7-.26.49-.46.87-.79,1.48-.89-1.76-1.6-3.34-2.47-4.81-1.47-2.48-3.54-4.1-6.59-4.05-5.03.07-9.21,1.86-12.04,6.16-2.19,3.33-3.41,7.03-3.51,11.04-.19,8.08,3.48,14.44,9.63,19.14,3.69,2.82,8.16,4.63,12.32,6.82,1.59.83,3.18.87,4.42-.76.02-.03.26.11.58.25-.42.67-.82,1.32-1.4,2.24Z"/>
  <path class="cls-2" d="m151.18,150.72c.57-.92.98-1.57,1.4-2.24-.32-.14-.56-.28-.58-.25-1.24,1.63-2.83,1.6-4.42.76-4.16-2.19-8.63-4-12.32-6.82-6.15-4.7-9.82-11.06-9.63-19.14.09-4.01,1.32-7.71,3.51-11.04,2.82-4.3,7.01-6.09,12.04-6.16,3.05-.04,5.12,1.58,6.59,4.05.88,1.48,1.58,3.06,2.47,4.81.32-.61.53-.99.79-1.48,1.22.91,2.39,1.85,3.63,2.7,3.68,2.53,7.34,5.11,11.11,7.51,4.99,3.18,9.77,6.62,14.27,10.48,4.3,3.69,6.77,8.42,8.52,13.62.71,2.1.49,4.13-1.35,5.69-3.45,2.93-7.08,5.56-11.8,5.82-1.89.1-3.84,0-5.69-.39-6.64-1.38-12.55-4.54-18.52-7.92Z"/>
</svg>