<?xml version="1.0" encoding="UTF-8"?>
<svg id="SKHLMC" xmlns="http://www.w3.org/2000/svg" viewBox="0 0 288.26 381.24">
  <defs>
    <style>
      .cls-1 {
        fill: #010101;
        stroke-width: 0px;
      }
    </style>
  </defs>
  <path class="cls-1" d="m165.95,226.39c-1.72-.6-3.36-1.11-4.95-1.74s-3.14-1.39-4.75-2.11c-.75.8-1.5,1.63-2.28,2.45-1.16,1.23-2.39,2.38-3.77,3.38-.49.35-.95.88-1.17,1.43-.39,1.01-.61,2.08-.87,3.14-.08.33-.11.68-.16,1.01h-.19c-.04-.17-.13-.36-.1-.52.22-1.1.39-2.22.71-3.28.31-1,1.01-1.74,1.89-2.36,2.13-1.49,3.82-3.45,5.55-5.43-3.65-2.28-7.22-4.5-10.89-6.79-.67,2.12-1.26,4.24-2.29,6.4-.1-.63-.1-.63.31-1.72.21-.56.4-1.12.59-1.69.18-.53.36-1.07.53-1.6.17-.53.32-1.07.5-1.67-2.62-1.88-5.21-3.75-7.95-5.71-.4,1.89-.34,3.76-.68,5.55h-.22c-.02-.2-.08-.4-.07-.59.13-1.58.27-3.17.42-4.75.04-.39.02-.69-.34-.95-2.67-1.89-5.3-3.87-8.02-5.7-2.5-1.69-5.33-2.14-8.34-1.99-3.11.15-6.23.06-9.34.08h-1.36c-.15.48-.32.94-.44,1.41-.49,1.87-.69,3.78-.8,5.69-.04.65.16,1.19.7,1.65,2.19,1.87,4.36,3.76,6.49,5.71.67.62,1.17,1.42,1.72,2.16,1.01,1.36,1.94,2.77,2.47,4.4.17.53.27,1.09.34,1.65.11.95-.21,1.75-.93,2.4-.76.69-1.48,1.42-2.24,2.12-2.91,2.71-6.4,3.46-10.23,2.98-1.54-.19-3.08-.44-4.62-.66-.19-.02-.39,0-.79,0,.36.32.58.53.82.74,3.5,2.99,7.08,5.89,10.47,9,3.57,3.27,6.67,7,9.81,10.68,2.15,2.52,4.25,5.08,6.37,7.63.22.27.43.56.7.91-.57.12-.68-.29-.85-.5-2.63-3.11-5.21-6.26-7.86-9.36-2.87-3.34-5.72-6.73-9.02-9.65-3.59-3.18-7.32-6.22-11-9.3-.29-.24-.68-.43-1.05-.51-1.59-.31-3.19-.58-4.79-.85-.12-.02-.26,0-.52,0,.18.29.28.52.43.72,2.54,3.37,5.44,6.41,8.5,9.31,4.47,4.24,8.92,8.51,13.37,12.77,1.39,1.33,2.77,2.66,4.15,4,.17.17.31.37.47.56l-.16.18c-.26-.22-.53-.41-.78-.65-3.1-2.99-6.19-5.99-9.3-8.97-2.92-2.8-5.85-5.58-8.79-8.36-2.99-2.83-5.76-5.86-8.2-9.18-.29-.4-.61-.65-1.11-.73-6.74-1.13-13.32-2.91-19.9-4.7-3.44-.94-6.93-1.01-10.45-.63-.92.1-1.84.2-2.75.31-.41,1.84-.92,3.6-1.18,5.39-.51,3.55-1.32,7.02-2.41,10.44-.75,2.33-1.36,4.71-2.18,7.02-.94,2.63-.91,5.25-.41,7.93.51,2.77,1.28,5.48,2.18,8.15.05.15.13.29.25.55.34-.22.63-.41.92-.61,5.01-3.33,10.35-5.92,16.23-7.27,2.03-.46,4.11-.68,6.18-.94,1.48-.18,2.97-.27,4.45-.34,5.59-.27,10.64,1.27,15.28,4.39,3.88,2.62,7.61,5.42,11.25,8.35.46.37.9.58,1.51.61,2.96.12,5.6,1.3,8.1,2.75,1.48.86,2.89,1.87,4.26,2.9.85.63,1.75,1.1,2.79,1.19,2.79.25,4.83,1.7,6.38,3.93.95,1.36,1.86,2.75,2.67,4.19,1.45,2.59,3.73,4.26,6.19,5.74.16.1.37.16.55.15,1.61-.1,2.99.51,4.24,1.43,1.47,1.07,2.9,2.21,4.34,3.32.65.5,1.29,1.02,2.01,1.6-.48.24-.68-.07-.91-.25-1.46-1.14-2.91-2.31-4.39-3.42-.85-.63-1.75-1.19-2.67-1.72-.49-.29-1.05-.51-1.73-.42.1.15.13.26.2.3,1.12.71,1.3,1.76,1.07,2.96-.12.65-.22,1.31-.35,1.95-.05.24-.17.46-.25.7-.07,0-.13,0-.2-.02,0-.2-.02-.4,0-.6.12-1.02.26-2.03.39-3.05.08-.63-.19-1.09-.68-1.45-.38-.27-.77-.51-1.16-.76-1.06-.68-2.14-1.32-3.16-2.06-1.49-1.07-2.75-2.38-3.69-3.98-.72-1.23-1.47-2.44-2.24-3.63-.78-1.2-1.69-2.29-2.86-3.15-.87-.64-1.84-1.07-2.91-1.18-1.66-.18-3.08-.8-4.39-1.88-2.34-1.93-5.03-3.3-7.86-4.39-1.87-.72-3.82-.76-5.78-.71-3.38.08-6.76.17-10.13.26-4.73.12-9.47.29-14.2.36-4.77.07-9.52-.38-14.26-.96-3.02-.37-6.03-.8-9.05-1.22-.26-.04-.52-.12-.78-.19.01-.07.03-.14.04-.21.21,0,.41-.02.62,0,3.42.44,6.82.93,10.24,1.31,2.93.32,5.86.6,8.8.74,2.94.14,5.89.18,8.84.11,5.06-.12,10.13-.34,15.19-.52,1.52-.05,3.05-.1,4.57-.16.12,0,.25-.05.47-.09-.15-.18-.23-.32-.34-.41-3.99-3.19-8.02-6.3-12.39-8.97-3.86-2.36-8.03-3.52-12.56-3.43-6.3.13-12.48.92-18.33,3.43-3.54,1.52-6.93,3.32-10.1,5.52-1.94,1.34-3.17,3.16-3.89,5.37-.61,1.87-.82,3.81-1.04,5.75-.32,2.9.44,5.57,1.42,8.23,1.4,3.82,2.76,7.66,4.13,11.49.04.11.03.24-.12.46-.12-.19-.27-.36-.35-.56-.6-1.61-1.28-3.2-1.76-4.85-.7-2.42-1.63-4.76-2.54-7.1-.85-2.22-1.37-4.5-1.22-6.89.15-2.32.36-4.62,1.15-6.83.61-1.72,1.5-3.24,2.87-4.47.17-.15.37-.27.52-.38-.53-1.75-1.08-3.35-1.48-4.99-.47-1.93-.88-3.88-1.2-5.83-.29-1.78-.19-3.56.37-5.31.89-2.77,1.67-5.58,2.57-8.36,1.07-3.29,1.78-6.64,2.3-10.06.21-1.37.6-2.71.89-4.07.07-.34.07-.7.1-1.05-.7-.19-1.05.05-1.34.61-1.7,3.19-3.42,6.36-5.16,9.52-.43.78-.87,1.56-1.38,2.3-2.4,3.5-3.93,7.34-4.66,11.51-.46,2.61-1.09,5.18-1.27,7.84-.17,2.62.1,5.22.23,7.83.41,7.79,1.99,15.35,4.43,22.75.82,2.48,1.57,4.99,2.34,7.49.08.27.13.55.2.83-.55.13-.54-.26-.62-.51-.48-1.51-.95-3.03-1.43-4.55-1.37-4.39-2.79-8.77-3.76-13.27-.79-3.66-1.29-7.37-1.53-11.1-.13-2.05-.26-4.1-.36-6.15-.2-4.11.48-8.12,1.43-12.09.41-1.74.85-3.47,1.36-5.18.58-1.95,1.54-3.74,2.72-5.39,2.75-3.84,4.98-7.97,7.04-12.21.87-1.79,1.82-3.53,2.7-5.31.69-1.4,1.7-2.43,3.21-2.91.82-.26,1.29-.94,1.66-1.64.83-1.58,1.65-3.17,2.34-4.82,1.46-3.46,2.28-7.11,3.23-10.73,1.19-4.55,1.29-9.16,1.1-13.81,0-.17-.03-.33-.05-.54-.44-.19-.97-.29-1.32-.59-.82-.71-1.72-1.41-2.29-2.3-1.19-1.86-2.2-3.85-3.28-5.78-.23-.41-.47-.8-.66-1.22-1.02-2.24-2.54-4-4.69-5.23-.86-.5-1.57-1.21-2.25-1.98-.93-1.05-1.77-2.18-2.61-3.28-.95-1.24-1.55-2.75-2.26-4.17-2.93-5.79-4.87-11.88-5.4-18.37-.22-2.67-.32-5.36-.33-8.04,0-1.99.43-3.95,1.07-5.84,1.05-3.15,2.43-6.16,4.02-9.07,1.33-2.45,3.32-4.38,5.43-6.15,3.13-2.61,6.62-4.61,10.41-6.1,3.8-1.5,7.67-2.75,11.71-3.37,3.4-.53,6.83-.93,10.29-.68,1.88.13,3.75.45,5.6.79,3.09.57,6.19,1.14,9.24,1.85,4.23.99,8.11,2.84,11.75,5.19,1.95,1.25,3.97,2.42,5.77,3.87,2.12,1.72,4.1,3.61,5.86,5.74,1.81,2.18,2.82,4.7,3.52,7.35.51,1.94.81,3.94,1.17,5.91.1.52.04,1.06.08,1.59.04.59.11,1.18.16,1.77.02.27.06.53.02.79-.23,1.73-.48,3.46-.72,5.19-.08.59-.11,1.19-.23,1.77-.08.38-.22.77-.41,1.11-.4.73-.75.82-1.54.51-.12-.05-.25-.08-.38-.11-.03,0-.06.02-.22.06.13,2.06.58,4.1.8,6.22.38.02.67.05.97.05,1.07,0,1.04-.05,1.33-1.11.31-1.11.82-2.17,1.63-3.03.53-.57,1.07-.51,1.59.07.78.88,1.14,1.95,1.22,3.08.16,1.98.22,3.97.32,5.95,0,.16-.05,4.46-.17,4.62-.03-.8-.03-5.73-.07-6.53-.05-.96.04-1.96-.19-2.87-.34-1.3-.87-2.56-1.42-3.79-.26-.58-.65-.54-1.06-.02-.73.93-1.3,1.96-1.28,3.17.03,1.99.14,3.97.25,5.95.04.76.23,1.51.25,2.27.04,1.41.52,2.64,1.3,3.79.37.54.68,1.13,1.05,1.77.79-1.11.76-2.53,1.17-3.73.3,1.01.26,2.13-.11,2.97-.1.21-.22.41-.32.62-.39.77-.27.97.61,1.01.4.02.8,0,1.19,0,.29,0,.58.05.9.07.03.22.1.39.06.53-.36,1.5-.81,2.98-1.43,4.4-1.15,2.64-2.2,5.31-2.84,8.13-.44,1.93-.77,3.88-1.29,5.79-.37,1.37-.99,2.67-1.49,4-.19.53-.39,1.05-.55,1.59-.35,1.22-1.1,1.84-2.31,1.6-1.02-.21-1.8.25-2.66.55-.59.2-1.17.41-1.77.59-1.26.39-2.52.83-3.81,1.1-1.05.22-2.16.31-3.23.25-1.07-.05-2.04.09-2.99.53-.72.34-1.43.7-2.14,1.04-1.65.77-2.37,2.21-2.87,3.96.37.02.69.07,1,.06,3.58-.02,7.16.06,10.73-.1,2.61-.12,4.93.56,7.06,1.91,1.98,1.26,3.87,2.67,5.79,4.03,5.3,3.75,10.56,7.56,15.9,11.24,3.77,2.6,7.9,4.59,12.04,6.53,2.23,1.04,4.63,1.57,7.09,1.8.63.06,1.25.13,1.88.16.68.02,1.2.34,1.66.79.23.23.45.48.7.76.19-.14.36-.23.48-.36,2.18-2.23,4.6-4.19,7.06-6.11,2.27-1.77,4.66-3.46,6.38-5.8,1.55-2.11,2.96-4.32,4.25-6.59,3.05-5.35,5.98-10.77,8.97-16.15.82-1.48,1.23-3.06,1.2-4.75-.06-3.88.99-7.53,2.42-11.08.64-1.59,1.74-2.89,2.79-4.21,1.29-1.61,2.39-3.33,3.36-5.15,2.08-3.92,4.07-7.88,5.46-12.12.38-1.14,1.02-2.15,1.87-3.02.12-.12.22-.26.34-.36,1.69-1.38,2.12-3.28,2.26-5.31.05-.66.1-1.32.19-1.98.17-1.25.77-1.76,2.02-1.63,2.3.23,4.59.58,6.89.77,1.07.09,1.99.38,2.86.98.45.31.71.72.78,1.21.31,2.47.36,4.94.05,7.41-.01.1-.01.2-.02.3-.08,2.11-.14,4.23-.23,6.34-.12,2.67-.26,5.34-.39,8-.05.95-.12,1.91-.17,2.86-.07,1.11-.13,2.23-.19,3.34-.04.73.16,1.37.71,1.88.54.5.72,1.16.66,1.92.61-.05,1.13-.09,1.64-.15,1.11-.14,2.11.1,2.98.81.53.44,1.21.64,1.63,1.25.32.46.51.89.53,1.45.07,1.38-.17,2.7-.58,4-.22.69-.42,1.38-.61,2.08-.04.15,0,.31,0,.41.97.11,1.9.1,2.77.34,1.17.32,2.23.95,2.65,2.2.32.94.48,1.92.19,2.92-.21.73-.37,1.48-.54,2.22-.07.28-.1.57-.15.86.82.1,1.58.16,2.32.3,3,.56,3.76,2.69,3.41,5.19-.44,3.24-1.46,6.3-2.95,9.2-.55,1.07-1.29,2.07-2.05,3.02-3.82,4.75-7.77,9.39-12.13,13.67-1.3,1.27-2.54,2.61-3.79,3.94-.82.88-1.39,1.89-1.77,3.06-.6,1.82-1.24,3.63-2.02,5.38-.73,1.62-1.7,3.15-2.5,4.74-1.11,2.18-2.22,4.36-3.22,6.59-1.26,2.8-2.43,5.64-3.6,8.48-1.01,2.44-1.93,4.92-2.93,7.36-1.45,3.55-2.93,7.08-4.4,10.62-1.1,2.66-2.16,5.33-3.3,7.96-1.22,2.82-2.52,5.6-3.79,8.4-.17.36-.3.78-.92.51.11-.26.2-.53.33-.78,2.79-5.39,5.09-11,7.37-16.62,3.42-8.41,6.81-16.83,10.36-25.18,1.52-3.56,3.37-6.98,5.17-10.41.93-1.77,1.73-3.57,2.35-5.47.25-.75.51-1.51.8-2.25.41-1.02.97-1.95,1.74-2.75,1.33-1.38,2.62-2.82,4-4.15,3.47-3.34,6.52-7.05,9.63-10.71.41-.48.79-.98,1.21-1.45,3.2-3.56,4.95-7.8,5.83-12.43.17-.9.11-1.85.05-2.77-.06-1-.6-1.74-1.53-2.16-.54-.24-1.1-.46-1.66-.66-.71-.26-1.43-.24-2.21.14-.35,2.12-.29,4.32-.68,6.53-.04-.1-.11-.19-.11-.29,0-2.72.09-5.43.61-8.11.16-.81.44-1.59.65-2.39.22-.84.04-1.64-.24-2.43-.22-.63-.63-1.09-1.24-1.35-1.76-.75-2.74-1.02-4.14-.36-.43,1.92-.86,3.88-1.29,5.84h-.21c-.02-.19-.1-.38-.07-.56.14-.75.32-1.49.48-2.23.55-2.49,1.07-4.98,1.89-7.4.22-.65.37-1.35.44-2.04.11-1.2-.26-2.22-1.36-2.88-.31-.19-.6-.42-.9-.62-.69-.44-1.43-.64-2.26-.58-1.52.12-2.94.5-4.15,1.45-.83.65-1.65,1.33-2.46,2.01-.17.15-.4.34-.41.53-.1,1.24-.09,2.48.32,3.91.53-.87.92-1.57,1.37-2.24.43-.63.71-1.38,1.45-1.9-.2.81-2.31,4.15-2.91,4.6-.15-.24-.36-.45-.43-.7-.12-.48-.2-.98-.21-1.47-.07-2.81-.06-5.62.43-8.42,1.12-6.43,2.35-12.83,3.91-19.17.22-.89.36-1.82.39-2.74.07-1.96-1.71-3.14-3.54-2.37-1.56.65-2.52,1.93-3.17,3.41-.56,1.27-1,2.59-1.43,3.92-.7,2.18-1.19,4.43-2.05,6.54-1.62,3.95-2.24,8.09-2.74,12.27-.41,3.44-1.44,6.65-3.15,9.66-1.19,2.11-2.35,4.23-3.53,6.34-.14.25-.32.47-.55.8-.22-.53.1-.78.25-1.07,1.1-2,2.22-4,3.32-6,.19-.34.35-.69.39-1.15-.16.12-.35.22-.48.36-2.4,2.57-4.79,5.14-7.17,7.71-.8.87-1.25,1.94-1.65,3.03-.94,2.56-1.32,5.26-1.96,7.9-.95,3.94-1.43,7.95-1.72,11.98-.27,3.59-1.31,6.95-2.55,10.28-1.58,4.22-3.19,8.43-4.86,12.6-1.45,3.62-2.97,7.22-4.56,10.79-2.04,4.59-4.75,8.79-7.66,12.87-3.68,5.15-7.75,10-11.73,14.92-4.1,5.08-8.2,10.15-12.31,15.22-.23.29-.4.68-1.09.68.31-.41.51-.69.72-.96,7.38-9.28,14.78-18.54,22.14-27.85,2.34-2.96,4.65-5.95,6.5-9.26,2.15-3.85,4.01-7.83,5.7-11.9.08-.2.14-.41.05-.74-.69.6-1.38,1.19-2.06,1.81-1.02.94-2.01,1.94-3.06,2.84-.75.64-1.57,1.21-2.41,1.74-1.95,1.25-4.1,1.76-6.4,1.75-1.75,0-3.49-.15-5.19-.5-1.21-.25-2.37-.74-3.54-1.17-1.45-.53-2.88-1.08-4.31-1.65-.45-.18-.85-.48-1.29-.69-.35-.16-.74-.24-1.11-.38-.17-.07-.32-.19-.47-.29-1.24-.79-2.48-1.17-4.01-.69-2.62.81-4.45,2.55-6.04,4.62-.66.86-1.16,1.84-1.71,2.79-.32.56-.62.89-1.39.8-1.1-.13-2.23-.03-3.33-.03,0-.27.06-.62,0-.95-1.19-5.94-2.34-11.89-3.59-17.82-.98-4.66-2.79-9.04-4.87-13.31-1.89-3.88-4.05-7.6-6.43-11.2-.12-.18-.21-.39-.37-.7.56.06.68.44.84.71,1.46,2.4,2.98,4.78,4.35,7.24,2.47,4.43,4.64,9.03,6.02,13.93.92,3.28,1.62,6.62,2.32,9.96.78,3.69,1.45,7.41,2.18,11.11.04.19.08.38.12.55.94.07,1.82.18,2.71.19.25,0,.57-.2.73-.41.35-.44.63-.93.92-1.41.85-1.43,1.78-2.79,2.92-4.01.75-.8,1.65-1.34,2.63-1.74,1.16-.48,2.34-.94,3.56-1.25,2.95-.76,5.31-2.31,7.03-4.85,1.96-2.9,3.1-6.14,3.86-9.52.22-.99.33-2.02.48-3.03.18-1.18-.55-1.98-1.93-2.12-1.15-.11-2.3-.21-3.44-.31-.1,0-.19.02-.37.05-.16.44-.32.9-.49,1.36-1.76,4.82-3.54,9.64-6.05,14.14-.47.83-1.04,1.61-1.6,2.39-.19.27-.49.48-.78.75-.07-.19-.13-.28-.11-.3,1.43-1.52,2.38-3.33,3.28-5.18,2.04-4.17,3.66-8.51,5.22-12.88.04-.12.06-.25.09-.39l-.05.02Zm-60.77-89.7c.59.24.9.77,1.21,1.27.58.93,1.11,1.89,1.7,2.8.41.64.87,1.25,1.34,1.84.93,1.16,2.11,1.9,3.61,2.08,1.35.16,2.69.35,4.04.46,1.17.09,1.66-.29,2.09-1.42.23-.62.41-1.26.69-1.86.31-.65.68-1.29,1.09-1.89.14-.2.53-.41.72-.35.21.07.44.42.47.68.09.65.12,1.31.11,1.97,0,.66-.12,1.32-.12,1.98,0,.58.19.75.78.81.17.02.33.02.5,0,1.84-.1,3.66.07,5.47.48.77.17,1.12-.02,1.33-.8.21-.76.34-1.55.46-2.33.65-4.29.75-8.57-.31-12.82-1.79-7.19-2.71-8.02-6.65-12.01-3.25-3.29-7.06-5.77-11.05-8.03-2.81-1.59-5.76-2.84-8.89-3.63-4.14-1.05-8.35-1.77-12.58-2.39-3.86-.57-7.74-.46-11.58.13-4.26.65-8.38,1.94-12.43,3.42-3.84,1.4-7.29,3.44-10.46,6.01-2.9,2.35-5.36,5.03-6.77,8.55-.19.49-.46.95-.69,1.43-1.72,3.7-2.85,7.56-3.07,11.65-.08,1.45.02,2.91.16,4.36.26,2.7.48,5.41.95,8.08,1.04,5.95,3.53,11.36,6.6,16.51,1.45,2.43,3.21,4.64,5.67,6.17,1.55.96,2.67,2.25,3.51,3.83.81,1.52,1.61,3.04,2.45,4.55.65,1.19,1.27,2.41,2.04,3.52.74,1.07,1.53,2.19,3.06,2.25.15,0,.27.18.43.22.31.08.63.2.94.17.71-.07,1.22-.56,1.29-1.42.07-.95.12-1.94-.08-2.86-.92-4.07-1.83-8.14-3.24-12.08-.32-.9-.57-1.84-.77-2.77-.33-1.6-.29-3.15.81-4.53.2-.25.26-.66.29-1.01.14-1.87.57-3.65,1.34-5.37.62-1.38,1.67-2.07,3.14-1.93,1.01.1,2.04.29,3,.62,2.23.78,4.26,1.98,6.16,3.38.46.34.88.45,1.45.39,1.97-.21,3.95-.34,5.94-.5,1.05-.09,2.09-.19,3.23-.29v-1.04c.01-2.22.04-4.44.02-6.66,0-1.28.66-2.04,1.76-2.5.43-.18.87-.35,1.31-.44,1.33-.29,2.65-.56,3.99-.79,1.77-.31,2.31-.82,2.64-2.59.04-.23.07-.46.08-.69.07-1.12.12-2.25.21-3.37.04-.47,0-1.02.61-1.27v.02Zm2.81,76.3c-.08.02-.17.03-.25.05-.07-.17-.17-.34-.21-.53-.44-2.02-.63-4.08-.31-6.12.31-2.02.77-4.03,1.26-6.01.37-1.46,1.03-2.83,2.36-3.68.89-.57,1.87-.99,2.81-1.48.31-.16.63-.28,1.07-.47-1.43-.85-2.37-2-3.18-3.25-.66-1.03-1.32-2.07-1.86-3.17-.44-.89-1.02-1.44-1.95-1.79-1.43-.54-2.82-1.23-3.17-2.95-2.23-.3-4.35-.77-6.39-1.6-3.13-1.28-6.29-2.47-9.42-3.73-.74-.3-1.33-.26-2.03.15-2.34,1.36-4.73,1.53-7.18.19-2.85-1.56-5.41-3.46-7.41-6.04-.1-.12-.21-.23-.48-.52.14.56.23.91.32,1.26.53,2.15,1.09,4.3,1.58,6.46.19.83.27,1.7.26,2.56-.02,1.58-.63,2.23-2.17,2.61-.06.01-.1.07-.19.14,0,.43-.03.9,0,1.35.18,2.42.25,4.83-.11,7.24-.67,4.49-1.75,8.89-3.17,13.21-1.06,3.22-2.45,6.29-3.92,9.33-.15.3-.28.62-.43.96,1.04.05,1.94.01,2.82.14,2.33.34,4.65.69,6.95,1.12,4.33.82,8.63,1.78,12.72,3.47,5.82,2.4,11.9,3.34,18.15,3.27,1.38-.01,2.77-.19,4.14-.41,1.15-.18,2.24-.64,3.1-1.47,1.35-1.29,2.49-2.76,3.38-4.39.65-1.21.44-2.01-.58-2.89-2.05-1.78-4.09-3.58-6.13-5.36-.19-.17-.4-.3-.78-.59.16,1.12.29,2.04.41,2.96h0Zm99.4-34.58c-.02-.09-.04-.18-.05-.27.49-.16.99-.31,1.48-.48,2.11-.76,4.09-1.78,5.6-3.47,2.29-2.55,3.87-5.52,4.95-8.76.68-2.04.65-4.11.08-6.16-.13-.47-.36-.95-.66-1.32-.86-1.07-2.17-.88-2.67.38-.24.61-.41,1.27-.49,1.91-.14,1.11-.47,2.15-1.1,3.05-1.08,1.55-2.18,3.08-3.36,4.55-1.72,2.14-3.56,4.19-5.28,6.33-.68.85-1.35,1.76-1.76,2.75-1.45,3.5-2.54,7.1-2.49,10.96.03,1.92-.45,3.73-1.43,5.4-1.45,2.49-2.87,5-4.27,7.51-1.92,3.44-3.8,6.91-5.71,10.35-2.22,4-5.15,7.35-8.87,10.04-1.9,1.37-3.61,3-5.39,4.53-1,.86-1.96,1.77-2.93,2.67-.19.17-.38.41-.42.65-.22,1.3-.68,2.58-.49,3.92.25,1.77.58,3.52.87,5.29.04.24.04.49.06.73-.08.02-.17.03-.25.05-.59-1.62-.65-3.37-1.11-5.04-.2.34-.32.67-.43,1-.64,1.96-1.41,3.85-2.48,5.62-1.57,2.61-3.64,4.62-6.57,5.64-.13.05-.25.15-.44.27.22.13.36.23.51.29,2.89,1.24,5.77,2.5,8.67,3.7,2.93,1.21,6,1.62,9.15,1.44,1.22-.07,2.48-.1,3.57-.72,1.35-.77,2.74-1.51,3.92-2.51,1.77-1.49,3.4-3.15,5.02-4.81.78-.8,1.62-1.67,2.02-2.67,2.13-5.36,4.12-10.76,6.15-16.15,1.07-2.85,1.5-5.83,1.73-8.84.23-3.01.54-6,1.24-8.94.67-2.84,1.26-5.69,1.96-8.51.45-1.82,1.29-3.45,2.63-4.83,1.67-1.71,3.26-3.48,4.87-5.24.35-.39.73-.8.92-1.27.71-1.78,1.37-3.59,1.99-5.4.2-.58.29-1.22.34-1.84.14-1.83-.14-3.63-.52-5.42-.09-.41-.19-.82-.34-1.39-1.16,1.37-2.35,2.45-3.78,3.26-1.41.8-2.84,1.48-4.45,1.72h0Zm-84.36-11.45c-.35.05-.68.09-1.01.15-2.93.55-5.86.94-8.87.77-3.8-.21-6.44,2.87-5.86,6.64.09.59.2,1.17.29,1.77.15,1-.07,1.83-.77,2.65-1.06,1.24-1.86,2.64-1.78,4.4.04.9.37,1.55,1.13,1.95.9.48,1.8,1.01,2.77,1.32,3.05.99,6.13,1.91,9.21,2.8,3.12.9,6.24,1.76,9.38,2.55,1.58.4,2.13.02,2.76-1.48,1.17-2.75,2.02-5.6,2.68-8.52.78-3.46,1.65-6.89,3.17-10.12.53-1.14.93-2.33,1.39-3.51.06-.15.12-.31.15-.47.1-.63-.07-.84-.71-.87-.4-.02-.79-.05-1.19-.05-2.38,0-4.76,0-7.17,0-.25.48-.47,1-.77,1.48-1.02,1.68-2.57,1.78-3.76.22-.38-.49-.67-1.06-1.05-1.68h0Zm-40.42-6.01c-.31-.25-.57-.46-.82-.66-2.81-2.25-5.86-2.52-9.14-1.16-1.21.51-2.02,1.44-2.71,2.47-.66.99-.5,2.15-.4,3.28.12,1.31.81,2.43,1.15,3.67.54,1.98,1.51,3.75,2.96,5.21,1.8,1.83,3.86,3.31,6.14,4.51,2.5,1.31,4.85.91,7.17-.42.63-.36.99-.82.91-1.59-.06-.59-.02-1.19,0-1.79,0-.17.07-.34.12-.51.07,0,.15,0,.22.02.13,1.2.09,2.42-.03,3.63.19.08.34.15.5.21,3.17,1.25,6.34,2.5,9.52,3.73.9.35,1.8.66,2.72.92,1.17.33,2.35.61,3.59.63.06-.24.13-.43.16-.62.21-1.42.84-2.66,1.78-3.71.58-.65.82-1.33.73-2.17-.05-.49-.1-.99-.19-1.48-.17-.99-.21-1.98-.03-2.96.1-.54.28-1.07.44-1.67-.9-.37-1.74-.74-2.61-1.06-3.42-1.26-6.88-2.4-10.24-3.77-3.65-1.48-7.21-3.16-10.81-4.75-.36-.16-.75-.55-1.11.02h0Zm33.32,56.92c-.79,2.14-2.14,3.65-3.47,5.17-.9,1.03-2.05,1.69-3.36,2.01-.96.23-1.95.37-2.93.46-2.42.22-4.83.02-7.24-.18-3.71-.32-7.32-1.08-10.83-2.35-2.33-.85-4.64-1.8-7.04-2.41-3.75-.95-7.55-1.7-11.35-2.44-2.3-.45-4.63-.8-7-.37-.51.09-1.06,0-1.69-.01-.97.97-3.07,4.84-3.26,6.14.14-.02.26-.05.39-.06,1.84-.2,3.68-.44,5.52-.6,3.21-.28,6.34.21,9.43,1.03,4.76,1.28,9.5,2.63,14.35,3.59,6.27,1.23,12.55,2.4,18.89,3.18,3.44.42,6.58-.39,9.23-2.74.79-.7,1.53-1.47,2.33-2.16.85-.73,1.08-1.67.87-2.69-.41-2.06-1.52-3.77-2.84-5.55h0Zm-21-61.88c8.8-.58,17.41-1.15,26.03-1.72.08-.37.15-.69.22-1.02.48-2.27,1.75-3.88,3.93-4.75,1.01-.4,1.87-.27,2.59.59.1.11.23.19.46.39-.14-1.04-.26-1.92-.38-2.8-.12-.94-.14-1.02-1.07-1.09-1.12-.09-2.25-.07-3.37-.09-1.29-.02-1.71-.5-1.61-1.77.07-.92.09-1.85.1-2.78,0-.31-.1-.62-.16-.93-.07-.02-.15-.05-.22-.07-.21.27-.48.52-.62.82-.43.93-.82,1.87-1.19,2.83-.61,1.6-1.24,2.04-2.92,1.9-1.22-.1-2.44-.24-3.65-.4-1.28-.17-2.39-.73-3.33-1.63-1.16-1.12-1.98-2.48-2.81-3.84-.41-.68-.82-1.36-1.25-2.03-.11-.17-.31-.27-.62-.54-.07,1.11-.11,2.03-.2,2.94-.1.95-.17,1.91-.4,2.84-.3,1.2-1.14,1.9-2.39,2.08-.82.12-1.65.22-2.45.42-1.15.28-2.3.6-3.42.99-.73.26-1.16.82-1.17,1.67-.02,1.65-.08,3.31-.11,4.96-.02.95,0,1.91,0,3h0Zm26-1.16c-1.67-.16-24.99,1.45-25.87,1.77,0,1.31.03,2.64,0,3.95-.02.89-.12,1.78-.24,2.67-.1.71-.35,1.37-1.18,1.72,4.68,1.71,9.36,3.43,14.03,5.14.07-.04.13-.06.17-.11,1.37-1.65,3.09-2.54,5.26-2.52.34,0,.7-.17,1-.35,2.3-1.38,4.59-2.77,6.88-4.17.22-.13.43-.29.7-.46-.7-2.49-.97-5.01-.75-7.63h0Zm99.59-10.73c-.12.47-.25.85-.29,1.23-.1.82-.16,1.65-.22,2.47-.2,2.84-.4,5.67-.58,8.51-.04.65-.14,1.38.09,1.95.99,2.52.97,5.02.12,7.56-.77,2.31-1.89,4.44-3.26,6.45-.33.48-.39.9-.28,1.47.38,1.94,1.3,3.67,1.99,5.49.02.07.15.1.28.17.16-1.09.36-2.13.46-3.17.04-.4-.12-.82-.24-1.22-.1-.32-.28-.63-.42-.94.1-.08.2-.15.31-.23.15.27.29.55.54,1.01.11-.57.18-.89.23-1.21.32-1.96.65-3.91,1.36-5.79.51-1.36.99-2.74,1.43-4.12.69-2.14,1.31-4.3,2.01-6.44.44-1.36.94-2.71,1.93-3.77.76-.8,1.65-1.49,2.59-2.33,0-.65,0-1.47,0-2.3,0-.86.02-1.72-.04-2.58-.08-1.09-.29-1.32-1.36-1.49-1.14-.18-2.29-.32-3.44-.44-1.04-.11-2.09-.19-3.2-.29h0Zm-90.97,15.5c-.26-2.13-.45-4.28-.81-6.4-.2-1.16-.59-2.31-1.08-3.38-.52-1.14-1.28-1.34-2.48-.9-1.97.73-3.11,2.21-3.56,4.19-.22.97-.31,1.99-.31,2.98,0,1.28.05,2.59.25,3.86.39,2.5,1.08,4.92,2.11,7.22.27.59.65,1.16,1.09,1.64.69.74,1.7.68,2.35-.1.33-.4.63-.87.81-1.36.89-2.5,1.67-5.04,1.63-7.77h0Zm-19.97,27.77c1.22,2.3,2.33,4.44,4.08,6.15,1.07,1.05,2.47,1.24,3.88,1.1,2.85-.27,5.56-1.13,8.25-2.08.16-.06.3-.19.5-.32-5.56-1.62-11.03-3.21-16.7-4.85h0Zm-25.72-30.43c-.25-.23-.34-.32-.44-.39-1.94-1.35-3.96-2.54-6.22-3.25-.75-.24-1.54-.39-2.33-.46-1.07-.09-2.05.15-2.62,1.2-.96,1.77-1.39,3.68-1.52,5.78.24-.14.38-.2.51-.29,1.2-.89,2.57-1.35,4.04-1.54,1.8-.24,3.61-.43,5.41-.65,1-.12,1.99-.24,3.17-.39h0Zm10.63-.48c-3.09.27-6.12.52-9.16.78-.06.1-.12.21-.17.31.18.09.39.14.53.27,1.25,1.13,2.48,2.28,3.73,3.41.83.75,1.67,1.49,2.55,2.2.38.3.83.54,1.28.73.59.24.85.12,1.04-.51.14-.47.23-.97.25-1.46.05-1.62.05-3.24.05-4.85,0-.25-.06-.51-.1-.87h0Zm137.23,2.39c-1.64,6.45-3.01,12.93-3.94,19.51,1.19.19,2.08-.2,2.52-1.17.24-.53.41-1.13.48-1.71.17-1.58.28-3.16.38-4.75.13-2.25.23-4.5.34-6.74.08-1.71.15-3.42.23-5.14h0Zm-12.73-1.45c.13-2.26.26-4.41.39-6.57-.82.68-1.49,1.43-2.15,2.21-.84.99-1.48,2.09-1.9,3.34-.48,1.44-.99,2.88-1.64,4.26-1.14,2.42-2.38,4.8-3.59,7.19-.13.26-.25.53-.38.79.08.04.16.09.23.13,1-1.26,2.03-2.51,3-3.8,1.21-1.6,2.17-3.3,2.36-5.37.06-.69.41-1.4.79-2,.5-.8,1.22-.94,2.08-.58.24.1.45.23.79.41h0Zm-127.09,6.57c-.1-.11-.19-.23-.31-.33-.89-.79-1.78-1.58-2.67-2.37-1.31-1.17-2.59-2.36-3.92-3.51-.25-.22-.65-.4-.96-.38-1.35.1-2.69.28-4.04.44-.37.04-.73.1-1.1.15,0,.07,0,.14,0,.21,4.26,2.07,8.54,4.08,12.99,5.79h0Zm36.83,2.42h5.83c-.46-1.42-3.84-6.98-4.72-7.7.14,2.66-.31,5.14-1.12,7.7h0Zm98.18-22.13c1.72.41,2.02.76,2.05,2.52.02,1.16,0,2.31.01,3.47v1.15c1.27-.19,2.13.4,2.97,1.19.3-1.24.29-2.4.18-3.54-.1-1.01-.33-2.01-.55-3-.1-.46-.38-.84-.84-1.04-1.22-.54-2.5-.79-3.81-.74h0Zm-112.31,23.01c.02.08.05.16.07.24,2.77.1,5.45-.51,8.21-1.02-.39-1.25-.75-2.37-1.12-3.56-2.45,1.48-4.8,2.91-7.16,4.34h0Zm17.45-6.43c-.25-2.8-.48-5.41-.71-8.04h-2.15c.16,1.24.36,2.41.43,3.59.05.84.35,1.51.84,2.16.53.7,1,1.45,1.59,2.3h0Zm95.51,20.84c1.55-1.08,2.94-2.02,4.29-3.01.2-.15.34-.48.36-.74.1-.81-.39-1.34-.91-1.74-.43.67-.74,1.45-1.31,1.93-.59.51-1.43.72-2.32,1.14-.03.65-.07,1.48-.12,2.42h0Zm-10.62-3.83c.5,3.19-1.03,5.92-1.97,8.88,1.63-1.21,2.4-2.76,2.95-4.55.52-1.7-.3-2.96-.97-4.33h0Zm-154.77,39.45c.77.05,1.19-.22,1.25-.8-.37.24-.72.46-1.25.8Zm163.54-73.15v-.08h-.55v.05c.18,0,.36.02.55.03Z"/>
  <path class="cls-1" d="m130.32,277.86c-.07.41-.43.55-.7.74-3.34,2.39-7.01,4.12-10.92,5.38-4.89,1.57-9.91,2.01-15.01,1.79-9.16-.4-18.15-1.91-26.99-4.36-2.59-.72-5.13-1.56-7.58-2.67-1.43-.65-2.75-1.45-3.93-2.49-1.59-1.41-3.2-2.78-4.8-4.17-.16-.14-.3-.32-.45-.48.04-.06.08-.11.12-.17.22.15.46.28.65.45,1.53,1.31,3.07,2.62,4.58,3.97,1.25,1.11,2.67,1.96,4.19,2.62,3.84,1.67,7.86,2.78,11.92,3.74,5.42,1.28,10.9,2.17,16.43,2.76,3.59.38,7.2.62,10.81.41,7.64-.46,14.66-2.78,20.94-7.22.16-.11.32-.23.49-.32.04-.02.12.02.23.04h0Z"/>
  <path class="cls-1" d="m110.62,255.55c-2.67-1.86-5.22-3.87-7.86-5.77-2.62-1.89-5.22-3.82-8.04-5.67.02.32,0,.5.05.64.6,1.61,1.14,3.25,1.84,4.82.62,1.38,1.68,2.47,2.81,3.44,1.84,1.56,3.75,3.04,5.63,4.56.25.2.51.4.7.73-.14-.02-.3,0-.41-.07-2.64-1.84-5.16-3.81-7.4-6.15-1.32-1.38-2.13-3.02-2.76-4.77-.33-.93-.66-1.88-.89-2.84-.15-.64-.5-1.02-1.02-1.37-3.11-2.1-6.42-3.83-9.8-5.44-1.67-.8-3.37-1.55-5.05-2.33-.22-.1-.43-.24-.64-.37.02-.07.05-.14.07-.21.22.05.45.07.65.17,2.75,1.3,5.51,2.59,8.25,3.93,4.85,2.36,9.17,5.55,13.53,8.67,3.34,2.39,6.62,4.86,9.92,7.29.2.15.4.31.59.47-.06.09-.12.18-.18.27h0Z"/>
  <path class="cls-1" d="m147.02,256.52c.93,1.01,1.01,2.18,1.33,3.24.56,1.86,1.01,3.75,1.49,5.63.38,1.47.73,2.94,1.13,4.41.35,1.27.77,2.52,1.1,3.8.32,1.24.56,2.5.85,3.75.4,1.7.83,3.4,1.21,5.11.35,1.57.65,3.16.99,4.74.51,2.4,1.02,4.79,1.53,7.18.05.22.05.44.07.7-.51.03-.47-.34-.53-.59-.4-1.84-.79-3.69-1.19-5.53-1.39-6.44-2.8-12.88-4.54-19.24-1.15-4.18-2.23-8.38-3.34-12.57-.04-.16-.05-.32-.1-.62h0Z"/>
  <path class="cls-1" d="m108.99,203.85c1.62.68,22.71,21.25,23.77,23.29-.16-.11-.34-.19-.47-.33-4.13-4.16-8.21-8.36-12.39-12.47-3.23-3.18-6.59-6.23-9.89-9.35-.34-.32-.74-.61-1.03-1.14h0Z"/>
</svg>