<?xml version="1.0" encoding="UTF-8"?>
<svg id="Layer_1" data-name="Layer 1" xmlns="http://www.w3.org/2000/svg" viewBox="0 0 494.77 464.5">
  <defs>
    <style>
      .cls-1 {
        stroke-width: 0px;
      }
    </style>
  </defs>
  <path class="cls-1" d="m294.2,298.65c-4.14-1.44-8.1-2.67-11.94-4.2-3.84-1.53-7.57-3.36-11.45-5.1-1.8,1.94-3.63,3.94-5.5,5.91-2.81,2.96-5.76,5.74-9.09,8.15-1.18.85-2.3,2.12-2.82,3.45-.95,2.43-1.46,5.03-2.11,7.57-.2.79-.26,1.63-.38,2.44-.16,0-.32,0-.47,0-.09-.42-.32-.86-.24-1.25.52-2.65.94-5.35,1.72-7.92.74-2.42,2.44-4.21,4.55-5.69,5.14-3.6,9.22-8.32,13.39-13.09-8.8-5.49-17.43-10.86-26.28-16.38-1.61,5.12-3.05,10.22-5.52,15.44-.25-1.53-.23-1.53.76-4.16.51-1.35.97-2.71,1.43-4.07.44-1.29.86-2.58,1.27-3.87.4-1.29.78-2.59,1.21-4.03-6.31-4.53-12.58-9.04-19.17-13.78-.97,4.56-.83,9.06-1.64,13.4-.18,0-.35,0-.53,0-.06-.48-.2-.96-.16-1.43.32-3.82.65-7.64,1.02-11.46.09-.93.05-1.67-.82-2.29-6.45-4.57-12.78-9.34-19.34-13.75-6.04-4.07-12.87-5.16-20.12-4.81-7.5.36-15.03.15-22.54.19-1.03,0-2.06,0-3.29,0-.37,1.15-.77,2.26-1.07,3.39-1.18,4.5-1.66,9.11-1.93,13.74-.09,1.57.38,2.86,1.69,3.98,5.28,4.52,10.53,9.08,15.65,13.78,1.62,1.49,2.82,3.43,4.15,5.21,2.44,3.28,4.69,6.69,5.95,10.62.41,1.28.66,2.63.81,3.97.26,2.29-.51,4.22-2.25,5.79-1.84,1.66-3.58,3.42-5.4,5.11-7.02,6.53-15.43,8.34-24.68,7.18-3.72-.47-7.43-1.07-11.15-1.59-.46-.06-.93,0-1.9,0,.87.78,1.41,1.29,1.98,1.78,8.44,7.22,17.08,14.22,25.27,21.72,8.61,7.89,16.09,16.9,23.67,25.77,5.19,6.08,10.26,12.26,15.37,18.4.54.65,1.04,1.34,1.69,2.2-1.38.29-1.63-.69-2.06-1.21-6.34-7.51-12.58-15.11-18.97-22.58-6.92-8.07-13.79-16.23-21.77-23.28-8.67-7.68-17.66-15.01-26.54-22.45-.7-.59-1.64-1.04-2.53-1.22-3.84-.75-7.7-1.39-11.56-2.05-.3-.05-.62,0-1.25,0,.43.71.68,1.26,1.04,1.73,6.12,8.14,13.13,15.46,20.51,22.46,10.79,10.23,21.51,20.54,32.25,30.82,3.35,3.21,6.69,6.42,10.02,9.65.42.41.76.89,1.14,1.34l-.39.43c-.62-.52-1.28-1-1.87-1.56-7.49-7.21-14.94-14.45-22.44-21.64-7.04-6.75-14.11-13.47-21.2-20.17-7.22-6.82-13.9-14.13-19.78-22.15-.71-.97-1.48-1.57-2.67-1.77-16.26-2.73-32.14-7.01-48.02-11.34-8.29-2.26-16.72-2.44-25.22-1.52-2.21.24-4.43.49-6.64.74-.99,4.45-2.22,8.69-2.85,13-1.24,8.57-3.18,16.94-5.82,25.18-1.8,5.63-3.28,11.37-5.27,16.93-2.26,6.34-2.19,12.67-.99,19.13,1.24,6.69,3.08,13.22,5.26,19.66.12.36.32.71.6,1.33.82-.54,1.53-1,2.23-1.46,12.08-8.03,24.98-14.28,39.17-17.53,4.89-1.12,9.92-1.65,14.91-2.27,3.56-.44,7.16-.65,10.74-.83,13.49-.66,25.68,3.07,36.87,10.6,9.36,6.31,18.36,13.07,27.14,20.14,1.1.89,2.17,1.41,3.64,1.47,7.15.28,13.51,3.14,19.55,6.64,3.58,2.08,6.97,4.52,10.29,6.99,2.06,1.53,4.22,2.66,6.73,2.88,6.74.6,11.66,4.11,15.39,9.47,2.28,3.28,4.48,6.63,6.44,10.11,3.51,6.25,9.01,10.27,14.94,13.86.38.23.9.39,1.33.36,3.88-.23,7.21,1.23,10.24,3.44,3.55,2.59,7,5.32,10.48,8,1.57,1.21,3.11,2.47,4.84,3.86-1.16.57-1.65-.18-2.19-.6-3.53-2.75-7.01-5.58-10.59-8.25-2.04-1.52-4.23-2.88-6.43-4.16-1.19-.7-2.53-1.24-4.17-1.01.23.36.31.62.48.73,2.7,1.72,3.13,4.24,2.58,7.13-.3,1.57-.53,3.15-.85,4.71-.12.58-.4,1.12-.6,1.68-.16-.01-.32-.02-.48-.04,0-.48-.05-.96,0-1.44.3-2.45.63-4.9.94-7.35.2-1.52-.46-2.64-1.65-3.49-.91-.65-1.86-1.23-2.8-1.84-2.55-1.65-5.17-3.19-7.63-4.96-3.6-2.59-6.64-5.74-8.9-9.6-1.74-2.96-3.55-5.89-5.41-8.77-1.88-2.9-4.07-5.53-6.9-7.59-2.11-1.54-4.43-2.57-7.02-2.85-4.01-.43-7.42-1.93-10.59-4.54-5.65-4.65-12.13-7.97-18.97-10.6-4.52-1.74-9.21-1.83-13.94-1.72-8.15.2-16.3.41-24.45.63-11.42.3-22.84.7-34.26.88-11.52.18-22.98-.91-34.41-2.32-7.29-.9-14.56-1.94-21.84-2.94-.63-.09-1.25-.3-1.87-.45.03-.17.07-.34.1-.51.5,0,1-.05,1.49,0,8.24,1.06,16.46,2.25,24.71,3.17,7.06.78,14.15,1.45,21.24,1.79,7.1.34,14.22.43,21.33.27,12.22-.28,24.43-.83,36.65-1.26,3.67-.13,7.35-.24,11.02-.38.3-.01.61-.11,1.13-.22-.36-.43-.55-.76-.83-.99-9.62-7.69-19.36-15.2-29.89-21.65-9.31-5.7-19.38-8.5-30.31-8.28-15.21.31-30.1,2.22-44.23,8.27-8.55,3.66-16.71,8.01-24.36,13.31-4.68,3.24-7.65,7.63-9.38,12.95-1.47,4.51-1.98,9.19-2.5,13.88-.78,6.99,1.06,13.44,3.42,19.86,3.38,9.22,6.66,18.48,9.97,27.73.1.27.08.58-.3,1.11-.28-.45-.65-.87-.84-1.36-1.45-3.89-3.1-7.73-4.25-11.71-1.69-5.85-3.94-11.48-6.12-17.14-2.06-5.35-3.3-10.85-2.94-16.63.35-5.59.87-11.15,2.77-16.48,1.48-4.14,3.63-7.82,6.92-10.78.41-.37.9-.66,1.25-.91-1.27-4.23-2.6-8.09-3.57-12.03-1.14-4.65-2.13-9.35-2.89-14.07-.69-4.29-.45-8.58.9-12.8,2.14-6.69,4.04-13.47,6.21-20.16,2.57-7.93,4.3-16.03,5.56-24.26.51-3.31,1.45-6.54,2.15-9.82.18-.83.16-1.69.23-2.54-1.7-.46-2.53.12-3.24,1.46-4.1,7.69-8.26,15.34-12.44,22.98-1.03,1.89-2.11,3.77-3.33,5.55-5.79,8.44-9.47,17.71-11.25,27.77-1.12,6.29-2.64,12.49-3.07,18.91-.42,6.33.23,12.6.56,18.89.98,18.8,4.79,37.04,10.68,54.88,1.98,5.99,3.78,12.04,5.65,18.07.2.65.32,1.32.49,2.01-1.33.31-1.31-.62-1.5-1.22-1.17-3.65-2.3-7.31-3.44-10.97-3.3-10.59-6.73-21.15-9.06-32.02-1.9-8.83-3.12-17.77-3.7-26.79-.32-4.94-.63-9.89-.87-14.83-.48-9.91,1.15-19.58,3.44-29.17,1-4.19,2.04-8.38,3.27-12.5,1.4-4.71,3.71-9.02,6.57-13,6.64-9.26,12.02-19.23,16.98-29.45,2.09-4.31,4.39-8.52,6.51-12.82,1.67-3.38,4.09-5.86,7.75-7.02,1.98-.63,3.12-2.27,4-3.95,2-3.81,3.97-7.66,5.65-11.62,3.53-8.34,5.5-17.16,7.79-25.89,2.87-10.97,3.12-22.1,2.65-33.31-.02-.4-.08-.79-.13-1.3-1.07-.46-2.34-.69-3.18-1.42-1.98-1.71-4.15-3.4-5.53-5.55-2.88-4.49-5.31-9.28-7.92-13.95-.55-.98-1.14-1.93-1.6-2.95-2.45-5.4-6.12-9.65-11.32-12.63-2.08-1.2-3.78-2.92-5.42-4.78-2.24-2.54-4.27-5.26-6.3-7.92-2.29-2.99-3.73-6.64-5.45-10.05-7.06-13.97-11.76-28.66-13.03-44.31-.52-6.45-.77-12.93-.8-19.39-.02-4.81,1.04-9.52,2.57-14.09,2.54-7.6,5.86-14.86,9.69-21.88,3.22-5.9,8-10.56,13.11-14.83,7.54-6.29,15.98-11.12,25.12-14.72,9.16-3.61,18.5-6.64,28.25-8.14,8.21-1.27,16.49-2.25,24.82-1.65,4.53.32,9.04,1.08,13.51,1.9,7.46,1.37,14.93,2.74,22.3,4.47,10.2,2.4,19.57,6.85,28.36,12.51,4.7,3.02,9.58,5.83,13.91,9.33,5.12,4.14,9.89,8.72,14.13,13.86,4.36,5.27,6.81,11.33,8.5,17.74,1.23,4.68,1.96,9.5,2.82,14.27.23,1.25.1,2.55.19,3.83.1,1.42.26,2.84.38,4.27.05.64.14,1.29.05,1.91-.56,4.17-1.17,8.34-1.74,12.51-.2,1.42-.27,2.86-.56,4.26-.19.92-.54,1.85-.99,2.67-.96,1.76-1.8,1.98-3.71,1.22-.29-.12-.6-.19-.91-.26-.07-.02-.15.04-.52.15.32,4.97,1.41,9.9,1.93,15,.92.05,1.62.11,2.33.12,2.58.02,2.52-.12,3.22-2.67.75-2.69,1.98-5.23,3.93-7.31,1.28-1.37,2.59-1.24,3.83.16,1.89,2.13,2.74,4.71,2.95,7.44.38,4.77.53,9.57.77,14.35.02.39-.11,10.75-.41,11.14-.08-1.93-.07-13.83-.17-15.76-.11-2.31.1-4.72-.47-6.92-.82-3.14-2.1-6.17-3.42-9.14-.62-1.39-1.57-1.3-2.55-.04-1.76,2.25-3.13,4.73-3.09,7.64.07,4.79.34,9.57.6,14.35.1,1.83.55,3.65.6,5.47.1,3.4,1.25,6.37,3.13,9.14.89,1.31,1.63,2.72,2.54,4.27,1.91-2.67,1.83-6.1,2.83-9,.73,2.44.63,5.15-.27,7.17-.23.51-.52.99-.77,1.49-.95,1.85-.66,2.35,1.48,2.44.96.04,1.92-.02,2.88.01.7.02,1.4.11,2.17.17.07.54.24.95.15,1.29-.87,3.63-1.95,7.18-3.45,10.61-2.77,6.36-5.3,12.82-6.84,19.62-1.06,4.65-1.85,9.37-3.11,13.96-.9,3.3-2.39,6.43-3.6,9.64-.47,1.27-.94,2.54-1.32,3.84-.85,2.94-2.65,4.44-5.57,3.85-2.45-.5-4.34.6-6.41,1.32-1.42.49-2.83,1-4.26,1.43-3.05.93-6.08,2.01-9.19,2.65-2.54.52-5.21.74-7.8.61-2.57-.13-4.92.21-7.21,1.29-1.73.82-3.44,1.7-5.17,2.51-3.98,1.86-5.73,5.32-6.92,9.56.9.06,1.66.16,2.41.15,8.64-.04,17.28.15,25.9-.23,6.29-.28,11.9,1.34,17.04,4.62,4.78,3.05,9.33,6.44,13.96,9.72,12.79,9.05,25.47,18.24,38.37,27.13,9.1,6.27,19.06,11.07,29.04,15.75,5.38,2.52,11.18,3.79,17.1,4.34,1.51.14,3.01.32,4.53.38,1.63.06,2.9.81,4.01,1.91.56.56,1.08,1.16,1.7,1.84.45-.33.86-.55,1.17-.87,5.27-5.38,11.11-10.11,17.03-14.74,5.48-4.28,11.24-8.34,15.39-13.99,3.73-5.08,7.13-10.43,10.25-15.9,7.35-12.91,14.43-25.98,21.64-38.97,1.99-3.58,2.97-7.38,2.9-11.47-.14-9.36,2.4-18.16,5.84-26.73,1.54-3.83,4.2-6.98,6.74-10.16,3.11-3.89,5.76-8.03,8.1-12.42,5.03-9.46,9.81-19.02,13.17-29.24.91-2.75,2.47-5.19,4.5-7.28.28-.29.52-.62.83-.87,4.07-3.32,5.11-7.91,5.46-12.81.11-1.59.24-3.19.47-4.77.42-3.01,1.85-4.24,4.87-3.93,5.55.56,11.07,1.41,16.62,1.86,2.58.21,4.8.91,6.89,2.36,1.08.75,1.72,1.73,1.87,2.93.75,5.95.88,11.91.12,17.88-.03.24-.03.48-.04.72-.19,5.1-.34,10.2-.56,15.3-.29,6.44-.62,12.88-.95,19.31-.12,2.3-.29,4.6-.42,6.9-.16,2.69-.31,5.37-.45,8.06-.09,1.76.38,3.31,1.71,4.54,1.31,1.21,1.74,2.79,1.59,4.63,1.46-.13,2.72-.21,3.96-.36,2.67-.33,5.08.23,7.18,1.95,1.28,1.05,2.92,1.55,3.94,3.01.77,1.1,1.23,2.14,1.29,3.49.17,3.32-.4,6.51-1.39,9.65-.53,1.67-1.02,3.34-1.48,5.03-.1.35-.01.75-.01.99,2.33.26,4.59.25,6.69.83,2.83.78,5.38,2.28,6.39,5.3.76,2.27,1.16,4.63.47,7.05-.5,1.76-.89,3.56-1.3,5.35-.16.67-.24,1.37-.35,2.07,1.99.25,3.81.38,5.59.72,7.25,1.35,9.06,6.48,8.23,12.53-1.07,7.81-3.53,15.21-7.12,22.19-1.33,2.59-3.11,5-4.95,7.28-9.22,11.46-18.74,22.66-29.27,32.97-3.14,3.07-6.14,6.3-9.14,9.51-1.98,2.12-3.36,4.57-4.28,7.38-1.44,4.39-2.99,8.77-4.87,12.98-1.76,3.92-4.09,7.59-6.03,11.43-2.67,5.26-5.35,10.53-7.77,15.91-3.04,6.76-5.87,13.61-8.69,20.46-2.43,5.89-4.66,11.86-7.07,17.76-3.49,8.56-7.07,17.09-10.61,25.63-2.65,6.41-5.2,12.86-7.96,19.21-2.95,6.8-6.09,13.52-9.14,20.27-.4.88-.73,1.88-2.22,1.23.27-.63.49-1.28.8-1.89,6.72-13.01,12.27-26.54,17.79-40.09,8.26-20.28,16.42-40.6,25-60.75,3.66-8.59,8.12-16.84,12.47-25.12,2.24-4.27,4.17-8.62,5.67-13.19.6-1.82,1.22-3.64,1.93-5.42.99-2.47,2.34-4.71,4.21-6.64,3.22-3.33,6.31-6.8,9.65-10.01,8.38-8.05,15.73-17.01,23.24-25.83.98-1.16,1.91-2.37,2.92-3.49,7.72-8.58,11.94-18.82,14.07-30,.41-2.16.27-4.46.13-6.68-.15-2.41-1.44-4.21-3.69-5.2-1.31-.58-2.65-1.1-4.01-1.59-1.72-.62-3.44-.59-5.32.34-.84,5.11-.71,10.43-1.63,15.75-.1-.23-.27-.46-.27-.69,0-6.56.22-13.11,1.48-19.56.38-1.95,1.06-3.84,1.58-5.77.54-2.02.09-3.96-.57-5.87-.52-1.51-1.51-2.62-2.99-3.26-4.24-1.82-6.6-2.46-9.99-.86-1.03,4.63-2.07,9.36-3.12,14.09h-.51c-.06-.45-.25-.92-.17-1.34.34-1.8.76-3.59,1.16-5.39,1.32-6,2.58-12.02,4.56-17.86.54-1.58.9-3.25,1.06-4.91.27-2.9-.63-5.36-3.29-6.95-.75-.45-1.44-1.02-2.18-1.49-1.67-1.06-3.45-1.54-5.46-1.39-3.67.28-7.09,1.2-10.02,3.5-2.01,1.58-3.98,3.21-5.93,4.85-.41.35-.96.83-1,1.28-.25,3-.21,5.98.76,9.43,1.27-2.09,2.22-3.79,3.31-5.4,1.04-1.52,1.72-3.34,3.49-4.59-.49,1.95-5.57,10.01-7.03,11.11-.36-.57-.88-1.08-1.03-1.69-.29-1.16-.48-2.36-.51-3.55-.16-6.79-.14-13.57,1.04-20.31,2.71-15.51,5.66-30.96,9.44-46.25.53-2.15.88-4.4.95-6.61.16-4.74-4.12-7.57-8.55-5.72-3.77,1.58-6.08,4.65-7.66,8.23-1.35,3.06-2.42,6.26-3.45,9.45-1.69,5.25-2.87,10.69-4.94,15.77-3.9,9.53-5.4,19.53-6.6,29.6-.99,8.31-3.48,16.04-7.59,23.3-2.87,5.08-5.66,10.2-8.51,15.3-.33.6-.78,1.14-1.33,1.92-.53-1.27.24-1.89.61-2.57,2.65-4.83,5.35-9.64,8.02-14.47.45-.81.85-1.66.94-2.78-.39.29-.84.53-1.17.88-5.78,6.19-11.56,12.39-17.31,18.61-1.94,2.09-3.02,4.68-3.99,7.32-2.27,6.18-3.19,12.69-4.72,19.05-2.29,9.51-3.44,19.18-4.16,28.9-.64,8.65-3.16,16.78-6.16,24.8-3.82,10.17-7.69,20.33-11.73,30.41-3.51,8.74-7.16,17.43-10.99,26.04-4.92,11.07-11.45,21.21-18.49,31.06-8.89,12.43-18.71,24.12-28.3,36-9.88,12.26-19.79,24.5-29.7,36.73-.55.69-.97,1.65-2.64,1.65.74-1,1.22-1.67,1.73-2.32,17.81-22.39,35.67-44.74,53.41-67.19,5.64-7.14,11.23-14.36,15.69-22.35,5.18-9.29,9.68-18.9,13.76-28.71.2-.48.33-1,.12-1.78-1.66,1.45-3.34,2.88-4.96,4.37-2.47,2.27-4.84,4.67-7.39,6.84-1.82,1.55-3.8,2.92-5.82,4.21-4.7,3.01-9.88,4.24-15.45,4.23-4.23,0-8.42-.37-12.53-1.21-2.91-.6-5.71-1.79-8.53-2.82-3.49-1.27-6.96-2.6-10.41-3.98-1.09-.43-2.05-1.17-3.12-1.66-.85-.39-1.79-.57-2.67-.91-.41-.16-.77-.45-1.14-.69-2.99-1.9-5.98-2.82-9.68-1.67-6.31,1.96-10.74,6.15-14.57,11.15-1.59,2.08-2.81,4.45-4.12,6.73-.77,1.34-1.5,2.14-3.36,1.92-2.66-.32-5.39-.08-8.04-.08,0-.66.14-1.5-.02-2.28-2.86-14.34-5.65-28.68-8.66-42.99-2.37-11.25-6.74-21.81-11.76-32.11-4.56-9.35-9.76-18.34-15.51-27.02-.29-.44-.5-.93-.9-1.68,1.35.15,1.63,1.05,2.03,1.71,3.53,5.8,7.18,11.54,10.49,17.47,5.97,10.7,11.2,21.78,14.52,33.6,2.22,7.91,3.9,15.98,5.59,24.03,1.88,8.91,3.51,17.87,5.25,26.81.09.46.2.91.3,1.33,2.27.18,4.4.43,6.53.47.6,0,1.37-.49,1.77-.99.84-1.05,1.52-2.24,2.22-3.4,2.05-3.44,4.29-6.73,7.04-9.67,1.8-1.93,3.98-3.24,6.34-4.21,2.8-1.15,5.65-2.26,8.58-3.01,7.12-1.83,12.8-5.58,16.95-11.69,4.74-7,7.47-14.81,9.31-22.97.54-2.4.8-4.87,1.17-7.31.43-2.85-1.32-4.78-4.66-5.11-2.77-.27-5.54-.5-8.3-.74-.23-.02-.46.06-.9.11-.38,1.05-.78,2.16-1.18,3.27-4.24,11.64-8.53,23.27-14.6,34.12-1.13,2.01-2.52,3.88-3.87,5.76-.47.66-1.18,1.16-1.87,1.81-.17-.46-.31-.68-.27-.73,3.44-3.66,5.74-8.04,7.91-12.5,4.91-10.07,8.84-20.54,12.6-31.08.1-.29.14-.6.22-.95ZM147.57,82.22c1.43.59,2.16,1.86,2.91,3.06,1.39,2.24,2.68,4.55,4.11,6.76.99,1.54,2.09,3.02,3.24,4.45,2.24,2.79,5.09,4.58,8.7,5.02,3.25.39,6.49.85,9.75,1.1,2.82.22,4.01-.69,5.05-3.43.56-1.49.98-3.05,1.66-4.49.74-1.58,1.63-3.11,2.62-4.55.34-.49,1.27-.99,1.74-.85.51.16,1.05,1.02,1.13,1.63.22,1.57.28,3.17.26,4.76-.01,1.59-.28,3.19-.28,4.78,0,1.41.47,1.8,1.88,1.95.4.04.8.04,1.2.02,4.45-.23,8.84.16,13.19,1.15,1.86.42,2.7-.05,3.21-1.93.51-1.84.82-3.74,1.11-5.63,1.57-10.35,1.81-20.67-.74-30.93-4.31-17.35-6.54-19.34-16.05-28.97-7.83-7.93-17.03-13.93-26.67-19.38-6.79-3.84-13.89-6.84-21.45-8.76-10-2.53-20.15-4.27-30.34-5.77-9.32-1.37-18.67-1.1-27.93.32-10.29,1.58-20.21,4.68-29.98,8.25-9.26,3.38-17.6,8.29-25.24,14.49-6.99,5.67-12.92,12.13-16.33,20.63-.47,1.18-1.12,2.3-1.66,3.46-4.14,8.92-6.87,18.25-7.4,28.1-.19,3.49.05,7.03.39,10.52.63,6.51,1.16,13.06,2.28,19.5,2.52,14.36,8.52,27.42,15.93,39.83,3.5,5.86,7.75,11.2,13.67,14.88,3.73,2.31,6.43,5.44,8.46,9.25,1.95,3.67,3.89,7.34,5.9,10.98,1.58,2.87,3.07,5.82,4.92,8.5,1.79,2.58,3.69,5.28,7.39,5.42.35.01.66.44,1.03.54.74.2,1.52.48,2.26.41,1.72-.17,2.95-1.36,3.11-3.42.17-2.29.3-4.69-.2-6.9-2.22-9.81-4.41-19.64-7.81-29.14-.78-2.17-1.38-4.43-1.85-6.69-.8-3.87-.71-7.61,1.96-10.93.49-.61.63-1.6.69-2.44.33-4.51,1.37-8.81,3.23-12.95,1.5-3.33,4.02-4.99,7.58-4.65,2.44.23,4.92.7,7.23,1.5,5.39,1.87,10.29,4.77,14.87,8.15,1.1.81,2.12,1.09,3.51.94,4.76-.51,9.54-.82,14.32-1.21,2.53-.21,5.05-.45,7.8-.7,0-.94,0-1.72,0-2.5.03-5.36.1-10.71.06-16.07-.02-3.08,1.59-4.91,4.25-6.02,1.03-.43,2.09-.84,3.17-1.07,3.2-.69,6.4-1.35,9.63-1.91,4.26-.75,5.58-1.98,6.36-6.25.1-.55.16-1.11.2-1.67.17-2.71.28-5.42.51-8.13.1-1.14.02-2.46,1.46-3.07Zm6.77,184.1c-.2.04-.4.07-.6.11-.17-.42-.42-.83-.51-1.27-1.06-4.88-1.53-9.84-.76-14.76.76-4.88,1.85-9.72,3.05-14.51.89-3.53,2.48-6.83,5.69-8.87,2.14-1.37,4.5-2.4,6.78-3.56.74-.38,1.52-.68,2.57-1.14-3.45-2.05-5.72-4.82-7.67-7.85-1.59-2.49-3.19-5-4.49-7.64-1.05-2.14-2.45-3.48-4.71-4.33-3.45-1.3-6.8-2.96-7.66-7.11-5.38-.72-10.49-1.85-15.42-3.86-7.54-3.08-15.17-5.95-22.72-9.01-1.79-.73-3.21-.62-4.9.36-5.64,3.27-11.4,3.69-17.32.45-6.88-3.76-13.05-8.34-17.89-14.58-.23-.3-.51-.56-1.15-1.26.34,1.36.56,2.19.77,3.03,1.28,5.19,2.64,10.37,3.81,15.59.45,2.01.66,4.11.63,6.17-.05,3.8-1.51,5.39-5.24,6.29-.14.03-.25.17-.47.33,0,1.04-.07,2.16.01,3.26.44,5.83.61,11.66-.26,17.46-1.62,10.84-4.22,21.46-7.65,31.87-2.56,7.76-5.92,15.17-9.45,22.52-.35.73-.67,1.49-1.04,2.32,2.51.11,4.68.03,6.8.34,5.61.81,11.21,1.66,16.78,2.71,10.45,1.97,20.81,4.3,30.69,8.37,14.03,5.79,28.71,8.05,43.79,7.89,3.33-.03,6.68-.47,9.98-.99,2.78-.44,5.41-1.55,7.49-3.54,3.25-3.11,6-6.65,8.15-10.6,1.58-2.91,1.07-4.84-1.4-6.98-4.95-4.29-9.86-8.63-14.79-12.94-.46-.4-.97-.73-1.89-1.42.38,2.71.69,4.92.99,7.13Zm239.83-83.44c-.04-.22-.09-.44-.13-.66,1.19-.39,2.39-.75,3.56-1.17,5.1-1.83,9.86-4.29,13.52-8.37,5.52-6.15,9.34-13.33,11.94-21.14,1.64-4.92,1.57-9.91.19-14.87-.31-1.13-.86-2.28-1.59-3.18-2.08-2.58-5.23-2.12-6.43.92-.58,1.47-.98,3.06-1.18,4.62-.34,2.68-1.13,5.19-2.65,7.37-2.61,3.73-5.26,7.44-8.11,10.98-4.16,5.16-8.58,10.11-12.75,15.27-1.64,2.04-3.25,4.25-4.24,6.64-3.5,8.45-6.14,17.14-6.01,26.45.07,4.63-1.08,8.99-3.44,13.04-3.5,6.01-6.93,12.06-10.31,18.13-4.63,8.31-9.16,16.66-13.77,24.98-5.35,9.65-12.42,17.73-21.41,24.23-4.58,3.31-8.72,7.23-13.01,10.93-2.41,2.08-4.74,4.27-7.06,6.45-.45.42-.92,1-1.02,1.57-.52,3.14-1.63,6.23-1.18,9.46.6,4.27,1.39,8.5,2.09,12.76.09.58.1,1.18.15,1.76-.2.04-.41.08-.61.12-1.42-3.9-1.57-8.13-2.68-12.17-.49.81-.77,1.61-1.04,2.42-1.55,4.72-3.41,9.3-5.98,13.57-3.78,6.3-8.79,11.14-15.85,13.6-.32.11-.6.36-1.07.65.54.32.87.56,1.22.71,6.97,2.99,13.92,6.03,20.93,8.93,7.06,2.92,14.48,3.91,22.07,3.48,2.94-.16,5.99-.23,8.62-1.74,3.25-1.86,6.62-3.65,9.45-6.05,4.27-3.6,8.21-7.6,12.1-11.61,1.87-1.92,3.91-4.02,4.87-6.44,5.13-12.92,9.95-25.95,14.85-38.96,2.59-6.87,3.61-14.06,4.17-21.33.56-7.26,1.31-14.47,3-21.57,1.62-6.84,3.03-13.72,4.72-20.54,1.09-4.39,3.11-8.33,6.35-11.65,4.02-4.12,7.87-8.39,11.76-12.64.85-.93,1.76-1.93,2.21-3.07,1.71-4.3,3.3-8.65,4.81-13.03.49-1.41.71-2.95.83-4.45.34-4.42-.34-8.76-1.25-13.07-.21-.99-.47-1.97-.81-3.36-2.8,3.31-5.68,5.91-9.11,7.86-3.39,1.93-6.86,3.58-10.73,4.14Zm-203.54-27.62c-.85.12-1.65.21-2.43.36-7.07,1.33-14.14,2.26-21.4,1.86-9.16-.5-15.54,6.93-14.13,16.02.22,1.42.48,2.83.69,4.26.36,2.41-.18,4.41-1.86,6.39-2.55,3-4.48,6.38-4.29,10.62.1,2.16.9,3.73,2.73,4.7,2.18,1.16,4.35,2.44,6.68,3.19,7.37,2.38,14.79,4.62,22.23,6.76,7.52,2.16,15.06,4.25,22.64,6.15,3.8.96,5.13.06,6.67-3.56,2.82-6.64,4.87-13.51,6.46-20.55,1.88-8.34,3.98-16.62,7.64-24.42,1.29-2.74,2.25-5.63,3.35-8.46.14-.37.29-.75.36-1.14.25-1.53-.16-2.02-1.72-2.11-.96-.05-1.91-.11-2.87-.11-5.74-.01-11.49,0-17.31,0-.6,1.17-1.14,2.41-1.85,3.57-2.47,4.06-6.2,4.29-9.07.54-.91-1.19-1.61-2.56-2.54-4.06Zm-97.53-14.5c-.75-.61-1.37-1.11-1.99-1.6-6.78-5.44-14.13-6.09-22.04-2.79-2.93,1.22-4.87,3.48-6.53,5.97-1.6,2.4-1.21,5.18-.97,7.91.28,3.17,1.95,5.87,2.77,8.85,1.31,4.78,3.64,9.04,7.13,12.58,4.34,4.41,9.31,7.99,14.81,10.87,6.03,3.16,11.7,2.2,17.31-1.01,1.52-.87,2.39-1.97,2.2-3.84-.14-1.42-.05-2.87-.01-4.31.01-.41.18-.82.28-1.22.18.01.36.02.54.04.32,2.9.21,5.83-.07,8.77.47.2.83.36,1.2.5,7.65,3.01,15.29,6.04,22.96,9.01,2.16.84,4.35,1.59,6.57,2.22,2.82.8,5.67,1.47,8.65,1.53.15-.57.32-1.03.39-1.5.5-3.43,2.03-6.42,4.29-8.95,1.41-1.58,1.98-3.22,1.75-5.23-.13-1.19-.24-2.38-.45-3.56-.42-2.38-.5-4.77-.07-7.15.24-1.31.67-2.58,1.06-4.04-2.17-.89-4.2-1.79-6.29-2.56-8.24-3.03-16.59-5.8-24.71-9.09-8.8-3.57-17.4-7.63-26.09-11.45-.88-.38-1.8-1.32-2.68.06Zm80.4,137.34c-1.9,5.17-5.17,8.8-8.36,12.48-2.16,2.49-4.95,4.08-8.11,4.84-2.32.56-4.71.89-7.08,1.1-5.83.52-11.65.06-17.46-.43-8.96-.76-17.67-2.6-26.13-5.68-5.62-2.05-11.2-4.35-16.98-5.82-9.04-2.3-18.22-4.1-27.38-5.88-5.56-1.08-11.17-1.93-16.89-.89-1.23.22-2.55,0-4.08-.03-2.35,2.34-7.4,11.67-7.86,14.82.34-.05.63-.11.93-.14,4.44-.49,8.88-1.06,13.33-1.44,7.74-.67,15.3.5,22.75,2.49,11.49,3.08,22.92,6.35,34.62,8.65,15.12,2.97,30.27,5.79,45.57,7.67,8.31,1.02,15.88-.95,22.26-6.62,1.91-1.7,3.7-3.54,5.63-5.21,2.04-1.77,2.61-4.03,2.11-6.5-1-4.96-3.67-9.1-6.86-13.39Zm-50.67-149.29c21.23-1.4,42-2.77,62.81-4.14.2-.9.37-1.67.53-2.45,1.17-5.47,4.23-9.36,9.48-11.45,2.43-.97,4.52-.66,6.24,1.43.23.27.55.47,1.11.95-.34-2.51-.63-4.64-.91-6.76-.3-2.27-.33-2.46-2.57-2.64-2.7-.21-5.42-.18-8.13-.21-3.11-.04-4.13-1.21-3.88-4.28.18-2.23.21-4.47.23-6.7,0-.75-.24-1.5-.38-2.25-.18-.06-.35-.11-.53-.17-.51.66-1.16,1.25-1.5,1.99-1.03,2.25-1.99,4.52-2.87,6.83-1.47,3.85-2.99,4.93-7.04,4.59-2.94-.24-5.88-.59-8.81-.97-3.1-.41-5.77-1.75-8.03-3.94-2.79-2.7-4.78-5.98-6.77-9.26-.99-1.64-1.97-3.29-3.02-4.89-.26-.4-.75-.66-1.5-1.3-.17,2.67-.26,4.89-.48,7.09-.23,2.29-.41,4.62-.96,6.85-.72,2.9-2.76,4.58-5.76,5.03-1.97.3-3.97.54-5.9,1.02-2.78.68-5.55,1.44-8.25,2.38-1.77.62-2.81,1.97-2.83,4.03-.04,3.99-.2,7.98-.27,11.97-.04,2.3,0,4.6,0,7.24Zm62.74-2.81c-4.02-.39-60.29,3.5-62.42,4.28,0,3.17.07,6.36-.02,9.54-.06,2.15-.28,4.3-.58,6.43-.24,1.72-.84,3.3-2.84,4.14,11.29,4.13,22.58,8.27,33.86,12.4.16-.1.32-.15.42-.27,3.3-3.98,7.45-6.14,12.7-6.09.81,0,1.69-.41,2.41-.84,5.55-3.32,11.07-6.69,16.6-10.05.53-.32,1.04-.69,1.69-1.12-1.7-6.01-2.34-12.09-1.82-18.41Zm240.29-25.88c-.28,1.14-.6,2.04-.71,2.96-.24,1.98-.39,3.97-.53,5.96-.48,6.84-.97,13.69-1.39,20.53-.1,1.57-.33,3.32.21,4.71,2.38,6.09,2.33,12.12.29,18.24-1.86,5.57-4.55,10.72-7.86,15.55-.79,1.15-.95,2.18-.68,3.55.92,4.68,3.14,8.86,4.81,13.25.06.16.36.23.68.41.39-2.63.86-5.13,1.1-7.66.09-.96-.29-1.99-.58-2.95-.24-.78-.67-1.51-1.02-2.26.25-.19.49-.37.74-.56.35.66.7,1.32,1.3,2.44.26-1.38.43-2.15.55-2.92.76-4.73,1.58-9.44,3.29-13.96,1.24-3.28,2.39-6.6,3.46-9.94,1.66-5.17,3.17-10.38,4.84-15.54,1.06-3.27,2.26-6.55,4.66-9.1,1.83-1.94,3.97-3.59,6.26-5.61,0-1.56.01-3.55,0-5.55-.01-2.08.05-4.16-.1-6.23-.19-2.63-.71-3.19-3.28-3.59-2.76-.43-5.53-.76-8.31-1.06-2.51-.27-5.04-.46-7.73-.7Zm-219.48,37.39c-.63-5.15-1.09-10.32-1.96-15.43-.48-2.79-1.42-5.58-2.6-8.16-1.25-2.75-3.1-3.23-5.98-2.17-4.76,1.76-7.5,5.33-8.59,10.12-.53,2.34-.74,4.8-.74,7.2,0,3.1.12,6.25.6,9.31.93,6.02,2.6,11.86,5.08,17.43.64,1.43,1.57,2.81,2.64,3.95,1.67,1.78,4.1,1.63,5.66-.25.8-.97,1.53-2.1,1.95-3.28,2.15-6.04,4.02-12.15,3.93-18.74Zm-48.19,66.99c2.95,5.56,5.63,10.72,9.84,14.84,2.59,2.53,5.96,2.98,9.35,2.66,6.88-.65,13.42-2.73,19.9-5.02.39-.14.73-.46,1.2-.77-13.41-3.9-26.62-7.74-40.29-11.71Zm-62.06-73.42c-.61-.55-.81-.78-1.06-.95-4.67-3.26-9.56-6.12-15.01-7.84-1.81-.57-3.72-.95-5.61-1.11-2.57-.22-4.95.35-6.33,2.89-2.32,4.27-3.35,8.87-3.67,13.95.57-.33.92-.49,1.23-.71,2.9-2.14,6.21-3.25,9.74-3.72,4.35-.57,8.7-1.04,13.06-1.56,2.41-.29,4.81-.59,7.66-.94Zm25.64-1.15c-7.45.64-14.77,1.26-22.09,1.89-.14.25-.28.5-.41.75.43.21.93.34,1.27.64,3.02,2.72,5.98,5.5,9,8.22,2.01,1.81,4.04,3.6,6.16,5.3.92.73,2.01,1.3,3.1,1.75,1.43.59,2.06.29,2.5-1.22.33-1.13.56-2.34.6-3.52.11-3.9.11-7.81.13-11.71,0-.61-.14-1.23-.25-2.1Zm331.1,5.77c-3.95,15.55-7.26,31.2-9.51,47.06,2.87.46,5.01-.48,6.07-2.82.59-1.29,1-2.72,1.15-4.12.41-3.81.68-7.63.91-11.45.32-5.42.56-10.85.82-16.27.2-4.13.37-8.26.56-12.39Zm-30.72-3.5c.32-5.46.62-10.65.93-15.84-1.99,1.63-3.6,3.46-5.18,5.33-2.03,2.4-3.57,5.05-4.58,8.06-1.16,3.47-2.4,6.95-3.95,10.27-2.74,5.85-5.75,11.57-8.65,17.35-.31.63-.61,1.27-.91,1.9.19.1.38.21.56.31,2.42-3.05,4.89-6.06,7.25-9.17,2.92-3.85,5.24-7.95,5.69-12.96.15-1.66,1-3.38,1.9-4.83,1.2-1.93,2.94-2.26,5.02-1.39.57.24,1.09.56,1.9.98Zm-306.62,15.86c-.25-.26-.47-.55-.74-.79-2.14-1.91-4.3-3.81-6.44-5.72-3.15-2.83-6.25-5.7-9.45-8.47-.6-.52-1.56-.97-2.31-.91-3.26.24-6.5.68-9.75,1.06-.89.1-1.77.24-2.65.36,0,.17,0,.34-.01.51,10.28,4.99,20.61,9.85,31.34,13.97Zm88.85,5.85h14.07c-1.11-3.42-9.26-16.85-11.38-18.58.34,6.41-.75,12.4-2.7,18.58Zm236.87-53.4c4.14.98,4.87,1.83,4.94,6.08.04,2.79.02,5.57.03,8.36,0,.85,0,1.7,0,2.78,3.06-.45,5.14.96,7.16,2.86.73-3,.69-5.79.43-8.54-.23-2.44-.79-4.85-1.32-7.25-.25-1.1-.91-2.02-2.03-2.51-2.95-1.3-6.03-1.9-9.19-1.79Zm-270.98,55.51c.06.2.12.39.18.59,6.69.23,13.16-1.23,19.81-2.46-.95-3.02-1.8-5.71-2.71-8.6-5.9,3.58-11.59,7.03-17.27,10.47Zm42.09-15.51c-.6-6.75-1.16-13.05-1.72-19.41h-5.19c.38,2.99.87,5.81,1.04,8.65.13,2.02.84,3.64,2.03,5.2,1.29,1.68,2.42,3.49,3.83,5.56Zm230.44,50.29c3.75-2.61,7.09-4.88,10.35-7.26.48-.35.81-1.16.88-1.79.23-1.95-.93-3.23-2.19-4.21-1.04,1.61-1.79,3.5-3.15,4.66-1.42,1.22-3.44,1.74-5.6,2.76-.08,1.57-.18,3.58-.3,5.84Zm-25.62-9.24c1.2,7.7-2.48,14.29-4.76,21.42,3.94-2.92,5.79-6.67,7.11-10.98,1.25-4.11-.72-7.15-2.35-10.44ZM43.76,276.73q2.79.17,3.01-1.93c-.9.58-1.74,1.12-3.01,1.93ZM438.34,100.24c0-.07,0-.14,0-.2h-1.33s0,.09,0,.13c.44.02.88.05,1.33.07Z"/>
  <path class="cls-1" d="m208.24,422.83c-.17.99-1.04,1.32-1.7,1.78-8.07,5.76-16.91,9.94-26.34,12.97-11.8,3.8-23.92,4.85-36.21,4.32-22.11-.96-43.8-4.62-65.12-10.52-6.24-1.73-12.38-3.76-18.29-6.44-3.44-1.56-6.63-3.49-9.47-6.01-3.83-3.39-7.72-6.71-11.57-10.07-.39-.34-.72-.77-1.08-1.15.1-.14.19-.27.29-.41.53.36,1.1.67,1.58,1.08,3.7,3.17,7.41,6.33,11.05,9.57,3.02,2.69,6.43,4.72,10.11,6.32,9.27,4.03,18.96,6.7,28.76,9.03,13.07,3.1,26.3,5.24,39.65,6.66,8.66.92,17.38,1.5,26.08.98,18.43-1.1,35.37-6.71,50.51-17.43.39-.27.78-.55,1.19-.78.1-.06.28.04.55.1Z"/>
  <path class="cls-1" d="m160.72,369c-6.43-4.49-12.6-9.34-18.97-13.91-6.33-4.55-12.6-9.21-19.41-13.67.05.78-.02,1.2.11,1.55,1.45,3.89,2.76,7.84,4.45,11.62,1.49,3.32,4.05,5.96,6.79,8.29,4.44,3.77,9.05,7.34,13.58,10.99.6.49,1.22.96,1.68,1.76-.33-.05-.73.01-.98-.16-6.36-4.45-12.45-9.2-17.85-14.83-3.18-3.32-5.14-7.29-6.65-11.52-.8-2.25-1.6-4.53-2.14-6.85-.36-1.55-1.2-2.46-2.45-3.3-7.51-5.06-15.49-9.25-23.65-13.13-4.04-1.92-8.12-3.74-12.18-5.62-.54-.25-1.03-.59-1.55-.89.05-.17.11-.33.16-.5.53.13,1.09.18,1.57.41,6.64,3.14,13.3,6.25,19.9,9.47,11.69,5.7,22.12,13.4,32.64,20.93,8.05,5.76,15.97,11.72,23.94,17.6.49.36.96.75,1.43,1.13-.15.21-.29.43-.44.64Z"/>
  <path class="cls-1" d="m248.54,371.33c2.24,2.44,2.44,5.27,3.21,7.82,1.36,4.48,2.43,9.05,3.6,13.58.92,3.54,1.77,7.1,2.73,10.63.84,3.07,1.86,6.09,2.66,9.17.78,2.99,1.35,6.04,2.05,9.05.96,4.11,2,8.2,2.93,12.32.85,3.8,1.58,7.62,2.39,11.43,1.22,5.78,2.47,11.55,3.69,17.33.11.52.11,1.07.17,1.68-1.22.07-1.14-.81-1.27-1.42-.97-4.45-1.91-8.9-2.88-13.35-3.36-15.54-6.75-31.07-10.96-46.41-2.77-10.09-5.39-20.22-8.07-30.33-.1-.38-.13-.77-.24-1.5Z"/>
  <path class="cls-1" d="m156.77,244.27c3.91,1.63,54.79,51.27,57.36,56.19-.38-.26-.82-.46-1.13-.79-9.96-10.04-19.81-20.18-29.9-30.09-7.8-7.67-15.9-15.04-23.85-22.55-.82-.78-1.78-1.46-2.48-2.75Z"/>
</svg>