<?xml version="1.0" encoding="UTF-8"?>
<svg id="SKHLMC" xmlns="http://www.w3.org/2000/svg" viewBox="0 0 288.26 381.24">
  <defs>
    <style>
      .cls-1 {
        fill: #010101;
        stroke-width: 0px;
      }
    </style>
  </defs>
  <path class="cls-1" d="m110.76,291.35c.21-.13.4-.28.62-.38,3.63-1.6,6.85-3.84,10.02-6.2,3.13-2.32,5.85-5.08,8.54-7.86,2.05-2.12,4.13-4.22,6.08-6.43,1.32-1.5,2.46-3.15,3.63-4.77,2.32-3.22,4.63-6.44,6.89-9.7,3.2-4.63,6.62-9.1,10.2-13.43,2.63-3.18,5.62-6.03,8.72-8.75,2.22-1.95,4.71-3.51,7.63-4.35,1.33-.38,2.63-1.08,3.79-1.86,2.78-1.87,5.44-3.92,8.21-5.79,2.02-1.37,3.97-2.8,5.61-4.62,1.52-1.69,3-3.42,4.42-5.19,1.33-1.66,1.38-3.41-.49-5.36-.83-.87-1.93-1.29-3.11-1.5-.24-.04-.59,0-.77.14-.9.73-1.77,1.51-2.67,2.29.15.18.24.3.34.41.67.76.7,1.13-.07,1.76-.52.42-1.11.78-1.72,1.05-.6.26-1.01-.13-.78-.74.22-.59.52-1.2.94-1.66.83-.9,1.75-1.73,2.68-2.53,1.95-1.69,3.94-3.34,5.91-5.01.19-.16.38-.32.56-.48,1.37-1.27,1.45-3.37.07-4.66-.68-.64-1.52-1.15-2.34-1.61-.77-.43-1.63-.72-2.45-1.07-.28-.12-.57-.22-.86.03-1.2,1.09-2.41,2.18-3.61,3.27.1.11.14.18.18.19.59.12,1.05.39,1.18,1.02.13.64-.38.96-.8,1.22-.94.57-1.93,1.08-2.9,1.6-.16.08-.35.14-.53.16-.58.07-.92-.28-.73-.83.12-.33.34-.66.6-.91,1.72-1.67,3.45-3.33,5.21-4.96.95-.88,1.94-1.7,2.93-2.54.83-.7,1.38-1.57,1.69-2.59.46-1.5.87-3.01,1.3-4.52.06-.2.08-.42.1-.64.07-1.03-.38-1.7-1.41-1.81-.97-.1-1.96-.02-2.94,0-.17,0-.35.12-.48.24-.77.66-1.53,1.33-2.28,2.01-2.4,2.2-4.79,4.42-7.2,6.61-.38.35-.83.64-1.25.94-.2.14-.41.3-.63.37-.2.05-.44-.02-.67-.03.04-.22.02-.51.14-.66.35-.42.75-.82,1.18-1.17,1.09-.9,2.21-1.77,3.32-2.65,2.45-1.96,4.92-3.88,7.32-5.9.93-.78,1.73-1.74,2.55-2.65.98-1.09,1.11-2.43,1-3.82-.04-.53-.37-.92-.82-1.16-1.38-.76-2.79-.94-4.19-.04-.59.38-1.16.81-1.72,1.25-1.99,1.55-4.09,2.93-6.24,4.25-4.32,2.67-8.55,5.46-12.81,8.21-.96.62-1.89,1.27-2.85,1.88-1.29.83-2.18,1.96-2.75,3.37-.65,1.59-1.28,3.2-2.02,4.75-.51,1.08-1.17,2.09-1.81,3.1-.56.88-1.21,1.7-1.8,2.57-1.65,2.43-3.37,4.8-4.98,7.26-2.83,4.32-5.84,8.52-8.75,12.78-2.37,3.48-4.65,7.03-7.06,10.48-4.56,6.53-9.48,12.79-14.85,18.68-2.51,2.75-5.47,4.83-9,6.08-.26.09-.5.23-.73.38-2.38,1.57-4.76,3.16-7.15,4.73-.64.42-1.33.78-1.94,1.24-2.35,1.74-4.97,2.93-7.68,3.95-3.65,1.37-7.33,2.69-10.99,4.03-.34.12-.67.26-1.06.41.12.24.18.4.28.55,2.74,4.16,5.45,8.33,8.25,12.45,1.21,1.77,2.52,3.5,4.28,4.8.1.07.15.19.22.29h-.55c-1.91-1.62-3.44-3.58-4.83-5.64-2.54-3.77-5-7.58-7.5-11.38-.2-.3-.4-.6-.63-.97-1.05.46-2.04.85-3,1.33-1.46.73-2.58.49-3.51-.85-.54-.77-.77-1.66-.98-2.56-.41-1.7-.87-3.38-1.32-5.07-.05-.17-.17-.31-.3-.53.07,3.12.17,6.12.19,9.13.02,3.01-.05,6.02-.07,9.02-.02,1.97,0,3.93-.03,5.9,0,.55-.1,1.09-.16,1.63h-.37c.04-6.55.12-13.1.11-19.65,0-2.4-.19-4.79-.28-7.18-.06-1.47-.57-2.82-1.02-4.19-2.7-8.23-5.41-16.45-8.12-24.68-2.86-8.7-5.27-17.53-7.2-26.48-.49-2.25-.46-4.52-.22-6.79.37-3.46,1.06-6.86,1.87-10.24,1.33-5.52,4.27-10.01,8.85-13.41,2.79-2.07,5.54-4.19,8.29-6.31,1.17-.9,2.26-1.9,3.44-2.79,1.4-1.05,2.8-2.12,4.29-3.02,1.98-1.2,3.3-2.84,3.8-5.09.3-1.32.52-2.65.7-3.99.11-.78-.2-1.38-.92-1.85-1.25-.83-2.44-1.76-3.64-2.66-1.47-1.1-2.18-2.65-2.34-4.43-.05-.62-.31-1-.73-1.39-2.03-1.88-4.15-3.67-6.02-5.7-2.7-2.93-4.7-6.37-6.7-9.8-.63-1.09-1.21-2.21-1.83-3.3-2.33-4.08-2.99-8.48-2.55-13.09.22-2.29.35-4.6,1.01-6.83,1.05-3.58,2.42-7.05,4.45-10.18,2.05-3.16,4.87-5.4,8.57-6.45,3.06-.87,6.2-1.28,9.34-1.61,2.06-.2,4.15-.33,6.24-.33,4.24,0,8.44.55,12.39,2.07,4.07,1.56,8.12,3.19,11.94,5.33,1.79,1,3.63,1.92,5.4,2.97,1.63.97,3.17,2.08,4.77,3.1,1.4.88,2.83,1.7,4.25,2.53,1.08.63,2.18,1.2,3.25,1.83.7.41,1.2,1,1.55,1.76.66,1.42,1.5,2.75,2.08,4.2.62,1.57.97,3.23.82,4.95-.17,1.87-.6,3.68-1.02,5.5-.48,2.08-1.4,3.97-2.31,5.88-.08.17-.19.32-.27.48-.22.52-.16.78.32,1.09.54.34,1.11.64,1.7.91.43.2.71.47.7.97-.04,1.33-.23,2.6-.99,3.75-.33.51-.58,1.08-.86,1.63-.81,1.55-1.58,3.12-2.44,4.63-.22.4-.67.75-1.09.93-.45.19-.57.44-.51.83.08.52.15,1.04.32,1.53.38,1.13.67,2.28.87,3.47.36,2.17.85,4.33,1.3,6.49.12.57.13,1.1-.29,1.55-.14-.94-.24-1.89-.42-2.82-.47-2.38-.94-4.76-1.48-7.12-.26-1.12-.58-2.25-1.29-3.1-.63.35-1.18.74-1.79.95-.54.19-.89.46-1.13.97-.91,1.9-2.35,3.37-3.95,4.68-.4.33-.86.62-1.33.8-1.21.47-2.31-.24-2.44-1.5-.01-.12-.05-.23-.08-.43-.38.15-.71.29-1.05.42-1.82.73-3.6,1.57-5.6,1.78-1.02.11-1.14.37-.8,1.42.29.23.81,0,1.05.55-.21.02-.35.03-.49.04-.14,0-.28,0-.49,0,.09.52.16.93.24,1.35.48,2.53.97,5.07,1.45,7.6.13.68.07,1.35-.21,1.99-.33.77-.57.85-1.36.58-.64-.22-1.28-.43-1.94-.55-1.23-.23-2.48-.4-3.72-.59-.24-.04-.57-.19-.71-.09-.42.3-.7.03-1.01-.12-.37-.17-.73-.3-1.18-.09.23.63.76.97,1.22,1.35,1.98,1.61,4.3,2.6,6.62,3.6,1.54.66,3.1.56,4.69.24l-.02.02c.76-.08,1.52-.16,2.28-.26,2.78-.35,5.42-1.22,8-2.27.32-.13.72-.23.75-.7l-.03.04c.15-.14.32-.27.44-.43,1.32-1.8,2.64-3.6,3.93-5.43.67-.95,1.26-1.94,1.89-2.92.2.76-.11,1.38-.54,1.97-.75,1.01-1.52,2.01-2.28,3.02-.58.78-1.28,1.47-1.63,2.42-.19.53-.59.98-.93,1.52.38.34.73.69,1.11.98,1.42,1.06,2.64,2.34,3.93,3.55.93.87,1.57,1.96,2.03,3.15.59,1.51,1.14,3.05,2.03,4.42.21.33.27.75.45,1.1,1.05,2.07,1.89,4.26,3.24,6.18.53.75.87,1.62,1.39,2.37,1.4,2.01,2.8,4.02,4.3,5.96,1.54,1.99,3.2,3.89,4.81,5.83.98,1.18,1.97,2.36,2.95,3.54.12.14.23.28.38.47.2-.26.35-.45.49-.65.35-.5.66-1.05,1.05-1.52,2.2-2.63,3.55-5.73,4.87-8.85.03-.08.07-.17.1-.26.79-2.24,2.28-3.85,4.3-5.09,3.5-2.16,6.93-4.46,10.4-6.68.42-.27.63-.6.75-1.08,1.44-5.94,2.8-11.9,4.41-17.79,1.08-3.96,2.45-7.86,3.86-11.72,2.73-7.44,5.56-14.84,8.4-22.24.67-1.74.98-3.55,1.36-5.35,1.41-6.7,2.79-13.41,4.19-20.11.23-1.08.51-2.15.77-3.22.41-1.66,1.98-2.07,3.26-1.7,2.47.73,4.95,1.47,7.42,2.2,6.51,1.93,13.01,3.86,19.52,5.78,2.81,1.28,5.86,1.74,8.78,2.62.82.25,1.02.58.89,1.45-.07.45-.15.89-.25,1.43.39.08.72.14,1.03.21.51.11,1.02.2,1.52.35.37.11.56.39.39.79-1.82,4.24-3.08,8.67-4.62,13.01-3.83,10.83-7.61,21.68-11.41,32.52-.6,1.71-1.26,3.4-1.78,5.13-.61,2.03-1.55,3.92-2.19,5.94-.59,1.87-1.3,3.7-1.96,5.55-.7,1.97-1.38,3.93-2.07,5.9-.64,1.82-1.35,3.62-1.9,5.47-.59,1.97-1.41,3.85-2.06,5.79-.61,1.83-1.26,3.64-1.9,5.46-.65,1.85-1.31,3.69-1.96,5.54-.69,1.96-1.42,3.91-2.04,5.9-.27.85-.62,1.65-.97,2.46-.56,1.28-1.54,2.1-2.72,2.76-1.75.98-3.7,1.46-5.55,2.18-.51.2-1.01.45-1.52.64-.45.17-.95.26-1.38.47-1.72.81-3.42,1.66-5.13,2.49-.99.48-2.02.91-2.97,1.46-2.13,1.22-4.21,2.53-6.11,4.1-1.01.83-2.18,1.48-3.25,2.24-1.3.93-2.59,1.88-3.85,2.86-2.49,1.95-4.96,3.93-7.43,5.91-.45.37-.87.78-1.3,1.18-.26.24-.51.45-.97.23-.23-1.25.17-2.55,0-3.95-.17.12-.28.17-.35.25-3,2.87-6.05,5.69-8.65,8.95-.02.02-.04.05-.06.07-2.74,3.59-5.48,7.18-8.23,10.76-.51.66-.67,1.23-.35,2.09.55,1.48.83,3.06,1.3,4.58.95,3.1,1.95,6.19,2.92,9.28.46,1.46.92,2.92,1.36,4.39.48,1.61,1.04,3.2,1.39,4.85.34,1.58.48,3.21.68,4.82.2,1.64.37,3.29.53,4.93.06.61.05,1.23.07,1.84h-.37c-.08-.82-.15-1.65-.25-2.47-.15-1.27-.4-2.54-.46-3.81-.13-2.68-.57-5.32-1.35-7.88-2.06-6.72-4.15-13.44-6.24-20.15-.08-.25-.18-.5-.31-.87-.27.32-.47.54-.64.78-1.82,2.55-3.61,5.12-5.45,7.67-1.42,1.97-2.75,4.03-4.37,5.82-2.94,3.27-6.02,6.4-9.12,9.52-4.56,4.59-9.69,8.41-15.55,11.22-.08.04-.13.12-.2.18h-.92,0Zm80.46-110.31c.02.07.04.13.07.2.45,0,.91-.02,1.36,0,.43.02.87.05,1.27.16.99.28,1.52,1.04,1.47,2.07-.01.27-.06.55-.13.82-.43,1.51-.85,3.02-1.31,4.51-.37,1.17-1.03,2.16-2.01,2.92-.28.22-.55.47-.9.78.78.33,1.45.6,2.12.89,1.21.55,2.35,1.2,3.27,2.19.43.46.72.98.86,1.6.36,1.52-.12,2.7-1.31,3.67-1.24,1.01-2.46,2.04-3.68,3.07-.25.21-.48.44-.79.73.41.13.71.18.97.32.68.34,1.42.62,2.02,1.08,1.23.97,2.01,2.23,1.9,3.89-.06.97-.53,1.76-1.11,2.48-.67.84-1.38,1.65-2.07,2.48-2.08,2.53-4.34,4.86-7.1,6.67-.8.52-1.56,1.09-2.34,1.64-2.42,1.7-4.79,3.44-7.26,5.06-1.07.7-2.27,1.27-3.48,1.64-2.25.68-4.22,1.8-6.09,3.19-.73.55-1.31,1.1-1.12,2.1.03.14-.05.3-.05.46,0,.72,0,1.43,0,2.31.37-.28.59-.44.8-.62.78-.65,1.55-1.32,2.33-1.96,4.54-3.73,9.27-7.2,14.06-10.6,5.14-3.65,10.66-6.58,16.67-8.56,1.63-.54,3.22-1.22,4.8-1.89,1.33-.56,2.3-1.52,2.81-2.89.32-.87.68-1.72.98-2.58,3.51-9.97,7-19.95,10.51-29.92,2.73-7.77,5.5-15.53,8.23-23.29,2.87-8.14,5.54-16.35,8.58-24.44,1.89-5.03,3.6-10.13,5.39-15.2.35-1,.66-2.02,1.01-3.12-1.21-.2-2.35-.43-3.5-.56-3.97-.42-7.95-.81-11.92-1.18-4.62-.43-9.23-.85-13.85-1.26-1.87-.16-3.73-.28-5.61-.4-1.38-.09-2.63.31-3.67,1.22-.62.54-1.19,1.16-1.68,1.82-1.27,1.68-2.26,3.52-3.1,5.44-1.44,3.29-2.85,6.6-4.19,9.93-1.53,3.79-2.98,7.61-4.45,11.43-2.78,7.23-5.58,14.46-7.73,21.9-1.83,6.34-3.25,12.8-4.84,19.21-.02.09.02.2.05.43,2.41-1.52,4.75-2.95,7.02-4.45,1.36-.9,2.62-1.93,3.93-2.9,1.42-1.06,3.53-.7,4.62.04.65.44,1.03,1.03,1.05,1.84.02,1.57-.4,2.97-1.49,4.14-.46.49-.9,1-1.34,1.49h0Zm-66.68-43.87c.73.12,1.25-.17,1.77-.4,2.38-1.07,4.48-2.55,6.31-4.42.82-.84,1.5-1.78,1.98-2.87,1.27-2.84,2.36-5.73,2.89-8.82.42-2.48.3-4.91-.73-7.23-.58-1.32-1.28-2.59-1.94-3.87-.4-.79-.97-1.38-1.8-1.78-2.95-1.4-5.7-3.15-8.43-4.93-1.88-1.23-3.79-2.4-5.72-3.55-4.11-2.43-8.5-4.29-12.93-6.05-5.47-2.18-11.11-3.22-17.03-2.8-3.63.25-7.22.69-10.77,1.44-1.68.35-3.37.71-4.87,1.63-2.45,1.52-4.5,3.41-5.87,5.99-.36.68-.72,1.36-1.05,2.05-1.53,3.17-2.82,6.42-3.3,9.93-.21,1.49-.34,2.99-.43,4.49-.13,2.12-.19,4.25.35,6.33.61,2.36,1.45,4.64,2.68,6.75,1.22,2.1,2.45,4.19,3.71,6.27,2.08,3.44,4.5,6.61,7.62,9.18.89.73,1.76,1.49,2.64,2.24.06-.03.12-.07.18-.1-.03-.32-.06-.64-.08-.97-.05-.77-.12-1.53-.15-2.3-.04-1.19.44-2.15,1.36-2.89.15-.12.3-.26.56-.48-.65,0-1.13-.02-1.62,0-.44.02-.9.22-1.31-.15.27-.13.53-.2.8-.21,1.57-.07,3.13-.17,4.7-.18,1.26-.01,2.54-.06,3.77.16,2.05.37,4.07.92,6.1,1.42,2.23.56,4.45,1.15,6.68,1.72.27-.3.54-.47.85-.53,3.22-.57,6.34-1.47,9.46-2.43,2.59-.79,5.11-1.76,7.54-2.97,2.08-1.04,3.82-2.46,5.01-4.49,2.76-4.73,4.58-9.78,5.02-15.27.02-.27,0-.56.47-.7.18.32.42.63.53.98.75,2.37,1.13,4.82.74,7.28-.68,4.36-2.44,8.29-5.18,11.77-.17.21-.3.44-.5.73h0Zm-14.95,111.66c-.53-.93-.95-1.78-1.49-2.56-.4-.58-.66-1.18-.65-1.88.01-.92.02-1.85.13-2.76.33-2.71.23-3.07-1.57-5.07-1.21-1.35-2.43-2.69-3.6-4.08-.53-.63-1.03-1.33-1.34-2.08-.44-1.07-1.02-2.03-1.7-2.94-.73-.98-1.46-1.98-2.28-2.89-1.19-1.31-1.93-2.83-2.41-4.51-.16-.56-.33-1.12-.52-1.67-.1-.28-.22-.58-.4-.82-2.65-3.43-5.83-6.23-9.8-8.05-2.3-1.05-4.72-1.64-7.24-1.54-3.37.14-6.75.37-10.11.7-2.35.23-4.68.68-7,1.08-1.04.18-1.96.68-2.73,1.46.03.19.06.37.1.55,1.23,5.68,2.65,11.31,4.41,16.84,2.83,8.93,5.77,17.83,8.65,26.74.88,2.72,1.76,5.43,2.63,8.15.34,1.05.67,2.09,1.03,3.22.4-.13.72-.22,1.02-.33,2.98-1.13,5.98-2.25,8.95-3.42,3.37-1.33,6.72-2.73,9.86-4.57,4.78-2.79,9.51-5.65,14.26-8.48.55-.33,1.1-.67,1.79-1.08h0Zm-16.14-32.33c-.43-2.14-.85-4.25-2.05-6.07-.76-1.15-1.5-2.33-2.32-3.44-3.28-4.46-6.59-8.89-9.86-13.35-1.71-2.33-3.35-4.71-5.33-6.83-.97-1.03-2.01-1.99-3.37-2.51-.09-.03-.15-.15-.28-.31.64-.11,1.05.19,1.45.43,1.15.69,2.11,1.61,2.94,2.63,1.56,1.94,3.08,3.91,4.57,5.9,3.3,4.41,6.56,8.84,9.84,13.26,2.17,2.93,4.17,5.95,4.86,9.62.02.12.05.24.08.36.55,1.76,1.07,3.53,1.65,5.28.51,1.56,1.65,2.68,2.74,3.85.05-.26.05-.5,0-.73-1.38-6.43-3.43-12.62-6.56-18.43-2.3-4.28-4.56-8.57-6.83-12.87-.12-.22-.2-.46-.3-.69.07-.04.15-.08.22-.13.15.24.32.47.46.72.61,1.1,1.23,2.2,1.82,3.32,2.12,4.06,4.3,8.09,6.34,12.19,2.62,5.26,4.23,10.87,5.4,16.61.16.77.43,1.44.89,2.08.54.74,1.05,1.53,1.42,2.37.41.95.91,1.81,1.58,2.58,1.15,1.32,2.32,2.62,3.49,3.93.93,1.05,2.03,2.01,1.93,3.67.25-.33.41-.65.53-.98,1.75-4.89,3.51-9.77,5.23-14.67,2.5-7.13,3.46-14.51,3.43-22.02-.02-4.18-.18-8.36-.29-12.54-.06-2.3-.13-4.61-.2-6.91,0-.21-.07-.42-.13-.8-.71,1.77-1.28,3.37-1.99,4.89-.62,1.33-1.41,2.58-2.12,3.87-.2.37-.47.72-.6,1.12-.59,1.78-1.13,3.57-1.7,5.36-2.61,8.23-5.22,16.46-7.83,24.69-.05.14-.18.25-.28.38-.11-.36-.07-.65.01-.93.52-1.74,1.02-3.48,1.57-5.21,2.46-7.7,4.95-15.38,7.41-23.08.12-.39.37-.77.26-1.23-.78.25-1.5.52-2.23.7-2.81.7-5.66.69-8.52.38-3.06-.32-5.87-1.32-8.37-3.11-1.35-.97-2.7-1.95-3.95-3.03-3.83-3.33-7.47-6.86-10.97-10.53-.97-1.02-1.91-2.07-2.9-3.13-.22.16-.42.29-.61.44-1.89,1.43-3.8,2.82-5.65,4.3-1.49,1.18-2.99,2.38-4.33,3.72-1.17,1.17-2.25,2.46-3.12,3.85-.89,1.42-1.55,3.01-2.16,4.58-.48,1.22-.74,2.53-1.05,3.81-.06.23,0,.58.14.77,1.43,1.92,2.83,3.86,4.86,5.25,2.09,1.43,4.25,2.7,6.49,3.87.27.14.63.21.78.7-.28-.09-.48-.12-.66-.21-.55-.27-1.1-.56-1.63-.85-3.72-2.03-7.31-4.22-9.68-7.89-.1-.16-.27-.28-.45-.46-.07.2-.13.31-.15.43-.63,2.98-1.2,5.97-1.29,9.02-.06,2.07.1,4.11.73,6.15.16-.07.31-.11.42-.19.94-.69,1.99-1.1,3.13-1.28,1.88-.3,3.75-.67,5.65-.84,3.33-.31,6.67-.5,10.02-.73,2.53-.17,4.97.25,7.31,1.19,3.73,1.49,6.78,3.95,9.45,6.9.24.27.48.53.72.8h0Zm47.03,2.48c1.42,0,2.74-.02,4.06.01.6.02.98-.15,1.37-.68,3.08-4.16,5.72-8.6,8.56-12.92.06-.1.08-.22.12-.34-.18-.23-.35-.45-.53-.67-2.13-2.58-4.31-5.13-6.4-7.75-1.91-2.4-3.82-4.82-5.57-7.34-2.06-2.96-3.62-6.21-5.09-9.5-.87-1.93-1.72-3.88-2.6-5.81-.34-.75-.82-1.4-1.54-2.03-.16.45-.27.76-.37,1.08-1.11,3.22-2.22,6.45-3.35,9.67-.19.54-.42,1.1-.77,1.56-.78,1.03-1.63,2-2.46,2.99-.12.14-.29.23-.44.34-.03-.25.03-.41.13-.53.68-.83,1.4-1.63,2.05-2.49.38-.51.76-1.06.97-1.65,1.28-3.62,2.52-7.26,3.77-10.89.05-.14.07-.29.12-.51-1.53-1.36-3.07-2.72-4.59-4.05-2.44,1.32-5.04,1.95-7.57,2.67-.02.13-.05.2-.03.25.15.6.29,1.19.45,1.78,1.7,6.51,3.49,13,4.06,19.74.3,3.58.63,7.17.74,10.75.11,3.53,0,7.07-.09,10.6-.06,2.27-.37,4.53-.85,6.76-1.12,5.27-2.64,10.43-4.27,15.55-2.22,6.97-4.53,13.9-6.81,20.85-.1.3-.18.62-.32,1.05.36-.13.57-.17.75-.27,1.13-.67,2.3-1.3,3.38-2.05,2.17-1.5,3.85-3.52,5.55-5.5,5.88-6.83,11.36-13.97,16.2-21.59.43-.68.63-1.35.65-2.14.04-2,.1-4,.2-5.99.05-.98.1-1.97.32-2.93.33-1.5.21-2.99.08-4.49-.12-1.38-.22-2.76-.31-4.13-.01-.2.07-.41.11-.62.19.13.24.24.25.35.1,1.19.22,2.38.3,3.58.14,1.89.45,3.79-.1,5.68-.13.46-.11.97-.17,1.6h.02Zm-26.17-48.1c.59.98,1.14,1.83,1.62,2.72.66,1.19,1.2,2.43,1.26,3.82.07,1.57.08,3.13.12,4.7.07,2.73.14,5.47.2,8.2.03,1.11.04,2.21.08,3.32.18,4.79.3,9.58-.01,14.38-.32,4.99-1.2,9.87-2.68,14.65-1.96,6.28-4.21,12.46-6.65,18.57-.4,1-.49,2.03-.43,3.07.03.5.14,1.08.43,1.48,1,1.39,1.65,2.95,2.28,4.52.64,1.6,1.24,3.21,1.87,4.81.17.45.4.87.68,1.48.53-1.55.99-2.92,1.45-4.28,2.91-8.62,5.77-17.25,8.15-26.03.76-2.78,1.44-5.6,1.93-8.43.68-3.97.68-8.01.63-12.03-.05-3.9-.22-7.8-.6-11.69-.24-2.5-.49-5.02-.91-7.5-.91-5.37-2.34-10.62-3.75-15.87-.05-.17-.14-.33-.23-.53-1.79.22-3.55.43-5.44.67h0Zm-22.14,10.65c-.02.06-.04.12-.06.18.51.37,1.02.74,1.54,1.1,4.67,3.28,9.82,3.75,15.25,2.67,1.12-.22,1.98-.83,2.58-1.79.97-1.57,1.58-3.29,1.67-5.12.1-1.93.02-3.87,0-5.81-.01-.67-.11-1.33-.15-1.89-1.62-.72-3.15-1.36-4.64-2.08-1.59-.76-3.06-1.71-4.32-2.95-.44-.44-.83-.9-.42-1.61-4.18-1.85-7.17-5.13-10.43-8.06-1.84,1.25-3.75.71-5.67.33-.14,1.1-.25,2.17-.42,3.22-.3,1.83-.73,3.63-1.93,5.12-.62.77-1.23,1.53-1.88,2.27-.95,1.08-1.94,2.13-2.97,3.26.35.47.69.94,1.05,1.38,2.5,3.06,5.36,5.75,8.43,8.24.98.79,1.9,1.43,3.22,1.04,3.44.05,6.88.09,10.33.14.21,0,.42.09.63.13,0,.1-.02.2-.03.3-1.94-.07-3.88-.18-5.81-.17-1.98.01-3.97-.08-5.94.08h-.01Zm20.9-15.29c.66-1.05.73-1.57.49-2.55-.16-.62-.28-1.26-.39-1.89-.38-2.12-.76-4.23-1.13-6.35-.09-.54-.33-.82-.91-.97-1.98-.48-3.85-1.27-5.63-2.24-5.15-2.82-10.22-5.77-15.09-9.05-.6-.4-1.23-.77-1.84-1.16l-.07.09c.15.22.31.43.47.65-.05.05-.09.11-.14.16-.26-.18-.52-.35-.78-.54-1.13-.8-2.25-1.62-3.58-2.07-2.39-.82-4.6.75-4.52,3.26.07,2.25.42,4.46,1.02,6.63.26.95.75,1.74,1.55,2.33,1.34.98,2.67,1.97,4.02,2.92,1.58,1.13,3.39,1.21,5.22.95,1.08-.15,1.54-.9,1.44-2-.05-.52-.1-1.04-.13-1.56,0-.15.06-.31.15-.67.4.73.3,1.32.35,1.88.05.6.01,1.21.01,1.99,1.27,1.16,2.65,2.47,4.09,3.72,1.02.88,2.07,1.75,3.2,2.48,1.23.8,2.51,1.6,3.87,2.11,1.33.5,2.8.71,4.22.94,1.38.23,2.82.2,4.13.93h0Zm-39.19,100.88c.42,1.76.79,3.43,1.23,5.08.14.52.4,1.04.7,1.49.67,1.01,1.63,1.22,2.73.73,1.23-.55,2.47-1.1,3.73-1.57,4.12-1.53,8.25-3.02,12.37-4.56,2.04-.77,4.05-1.63,5.89-2.82,1.5-.97,3-1.92,4.49-2.9,1.93-1.27,3.86-2.52,5.75-3.84.57-.4,1.04-.95,1.51-1.47.27-.3.35-.66.17-1.1-.83-2.02-1.62-4.05-2.42-6.08-.11-.27-.25-.53-.38-.82-.28.15-.47.25-.65.36-2.92,1.76-5.83,3.54-8.78,5.27-2.88,1.7-5.74,3.47-8.72,5-5.17,2.66-10.63,4.66-16.08,6.66-.51.19-1.02.37-1.53.56h0Zm39.88-96.25c-.09.02-.18.04-.28.05,0,.26,0,.52,0,.78.05,2.03.13,4.05.13,6.08,0,2.11-.64,4.05-1.67,5.87-.7,1.25-1.78,1.99-3.19,2.29-2.4.51-4.82.57-7.23.28-2.37-.28-4.66-.88-6.69-2.18-5.37-3.44-10.14-7.56-14.17-12.53-1.16-1.43-1.13-1.85.25-3.05.32-.28.65-.54.97-.81-1.37.52-6.33,4.45-6.92,5.34.52.59,1.01,1.22,1.57,1.78,2.9,2.92,5.79,5.86,8.75,8.73,2.14,2.08,4.39,4.04,6.85,5.74,1.47,1.02,3,1.93,4.72,2.47,3.89,1.23,7.84,1.32,11.84.62,2.3-.4,3.98-1.53,4.87-3.73.88-2.16,1.78-4.32,2.67-6.47.49-1.18.62-2.4.62-3.68.02-3-1.51-5.3-3.1-7.59h0Zm81.68-47.29c.05.02.1.03.16.05.19-.4.4-.8.57-1.22,1.18-2.73,2.37-5.47,3.86-8.06.71-1.23,1.5-2.39,2.5-3.41,1.27-1.3,2.79-1.99,4.63-1.87,2.39.16,4.78.33,7.17.53,4.16.36,8.32.74,12.48,1.13,2.69.26,5.38.56,8.07.83,1.28.13,2.55.23,3.82.35.4-.55.45-1.13.5-1.7.03-.35-.1-.6-.46-.69-.21-.06-.41-.12-.62-.18-3.48-1.03-6.95-2.06-10.43-3.09-8.07-2.4-16.14-4.8-24.21-7.2-.43-.13-.9-.21-1.35-.22-.97,0-1.48.39-1.76,1.31-.13.44-.24.89-.33,1.34-1.29,6.1-2.58,12.2-3.86,18.31-.26,1.25-.5,2.52-.75,3.77h0Zm-66.53-6.35c-.09.79-.13,1.37-.23,1.95-.6,3.6-1.78,7.02-3.23,10.36-1.78,4.13-4.69,7-8.92,8.68-4.67,1.86-9.47,3.25-14.36,4.32-.32.07-.64.15-.96.23,6.27,1.88,12.55,3.51,19.02,4.08.42-.47.77-.98,1.23-1.38,1.7-1.47,3.42-2.9,5.15-4.33.4-.33.87-.59,1.33-.82.58-.28.89-.18,1.27.32.1.13.18.29.28.45.73-.4,1.22-.88,1.37-1.68.15-.84.59-1.53,1.19-2.14.52-.52,1-1.08,1.51-1.62.83-.9,1.67-1.8,2.57-2.78-.78-.47-1.5-.91-2.25-1.36-.17.19-.31.35-.45.5-2.02,2.25-4.4,4-7.18,5.22-.33.15-.69.3-1.05.33-.3.03-.73,0-.92-.18-.29-.28,0-.62.22-.89.34-.44.71-.85,1.02-1.31,1.79-2.61,3.03-5.47,3.9-8.51.85-2.97.57-5.9-.22-8.82-.04-.14-.12-.27-.28-.62h0Zm-8.76,30.13c-.33-.07-.62-.13-.91-.18-2.28-.35-4.59-.55-6.82-1.07-5.59-1.31-11.15-2.77-16.72-4.17-2.47-.62-4.94-1.27-7.42-1.85-.97-.23-1.97-.23-2.97-.03,2.01.68,3.76,1.8,5.5,2.94,1.67,1.09,3.33,2.22,5.05,3.23,3.66,2.14,7.35,4.23,11.06,6.3,1.45.81,3.03,1.3,4.65,1.65.04-.1.08-.15.09-.21.12-1.2.23-1.3,1.42-1.51.81-.15,1.63-.31,2.41-.56.97-.31,1.91-.68,2.84-1.08,1.68-.73,1.53-.27,1.67-2.27.03-.36.08-.72.14-1.17h0Zm8.97-5.37c-.04-.33-.05-.55-.1-.76-.16-.66-.45-.8-1.07-.48-.46.24-.92.5-1.32.83-1.66,1.37-3.28,2.77-4.93,4.15-.78.65-1.14,1.5-1.24,2.48-.09.88-.18,1.77-.27,2.65-.11,1.02.67,1.72,1.67,1.44.46-.13.92-.38,1.3-.67,1.41-1.06,2.69-2.27,3.52-3.84.8-1.52,1.47-3.1,2.17-4.67.17-.38.21-.83.28-1.13h0Zm1.83,2.31c1.3-.63,1.98-1.55,2.52-2.61.56-1.09,1.05-2.23,1.65-3.29.85-1.5,1.28-3.12,1.58-4.78.03-.15-.03-.32-.07-.59-.24.18-.4.28-.51.4-1.37,1.45-2.73,2.91-4.08,4.38-.2.22-.39.49-.5.77-.56,1.47-.93,2.99-.88,4.58,0,.34.17.68.28,1.14h0Zm9.36,81.75c1.61-2.19,3.2-4.33,4.71-6.63h-4.57c-.19,2.24-.27,4.42-.15,6.63Zm43.09-26.1c.07.06.13.12.2.18.23-.05.48-.06.69-.17.92-.48,1.84-.98,2.75-1.48.16-.09.3-.21.43-.34.35-.37.27-.84-.16-1.06-.43-.23-1.17-.16-1.53.18-.6.57-1.2,1.13-1.77,1.74-.25.27-.4.63-.6.95h0Zm2.77,10.55c.91-.21,1.55-.65,2.1-1.22.28-.29.26-.6-.01-.89-.14-.15-.31-.28-.49-.43-.87.62-1.42,1.4-1.6,2.54h0Zm-2.29-23.3c-1.28.57-4.75,3.42-5.24,4.35,2.05-1.27,3.64-2.81,5.24-4.35h0Zm-53.51-46.33c-.38.4-.77.63-.78.88-.03.6.09,1.2.22,1.8.12.57.47.9,1.3,1.33-1.24-1.2-.7-2.53-.74-4.01h0Zm-2.12,4.89c1.5-.25,1.64-.47,1.27-1.71-.05-.18-.13-.36-.27-.71-.37.88-.66,1.6-1,2.42h0Z"/>
  <path class="cls-1" d="m127.43,166.98c-.75.09-1.5.22-2.26.28-3.39.23-6.73-.18-10.04-.86-.21-.04-.42-.14-.62-.22.02-.07.03-.14.05-.21.22.02.43.02.64.05,1.76.26,3.5.67,5.27.77,2.1.12,4.22-.03,6.33-.06.25,0,.58-.16.6.3l.03-.04h0Z"/>
  <path class="cls-1" d="m62.08,214.99c.48.09.67.43.89.68,1.35,1.53,2.47,3.23,3.27,5.1.91,2.15,1.72,4.33,2.52,6.53,1.93,5.35,3.83,10.7,5.72,16.06.11.31.4.63.08,1.15-.17-.37-.3-.62-.4-.88-2.19-6.2-4.37-12.4-6.58-18.59-1.16-3.25-2.55-6.4-4.81-9.07-.23-.28-.63-.47-.68-.99Z"/>
  <path class="cls-1" d="m84.2,223.52c-.34-.06-.71-.06-1.02-.19-.93-.38-1.9-.74-2.77-1.24-2.2-1.28-4.35-2.67-6.55-3.95-3.24-1.88-6.52-3.7-9.78-5.55-.2-.12-.38-.26-.67-.45.49-.22.74.05,1,.2,2.73,1.53,5.48,3.04,8.19,4.62,2.6,1.52,5.15,3.13,7.73,4.67,1.16.69,2.37,1.3,3.74,1.51.07.01.13.11.19.17l-.06.23h0Z"/>
  <path class="cls-1" d="m67.82,242.93c.15.17.31.33.44.51.74,1.05,1.73,1.8,2.95,2.09,1.88.46,3.56,1.35,5.22,2.27,2.31,1.28,4.59,2.62,6.9,3.9.78.43,1.61.75,2.42,1.12.1.05.18.12.35.25-.52.23-.88.02-1.2-.14-1.1-.55-2.19-1.12-3.27-1.71-2.39-1.33-4.75-2.72-7.16-4-.97-.51-2.03-.87-3.08-1.19-1.47-.45-2.66-1.25-3.53-2.51-.1-.14-.16-.31-.23-.46.07-.05.13-.09.19-.14h0Z"/>
  <path class="cls-1" d="m76.12,218.47c1.77-.52,17.12,3.53,18.95,4.85-.36.23-.66,0-.95-.08-3.17-.96-6.35-1.92-9.51-2.9-2.56-.79-5.17-1.33-7.82-1.71-.23-.03-.45-.11-.68-.17h0Z"/>
  <path class="cls-1" d="m105.68,237.25c-.35.76-2.79,3.21-3.45,3.54.18-.54,2.28-2.72,3.45-3.54Z"/>
  <path class="cls-1" d="m61.92,188.56c.62-.02.79.32,1.01.53,2.42,2.32,4.93,4.54,7.7,6.45,1.82,1.25,3.77,2.3,5.66,3.45,3.42,2.07,6.83,4.15,10.24,6.23.57.35,1.13.69,1.64,1.19-.15-.01-.33.02-.46-.05-.59-.33-1.18-.67-1.75-1.03-3.99-2.55-8.03-5.01-12.19-7.28-2.98-1.63-5.6-3.78-8.15-6-1.02-.89-2.01-1.81-3-2.73-.21-.19-.39-.42-.7-.75h0Z"/>
  <path class="cls-1" d="m128.39,194.29c.12,0,.23-.03.34,0,3.19.89,6.38,1.79,9.58,2.68,1.77.49,3.25,1.44,4.49,2.77.15.16.27.36.28.67-.15-.1-.34-.18-.46-.32-1.22-1.37-2.72-2.27-4.49-2.75-2.84-.77-5.68-1.57-8.52-2.37-.43-.12-.84-.3-1.26-.46.02-.08.03-.16.04-.23h0Z"/>
  <path class="cls-1" d="m114.89,163.02c1.96-.44,3.93-.83,5.88-1.34,1.96-.51,3.93-1.01,5.82-1.72,1.87-.7,3.64-1.67,5.53-2.42-.08.1-.15.24-.26.31-3,1.73-6.13,3.12-9.52,3.89-2.47.56-4.91,1.23-7.42,1.57-.01-.1-.03-.19-.04-.29h0Z"/>
  <path class="cls-1" d="m116.42,170.18c-.25-.16-.5-.34-.76-.47-1.68-.83-3.37-1.63-5.03-2.47-.29-.15-.7-.22-.79-.81,2.31,1.13,4.51,2.21,6.72,3.29-.06.19-.1.33-.15.47l.02-.02h0Z"/>
</svg>