<?xml version="1.0" encoding="UTF-8"?>
<svg id="Layer_1" data-name="Layer 1" xmlns="http://www.w3.org/2000/svg" viewBox="0 0 486.23 523.8">
  <defs>
    <style>
      .cls-1 {
        stroke-width: 0px;
      }
    </style>
  </defs>
  <path class="cls-1" d="m143.74,523.8c.54-.33,1.05-.74,1.62-.99,9.43-4.16,17.81-9.99,26.04-16.11,8.13-6.04,15.2-13.2,22.2-20.44,5.34-5.51,10.74-10.98,15.81-16.73,3.42-3.89,6.4-8.18,9.43-12.39,6.03-8.37,12.05-16.74,17.91-25.23,8.32-12.04,17.2-23.65,26.53-34.92,6.85-8.27,14.62-15.67,22.66-22.74,5.77-5.08,12.24-9.13,19.84-11.31,3.47-1,6.83-2.81,9.85-4.83,7.23-4.85,14.14-10.18,21.35-15.06,5.26-3.56,10.33-7.29,14.58-12.01,3.96-4.39,7.8-8.9,11.5-13.5,3.47-4.31,3.58-8.86-1.28-13.93-2.17-2.26-5.03-3.36-8.08-3.91-.63-.11-1.53-.02-1.99.36-2.35,1.9-4.6,3.92-6.95,5.96.4.48.63.79.89,1.07,1.75,1.98,1.81,2.93-.18,4.57-1.34,1.1-2.88,2.04-4.47,2.72-1.57.68-2.62-.33-2.02-1.93.58-1.54,1.34-3.13,2.44-4.32,2.16-2.34,4.54-4.5,6.96-6.59,5.08-4.39,10.24-8.68,15.37-13.02.49-.41.98-.82,1.45-1.26,3.56-3.3,3.76-8.77.18-12.12-1.78-1.67-3.95-2.98-6.09-4.18-2.01-1.12-4.23-1.88-6.36-2.78-.74-.31-1.49-.58-2.23.09-3.12,2.84-6.26,5.66-9.39,8.49.27.29.36.48.47.5,1.53.3,2.74,1.02,3.06,2.64.33,1.67-.98,2.5-2.09,3.17-2.45,1.49-5.02,2.8-7.55,4.16-.41.22-.9.36-1.37.42-1.51.19-2.38-.72-1.9-2.15.3-.87.88-1.72,1.55-2.36,4.48-4.34,8.98-8.65,13.54-12.9,2.46-2.28,5.04-4.43,7.61-6.6,2.15-1.81,3.59-4.09,4.4-6.73,1.19-3.89,2.27-7.82,3.38-11.74.15-.53.22-1.1.26-1.66.18-2.67-1-4.42-3.67-4.7-2.52-.26-5.1-.05-7.65.02-.43.01-.91.32-1.26.62-2,1.72-3.98,3.45-5.93,5.23-6.24,5.72-12.45,11.48-18.71,17.19-1,.91-2.15,1.66-3.25,2.45-.52.37-1.06.79-1.65.95-.53.14-1.15-.05-1.73-.09.11-.58.04-1.32.37-1.72.92-1.09,1.95-2.13,3.06-3.04,2.84-2.34,5.75-4.59,8.62-6.88,6.36-5.09,12.79-10.1,19.04-15.33,2.43-2.04,4.51-4.52,6.64-6.89,2.54-2.83,2.88-6.32,2.61-9.92-.1-1.38-.96-2.38-2.12-3.02-3.6-1.98-7.26-2.44-10.89-.1-1.54.99-3.01,2.11-4.46,3.24-5.17,4.04-10.64,7.61-16.23,11.06-11.22,6.93-22.22,14.2-33.3,21.35-2.49,1.6-4.92,3.29-7.41,4.88-3.35,2.15-5.66,5.1-7.16,8.76-1.7,4.14-3.34,8.31-5.26,12.35-1.33,2.8-3.03,5.43-4.7,8.05-1.46,2.29-3.15,4.43-4.68,6.67-4.29,6.31-8.76,12.48-12.94,18.87-7.35,11.23-15.19,22.14-22.75,33.24-6.17,9.05-12.08,18.27-18.35,27.25-11.86,16.99-24.64,33.26-38.62,48.58-6.53,7.15-14.23,12.56-23.4,15.82-.67.24-1.31.59-1.9.98-6.2,4.09-12.38,8.21-18.58,12.3-1.67,1.1-3.45,2.04-5.05,3.23-6.1,4.52-12.93,7.62-19.98,10.26-9.5,3.56-19.05,6.99-28.58,10.48-.88.32-1.75.68-2.76,1.06.31.62.47,1.05.73,1.44,7.13,10.81,14.17,21.67,21.45,32.38,3.14,4.61,6.55,9.1,11.13,12.47.25.18.39.5.58.76h-1.44c-4.97-4.21-8.94-9.32-12.55-14.67-6.61-9.79-13.01-19.72-19.5-29.59-.51-.78-1.03-1.56-1.65-2.51-2.72,1.2-5.31,2.22-7.8,3.46-3.8,1.9-6.7,1.28-9.13-2.22-1.4-2-1.99-4.31-2.56-6.66-1.07-4.41-2.25-8.8-3.42-13.19-.12-.44-.44-.81-.77-1.39.18,8.11.45,15.92.5,23.73.05,7.82-.13,15.64-.19,23.46-.04,5.11-.02,10.22-.09,15.33-.02,1.42-.27,2.83-.41,4.25h-.96c.11-17.03.3-34.05.29-51.08,0-6.23-.5-12.45-.74-18.68-.15-3.82-1.48-7.34-2.65-10.9-7.03-21.39-14.07-42.78-21.1-64.16-7.44-22.63-13.7-45.57-18.73-68.85-1.27-5.86-1.19-11.75-.56-17.65.96-8.99,2.76-17.84,4.87-26.62,3.45-14.36,11.1-26.02,23.01-34.86,7.25-5.38,14.41-10.89,21.56-16.41,3.04-2.34,5.88-4.95,8.94-7.25,3.63-2.74,7.27-5.5,11.15-7.86,5.14-3.13,8.57-7.38,9.88-13.24.77-3.42,1.34-6.9,1.82-10.37.28-2.03-.53-3.6-2.39-4.82-3.26-2.16-6.34-4.58-9.47-6.92-3.83-2.87-5.67-6.88-6.08-11.51-.14-1.62-.81-2.59-1.91-3.61-5.28-4.88-10.8-9.55-15.66-14.83-7.02-7.61-12.22-16.57-17.42-25.48-1.65-2.83-3.15-5.75-4.77-8.59-6.06-10.6-7.78-22.05-6.64-34.03.56-5.96.92-11.96,2.62-17.75,2.74-9.32,6.29-18.32,11.58-26.48,5.33-8.22,12.65-14.03,22.28-16.77,7.96-2.27,16.11-3.34,24.29-4.18C83.49.33,88.93,0,94.36,0c11.02.02,21.94,1.44,32.22,5.39,10.57,4.05,21.11,8.3,31.04,13.86,4.66,2.6,9.44,4.98,14.03,7.71,4.23,2.52,8.23,5.42,12.41,8.05,3.63,2.28,7.35,4.43,11.06,6.59,2.8,1.63,5.67,3.12,8.46,4.77,1.81,1.07,3.11,2.61,4.03,4.58,1.72,3.68,3.91,7.15,5.4,10.91,1.62,4.07,2.51,8.39,2.12,12.87-.43,4.85-1.55,9.56-2.64,14.29-1.25,5.42-3.63,10.33-6,15.28-.21.43-.5.82-.69,1.26-.56,1.34-.42,2.04.84,2.84,1.4.89,2.89,1.66,4.41,2.36,1.13.52,1.85,1.22,1.81,2.52-.1,3.45-.61,6.77-2.57,9.75-.87,1.33-1.5,2.81-2.24,4.23-2.1,4.03-4.11,8.1-6.35,12.05-.58,1.03-1.73,1.95-2.83,2.41-1.16.49-1.48,1.15-1.32,2.17.2,1.34.39,2.7.82,3.97,1,2.95,1.75,5.92,2.26,9.01.93,5.65,2.21,11.25,3.38,16.87.31,1.48.34,2.85-.76,4.04-.36-2.44-.62-4.91-1.1-7.33-1.22-6.19-2.45-12.37-3.86-18.52-.67-2.92-1.5-5.85-3.36-8.06-1.64.9-3.07,1.93-4.66,2.48-1.41.49-2.31,1.2-2.94,2.52-2.36,4.94-6.1,8.76-10.27,12.17-1.04.85-2.23,1.6-3.47,2.08-3.14,1.21-6.01-.63-6.35-3.9-.03-.3-.12-.6-.22-1.12-.98.39-1.85.75-2.72,1.09-4.74,1.89-9.37,4.09-14.55,4.64-2.65.28-2.97.96-2.08,3.69.76.61,2.11.02,2.73,1.42-.55.05-.92.09-1.28.1-.36.02-.72,0-1.27,0,.24,1.34.42,2.43.63,3.51,1.26,6.58,2.52,13.17,3.77,19.75.34,1.77.17,3.51-.55,5.17-.86,1.99-1.49,2.2-3.53,1.52-1.66-.56-3.34-1.11-5.05-1.43-3.21-.6-6.45-1.03-9.68-1.53-.63-.1-1.47-.49-1.84-.23-1.08.77-1.82.07-2.63-.32-.95-.45-1.89-.78-3.08-.24.61,1.65,1.98,2.53,3.18,3.51,5.15,4.19,11.17,6.77,17.2,9.36,4.01,1.72,8.07,1.46,12.19.62l-.04.05c1.97-.22,3.95-.42,5.92-.67,7.23-.91,14.09-3.16,20.8-5.89.84-.34,1.88-.59,1.96-1.81l-.08.1c.39-.37.84-.7,1.15-1.12,3.43-4.69,6.87-9.37,10.22-14.12,1.73-2.46,3.28-5.05,4.91-7.58.51,1.97-.28,3.6-1.4,5.11-1.96,2.62-3.95,5.22-5.92,7.84-1.52,2.02-3.33,3.81-4.24,6.29-.5,1.38-1.54,2.56-2.41,3.95,1,.88,1.89,1.79,2.89,2.55,3.7,2.76,6.87,6.09,10.23,9.22,2.43,2.26,4.07,5.09,5.28,8.19,1.54,3.93,2.96,7.92,5.27,11.5.55.85.69,1.95,1.16,2.87,2.74,5.39,4.91,11.07,8.43,16.06,1.37,1.94,2.26,4.22,3.61,6.17,3.64,5.22,7.28,10.46,11.17,15.49,4.01,5.18,8.31,10.12,12.5,15.16,2.55,3.08,5.12,6.14,7.68,9.21.3.36.6.73.99,1.21.52-.68.92-1.17,1.27-1.68.91-1.31,1.71-2.72,2.73-3.94,5.72-6.85,9.23-14.9,12.66-23,.09-.22.18-.44.26-.67,2.06-5.82,5.92-10,11.18-13.24,9.11-5.62,18.01-11.59,27.03-17.37,1.1-.71,1.63-1.55,1.94-2.81,3.75-15.44,7.27-30.94,11.47-46.26,2.82-10.3,6.36-20.43,10.04-30.47,7.09-19.34,14.45-38.59,21.84-57.82,1.74-4.53,2.54-9.23,3.53-13.9,3.67-17.42,7.25-34.87,10.9-52.29.59-2.81,1.32-5.59,2-8.38,1.06-4.31,5.14-5.39,8.47-4.41,6.43,1.9,12.86,3.83,19.29,5.73,16.92,5.02,33.83,10.03,50.75,15.04,7.3,3.33,15.23,4.52,22.84,6.82,2.12.64,2.64,1.5,2.31,3.76-.17,1.17-.4,2.32-.64,3.71,1.02.21,1.86.37,2.69.55,1.32.29,2.66.52,3.96.9.96.29,1.46,1.02,1.02,2.05-4.72,11.02-8.02,22.55-12,33.83-9.95,28.17-19.79,56.37-29.67,84.56-1.56,4.45-3.28,8.84-4.64,13.35-1.58,5.27-4.04,10.2-5.7,15.44-1.54,4.86-3.39,9.61-5.09,14.42-1.81,5.11-3.6,10.22-5.39,15.33-1.66,4.74-3.51,9.42-4.95,14.22-1.53,5.12-3.66,10.01-5.35,15.06-1.58,4.75-3.28,9.47-4.94,14.2-1.69,4.81-3.41,9.6-5.1,14.41-1.8,5.1-3.7,10.17-5.31,15.33-.69,2.21-1.6,4.29-2.52,6.39-1.46,3.34-4,5.45-7.08,7.18-4.56,2.56-9.61,3.8-14.43,5.68-1.33.52-2.62,1.16-3.96,1.67-1.18.45-2.46.68-3.6,1.22-4.47,2.11-8.9,4.31-13.34,6.47-2.58,1.26-5.24,2.37-7.72,3.79-5.55,3.17-10.94,6.57-15.89,10.67-2.62,2.17-5.66,3.84-8.44,5.83-3.38,2.42-6.73,4.88-10,7.44-6.48,5.07-12.9,10.22-19.33,15.36-1.18.95-2.27,2.02-3.37,3.06-.67.63-1.33,1.16-2.53.61-.61-3.24.43-6.63-.02-10.27-.45.31-.72.45-.92.65-7.81,7.45-15.74,14.79-22.49,23.26-.05.06-.1.13-.15.19-7.13,9.33-14.24,18.68-21.41,27.97-1.33,1.72-1.74,3.19-.91,5.43,1.42,3.86,2.17,7.96,3.38,11.91,2.47,8.07,5.07,16.09,7.6,24.14,1.2,3.8,2.39,7.6,3.54,11.41,1.26,4.18,2.7,8.33,3.62,12.6.89,4.11,1.26,8.35,1.77,12.54.52,4.27.96,8.55,1.37,12.83.15,1.59.12,3.19.17,4.79h-.96c-.21-2.14-.39-4.28-.64-6.42-.39-3.31-1.04-6.6-1.2-9.91-.34-6.98-1.47-13.82-3.51-20.48-5.35-17.48-10.8-34.94-16.22-52.4-.2-.65-.46-1.29-.81-2.27-.69.84-1.21,1.41-1.66,2.03-4.72,6.64-9.39,13.32-14.17,19.93-3.69,5.11-7.15,10.47-11.35,15.14-7.64,8.49-15.65,16.65-23.7,24.76-11.85,11.94-25.2,21.86-40.42,29.16-.2.1-.34.31-.51.47h-2.4Zm209.21-286.8c.06.18.11.35.17.53,1.18,0,2.36-.05,3.53.02,1.11.06,2.25.12,3.31.42,2.57.72,3.94,2.71,3.81,5.39-.03.71-.15,1.44-.35,2.12-1.11,3.92-2.2,7.84-3.41,11.73-.95,3.04-2.67,5.61-5.23,7.58-.74.57-1.42,1.23-2.33,2.04,2.02.85,3.78,1.55,5.5,2.32,3.15,1.42,6.12,3.12,8.51,5.69,1.11,1.2,1.86,2.55,2.24,4.16.93,3.95-.32,7.03-3.41,9.54-3.22,2.62-6.39,5.31-9.57,7.99-.64.54-1.24,1.15-2.05,1.91,1.06.34,1.84.48,2.52.82,1.78.88,3.7,1.61,5.24,2.82,3.21,2.53,5.22,5.79,4.95,10.11-.16,2.53-1.37,4.57-2.88,6.46-1.75,2.18-3.6,4.28-5.38,6.44-5.4,6.58-11.29,12.63-18.45,17.33-2.07,1.36-4.06,2.84-6.09,4.26-6.28,4.41-12.46,8.95-18.87,13.16-2.77,1.82-5.89,3.31-9.06,4.27-5.85,1.77-10.98,4.69-15.84,8.29-1.91,1.42-3.41,2.85-2.92,5.47.07.37-.13.79-.13,1.19-.02,1.86,0,3.73,0,6.01.97-.74,1.54-1.15,2.08-1.6,2.02-1.69,4.02-3.42,6.06-5.09,11.8-9.7,24.11-18.73,36.55-27.57,13.37-9.5,27.71-17.12,43.34-22.26,4.24-1.4,8.36-3.18,12.48-4.92,3.46-1.46,5.97-3.94,7.3-7.52.83-2.25,1.76-4.46,2.56-6.72,9.12-25.92,18.21-51.86,27.33-77.78,7.11-20.19,14.29-40.37,21.4-60.56,7.45-21.17,14.41-42.52,22.31-63.54,4.92-13.08,9.37-26.34,14.01-39.53.92-2.61,1.71-5.26,2.63-8.12-3.15-.51-6.1-1.13-9.1-1.45-10.32-1.09-20.66-2.11-30.99-3.08-12-1.13-24.01-2.22-36.02-3.27-4.85-.42-9.71-.73-14.58-1.03-3.59-.23-6.84.8-9.54,3.16-1.61,1.41-3.09,3.02-4.38,4.73-3.29,4.36-5.87,9.16-8.05,14.14-3.75,8.56-7.41,17.16-10.9,25.83-3.97,9.86-7.74,19.79-11.56,29.71-7.23,18.79-14.51,37.6-20.09,56.94-4.76,16.49-8.44,33.28-12.59,49.95-.06.24.05.52.12,1.13,6.27-3.96,12.34-7.66,18.25-11.58,3.53-2.34,6.81-5.03,10.22-7.55,3.7-2.75,9.18-1.81,12,.11,1.69,1.15,2.69,2.68,2.72,4.79.06,4.08-1.05,7.72-3.88,10.76-1.19,1.27-2.33,2.59-3.49,3.88Zm-173.38-114.06c1.89.3,3.25-.43,4.59-1.03,6.2-2.77,11.65-6.64,16.4-11.48,2.14-2.18,3.9-4.64,5.15-7.46,3.29-7.39,6.14-14.91,7.51-22.94,1.1-6.46.77-12.76-1.9-18.79-1.52-3.43-3.34-6.73-5.05-10.07-1.04-2.05-2.53-3.6-4.67-4.62-7.66-3.65-14.82-8.18-21.92-12.81-4.88-3.19-9.86-6.25-14.88-9.22-10.69-6.33-22.1-11.15-33.62-15.73C116.95,3.11,102.3.43,86.91,1.5c-9.43.66-18.76,1.8-27.99,3.74-4.38.92-8.77,1.84-12.66,4.25-6.36,3.94-11.71,8.87-15.25,15.57-.93,1.77-1.86,3.54-2.74,5.33-3.99,8.23-7.32,16.7-8.58,25.82-.54,3.87-.88,7.78-1.13,11.68-.35,5.51-.5,11.05.91,16.45,1.59,6.13,3.76,12.06,6.96,17.55,3.18,5.45,6.38,10.9,9.65,16.3,5.4,8.95,11.69,17.18,19.81,23.88,2.32,1.91,4.58,3.88,6.87,5.82.16-.09.32-.17.48-.26-.07-.84-.15-1.67-.21-2.51-.14-1.99-.31-3.98-.38-5.97-.11-3.1,1.14-5.58,3.54-7.51.4-.32.78-.67,1.45-1.24-1.68,0-2.95-.04-4.21.01-1.15.05-2.35.58-3.4-.4.69-.35,1.38-.51,2.07-.55,4.07-.18,8.14-.43,12.21-.47,3.27-.03,6.61-.16,9.8.41,5.33.95,10.59,2.38,15.85,3.69,5.8,1.45,11.58,2.99,17.37,4.48.69-.77,1.41-1.23,2.2-1.37,8.36-1.48,16.49-3.83,24.59-6.31,6.73-2.06,13.29-4.58,19.6-7.73,5.42-2.71,9.94-6.39,13.02-11.67,7.18-12.3,11.9-25.42,13.05-39.71.06-.71-.02-1.46,1.21-1.82.46.83,1.09,1.64,1.38,2.56,1.96,6.17,2.94,12.54,1.93,18.93-1.78,11.34-6.34,21.55-13.46,30.6-.43.54-.78,1.14-1.3,1.89Zm-38.87,290.33c-1.39-2.41-2.48-4.64-3.88-6.66-1.05-1.52-1.71-3.08-1.68-4.88.03-2.39.04-4.8.33-7.17.85-7.05.6-7.97-4.08-13.18-3.15-3.5-6.33-6.99-9.35-10.61-1.37-1.64-2.68-3.45-3.49-5.4-1.15-2.77-2.64-5.29-4.41-7.65-1.91-2.56-3.8-5.16-5.94-7.52-3.09-3.41-5.01-7.37-6.26-11.72-.42-1.46-.85-2.92-1.34-4.35-.26-.74-.56-1.52-1.03-2.13-6.89-8.93-15.15-16.21-25.49-20.93-5.97-2.73-12.27-4.27-18.83-4-8.77.37-17.55.95-26.28,1.82-6.1.6-12.16,1.76-18.2,2.82-2.71.47-5.1,1.77-7.11,3.8.09.5.16.96.26,1.42,3.19,14.76,6.9,29.4,11.46,43.79,7.35,23.22,14.99,46.35,22.5,69.52,2.29,7.06,4.57,14.13,6.85,21.2.88,2.72,1.74,5.44,2.67,8.37,1.03-.33,1.86-.56,2.66-.86,7.76-2.95,15.54-5.86,23.27-8.9,8.77-3.46,17.48-7.11,25.63-11.88,12.42-7.26,24.73-14.69,37.08-22.06,1.43-.85,2.85-1.73,4.66-2.82Zm-41.96-84.05c-1.11-5.56-2.21-11.04-5.33-15.79-1.98-3-3.91-6.05-6.03-8.94-8.52-11.6-17.13-23.12-25.64-34.72-4.44-6.06-8.71-12.25-13.87-17.75-2.53-2.69-5.22-5.18-8.77-6.52-.23-.09-.38-.4-.74-.8,1.67-.29,2.72.5,3.77,1.13,2.98,1.8,5.49,4.18,7.65,6.85,4.06,5.04,8.01,10.16,11.88,15.34,8.57,11.46,17.05,22.98,25.58,34.47,5.65,7.62,10.85,15.46,12.63,25.02.06.31.13.63.22.93,1.42,4.58,2.78,9.17,4.28,13.72,1.33,4.05,4.3,6.96,7.12,10.02.13-.68.14-1.3.01-1.89-3.59-16.72-8.93-32.82-17.05-47.93-5.97-11.12-11.86-22.29-17.77-33.45-.3-.57-.52-1.19-.78-1.79.19-.11.39-.22.58-.33.4.62.84,1.22,1.19,1.87,1.59,2.87,3.2,5.72,4.72,8.62,5.52,10.55,11.17,21.04,16.48,31.69,6.81,13.68,10.99,28.27,14.05,43.19.41,2.01,1.11,3.74,2.32,5.4,1.4,1.93,2.74,3.97,3.68,6.15,1.07,2.46,2.36,4.71,4.1,6.71,2.99,3.44,6.03,6.82,9.07,10.22,2.43,2.73,5.28,5.23,5.03,9.53.65-.86,1.06-1.68,1.37-2.55,4.54-12.71,9.12-25.41,13.59-38.15,6.51-18.53,9-37.72,8.93-57.26-.04-10.87-.48-21.73-.75-32.6-.15-5.99-.33-11.98-.52-17.97-.02-.54-.17-1.08-.33-2.09-1.85,4.6-3.33,8.75-5.18,12.72-1.62,3.46-3.67,6.71-5.52,10.06-.53.96-1.22,1.88-1.56,2.9-1.53,4.63-2.95,9.29-4.42,13.94-6.78,21.4-13.56,42.8-20.35,64.19-.12.37-.47.66-.72.99-.28-.93-.18-1.69.03-2.42,1.34-4.52,2.64-9.05,4.07-13.54,6.4-20.01,12.86-40,19.26-60.01.32-1.01.96-2,.68-3.19-2.02.64-3.89,1.35-5.81,1.83-7.31,1.81-14.71,1.79-22.15,1-7.95-.84-15.26-3.42-21.77-8.08-3.51-2.51-7.01-5.06-10.27-7.88-9.97-8.65-19.42-17.84-28.53-27.39-2.53-2.65-4.97-5.38-7.53-8.15-.58.41-1.1.76-1.59,1.14-4.91,3.71-9.88,7.34-14.69,11.17-3.87,3.08-7.77,6.18-11.26,9.67-3.03,3.03-5.85,6.39-8.12,10.02-2.31,3.7-4.02,7.82-5.61,11.91-1.24,3.18-1.92,6.58-2.74,9.91-.15.61,0,1.5.36,2,3.71,5,7.35,10.04,12.63,13.65,5.43,3.71,11.06,7.03,16.87,10.06.71.37,1.64.55,2.03,1.83-.74-.23-1.26-.32-1.72-.55-1.43-.71-2.85-1.45-4.25-2.21-9.67-5.27-19.01-10.96-25.18-20.52-.27-.41-.71-.72-1.18-1.19-.19.52-.33.8-.4,1.11-1.63,7.74-3.11,15.51-3.35,23.45-.16,5.37.27,10.69,1.91,15.98.41-.18.8-.28,1.1-.5,2.44-1.79,5.18-2.85,8.14-3.32,4.89-.79,9.76-1.73,14.68-2.18,8.66-.8,17.35-1.3,26.04-1.9,6.57-.45,12.91.66,19,3.1,9.71,3.88,17.62,10.26,24.56,17.95.63.69,1.25,1.39,1.88,2.09Zm122.29,6.45c3.7,0,7.13-.06,10.55.03,1.57.04,2.56-.4,3.56-1.76,8-10.81,14.88-22.35,22.25-33.58.16-.25.21-.58.32-.89-.48-.61-.92-1.18-1.37-1.73-5.55-6.71-11.2-13.35-16.63-20.16-4.97-6.25-9.92-12.54-14.47-19.09-5.35-7.7-9.42-16.14-13.24-24.69-2.25-5.03-4.48-10.08-6.75-15.1-.88-1.95-2.12-3.64-4-5.28-.41,1.17-.69,1.98-.97,2.8-2.89,8.38-5.76,16.78-8.7,25.14-.5,1.41-1.1,2.87-1.99,4.05-2.02,2.68-4.24,5.2-6.4,7.77-.3.36-.76.59-1.15.88-.09-.66.08-1.06.35-1.38,1.77-2.16,3.64-4.25,5.32-6.48,1-1.32,1.97-2.75,2.52-4.29,3.34-9.41,6.55-18.87,9.79-28.31.13-.36.18-.76.3-1.33-3.99-3.53-7.99-7.06-11.93-10.54-6.35,3.42-13.11,5.06-19.68,6.95-.05.34-.12.51-.09.65.38,1.55.76,3.1,1.17,4.64,4.42,16.93,9.07,33.81,10.55,51.33.79,9.31,1.64,18.63,1.93,27.96.28,9.18-.02,18.37-.24,27.56-.15,5.91-.96,11.78-2.2,17.57-2.92,13.69-6.87,27.11-11.11,40.43-5.78,18.11-11.79,36.15-17.7,54.22-.26.79-.48,1.6-.82,2.74.94-.34,1.49-.44,1.94-.71,2.95-1.75,5.99-3.38,8.8-5.33,5.63-3.91,10.01-9.16,14.44-14.3,15.3-17.77,29.54-36.33,42.13-56.14,1.13-1.78,1.65-3.52,1.69-5.57.11-5.19.27-10.39.52-15.57.12-2.55.27-5.13.82-7.61.87-3.91.55-7.78.21-11.68-.31-3.58-.56-7.17-.8-10.75-.03-.52.19-1.06.29-1.6.49.35.62.63.64.92.27,3.1.56,6.2.78,9.3.36,4.92,1.16,9.85-.25,14.76-.34,1.2-.28,2.52-.44,4.16Zm-68.04-125.05c1.54,2.56,2.96,4.77,4.22,7.06,1.71,3.1,3.12,6.33,3.27,9.93.17,4.07.21,8.14.32,12.22.18,7.11.36,14.22.53,21.33.07,2.88.1,5.75.2,8.63.47,12.46.78,24.92-.03,37.38-.84,12.97-3.11,25.67-6.98,38.08-5.1,16.33-10.94,32.39-17.29,48.27-1.04,2.6-1.28,5.28-1.11,7.98.08,1.31.37,2.82,1.11,3.84,2.61,3.61,4.28,7.67,5.92,11.74,1.67,4.15,3.22,8.35,4.85,12.51.45,1.16,1.04,2.26,1.77,3.84,1.37-4.04,2.58-7.59,3.78-11.14,7.57-22.4,14.99-44.85,21.19-67.68,1.97-7.23,3.75-14.55,5.01-21.93,1.76-10.33,1.78-20.82,1.64-31.29-.13-10.15-.56-20.28-1.55-30.39-.63-6.51-1.27-13.04-2.36-19.49-2.36-13.95-6.09-27.6-9.75-41.26-.12-.44-.37-.85-.6-1.37-4.66.57-9.23,1.13-14.15,1.73Zm-57.57,27.7c-.05.16-.11.32-.16.48,1.33.95,2.66,1.92,4,2.86,12.13,8.53,25.54,9.75,39.65,6.94,2.9-.58,5.15-2.15,6.7-4.65,2.53-4.07,4.1-8.55,4.34-13.31.25-5.02.06-10.07-.02-15.1-.03-1.73-.28-3.46-.4-4.91-4.2-1.87-8.18-3.54-12.06-5.4-4.13-1.98-7.95-4.44-11.23-7.68-1.15-1.14-2.15-2.33-1.09-4.19-10.87-4.82-18.65-13.34-27.12-20.95-4.79,3.25-9.74,1.85-14.73.85-.37,2.87-.64,5.64-1.09,8.38-.79,4.76-1.89,9.43-5.01,13.31-1.6,1.99-3.2,3.99-4.89,5.91-2.48,2.81-5.05,5.54-7.73,8.48.92,1.22,1.79,2.44,2.74,3.6,6.51,7.95,13.93,14.95,21.91,21.42,2.54,2.06,4.95,3.73,8.36,2.71,8.95.12,17.9.23,26.85.36.55,0,1.09.23,1.64.35-.02.25-.05.51-.07.77-5.04-.17-10.08-.46-15.11-.43-5.15.03-10.31-.21-15.45.21Zm54.34-39.76c1.72-2.72,1.91-4.08,1.27-6.62-.41-1.62-.72-3.27-1.02-4.92-.99-5.5-1.98-11-2.93-16.5-.24-1.41-.86-2.14-2.37-2.51-5.14-1.26-10-3.29-14.65-5.83-13.4-7.32-26.57-15-39.24-23.52-1.56-1.05-3.19-2.01-4.79-3.02l-.18.24c.4.56.8,1.12,1.21,1.68-.12.14-.24.28-.36.42-.67-.47-1.35-.92-2.02-1.4-2.93-2.08-5.85-4.21-9.3-5.39-6.21-2.12-11.97,1.96-11.76,8.47.19,5.84,1.1,11.59,2.66,17.24.68,2.48,1.95,4.53,4.04,6.05,3.48,2.54,6.95,5.11,10.46,7.6,4.12,2.93,8.81,3.14,13.56,2.47,2.8-.4,4-2.33,3.74-5.2-.12-1.35-.26-2.7-.34-4.05-.02-.39.16-.8.38-1.75,1.05,1.9.78,3.44.9,4.89.13,1.56.03,3.15.03,5.17,3.3,3.02,6.89,6.43,10.63,9.67,2.65,2.29,5.38,4.55,8.31,6.46,3.2,2.09,6.53,4.15,10.07,5.49,3.47,1.31,7.27,1.84,10.96,2.44,3.6.59,7.33.52,10.73,2.43ZM47.86,460.84c1.09,4.57,2.06,8.92,3.2,13.22.36,1.36,1.03,2.7,1.81,3.88,1.74,2.62,4.23,3.18,7.09,1.91,3.21-1.42,6.42-2.86,9.7-4.09,10.7-3.99,21.46-7.84,32.15-11.85,5.31-1.99,10.53-4.24,15.32-7.34,3.89-2.52,7.81-4.99,11.68-7.54,5.01-3.29,10.03-6.56,14.94-9.98,1.48-1.03,2.7-2.48,3.92-3.83.71-.79.92-1.71.44-2.87-2.16-5.24-4.2-10.54-6.3-15.8-.28-.71-.64-1.38-.99-2.12-.72.4-1.22.66-1.7.94-7.6,4.57-15.17,9.2-22.82,13.7-7.5,4.42-14.92,9.02-22.66,13-13.45,6.91-27.64,12.12-41.82,17.32-1.33.49-2.66.97-3.98,1.45Zm103.7-250.25c-.24.05-.48.1-.72.14,0,.68-.01,1.35,0,2.03.12,5.27.33,10.54.35,15.81.01,5.48-1.67,10.54-4.33,15.27-1.82,3.24-4.63,5.18-8.29,5.96-6.24,1.32-12.52,1.48-18.81.74-6.16-.72-12.11-2.28-17.4-5.67-13.97-8.94-26.37-19.66-36.83-32.58-3.02-3.73-2.93-4.81.65-7.92.83-.72,1.69-1.4,2.53-2.1-3.57,1.34-16.46,11.56-18,13.88,1.34,1.53,2.63,3.17,4.08,4.64,7.55,7.6,15.06,15.23,22.74,22.69,5.56,5.4,11.41,10.5,17.8,14.92,3.83,2.65,7.81,5.01,12.27,6.43,10.11,3.21,20.38,3.42,30.78,1.62,5.97-1.04,10.34-3.98,12.67-9.7,2.29-5.62,4.62-11.22,6.95-16.82,1.28-3.07,1.6-6.25,1.62-9.58.04-7.79-3.93-13.77-8.05-19.74Zm212.38-122.96c.14.05.27.09.41.14.5-1.05,1.03-2.09,1.49-3.16,3.08-7.11,6.16-14.23,10.04-20.96,1.85-3.2,3.91-6.22,6.51-8.86,3.31-3.37,7.26-5.18,12.04-4.85,6.21.42,12.43.85,18.63,1.39,10.82.94,21.64,1.93,32.45,2.95,7,.67,13.98,1.45,20.97,2.16,3.32.34,6.64.61,9.93.91,1.04-1.42,1.17-2.93,1.31-4.43.08-.91-.27-1.55-1.2-1.8-.54-.15-1.07-.32-1.61-.48-9.04-2.68-18.08-5.35-27.11-8.03-20.98-6.24-41.96-12.49-62.94-18.71-1.13-.34-2.34-.55-3.52-.56-2.53-.02-3.85,1.01-4.57,3.4-.34,1.15-.62,2.32-.87,3.49-3.35,15.86-6.7,31.73-10.03,47.6-.68,3.26-1.3,6.54-1.94,9.8Zm-172.97-16.5c-.24,2.06-.35,3.57-.6,5.06-1.56,9.36-4.64,18.24-8.39,26.93-4.63,10.73-12.2,18.21-23.19,22.58-12.15,4.83-24.61,8.45-37.34,11.24-.83.18-1.66.39-2.49.59,16.29,4.88,32.62,9.12,49.45,10.61,1.08-1.23,2.01-2.56,3.19-3.59,4.41-3.81,8.89-7.55,13.4-11.25,1.04-.85,2.25-1.53,3.46-2.13,1.51-.74,2.31-.48,3.3.84.27.35.47.75.72,1.16,1.9-1.03,3.18-2.29,3.55-4.38.39-2.19,1.53-3.99,3.1-5.57,1.35-1.36,2.61-2.81,3.92-4.22,2.16-2.34,4.33-4.69,6.69-7.24-2.02-1.22-3.9-2.36-5.86-3.54-.44.49-.81.9-1.18,1.31-5.25,5.85-11.45,10.41-18.66,13.57-.87.38-1.79.78-2.72.87-.79.08-1.89.02-2.38-.46-.75-.74.02-1.61.56-2.31.88-1.14,1.84-2.22,2.65-3.4,4.66-6.79,7.87-14.22,10.13-22.13,2.21-7.73,1.47-15.34-.56-22.94-.1-.37-.32-.71-.74-1.61Zm-22.77,78.33c-.85-.17-1.6-.34-2.36-.46-5.92-.91-11.93-1.43-17.74-2.79-14.54-3.41-28.99-7.2-43.48-10.83-6.43-1.61-12.84-3.29-19.3-4.8-2.51-.59-5.11-.59-7.71-.08,5.22,1.77,9.77,4.68,14.3,7.64,4.35,2.84,8.65,5.77,13.13,8.39,9.52,5.56,19.11,11,28.75,16.37,3.77,2.1,7.89,3.39,12.1,4.29.11-.26.21-.4.23-.55.32-3.13.61-3.38,3.69-3.93,2.11-.38,4.23-.81,6.27-1.46,2.51-.8,4.97-1.77,7.39-2.82,4.38-1.9,3.99-.71,4.35-5.91.07-.94.22-1.87.37-3.04Zm23.32-13.95c-.11-.86-.12-1.43-.25-1.97-.42-1.71-1.17-2.08-2.77-1.26-1.2.62-2.4,1.3-3.44,2.16-4.31,3.55-8.54,7.2-12.83,10.78-2.03,1.7-2.96,3.9-3.22,6.45-.24,2.3-.47,4.6-.71,6.9-.28,2.65,1.74,4.48,4.34,3.74,1.2-.34,2.38-.98,3.38-1.73,3.67-2.75,7-5.9,9.15-9.98,2.08-3.94,3.82-8.06,5.63-12.13.44-1,.54-2.15.73-2.95Zm4.77,6c3.37-1.64,5.15-4.04,6.55-6.78,1.45-2.84,2.72-5.79,4.3-8.55,2.22-3.89,3.32-8.1,4.11-12.43.07-.39-.08-.83-.17-1.53-.63.48-1.03.72-1.33,1.04-3.55,3.78-7.1,7.57-10.61,11.39-.53.58-1.02,1.27-1.29,1.99-1.46,3.83-2.41,7.78-2.3,11.9.02.88.43,1.76.74,2.96Zm24.33,212.54c4.18-5.69,8.33-11.25,12.25-17.23h-11.87c-.5,5.83-.69,11.49-.38,17.23Zm112.04-67.86c.17.16.34.32.51.47.6-.14,1.26-.16,1.79-.43,2.4-1.24,4.78-2.54,7.15-3.84.41-.23.79-.55,1.12-.89.9-.96.7-2.18-.42-2.76-1.13-.59-3.05-.41-3.98.47-1.57,1.47-3.13,2.95-4.6,4.52-.65.7-1.05,1.64-1.56,2.47Zm7.19,27.43c2.37-.54,4.02-1.68,5.46-3.16.74-.76.67-1.57-.03-2.32-.37-.39-.81-.72-1.27-1.13-2.27,1.61-3.68,3.63-4.15,6.61Zm-5.96-60.57c-3.33,1.49-12.34,8.9-13.63,11.3,5.33-3.3,9.47-7.31,13.63-11.3Zm-139.13-120.45c-.98,1.05-2,1.65-2.03,2.28-.07,1.55.23,3.13.56,4.67.31,1.47,1.21,2.33,3.39,3.47-3.23-3.13-1.82-6.57-1.92-10.43Zm-5.52,12.71c3.9-.66,4.27-1.21,3.31-4.45-.14-.48-.35-.94-.7-1.85-.95,2.3-1.72,4.16-2.6,6.3Z"/>
  <path class="cls-1" d="m187.09,200.43c-1.96.24-3.91.58-5.88.72-8.81.61-17.49-.46-26.1-2.24-.55-.11-1.08-.37-1.62-.56.04-.18.08-.37.12-.55.56.04,1.12.04,1.67.12,4.57.68,9.11,1.73,13.7,1.99,5.47.3,10.98-.07,16.47-.15.66,0,1.5-.41,1.56.78,0,0,.08-.1.08-.1Z"/>
  <path class="cls-1" d="m17.18,325.27c1.24.24,1.73,1.12,2.31,1.78,3.51,3.99,6.43,8.4,8.5,13.27,2.37,5.58,4.48,11.27,6.54,16.98,5.02,13.9,9.95,27.82,14.87,41.75.28.8,1.03,1.63.2,3-.43-.95-.79-1.61-1.04-2.3-5.7-16.11-11.37-32.23-17.1-48.33-3.01-8.46-6.62-16.63-12.51-23.58-.61-.72-1.63-1.22-1.77-2.57Z"/>
  <path class="cls-1" d="m74.68,347.45c-.89-.16-1.84-.16-2.65-.49-2.43-1-4.93-1.92-7.2-3.23-5.73-3.33-11.3-6.95-17.03-10.28-8.43-4.89-16.95-9.63-25.42-14.44-.52-.3-1-.67-1.75-1.18,1.27-.58,1.93.14,2.59.51,7.11,3.98,14.26,7.9,21.29,12.01,6.76,3.95,13.38,8.14,20.11,12.13,3.02,1.79,6.16,3.39,9.72,3.93.19.03.34.29.5.45-.05.2-.1.4-.15.6Z"/>
  <path class="cls-1" d="m32.11,397.92c.38.44.81.86,1.14,1.33,1.92,2.72,4.49,4.67,7.66,5.44,4.89,1.19,9.25,3.5,13.58,5.89,6.01,3.32,11.93,6.82,17.94,10.15,2.02,1.12,4.19,1.94,6.29,2.92.25.12.46.32.92.65-1.35.61-2.28.06-3.13-.37-2.85-1.43-5.69-2.9-8.49-4.45-6.22-3.45-12.35-7.06-18.62-10.39-2.51-1.33-5.27-2.25-8-3.09-3.82-1.17-6.91-3.25-9.19-6.53-.25-.36-.41-.8-.61-1.2.17-.12.33-.24.5-.36Z"/>
  <path class="cls-1" d="m53.68,334.3c4.6-1.35,44.51,9.18,49.28,12.61-.94.59-1.72.02-2.47-.2-8.25-2.5-16.5-4.99-24.73-7.54-6.65-2.06-13.43-3.47-20.32-4.44-.6-.08-1.18-.28-1.77-.43Z"/>
  <path class="cls-1" d="m130.54,383.15c-.92,1.98-7.26,8.34-8.96,9.2.47-1.41,5.92-7.08,8.96-9.2Z"/>
  <path class="cls-1" d="m16.75,256.55c1.61-.05,2.05.82,2.62,1.37,6.3,6.03,12.83,11.81,20.01,16.76,4.72,3.26,9.81,5.99,14.72,8.97,8.88,5.39,17.75,10.79,26.63,16.19,1.47.9,2.94,1.79,4.26,3.1-.4-.03-.87.06-1.19-.12-1.54-.85-3.06-1.74-4.54-2.69-10.37-6.64-20.88-13.02-31.69-18.92-7.75-4.23-14.56-9.83-21.2-15.61-2.65-2.31-5.22-4.71-7.8-7.09-.54-.5-1.01-1.08-1.83-1.95Z"/>
  <path class="cls-1" d="m189.58,271.44c.3,0,.61-.07.89,0,8.3,2.32,16.6,4.65,24.9,6.97,4.59,1.28,8.44,3.74,11.67,7.21.39.42.69.94.72,1.73-.4-.27-.89-.48-1.2-.83-3.18-3.56-7.08-5.89-11.68-7.15-7.39-2.01-14.77-4.07-22.15-6.15-1.11-.31-2.18-.79-3.27-1.19.04-.2.08-.41.11-.61Z"/>
  <path class="cls-1" d="m154.48,190.14c5.1-1.15,10.23-2.17,15.29-3.48,5.1-1.32,10.23-2.62,15.14-4.47,4.86-1.83,9.46-4.34,14.38-6.28-.22.27-.39.63-.67.8-7.79,4.5-15.95,8.12-24.76,10.11-6.41,1.45-12.77,3.2-19.29,4.09-.03-.25-.07-.5-.1-.76Z"/>
  <path class="cls-1" d="m158.46,208.75c-.66-.41-1.29-.88-1.98-1.22-4.36-2.15-8.75-4.24-13.09-6.42-.75-.38-1.82-.57-2.06-2.1,6,2.93,11.72,5.74,17.48,8.55-.15.49-.27.86-.39,1.23,0,0,.04-.05.04-.05Z"/>
</svg>