<?xml version="1.0" encoding="UTF-8"?>
<svg id="SKHLMC" xmlns="http://www.w3.org/2000/svg" viewBox="0 0 288.26 381.24">
  <defs>
    <style>
      .cls-1 {
        fill: #010101;
        stroke-width: 0px;
      }
    </style>
  </defs>
  <path class="cls-1" d="m111.71,291.17c.14-.26.25-.53.43-.76,1.98-2.58,3.97-5.15,5.95-7.72.18-.23.34-.47.52-.72-.1-.03-.16-.07-.18-.05-2.14,1.42-4.51,2.33-6.91,3.16-3.56,1.23-7.2,2.2-10.88,3.05-.16.04-.32.06-.48.07-.04,0-.08-.06-.17-.12.21-.25.52-.26.79-.32,4.17-.99,8.31-2.11,12.33-3.61,2.29-.86,4.45-1.93,6.4-3.43,3.12-2.39,6.29-4.73,9.43-7.09.15-.11.29-.24.5-.42-.28-.19-.51-.36-.76-.52-2.79-1.83-5.58-3.64-8.35-5.49-.43-.29-.78-.33-1.28-.16-2.47.87-5.02.95-7.6.58-2.68-.38-5.16-1.37-7.62-2.45-4.51-1.97-8.92-4.12-13.25-6.46-.25-.13-.48-.29-.67-.52.73.07,1.28.51,1.89.81.61.3,1.21.63,1.82.94.63.33,1.26.64,1.9.96.63.32,1.27.63,1.91.94.61.3,1.23.6,1.85.89.64.3,1.28.59,2.1.96-.15-.3-.21-.47-.3-.61-1.55-2.25-3.18-4.44-4.97-6.51-1.37-1.59-2.66-3.26-3.85-4.99-2.88-4.18-5.69-8.42-8.52-12.64-.12-.18-.2-.39-.3-.59.06-.04.13-.08.19-.12.18.25.36.51.54.76,2.64,3.92,5.25,7.86,7.91,11.77,1.52,2.23,3.18,4.36,4.95,6.42,1.68,1.96,3.14,4.13,4.67,6.22.3.41.62.72,1.09.92,2.33,1,4.63,2.08,7.13,2.64,2.81.62,5.62.73,8.43-.06.28-.08.56-.18,1.03-.33-.37-.26-.6-.43-.83-.59-3.78-2.61-7.57-5.2-11.32-7.83-2.41-1.69-4.46-3.78-6.4-5.96-1.96-2.21-3.08-4.82-3.5-7.73-.38-2.62-.68-5.25-1-7.87-.12-1.03-.23-2.06-.33-3.09-.21-2.02-.07-4.03.05-6.05.02-.27.05-.55.14-.8,1.15-3.5,2.27-7.01,3.48-10.49.66-1.88,1.54-3.68,2.86-5.22.3-.35.62-.69.97-1.07-.94-.84-1.85-1.65-2.76-2.47-2.81-2.55-5.62-5.11-8.19-7.9-.93-1.01-1.78-2.07-2.44-3.28-.64-1.17-.98-2.43-1-3.76-.04-2.32-.07-4.64-.1-6.96,0-.23-.03-.46-.06-.9-.89.8-1.69,1.44-2.4,2.18-1.49,1.53-2.81,3.2-3.95,5.01-.32.51-.62,1.04-.85,1.59-1.13,2.69-2.1,5.45-2.87,8.27-.44,1.62-.58,3.28-.64,4.94-.12,3.63-.22,7.26-.35,10.89-.05,1.41-.26,2.82-.21,4.23.06,1.49.19,3.01.56,4.45,1.27,4.89,2.57,9.77,4.02,14.6,1.23,4.1,2.56,8.19,4.09,12.19,2.32,6.07,4.78,12.08,7.63,17.93.29.59.58,1.17.89,1.75.36.67.73,1.34,1.1,2,1.45.96,2.7,2.24,4.43,2.73,1.2.34,2.28.92,3.28,1.64.91.65,1.79,1.35,2.67,2.04.16.13.29.3.36.57-.14-.07-.3-.13-.43-.23-.98-.74-1.94-1.51-2.94-2.22-.91-.65-1.91-1.15-3-1.48-1.19-.36-2.22-1.04-3.2-1.79-.23-.18-.46-.35-.79-.43.28.58.56,1.16.85,1.74.7,1.38,1.13,2.83,1.3,4.37.06.57-.09,1.01-.52,1.38-.04.03-.08.08-.12.11-1,.6-1.25,1.57-1.39,2.64-.18,1.45-.09,2.88.09,4.32.05.38.06.76.09,1.14h-.49c-.08-1.31-.19-2.61-.24-3.92-.02-.73,0-1.48.11-2.2.14-.87.6-1.59,1.33-2.09.68-.47.8-1.04.68-1.84-.23-1.43-.7-2.75-1.38-4-3.83-7.16-6.97-14.63-9.98-22.16-3.47-8.66-6.16-17.55-8.38-26.6-.61-2.48-1.05-4.97-1.09-7.52,0-.11-.03-.23,0-.33.25-1.07-.17-1.95-.72-2.83-1.46-2.37-2.1-5.02-2.58-7.72-.1-.55-.03-1.15.01-1.72.34-3.92.68-7.83,1.06-11.75.38-4.05.75-8.1,1.22-12.14.51-4.36,1.13-8.71,1.71-13.07.29-2.16.65-4.32,1.26-6.42.83-2.87,2.04-5.59,3.57-8.15,1.86-3.12,3.64-6.29,5.85-9.18.19-.25.26-.58.36-.89.13-.42.2-.85.35-1.26.22-.58.6-1.05,1.21-1.27.44-.16.57-.43.63-.91.48-3.89.52-7.79.57-11.7.01-1.01-.1-2.02-.12-3.03-.08-3.84.43-7.62,1.05-11.4.78-4.77,2.54-9.21,4.78-13.44,1.45-2.75,3.5-5.07,5.87-7.1.83-.71,1.66-1.42,2.5-2.12,1.26-1.04,2.7-1.75,4.24-2.25,2.99-.99,6.08-1.58,9.19-1.97,2.46-.31,4.92-.05,7.33.49,2.56.57,5.09,1.22,7.63,1.87,1.81.46,3.38,1.31,4.6,2.81.8.99,1.95,1.56,3.15,2,2.71,1.01,5.4,2.08,7.94,3.49,1,.55,2.08,1.01,2.97,1.7.78.61,1.7,1.05,2.34,1.84.28.35.73.56,1.07.87.26.23.48.5.71.76.81.87,1.65,1.72,2.43,2.62.32.36.52.83.79,1.24.31.45.59.89.76,1.44.37,1.27.92,2.49,1.34,3.75.17.51.11,1.08.26,1.6.48,1.71.32,3.44.19,5.17-.27,3.34-1.16,6.49-2.69,9.46-1,1.94-1.97,3.9-2.97,5.84-.68,1.31-1.39,2.6-2.08,3.9-.14.26-.24.54-.4.9.38,0,.67,0,.96,0,.38-.01.77-.05,1.15-.04,1.1.04,1.52.35,1.84,1.39.5,1.62.93,3.26,1.08,4.95,0,.07.04.14.09.31.56-1,.82-2.03,1.06-3.05.41-1.71.57-3.44.65-5.19.07-1.53.23-3.05.38-4.57.08-.74.35-1.43.88-1.99.44-.47.66-1.03.78-1.68.11-.6.41-1.16.65-1.83.88,0,1.69.01,2.51,0,1.28-.02,2.57-.05,3.85-.09,1.04-.03,1.31.23,1.29,1.28-.01.44-.04.88,0,1.31.03.25.13.55.3.73.36.36.77.69,1.2.96.18.11.48.09.7.03.63-.17,1.25-.39,1.87-.6.65-.21,1.28-.47,1.94-.64,1.6-.42,2.63.18,3.12,1.78.03.1.06.21.11.39h2.43c.68,0,1.36,0,2.05,0,.21,0,.48.02.63-.09.47-.35.99-.29,1.5-.21,1.08.16,2.14.44,3.12.93.25.12.57.19.71.39.45.66,1.13.69,1.8.77.73.09.9.23.9.99,0,.95-.08,1.91-.16,2.86-.18,2.2-.38,4.41-.57,6.61-.15,1.74-.27,3.48-.47,5.22-.13,1.13.09,2.05.9,2.92.66.71,1.2,1.56,1.66,2.42.47.89.64,1.79-.1,2.74-.85,1.08-1.96,1.79-3.03,2.59-.76.57-1.57,1.1-2.22,1.79-.61.64-1.08,1.43-1.55,2.19-.47.75-1.01,1.41-1.74,1.93-.56.41-.56.42-.31,1.08,1.58,4.09,3.16,8.19,4.76,12.28.36.91.85,1.76,1.19,2.67.37.98.64,2,.95,3,.39,1.22.78,2.43,1.17,3.66.8,2.5,1.44,5.03,1.73,7.64.12,1.08.29,2.14.44,3.22.01.11,0,.22,0,.33,0,.7-.03,1.41.02,2.11.03.43.09.83.06,1.27-.05.75.1,1.51.14,2.27.02.35-.07.71-.03,1.06.12,1.35.26,2.7.41,4.06.03.24.16.46.23.66-.48,1.47-1.57,2.42-2.74,3.38.04.19.06.41.12.61,1.7,5.4,2.89,10.92,3.93,16.47.29,1.56.47,3.13.66,4.7.25,2.08.42,4.18.71,6.25.23,1.62.49,3.24.93,4.81.21.74.31,1.51.6,2.23.27.68.38,1.41.63,2.08.37.99.53,2.03.79,3.04.73,2.81.8,6.87.32,9.37-.31,1.61-1.23,2.83-2.38,3.89-.48.44-1.05.78-1.6,1.14-.2.13-.44.23-.67.28-1.38.32-2.76.66-4.15.93-.77.15-1.57.15-2.34.26-2.06.29-4.11.29-6.19.08-2.74-.27-5.37-.98-8.01-1.69-.9-.24-1.22.05-1.09.96.18,1.29.32,2.58.5,3.87.04.29.15.56.24.84.03.1.11.21.08.3-.25.88.05,1.7.18,2.56.11.67.01,1.37.15,2.03.15.7.12,1.39.18,2.08.11,1.49.28,2.97.4,4.46.04.48-.03.98-.05,1.47h-.49c0-.24.03-.49.02-.73-.1-1.6-.17-3.21-.31-4.81-.18-2.06-.41-4.12-.63-6.18-.24-2.22-.51-4.44-.72-6.67-.05-.48-.27-.65-.68-.77-1.78-.51-3.56-1.03-5.35-1.54-.31-.09-.62-.18-.94-.27-.09.12-.17.2-.22.3-1.72,3.01-3.44,6.02-5.14,9.04-.14.25-.19.56-.19.85,0,1.31.07,2.62.03,3.93-.07,1.83-.21,3.64-.33,5.47-.03.46-.1.92-.15,1.38h-.33c0-.22-.01-.44.03-.65.55-3.14.47-6.31.46-9.48,0-.12-.02-.25-.06-.52-.22.28-.35.44-.47.6-1.27,1.68-2.49,3.39-3.82,5.01-.78.94-1.7,1.77-2.62,2.58-.95.85-2.02,1.02-3.17.32-.39-.24-.83-.42-1.22-.66-1.53-.95-3.08-1.88-4.58-2.88-3.89-2.59-7.75-5.21-11.63-7.82-.22-.15-.45-.27-.72-.43-.05.18-.08.28-.09.38-.5,2.85-.99,5.7-1.48,8.55-.28,1.67-.54,3.34-.8,5.01h-.33c.78-4.72,1.55-9.45,2.33-14.23-1.45-.95-2.9-1.89-4.38-2.85-.15.35-.27.59-.37.84-1.15,3-2.34,5.99-3.42,9.02-.85,2.38-1.57,4.81-2.35,7.22h-.33c.07-.29.12-.59.21-.87,1.25-3.61,2.5-7.21,3.75-10.82.1-.28.2-.56.29-.84-.07-.03-.14-.07-.2-.1-3.39,3.99-6.21,8.41-9.3,12.62h-.33c.1-.19.19-.39.32-.56,1.85-2.6,3.73-5.18,5.57-7.79,1.26-1.78,2.58-3.52,4.15-5.05.1-.09.21-.19.26-.31.48-1.18.96-2.36,1.44-3.58-.29-.18-.51-.32-.72-.45-.14.09-.23.14-.32.21-3.05,2.29-6.1,4.59-9.15,6.89-.26.19-.48.44-.68.7-2.09,2.69-4.17,5.39-6.25,8.09-.46.6-.89,1.23-1.34,1.85h-.34Zm38.05-4.85c1.45-1.69,2.86-3.29,4.24-4.91,2.12-2.5,4.18-5.04,5.85-7.88,3.49-5.91,6.62-12,9.56-18.2,1.72-3.63,2.94-7.39,3.37-11.41.27-2.52.61-5.04.9-7.56.12-1.05.17-2.12.26-3.21-.98-.58-1.89-1.18-2.86-1.67-.36-.18-.87-.25-1.25-.15-.76.2-1.35-.02-1.89-.47-.46-.38-.88-.82-1.31-1.24-.76-.74-1.51-1.5-2.28-2.23-.2-.19-.46-.32-.73-.51-.03.16-.05.21-.05.27.41,2.15.62,4.32.46,6.51-.21,2.96-.99,5.7-2.98,7.99-3.36,3.86-6.98,7.46-10.73,10.93-.15.14-.32.25-.6.46.1-.55.43-.72.67-.94,3.55-3.32,6.99-6.76,10.21-10.41,1.45-1.64,2.34-3.54,2.78-5.67.57-2.77.44-5.54-.04-8.3-.21-1.25-.23-1.3-1.51-1.32-1.07-.02-1.98-.37-2.77-1.04-.98-.83-1.93-1.7-2.89-2.54-.51-.45-1.1-.83-1.52-1.36-.6-.76-1.31-1.28-2.21-1.61-1.25-.44-2.23-1.24-2.93-2.38-.33-.54-.8-.95-1.39-1.21-.25.21-.46.38-.66.57-4.72,4.36-9.16,8.99-13.34,13.87-2.38,2.78-4.8,5.52-7.21,8.28-.14.16-.33.29-.49.43-.05-.06-.1-.12-.15-.18,6.92-7.92,13.6-16.06,21.59-23.14-.46-.27-.82-.46-1.15-.68-.75-.5-1.61-.9-2.2-1.55-1.1-1.22-2.41-2.13-3.78-2.99-1.32-.83-2.54-1.79-3.61-2.94-1.35-1.45-2.96-2.59-4.71-3.51-1.12-.59-2.29-1.08-3.57-1.13-1.16-.05-2.27-.32-3.38-.57-.56-.13-1.12-.26-1.68-.38-2.06-.46-4.06-.41-5.98.59-.8.42-1.65.73-2.46,1.12-3.14,1.53-6.29,3.04-9.42,4.61-2.07,1.04-3.59,2.65-4.63,4.71-.38.76-.79,1.51-1.07,2.3-1.04,2.93-1.99,5.89-3.05,8.82-.7,1.93-.92,3.91-.94,5.95-.02,2.06.19,4.09.42,6.12.29,2.6.6,5.2.98,7.79.43,2.96,1.59,5.61,3.61,7.85,1.87,2.07,3.83,4.06,6.12,5.67,3.79,2.64,7.56,5.3,11.4,7.87,9.34,6.23,18.71,12.42,28.07,18.62.95.63,1.91,1.26,2.95,1.95h0Zm-18.84-132.43c.07.01.14.03.21.04.1-.24.21-.47.31-.71.35-.86.65-1.74,1.06-2.57,1.02-2.02,2.08-4.02,3.16-6.02,1.92-3.59,3.87-7.16,5.79-10.75.77-1.45,1.4-2.96,1.73-4.58.7-3.43,1.07-6.9,1.32-10.39.13-1.77.15-3.55.26-5.32.11-1.83.11-3.65-.34-5.44-.04-.16-.06-.33-.06-.49-.02-.95.57-1.39,1.44-1,.49.22.94.55,1.36.89,1.6,1.28,2.47,3.03,3.07,4.94,1.6,5.11,2.11,10.36,1.98,15.68-.06,2.12-.27,4.25-.57,6.36-.87,6-2.12,11.93-3.65,17.8-1,3.85-2.15,7.67-3.23,11.51-.09.31-.17.63-.25.94l.18.06c.21-.41.46-.8.64-1.22,1.33-3.08,2.7-6.15,3.97-9.26,1.59-3.92,3.1-7.88,4.64-11.82.06-.15.14-.32.13-.47-.03-.54.26-.93.54-1.34.25-.36.5-.72.7-1.1,1.32-2.55,2.61-5.11,3.93-7.65,1.08-2.07,1.9-4.24,2.43-6.5.79-3.39,1.09-6.78.07-10.19-.67-2.23-1.27-4.48-2.75-6.35-1.97-2.48-4.24-4.65-6.96-6.28-3.29-1.96-6.77-3.55-10.35-4.92-1.24-.47-2.33-1.09-3.18-2.07-1.21-1.4-2.72-2.28-4.47-2.72-2.7-.69-5.4-1.36-8.12-1.96-1.81-.39-3.67-.64-5.53-.48-3.41.29-6.75,1.01-10.02,1.98-1.77.53-3.41,1.35-4.78,2.62-1.58,1.47-3.16,2.94-4.66,4.49-1.22,1.25-2.34,2.6-3.15,4.17-1.26,2.46-2.38,4.98-3.27,7.6-1.58,4.67-2.22,9.5-2.43,14.4-.08,1.93.07,3.88.07,5.81,0,2.27-.03,4.53-.12,6.79-.07,1.66-.19,3.32-.4,4.97-.09.69.12,1.13.65,1.43.54.31,1.12.58,1.7.79,1.15.42,2.33.78,3.49,1.17,1.85.63,3.41,1.71,4.72,3.15.15.16.3.32.45.47.5.52,1.03.61,1.7.28,4.54-2.29,8.95-4.8,12.94-7.99,1.29-1.03,2.66-1.91,4.13-2.64,1-.5,2.02-.98,3.02-1.47,1.79-.87,3.59-1.75,5.08-3.11,1.17-1.06,1.95-2.34,2.11-3.95.29-2.89,1.42-5.44,3.25-7.66,1.28-1.56,2.67-3.03,4.02-4.53.6-.67,1.2-1.34,1.83-1.99.24-.25.53-.54.93-.35.37.18.4.57.4.92,0,.44.02.88-.03,1.31-.23,2.01-.46,4.01-.72,6.01-.19,1.46-.35,2.93-.66,4.37-.73,3.39-2.12,6.55-3.74,9.59-1.55,2.92-3.22,5.77-4.85,8.64-.63,1.1-1.07,2.28-1.25,3.53-.12.86-.23,1.73.14,2.56h-.01Zm38.91,115.95c.34.12.61.24.89.31,2.4.63,4.73,1.51,7.18,1.93,1.31.23,2.58.7,3.89.97,1.74.35,3.48.73,5.24.87,3.68.3,7.29-.29,10.87-1.13,2.48-.58,5.01-3.05,5.29-5.85.3-2.95.26-5.89-.53-8.77-.41-1.5-.77-3.02-1.24-4.5-1.21-3.83-1.67-7.78-2.11-11.74-.46-4.21-1.07-8.39-2.01-12.52-1.14-5.06-2.37-10.1-4.19-14.97-2.13-5.68-4.31-11.33-6.55-16.96-1.71-4.29-3.5-8.54-5.35-12.77-.82-1.87-1.88-3.64-2.8-5.47-.27-.53-.48-1.1-.66-1.67-.18-.55-.09-1.09.31-1.53.75-.83,1.47-1.69,2.28-2.46,1.64-1.54,3.52-2.76,5.43-3.93,1.02-.63,1.93-1.35,2.47-2.44.91-1.82,2.34-3.1,4.05-4.16.87-.54,1.61-1.3,2.39-1.98.88-.78.85-1.69.38-2.68-.55-1.15-1.39-2.07-2.28-3.09-.18.67-.62.76-1.15.71-.18-.02-.38.05-.65.09.6.44,1.33.43,1.81,1.19-.37-.14-.56-.2-.74-.29-2.69-1.26-5.44-1.23-8.23-.41-.51.15-.81.45-1,.96-.43,1.09-.93,2.16-1.41,3.23-.06.14-.19.25-.29.37-.06-.03-.11-.06-.16-.09.12-.29.25-.58.37-.87.75-1.87,1.65-3.71,2.22-5.63.67-2.28,1.4-4.54,2.27-6.75.62-1.58,1.14-3.19,1.46-4.85.16-.83.33-1.66.5-2.49.22-1.13.47-2.24.66-3.38.2-1.2-.68-1.99-1.76-1.59-.53.2-1.08.42-1.52.76-1.74,1.33-3.22,2.9-3.87,5.05-.37,1.23-.66,2.48-.84,3.75-.37,2.64-1.43,4.84-3.59,6.48-.88.66-1.52,1.55-2.12,2.48.05.15.08.29.15.4.43.65.5,1.37.49,2.12-.01,1.07,0,2.13-.02,3.2-.01.6.11,1.12.48,1.61.15.2.28.53.21.74-.2.65-.01,1.16.36,1.68.36.51.34,1.08.09,1.64-.29.65-.74,1.14-1.36,1.48-.44.24-.84.54-.96,1.06-.15.61-.5.95-1.1.92-.11.25-.17.47-.29.64-.61.84-1.23,1.68-1.87,2.49-.16.2-.41.43-.65.47-.63.11-.89.53-1.11,1.05-.17.41-.37.79-.56,1.18-1.69,3.46-3.35,6.94-5.37,10.22-.34.55-.46,1.06-.29,1.69.79,3.01,1.47,6.04,2.36,9.02,1.15,3.87,2.42,7.71,3.25,11.67.68,3.23,1.26,6.48,1.25,9.81-.01,4.29,0,8.58,0,12.87v.92c.89-.06,1.56.28,2.22.69.65.41,1.3.81,1.96,1.19,1.82,1.03,3.41,2.35,5.01,3.67.98.81,1.31,1.83,1.45,2.99.03.21.02.44.02.65.08,2.12-.34,4.18-.74,6.25-.07.38-.08.67.24.95,1.6,1.45,3.16,2.94,4.78,4.35.54.47,1.25.74,1.88,1.11.05.03.06.12.15.36-.39-.13-.68-.17-.92-.31-.47-.28-.95-.56-1.35-.92-1.43-1.27-2.83-2.57-4.24-3.86-.21-.2-.43-.4-.71-.67-.1.38-.18.66-.25.94-.69,2.76-1.48,5.49-2.69,8.07-1.57,3.34-3.22,6.63-4.86,9.93-.58,1.17-1.21,2.31-1.86,3.55h-.01Zm-.46-38.74c.02-.27.05-.51.05-.74.02-2.49.04-4.97.05-7.46,0-.35,0-.73-.12-1.04-1.06-2.78-2.01-5.61-3.25-8.31-2.52-5.45-5.21-10.83-7.83-16.24-.44-.91-.89-1.81-1.39-2.82-.5.66-.97,1.22-1.37,1.83-1.18,1.74-2.79,2.89-4.78,3.55-.22.07-.43.19-.64.29.66,1.46,2.3,4.08,3.67,5.7,1.07,1.26,1.93,2.64,2.73,4.08,2.69,4.89,5.02,9.95,7.35,15.01.08.18.12.39.21.69-.5-.21-.52-.6-.66-.89-2.27-4.91-4.53-9.82-7.15-14.56-.67-1.22-1.4-2.42-2.25-3.51-1.17-1.51-2.31-3.04-3.29-4.69-.33-.56-.66-1.13-.95-1.63-1.38.17-2.7.44-4.02.45-1.34,0-2.69-.26-4.14-.41.42.43.79.82,1.16,1.2.4.41.81.81,1.22,1.22.39.39.77.77,1.16,1.16.41.41.81.81,1.22,1.21.39.38.78.77,1.17,1.15.39.38.79.76,1.18,1.14.41.4.81.81,1.22,1.21.39.38.78.77,1.16,1.15.41.4.82.81,1.23,1.21.39.38.79.76,1.18,1.14.41.4.83.8,1.22,1.21.35.37.79.68.98,1.18-.25-.08-.44-.21-.6-.37-1.04-1.01-2.08-2.02-3.11-3.03-3.63-3.6-7.25-7.2-10.89-10.79-.2-.2-.47-.38-.74-.46-3.24-.98-6.48-1.95-9.73-2.92-.16-.05-.33-.05-.49-.08.11.23.25.35.39.46,1.58,1.22,3.18,2.4,4.73,3.66,2.84,2.29,4.82,5.26,6.42,8.5.06.11.03.27.05.4-.29-.23-.45-.51-.59-.79-1.6-3.08-3.54-5.91-6.32-8.07-1.94-1.51-3.91-2.98-5.88-4.45-.3-.22-.66-.41-1.01-.51-2.98-.88-5.78-2.15-8.52-3.58-4.89-2.56-9.82-5.02-14.83-7.35-1.76-.82-3.52-1.63-5.43-2.04-2.16-.47-4.37-.67-6.57-.85-.43-.03-.79.05-1.13.35-.47.41-.97.8-1.48,1.16-.44.31-.62.68-.61,1.23.05,2.43.05,4.86.07,7.29.01,1.51.39,2.94,1.23,4.18.7,1.04,1.44,2.07,2.31,2.96,2.18,2.22,4.43,4.38,6.68,6.53,1.32,1.26,2.72,2.45,4.09,3.67.59-.38,1.11-.78,1.68-1.09,4.33-2.39,8.84-4.43,13.37-6.4.89-.39,1.86-.54,2.81-.43,1.32.14,2.63.44,3.95.67,1.07.19,2.15.38,3.22.58.67.12,1.37.15,1.99.4,1.08.44,2.11,1.01,3.16,1.53.18.09.35.18.53.27-.06-.24-.16-.4-.28-.54-1.7-2.03-3.49-3.98-5.4-5.82-1.24-1.19-2.64-2.1-4.23-2.76-2.08-.86-4.23-1.45-6.41-1.98-2.47-.6-4.93-1.22-7.4-1.78-1.25-.28-2.51-.54-3.78-.65-2.32-.18-4.64-.14-6.95.14-1.52.18-3.03.39-4.43,1.07-.05.02-.13-.03-.31-.08.22-.16.35-.29.51-.35.64-.22,1.28-.5,1.95-.6,1.59-.23,3.19-.39,4.79-.54,2.3-.21,4.59-.1,6.85.34,1.63.32,3.23.81,4.85,1.19,2.92.69,5.86,1.31,8.71,2.27,2.47.83,4.68,2.04,6.53,3.92,1.97,2.01,3.88,4.07,5.67,6.25,1.85,2.25,3.93,4.24,6.44,5.76.92.56,1.81,1.24,2.57,2.01.82.83,1.7,1.53,2.71,2.08.57.32,1.16.61,1.7.98.42.29.89.61,1.14,1.04.79,1.33,1.96,2.08,3.36,2.6.42.16.89.39,1.16.73.92,1.14,2.12,1.97,3.16,2.97.63.61,1.32,1.14,1.99,1.7.74.63,1.6.92,2.57.92.91,0,1.72.3,2.41.88.59.49,1.13,1.03,1.68,1.56.66.65,1.3,1.32,1.98,1.96.37.35.81.64,1.43.64h-.01Zm-35.51-57.34c-.18-.06-.3-.14-.43-.14-.86-.01-1.28-.53-1.48-1.28-.15-.58-.32-1.16-.39-1.76-.28-2.25-.56-4.49-.77-6.75-.14-1.54-.38-3.13.88-4.43-1.19-1.26-1.76-2.64-1.1-4.29-.28-.23-.51-.42-.74-.6-3.25-2.54-6.5-5.07-9.74-7.63-1.16-.92-2.37-1.75-3.68-2.43-.41-.21-.7-.22-1.1.07-3.44,2.43-7.08,4.54-10.85,6.41-.12.06-.22.14-.32.2-.05.42-.1.8-.15,1.18-.45,4.01-.88,8.02-1.35,12.03-.37,3.16-1.35,6.12-2.97,8.86-.88,1.48-1.8,2.93-2.7,4.4-.12.19-.23.4-.36.64.22.07.34.11.47.15,1.11.28,2.22.56,3.33.83.29.07.59.09.89.13,2.81.37,5.65.63,8.43,1.14,3.48.64,6.98.89,10.5.97,2.21.06,4.42-.02,6.63-.1,1.14-.05,2.29-.18,3.41-.39,1.69-.32,2.66-1.4,2.93-3.08.18-1.13.38-2.26.57-3.39.04-.24.05-.48.08-.72h0Zm-44.79-26.18s-.14.14-.22.25c-3.14,4.29-5.87,8.82-7.93,13.73-.96,2.27-1.84,4.57-2.2,7.02-.59,3.99-1.11,8-1.62,12-.38,3-.72,6.01-1.04,9.03-.38,3.55-.73,7.11-1.08,10.66-.23,2.36-.45,4.72-.63,7.09-.09,1.19-.19,2.39.11,3.58.6,2.41,1.17,4.83,2.58,6.95.09.14.21.26.36.44.05-.18.08-.25.08-.33.09-2.59.18-5.18.28-7.77.06-1.66.1-3.33.19-4.99.04-.76.12-1.52.26-2.27.42-2.26,1.18-4.43,1.97-6.58.68-1.87,1.35-3.74,2.51-5.41,1.87-2.69,4.02-5.09,6.64-7.08.69-.53,1.35-1.09,2.05-1.65-.52-.56-.66-1.19-.61-1.86.05-.57.1-1.14.23-1.7.17-.78.59-1.15,1.37-1.14.84.01,1.7.06,2.51.26,1.59.39,1.23.48,2.07-.77,1.48-2.2,2.83-4.48,3.89-6.92.18-.42.14-.71-.08-1.12-.56-1.05-1.1-2.14-1.5-3.26-.94-2.69-1.43-5.49-1.81-8.31-.22-1.62-.39-3.25-.59-4.91-2.95-1.05-5.12-3.35-7.79-4.95h0Zm42.27,7.83c-.46-.02-.6.18-.65.53-.1.79-.01,1.53.43,2.2.29.43.61.84.96,1.22,4.1,4.47,8.39,8.75,12.78,12.94.42.39.85.78,1.32,1.1.74.53,1.03.49,1.56-.25.63-.86,1.24-1.74,1.82-2.63,3.41-5.24,6.82-10.49,10.22-15.73.24-.37.47-.74.67-1.13.3-.59.21-.79-.41-.92-.74-.16-1.51-.25-2.25-.43-2.19-.55-4.39-1.07-6.41-2.31-.14.34-.25.61-.36.88-1.63,3.93-3.26,7.87-4.92,11.79-.39.93-.91,1.8-1.39,2.69-.12.21-.21.53-.68.48.02-.28,0-.57.06-.84.1-.48.25-.95.38-1.42,1.08-3.83,2.18-7.67,3.24-11.51.33-1.2.59-2.42.89-3.67-1.85-.97-3.63-1.92-5.43-2.84-1.76-.91-4.1-.43-5.4,1.08-1.47,1.72-2.93,3.46-4.37,5.2-.71.86-1.4,1.75-2.09,2.63-.21.27-.37.56.05.92h-.01Zm43.02,77.94c-.08.34-.16.54-.18.75-.34,3.12-.65,6.24-1.01,9.35-.43,3.76-1.35,7.39-2.95,10.85-2.73,5.91-5.67,11.69-8.9,17.33-1.37,2.39-2.77,4.77-4.55,6.9-2.06,2.45-4.13,4.87-6.2,7.31-.17.2-.33.41-.56.71,1.44.8,2.79,1.56,4.15,2.32.72.41,1.44.35,2.07-.14.76-.58,1.52-1.17,2.16-1.86,2.02-2.16,3.8-4.51,5.34-7.04,4.02-6.57,7.58-13.4,11.01-20.3,2.74-5.5,4.54-11.28,5.27-17.38.16-1.37.19-2.73-.26-4.05-.12-.37-.36-.74-.64-1.01-.69-.66-1.41-1.3-2.16-1.88-.81-.63-1.67-1.21-2.6-1.87h0Zm11.22-63.23c-.8.53-1.58,1.04-2.34,1.56-1.79,1.23-3.41,2.63-4.78,4.33-.46.57-.61,1.15-.33,1.81.31.73.64,1.45.99,2.15,1.06,2.13,2.26,4.19,3.18,6.37,2.08,4.9,4.08,9.84,6.02,14.79,2.11,5.39,4.11,10.82,6.17,16.23.03.09.11.17.23.35.6-.6,1.17-1.13,1.7-1.7.45-.49.57-1.08.47-1.75-.17-1.1-.35-2.21-.42-3.33-.14-2.29-.17-4.58-.31-6.87-.11-1.8-.23-3.6-.47-5.38-.36-2.63-1.15-5.17-1.97-7.69-2.27-6.93-5.06-13.67-7.88-20.39-.06-.15-.15-.28-.27-.5h0Zm-41.38-24.38c.12-.07.23-.11.31-.18.87-.72,1.88-1.08,3-1.18.67-.06,1.34-.17,2.01-.26.06-.25.11-.43.14-.62.52-2.79,1.08-5.57,1.53-8.37.43-2.69.76-5.41.72-8.15-.04-3.28-.31-6.54-.89-9.77-.39-2.18-.91-4.33-1.82-6.36-.66-1.49-1.66-2.69-3.02-3.59-.37-.25-.82-.6-1.27-.27-.45.32-.23.83-.16,1.29.13.86.3,1.72.31,2.59.02,1.61-.04,3.22-.09,4.83-.12,3.71-.51,7.4-1.02,11.08-.38,2.73-1.14,5.33-2.48,7.75-1.45,2.63-2.85,5.29-4.27,7.93-.11.21-.21.43-.33.68.71.58,1.4,1.12,2.06,1.68.28.24.53.28.89.18,1.31-.36,2.59-.31,3.78.45.16.1.34.17.58.28h0Zm-32.03,39.65c.24.19.33.29.44.36,2.62,1.63,5.22,3.29,7.87,4.87,2.94,1.75,5.97,3.34,9.26,4.3,3.7,1.07,7.41,2.08,11.13,3.06,2.24.59,4.53.99,6.85,1.19.51.05,1.01-.02,1.53-.23-.1-.2-.17-.35-.25-.49-1.42-2.46-2.92-4.87-4.63-7.15-.94-1.25-1.9-2.47-3.13-3.45-2.03-1.61-4.08-3.21-6.12-4.81-.17-.13-.36-.22-.55-.33-.31.42-.01.63.21.86,1.14,1.16,1.93,2.5,2.23,4.11.07.37.17.74.26,1.12.45,1.87,1.37,3.43,2.92,4.61,1.65,1.25,3.28,2.55,4.91,3.82.21.17.51.28.62.72-.25-.11-.4-.16-.52-.24-1.89-1.48-3.8-2.95-5.67-4.45-1.12-.89-1.87-2.06-2.29-3.42-.23-.76-.45-1.52-.61-2.29-.27-1.36-.95-2.49-1.85-3.51-.11-.12-.27-.2-.46-.35-.3,1.54-1.15,2.54-2.51,3.1-.4.17-.82.32-1.24.41-2.26.45-4.54.59-6.84.38-.17-.02-.34,0-.51,0,2.3,1.54,4.64,2.94,6.98,4.33,2.35,1.4,4.75,2.72,7.06,4.2-.35.15-.58-.08-.82-.23-4.64-2.72-9.28-5.44-13.93-8.15-.37-.21-.79-.38-1.21-.46-2.8-.6-5.61-1.18-8.41-1.76-.18-.04-.36-.06-.72-.11h0Zm55.95-13.93c-.15.11-.2.13-.24.17-2.55,2.89-5.02,5.85-7.02,9.15-2.37,3.9-4.45,7.96-6.07,12.24-.53,1.41-1.16,2.77-2.09,3.97-1.42,1.83-3.24,2.72-5.57,2.45-.89-.1-1.79-.22-2.67-.38-3.42-.61-6.77-1.49-10.1-2.47-2.46-.72-4.94-1.43-7.33-2.33-3.36-1.26-6.44-3.11-9.46-5.03-4.5-2.85-9-5.7-13.77-8.09-1.46-.73-2.97-1.39-4.51-1.9-1.58-.52-3.21-.86-4.84-1.21-.71-.15-1.46-.15-2.19-.15-.35,0-.72.16-.85.55-.3.95-.46,1.91-.22,2.9.1.42.36.62.82.65,1.31.08,2.61.19,3.91.32,2.54.26,4.99.86,7.33,1.94,4.68,2.17,9.34,4.39,13.91,6.8,2.85,1.5,5.69,3.07,8.76,4.06,5.07,1.63,10.17,3.15,15.26,4.69,2.38.72,4.79.97,7.27.4,2.92-.67,5.31-1.97,7.15-4.5,5.07-6.99,9.58-14.29,13.14-22.16.15-.32.28-.64.43-.97-.36-.38-.69-.73-1.05-1.1h0Zm-47.73-24.73c3.46,2.7,6.86,5.36,10.39,8.13,0-.32.06-.5-.01-.57-.33-.38-.37-.83-.4-1.3-.1-1.74.29-3.37,1.13-4.88,1.03-1.86,2.11-3.7,3.17-5.54.16-.28.3-.56.46-.87-1.89-1.97-3.74-3.9-5.6-5.84-1.85,1.52-3.92,2.5-6,3.47-2.46,1.14-4.84,2.4-6.88,4.23-.13.12-.25.26-.39.4,1.13.68,2.19,1.34,3.28,1.96,1.23.71,2.06.39,2.54-.95.12-.34.23-.68.4-1.18.26,1.46-.53,2.51-2.08,2.93h0Zm36.51,37.34c.55-.43.87-1.03,1.13-1.66.89-2.19,1.13-4.43.48-6.73-1.04-3.71-1.91-7.45-2.63-11.23-.14-.73-.28-1.46-.46-2.37-.26.38-.42.6-.56.82-1.33,2.07-2.63,4.15-3.98,6.2-.97,1.48-1.99,2.93-3,4.4-.35.51-.79.73-1.41.47-.17-.07-.37-.1-.56-.09-1.09.06-2.18.12-3.27.19-.07,0-.13.07-.2.11,1.47,1.72,11.4,8.5,14.45,9.87h0Zm-22.31-5.46c0,1.18.01,2.26,0,3.34,0,.34.23.47.44.63,1.11.84,2.23,1.67,3.34,2.51,2.5,1.92,4.92,3.91,6.68,6.57,1.43,2.16,2.81,4.36,4.2,6.54.15.24.31.47.45.68,1.12-.41,1.92-1.06,2.58-1.88,1.11-1.35,1.79-2.93,2.36-4.56.08-.24-.01-.59-.13-.84-.65-1.38-1.35-2.74-2.01-4.12-.19-.41-.44-.6-.91-.68-2.17-.34-4.26-.98-6.19-2.05-3.34-1.86-6.65-3.77-9.97-5.66-.25-.15-.51-.29-.85-.49h0Zm.69-37.21c.15-.24.25-.37.32-.51.79-1.59,1.63-3.15,2.37-4.76,1.26-2.73,2.28-5.55,2.68-8.55.27-2,.51-4,.73-6.01.13-1.14.23-2.28.3-3.42.02-.29-.1-.6-.19-1.09-.45.39-.78.63-1.05.92-1.56,1.71-3.14,3.41-4.65,5.17-2.1,2.42-3.57,5.14-3.87,8.4-.13,1.44-.79,2.65-1.78,3.69-.12.13-.23.28-.35.44,1.83,1.9,3.62,3.77,5.49,5.71h0Zm-33.08,38.4c-.01.05-.03.1-.04.15.14.07.27.15.41.22,2.49,1.35,4.98,2.71,7.49,4.05.45.24.94.46,1.43.57,2.25.54,4.51,1.1,6.77,1.56,2.91.6,5.83,1.17,8.83.93,1.47-.12,2.94-.2,4.34-.7,1.47-.52,2.37-1.51,2.57-3.09.08-.6.21-1.18.27-1.78.1-1,.18-2.01-.09-3.01-.09-.34-.18-.67-.59-.87-.09.42-.16.79-.25,1.15-.04.16-.06.34-.16.45-.81.91-1.7,1.67-2.97,1.89-1.99.36-4.01.47-6.03.46-2.59-.01-5.18-.06-7.77-.17-1.5-.07-2.99-.24-4.47-.44-2.92-.41-5.82-.88-8.73-1.31-.33-.05-.67-.05-1-.07h0Zm59.7-42.45c-.28,6.36-.42,12.64-.67,19.01,1.85.1,3.61.19,5.36.29.19-1.55.78-18.5.54-19.29h-5.23Zm-27.88,37.78c-.11.62-.21,1.21-.33,1.8-.05.27,0,.47.22.65.23.19.42.44.66.6,3.96,2.43,7.91,4.87,12.12,6.84,1.97.92,4.05,1.5,6.23,1.58,1.25.05,2.51-.11,3.76-.12.5,0,.77-.18,1.01-.63.85-1.62,1.75-3.21,2.63-4.81.1-.19.21-.39.24-.6.12-.92.3-1.84.3-2.76,0-.8-.09-1.66-.38-2.4-1.77-4.53-2.98-9.18-3.2-14.06-.02-.47-.11-.95-.17-1.42-.06-.02-.11-.04-.16-.06-.28.42-.53.87-.84,1.26-.35.43-.38.88-.27,1.38.14.64.25,1.28.37,1.93.71,3.79,1.61,7.52,2.61,11.24.84,3.11.39,6.05-1.49,8.73.06.12.12.26.17.37-.34.04-.67,0-.93.12-.9.42-1.81.51-2.79.38-1.74-.22-3.34-.85-4.82-1.74-1.54-.93-3.1-1.86-4.54-2.93-3.14-2.33-6.66-3.93-10.39-5.34h0Zm11.55-1.56c-4.6-4.62-9.15-9.19-13.74-13.79-.65.66-.88,1.48-.81,2.38.17,2.09.34,4.19.58,6.27.15,1.3.43,2.58.67,3.87.13.69.57,1,1.27,1.04,1.44.09,2.89.2,4.33.32,2.56.21,5.12.14,7.7-.09h0Zm18.41,34.76c1.43-.51,2.51-1.32,3.47-2.3.26-.27.29-.53.19-.89-.44-1.55-.83-3.11-1.27-4.65-1.03-3.56-2.13-7.11-3.07-10.7-.29-1.1-.81-1.7-1.88-1.98-.88,1.27-2.01,2.45-1.72,4.22.04.24,0,.49-.03.73-.18,1.53-.15,3.11-1.1,4.46,1.8,3.7,3.6,7.37,5.42,11.11h0Zm-1.71-30.39c1.87-2.3,3.66-4.51,5.47-6.74-.07-.08-.14-.16-.21-.24-.56-.63-.54-.74-.03-1.37.59-.72,1.13-1.47,1.67-2.22.28-.38.42-.9,1.01-.98.11-.02.22-.23.29-.37.57-1.08,1.16-2.16,1.69-3.27.18-.38.25-.84.24-1.26-.04-1.25-.14-2.5-.23-3.75-.02-.22-.11-.44-.19-.74-.26.32-.44.55-.63.78-.61.75-1.35,1.36-2.25,1.72-.81.33-1.44.87-1.98,1.54-1,1.24-1.79,2.61-2.46,4.05-1.1,2.38-1.8,4.91-2.57,7.41-.54,1.75-.42,3.56.18,5.45h0Zm-1.21,1.69c.98-1,.98-1.05.72-2.14-.28-1.2-.43-2.4-.28-3.65.15-1.23.51-2.4.92-3.55.2-.54.43-1.07.57-1.62.63-2.49,1.74-4.76,3.16-6.89.11-.17.2-.36.33-.58-2.85-.99-5.35-2.43-7.32-4.67-.1.06-.16.08-.19.12-.19.27-.35.56-.57.8-.84.96-1.11,2.03-.9,3.32.3,1.83.37,3.69.66,5.52.47,2.92,1.4,5.72,2.48,8.47.39.98.56,1.99.51,3.04-.03.57-.06,1.14-.1,1.82h0Zm-59.98-10.57c.96-1.47,2.97-16.21,2.45-17.85-.99.51-1.85,1.23-2.94,1.51-1.1.28-2.19.11-3.33-.02,0,.29-.02.51,0,.72.32,2.38.6,4.76,1,7.12.39,2.28.93,4.54,1.87,6.68.27.61.61,1.19.95,1.84h0Zm65.95-12.49c.25,0,.41,0,.56,0,1.23-.06,2.45-.11,3.67-.18.7-.04.8-.14.74-.85-.1-1.33-.24-2.65-.64-3.94-.18-.59-.26-1.23-.26-1.85-.01-1.17.06-2.34.09-3.51.03-1.02-.12-2.01-.41-2.99-.21-.73-.42-1.47-.53-2.22-.14-.93-.17-1.25.81-1.71.03-.01.03-.09.05-.15h-3.56c-.18,5.8-.35,11.56-.53,17.39h0Zm-10.53,27.72c-.38-.22-.66-.38-.94-.55-2.89-1.71-5.79-3.4-8.46-5.45-1.65-1.26-3.3-2.51-4.94-3.78-.36-.28-.73-.41-1.19-.42-1.8-.07-3.59-.2-5.39-.29-.43-.02-.86,0-1.36,0-.04.29-.08.57-.13.88.28.15.51.29.76.39.92.4,1.84.83,2.78,1.18,1.67.63,3.22,1.48,4.7,2.47,1.7,1.14,3.37,2.32,5.11,3.4,1.23.76,2.51,1.42,3.82,2.03,1.15.53,2.39.76,3.67.68.52-.03,1.03-.1,1.56-.53h0Zm17.05-23.73c-.06-2.51-.12-4.97-.18-7.42-.04-1.34-.08-2.67-.15-4-.07-1.31-.14-2.61.32-3.89.16-.46.21-.96.29-1.44.17-1.05.33-2.1.5-3.15.05-.27.07-.56.2-.79.14-.24.38-.56.59-.57.22-.01.52.26.68.48.17.23.26.54.3.83.28,2.02.1,3.97-.95,5.78-.18.31-.32.63-.5.94-.87,1.51-1.03,3.17-1,4.87.01.82.1,1.63.11,2.45.03,1.69.04,3.38.06,5.08,0,.24.03.47.05.71h1.13v-3.88c0-.78-.2-1.49-.56-2.19-.47-.94-.65-1.94-.49-3.02.19-1.26.74-2.34,1.43-3.36.71-1.04,1.16-2.17,1.26-3.41.09-1.17.12-2.34.09-3.51-.01-.53-.17-1.08-.35-1.59-.36-1.02-1.52-1.58-2.46-1.07-.94.51-1.87.97-2.88,1.29-.43.14-.6.46-.52.9.1.56.15,1.15.34,1.68.79,2.25.73,4.57.58,6.89-.06.92.03,1.78.28,2.66.17.6.36,1.21.42,1.83.15,1.57.24,3.16.35,4.73.06.83.14,1.66.22,2.57.29-.14.5-.25.81-.4h0Zm-22.1-10.88c2.48,1.52,5.16,2.04,7.9,2.65.02-.35.05-.59.04-.83-.06-2.77-.73-5.44-1.32-8.13-.17-.76-.77-1.04-1.47-1.06-.57-.02-1.14.09-1.71.09-.46,0-.68.21-.83.62-.85,2.19-1.71,4.36-2.61,6.66h0Zm-48.62,1.5c-.46-.51-.85-.97-1.26-1.41-1.13-1.18-2.45-2.08-4-2.61-1.08-.37-2.17-.73-3.26-1.09-1.16-.39-2.34-.74-3.05-1.8-1.22.28-1.7,1.11-1.9,2.18-.1.54.04.96.5,1.28,1.65,1.16,3.29,2.34,4.96,3.48.91.62,1.93,1.01,3.02,1.21,1.87.34,3.57,0,5-1.24Zm86.01-14.98c-.15.82-.26,1.52-.39,2.21-.18.96-.38,1.93-.55,2.89-.45,2.42-1.03,4.79-1.98,7.07-.52,1.23-.95,2.5-1.36,3.77-.43,1.36-.79,2.75-1.16,4.08,1.53-.23,3.02-.46,4.54-.69.01-.09.04-.19.05-.3.14-2.18.28-4.35.43-6.53.26-3.78.53-7.55.79-11.33.03-.39,0-.8-.35-1.18h0Zm-24.68,72.44c.96,2.07,1.9,4.01,2.75,5.99.85,1.97,1.59,3.99,2.38,5.98.08-2.46.19-4.88-.12-7.3-.31-2.39-.71-4.76-1.33-7.22-1.12,1.14-2.27,2-3.68,2.55h0Zm27.47-71.07c.13,6.06-.73,12-1.1,18.01h1.78c.07-.44.16-.83.18-1.24.05-.9.04-1.79.11-2.69.18-2.28.38-4.56.57-6.84.16-1.82.32-3.64.46-5.46.04-.59.17-1.19-.2-1.79h-1.8Zm-17.13,16.02c.27-.33.42-.54.61-.74.54-.57,1.05-1.18,1.66-1.69.4-.34.54-.7.56-1.19.03-1.28.04-2.57.15-3.84.27-2.96.61-5.91.91-8.86.05-.45.06-.9.09-1.37h-4.71c-.15.89-.13,1.53.04,2.14.18-.02.37-.03.56-.05,1.22-.14,1.98.33,2.4,1.49.07.2.13.42.18.63.28,1.4.27,2.82.11,4.23-.15,1.37-.54,2.65-1.34,3.81-.46.66-.82,1.42-1.13,2.17-.42,1.01-.45,2.06-.07,3.28h0Zm-7.76-19.54v2.81c.29.07.55.14.88.21v1.77c1.63,0,3.18.02,4.73-.01.58-.01.98-.48.98-1.07.01-.87,0-1.74,0-2.63-.34-.26-.7-.51-1.03-.8-.35-.31-.73-.42-1.19-.42-1.06.02-2.13,0-3.19.01-.38,0-.75.07-1.18.11h0Zm3.8,32.56c.66.54,1.28,1.07,1.92,1.57.17.13.39.18.59.27.28.11.51.04.59-.25.24-.86.82-1.38,1.57-1.79.25-.14.46-.39.63-.62.5-.68.63-1.38.07-2.1-.36-.46-.45-.96-.29-1.54.12-.43-.37-1.21-.78-1.28-.61-.1-1.21-.06-1.72.33-.14.11-.3.29-.32.45-.08,1.05-.65,1.9-1.1,2.79-.36.73-.77,1.43-1.17,2.17h0Zm19.63-30.21c-.41.74-.28,1.5-.29,2.24,0,.16-.01.33-.02.49-.1,2.53-.18,5.07-.32,7.6-.11,1.98-.29,3.97-.46,5.95-.08.99-.2,1.99-.32,3.03.43.08.79.15,1.27.23.11-.92.25-1.78.33-2.64.15-1.77.23-3.54.42-5.3.37-3.45.54-6.9.47-10.37-.02-.85-.18-1.04-1.09-1.23h0Zm-10.65-2.24c-.05.32-.07.64-.14.96-.04.2-.09.49-.23.58-.37.24-.37.6-.4.93-.41,4.34-1.02,8.66-1.15,13.02,0,.17.03.34.05.56,1.11-.9,2.04-2.77,2.11-4.19.05-.87.06-1.75.12-2.61.17-2.28.31-4.57.59-6.84.12-1.01-.25-1.72-.95-2.41h0Zm-42.85,9.25c-1.69,3.2-3.52,6.22-4.76,9.56.21-.11.36-.25.49-.41.86-1.03,1.69-2.07,2.57-3.08,1.25-1.43,2.31-3.02,3.89-4.28-.72-.59-1.43-1.16-2.2-1.79h0Zm34.46-10.93c.05-.28.09-.52.11-.76.09-1.02-.04-1.15-1.05-1.12-.9.03-1.8.03-2.7.05-.68.01-1.37-.03-2.04.03-1.29.13-1.4.29-1.34,1.6,0,.05.05.09.1.19h6.92Zm-4.85,4.42v-2.82c-.31-.02-.57-.04-.84-.05-.68-.01-1.36.03-2.04-.04-.41-.05-.61.12-.79.41-.49.76-.53,1.6-.56,2.5h4.23Zm-11.38,54.75c.79-1.71,1.5-3.26,2.23-4.86-1.53.05-2.98.1-4.56.15.79,1.59,1.51,3.07,2.33,4.71h0Zm25.37-48.63c.47-1.33.74-2.76,1.63-3.89.88-1.12,1.86-2.15,2.81-3.23h-3.83c-.35,2.39-.59,4.74-.62,7.12h0Zm-5.27-3.47c-.13.38-.26.68-.33.99-.1.45-.14.92-.23,1.37-.22,1.26-.37,2.55-.7,3.78-.28,1.03-.27,2.03-.22,3.23.14-.23.19-.31.24-.4.41-.83.77-1.69,1.22-2.5.93-1.69.98-3.5.8-5.34-.04-.41-.16-.86-.77-1.13h0Zm-12.89,18.96c.03.12.03.18.07.21.08.07.17.14.26.2,1.16.72,2.37,1.34,3.65,1.79.48.17.81.13,1.14-.27.49-.6,1.12-1.03,1.85-1.3.18-.07.32-.21.58-.4-2.61-.23-5.06-.38-7.54-.24h0Zm-12.68-13.98c-1.77.17-3.43.12-4.83,1.43,1.37.74,2.66,1.44,4.05,2.12.27-1.22.51-2.3.79-3.56h0Zm19.28,26.95c.54.84,1.29,1.01,1.83.37.67-.79,1.25-1.65,1.87-2.48.19-.25.19-.52-.02-.75-.4-.43-.81-.84-1.41-1.14-.35,1.65-1.47,2.75-2.28,4h0Zm-2.79-13.33c1.4.09,2.73.18,4.06.26.12,0,.28-.03.38-.11.51-.41.95-.87,1.25-1.59-1.95.09-3.81.18-5.69.27v1.16Zm13.12-24.52c-.09-.02-.17-.05-.24-.04-1.68.23-3.26.85-4.85,1.41-.1.04-.15.23-.26.41,1.81.23,3.54.18,5.34,0v-1.78h0Zm-19.64,57.55c-.07-.02-.14-.05-.21-.07-.71,1.02-1.42,2.04-2.14,3.07.46.87.78,1.76,1.4,2.65.89-1.89.81-3.79.95-5.65h0Zm1.58-38.44c.23-2.61.29-6.25.13-6.78-.78,1.87-1.48,5.22-1.31,6.36.36.13.74.26,1.18.42h0Zm6.33,17.6c.42.34.77.61,1.18.94.63-.95,1.23-1.79,1.75-2.68.21-.36.27-.82.32-1.24.01-.15-.19-.38-.36-.47-.24-.14-.38.07-.51.26-.39.59-.79,1.18-1.21,1.75-.34.46-.71.88-1.17,1.44Zm-3.82-36.76h7.87c0-.55-.23-.7-.67-.7-1.39.01-2.78,0-4.17,0-.7,0-1.41.02-2.11-.01-.51-.02-.71.28-.92.71h0Zm-2.25,23.1c-.03.4-.07.67-.06.94.01.45.15.56.61.55.73-.02,1.47-.05,2.2-.06.48-.01.97,0,1.49,0v-1.16c-1.42-.09-2.79-.17-4.25-.26h0Zm28.13-15.78c-.41,4.59-.8,9.18-.9,13.79.66-4.58.86-9.18.9-13.79Zm-28.72,16.72c.07-.03.14-.06.2-.09.05-1.29.09-2.58.14-4.03-.6.96-1.13,1.8-1.69,2.69.47.5.91.97,1.34,1.44h0Zm2.2,30.47c-.15-.69-.26-1.21-.37-1.74-.05,0-.11-.01-.16-.02-.22.36-.44.71-.69,1.11.41.21.74.39,1.23.64h0Zm26.59-48.31s.04,0,.06.01v-.96h-.06v.95Zm-.23-3.84c.13.27.21.43.33.67.12-.21.18-.32.26-.47-.18-.06-.33-.11-.59-.2Z"/>
  <path class="cls-1" d="m101.48,217.55c.06.19.15.39.19.59,1.51,7.04,3.05,14.08,4.49,21.14.37,1.84.43,3.73.63,5.6.02.23-.02.46-.15.72-.04-.08-.12-.17-.12-.25-.08-4.35-1.2-8.52-2.1-12.74-1.02-4.83-2.06-9.66-3.09-14.49-.04-.17-.04-.35-.06-.53.07-.01.13-.02.2-.03Z"/>
</svg>