<?xml version="1.0" encoding="UTF-8"?>
<svg id="Layer_1" data-name="Layer 1" xmlns="http://www.w3.org/2000/svg" viewBox="0 0 375.32 580.66">
  <defs>
    <style>
      .cls-1 {
        stroke-width: 0px;
      }
    </style>
  </defs>
  <path class="cls-1" d="m109.38,580.66c.41-.74.73-1.54,1.24-2.2,5.71-7.44,11.45-14.87,17.18-22.3.51-.67.99-1.37,1.51-2.09-.28-.09-.46-.2-.53-.15-6.17,4.09-13.02,6.72-19.96,9.11-10.29,3.55-20.8,6.36-31.4,8.81-.46.11-.93.16-1.39.2-.11,0-.23-.16-.48-.34.62-.73,1.5-.74,2.28-.93,12.05-2.86,23.99-6.08,35.6-10.43,6.61-2.47,12.84-5.57,18.49-9.89,9.02-6.9,18.15-13.65,27.24-20.46.44-.33.84-.7,1.43-1.21-.8-.55-1.48-1.04-2.18-1.5-8.05-5.28-16.11-10.52-24.12-15.85-1.25-.83-2.26-.96-3.69-.45-7.14,2.51-14.49,2.74-21.93,1.67-7.74-1.11-14.9-3.97-21.99-7.07-13.01-5.69-25.76-11.91-38.26-18.65-.71-.38-1.39-.84-1.94-1.49,2.11.19,3.7,1.48,5.47,2.35,1.77.86,3.5,1.82,5.25,2.72,1.82.94,3.65,1.86,5.49,2.78,1.83.92,3.67,1.82,5.52,2.71,1.77.86,3.55,1.72,5.33,2.56,1.84.87,3.7,1.7,6.06,2.78-.43-.88-.6-1.35-.87-1.75-4.47-6.5-9.17-12.81-14.34-18.79-3.96-4.58-7.68-9.41-11.12-14.4-8.32-12.08-16.42-24.31-24.6-36.49-.35-.53-.59-1.13-.88-1.7.18-.11.37-.23.55-.34.52.73,1.05,1.46,1.55,2.2,7.61,11.32,15.16,22.69,22.84,33.97,4.39,6.45,9.18,12.59,14.28,18.54,4.86,5.67,9.06,11.92,13.47,17.97.87,1.19,1.79,2.08,3.16,2.67,6.74,2.88,13.38,6.02,20.59,7.62,8.12,1.79,16.24,2.11,24.33-.16.81-.23,1.61-.51,2.96-.95-1.08-.76-1.74-1.24-2.41-1.7-10.9-7.53-21.85-15-32.69-22.6-6.95-4.87-12.87-10.9-18.48-17.22-5.66-6.38-8.9-13.93-10.12-22.31-1.11-7.56-1.95-15.15-2.88-22.73-.36-2.97-.65-5.95-.95-8.93-.6-5.83-.21-11.65.15-17.47.05-.78.15-1.58.39-2.32,3.32-10.11,6.55-20.25,10.06-30.29,1.9-5.44,4.44-10.63,8.26-15.06.87-1.01,1.79-1.98,2.8-3.09-2.7-2.42-5.35-4.76-7.97-7.14-8.11-7.37-16.22-14.75-23.66-22.82-2.68-2.91-5.14-5.99-7.04-9.47-1.85-3.39-2.83-7.01-2.89-10.86-.12-6.7-.2-13.4-.3-20.1-.01-.67-.08-1.34-.16-2.61-2.57,2.31-4.88,4.17-6.94,6.29-4.3,4.42-8.12,9.24-11.41,14.46-.92,1.46-1.79,2.99-2.46,4.58-3.26,7.78-6.07,15.73-8.29,23.88-1.28,4.68-1.67,9.46-1.84,14.26-.36,10.48-.64,20.96-1.02,31.43-.15,4.07-.76,8.15-.6,12.21.17,4.31.55,8.7,1.63,12.85,3.66,14.11,7.42,28.2,11.61,42.16,3.56,11.84,7.38,23.64,11.8,35.19,6.71,17.52,13.81,34.89,22.04,51.77.83,1.7,1.68,3.39,2.56,5.06,1.03,1.94,2.11,3.86,3.17,5.78,4.18,2.77,7.81,6.47,12.79,7.89,3.47.99,6.57,2.67,9.47,4.73,2.63,1.87,5.16,3.89,7.71,5.88.47.37.84.87,1.03,1.65-.41-.21-.86-.38-1.23-.65-2.84-2.13-5.61-4.35-8.5-6.4-2.64-1.87-5.51-3.33-8.66-4.27-3.44-1.03-6.41-2.99-9.23-5.18-.65-.51-1.32-1-2.27-1.25.82,1.67,1.61,3.36,2.45,5.01,2.02,3.98,3.27,8.17,3.76,12.62.18,1.66-.26,2.93-1.49,3.99-.12.1-.22.23-.36.31-2.88,1.73-3.62,4.54-4.02,7.62-.53,4.18-.26,8.32.25,12.47.14,1.09.18,2.2.26,3.3h-1.42c-.24-3.77-.56-7.54-.69-11.31-.07-2.11,0-4.26.33-6.34.39-2.5,1.74-4.59,3.85-6.03,1.97-1.35,2.32-3.01,1.95-5.31-.66-4.12-2.03-7.93-3.98-11.56-11.06-20.68-20.12-42.25-28.82-63.98-10.01-24.99-17.78-50.68-24.21-76.8-1.76-7.15-3.03-14.34-3.15-21.71,0-.32-.08-.65-.01-.94.71-3.09-.5-5.62-2.07-8.18-4.21-6.83-6.06-14.5-7.45-22.28-.29-1.6-.1-3.31.04-4.96.99-11.31,1.97-22.62,3.05-33.92,1.11-11.69,2.17-23.4,3.53-35.06,1.48-12.6,3.27-25.16,4.95-37.74.83-6.25,1.87-12.47,3.63-18.54,2.41-8.3,5.9-16.13,10.31-23.54,5.36-9.01,10.52-18.15,16.9-26.52.54-.71.75-1.68,1.03-2.56.38-1.2.58-2.46,1.02-3.63.63-1.68,1.73-3.02,3.48-3.66,1.27-.46,1.66-1.25,1.83-2.64,1.38-11.22,1.49-22.5,1.64-33.77.04-2.91-.29-5.83-.35-8.74-.23-11.09,1.25-22.01,3.04-32.92,2.26-13.78,7.34-26.58,13.79-38.81,4.18-7.94,10.12-14.64,16.94-20.51,2.39-2.06,4.8-4.1,7.23-6.11,3.63-3.01,7.81-5.04,12.25-6.51,8.64-2.86,17.55-4.57,26.54-5.69,7.09-.89,14.2-.14,21.16,1.41,7.38,1.64,14.7,3.53,22.03,5.4,5.23,1.34,9.76,3.79,13.27,8.11,2.32,2.86,5.64,4.49,9.09,5.77,7.83,2.92,15.59,6,22.92,10.07,2.88,1.6,6.01,2.91,8.57,4.92,2.24,1.76,4.9,3.02,6.76,5.31.82,1.01,2.1,1.62,3.1,2.5.75.66,1.38,1.45,2.06,2.18,2.35,2.52,4.76,4.98,7.02,7.57.92,1.05,1.49,2.4,2.28,3.57.89,1.31,1.7,2.56,2.18,4.17,1.07,3.68,2.67,7.2,3.88,10.84.48,1.46.33,3.13.75,4.62,1.39,4.95.93,9.92.54,14.94-.77,9.64-3.35,18.73-7.78,27.32-2.89,5.6-5.69,11.25-8.58,16.85-1.95,3.78-4.01,7.5-6.01,11.26-.4.75-.69,1.55-1.15,2.59,1.11,0,1.94.02,2.77,0,1.1-.03,2.21-.15,3.31-.11,3.17.11,4.39,1,5.32,4.02,1.44,4.67,2.68,9.4,3.12,14.29.02.21.12.41.26.89,1.62-2.9,2.36-5.85,3.06-8.81,1.17-4.93,1.64-9.93,1.88-14.98.21-4.41.65-8.8,1.1-13.19.22-2.15,1.01-4.12,2.53-5.74,1.28-1.36,1.91-2.97,2.25-4.84.31-1.73,1.18-3.36,1.89-5.27,2.53,0,4.89.03,7.24,0,3.71-.06,7.41-.14,11.11-.25,3.01-.09,3.79.67,3.72,3.7-.03,1.26-.12,2.53.01,3.78.08.73.37,1.6.87,2.1,1.04,1.05,2.21,2,3.46,2.78.51.32,1.4.27,2.03.1,1.82-.5,3.6-1.14,5.39-1.73,1.87-.62,3.7-1.35,5.6-1.85,4.63-1.21,7.59.52,9.02,5.14.09.3.17.6.32,1.13h7.02c1.97,0,3.94.02,5.92-.01.62,0,1.39.07,1.83-.25,1.37-1.02,2.86-.83,4.32-.62,3.13.46,6.17,1.28,9.02,2.69.71.35,1.65.56,2.05,1.13,1.3,1.9,3.25,1.98,5.19,2.23,2.1.27,2.61.66,2.61,2.86,0,2.75-.24,5.51-.47,8.26-.52,6.36-1.1,12.72-1.66,19.09-.44,5.03-.78,10.06-1.36,15.08-.37,3.26.25,5.93,2.59,8.42,1.91,2.04,3.46,4.5,4.79,6.98,1.37,2.56,1.85,5.18-.29,7.92-2.45,3.13-5.67,5.18-8.75,7.49-2.2,1.64-4.53,3.19-6.41,5.16-1.77,1.85-3.11,4.13-4.48,6.31-1.36,2.16-2.93,4.08-5.02,5.58-1.63,1.17-1.63,1.22-.9,3.11,4.56,11.82,9.11,23.65,13.73,35.46,1.03,2.62,2.44,5.09,3.43,7.72,1.07,2.83,1.84,5.77,2.75,8.66,1.12,3.52,2.26,7.03,3.39,10.56,2.3,7.21,4.16,14.52,5,22.06.35,3.11.85,6.19,1.26,9.29.04.31-.02.63-.02.94,0,2.03-.1,4.07.07,6.09.1,1.23.25,2.39.16,3.66-.14,2.17.28,4.37.39,6.56.05,1.02-.19,2.05-.1,3.06.34,3.91.74,7.81,1.18,11.71.08.68.46,1.32.67,1.9-1.38,4.25-4.54,6.99-7.91,9.77.11.56.18,1.17.36,1.75,4.92,15.58,8.34,31.52,11.35,47.55.84,4.49,1.35,9.04,1.9,13.58.73,6.01,1.22,12.06,2.06,18.06.66,4.67,1.41,9.36,2.69,13.88.6,2.14.9,4.37,1.73,6.45.78,1.95,1.11,4.06,1.83,6.01,1.06,2.87,1.52,5.86,2.28,8.79,2.1,8.1,2.31,19.85.93,27.05-.89,4.65-3.54,8.17-6.88,11.24-1.38,1.27-3.03,2.25-4.61,3.3-.58.38-1.27.65-1.94.81-3.98.93-7.96,1.9-11.97,2.68-2.22.43-4.52.44-6.77.76-5.95.85-11.88.83-17.86.23-7.9-.79-15.51-2.83-23.13-4.87-2.59-.69-3.51.14-3.14,2.78.53,3.72.93,7.45,1.44,11.18.11.83.44,1.62.68,2.43.08.29.31.62.24.86-.72,2.53.13,4.92.53,7.38.31,1.93.04,3.96.43,5.85.42,2.01.36,4.01.51,6.02.31,4.3.82,8.58,1.16,12.87.11,1.4-.08,2.83-.13,4.24h-1.42c.02-.7.1-1.41.06-2.11-.28-4.63-.49-9.28-.89-13.9-.52-5.95-1.17-11.9-1.81-17.84-.68-6.42-1.46-12.82-2.08-19.25-.13-1.39-.79-1.88-1.96-2.21-5.15-1.46-10.29-2.96-15.44-4.44-.89-.26-1.79-.51-2.7-.77-.27.36-.48.59-.63.86-4.96,8.69-9.92,17.38-14.83,26.1-.4.71-.55,1.63-.56,2.46-.01,3.78.21,7.57.08,11.34-.19,5.27-.6,10.52-.95,15.78-.09,1.33-.29,2.65-.43,3.98h-.95c.02-.63-.03-1.27.08-1.88,1.58-9.07,1.35-18.22,1.32-27.36,0-.36-.07-.71-.16-1.51-.63.8-1,1.26-1.35,1.73-3.67,4.84-7.19,9.79-11.04,14.47-2.24,2.72-4.92,5.1-7.57,7.45-2.75,2.44-5.84,2.94-9.14.92-1.14-.7-2.39-1.22-3.53-1.92-4.42-2.74-8.88-5.44-13.21-8.32-11.22-7.48-22.38-15.05-33.57-22.58-.63-.43-1.31-.79-2.08-1.25-.13.52-.22.81-.27,1.1-1.43,8.23-2.87,16.46-4.26,24.69-.81,4.81-1.55,9.64-2.32,14.46h-.95c2.24-13.64,4.47-27.29,6.73-41.09-4.19-2.73-8.37-5.45-12.66-8.24-.44,1-.79,1.7-1.07,2.43-3.31,8.67-6.75,17.3-9.88,26.04-2.46,6.88-4.54,13.9-6.79,20.86h-.95c.2-.84.34-1.7.62-2.51,3.6-10.41,7.21-20.82,10.82-31.23.28-.81.57-1.62.85-2.42-.19-.1-.39-.19-.58-.29-9.79,11.52-17.92,24.29-26.86,36.44h-.95c.3-.54.55-1.12.91-1.63,5.35-7.5,10.76-14.96,16.07-22.48,3.64-5.15,7.44-10.17,11.98-14.57.28-.27.61-.55.76-.9,1.4-3.4,2.76-6.82,4.17-10.33-.83-.52-1.47-.91-2.08-1.3-.4.26-.67.41-.92.6-8.81,6.62-17.62,13.24-26.42,19.89-.74.56-1.4,1.27-1.97,2.01-6.03,7.78-12.05,15.56-18.05,23.37-1.34,1.74-2.58,3.56-3.86,5.35h-.95Zm109.87-13.99c4.2-4.87,8.26-9.49,12.23-14.18,6.12-7.23,12.07-14.56,16.9-22.76,10.07-17.07,19.12-34.65,27.59-52.56,4.96-10.49,8.5-21.35,9.73-32.94.77-7.28,1.77-14.54,2.59-21.82.34-3.04.5-6.11.75-9.26-2.82-1.67-5.47-3.4-8.26-4.82-1.03-.53-2.52-.72-3.62-.42-2.19.59-3.9-.05-5.47-1.36-1.33-1.11-2.54-2.36-3.78-3.57-2.2-2.15-4.36-4.33-6.59-6.45-.58-.56-1.34-.93-2.12-1.46-.08.46-.15.62-.13.77,1.18,6.21,1.79,12.46,1.34,18.79-.62,8.54-2.85,16.45-8.6,23.06-9.69,11.15-20.16,21.53-30.97,31.57-.42.39-.92.71-1.74,1.34.29-1.58,1.24-2.07,1.94-2.72,10.25-9.6,20.19-19.51,29.49-30.05,4.18-4.74,6.75-10.22,8.03-16.37,1.66-8,1.26-15.99-.11-23.97-.62-3.6-.67-3.74-4.36-3.82-3.09-.06-5.72-1.07-8.01-3.01-2.82-2.4-5.56-4.9-8.34-7.34-1.47-1.3-3.19-2.4-4.39-3.92-1.73-2.2-3.78-3.71-6.39-4.64-3.62-1.28-6.45-3.57-8.47-6.86-.96-1.56-2.3-2.73-4.01-3.48-.71.61-1.32,1.11-1.9,1.64-13.62,12.6-26.45,25.96-38.53,40.05-6.88,8.02-13.86,15.94-20.82,23.9-.41.47-.94.83-1.41,1.24-.15-.17-.29-.34-.44-.51,19.99-22.86,39.28-46.37,62.33-66.8-1.34-.78-2.37-1.32-3.33-1.96-2.16-1.44-4.64-2.61-6.34-4.48-3.18-3.52-6.95-6.15-10.9-8.63-3.82-2.4-7.34-5.16-10.43-8.48-3.91-4.19-8.54-7.47-13.6-10.13-3.23-1.7-6.62-3.11-10.3-3.25-3.35-.13-6.55-.91-9.77-1.65-1.61-.37-3.22-.75-4.84-1.11-5.94-1.32-11.72-1.17-17.27,1.71-2.31,1.2-4.76,2.1-7.1,3.23-9.08,4.41-18.17,8.79-27.19,13.31-5.97,2.99-10.37,7.64-13.38,13.59-1.1,2.18-2.28,4.35-3.09,6.64-3,8.47-5.76,17.02-8.8,25.48-2.01,5.58-2.67,11.28-2.72,17.17-.05,5.94.54,11.81,1.2,17.68.84,7.51,1.74,15.02,2.83,22.5,1.25,8.54,4.58,16.21,10.42,22.66,5.41,5.97,11.05,11.72,17.68,16.36,10.93,7.63,21.83,15.31,32.91,22.71,26.96,18,54.02,35.85,81.04,53.76,2.75,1.82,5.51,3.65,8.51,5.64Zm-54.41-382.37c.2.04.4.08.6.12.3-.68.62-1.36.9-2.05,1.02-2.47,1.87-5.03,3.07-7.42,2.95-5.84,6.02-11.62,9.11-17.39,5.55-10.36,11.18-20.67,16.71-31.04,2.23-4.18,4.04-8.55,5-13.23,2.03-9.9,3.08-19.93,3.81-29.99.37-5.11.42-10.24.74-15.35.33-5.29.33-10.54-.98-15.72-.12-.45-.17-.94-.18-1.41-.06-2.74,1.64-4,4.15-2.89,1.42.63,2.72,1.59,3.94,2.57,4.63,3.69,7.14,8.76,8.86,14.25,4.62,14.74,6.1,29.91,5.71,45.27-.16,6.13-.77,12.27-1.64,18.35-2.5,17.33-6.13,34.45-10.54,51.39-2.89,11.13-6.21,22.16-9.34,33.23-.25.9-.48,1.81-.72,2.71l.51.16c.62-1.17,1.33-2.3,1.86-3.51,3.85-8.9,7.8-17.76,11.45-26.74,4.6-11.32,8.96-22.74,13.41-34.12.17-.44.4-.91.38-1.35-.08-1.55.74-2.69,1.55-3.86.71-1.03,1.43-2.08,2.01-3.19,3.8-7.35,7.54-14.74,11.36-22.09,3.11-5.98,5.48-12.23,7.02-18.78,2.29-9.79,3.14-19.59.19-29.43-1.93-6.43-3.66-12.94-7.93-18.33-5.68-7.16-12.25-13.43-20.1-18.12-9.49-5.66-19.55-10.26-29.87-14.22-3.57-1.37-6.74-3.14-9.18-5.97-3.49-4.04-7.85-6.57-12.92-7.86-7.79-1.99-15.59-3.93-23.44-5.65-5.24-1.14-10.61-1.84-15.97-1.39-9.84.83-19.48,2.91-28.93,5.73-5.11,1.53-9.85,3.91-13.79,7.57-4.56,4.24-9.11,8.5-13.45,12.96-3.51,3.62-6.76,7.52-9.1,12.05-3.65,7.09-6.87,14.37-9.43,21.93-4.57,13.47-6.41,27.44-7.01,41.58-.24,5.58.2,11.19.19,16.78-.02,6.54-.09,13.08-.35,19.61-.19,4.8-.55,9.6-1.16,14.36-.26,2,.35,3.26,1.88,4.14,1.56.9,3.22,1.67,4.91,2.29,3.33,1.21,6.73,2.25,10.09,3.38,5.35,1.81,9.84,4.93,13.62,9.1.42.47.87.91,1.31,1.37,1.43,1.5,2.97,1.77,4.9.8,13.12-6.62,25.85-13.87,37.37-23.07,3.72-2.97,7.68-5.52,11.93-7.62,2.9-1.43,5.82-2.82,8.73-4.23,5.18-2.52,10.36-5.06,14.68-8.98,3.38-3.07,5.62-6.77,6.09-11.41.84-8.34,4.09-15.7,9.38-22.11,3.71-4.5,7.72-8.74,11.61-13.09,1.73-1.94,3.47-3.87,5.27-5.75.7-.73,1.54-1.55,2.68-1.01,1.07.51,1.15,1.64,1.16,2.67.02,1.26.05,2.53-.09,3.78-.66,5.79-1.33,11.58-2.08,17.36-.55,4.22-1,8.46-1.9,12.61-2.12,9.78-6.12,18.9-10.79,27.68-4.48,8.42-9.3,16.66-14,24.96-1.81,3.19-3.09,6.57-3.62,10.19-.36,2.48-.65,5,.41,7.4Zm112.36,334.8c.97.34,1.75.68,2.56.89,6.92,1.82,13.65,4.35,20.74,5.58,3.79.66,7.45,2.03,11.22,2.79,5.01,1.01,10.06,2.1,15.14,2.52,10.63.88,21.06-.84,31.39-3.27,7.16-1.68,14.46-8.82,15.28-16.89.86-8.53.76-17-1.54-25.33-1.19-4.33-2.23-8.71-3.58-12.99-3.48-11.05-4.83-22.47-6.08-33.91-1.33-12.15-3.09-24.23-5.79-36.16-3.3-14.61-6.85-29.17-12.11-43.22-6.14-16.39-12.44-32.72-18.91-48.98-4.93-12.38-10.11-24.65-15.45-36.86-2.36-5.41-5.42-10.51-8.08-15.79-.78-1.54-1.38-3.18-1.92-4.82-.53-1.6-.25-3.16.89-4.43,2.16-2.4,4.24-4.89,6.58-7.1,4.73-4.46,10.17-7.97,15.68-11.36,2.94-1.81,5.57-3.9,7.14-7.04,2.63-5.26,6.76-8.96,11.7-12.02,2.51-1.56,4.64-3.75,6.89-5.71,2.55-2.24,2.46-4.89,1.11-7.74-1.58-3.32-4.02-5.98-6.57-8.93-.52,1.93-1.79,2.2-3.33,2.04-.53-.06-1.09.13-1.89.25,1.74,1.27,3.84,1.25,5.24,3.43-1.06-.41-1.62-.58-2.15-.83-7.76-3.64-15.7-3.55-23.76-1.19-1.48.43-2.33,1.31-2.9,2.78-1.23,3.15-2.68,6.23-4.07,9.32-.18.41-.56.73-.85,1.08-.16-.09-.31-.18-.47-.26.35-.84.72-1.67,1.06-2.51,2.17-5.41,4.76-10.7,6.4-16.27,1.94-6.59,4.03-13.11,6.54-19.49,1.8-4.56,3.29-9.2,4.21-14.01.46-2.4.96-4.79,1.44-7.19.64-3.25,1.35-6.48,1.9-9.75.58-3.47-1.96-5.75-5.09-4.59-1.53.57-3.11,1.22-4.39,2.2-5.02,3.85-9.31,8.36-11.18,14.59-1.06,3.54-1.92,7.17-2.43,10.82-1.07,7.61-4.12,13.98-10.36,18.7-2.53,1.91-4.4,4.48-6.13,7.16.15.43.22.84.42,1.15,1.23,1.87,1.45,3.96,1.42,6.12-.03,3.08.01,6.15-.05,9.23-.03,1.72.32,3.24,1.38,4.65.43.57.8,1.53.62,2.13-.57,1.88-.03,3.36,1.03,4.86,1.05,1.48.99,3.11.27,4.73-.83,1.87-2.13,3.29-3.93,4.27-1.28.69-2.42,1.56-2.78,3.06-.43,1.75-1.43,2.73-3.17,2.66-.32.72-.49,1.36-.85,1.86-1.76,2.42-3.54,4.84-5.39,7.19-.47.59-1.18,1.24-1.87,1.36-1.83.32-2.58,1.53-3.2,3.04-.48,1.17-1.07,2.29-1.62,3.42-4.87,10-9.68,20.03-15.51,29.52-.98,1.6-1.32,3.07-.85,4.87,2.28,8.68,4.25,17.45,6.8,26.04,3.32,11.18,6.98,22.26,9.39,33.7,1.97,9.34,3.63,18.72,3.61,28.32-.03,12.39,0,24.77,0,37.16,0,.85,0,1.7,0,2.65,2.56-.17,4.51.81,6.41,2,1.87,1.17,3.74,2.35,5.67,3.43,5.25,2.97,9.85,6.78,14.47,10.61,2.83,2.35,3.77,5.29,4.18,8.64.08.62.05,1.26.07,1.89.23,6.12-.99,12.08-2.14,18.04-.21,1.11-.22,1.94.68,2.75,4.61,4.19,9.11,8.5,13.81,12.57,1.56,1.36,3.62,2.14,5.43,3.21.14.08.16.36.42,1.04-1.12-.37-1.97-.5-2.65-.9-1.35-.8-2.73-1.62-3.9-2.66-4.12-3.66-8.17-7.42-12.24-11.15-.62-.57-1.24-1.15-2.06-1.93-.3,1.1-.53,1.9-.73,2.71-1.98,7.97-4.28,15.86-7.77,23.3-4.52,9.63-9.31,19.14-14.04,28.68-1.67,3.38-3.5,6.68-5.37,10.25Zm-1.32-111.86c.05-.78.14-1.46.14-2.14.05-7.18.11-14.36.13-21.54,0-1.01,0-2.1-.35-3.01-3.06-8.03-5.8-16.21-9.39-23.99-7.28-15.74-15.03-31.27-22.6-46.88-1.27-2.62-2.57-5.22-4.02-8.15-1.44,1.9-2.79,3.53-3.97,5.27-3.42,5.03-8.07,8.34-13.79,10.26-.64.21-1.23.55-1.84.83,1.9,4.22,6.63,11.78,10.59,16.46,3.08,3.64,5.58,7.63,7.87,11.78,7.76,14.11,14.5,28.72,21.21,43.34.24.53.35,1.12.62,1.98-1.43-.6-1.51-1.73-1.9-2.58-6.54-14.18-13.08-28.36-20.64-42.04-1.94-3.51-4.05-6.98-6.5-10.14-3.39-4.37-6.67-8.79-9.49-13.55-.96-1.62-1.9-3.25-2.75-4.71-3.99.48-7.8,1.28-11.62,1.29-3.88.02-7.76-.74-11.96-1.19,1.21,1.25,2.28,2.36,3.36,3.46,1.16,1.18,2.34,2.35,3.51,3.52,1.12,1.12,2.23,2.23,3.35,3.35,1.17,1.17,2.35,2.33,3.53,3.5,1.12,1.11,2.24,2.23,3.37,3.33,1.13,1.1,2.28,2.18,3.4,3.29,1.18,1.16,2.35,2.33,3.53,3.5,1.12,1.11,2.24,2.23,3.36,3.33,1.18,1.16,2.36,2.33,3.55,3.48,1.13,1.1,2.27,2.19,3.4,3.29,1.19,1.16,2.39,2.3,3.53,3.5,1.01,1.07,2.27,1.95,2.84,3.42-.71-.22-1.26-.62-1.73-1.08-3-2.91-6.01-5.82-8.98-8.76-10.48-10.38-20.94-20.79-31.43-31.16-.59-.58-1.36-1.09-2.14-1.33-9.35-2.84-18.72-5.63-28.08-8.42-.45-.13-.94-.15-1.41-.23.31.66.71,1.01,1.14,1.33,4.56,3.51,9.19,6.94,13.66,10.56,8.2,6.62,13.92,15.18,18.54,24.53.16.33.09.77.13,1.16-.85-.66-1.29-1.46-1.71-2.27-4.63-8.9-10.22-17.06-18.24-23.29-5.6-4.35-11.29-8.6-16.98-12.84-.87-.64-1.9-1.17-2.93-1.47-8.59-2.54-16.7-6.2-24.61-10.33-14.12-7.38-28.36-14.5-42.81-21.22-5.08-2.36-10.17-4.71-15.68-5.9-6.25-1.35-12.61-1.94-18.97-2.46-1.23-.1-2.29.15-3.27,1-1.37,1.19-2.8,2.32-4.28,3.36-1.28.9-1.79,1.96-1.76,3.56.13,7.02.13,14.04.19,21.06.04,4.36,1.12,8.48,3.56,12.08,2.02,2.99,4.15,5.99,6.67,8.56,6.29,6.42,12.78,12.65,19.29,18.84,3.82,3.64,7.85,7.06,11.8,10.6,1.69-1.1,3.2-2.24,4.85-3.15,12.51-6.9,25.51-12.8,38.6-18.49,2.57-1.12,5.37-1.55,8.11-1.25,3.82.41,7.6,1.26,11.4,1.93,3.1.55,6.2,1.11,9.29,1.67,1.93.35,3.97.43,5.76,1.15,3.13,1.26,6.1,2.92,9.13,4.41.51.25,1.01.52,1.52.78-.16-.7-.46-1.15-.81-1.57-4.92-5.87-10.08-11.5-15.6-16.81-3.58-3.44-7.63-6.07-12.21-7.96-6-2.47-12.22-4.2-18.51-5.73-7.12-1.73-14.23-3.53-21.37-5.15-3.6-.82-7.25-1.57-10.92-1.87-6.69-.53-13.4-.41-20.07.4-4.39.53-8.76,1.13-12.8,3.09-.13.07-.38-.1-.89-.24.63-.45,1-.85,1.46-1.01,1.86-.64,3.71-1.45,5.63-1.73,4.59-.67,9.22-1.13,13.84-1.55,6.63-.61,13.25-.3,19.77.98,4.71.93,9.32,2.35,13.99,3.45,8.44,2,16.93,3.77,25.16,6.55,7.12,2.41,13.51,5.88,18.86,11.33,5.69,5.81,11.2,11.76,16.36,18.04,5.35,6.5,11.34,12.23,18.6,16.62,2.67,1.62,5.23,3.59,7.42,5.81,2.36,2.4,4.92,4.41,7.83,6.02,1.66.91,3.36,1.77,4.91,2.84,1.22.84,2.56,1.77,3.29,2.99,2.28,3.83,5.66,6.01,9.7,7.52,1.22.46,2.57,1.13,3.36,2.11,2.66,3.28,6.11,5.68,9.11,8.57,1.81,1.75,3.82,3.29,5.74,4.92,2.14,1.81,4.62,2.65,7.41,2.65,2.63,0,4.98.88,6.97,2.54,1.69,1.41,3.27,2.96,4.86,4.49,1.92,1.87,3.76,3.82,5.71,5.66,1.08,1.02,2.33,1.84,4.13,1.84Zm-102.52-165.55c-.51-.18-.88-.41-1.24-.41-2.49-.03-3.69-1.53-4.26-3.7-.44-1.67-.92-3.36-1.13-5.07-.8-6.49-1.61-12.97-2.21-19.48-.41-4.45-1.11-9.04,2.55-12.8-3.43-3.63-5.08-7.61-3.18-12.4-.81-.65-1.48-1.2-2.15-1.73-9.38-7.33-18.78-14.63-28.12-22.02-3.35-2.65-6.84-5.05-10.63-7.03-1.19-.62-2.02-.64-3.18.19-9.94,7.01-20.43,13.11-31.33,18.51-.34.17-.64.4-.91.57-.15,1.21-.3,2.31-.42,3.4-1.29,11.58-2.54,23.17-3.89,34.74-1.06,9.12-3.9,17.68-8.58,25.59-2.53,4.27-5.21,8.46-7.81,12.69-.35.56-.65,1.16-1.04,1.86.63.19.99.32,1.36.42,3.21.81,6.41,1.63,9.62,2.4.84.2,1.71.26,2.57.37,8.12,1.07,16.3,1.81,24.34,3.28,10.05,1.84,20.16,2.56,30.31,2.81,6.38.16,12.77-.05,19.14-.3,3.29-.13,6.61-.51,9.85-1.12,4.89-.92,7.69-4.05,8.46-8.89.52-3.27,1.1-6.53,1.64-9.79.11-.68.15-1.38.23-2.09ZM44.03,166.09c-.13.14-.41.41-.64.72-9.06,12.39-16.94,25.47-22.91,39.64-2.76,6.54-5.3,13.2-6.34,20.26-1.7,11.53-3.21,23.09-4.68,34.66-1.1,8.67-2.07,17.36-3.01,26.06-1.1,10.26-2.12,20.52-3.12,30.78-.66,6.82-1.3,13.64-1.81,20.48-.26,3.45-.54,6.9.33,10.35,1.74,6.97,3.39,13.96,7.45,20.06.27.4.61.76,1.04,1.28.13-.51.22-.73.23-.95.27-7.48.53-14.96.8-22.44.17-4.8.3-9.61.56-14.41.12-2.2.36-4.4.76-6.56,1.22-6.53,3.42-12.78,5.68-19.01,1.97-5.41,3.91-10.81,7.25-15.61,5.39-7.76,11.62-14.71,19.16-20.45,2-1.52,3.91-3.14,5.91-4.76-1.49-1.62-1.9-3.44-1.75-5.38.13-1.64.3-3.3.66-4.9.5-2.26,1.69-3.33,3.96-3.3,2.42.03,4.9.17,7.24.74,4.59,1.12,3.55,1.4,5.98-2.21,4.28-6.35,8.16-12.94,11.24-19.97.53-1.2.39-2.05-.24-3.24-1.63-3.04-3.19-6.17-4.33-9.42-2.72-7.76-4.12-15.85-5.24-23.98-.64-4.67-1.13-9.37-1.7-14.17-8.51-3.04-14.77-9.67-22.49-14.28Zm122.05,22.61c-1.34-.05-1.74.51-1.87,1.53-.29,2.27-.04,4.43,1.25,6.35.83,1.24,1.76,2.43,2.77,3.53,11.83,12.92,24.23,25.27,36.91,37.35,1.2,1.14,2.45,2.24,3.8,3.19,2.15,1.53,2.96,1.41,4.51-.72,1.81-2.48,3.58-5.01,5.25-7.58,9.86-15.13,19.69-30.28,29.52-45.43.69-1.06,1.36-2.13,1.93-3.25.87-1.7.62-2.27-1.19-2.66-2.15-.47-4.36-.71-6.49-1.25-6.33-1.58-12.68-3.1-18.52-6.67-.4.97-.72,1.75-1.05,2.54-4.72,11.35-9.4,22.72-14.2,34.04-1.13,2.68-2.62,5.21-4.02,7.76-.34.62-.61,1.52-1.97,1.4.05-.81,0-1.64.17-2.42.3-1.39.71-2.75,1.09-4.11,3.12-11.07,6.28-22.14,9.35-33.22.96-3.47,1.7-7,2.56-10.59-5.35-2.8-10.49-5.53-15.67-8.19-5.09-2.62-11.85-1.25-15.58,3.13-4.24,4.98-8.45,9.99-12.63,15.02-2.06,2.48-4.04,5.04-6.03,7.59-.61.78-1.08,1.62.14,2.65Zm124.22,225.03c-.24.99-.46,1.57-.52,2.16-.98,9-1.88,18.01-2.92,27.01-1.25,10.87-3.9,21.33-8.51,31.33-7.87,17.05-16.37,33.76-25.7,50.05-3.96,6.91-8,13.78-13.15,19.91-5.94,7.06-11.93,14.06-17.89,21.1-.49.58-.94,1.19-1.62,2.05,4.15,2.32,8.06,4.51,11.97,6.7,2.08,1.17,4.16,1.01,5.98-.39,2.18-1.67,4.39-3.38,6.25-5.38,5.82-6.24,10.96-13.03,15.42-20.32,11.62-18.98,21.88-38.69,31.78-58.61,7.9-15.89,13.11-32.56,15.23-50.19.47-3.95.55-7.88-.74-11.69-.36-1.06-1.04-2.13-1.85-2.91-1.98-1.91-4.06-3.74-6.23-5.44-2.34-1.83-4.82-3.48-7.5-5.39Zm32.41-182.58c-2.32,1.54-4.56,2.99-6.75,4.49-5.17,3.54-9.86,7.58-13.8,12.5-1.33,1.66-1.77,3.32-.95,5.23.89,2.1,1.85,4.18,2.87,6.22,3.06,6.14,6.52,12.1,9.19,18.4,6.01,14.15,11.78,28.4,17.38,42.71,6.09,15.56,11.88,31.24,17.81,46.86.1.27.32.5.66,1.02,1.73-1.72,3.38-3.26,4.92-4.92,1.31-1.41,1.66-3.11,1.36-5.05-.5-3.19-1.02-6.39-1.21-9.61-.4-6.61-.5-13.23-.89-19.84-.31-5.19-.67-10.38-1.37-15.53-1.03-7.6-3.31-14.92-5.69-22.19-6.56-20.02-14.61-39.47-22.76-58.88-.18-.42-.44-.81-.79-1.43Zm-119.48-70.4c.35-.2.65-.32.89-.51,2.52-2.07,5.43-3.12,8.66-3.42,1.94-.18,3.86-.5,5.81-.76.17-.72.31-1.25.41-1.79,1.49-8.06,3.12-16.09,4.42-24.18,1.25-7.78,2.2-15.61,2.09-23.52-.12-9.48-.9-18.89-2.56-28.22-1.12-6.3-2.64-12.49-5.25-18.37-1.9-4.3-4.8-7.77-8.71-10.36-1.08-.72-2.37-1.72-3.68-.78-1.31.93-.67,2.4-.47,3.72.38,2.48.86,4.98.9,7.48.07,4.65-.11,9.3-.25,13.95-.34,10.72-1.46,21.37-2.95,31.99-1.11,7.88-3.28,15.38-7.15,22.39-4.19,7.6-8.23,15.27-12.34,22.91-.33.61-.6,1.24-.95,1.95,2.06,1.67,4.04,3.22,5.95,4.85.81.69,1.54.82,2.58.53,3.79-1.04,7.49-.9,10.92,1.3.46.29.99.49,1.67.82Zm-92.47,114.49c.68.56.95.83,1.26,1.03,7.57,4.71,15.07,9.51,22.73,14.07,8.48,5.06,17.23,9.64,26.75,12.41,10.67,3.1,21.4,6,32.14,8.83,6.48,1.71,13.08,2.87,19.77,3.44,1.47.13,2.91-.07,4.43-.66-.3-.59-.49-1.02-.72-1.41-4.09-7.11-8.44-14.07-13.36-20.64-2.7-3.6-5.49-7.14-9.04-9.96-5.86-4.66-11.77-9.27-17.67-13.88-.48-.37-1.05-.63-1.58-.95-.89,1.21-.04,1.82.61,2.48,3.29,3.34,5.57,7.22,6.43,11.88.2,1.08.48,2.15.74,3.23,1.3,5.39,3.95,9.9,8.44,13.3,4.77,3.62,9.46,7.35,14.18,11.04.62.48,1.46.8,1.79,2.07-.72-.33-1.16-.45-1.49-.7-5.47-4.27-10.96-8.51-16.37-12.85-3.22-2.58-5.4-5.94-6.62-9.88-.67-2.18-1.3-4.39-1.75-6.62-.79-3.92-2.75-7.18-5.34-10.13-.32-.36-.78-.59-1.34-1.01-.87,4.46-3.33,7.33-7.26,8.94-1.16.48-2.36.93-3.59,1.17-6.52,1.31-13.11,1.7-19.75,1.09-.49-.05-.99,0-1.48,0,6.65,4.45,13.39,8.48,20.14,12.51,6.79,4.04,13.72,7.84,20.38,12.13-1.02.43-1.68-.24-2.37-.65-13.41-7.84-26.8-15.71-40.23-23.53-1.06-.62-2.28-1.09-3.48-1.34-8.09-1.74-16.19-3.4-24.29-5.09-.52-.11-1.04-.16-2.07-.31Zm161.55-40.23c-.44.31-.59.38-.69.49-7.37,8.34-14.48,16.9-20.27,26.43-6.84,11.27-12.86,22.98-17.52,35.35-1.53,4.07-3.35,8-6.04,11.47-4.09,5.27-9.36,7.84-16.08,7.07-2.58-.3-5.16-.64-7.72-1.09-9.87-1.75-19.55-4.3-29.16-7.12-7.1-2.08-14.25-4.12-21.17-6.72-9.71-3.64-18.59-8.99-27.32-14.52-12.99-8.23-26-16.45-39.76-23.36-4.21-2.11-8.57-4.02-13.03-5.5-4.55-1.51-9.28-2.49-13.98-3.49-2.05-.43-4.21-.43-6.32-.44-1.02,0-2.08.46-2.44,1.58-.86,2.73-1.33,5.51-.64,8.36.29,1.2,1.03,1.79,2.36,1.87,3.77.23,7.54.55,11.3.93,7.34.74,14.42,2.47,21.15,5.6,13.52,6.27,26.97,12.67,40.16,19.62,8.23,4.34,16.42,8.86,25.3,11.72,14.63,4.71,29.36,9.09,44.06,13.55,6.88,2.09,13.84,2.8,20.99,1.16,8.43-1.94,15.33-5.69,20.63-12.99,14.65-20.17,27.66-41.25,37.95-63.98.42-.92.82-1.85,1.24-2.8-1.04-1.1-1.99-2.11-3.02-3.19Zm-137.82-71.4c9.99,7.81,19.8,15.48,30.01,23.47,0-.91.16-1.43-.03-1.65-.95-1.1-1.08-2.39-1.16-3.75-.29-5.02.84-9.72,3.25-14.08,2.98-5.38,6.1-10.68,9.15-16.01.46-.8.86-1.63,1.33-2.52-5.46-5.69-10.8-11.25-16.18-16.85-5.33,4.4-11.32,7.23-17.32,10.03-7.1,3.3-13.98,6.93-19.86,12.22-.38.34-.72.74-1.13,1.16,3.26,1.96,6.32,3.87,9.46,5.66,3.56,2.04,5.94,1.12,7.34-2.73.35-.97.66-1.95,1.15-3.4.74,4.21-1.52,7.26-6.02,8.46Zm105.42,107.8c1.59-1.23,2.51-2.96,3.25-4.79,2.57-6.32,3.26-12.78,1.39-19.42-3-10.7-5.51-21.51-7.58-32.43-.4-2.11-.82-4.22-1.33-6.83-.76,1.11-1.21,1.73-1.62,2.38-3.83,5.97-7.6,11.98-11.49,17.91-2.81,4.28-5.76,8.47-8.66,12.7-1,1.46-2.28,2.12-4.06,1.37-.49-.21-1.08-.29-1.61-.27-3.14.16-6.29.36-9.43.56-.19.01-.38.2-.58.31,4.24,4.96,32.92,24.55,41.72,28.51Zm-64.41-15.77c0,3.41.03,6.53-.02,9.65-.01.98.65,1.36,1.27,1.83,3.21,2.42,6.45,4.81,9.64,7.25,7.22,5.53,14.21,11.3,19.28,18.98,4.12,6.25,8.1,12.59,12.14,18.89.44.68.9,1.35,1.31,1.95,3.24-1.17,5.53-3.07,7.46-5.42,3.21-3.89,5.18-8.45,6.81-13.16.24-.69-.04-1.71-.38-2.43-1.89-3.99-3.9-7.92-5.79-11.9-.56-1.18-1.28-1.74-2.63-1.95-6.27-.99-12.3-2.82-17.86-5.93-9.63-5.38-19.19-10.89-28.78-16.35-.73-.42-1.46-.84-2.46-1.41Zm1.99-107.43c.43-.69.71-1.06.92-1.47,2.29-4.58,4.7-9.1,6.83-13.75,3.63-7.89,6.58-16.03,7.75-24.7.78-5.77,1.46-11.55,2.12-17.34.37-3.28.65-6.57.87-9.87.06-.85-.29-1.72-.55-3.15-1.31,1.13-2.26,1.81-3.03,2.65-4.51,4.95-9.06,9.86-13.44,14.92-6.06,6.99-10.31,14.84-11.17,24.26-.38,4.15-2.29,7.65-5.13,10.66-.36.38-.65.82-1.01,1.28,5.27,5.49,10.45,10.88,15.84,16.49Zm-95.51,110.88c-.04.15-.08.3-.12.44.39.21.79.42,1.18.63,7.2,3.9,14.39,7.83,21.62,11.69,1.3.7,2.7,1.32,4.12,1.66,6.5,1.57,13.01,3.17,19.56,4.51,8.4,1.72,16.82,3.38,25.5,2.69,4.25-.34,8.48-.57,12.54-2.02,4.23-1.51,6.83-4.36,7.41-8.91.22-1.72.6-3.42.77-5.14.29-2.9.52-5.81-.27-8.69-.27-.97-.53-1.93-1.69-2.51-.26,1.22-.47,2.27-.71,3.31-.11.45-.18.98-.47,1.3-2.33,2.63-4.92,4.81-8.58,5.46-5.76,1.03-11.58,1.36-17.4,1.33-7.48-.03-14.97-.18-22.44-.5-4.32-.19-8.63-.68-12.92-1.28-8.42-1.18-16.81-2.53-25.21-3.79-.96-.14-1.94-.14-2.9-.2Zm172.37-122.58c-.81,18.37-1.2,36.51-1.93,54.88,5.35.29,10.42.56,15.48.83.55-4.47,2.25-53.43,1.55-55.7h-15.1Zm-80.5,109.08c-.33,1.8-.62,3.5-.95,5.19-.15.77-.01,1.37.63,1.88.67.54,1.2,1.28,1.91,1.72,11.42,7.01,22.83,14.06,34.99,19.75,5.69,2.66,11.69,4.34,17.98,4.57,3.61.13,7.24-.32,10.86-.36,1.45-.02,2.23-.52,2.91-1.81,2.46-4.67,5.06-9.27,7.59-13.9.3-.54.6-1.14.68-1.74.35-2.65.87-5.31.86-7.97-.02-2.32-.27-4.8-1.11-6.94-5.12-13.08-8.59-26.51-9.25-40.6-.06-1.37-.33-2.73-.5-4.1-.16-.05-.31-.11-.47-.16-.8,1.22-1.52,2.5-2.42,3.63-1,1.24-1.09,2.53-.77,3.99.4,1.85.73,3.71,1.08,5.57,2.05,10.93,4.65,21.72,7.54,32.45,2.42,8.98,1.13,17.47-4.3,25.2.17.36.35.75.49,1.06-.97.11-1.93,0-2.68.36-2.6,1.2-5.24,1.46-8.06,1.11-5.03-.63-9.63-2.45-13.91-5.02-4.46-2.68-8.94-5.37-13.11-8.46-9.08-6.74-19.23-11.34-29.99-15.41Zm33.35-4.49c-13.28-13.33-26.43-26.54-39.66-39.82-1.87,1.9-2.54,4.28-2.33,6.87.49,6.04.98,12.09,1.68,18.11.44,3.74,1.25,7.44,1.93,11.16.37,2,1.66,2.88,3.66,3.01,4.17.26,8.33.59,12.49.92,7.4.6,14.79.39,22.22-.25Zm53.17,100.35c4.12-1.46,7.24-3.8,10.02-6.65.75-.77.84-1.54.55-2.57-1.27-4.47-2.39-8.98-3.67-13.44-2.96-10.29-6.15-20.52-8.87-30.88-.83-3.17-2.34-4.92-5.42-5.72-2.55,3.68-5.8,7.07-4.98,12.19.11.68-.02,1.42-.1,2.12-.51,4.42-.44,8.99-3.18,12.88,5.21,10.67,10.38,21.28,15.66,32.07Zm-4.95-87.74c5.39-6.65,10.57-13.03,15.79-19.45-.2-.23-.4-.46-.61-.69-1.63-1.82-1.56-2.14-.08-3.96,1.69-2.07,3.25-4.25,4.83-6.41.82-1.11,1.22-2.59,2.93-2.83.33-.05.63-.66.85-1.07,1.65-3.13,3.36-6.24,4.87-9.44.51-1.09.72-2.43.68-3.64-.11-3.62-.4-7.23-.66-10.84-.05-.64-.31-1.26-.55-2.15-.75.93-1.28,1.6-1.82,2.25-1.77,2.17-3.9,3.92-6.5,4.98-2.35.96-4.15,2.52-5.71,4.44-2.9,3.57-5.18,7.53-7.1,11.68-3.18,6.88-5.19,14.18-7.42,21.39-1.56,5.06-1.2,10.28.51,15.74Zm-3.48,4.87c2.82-2.89,2.82-3.03,2.09-6.17-.81-3.46-1.25-6.94-.82-10.54.43-3.56,1.46-6.92,2.67-10.26.57-1.55,1.25-3.08,1.66-4.67,1.82-7.19,5.03-13.74,9.11-19.9.33-.5.59-1.04.95-1.67-8.24-2.85-15.45-7.02-21.13-13.47-.28.18-.45.23-.54.34-.55.77-1.02,1.61-1.64,2.31-2.43,2.78-3.2,5.86-2.59,9.58.86,5.28,1.06,10.66,1.91,15.94,1.35,8.43,4.04,16.52,7.16,24.45,1.12,2.84,1.61,5.75,1.46,8.78-.08,1.64-.18,3.28-.29,5.25Zm-173.17-30.52c2.77-4.24,8.58-46.79,7.07-51.54-2.85,1.46-5.33,3.55-8.49,4.36-3.19.81-6.33.32-9.61-.07,0,.85-.07,1.48.01,2.09.93,6.86,1.72,13.75,2.89,20.56,1.14,6.59,2.69,13.12,5.4,19.29.77,1.77,1.76,3.44,2.73,5.31Zm190.41-36.05c.73,0,1.18.02,1.63,0,3.54-.17,7.07-.33,10.61-.51,2.02-.11,2.3-.41,2.15-2.45-.29-3.84-.68-7.66-1.85-11.38-.53-1.69-.74-3.55-.75-5.33-.04-3.38.17-6.76.27-10.14.09-2.94-.36-5.79-1.17-8.62-.61-2.11-1.22-4.25-1.54-6.42-.39-2.68-.5-3.6,2.34-4.93.08-.04.08-.25.13-.43h-10.28c-.51,16.76-1.02,33.39-1.53,50.22Zm-30.39,80.05c-1.09-.64-1.9-1.11-2.7-1.59-8.33-4.95-16.71-9.83-24.43-15.74-4.76-3.64-9.53-7.26-14.26-10.92-1.04-.81-2.1-1.17-3.44-1.22-5.19-.21-10.37-.57-15.56-.85-1.24-.07-2.49,0-3.94,0-.12.83-.24,1.65-.37,2.54.81.42,1.48.83,2.19,1.14,2.67,1.16,5.32,2.39,8.04,3.41,4.83,1.81,9.3,4.26,13.57,7.12,4.91,3.28,9.74,6.71,14.76,9.82,3.54,2.19,7.26,4.11,11.04,5.86,3.31,1.53,6.9,2.19,10.59,1.97,1.5-.09,2.97-.28,4.49-1.53Zm49.22-68.53c-.18-7.25-.34-14.34-.53-21.42-.11-3.86-.23-7.71-.44-11.56-.2-3.79-.4-7.54.93-11.22.47-1.32.61-2.76.84-4.16.5-3.03.95-6.07,1.44-9.1.13-.77.21-1.62.58-2.27.4-.69,1.1-1.61,1.71-1.65.63-.04,1.49.75,1.95,1.39.48.67.76,1.57.88,2.41.8,5.84.28,11.47-2.75,16.69-.51.89-.93,1.83-1.44,2.71-2.51,4.37-2.97,9.16-2.89,14.05.04,2.36.29,4.72.33,7.08.09,4.89.11,9.77.17,14.66,0,.68.09,1.36.15,2.06h3.26c0-3.82,0-7.51,0-11.19,0-2.25-.58-4.29-1.61-6.33-1.36-2.7-1.87-5.61-1.41-8.71.54-3.63,2.13-6.76,4.14-9.69,2.06-3.01,3.36-6.27,3.64-9.86.26-3.37.35-6.76.27-10.13-.03-1.54-.49-3.12-1-4.6-1.03-2.95-4.38-4.56-7.09-3.09-2.7,1.46-5.4,2.79-8.31,3.73-1.24.4-1.72,1.34-1.51,2.59.28,1.63.44,3.31.98,4.85,2.29,6.49,2.1,13.2,1.68,19.88-.17,2.65.1,5.15.81,7.67.49,1.74,1.04,3.5,1.21,5.29.44,4.54.68,9.11,1.02,13.66.18,2.4.41,4.79.63,7.41.83-.41,1.44-.71,2.35-1.16Zm-63.82-31.42c7.15,4.38,14.9,5.9,22.82,7.66.05-1.01.14-1.7.12-2.39-.16-8-2.1-15.72-3.82-23.47-.49-2.19-2.22-3-4.25-3.06-1.64-.05-3.29.25-4.94.25-1.32,0-1.96.62-2.41,1.79-2.44,6.31-4.93,12.6-7.53,19.23Zm-140.38,4.33c-1.32-1.48-2.44-2.81-3.63-4.06-3.27-3.41-7.08-6-11.56-7.54-3.12-1.08-6.27-2.1-9.4-3.15-3.35-1.13-6.77-2.15-8.81-5.19-3.53.81-4.9,3.21-5.49,6.29-.3,1.55.11,2.77,1.44,3.7,4.77,3.34,9.5,6.75,14.31,10.04,2.62,1.8,5.58,2.92,8.71,3.49,5.4.98,10.3-.02,14.43-3.58Zm248.35-43.25c-.42,2.37-.75,4.38-1.13,6.38-.52,2.78-1.09,5.56-1.6,8.35-1.29,6.98-2.98,13.83-5.73,20.42-1.49,3.55-2.75,7.21-3.92,10.88-1.25,3.93-2.27,7.93-3.36,11.79,4.42-.67,8.73-1.32,13.12-1.98.04-.26.12-.56.14-.86.41-6.28.8-12.56,1.23-18.84.75-10.91,1.53-21.81,2.27-32.72.08-1.13,0-2.3-1.02-3.4Zm-71.26,209.17c2.77,5.99,5.5,11.58,7.95,17.29,2.44,5.7,4.6,11.52,6.88,17.28.22-7.1.54-14.1-.36-21.08-.9-6.9-2.05-13.74-3.84-20.85-3.24,3.28-6.54,5.77-10.63,7.35Zm79.31-205.2c.37,17.49-2.1,34.64-3.18,52h5.15c.19-1.27.45-2.41.52-3.57.15-2.59.11-5.18.31-7.76.51-6.59,1.1-13.17,1.66-19.75.45-5.25.93-10.5,1.32-15.76.12-1.69.48-3.45-.57-5.16h-5.2Zm-49.45,46.25c.77-.94,1.22-1.57,1.75-2.13,1.56-1.66,3.04-3.42,4.78-4.88,1.16-.98,1.57-2.02,1.61-3.43.1-3.7.11-7.41.44-11.08.78-8.54,1.75-17.05,2.62-25.58.13-1.29.16-2.6.25-3.97h-13.59c-.42,2.58-.38,4.41.12,6.17.53-.05,1.07-.09,1.61-.15,3.53-.4,5.72.94,6.93,4.3.21.59.38,1.2.51,1.82.82,4.05.77,8.13.32,12.2-.43,3.95-1.55,7.66-3.87,11.01-1.33,1.92-2.37,4.09-3.26,6.26-1.2,2.91-1.29,5.95-.2,9.46Zm-22.4-56.41v8.11c.84.21,1.58.39,2.53.62v5.1c4.71,0,9.18.05,13.65-.03,1.67-.03,2.82-1.4,2.84-3.08.03-2.52,0-5.03,0-7.59-.98-.75-2.02-1.47-2.96-2.3-1.01-.89-2.11-1.22-3.45-1.2-3.07.06-6.14-.01-9.21.03-1.09.01-2.17.2-3.41.33Zm10.98,94c1.9,1.56,3.69,3.08,5.54,4.53.48.37,1.13.53,1.71.77.8.33,1.47.11,1.7-.72.68-2.48,2.37-3.98,4.53-5.17.72-.4,1.32-1.12,1.83-1.8,1.44-1.95,1.83-3.98.19-6.07-1.04-1.33-1.31-2.76-.83-4.44.36-1.24-1.06-3.5-2.26-3.71-1.75-.3-3.48-.16-4.96.96-.41.31-.87.84-.91,1.3-.24,3.02-1.88,5.48-3.17,8.07-1.05,2.1-2.23,4.14-3.38,6.27Zm56.67-87.22c-1.17,2.15-.81,4.33-.85,6.46,0,.47-.03.94-.05,1.42-.29,7.31-.51,14.63-.91,21.94-.31,5.73-.84,11.46-1.32,17.18-.24,2.87-.59,5.74-.91,8.74,1.23.22,2.28.42,3.68.67.33-2.66.72-5.13.94-7.61.44-5.1.66-10.21,1.21-15.3,1.07-9.96,1.56-19.93,1.36-29.95-.05-2.45-.52-2.99-3.15-3.55Zm-30.75-6.46c-.13.92-.2,1.86-.39,2.77-.12.59-.25,1.41-.66,1.67-1.06.69-1.06,1.73-1.15,2.69-1.19,12.53-2.95,25-3.33,37.6-.01.49.08.99.14,1.62,3.2-2.6,5.88-8,6.09-12.1.13-2.51.16-5.04.35-7.54.5-6.59.9-13.19,1.7-19.75.36-2.92-.73-4.96-2.74-6.97Zm-123.73,26.7c-4.88,9.24-10.17,17.97-13.75,27.59.6-.32,1.03-.73,1.42-1.19,2.48-2.96,4.89-5.98,7.43-8.89,3.61-4.12,6.68-8.73,11.24-12.35-2.09-1.7-4.13-3.36-6.34-5.16Zm99.5-31.55c.13-.8.27-1.49.33-2.18.25-2.95-.12-3.31-3.02-3.23-2.6.08-5.19.09-7.79.13-1.97.03-3.95-.09-5.9.1-3.73.37-4.05.83-3.87,4.61,0,.14.13.27.28.56h19.96Zm-13.99,12.77v-8.15c-.89-.05-1.65-.12-2.42-.13-1.96-.04-3.94.1-5.88-.12-1.18-.13-1.75.34-2.29,1.17-1.42,2.19-1.54,4.63-1.63,7.23h12.21Zm-32.85,158.09c2.27-4.95,4.32-9.4,6.45-14.04-4.42.15-8.6.28-13.18.43,2.27,4.59,4.37,8.85,6.73,13.61Zm73.25-140.4c1.37-3.85,2.14-7.97,4.7-11.23,2.54-3.23,5.38-6.21,8.12-9.33h-11.05c-1.01,6.91-1.69,13.69-1.78,20.56Zm-15.23-10.03c-.37,1.11-.75,1.97-.94,2.86-.28,1.31-.41,2.65-.65,3.97-.64,3.64-1.08,7.35-2.03,10.91-.8,2.96-.78,5.85-.64,9.33.39-.66.56-.9.68-1.15,1.17-2.41,2.22-4.88,3.51-7.23,2.68-4.87,2.84-10.1,2.31-15.42-.12-1.19-.47-2.48-2.23-3.27Zm-37.21,54.73c.1.35.1.52.19.6.23.21.48.41.74.58,3.34,2.09,6.83,3.86,10.55,5.18,1.39.49,2.34.37,3.29-.78,1.42-1.72,3.22-2.97,5.34-3.75.51-.19.92-.62,1.67-1.15-7.53-.66-14.61-1.09-21.78-.68Zm-36.61-40.36c-5.1.48-9.91.35-13.96,4.14,3.95,2.13,7.67,4.16,11.69,6.12.78-3.52,1.47-6.64,2.28-10.27Zm55.67,77.82c1.57,2.43,3.72,2.92,5.29,1.06,1.93-2.28,3.62-4.76,5.4-7.16.54-.72.55-1.51-.06-2.16-1.15-1.23-2.35-2.42-4.06-3.3-1.01,4.76-4.23,7.93-6.57,11.56Zm-8.05-38.5c4.05.26,7.89.53,11.72.75.36.02.82-.09,1.1-.31,1.46-1.18,2.74-2.51,3.61-4.58-5.64.27-11,.52-16.43.78v3.36Zm37.87-70.79c-.26-.05-.49-.15-.7-.12-4.86.67-9.41,2.44-13.99,4.08-.3.11-.44.67-.75,1.19,5.23.67,10.21.53,15.43,0v-5.14Zm-56.7,166.16c-.2-.07-.4-.13-.6-.2-2.06,2.94-4.11,5.88-6.19,8.85,1.32,2.51,2.24,5.08,4.05,7.66,2.56-5.45,2.33-10.93,2.73-16.31Zm4.55-110.99c.67-7.54.85-18.04.37-19.59-2.26,5.4-4.26,15.07-3.77,18.37,1.04.37,2.13.76,3.41,1.22Zm18.27,50.82c1.22.97,2.21,1.76,3.42,2.72,1.82-2.74,3.56-5.17,5.06-7.74.6-1.03.78-2.36.91-3.59.04-.43-.56-1.09-1.04-1.36-.68-.39-1.1.19-1.48.76-1.13,1.7-2.27,3.4-3.49,5.05-.97,1.32-2.06,2.55-3.38,4.16Zm-11.02-106.15h22.73c0-1.58-.66-2.02-1.93-2.01-4.01.04-8.02,0-12.03,0-2.03,0-4.07.06-6.1-.03-1.47-.07-2.05.8-2.67,2.05Zm-6.51,66.7c-.08,1.15-.19,1.93-.18,2.7.03,1.3.43,1.63,1.76,1.59,2.12-.06,4.24-.14,6.36-.18,1.39-.03,2.79,0,4.31,0v-3.35c-4.09-.25-8.06-.49-12.26-.75Zm81.22-45.57c-1.19,13.26-2.3,26.52-2.59,39.83,1.92-13.21,2.49-26.51,2.59-39.83Zm-82.93,48.28c.19-.09.39-.18.58-.27.13-3.73.26-7.46.41-11.65-1.74,2.77-3.25,5.19-4.87,7.76,1.36,1.45,2.62,2.8,3.88,4.16Zm6.36,87.98c-.43-1.98-.75-3.49-1.08-5.01-.15-.02-.31-.03-.46-.05-.64,1.03-1.28,2.06-2,3.21,1.19.62,2.15,1.12,3.55,1.85Zm76.78-139.5c.06.01.12.02.17.03v-2.76c-.06,0-.12,0-.17,0v2.73Zm-.65-11.1c.37.77.6,1.23.94,1.94.34-.62.51-.93.75-1.37-.53-.18-.94-.32-1.69-.57Z"/>
  <path class="cls-1" d="m79.85,368.09c.18.56.42,1.12.55,1.69,4.36,20.34,8.81,40.65,12.97,61.03,1.08,5.3,1.25,10.78,1.81,16.18.07.66-.06,1.33-.44,2.07-.12-.24-.34-.48-.34-.72-.24-12.55-3.47-24.61-6.05-36.78-2.95-13.95-5.95-27.89-8.92-41.84-.11-.5-.11-1.02-.16-1.53.19-.03.38-.07.58-.1Z"/>
</svg>