<?xml version="1.0" encoding="UTF-8"?>
<svg id="SKHLMC" xmlns="http://www.w3.org/2000/svg" viewBox="0 0 288.26 381.24">
  <defs>
    <style>
      .cls-1 {
        fill: none;
        stroke: #010101;
        stroke-miterlimit: 10;
      }

      .cls-2 {
        fill: #010101;
        stroke-width: 0px;
      }
    </style>
  </defs>
  <path class="cls-2" d="m159.16,296.19c.89-.47,1.78-.95,2.67-1.41,2.48-1.28,4.61-3.01,6.59-4.94,1.14-1.11,1.82-2.53,2.57-3.9,2.48-4.55,4.61-9.26,6.65-14.02,2.31-5.41,4.62-10.81,6.96-16.2,2.53-5.85,4.82-11.78,6.98-17.77,2.56-7.08,5.25-14.11,7.89-21.16.45-1.2.92-2.4,1.41-3.59.28-.68.6-1.33.94-2.1-.43-.28-.81-.57-1.23-.79-3.56-1.85-7.13-3.67-10.68-5.54-1.38-.73-2.7-1.57-4.04-2.36-.34-.2-.68-.38-1.11-.62-.67,1.21-1.31,2.36-1.94,3.51-1.72,3.11-3.33,6.27-4.77,9.52-1.3,2.94-2.78,5.79-4.15,8.7-1.3,2.77-2.47,5.6-3.43,8.51-.75,2.28-1.93,4.36-3.13,6.43-3.36,5.78-7.18,11.26-11.05,16.7-2.13,3-4.26,5.99-6.39,8.98-.33.46-.56,1.04-1.21,1.17-.85,1.08-1.8,2.1-1.92,3.58-.13,1.58.07,3.11.52,4.62.08.29.31.59.1.95-.66-.71-1.1-2.98-1.11-4.9-.02-1.87,1.07-3.19,2.16-4.63-.75-.44-1.43-.84-2.11-1.23-.34-.2-.72-.33-.83-.8-.03-.15-.23-.28-.38-.38-2.2-1.51-4.4-3.01-6.6-4.51-.07-.05-.16-.07-.15-.06-.57.57-1.09,1.13-1.65,1.64-5.38,4.91-10.77,9.82-16.17,14.72-1.11,1.01-2.24,1.99-3.36,2.99-.25.22-.48.45-.8.75,1.02.62,1.95,1.18,2.89,1.74,6.01,3.62,12.03,7.21,18.02,10.86,2.72,1.66,5.36,3.43,8.04,5.16.15.1.26.24.4.36h-.74c-.32-.27-.62-.58-.97-.81-1.15-.76-2.29-1.52-3.48-2.24-7.02-4.26-14.03-8.5-21.06-12.75-1.15-.69-2.31-1.36-3.46-2.03-1.01.82-1.98,1.57-2.91,2.36-2.52,2.13-5.02,4.3-7.55,6.43-1.57,1.32-3.16,2.62-4.95,3.64-2.36,1.34-4.93,1.03-6.79-.94-.7-.74-1.28-1.64-1.78-2.54-1.14-2.06-2.15-4.2-3.29-6.25-4.24-7.62-8.52-15.23-12.77-22.85-.26-.46-.57-.73-1.1-.86-2.08-.51-4.15-1.06-6.22-1.6-.22-.06-.45-.09-.67-.13.65.74,1.37,1.34,2.07,1.98,1.07.97,2.07,2.01,2.69,3.34,1,2.13,1.93,4.3,2.93,6.43,1.74,3.68,3.48,7.36,5.28,11.01,1.31,2.65,2.11,5.34,1.95,8.37-.16,2.99.02,6,.06,9,0,.15.05.3.08.45h-.55c0-.06-.02-.12-.03-.18-.04-2.36-.09-4.71-.11-7.07,0-.76.07-1.52.11-2.29.17-2.97-.76-5.65-2.06-8.26-1.9-3.84-3.81-7.67-5.51-11.61-.84-1.93-1.7-3.85-2.64-5.73-.62-1.25-1.56-2.28-2.63-3.15-1.49-1.21-2.87-2.52-4.1-4-1.61-1.94-2.91-4.08-3.91-6.36-1-2.29-1.62-4.74-2.06-7.21-.89-4.98-1.44-10-1.27-15.06.08-2.33.23-4.65.31-6.98.05-1.41.04-2.82,0-4.23-.08-2.52.25-5.01.67-7.49.91-5.37,1.91-10.72,2.77-16.1.6-3.72,1.05-7.46,1.55-11.19.47-3.52.92-7.04,1.36-10.56.48-3.77.94-7.53,1.41-11.3.26-2.13.55-4.25.76-6.38.15-1.52.22-3.05.28-4.58.15-3.79.19-7.59.45-11.38.26-3.73,1.11-7.38,2.03-11,1.58-6.21,4.55-11.75,8.29-16.87,1.09-1.49,2.52-2.75,3.92-3.98,1.54-1.34,3.24-2.52,4.87-3.77,1.78-1.36,3.85-1.97,6.01-2.35,2.46-.43,4.93-.38,7.41-.11,3.8.41,7.61.79,11.41,1.23,3.2.37,6.36.99,9.38,2.11,3.58,1.33,6.84,3.25,9.72,5.8,1.03.91,1.99,1.9,2.85,2.92.99,1.18,2,2.43,2.55,3.95.44,1.22,1.02,2.39,1.46,3.61.24.66.31,1.37.48,2.05.36,1.44.77,2.86,1.1,4.31.12.52.08,1.08.14,1.62.07.6.08,1.18.28,1.79.19.57.05,1.26.08,1.89.06,1.25.08,2.49.2,3.73.18,1.82-.08,3.64.29,5.46.16.81-.13,1.7-.09,2.55.08,1.59-.24,3.15-.28,4.73-.04,1.33-.22,2.66-.29,4-.04.74,0,1.48-.16,2.23-.23,1.06.21,2.05.52,3.04.24.75.54,1.49.81,2.24.04.11.09.23.08.35-.06.98-.16,1.95-.2,2.93-.07,1.93-1.04,3.59-1.56,5.38-.03.12-.08.23-.12.35-.28.87-.25,1.81-1.04,2.56-.65.61-.97,1.56-1.52,2.28-.58.75-1.29,1.39-1.9,2.11-.55.65-1.07,1.34-1.56,2.04-.6.85-1.18,1.71-1.72,2.6-.3.49-.46,1.06-.75,1.55-.43.7-.89,1.39-1.38,2.04-.91,1.2-1.76,2.43-2.2,3.89-.16.54-.18,1.13-.28,1.73.57.17,1.03.33,1.5.45,3.12.77,5.71,2.46,8.02,4.63,5,4.7,10.29,9.07,15.63,13.38,4.06,3.27,8.32,6.26,12.84,8.85.18.11.41.2.52.36.5.69,1.26.93,1.99,1.23,1.73.7,3.46,1.4,5.18,2.13,1.15.48,2.34.69,3.7.64.23-.43.5-.9.73-1.39.88-1.89,1.69-3.8,2.62-5.66,1-2,2.08-3.95,3.14-5.92.44-.81.96-1.58.51-2.57-.06-.14.11-.54.26-.59,1.44-.49,2.23-1.64,3.01-2.82,2.12-3.19,4.31-6.33,6.4-9.53,2.36-3.62,4.34-7.46,6.28-11.31.29-.57.58-1.15.87-1.72.36-.71.4-1.42.2-2.21-.46-1.84-.82-3.7-1.22-5.56-.04-.18-.05-.37-.11-.54-.67-1.75-.41-3.5.02-5.23.4-1.6.85-3.19,1.28-4.79.3-1.12.62-2.24.88-3.37.13-.57.41-.93.97-1.09,2.36-.69,4.19-2.24,6.05-3.74.44-.36.64-.87.84-1.39.58-1.54,1.19-3.08,1.82-4.61.62-1.49,1.74-2.29,3.36-2.47.96-.11,1.94-.19,2.8-.77.28-.19.77-.19,1.13-.12.47.09.93.3,1.37.51.63.31.98,1,.83,1.67-.11.47-.3.93-.53,1.36-.8,1.47-.68,2.1.49,3.28,1.28-1.13,2.64-.86,4.07-.26.73.31,1.07.82,1.07,1.53,0,1.06-.01,2.11-.66,3.08-.32.49-.39,1.15-.54,1.74-.25.98-.47,1.97-.69,2.95-.04.17,0,.35,0,.56.52.16.93-.08,1.33-.27.8-.4,1.59-.37,2.4-.08,1.23.44,1.98,1.52,1.89,2.83-.05.7-.18,1.39-.29,2.22,1.12-.48,2.19-.89,3.22-1.37,2.75-1.27,5.48-2.57,8.22-3.87,1.23-.58,2.52-.97,3.87-1.11,1.42-.15,2.79.1,3.64,1.42.87,1.35.94,2.32-.11,3.29-.47.43-.95.87-1.51,1.16-1.87.98-3.8,1.85-5.67,2.83-3.39,1.77-6.75,3.6-10.13,5.39-1.43.76-2.86,1.51-4.39,2.32.18.85.36,1.67.52,2.51.12.63.23,1.26.29,1.9.06.63.16,1.28-.36,1.77.36.43.66.25.96.09.76-.39,1.51-.81,2.29-1.16,3.1-1.43,6.39-2.29,9.62-3.31,1.28-.4,2.44.03,3.16,1.07.39.57.33,1.07-.04,1.6-.58.85-1.35,1.49-2.17,2.09-1.94,1.41-4.05,2.52-6.2,3.57-.3.15-.59.31-.87.46.15.85.76,1.31,1.21,1.88.21.26.48.48.69.74.47.56.48.95-.08,1.43-.63.52-1.3,1.05-2.03,1.39-.75.35-1.58.43-2.31-.21-.15-.13-.38-.18-.58-.27-.82-.38-1.73-.56-2.48-1.1-.42-.3-.82-.24-1.27.02-1.45.81-2.79,1.72-3.98,2.92-1.62,1.64-2.96,3.51-4.38,5.31-2.58,3.27-5.04,6.64-7.8,9.75-2,2.26-4.4,4.16-6.62,6.22-.2.18-.38.36-.54.51.03.13.03.17.05.18.57.24.91.61.79,1.27-.09.48-.69,1-1.3.97-.7-.03-.99.38-1.21.91-.31.73-.6,1.47-.87,2.22-.36,1-.68,2.03-1.06,3.02-.32.82-.75,1.61-1.06,2.43-.5,1.31-.92,2.66-1.41,3.97-.53,1.4-1.13,2.77-1.67,4.17-.21.54-.32,1.11-.49,1.66-.07.23-.13.48-.23.69-.87,1.79-1.42,3.69-2,5.59-.47,1.54-1.16,3.02-1.75,4.53-.84,2.16-1.74,4.3-2.49,6.49-.83,2.43-2.11,4.66-2.97,7.07-.8,2.27-2.01,4.38-2.82,6.65-.87,2.44-2.23,4.67-3.1,7.11-.83,2.33-2.1,4.47-2.97,6.78-.15.4-.26.81-.4,1.21-.09.26-.16.52-.29.77-.62,1.19-1.31,2.35-1.87,3.56-.48,1.02-1.14,1.96-1.29,3.12-.02.14-.12.28-.2.41-1.54,2.39-3.07,4.81-5.39,6.56-1.44,1.08-2.9,2.15-4.36,3.2-.29.21-.66.31-.98.47-.35.17-.69.36-1.04.54h-1.29v-.02Zm-51.65-68.03c-.35-.8-.69-1.39-.88-2.03-.71-2.28-1.98-4.21-3.69-5.84-1.6-1.52-3.25-2.98-4.95-4.38-2.27-1.87-4.61-3.65-6.91-5.48-.18-.15-.5-.24-.42-.72.3.2.54.32.74.48,1.95,1.52,3.95,3.01,5.85,4.6,2.13,1.79,4.24,3.62,6.26,5.53,1.48,1.4,2.54,3.11,3.31,5.03.51,1.27,1.08,2.54,1.78,3.71.77,1.3,1.43,2.64,1.83,4.09.2.74.55,1.19,1.3,1.33.12.02.23.09.34.13,3.15.89,5.74,2.68,8.09,4.89,1.69,1.59,3.51,3.06,5.21,4.64,1.1,1.02,2.15,2.09,3.11,3.23.92,1.1,1.67,2.34,2.56,3.48.72.91,1.44,1.85,2.31,2.6,1.54,1.34,3.16,2.61,4.82,3.8,2.08,1.51,4.24,2.91,6.37,4.35.19.13.4.23.8.44-.37-1.49-.52-2.82-1.11-4.05-.61-1.27-1.19-2.55-1.84-3.8-.25-.49-.33-.97-.28-1.5.11-1.28.22-2.56.31-3.84.27-3.94.52-7.88.78-11.82.17-2.62.41-5.25.51-7.88.11-3.28-.14-6.55-.55-9.8-.34-2.74-.79-5.45-1.64-8.09-1.72-5.31-2.79-10.78-3.89-16.24-.03-.14.03-.31.05-.46.06,0,.12-.02.18-.03.07.21.16.41.21.62.29,1.38.56,2.76.86,4.13.9,4.19,1.82,8.37,3.16,12.45.28.84.49,1.7.68,2.57.65,3.06,1.04,6.16,1.23,9.28.12,2.01.07,4.03.1,6.05,0,.23.03.46.06.76.28-.13.49-.2.66-.31.89-.6,1.77-1.2,2.64-1.83,2.42-1.74,4.66-3.66,6.41-6.13,2.33-3.28,4.26-6.79,6.01-10.41.06-.13.08-.28.11-.41-2.02-1.52-4.02-3-5.98-4.51-6.47-4.97-12.67-10.24-18.64-15.79-2.15-2-4.62-3.42-7.49-4.08-.34-.08-.69-.16-1.19-.28.07.98.1,1.83.21,2.67.41,3.26,1.19,6.44,2.15,9.57.21.7.37,1.42.49,2.15.12.74.02,1.46-.32,2.15-.79,1.59-2.13,2.13-3.74,1.41-.75-.34-1.47-.77-2.13-1.26-2.28-1.7-4.2-3.74-5.82-6.08-.15-.21-.32-.41-.54-.69-1.29,1.47-2.76,2.54-4.56,3.11.05.29.07.5.11.7.23,1.2.46,2.4.7,3.61.05.27.12.54-.35.73-.19-.36-.41-.71-.56-1.1-.39-1.03-.74-2.08-1.11-3.11-.09-.25-.21-.49-.35-.83-1.26.19-2.48.37-3.84.58.69,1.27,1.28,2.41,1.92,3.51,1.64,2.84,3.39,5.6,5.77,7.92.81.79,1.54,1.66,2.26,2.54.95,1.16,1.86,2.36,2.39,3.79.56,1.5-.07,2.45-1.69,2.36-.9-.05-1.85-.23-2.66-.6-1.8-.83-3.57-1.75-5.29-2.75-2.99-1.74-5.9-3.61-8.89-5.36-2.49-1.46-5.13-2.58-7.96-3.27-1.21-.3-2.38-.8-3.52-1.31-2.21-1-4.25-2.3-6.25-3.67-.31-.21-.7-.41-1.07-.46-1.67-.18-3.35-.37-5.03-.43-1.86-.07-3.74-.2-5.56.38-.08.03-.19-.05-.29-.07,0-.07-.01-.13-.02-.19.39-.13.77-.31,1.16-.37.82-.11,1.64-.24,2.46-.21,1.92.06,3.85.21,5.77.31.31.02.63.13.98-.1-3.4-2.65-6.61-5.38-9.25-8.75-.16.09-.31.15-.42.24-1.21.98-2.42,1.98-3.62,2.97-.77.64-1.32,1.44-1.72,2.35-.65,1.45-1.35,2.89-1.95,4.36-1.39,3.4-2.8,6.79-4.07,10.23-.79,2.15-1.34,4.39-1.43,6.71-.06,1.5-.18,3-.19,4.49,0,2.48-.08,4.97.13,7.43.3,3.63.93,7.21,1.72,10.78.97,4.38,3.23,8.03,6.04,11.41.2.24.52.43.83.51,2.25.61,4.5,1.18,6.75,1.75.24.06.5.08.89.13-.21-.39-.33-.63-.46-.87-1.09-2.12-2.31-4.2-3.25-6.38-2.68-6.22-4.71-12.68-6.4-19.23-.31-1.18-.5-2.39-.72-3.6-.06-.32-.2-.71.26-1.02.05.17.1.27.12.38.28,1.53.49,3.08.86,4.59,1.07,4.34,2.45,8.59,3.94,12.81,1.03,2.92,2.08,5.83,3.57,8.55,4.35,7.88,8.74,15.74,13.09,23.62,2.08,3.78,4.1,7.6,6.15,11.4.04.08.09.16.15.26.25-.15.44-.25.61-.37,3.19-2.29,6.26-4.72,9.1-7.44,4.18-4.01,8.55-7.8,12.98-11.53,5.62-4.73,11.29-9.41,16.93-14.12.18-.15.32-.33.4-.41-1.11-1.51-2.19-2.92-3.22-4.36-1.21-1.7-2.54-3.29-4.13-4.66-1.84-1.57-3.64-3.18-5.44-4.8-1.41-1.28-2.84-2.55-4.56-3.38-1.32-.63-2.72-1.11-4.09-1.62-5.62-2.08-11.26-4.15-16.89-6.23-1.84-.68-3.68-1.35-5.51-2.05-.31-.12-.71-.16-.96-.74,2.65.86,5.07,1.86,7.53,2.74,2.45.88,4.88,1.8,7.32,2.71,2.45.9,4.91,1.8,7.36,2.71.05-.05.1-.1.16-.16-.31-1.04-.67-2.06-1.14-3.05-.4-.85-.97-1.56-1.75-2.08-1.15-.76-2.28-1.56-3.46-2.27-1.94-1.17-3.9-2.31-6.07-3.03-2.26-.76-4.52-1.53-6.79-2.29-1.45-.49-2.9-.98-4.34-1.48-.21-.07-.48-.1-.45-.54.33.09.62.16.9.25,2.84.96,5.67,1.96,8.52,2.87,2.78.89,5.45,2.03,7.93,3.57,1.27.79,2.53,1.59,3.97,2.5h0Zm31.29-78.43c.07,0,.14-.02.21-.03.05-.54.12-1.08.16-1.62.18-2.93.49-5.86.5-8.8.02-3.49-.2-6.97-.37-10.46-.08-1.59-.18-3.18-.41-4.75-.43-2.95-1.25-5.8-2.18-8.62-.76-2.32-1.84-4.47-3.59-6.23-.49-.5-.95-1.04-1.45-1.54-2.48-2.5-5.26-4.59-8.56-5.91-4.26-1.71-8.64-2.86-13.24-3.23-2.71-.22-5.41-.57-8.12-.85-2.71-.28-5.42-.48-8.15-.09-2.49.36-4.84,1.02-6.84,2.65-.93.75-1.92,1.42-2.86,2.16-2.65,2.06-5.11,4.29-6.83,7.24-.32.56-.68,1.09-1.02,1.64-2.29,3.79-4.25,7.73-5.42,12.02-.35,1.27-.63,2.56-.93,3.84-.86,3.67-1.47,7.38-1.57,11.16-.1,3.58-.1,7.17-.37,10.74-.31,4.11-.85,8.21-1.35,12.31-.75,6.07-1.54,12.14-2.34,18.21-.5,3.79-.97,7.59-1.58,11.36-.85,5.32-1.81,10.62-2.74,15.92-.46,2.66-.73,5.34-.64,8.04.02.4.04.8.05,1.21.43-.9.67-1.82.98-2.7,1.56-4.52,3.56-8.85,5.42-13.25.85-2.02,2.16-3.6,3.87-4.9.87-.67,1.72-1.38,2.59-2.08-.08-.21-.13-.38-.21-.54-1.64-3.38-2.79-6.93-3.75-10.54-.73-2.73-1.26-5.48-1.12-8.34.1-1.86.1-3.73.11-5.6,0-1.41-.07-2.82-.1-4.22,0-.25.05-.49.08-.73h.23c.04.26.11.51.11.77,0,3.46-.02,6.92.02,10.38.02,1.37.06,2.76.3,4.11.74,4.17,2.05,8.19,3.62,12.12.74,1.84,1.73,3.49,3.11,4.94,3.52,3.67,7.45,6.82,11.78,9.47,2.15,1.31,4.38,2.49,6.84,3.08,2.86.69,5.52,1.84,8.03,3.32,3.04,1.78,6.03,3.64,9.04,5.46,1.68,1.02,3.37,2,5.21,2.7.87.33,1.76.52,2.69.45.93-.07,1.3-.51,1.03-1.41-.21-.69-.51-1.4-.92-1.98-.9-1.27-1.87-2.5-2.87-3.69-1.01-1.19-2.16-2.26-3.13-3.48-2.23-2.82-3.96-5.97-5.58-9.16-.7-1.39-1.4-2.79-1.76-4.33-.97-4.16-1.35-8.39-1.64-12.64-.12-1.83-.09-3.68-.36-5.49-.9-5.96-1.95-11.9-2.88-17.85-.6-3.85-.97-7.71-.69-11.62.15-2.16.52-4.25,1.67-6.14.84-1.36,2.06-2.33,3.28-3.3,1.39-1.11,2.8-2.19,4.09-3.41,2.08-1.97,3.7-4.33,5.22-6.74,2.08-3.3,3.87-6.74,5.15-10.44.54-1.57.77-3.2,1-4.84.24-1.75,1.34-2.24,2.93-1.44.46.23.93.46,1.4.68.97.45,1.97.84,2.91,1.35,2.64,1.42,4.82,3.33,6.35,5.95,1.87,3.18,3.13,6.57,3.6,10.24.21,1.61.28,3.23.34,4.85.04,1.12-.21,2.21-.92,3.11-.61.76-.74,1.61-.61,2.51.18,1.24.42,2.47.64,3.7.1.58.25,1.13.86,1.41.13.06.24.21.3.34.36.84.72,1.68,1.05,2.53.13.33.19.7.28,1.05v.02Zm79.09,27.31c.35-1.21,1.29-1.91,2.24-2.59.85-.6,1.72-1.17,2.61-1.72.76-.46,1.67-.74,2.29-1.33.63-.59,1.38-.86,2.09-1.24,3.67-1.97,7.33-3.96,11.01-5.9,2.3-1.21,4.63-2.36,6.95-3.54.8-.4,1.54-.89,2.13-1.57.48-.54.56-1.12.24-1.78-.69-1.45-1.82-2.03-3.54-1.81-1.75.23-3.36.9-4.94,1.66-2.2,1.07-4.36,2.25-6.61,3.2-2.51,1.05-5.11,1.86-7.66,2.82-1.43.54-2.86,1.11-4.2,1.82-1.24.66-2.36,1.54-3.55,2.29-.8.51-1.59,1.04-2.44,1.45-.8.39-1.21.16-1.43-.68-.36-1.37-.55-2.76-.28-4.18.56-2.92,1.12-5.83,1.65-8.75.61-3.32,1.72-6.43,3.56-9.28.46-.72.8-1.51,1.16-2.29.19-.41.32-.87.39-1.31.08-.45-.1-.81-.54-1.06-.92-.51-1.82-.73-2.73,0-.24.19-.53.32-.75.52-2.29,2.11-4.29,4.43-5.27,7.49-1.12,3.53-2.34,7.03-3.51,10.54-1.69,5.08-3.33,10.18-5.66,15.02-1.96,4.05-3.91,8.12-6.28,11.94-2.28,3.67-4.72,7.23-7.1,10.83-.84,1.27-1.72,2.52-2.61,3.82,2.06,1.36,4.17,2.58,6.35,3.69,3.33,1.69,6.62,3.45,9.93,5.18.21.11.42.21.63.31,1.02-.88,2.01-1.7,2.96-2.56,2.11-1.91,4.27-3.78,6.03-6.03,2.66-3.4,5.28-6.83,7.95-10.22,1.1-1.39,2.16-2.85,3.46-4.03,2.13-1.94,4.61-3.42,7.23-4.67,2.51-1.2,5-2.45,7.47-3.74,1.69-.88,3.21-2.02,4.47-3.47.86-.99.33-1.53-.49-1.9-.69-.31-1.43-.36-2.16-.14-1.29.39-2.57.8-3.86,1.18-3.79,1.1-7.26,2.88-10.66,4.83-.58.34-1.13.72-1.71,1.07-.16.1-.36.13-.54.2-.03-.06-.07-.12-.1-.18,1.15-.93,2.52-1.56,3.79-2.51-.25-.07-.34-.11-.43-.12-2.89-.3-5.78-.59-8.67-.89-.16-.02-.32-.14-.48-.21.02-.05.03-.11.05-.16h1.56,0Zm-81.72-31.49c-.1-.39-.15-.6-.21-.8-.41-1.61-.73-3.22-.71-4.89,0-.61.13-1.15.51-1.62.67-.85.96-1.84,1-2.9.12-3.53-.44-6.95-1.59-10.28-.76-2.18-1.76-4.25-3.1-6.13-1.87-2.63-4.51-4.26-7.42-5.52-.67-.29-1.36-.56-2.01-.89-1.64-.85-2.53-.41-2.64,1.43-.12,2.02-.71,3.91-1.42,5.77-1.35,3.53-3.16,6.83-5.21,10-2.4,3.71-5.26,7-8.93,9.52-.7.48-1.34,1.07-1.97,1.65-.39.36-.78.75-1,1.34,5.57,3.29,10.87,6.93,16.93,9.53-.08-.69-.16-1.26-.2-1.84-.05-.78.29-1.21,1.05-1.35.24-.04.49-.02.73-.02,1.53-.03,3.07.03,4.59-.1,2.75-.24,5.41-1.02,8.06-1.77,1.17-.33,2.33-.73,3.56-1.12h0Zm4.03,13.13c.13-1.02.14-1.95-.13-2.89-.5-1.73-.97-3.48-1.48-5.2-.39-1.34-.59-2.75-1.34-3.98-.39-.64-.65-.78-1.34-.57-2.11.63-4.21,1.29-6.33,1.87-3.09.85-6.23,1.3-9.44,1.05-.21-.02-.43-.03-.64-.02-.74.07-.95.35-.87,1.08.1.85.19,1.7.27,2.56.17,1.7.34,3.41.51,5.11.15,1.49.35,2.98.42,4.48.07,1.57-.75,2.61-2.24,3.07-.85.26-1.71.48-2.55.76-.81.26-1.62.3-2.44.09-1.16-.3-2.32-.56-3.48-.86-1.26-.33-2.46-.13-3.78.29.18.43.28.81.48,1.13,1.25,2.03,2.55,4.04,3.76,6.09.68,1.14,1.63,1.73,2.9,2.03,3.02.71,6.06,1.2,9.13,1.55,1.31.15,2.62.14,3.93-.13,2.07-.43,3.91-1.37,5.79-2.29,1.98-.97,3.55-2.42,4.81-4.17,2.11-2.93,3.19-6.31,3.95-9.8.05-.21,0-.45,0-.74-6.06,1.22-12.02,2.42-17.98,3.61-.02,0-.05-.04-.06-.07-.02-.03-.02-.06-.06-.21,1.98-.57,4.02-.85,6.02-1.3,2.03-.46,4.08-.83,6.11-1.25,2.03-.42,4.06-.85,6.09-1.28h0Zm3.87,76.41c-.06.02-.13.03-.19.05-.07.9-.13,1.8-.2,2.7-.22,3.14-.45,6.28-.66,9.42-.13,1.95-.26,3.9-.37,5.85-.02.29.09.6.21.87.46.99.94,1.97,1.42,2.95.82,1.66,1.4,3.39,1.68,5.21.04.25.16.56.35.7.78.58,1.59,1.11,2.45,1.7.26-.33.48-.59.67-.85,3.11-4.28,6.23-8.56,9.31-12.86,3.07-4.28,5.97-8.66,8.36-13.36.27-.54.52-1.08.79-1.65-.29-.17-.49-.3-.7-.41-1.53-.77-3.06-1.54-4.6-2.29-1.07-.52-2.16-1-3.22-1.53-1.38-.7-2.74-1.43-4.1-2.16-.44-.24-.79-.22-1.16.11-.7.64-1.42,1.26-2.14,1.87-.32.27-.68.51-1.03.74-.36.22-.78.36-1.09.63-.99.86-1.94,1.78-2.92,2.65-.36.32-.78.59-1.18.86-.36.24-.69.17-.95-.2-.24-.34-.49-.66-.74-.99h0Zm-11.03,18.73c-.41.32-.75.57-1.08.85-5.74,4.79-11.49,9.54-17.19,14.37-3.43,2.91-6.83,5.87-10.13,8.92-3.03,2.81-6.09,5.59-9.39,8.07-.8.6-1.6,1.2-2.39,1.79,1.58,3.23,4.92,4.23,7.72,2.51,1.2-.74,2.36-1.54,3.44-2.43,3.4-2.8,6.8-5.61,10.12-8.51,4.36-3.8,8.66-7.67,12.96-11.54,3.23-2.9,6.42-5.86,9.65-8.77,1.24-1.12,1.28-1.54-.04-2.56-1.18-.92-2.41-1.77-3.67-2.69h0Zm-.41-79.98s-.08-.05-.12-.08c-1.29.62-2.57,1.29-3.88,1.87-2.22.99-4.55,1.42-6.98,1.08-1.91-.26-3.82-.52-5.72-.8-.93-.13-.97-.13-1.44.72-.73,1.31-1.09,2.74-1.15,4.22-.1,2.66-.12,5.32-.13,7.98,0,.37.16.77.35,1.1,1.11,1.87,2.33,3.67,3.38,5.57,1.65,2.97,3.87,5.42,6.56,7.46.77.58,1.66,1.03,2.54,1.44.76.35,1.48.13,2.11-.44.74-.67,1.07-1.51.97-2.47-.09-.88-.26-1.76-.51-2.6-1.2-4-2.14-8.03-2.37-12.22-.08-1.55.23-2.91.99-4.2.97-1.63,1.98-3.24,2.99-4.84.79-1.26,1.61-2.51,2.41-3.77h0Zm-31.46-31.32c-.24.53-.47.95-.64,1.4-.64,1.71-.85,3.5-.92,5.31-.1,2.45.1,4.89.31,7.33.05.59.25,1.02.7,1.41,2.41,2.08,4.79,4.2,7.18,6.29.18.16.39.3.62.36,1.36.36,2.73.69,4.09,1.02.84.21,1.67.22,2.52-.08.83-.3,1.7-.5,2.55-.76,1.11-.34,1.79-1.18,1.88-2.34.03-.43,0-.85-.05-1.28-.28-2.67-.58-5.35-.84-8.03-.06-.58-.24-.93-.8-1.19-1.58-.74-3.17-1.47-4.68-2.34-3.1-1.78-6.16-3.65-9.24-5.49-.86-.51-1.72-1.03-2.68-1.61h0Zm53.67,86.14c4.6,2.3,9.1,4.55,13.66,6.83.2-.37.39-.65.51-.95.54-1.36,1.07-2.73,1.58-4.11,1.41-3.82,3.1-7.52,4.9-11.17.15-.29.26-.6.44-1.03-1.59.15-2.91-.33-4.21-.87-1.05-.44-2.09-.87-3.14-1.3-1.02-.41-2.03-.82-3.08-1.24-.06.19-.11.3-.13.42-.3,2.04-1.34,3.72-2.59,5.29-1.95,2.46-4.21,4.61-6.48,6.75-.46.44-.93.87-1.48,1.38h0Zm-54.51-70.44c-.09.04-.18.08-.26.13.29,1.59.46,3.2.89,4.75.68,2.44,1.53,4.84,2.3,7.26,2.28,7.1,4.56,14.21,6.84,21.31.08.25.2.49.33.8.93-.3,1.74-.68,2.44-1.26-.05-1.15-.15-2.25-.15-3.35.01-2.17.05-4.34.14-6.51.08-1.79.41-3.52,1.36-5.09.1-.17.18-.36.3-.6-.93-.23-1.78-.44-2.64-.64-1-.23-1.79-.77-2.34-1.64-1.37-2.17-2.73-4.35-4.08-6.54-.18-.28-.33-.59-.43-.91-.18-.58-.01-.84.59-.99.56-.13,1.12-.25,1.88-.41-2.48-2.18-4.83-4.25-7.18-6.32h0Zm60.09,53.41c-.22.43-.4.81-.61,1.18-1.28,2.33-2.5,4.7-3.88,6.98-1.75,2.89-3.8,5.57-6.6,7.57-1.59,1.14-3.19,2.27-4.8,3.38-.26.18-.48.34-.49.7-.04.95-.11,1.89-.15,2.6.57.74.99,1.31,1.47,1.93.36-.26.69-.48.99-.73,1.22-1.07,2.4-2.18,3.64-3.22,2.13-1.8,4.33-3.51,6.41-5.36,2.24-2,4.36-4.13,6.21-6.51,1.18-1.52,2.14-3.13,2.38-5.1.1-.81.09-.92-.64-1.32-1.26-.69-2.53-1.36-3.92-2.11h0Zm40.36-37.26c.22-.38.37-.59.48-.84.44-1.01.9-2.01,1.3-3.03,2.44-6.18,4.31-12.55,6.45-18.83.16-.48.1-.82-.31-1.11-.39-.28-.68-.28-1.15.11-1.6,1.29-3.25,2.49-5.2,3.21-.43.16-.77.44-.91.95-.6,2.24-1.24,4.48-1.85,6.72-.52,1.93-.84,3.87-.38,5.89.44,1.9.8,3.83,1.2,5.74.07.35.21.68.37,1.19h0Zm18.44-9.13c1.53-.75,2.92-1.43,4.33-2.12-.02-.19-.03-.38-.07-.55-.91-3.96-1.82-7.92-2.75-11.87-.19-.8-.41-1.6-.67-2.38-.3-.88-.94-1.52-1.59-2.26-1.02,1.58-1.84,3.11-2.44,4.75-.11.31-.05.72.03,1.07.84,3.63,1.7,7.26,2.55,10.88.2.82.4,1.65.6,2.49h0Zm-106.93,36.98s.09-.03.14-.04c0-.09,0-.18-.02-.26-.57-3.17-1.43-6.26-2.44-9.31-1.12-3.4-2.28-6.79-3.38-10.2-1.62-5.07-3.19-10.16-4.79-15.23-.07-.2-.18-.39-.27-.59-.11.28-.11.52-.07.76.3,1.75.61,3.49.92,5.24.53,3.1,1.2,6.19,1.2,9.36,0,.26.11.54.23.77.57,1.15,1.18,2.29,1.75,3.44,2.4,4.79,4.59,9.67,6.24,14.79.14.43.32.85.48,1.28h0Zm103.49-49.73c-.06,0-.12-.01-.18-.02-.11.34-.25.66-.33,1.01-.51,2.36-1.04,4.72-1.5,7.08-.34,1.74-.69,3.48-.64,5.27.03.95.25,1.85.58,2.83,2.03-.66,3.47-2.04,5.15-3.07-1.04-4.43-2.06-8.77-3.08-13.11h0Zm-103.44,46.69c.21-.03.36-.04.51-.08,1.5-.49,2.66-1.46,3.72-2.59.35-.37.12-.68-.06-.99-.73-1.24-1.48-2.47-2.22-3.7-.15-.25-.34-.49-.45-.66-1.11.64-2.16,1.25-3.23,1.88.57,2.03,1.16,4.08,1.74,6.15h0Zm111.68-36.14c1.33-.44,2.48-.84,3.64-1.21.34-.11.51-.32.53-.66.05-.88.15-1.76.12-2.64-.02-.66-.43-1.1-1.03-1.4-1.23-.62-2.61-.49-4.42.98.37,1.59.74,3.21,1.15,4.95h0Zm-119.22,30.48c.33,2.29.93,4.4,2.14,6.37,1.27-.2,2.52-.39,3.87-.61-.69-2.05-1.43-3.97-2.26-5.77h-3.75Zm117.75-37c.06,0,.11,0,.17-.02.08-.28.16-.57.24-.85.51-1.89,1.02-3.77,1.52-5.67.1-.35.19-.71.25-1.07.13-.8-.04-1.15-.75-1.46-.42-.19-.86-.31-1.3-.46-.96-.33-1.8-.32-2.25.76.7,2.92,1.41,5.84,2.11,8.76h0Zm4.36,28.52c1.51.85,2.94,1.47,4.43,1.93.56.17,1.16.21,1.69-.13.44-.28.87-.58,1.27-.9.53-.43.58-.65.14-1.13-.62-.68-1.29-1.3-1.94-1.95-.33-.33-.67-.32-1.08-.11-.7.36-1.45.66-2.16,1.02-.75.38-1.49.81-2.34,1.28h0Zm-118.56,8.01c-1.41-3.28-2.9-6.33-4.57-9.49-.19,1.26.57,8.27.99,9.49h3.57Zm114.37-15.41c.81.07,1.44.17,2.08.18.71,0,1.15-.38,1.26-1.08.06-.36.1-.74.03-1.09-.23-1.25-.51-2.48-.79-3.84-1.01.56-1.89,1.05-2.76,1.53-.26.15-.43.35-.38.66.18,1.2.37,2.4.56,3.64h0Zm-7.96-35.84c-1.64-.19-2.9.43-3.57,1.96-.84,1.9-1.53,3.85-2.29,5.78-.19.47-.03.74.4.89.73-1.56,1.31-3.18,2.21-4.6.9-1.43,2.12-2.65,3.25-4.02h0Zm3.61,35.29c1.29.29,2.53.41,3.79.47.05-.94-.3-2.94-.64-3.61-1.13.94-2.6,1.49-3.15,3.13h0Zm-16.13,34.18c-.19.48-.32.82-.51,1.29.63-.08,1.14.01,1.36-.64-.25-.19-.49-.37-.85-.65h0Zm-18.34-8.76c.1-.23.18-.4.31-.69-.36.19-.46.42-.31.69Z"/>
  <path class="cls-2" d="m98.57,218.1c-.23-.12-.45-.24-.67-.36-2.52-1.44-5.02-2.93-7.58-4.3-2.35-1.26-4.85-2.2-7.44-2.87-1.61-.42-3.26-.52-4.92-.41-2.81.2-5.61.44-8.36,1.1-1.37.33-2.71.76-3.91,1.54-.9.59-1.65,1.32-2.13,2.31-.86,1.79-1.29,3.69-1.56,5.64-.37,2.64-.65,5.29-.46,7.96.15,2.05.67,4.05,1.28,6,1.1,3.57,2.22,7.13,3.41,10.66.36,1.06,1,2.03,1.51,3.04.08.15.14.3.23.51-.46.07-.55-.25-.66-.46-.69-1.43-1.51-2.82-2.01-4.32-1.19-3.57-2.26-7.18-3.3-10.79-.66-2.29-1.13-4.64-.95-7.06.21-3.02.36-6.05,1.23-8.98.43-1.45.93-2.85,2.03-3.96.2-.2.31-.53.38-.82.43-1.63.89-3.25,1.23-4.9.39-1.92,1.09-3.7,1.98-5.41,1.28-2.44,2.66-4.83,4-7.23.1-.17.26-.3.39-.46.34.32.04.49-.06.67-1.18,2.11-2.38,4.21-3.54,6.33-1.35,2.46-2.23,5.1-2.77,7.85-.2,1.01-.48,2.01-.72,3.02.13.02.2.05.23.03,2.69-1.56,5.69-2,8.7-2.37,1.49-.18,2.98-.28,4.48-.36,1.67-.1,3.29.18,4.9.62,3.06.84,5.93,2.13,8.71,3.64,1.91,1.03,3.75,2.19,5.62,3.3.3.18.58.41.87.61-.05.08-.11.16-.16.25v-.02Z"/>
  <path class="cls-2" d="m78.14,239.61c.26.15.41.21.54.31,2.82,2.07,5.83,3.84,8.95,5.41,1.06.53,2.21.91,3.35,1.25,4.64,1.38,9.38,2.32,14.15,3.1,5.28.87,10.58,1.62,15.87,2.43.17.03.33.1.55.16-.25.42-.56.26-.82.23-1.64-.22-3.28-.42-4.91-.68-4.77-.77-9.55-1.49-14.3-2.36-3.1-.57-6.16-1.34-9.22-2.06-2.57-.61-5.02-1.57-7.28-2.98-2.07-1.3-4.15-2.6-6.21-3.9-.23-.15-.43-.34-.63-.53-.03-.03-.02-.11-.05-.36h0Z"/>
  <path class="cls-2" d="m63.37,245.96c.04.59.07,1.01.09,1.43-.06.01-.11.02-.18.03-.08-.14-.19-.27-.23-.42-.36-1.52-.58-3.06-.39-4.63.07-.6.19-1.18.72-1.64,0,.15.03.3,0,.44-.08.36-.19.71-.26,1.07-.3,1.47-.15,2.82,1.01,3.92,1.11,1.05,2.13,2.2,3.27,3.21,1.85,1.64,3.77,3.21,5.66,4.82.19.16.36.35.48.6-.78-.16-1.25-.76-1.83-1.21-.58-.45-1.13-.93-1.7-1.41-.58-.49-1.16-.99-1.74-1.5-.55-.48-1.1-.97-1.64-1.47-.56-.52-1.12-1.04-1.66-1.58-.51-.51-1-1.05-1.6-1.69h0Z"/>
  <path class="cls-2" d="m115.44,167.84c.18.02.31,0,.4.05,3.75,2.32,7.51,4.65,11.31,7.01-.42.22-.68-.04-.95-.2-2.05-1.22-4.1-2.44-6.14-3.69-1.31-.8-2.59-1.62-3.89-2.45-.26-.17-.6-.28-.73-.72h0Z"/>
  <path class="cls-2" d="m133.63,169.97c-3.87-1.85-8.03-2.73-12.15-3.77,0-.07.01-.13.02-.2.15-.03.31-.13.44-.1,3.74.9,7.5,1.73,11.03,3.32.22.1.44.22.64.35.07.04.09.15.13.22-.03.06-.07.11-.1.17h0Z"/>
  <path class="cls-2" d="m124.16,175.73c-.64-.07-4.11-3.59-4.54-4.43.76.29,1.11.91,1.58,1.36.53.5,1.03,1.04,1.54,1.57.48.5.95,1,1.42,1.51Z"/>
  <path class="cls-1" d="m145.34,296.15s4.69,1.16,7.31,1.16,7.72-1.25,7.72-1.25"/>
</svg>