<?xml version="1.0" encoding="UTF-8"?>
<svg id="Layer_1" data-name="Layer 1" xmlns="http://www.w3.org/2000/svg" viewBox="0 0 495.95 523.85">
  <defs>
    <style>
      .cls-1 {
        fill: none;
        stroke: #000;
        stroke-miterlimit: 10;
      }

      .cls-2 {
        stroke-width: 0px;
      }
    </style>
  </defs>
  <path class="cls-2" d="m263.35,520.42c2.32-1.23,4.64-2.47,6.97-3.67,6.46-3.33,12.03-7.85,17.21-12.89,2.98-2.89,4.76-6.6,6.71-10.17,6.48-11.87,12.04-24.17,17.35-36.59,6.03-14.11,12.07-28.21,18.17-42.29,6.61-15.26,12.59-30.75,18.23-46.39,6.67-18.48,13.7-36.83,20.6-55.24,1.18-3.14,2.41-6.27,3.67-9.37.72-1.77,1.56-3.48,2.46-5.47-1.11-.72-2.11-1.48-3.21-2.05-9.28-4.83-18.61-9.57-27.87-14.45-3.6-1.9-7.04-4.1-10.55-6.16-.88-.52-1.78-.99-2.91-1.62-1.75,3.16-3.42,6.15-5.07,9.15-4.48,8.12-8.68,16.37-12.44,24.85-3.4,7.67-7.26,15.12-10.82,22.72-3.39,7.24-6.45,14.62-8.96,22.22-1.97,5.95-5.05,11.38-8.18,16.78-8.76,15.09-18.73,29.38-28.83,43.59-5.55,7.82-11.11,15.64-16.69,23.44-.86,1.2-1.45,2.71-3.15,3.06-2.22,2.82-4.69,5.47-5.02,9.34-.35,4.12.18,8.11,1.36,12.06.22.75.82,1.54.27,2.48-1.72-1.85-2.86-7.78-2.91-12.79-.04-4.88,2.8-8.33,5.64-12.09-1.96-1.14-3.72-2.19-5.5-3.21-.89-.51-1.87-.87-2.16-2.08-.09-.39-.6-.73-.98-.99-5.74-3.93-11.48-7.85-17.23-11.76-.19-.13-.43-.17-.4-.16-1.5,1.49-2.84,2.94-4.3,4.27-14.05,12.82-28.12,25.63-42.2,38.42-2.9,2.63-5.85,5.2-8.78,7.81-.64.57-1.25,1.17-2.09,1.95,2.66,1.61,5.1,3.08,7.54,4.55,15.68,9.44,31.4,18.81,47.03,28.34,7.09,4.33,14,8.96,20.98,13.47.39.25.69.63,1.04.95h-1.92c-.84-.71-1.62-1.51-2.53-2.11-3-1.99-5.99-3.98-9.07-5.85-18.31-11.11-36.63-22.19-54.96-33.27-2.99-1.81-6.03-3.55-9.03-5.31-2.64,2.13-5.16,4.09-7.6,6.15-6.59,5.57-13.11,11.22-19.71,16.78-4.09,3.45-8.24,6.84-12.93,9.49-6.17,3.49-12.86,2.7-17.73-2.46-1.84-1.94-3.35-4.28-4.65-6.63-2.98-5.38-5.61-10.95-8.6-16.32-11.07-19.9-22.24-39.75-33.34-59.63-.68-1.21-1.49-1.9-2.87-2.24-5.43-1.33-10.83-2.77-16.24-4.17-.57-.15-1.17-.23-1.75-.34,1.7,1.93,3.58,3.51,5.4,5.16,2.8,2.53,5.41,5.25,7.03,8.71,2.6,5.57,5.03,11.23,7.65,16.79,4.54,9.61,9.07,19.22,13.79,28.74,3.43,6.92,5.51,13.95,5.09,21.85-.42,7.8.05,15.65.15,23.48,0,.39.13.78.21,1.17h-1.44c-.02-.16-.06-.32-.07-.47-.11-6.15-.24-12.3-.3-18.44-.02-1.99.17-3.98.28-5.97.44-7.75-1.99-14.74-5.38-21.57-4.97-10.01-9.95-20.03-14.38-30.29-2.18-5.05-4.45-10.04-6.89-14.96-1.62-3.27-4.07-5.95-6.87-8.22-3.89-3.16-7.5-6.57-10.7-10.43-4.2-5.06-7.6-10.64-10.21-16.6-2.62-5.99-4.23-12.37-5.38-18.82-2.32-13-3.76-26.09-3.31-39.32.21-6.07.61-12.14.81-18.21.12-3.67.1-7.36-.02-11.03-.22-6.59.66-13.08,1.76-19.55,2.38-14.01,4.98-27.99,7.24-42.02,1.56-9.7,2.74-19.46,4.04-29.2,1.22-9.19,2.39-18.38,3.55-27.57,1.24-9.83,2.46-19.66,3.67-29.49.68-5.55,1.43-11.09,1.98-16.66.39-3.97.57-7.97.73-11.96.4-9.9.49-19.82,1.17-29.7.67-9.74,2.9-19.25,5.31-28.7,4.13-16.2,11.87-30.66,21.64-44.03,2.84-3.89,6.58-7.19,10.24-10.38,4.03-3.51,8.45-6.57,12.7-9.83,4.64-3.56,10.05-5.15,15.68-6.14,6.43-1.13,12.88-1,19.35-.3,9.93,1.07,19.87,2.07,29.79,3.21,8.36.96,16.61,2.59,24.49,5.51,9.35,3.46,17.84,8.47,25.37,15.13,2.69,2.38,5.19,4.96,7.43,7.63,2.59,3.08,5.23,6.34,6.66,10.31,1.15,3.19,2.65,6.25,3.81,9.43.62,1.71.8,3.57,1.25,5.34.94,3.75,2,7.47,2.87,11.24.32,1.37.22,2.83.37,4.24.17,1.56.2,3.09.72,4.66.5,1.5.14,3.28.22,4.93.15,3.25.22,6.5.53,9.73.46,4.74-.22,9.51.76,14.26.43,2.11-.35,4.44-.24,6.65.21,4.15-.62,8.22-.74,12.34-.1,3.48-.58,6.95-.75,10.43-.1,1.94,0,3.87-.42,5.82-.59,2.76.54,5.36,1.35,7.94.62,1.97,1.41,3.89,2.11,5.84.11.29.23.61.21.91-.16,2.55-.43,5.09-.53,7.64-.19,5.03-2.71,9.36-4.06,14.04-.09.31-.21.6-.31.91-.74,2.28-.66,4.73-2.71,6.67-1.69,1.59-2.52,4.06-3.97,5.94-1.51,1.95-3.37,3.63-4.97,5.52-1.44,1.7-2.78,3.49-4.07,5.32-1.56,2.22-3.09,4.47-4.5,6.79-.78,1.27-1.2,2.77-1.97,4.05-1.11,1.84-2.31,3.62-3.61,5.33-2.37,3.13-4.6,6.35-5.73,10.15-.42,1.41-.48,2.94-.72,4.51,1.5.45,2.7.86,3.92,1.17,8.14,2.02,14.9,6.41,20.93,12.08,13.05,12.28,26.85,23.68,40.79,34.91,10.6,8.54,21.71,16.33,33.52,23.1.48.28,1.06.53,1.37.95,1.3,1.8,3.28,2.44,5.19,3.22,4.51,1.83,9.03,3.66,13.52,5.55,3,1.26,6.1,1.8,9.66,1.66.59-1.12,1.3-2.34,1.9-3.62,2.29-4.92,4.42-9.92,6.84-14.78,2.6-5.21,5.42-10.32,8.2-15.44,1.15-2.12,2.51-4.12,1.32-6.72-.16-.36.29-1.4.67-1.53,3.76-1.28,5.81-4.27,7.86-7.36,5.53-8.32,11.25-16.51,16.71-24.87,6.17-9.44,11.32-19.47,16.4-29.53.76-1.5,1.52-2.99,2.28-4.49.94-1.86,1.05-3.7.53-5.78-1.2-4.8-2.14-9.66-3.18-14.5-.1-.47-.12-.97-.28-1.41-1.75-4.56-1.08-9.13.04-13.66,1.04-4.18,2.23-8.33,3.35-12.49.79-2.93,1.63-5.84,2.3-8.8.34-1.5,1.07-2.42,2.53-2.84,6.16-1.8,10.94-5.84,15.79-9.76,1.16-.94,1.66-2.27,2.18-3.64,1.52-4.03,3.1-8.04,4.75-12.02,1.61-3.9,4.55-5.98,8.78-6.45,2.51-.28,5.06-.5,7.31-2.02.74-.5,2.01-.49,2.96-.32,1.23.23,2.43.77,3.57,1.33,1.65.82,2.56,2.6,2.16,4.37-.28,1.22-.78,2.43-1.38,3.54-2.08,3.84-1.78,5.49,1.29,8.56,3.34-2.94,6.89-2.24,10.61-.67,1.9.8,2.8,2.13,2.79,3.99-.01,2.77-.03,5.52-1.71,8.05-.84,1.27-1.02,2.99-1.4,4.53-.64,2.56-1.22,5.13-1.79,7.7-.1.44-.01.92-.01,1.46,1.37.43,2.44-.2,3.47-.71,2.08-1.04,4.14-.97,6.27-.21,3.21,1.14,5.17,3.97,4.93,7.39-.13,1.82-.47,3.62-.76,5.79,2.93-1.24,5.71-2.32,8.4-3.57,7.17-3.32,14.31-6.71,21.46-10.09,3.21-1.52,6.59-2.53,10.09-2.9,3.71-.39,7.29.26,9.5,3.71,2.27,3.53,2.45,6.05-.3,8.59-1.22,1.12-2.49,2.28-3.94,3.03-4.89,2.55-9.91,4.83-14.79,7.39-8.84,4.63-17.62,9.39-26.43,14.08-3.73,1.99-7.47,3.94-11.46,6.05.46,2.21.94,4.37,1.35,6.54.31,1.64.59,3.3.76,4.96.16,1.64.41,3.34-.93,4.61.93,1.11,1.72.64,2.51.24,1.99-1.01,3.95-2.11,5.98-3.04,8.08-3.73,16.68-5.99,25.12-8.65,3.34-1.05,6.38.07,8.26,2.79,1.03,1.5.85,2.8-.1,4.18-1.52,2.21-3.52,3.9-5.66,5.46-5.07,3.68-10.57,6.59-16.19,9.31-.78.38-1.53.8-2.28,1.19.4,2.21,1.99,3.43,3.16,4.9.54.69,1.25,1.24,1.81,1.92,1.22,1.46,1.25,2.49-.22,3.72-1.65,1.37-3.39,2.75-5.31,3.64-1.95.91-4.13,1.13-6.03-.54-.4-.35-1-.47-1.51-.7-2.15-.98-4.51-1.46-6.48-2.86-1.09-.78-2.13-.63-3.32.04-3.78,2.12-7.29,4.49-10.38,7.61-4.24,4.29-7.73,9.15-11.44,13.85-6.73,8.53-13.16,17.33-20.36,25.45-5.22,5.89-11.49,10.85-17.29,16.23-.51.47-1,.94-1.41,1.33.09.33.08.45.13.46,1.48.62,2.38,1.59,2.06,3.32-.24,1.25-1.79,2.6-3.38,2.54-1.83-.07-2.59.99-3.17,2.37-.81,1.91-1.57,3.84-2.27,5.79-.95,2.62-1.77,5.29-2.77,7.89-.83,2.15-1.95,4.2-2.77,6.35-1.3,3.42-2.39,6.93-3.69,10.35-1.38,3.65-2.94,7.24-4.35,10.88-.54,1.4-.84,2.89-1.27,4.34-.18.61-.33,1.24-.61,1.81-2.27,4.68-3.71,9.64-5.22,14.6-1.23,4.03-3.02,7.89-4.56,11.83-2.19,5.64-4.55,11.22-6.51,16.93-2.17,6.33-5.51,12.15-7.75,18.44-2.1,5.93-5.24,11.44-7.35,17.36-2.28,6.38-5.82,12.2-8.08,18.56-2.16,6.09-5.47,11.67-7.74,17.7-.39,1.04-.69,2.12-1.04,3.17-.23.68-.43,1.37-.76,2-1.62,3.11-3.41,6.13-4.89,9.3-1.24,2.65-2.98,5.12-3.36,8.14-.05.37-.31.74-.52,1.07-4.03,6.25-8.01,12.55-14.08,17.11-3.76,2.82-7.56,5.6-11.39,8.34-.76.54-1.71.81-2.56,1.23-.91.45-1.81.94-2.72,1.41h-3.36Zm-134.82-177.56c-.92-2.09-1.79-3.64-2.3-5.29-1.86-5.95-5.17-11-9.64-15.24-4.17-3.96-8.48-7.78-12.92-11.43-5.92-4.88-12.03-9.52-18.04-14.29-.48-.38-1.3-.62-1.1-1.89.79.51,1.4.83,1.93,1.25,5.1,3.98,10.3,7.86,15.26,12.01,5.57,4.66,11.06,9.44,16.35,14.43,3.87,3.65,6.64,8.13,8.63,13.12,1.32,3.32,2.82,6.62,4.65,9.69,2.02,3.4,3.74,6.89,4.78,10.68.53,1.92,1.44,3.1,3.39,3.48.31.06.59.24.9.33,8.21,2.32,14.97,6.99,21.12,12.77,4.42,4.16,9.15,7.99,13.6,12.12,2.86,2.66,5.62,5.46,8.13,8.44,2.41,2.87,4.36,6.12,6.67,9.07,1.87,2.38,3.76,4.82,6.02,6.79,4.03,3.5,8.25,6.8,12.59,9.92,5.44,3.93,11.07,7.59,16.63,11.36.5.34,1.05.59,2.09,1.16-.97-3.88-1.36-7.36-2.89-10.56-1.58-3.32-3.11-6.66-4.79-9.93-.65-1.28-.85-2.52-.72-3.91.3-3.34.58-6.68.81-10.03.7-10.28,1.36-20.57,2.04-30.85.45-6.85,1.08-13.7,1.32-20.56.3-8.56-.37-17.09-1.43-25.58-.9-7.14-2.06-14.23-4.29-21.11-4.49-13.86-7.28-28.14-10.16-42.39-.08-.37.08-.8.13-1.2.16-.02.32-.05.48-.07.19.54.43,1.07.55,1.63.76,3.59,1.47,7.2,2.24,10.79,2.35,10.93,4.76,21.85,8.25,32.5.72,2.2,1.29,4.45,1.77,6.72,1.69,7.98,2.72,16.07,3.2,24.21.31,5.25.19,10.53.27,15.79,0,.59.09,1.19.16,1.98.74-.35,1.27-.52,1.72-.82,2.31-1.57,4.63-3.14,6.9-4.77,6.32-4.55,12.16-9.56,16.73-15.99,6.09-8.57,11.13-17.72,15.68-27.17.16-.34.21-.73.3-1.07-5.28-3.97-10.49-7.82-15.62-11.76-16.88-12.96-33.06-26.73-48.64-41.22-5.6-5.21-12.06-8.92-19.56-10.66-.9-.21-1.8-.42-3.11-.72.19,2.56.27,4.78.54,6.97,1.07,8.51,3.1,16.8,5.61,24.99.56,1.83.96,3.71,1.27,5.6.31,1.92.05,3.82-.83,5.6-2.06,4.14-5.56,5.56-9.75,3.68-1.95-.88-3.83-2.01-5.55-3.29-5.94-4.43-10.97-9.76-15.18-15.87-.39-.56-.84-1.08-1.41-1.79-3.37,3.84-7.2,6.63-11.9,8.12.12.75.19,1.3.29,1.84.6,3.14,1.21,6.27,1.83,9.41.14.71.31,1.42-.91,1.9-.49-.95-1.08-1.86-1.45-2.86-1.02-2.69-1.93-5.42-2.91-8.12-.24-.65-.54-1.28-.91-2.16-3.29.49-6.46.97-10.02,1.51,1.81,3.31,3.34,6.28,5.01,9.17,4.28,7.42,8.86,14.62,15.07,20.66,2.12,2.05,4.02,4.34,5.89,6.63,2.48,3.03,4.86,6.16,6.25,9.89,1.46,3.92-.19,6.39-4.4,6.15-2.35-.13-4.83-.59-6.95-1.57-4.71-2.16-9.32-4.58-13.8-7.19-7.8-4.55-15.4-9.43-23.2-13.98-6.51-3.8-13.39-6.73-20.77-8.53-3.16-.77-6.21-2.09-9.19-3.42-5.78-2.6-11.1-6-16.32-9.57-.82-.56-1.82-1.08-2.79-1.19-4.36-.47-8.74-.96-13.12-1.12-4.86-.17-9.76-.53-14.52.98-.21.07-.5-.12-.76-.19-.02-.17-.03-.33-.05-.5,1.01-.33,2-.82,3.04-.97,2.13-.3,4.29-.62,6.43-.55,5.02.16,10.04.54,15.06.82.8.04,1.65.35,2.57-.26-8.87-6.92-17.26-14.03-24.13-22.84-.42.24-.8.39-1.09.63-3.16,2.57-6.31,5.16-9.46,7.74-2.02,1.66-3.44,3.76-4.5,6.13-1.69,3.79-3.52,7.53-5.09,11.38-3.63,8.87-7.32,17.72-10.63,26.71-2.06,5.61-3.49,11.46-3.74,17.52-.16,3.91-.48,7.82-.49,11.73-.02,6.47-.2,12.96.33,19.39.78,9.47,2.43,18.83,4.49,28.13,2.53,11.42,8.43,20.96,15.77,29.77.52.62,1.37,1.12,2.16,1.33,5.86,1.58,11.74,3.08,17.63,4.58.63.16,1.3.2,2.33.35-.54-1.03-.86-1.65-1.19-2.28-2.85-5.54-6.02-10.95-8.48-16.66-7-16.24-12.29-33.09-16.71-50.2-.8-3.09-1.31-6.25-1.87-9.39-.15-.83-.51-1.85.68-2.65.14.44.26.71.31.99.74,4,1.28,8.05,2.25,11.99,2.8,11.33,6.4,22.43,10.28,33.43,2.69,7.61,5.42,15.22,9.33,22.31,11.35,20.57,22.82,41.08,34.16,61.65,5.44,9.87,10.7,19.83,16.05,29.75.11.21.24.41.39.67.66-.4,1.14-.65,1.58-.96,8.32-5.98,16.35-12.32,23.74-19.42,10.91-10.47,22.32-20.37,33.88-30.09,14.68-12.35,29.46-24.57,44.19-36.86.46-.38.83-.85,1.05-1.08-2.91-3.93-5.71-7.62-8.4-11.38-3.17-4.44-6.62-8.6-10.78-12.17-4.79-4.11-9.5-8.31-14.19-12.54-3.69-3.33-7.4-6.66-11.91-8.81-3.45-1.64-7.09-2.91-10.68-4.24-14.68-5.44-29.38-10.83-44.08-16.25-4.8-1.77-9.6-3.53-14.38-5.35-.81-.31-1.85-.41-2.5-1.94,6.92,2.24,13.23,4.85,19.65,7.15,6.39,2.29,12.74,4.71,19.11,7.07,6.4,2.36,12.81,4.71,19.22,7.07.14-.14.27-.27.41-.41-.82-2.71-1.75-5.38-2.97-7.97-1.04-2.22-2.52-4.06-4.58-5.42-3-1.98-5.94-4.06-9.02-5.92-5.06-3.06-10.18-6.02-15.84-7.92-5.91-1.98-11.81-3.99-17.71-5.99-3.78-1.28-7.56-2.57-11.34-3.87-.55-.19-1.25-.27-1.17-1.41.87.24,1.62.42,2.35.66,7.42,2.5,14.8,5.11,22.25,7.5,7.26,2.33,14.22,5.29,20.71,9.31,3.32,2.06,6.61,4.16,10.37,6.53Zm81.66-204.7c.18-.02.37-.05.55-.07.14-1.41.32-2.82.41-4.24.48-7.65,1.28-15.3,1.31-22.96.04-9.1-.53-18.2-.96-27.3-.2-4.15-.48-8.31-1.08-12.41-1.12-7.69-3.26-15.14-5.68-22.51-1.99-6.06-4.81-11.66-9.37-16.26-1.29-1.31-2.49-2.71-3.78-4.01-6.48-6.53-13.72-11.97-22.33-15.42-11.11-4.46-22.56-7.47-34.55-8.44-7.08-.57-14.13-1.48-21.2-2.23-7.08-.74-14.15-1.26-21.27-.23-6.51.94-12.64,2.67-17.86,6.91-2.42,1.96-5.01,3.71-7.47,5.63-6.91,5.38-13.35,11.21-17.82,18.9-.84,1.45-1.78,2.85-2.65,4.28-5.98,9.88-11.09,20.17-14.15,31.36-.91,3.31-1.64,6.67-2.42,10.01-2.25,9.58-3.84,19.26-4.1,29.13-.25,9.35-.26,18.72-.97,28.03-.82,10.74-2.21,21.44-3.52,32.14-1.95,15.85-4.02,31.69-6.11,47.52-1.3,9.9-2.54,19.81-4.12,29.66-2.23,13.88-4.73,27.71-7.15,41.55-1.21,6.95-1.91,13.93-1.66,20.98.04,1.05.1,2.1.14,3.15,1.12-2.35,1.74-4.74,2.55-7.06,4.08-11.79,9.3-23.11,14.15-34.59,2.23-5.27,5.65-9.39,10.11-12.8,2.28-1.74,4.48-3.59,6.75-5.42-.21-.54-.35-.99-.56-1.42-4.27-8.81-7.28-18.08-9.79-27.51-1.9-7.12-3.3-14.31-2.92-21.76.25-4.86.27-9.74.28-14.62,0-3.67-.18-7.35-.25-11.02-.01-.64.14-1.27.22-1.91.2,0,.41,0,.61,0,.1.67.28,1.34.28,2.01.02,9.03-.06,18.07.04,27.1.04,3.58.15,7.21.78,10.72,1.94,10.89,5.35,21.37,9.46,31.63,1.92,4.79,4.51,9.12,8.13,12.89,9.19,9.57,19.44,17.81,30.75,24.72,5.6,3.42,11.43,6.49,17.86,8.04,7.46,1.8,14.4,4.8,20.97,8.66,7.93,4.65,15.73,9.5,23.6,14.26,4.38,2.65,8.8,5.21,13.61,7.04,2.27.87,4.6,1.36,7.03,1.17,2.42-.18,3.4-1.33,2.7-3.67-.54-1.81-1.32-3.65-2.4-5.18-2.35-3.32-4.88-6.53-7.5-9.64-2.63-3.11-5.65-5.9-8.16-9.09-5.82-7.37-10.33-15.57-14.57-23.92-1.84-3.64-3.66-7.28-4.6-11.29-2.54-10.85-3.53-21.91-4.28-32.99-.32-4.78-.24-9.61-.95-14.33-2.36-15.55-5.09-31.05-7.51-46.59-1.56-10.04-2.53-20.13-1.81-30.32.4-5.63,1.37-11.1,4.37-16.02,2.18-3.56,5.37-6.07,8.56-8.62,3.62-2.89,7.31-5.72,10.67-8.89,5.43-5.14,9.65-11.29,13.62-17.59,5.43-8.61,10.09-17.6,13.43-27.25,1.42-4.1,2.02-8.34,2.61-12.63.63-4.56,3.51-5.84,7.64-3.76,1.21.61,2.43,1.2,3.66,1.77,2.53,1.18,5.15,2.2,7.6,3.52,6.88,3.71,12.57,8.7,16.58,15.53,4.87,8.31,8.18,17.16,9.4,26.72.54,4.19.73,8.43.88,12.65.1,2.92-.54,5.78-2.4,8.12-1.58,1.99-1.93,4.2-1.59,6.55.47,3.24,1.1,6.45,1.68,9.67.27,1.51.64,2.96,2.25,3.69.33.15.62.54.77.89.95,2.19,1.88,4.38,2.75,6.6.34.87.49,1.82.73,2.73Zm206.43,71.27c.92-3.16,3.37-4.99,5.85-6.75,2.22-1.57,4.49-3.06,6.8-4.48,1.98-1.21,4.36-1.92,5.99-3.46,1.65-1.55,3.6-2.24,5.46-3.23,9.57-5.14,19.12-10.33,28.73-15.4,6-3.17,12.09-6.17,18.14-9.23,2.09-1.05,4.01-2.31,5.56-4.09,1.24-1.42,1.45-2.92.63-4.65-1.79-3.78-4.76-5.31-9.23-4.73-4.58.6-8.78,2.35-12.89,4.34-5.75,2.78-11.37,5.88-17.26,8.34-6.55,2.74-13.35,4.85-19.99,7.37-3.72,1.41-7.46,2.89-10.97,4.75-3.23,1.71-6.16,4.01-9.26,5.98-2.08,1.33-4.16,2.71-6.38,3.79-2.1,1.02-3.15.42-3.73-1.78-.95-3.58-1.44-7.2-.73-10.9,1.45-7.61,2.93-15.21,4.31-22.83,1.58-8.67,4.5-16.79,9.29-24.23,1.2-1.87,2.1-3.95,3.02-5.98.49-1.08.83-2.26,1.03-3.42.2-1.18-.27-2.12-1.42-2.76-2.4-1.34-4.74-1.9-7.13-.02-.62.49-1.38.83-1.96,1.37-5.99,5.52-11.21,11.56-13.75,19.56-2.93,9.21-6.11,18.34-9.16,27.51-4.41,13.27-8.69,26.58-14.78,39.21-5.11,10.58-10.2,21.19-16.4,31.17-5.94,9.57-12.32,18.87-18.53,28.27-2.2,3.32-4.49,6.59-6.8,9.96,5.37,3.55,10.88,6.73,16.58,9.62,8.69,4.4,17.28,9,25.92,13.52.54.28,1.1.54,1.65.81,2.66-2.29,5.24-4.44,7.73-6.68,5.52-4.98,11.15-9.86,15.75-15.74,6.95-8.87,13.78-17.83,20.76-26.68,2.86-3.63,5.64-7.44,9.03-10.53,5.57-5.07,12.04-8.93,18.86-12.19,6.55-3.14,13.05-6.4,19.49-9.76,4.41-2.3,8.37-5.26,11.67-9.06,2.25-2.59.85-4-1.28-4.97-1.79-.82-3.72-.93-5.63-.36-3.36,1.01-6.71,2.1-10.08,3.08-9.88,2.88-18.96,7.51-27.83,12.61-1.52.88-2.96,1.89-4.47,2.8-.42.25-.93.35-1.4.52-.09-.16-.18-.32-.27-.48,2.99-2.44,6.57-4.08,9.89-6.56-.66-.19-.88-.28-1.11-.31-7.54-.77-15.09-1.53-22.63-2.33-.43-.05-.84-.36-1.26-.54.04-.14.08-.29.13-.43h4.07Zm-213.3-82.19c-.26-1.02-.4-1.56-.54-2.1-1.07-4.19-1.91-8.41-1.85-12.77.02-1.58.35-2.99,1.34-4.24,1.76-2.21,2.51-4.79,2.6-7.57.32-9.21-1.15-18.15-4.16-26.84-1.98-5.69-4.59-11.09-8.09-16-4.89-6.86-11.78-11.13-19.36-14.42-1.76-.76-3.55-1.45-5.25-2.33-4.28-2.23-6.6-1.07-6.89,3.74-.32,5.27-1.85,10.2-3.71,15.06-3.53,9.22-8.24,17.83-13.6,26.1-6.27,9.68-13.72,18.26-23.32,24.84-1.84,1.26-3.5,2.79-5.14,4.31-1.02.94-2.03,1.97-2.61,3.5,14.54,8.58,28.38,18.08,44.18,24.87-.2-1.81-.42-3.3-.53-4.79-.14-2.03.75-3.17,2.73-3.53.62-.11,1.27-.04,1.9-.05,3.99-.07,8,.08,11.97-.26,7.19-.62,14.11-2.65,21.03-4.61,3.06-.86,6.07-1.9,9.28-2.92Zm10.53,34.28c.35-2.67.37-5.1-.33-7.53-1.31-4.52-2.54-9.07-3.87-13.58-1.03-3.51-1.54-7.19-3.5-10.4-1.01-1.66-1.7-2.04-3.5-1.5-5.51,1.64-10.99,3.36-16.53,4.88-8.06,2.22-16.25,3.38-24.64,2.74-.56-.04-1.12-.09-1.68-.04-1.92.18-2.48.92-2.27,2.82.25,2.22.49,4.44.71,6.67.45,4.45.88,8.89,1.32,13.34.38,3.89.92,7.78,1.09,11.68.17,4.1-1.97,6.82-5.85,8.01-2.21.68-4.46,1.26-6.66,1.98-2.12.69-4.22.78-6.37.23-3.02-.77-6.05-1.46-9.07-2.25-3.28-.86-6.42-.35-9.86.76.46,1.11.72,2.11,1.24,2.95,3.25,5.31,6.65,10.54,9.82,15.9,1.77,2.98,4.26,4.52,7.56,5.3,7.87,1.85,15.82,3.13,23.83,4.05,3.41.39,6.84.36,10.26-.35,5.39-1.11,10.21-3.58,15.1-5.97,5.18-2.53,9.26-6.31,12.55-10.88,5.52-7.65,8.32-16.48,10.3-25.59.12-.56.02-1.18.02-1.93-15.82,3.18-31.38,6.31-46.93,9.43-.04,0-.12-.1-.16-.17-.04-.07-.05-.15-.16-.56,5.16-1.48,10.48-2.23,15.7-3.4,5.3-1.19,10.64-2.16,15.96-3.25,5.3-1.09,10.59-2.22,15.9-3.34Zm10.09,199.43c-.16.04-.33.09-.49.13-.17,2.35-.34,4.7-.51,7.06-.58,8.2-1.17,16.39-1.73,24.59-.35,5.08-.69,10.17-.96,15.26-.04.75.23,1.57.55,2.27,1.19,2.59,2.45,5.14,3.71,7.69,2.13,4.32,3.65,8.84,4.39,13.61.1.65.42,1.47.91,1.84,2.03,1.52,4.16,2.9,6.4,4.43.69-.87,1.25-1.53,1.76-2.22,8.11-11.18,16.26-22.33,24.29-33.57,8-11.17,15.58-22.61,21.83-34.88.71-1.4,1.36-2.83,2.07-4.3-.75-.44-1.28-.79-1.84-1.07-4-2-7.99-4.01-12-5.97-2.79-1.36-5.64-2.6-8.41-4-3.6-1.82-7.15-3.72-10.69-5.64-1.14-.62-2.05-.58-3.03.3-1.83,1.66-3.7,3.29-5.59,4.88-.84.71-1.77,1.33-2.7,1.92-.93.58-2.04.93-2.85,1.64-2.59,2.25-5.06,4.64-7.62,6.92-.95.84-2.03,1.55-3.09,2.25-.95.63-1.8.45-2.47-.52-.62-.88-1.28-1.73-1.93-2.59Zm-28.78,48.88c-1.06.83-1.95,1.5-2.81,2.21-14.97,12.49-30,24.9-44.87,37.5-8.96,7.59-17.82,15.31-26.43,23.28-7.92,7.34-15.89,14.58-24.52,21.07-2.09,1.57-4.18,3.13-6.23,4.68,4.13,8.42,12.85,11.03,20.16,6.54,3.12-1.92,6.17-4.02,8.99-6.35,8.88-7.31,17.74-14.65,26.41-22.2,11.38-9.92,22.6-20.03,33.83-30.12,8.44-7.58,16.76-15.29,25.18-22.89,3.23-2.92,3.33-4.03-.11-6.69-3.09-2.39-6.3-4.62-9.59-7.03Zm-1.08-208.75c-.1-.07-.21-.14-.31-.2-3.37,1.63-6.7,3.36-10.13,4.87-5.8,2.58-11.87,3.7-18.23,2.83-4.98-.69-9.96-1.37-14.94-2.08-2.42-.35-2.53-.33-3.75,1.87-1.91,3.42-2.85,7.15-2.99,11.01-.25,6.94-.31,13.89-.35,20.84,0,.96.41,2.02.91,2.86,2.91,4.87,6.07,9.59,8.82,14.55,4.31,7.76,10.11,14.15,17.13,19.46,2.01,1.52,4.33,2.69,6.64,3.75,1.99.91,3.86.33,5.51-1.16,1.93-1.76,2.79-3.95,2.52-6.44-.24-2.29-.68-4.59-1.34-6.79-3.12-10.43-5.58-20.96-6.18-31.9-.22-4.04.59-7.6,2.58-10.96,2.53-4.26,5.18-8.45,7.81-12.64,2.07-3.3,4.19-6.56,6.3-9.84Zm-82.12-81.75c-.63,1.38-1.23,2.49-1.66,3.65-1.67,4.46-2.22,9.14-2.41,13.86-.26,6.4.25,12.77.8,19.14.13,1.54.64,2.65,1.82,3.67,6.28,5.44,12.49,10.96,18.74,16.43.46.41,1.03.79,1.61.95,3.55.93,7.12,1.8,10.68,2.67,2.2.54,4.37.58,6.57-.22,2.17-.79,4.44-1.31,6.65-1.99,2.89-.89,4.68-3.09,4.9-6.12.08-1.11-.02-2.23-.13-3.34-.72-6.98-1.51-13.96-2.19-20.95-.15-1.51-.63-2.44-2.08-3.11-4.12-1.93-8.27-3.84-12.21-6.1-8.1-4.65-16.08-9.53-24.11-14.32-2.25-1.34-4.49-2.69-6.99-4.19Zm140.08,224.83c12,6,23.76,11.88,35.66,17.83.53-.97,1.03-1.7,1.34-2.49,1.4-3.56,2.79-7.13,4.12-10.72,3.69-9.97,8.09-19.63,12.8-29.16.38-.76.68-1.56,1.16-2.68-4.15.39-7.59-.85-10.99-2.27-2.73-1.14-5.46-2.27-8.19-3.38-2.65-1.08-5.3-2.13-8.03-3.23-.16.5-.3.79-.34,1.1-.78,5.33-3.49,9.7-6.75,13.82-5.08,6.42-10.98,12.03-16.92,17.61-1.21,1.14-2.43,2.27-3.85,3.59ZM109.78,160.31c-.23.11-.46.22-.69.33.75,4.14,1.21,8.36,2.33,12.4,1.77,6.38,3.99,12.63,6.01,18.94,5.95,18.54,11.9,37.08,17.86,55.62.21.66.53,1.28.86,2.1,2.43-.77,4.54-1.78,6.38-3.28-.14-3-.4-5.87-.39-8.74.03-5.67.12-11.34.36-17,.2-4.66,1.07-9.2,3.54-13.28.27-.45.48-.94.79-1.56-2.42-.59-4.65-1.14-6.89-1.66-2.62-.61-4.68-2.02-6.11-4.28-3.58-5.67-7.13-11.36-10.66-17.06-.46-.74-.85-1.55-1.12-2.38-.48-1.51-.03-2.2,1.55-2.58,1.46-.35,2.93-.64,4.9-1.07-6.47-5.7-12.6-11.1-18.73-16.5Zm156.83,139.4c-.57,1.11-1.05,2.11-1.58,3.08-3.35,6.09-6.53,12.28-10.13,18.22-4.58,7.55-9.93,14.53-17.22,19.75-4.16,2.97-8.33,5.92-12.53,8.83-.69.48-1.24.9-1.29,1.83-.11,2.47-.28,4.93-.39,6.78,1.48,1.94,2.59,3.41,3.83,5.03.94-.69,1.81-1.24,2.58-1.91,3.18-2.79,6.27-5.68,9.5-8.41,5.55-4.69,11.31-9.15,16.73-13.98,5.85-5.21,11.37-10.78,16.2-16.99,3.08-3.96,5.58-8.18,6.2-13.3.26-2.12.23-2.4-1.67-3.44-3.29-1.81-6.61-3.56-10.23-5.5Zm105.35-97.26c.57-.98.97-1.55,1.25-2.18,1.16-2.63,2.35-5.25,3.4-7.92,6.37-16.12,11.24-32.75,16.83-49.14.43-1.25.26-2.15-.8-2.9-1.03-.74-1.78-.72-3.01.28-4.18,3.36-8.48,6.51-13.58,8.39-1.12.41-2.02,1.16-2.38,2.49-1.57,5.85-3.24,11.68-4.82,17.53-1.36,5.04-2.2,10.11-.99,15.36,1.15,4.97,2.08,10,3.14,14.99.19.91.55,1.78.96,3.1Zm48.12-23.84c4-1.96,7.62-3.74,11.29-5.54-.06-.5-.08-.98-.19-1.44-2.38-10.33-4.75-20.67-7.17-30.99-.49-2.09-1.07-4.17-1.75-6.21-.77-2.3-2.45-3.97-4.14-5.9-2.65,4.12-4.79,8.11-6.36,12.39-.3.81-.12,1.89.08,2.78,2.19,9.48,4.43,18.94,6.66,28.41.51,2.15,1.04,4.3,1.57,6.5Zm-279.09,96.53c.12-.04.24-.07.36-.11-.01-.23,0-.46-.04-.69-1.48-8.27-3.74-16.34-6.36-24.31-2.92-8.87-5.96-17.71-8.81-26.61-4.23-13.23-8.33-26.51-12.49-39.76-.17-.53-.47-1.02-.71-1.53-.29.74-.28,1.37-.17,1.98.79,4.56,1.6,9.12,2.39,13.68,1.39,8.1,3.13,16.15,3.13,24.44,0,.68.3,1.4.61,2.02,1.5,3,3.07,5.97,4.57,8.97,6.27,12.51,11.98,25.25,16.28,38.59.36,1.13.83,2.22,1.25,3.33Zm270.11-129.79c-.15-.01-.31-.03-.46-.04-.29.88-.66,1.73-.86,2.63-1.34,6.16-2.72,12.31-3.92,18.49-.88,4.54-1.8,9.08-1.68,13.75.07,2.48.65,4.83,1.52,7.38,5.29-1.71,9.06-5.33,13.43-8-2.72-11.57-5.38-22.9-8.04-34.22Zm-269.99,121.85c.55-.09.95-.1,1.32-.21,3.92-1.27,6.95-3.82,9.72-6.77.91-.97.32-1.78-.16-2.59-1.91-3.23-3.85-6.44-5.8-9.65-.4-.66-.88-1.28-1.18-1.72-2.9,1.68-5.63,3.26-8.44,4.9,1.5,5.29,3.02,10.64,4.55,16.04Zm291.48-94.33c3.47-1.16,6.48-2.19,9.51-3.17.88-.29,1.34-.84,1.39-1.72.14-2.3.38-4.6.32-6.9-.04-1.71-1.12-2.88-2.68-3.66-3.22-1.61-6.81-1.27-11.53,2.55.96,4.14,1.94,8.38,2.99,12.91ZM121.41,252.42c.85,5.99,2.43,11.49,5.58,16.63,3.32-.52,6.59-1.03,10.09-1.58-1.79-5.35-3.72-10.36-5.89-15.05h-9.77Zm307.32-96.57c.15-.01.29-.02.44-.04.21-.74.43-1.48.63-2.22,1.33-4.93,2.66-9.85,3.98-14.79.25-.92.5-1.85.65-2.8.34-2.09-.1-2.99-1.97-3.82-1.09-.49-2.25-.8-3.39-1.19-2.51-.86-4.71-.84-5.86,1.98,1.84,7.62,3.68,15.24,5.52,22.86Zm11.39,74.44c3.95,2.21,7.67,3.83,11.56,5.03,1.45.45,3.02.56,4.41-.35,1.14-.74,2.26-1.51,3.31-2.36,1.39-1.12,1.51-1.69.36-2.95-1.61-1.77-3.37-3.4-5.07-5.08-.86-.85-1.74-.83-2.81-.28-1.84.95-3.78,1.72-5.63,2.65-1.97,1-3.89,2.11-6.12,3.34Zm-309.44,20.91c-3.68-8.57-7.56-16.53-11.92-24.76-.5,3.3,1.48,21.59,2.59,24.76h9.32Zm298.51-40.21c2.11.19,3.77.44,5.43.46,1.85.02,2.99-.99,3.29-2.81.16-.93.25-1.93.09-2.85-.6-3.25-1.32-6.47-2.07-10.02-2.64,1.46-4.92,2.73-7.21,3.99-.69.38-1.11.91-.98,1.73.47,3.13.96,6.26,1.45,9.51Zm-20.78-93.54c-4.28-.5-7.56,1.11-9.32,5.11-2.18,4.95-3.99,10.05-5.99,15.08-.49,1.23-.08,1.94,1.05,2.31,1.91-4.07,3.42-8.3,5.77-12.01,2.36-3.72,5.54-6.92,8.49-10.5Zm9.42,92.1c3.36.76,6.61,1.06,9.89,1.23.14-2.45-.77-7.68-1.68-9.41-2.94,2.45-6.78,3.88-8.21,8.18Zm-42.11,89.22c-.49,1.24-.84,2.14-1.32,3.36,1.65-.2,2.98.03,3.55-1.67-.65-.49-1.27-.96-2.23-1.69Zm-47.88-22.86c.27-.6.47-1.04.82-1.81q-1.39.73-.82,1.81Z"/>
  <path class="cls-2" d="m105.19,316.6c-.59-.32-1.18-.62-1.76-.95-6.59-3.76-13.1-7.66-19.79-11.23-6.14-3.28-12.66-5.74-19.41-7.49-4.21-1.09-8.5-1.37-12.84-1.07-7.33.51-14.65,1.15-21.82,2.88-3.58.87-7.08,1.98-10.21,4.02-2.35,1.54-4.31,3.44-5.55,6.03-2.24,4.67-3.37,9.64-4.08,14.72-.96,6.89-1.69,13.81-1.19,20.77.38,5.36,1.76,10.56,3.33,15.67,2.86,9.31,5.79,18.6,8.91,27.83.94,2.77,2.61,5.29,3.94,7.93.2.39.36.79.6,1.33-1.2.18-1.44-.66-1.71-1.19-1.81-3.73-3.94-7.37-5.24-11.28-3.1-9.32-5.91-18.73-8.61-28.17-1.71-5.99-2.94-12.11-2.49-18.43.56-7.88.94-15.78,3.22-23.43,1.13-3.78,2.44-7.43,5.29-10.34.52-.53.8-1.38,1-2.13,1.11-4.25,2.33-8.48,3.2-12.78,1.01-5,2.85-9.67,5.18-14.12,3.33-6.37,6.93-12.6,10.43-18.87.25-.44.67-.78,1.03-1.19.88.83.1,1.28-.16,1.75-3.07,5.51-6.21,10.99-9.24,16.52-3.52,6.42-5.81,13.3-7.22,20.48-.52,2.64-1.24,5.24-1.88,7.88.33.05.51.14.61.08,7.03-4.06,14.85-5.23,22.72-6.18,3.88-.47,7.79-.72,11.7-.95,4.35-.25,8.59.46,12.78,1.61,7.98,2.19,15.48,5.56,22.73,9.49,4.98,2.7,9.8,5.71,14.67,8.61.79.47,1.51,1.06,2.27,1.59-.14.22-.28.43-.42.65Z"/>
  <path class="cls-2" d="m51.87,372.74c.67.38,1.08.56,1.42.82,7.36,5.41,15.21,10.03,23.35,14.12,2.76,1.39,5.76,2.37,8.74,3.26,12.12,3.59,24.49,6.05,36.94,8.09,13.78,2.26,27.61,4.23,41.42,6.33.44.07.87.25,1.44.42-.64,1.09-1.45.69-2.15.6-4.27-.58-8.55-1.1-12.81-1.78-12.45-2-24.92-3.9-37.32-6.17-8.08-1.48-16.07-3.49-24.07-5.38-6.72-1.59-13.1-4.09-18.99-7.78-5.41-3.39-10.82-6.78-16.22-10.19-.6-.38-1.11-.9-1.64-1.38-.09-.08-.05-.3-.12-.95Z"/>
  <path class="cls-2" d="m13.33,389.33c.1,1.53.17,2.63.24,3.73-.15.03-.3.06-.46.09-.2-.36-.5-.7-.59-1.09-.94-3.98-1.51-7.98-1.03-12.09.18-1.57.49-3.08,1.88-4.27,0,.39.07.79-.01,1.16-.2.93-.5,1.85-.69,2.78-.77,3.83-.4,7.35,2.64,10.24,2.89,2.75,5.56,5.74,8.54,8.38,4.83,4.29,9.84,8.39,14.77,12.58.5.43.94.92,1.25,1.57-2.03-.42-3.27-1.99-4.77-3.15-1.52-1.17-2.96-2.43-4.43-3.67-1.52-1.29-3.04-2.59-4.54-3.91-1.44-1.26-2.88-2.53-4.29-3.83-1.47-1.35-2.93-2.72-4.34-4.13-1.34-1.34-2.6-2.75-4.18-4.42Z"/>
  <path class="cls-2" d="m149.22,185.43c.48.05.82-.02,1.04.12,9.8,6.06,19.59,12.14,29.51,18.29-1.09.58-1.78-.1-2.48-.51-5.35-3.19-10.71-6.38-16.03-9.62-3.41-2.08-6.77-4.24-10.14-6.39-.69-.44-1.57-.73-1.9-1.89Z"/>
  <path class="cls-2" d="m196.72,191c-10.09-4.83-20.97-7.13-31.72-9.85.01-.17.03-.34.04-.52.39-.09.81-.33,1.15-.25,9.76,2.35,19.57,4.52,28.78,8.67.58.26,1.14.58,1.67.92.17.11.24.38.35.57-.09.15-.18.3-.27.45Z"/>
  <path class="cls-2" d="m172,206.01c-1.68-.17-10.72-9.36-11.85-11.57,1.99.76,2.89,2.37,4.13,3.55,1.38,1.31,2.69,2.71,4.01,4.09,1.25,1.3,2.48,2.62,3.71,3.93Z"/>
  <path class="cls-1" d="m227.26,520.31s12.25,3.03,19.07,3.03,20.15-3.25,20.15-3.25"/>
</svg>