<?xml version="1.0" encoding="UTF-8"?>
<svg id="Church" xmlns="http://www.w3.org/2000/svg" viewBox="0 0 288.26 381.24">
  <defs>
    <style>
      .cls-1 {
        stroke-width: .75px;
      }

      .cls-1, .cls-2 {
        fill: none;
        stroke: #1d1d1b;
        stroke-miterlimit: 10;
      }

      .cls-2 {
        stroke-width: .5px;
      }
    </style>
  </defs>
  <g>
    <path class="cls-2" d="m128.09,66.7s-1.99-.71-5.66,1.92-5.57,5.61-6.42,5.04-.43-3.05-.28-5.26-.07-5.61,0-8.24c.11-4.1,1.58-8.33,3.09-12.12,1.35-3.38,3.25-6.76,6.27-8.92,3.41-2.45,8.03-3.58,12.16-2.68,3.27.71,6.96,2.84,10.08,5.47s4.55,4.97,5.68,7.6c.57,1.31.96,3.21.96,4.51,0,0-.25,1.5-1.46.91s-3.83-2.91-4.76.49,0,5.53-1.63,7.87-4.9,3.55-6.39,3.55-3.48-1.92-3.48-1.92"/>
    <path class="cls-2" d="m153.14,55.42s1.3,6.24.84,9.22-1.17,5.89-1.88,6.82-1.56,2.34-1.49,3.62,1.28,2.63,1.07,4.76-.22,4.4-1.07,6.96c-.85,2.56-2.69,4.55-3.76,5.68s-2.77,1.49-4.26,2.13-2.84.78-5.68.64-3.12-1.56-4.76-.28-1.63.99-2.49,2.49-1.63,2.56-1.63,2.56"/>
    <path class="cls-2" d="m116.02,73.66s-2.34,6.6-4.55,10.87-4.19,7.24-4.19,7.24"/>
    <path class="cls-2" d="m151.59,78.34s-1.42.84-3.19,0-3.27-2.97-3.91-1.48-.78,6.6-1.63,7.67-2.7,1.78-3.98.85-1.85-.71-3.05-.92-2.06-.85-1.92.07-1.01,10-1.01,10"/>
    <path class="cls-2" d="m135.12,67.06s.99-.14,1.14-2.13-.5-2.84-2.34-3.34-4.19-.64-4.83.64-1.14,3.05-1.07,5.33.07,2.41,1.21,4.76,2.41,3.12,2.41,3.12"/>
    <path class="cls-2" d="m132.15,67.7s.28-.43,1.41-1.7,1.78-2.13.71-1.7-1.7,2.77-2.84,2.2-1.42,1.21-.85,2.41-.07,1.7.71,2.41,1.01-.36.86-1.21-.99-2.2,0-2.41Z"/>
    <line class="cls-2" x1="144.09" y1="78.53" x2="136.26" y2="64.93"/>
    <line class="cls-2" x1="130.96" y1="74.85" x2="135.83" y2="84.46"/>
    <path class="cls-2" d="m146.77,164s-.07-1.99-.5-4.47-1.42-8.59-2.13-12.29-3.27-16.4-4.83-21.45-7.74-20.1-9.37-22.94-1.92-2.84-4.55-3.98-6.6-4.19-9.66-6.75c-3.05-2.56-8.45-.36-9.3,0s-2.49,2.49-3.41,3.41-.92,3.34-.92,3.34c0,0-3.34,3.62-4.05,7.95s-1.78,11.5-1.85,17.4.5,12.36.92,16.97,3.69,30.89,3.69,30.89c0,0,3.2,19.88,2.49,20.88s-.64,2.27-.43,2.98.92,5.18,1.28,8.17c.36,2.98,2.2,12.29,2.91,13.85s.71,3.34,3.48,4.47c2.77,1.14,14.7,2.2,17.83,1.42,3.12-.78,6.68-2.49,10.51-3.83s7.03-3.12,7.88-4.62,1.99-2.13,2.7-3.41,1.21-2.06,1.21-4.19-.71-3.34-.85-6.39-.5-7.17-.78-10.87-.85-12.64-.85-12.64"/>
    <path class="cls-2" d="m133.06,129.41s1.63-3.41,2.13-1.07,0,13.42-1.07,20.74c-1.07,7.31-1.85,11.43-1.85,11.43"/>
    <path class="cls-2" d="m141.94,148.66s-1.7,10.87-2.06,13.71"/>
    <path class="cls-2" d="m111.19,102.78s5.97-.92,10.23,1.7c4.26,2.63,8.38,10.51,9.09,15.06s.99,12.71.71,15.55,0,6.04.11,6.89.81,3.48.96,4.9.14,2.49-.36,1.78.21-1.7-1.56-1.42-8.38.64-10.37,1.42-7.03,2.13-8.81,2.41-2.91,1.28-3.12-.36-.5-6.46-1.42-8.95-3.12-6.32-3.91-9.73-1.63-8.45-.28-13.49c1.35-5.04,2.13-8.38,4.83-11.5s3.2-3.55,3.2-3.55l.71-.71Z"/>
    <path class="cls-2" d="m113.18,189.42s3.91-4.76,5.68-7.95c1.78-3.2,2.13-4.05,2.13-4.05"/>
    <path class="cls-2" d="m113.18,199.15s.99-7.6,3.41-10.79,6.85-10.23,6.85-10.23"/>
    <path class="cls-2" d="m125.89,178.13s1.28,5.11,1.28,10.51,1.85,15.34,2.56,20.17c.71,4.83,2.56,10.23,2.56,10.23"/>
    <path class="cls-2" d="m107.07,217.97s2.63,2.06,8.59,2.41c5.97.36,13.64-.5,17.83-2.06s8.24-2.34,10.01-3.98,4.19-4.12,4.97-4.69,2.11-3.15,2.11-3.15"/>
    <path class="cls-2" d="m135.98,178.13s-3.83,13.21-5.26,15.69"/>
    <path class="cls-2" d="m132.28,179.34s-2.27,7.88-3.2,9.3"/>
    <path class="cls-2" d="m103.17,182.18s6.18-.14,9.3-4.05,3.76-5.04,3.76-5.04"/>
    <path class="cls-2" d="m117.06,173.94s-2.03,6.68-3.31,10.51"/>
    <path class="cls-2" d="m98.27,116.84s2.13,18.61,4.76,23.86c2.63,5.26,4.83,7.95,4.83,7.95"/>
    <path class="cls-2" d="m98.27,128.56s1.07,12.71,4.47,21.23c3.41,8.52,4.76,14.7,4.05,18.54-.71,3.83-1.35,6.96-1.35,7.39"/>
    <path class="cls-2" d="m107.69,147.1s1.8-.64,8.62-2.13,8.88-1.78,11.72-1.85,3.72.9,3.72.9"/>
    <path class="cls-2" d="m107.85,120.96s-2.41,6.75-2.48,9.66,0,3.83,0,3.83"/>
    <path class="cls-2" d="m108.56,129.7s-1.67,6.04-1.97,7.74l-.3,1.7"/>
    <path class="cls-2" d="m119.72,111.37s5.68,22.23,7.52,25.49,3.05,5.68,3.05,5.68"/>
    <path class="cls-2" d="m111.69,145.11s5.18-12.5,5.97-18.14c.78-5.65.92-8.34.92-8.34"/>
    <path class="cls-2" d="m125.61,116.49c.21-.21,5.69,17.33,5.69,17.33"/>
    <path class="cls-2" d="m109.12,151.6s4.61,15.05,6.01,18.27c1.41,3.22,3.11,5.82,5.01,6.91,1.89,1.09,5.4,1.37,8.62,1.35,3.22-.02,14.01.12,17.04,0s13.07-1.54,18.04-2.96,6.44-1.28,8.66-1.8,4.31-.8,5.82.09,4.97,1.7,7.48,1.52,3.55.19,3.98-1.09,2.27-2.98,3.03-3.93,1.28-1.37,1.28-2.04v-1.14"/>
    <path class="cls-2" d="m192.58,167.83s2.08-1.75,2.75-2.41.8-1.61.66-2.23.05-1.14.05-1.14"/>
    <path class="cls-2" d="m193.85,163.24s2.75-1.56,3.93-2.41,1.8-1.99,1.18-2.94-2.03-.93-2.93-.37-3.93,2.69-4.74,2.67-1.47,0-1.47,0"/>
    <path class="cls-2" d="m194.3,158.65s-6.09-.47-7.6-.33c-1.52.14-7.91,1.47-9.8,2.32-1.89.85-3.74,1.23-5.92,1.73s-8.33,1.63-11.65,1.87-7.31-.24-9.94-.24-8.66-1.14-10.65-1.63-7.43-1.07-7.53-2.11.19-3.93.28-6.82c.09-2.89.24-5.23.24-5.23"/>
    <path class="cls-2" d="m145.63,155.73s5.18-.02,8.73-.59c3.55-.57,7.95-.38,9.71-1.18s4.59-3.12,6.44-3.98,5.97-1.33,7.1-1.33h1.8"/>
    <path class="cls-2" d="m171.84,150.88s1.94.66,5.21-.38,4.92-1.8,4.69-.43-1.8,2.7-3.22,3.22-3.98.66-4.78.57"/>
    <polyline class="cls-2" points="171.65 162.21 169.33 159.4 169.99 158.5"/>
    <path class="cls-2" d="m174.78,153.88s-.38,2.35-2.09,3.25-2.08,1.18-3.36,1.37"/>
    <path class="cls-2" d="m178.46,150.04s2.43-3.99,8.11-9.2c2.38-2.18,4.97-4.12,7.65-5.91,1.02-.69,2.06-1.35,3.12-1.99.61-.37,1.32-.68,1.89-1.11.09-.07.21-.12.32-.17-.02-.03-.06-.05-.09-.07.09.1.93.15,1.16.21.37.1.74.21,1.1.32.99.3,1.98.6,2.98.9,1.72.52,3.52,1.22,5.31,1.42,1.66.19,2.51.24,2.51.24"/>
    <path class="cls-2" d="m193.92,158.48s12.29-14.89,15.27-19.2,8.1-11.08,8.1-11.08c0,0,1.75-2.6,1.94-2.65s.14-.33,0,1.33.11,5.49.12,8.05-.46,2.27-1.83,4.07-16.14,17.23-18.46,19.27"/>
    <path class="cls-2" d="m109.26,221.74s2.14,7.66,2.64,10.79,2.77,7.6,3.27,9.87c.5,2.27.85,8.02,1.92,11.36s1.78,10.94,1.78,10.94c0,0-.07,1.42.92,2.63s9.02-.92,11.22-.92,2.91-2.77,5.11-2.56c2.2.21,11.86-2.56,13.49-2.56s3.2-3.48,2.98-6.6c-.21-3.12-1.89-15.98-2.01-19.25s-.41-8.1-.62-12.78-.5-10.65-.5-10.65"/>
    <path class="cls-2" d="m117.31,223.68s1.05,7,1.12,11.9-.56,6.82-.56,6.82"/>
    <line class="cls-2" x1="121.13" y1="235.72" x2="132.28" y2="248.51"/>
    <path class="cls-2" d="m121.98,250.71s8.52,7.53,9.94,9.09"/>
    <path class="cls-2" d="m133.13,245.45l-1.21-3.34c-.85-3.05-3.55-18.25-3.55-18.25"/>
    <line class="cls-2" x1="139.74" y1="254.76" x2="151.63" y2="245.8"/>
    <path class="cls-2" d="m131.93,230.18s1.21-2.13.92-3.27-1.21-4.1-1.21-4.1"/>
    <line class="cls-2" x1="120" y1="254.05" x2="120" y2="243.75"/>
    <path class="cls-2" d="m119.78,267.33s-1.11,6.65-1.96,10.06c-.85,3.41-3.22,15.81-1.99,19.98,0,0,2.79,12.26,3.55,15.58.76,3.31,1.09,9.09,1.09,9.09"/>
    <path class="cls-2" d="m133.87,320.42s-2.08-5.73-1.37-9.85,1.61-9.42,2.08-13.07-.24-13.49.24-15.72,4.21-10.46,4.69-13.21,0-5.15,0-5.15"/>
    <path class="cls-2" d="m137.18,275.32s-.78,8.12-.85,10.25.14,4.69.43,5.97.78,2.56.78,2.56"/>
    <path class="cls-2" d="m134.21,300.15s1.46-.3,2.11-2.21,0-2.67.61-3.25,1.11-.65,1.25-1.5,1.08-.5,1.54,0,2.87,1.66,6.13,1.5c3.27-.15,6.68-.72,9.66-.58,2.98.14,4.05,1.49,4.26,2.7s.28,3.69-.92,5.4-4.26,3.55-7.24,4.55c-2.98.99-5.68,1.07-7.74,1.14-2.06.07-5.34,1.56-6.93,2.7s-4.55,2.84-4.55,2.84"/>
    <path class="cls-2" d="m120.27,319.39s-.98-.49-1.91,0-2.27,1.63-1.92,3.05,1.09,3.91-.06,5.97c-1.15,2.06-3.56,4.83-2.57,7.67.99,2.84,1.85,4.26,4.16,5.18s7.77,1.35,10.61,2.06,7.03,2.77,9.45,4.12,8.17,2.34,12.07,1.07c3.91-1.28,7.31-2.49,8.81-4.83s2.2-4.9,2.06-6.75-1.49-3.2-3.34-4.33c-1.85-1.14-4.9-2.2-6.96-2.84s-6.04-2.41-8.38-3.76-4.12-3.72-5.01-3.95-2.16-.31-2.31-.88-.92-1.63-1.35-.21-1.92,3.2-3.27,5.26-3.27,3.27-5.04,3.62-2.13.71-3.41-1.28-2.7-3.83-2.63-4.76,1.16-2.14,1.16-2.14"/>
    <path class="cls-2" d="m119.88,322.38s1.75,4.53,2.95,5.38,1.7.92,3.98,0c2.27-.92,3.55-1.56,3.55-1.56"/>
    <path class="cls-2" d="m114.87,330.88s.16,4.7,4.42,6.33c4.26,1.63,7.31,1.14,12,3.48s8.66,4.05,12.71,4.69c4.05.64,7.88-.36,11.36-1.99,3.48-1.63,5.38-4,5.38-4"/>
    <path class="cls-2" d="m132.57,310.16s3.2-1.65,6.68-2.78c3.48-1.14,5.33-1.14,9.59-1.63s6.39-1.7,8.17-3.05c1.78-1.35,2.81-2.6,2.85-3.47"/>
  </g>
  <path class="cls-1" d="m115.76,74.39s-2.05,5.44-3.03,7.52-3.34,6.42-3.34,6.42l-2.1,3.43s-.94.07-2.45,1.76-2.36,2.3-2.54,3.61-.18,1.62-.79,2.45-2.4,3.51-2.85,4.99-1.13,5.22-1.52,8.36-.99,6.8-.94,11.29.3,10.83.81,15.7,2.38,20.59,2.38,20.59l2.75,20.34s.79,6.89,1.02,9.29.35,2.16,0,3.06-.54,1.48-.28,2.75,1.02,7.27,1.7,10.9,1.5,8.63,2.43,10.99,1.4,2.99,1.86,3.59.45,1.22.82,2.25,1.54,5.57,2.04,7.96,1.08,4.27,1.96,6.57,1.47,3.68,1.78,6.1.44,4.75,1.02,7.1,1.68,7.58,1.87,9.1.38,4.79.7,5.5.65,1.68.65,1.68c0,0-1.99,9.39-2.65,13.19s-1.63,10.19-1.58,12.5.28,3.7.95,6.67,1.9,8.33,2.45,10.77,1.24,7.07,1.33,8.09-.1.17-.83.26-1.27.11-1.92.82-1.35,1.13-1.03,2.43.86,3.61.4,4.79-2.02,3.34-2.54,4.7-1.44,3.42.15,5.79,1.35,2.95,3.52,3.55,6.59,1.17,8.97,1.72,4.82,1.32,6.98,2.37,5.22,3.04,8.09,3.38,5.29.74,8.1-.22,3.95-1.52,6.57-2.72,2.86-2.88,3.36-4.25.87-3.91.96-5-1.43-2.77-2.78-3.58-6.65-2.69-9.55-3.95-4.97-1.67-7.26-3.61-2.57-3.26-3.59-3.37-2.27.09-2.66-.63-1.3-.97-1.52-1.71-1.07-4.38-1.15-5.23.06-1.12.72-1.52,2.35-1.64,4.09-2.61,3.77-2.24,5.77-2.37,6.09-.7,8.55-1.22,6.28-2.98,7.04-4.27,1.15-3.01,1.25-4.73-.69-2.66-1.82-3.05-3.97-.69-6.44-.47-3.74,1.07-6.96.47-4.33-1.07-4.95-1.5-1.19-.75-1.36-.37-.36,1.95-1.06-.14-1.09-4.39-.97-6.61.61-10.73.61-10.73c0,0,1.96-2.56,2.37-5.87s.44-6.07.44-6.07c0,0,6.33-1.51,8.38-1.87s2.4-.08,3.07-1.29,1.61-2.57,1.42-4.97-1.22-11.5-1.22-11.5c0,0-.94-11.16-1.17-15.74s-.76-16.01-.76-16.01c0,0,1.03-1.2,1.12-2.8s-.57-4.8-.69-6.77-.85-11.88-.85-11.88l-.85-12.64s5.19-.55,8.99-1.29,10.5-2.41,10.5-2.41c0,0,4.23-.66,6.19-1.13s2.43-.44,4.46.38,3.69,1.24,6.95,1.54,4.02-.02,4.33-.73,1.43-2.31,2.32-3.31,1.86-2.44,2.17-3.04-.19-1.2.43-1.77,1.61-1.45,1.51-2.47-.28-1.55.49-2.04,1.6-.81,2.42-2.07.48-1.65.48-1.65l5.19-5.21s12.01-12.6,13.22-14.12,1.52-2.95,1.51-3.67-.13-2.97-.14-5.13.04-3.18.04-3.18c0,0,.19-1.45-.42-.61s-6.33,8.69-6.33,8.69c0,0-1.39-.05-2.51-.24s-2.51-.54-4.1-1.04-6.44-1.82-6.44-1.82c0,0-4.52,2.77-6.6,4.28s-5.8,4.24-8.34,6.95-5.09,5.84-5.09,5.84c0,0-4.09-.31-6.82.68s-5.18,2.19-6.72,3.58-3.45,1.54-6.27,1.75-8.56.85-8.56.85l-5.42.22s-1.92-11.32-3.48-18.19-1.56-8.93-4.37-16.09-4.85-13.11-6.49-16.1-3.27-5.34-3.27-5.34c0,0,1.19-2.25,1.98-3.14s2.9-2.34,2.9-2.34c0,0,.9.03,1.84.3s4.58.69,5.95.34,4.01-.73,5.42-2.08,3.45-3.27,4.15-5.41,1.31-3.51,1.33-5.37.31-3.32-.16-4.59-1.27-2.07-.76-3.45,1.29-2.78,2.21-4.58,1.32-5.07,1.19-6.97-.85-7.77-.85-7.77c0,0,.68.18.85-1.29s-1.05-4.84-2.39-6.77-2.57-3.76-5.12-5.58-5.18-3.7-7.5-4.32-5.25-1.53-8.48-.36-6.16,1.97-8.25,5.15-4.67,7.97-5.55,12.11-.98,7.57-1.02,11.05-.3,4.65-.25,6.27-.04,1.83.23,2.15,0,1.04,0,1.04Z"/>
</svg>