<?xml version="1.0" encoding="UTF-8"?>
<svg id="Layer_1" data-name="Layer 1" xmlns="http://www.w3.org/2000/svg" viewBox="0 0 500.81 517.31">
  <defs>
    <style>
      .cls-1 {
        stroke-width: 0px;
      }
    </style>
  </defs>
  <path class="cls-1" d="m317.65,517.31c0-1.18,0-2.37-.02-3.55-.15-8.55-.02-17.12-.53-25.64-.42-7.02-2.75-13.6-6.57-19.57-.45-.71-1-1.36-1.6-2.15-1.37,3.64-2.53,7.02-3.91,10.32-.92,2.2-2.11,4.3-3.24,6.41-.33.62-.79,1.22-1.32,1.69-1.06.93-2.15.8-2.77-.46-.55-1.12-.98-2.39-1.09-3.63-.28-3.18-.34-6.38-.52-9.57-.24-4.23-.38-8.47-.82-12.67-.24-2.28-.94-4.52-1.54-6.74-.43-1.6-1.43-2.89-2.94-3.63-3.15-1.55-6.25-3.28-9.56-4.41-2.15-.73-4.58-.95-6.96-.14-11.87,4.04-23.72,8.15-35.66,11.97-15.38,4.91-30.95,9.14-46.64,12.94-12.81,3.11-25.7,5.86-38.74,7.83-14.34,2.17-28.75,3.22-43.25,2.4-6.87-.39-13.67-1.4-20.31-3.24-1.09-.3-2.13-.79-3.2-1.19.05-.18.1-.36.15-.54.48.04.99-.01,1.45.13,8,2.47,16.21,3.41,24.54,3.88,9.05.5,18.07.06,27.05-.82,10.49-1.03,20.89-2.77,31.24-4.87,26.65-5.41,52.78-12.79,78.67-21.04,5.18-1.65,10.31-3.42,15.46-5.15.74-.25,1.44-.59,2.61-1.08-1.2-.84-2.03-1.52-2.95-2.06-3.26-1.92-6.76-3.44-10.47-4.02-10.87-1.69-20.92-5.69-30.87-10.13-7.88-3.51-15.89-6.73-23.85-10.05-2.55-1.06-4.75-2.58-6.64-4.6-1.14-1.22-2.34-2.45-3.74-3.34-4.83-3.05-9.11-6.74-13.29-10.59-6.48-5.98-13.33-11.53-21.12-15.69-7.47-3.99-15.04-7.79-22.72-11.37-11.95-5.57-24.02-10.87-36.03-16.3-.47-.21-.9-.52-1.53-.9,1-.85,1.69-.15,2.3.11,5.06,2.18,10.14,4.33,15.14,6.65,11.59,5.38,23.17,10.8,34.7,16.33,3.89,1.86,7.6,4.09,11.39,6.15.41.22.82.44,1.53.34-.63-.61-1.24-1.26-1.91-1.84-7.19-6.29-15.09-11.57-23.25-16.48-17.55-10.58-35.88-19.64-54.59-27.98-.78-.35-1.53-.74-2.46-1.19.75-.86,1.34-.45,1.86-.22,3.14,1.39,6.3,2.76,9.41,4.21,17.46,8.17,34.66,16.83,50.95,27.17,7.77,4.93,15.39,10.11,21.83,16.76,2.79,2.88,5.74,5.52,8.86,8.03,2.74,2.2,5.32,4.59,7.92,6.96,3.32,3.02,6.77,5.85,10.54,8.29,1.59,1.03,3.13,2.26,4.39,3.67,1.97,2.21,4.3,3.8,6.99,4.91,4.43,1.83,8.89,3.59,13.3,5.46,7.06,2.99,14.09,6.07,21.15,9.07,2.02.86,4.12,1.54,6.57,2.45-.28-2.02-.46-3.58-.71-5.14-1.89-11.67-3.7-23.35-5.71-35-2.26-13.06-4.54-26.12-7.16-39.12-1.21-6.01-3.07-11.91-4.91-17.77-3.38-10.81-8.97-20.43-16.04-29.25-8.45-10.54-16.76-21.19-25.11-31.81-.49-.63-1.28-1.16-1.22-2.56.65.55,1.09.81,1.38,1.19,10.31,13.15,20.72,26.21,30.85,39.49,5.43,7.12,8.8,15.36,11.59,23.83,3.43,10.42,5.78,21.11,7.62,31.9,2.33,13.62,4.55,27.26,6.8,40.89,1.2,7.25,2.37,14.5,3.54,21.76.09.54.14,1.08.26,2,1.78.39,3.69.86,5.63,1.23,4.55.87,9.13,1.69,13.38,3.64,2.09.97,4.18,2.05,6.02,3.41,1.29.95,2.32,1.07,3.7.47,1.75-.76,3.56-1.37,5.56-2.12-.04-.56-.03-1.27-.16-1.94-4.63-23.69-9.93-47.21-17.18-70.25-5.82-18.51-13.39-36.26-23.56-52.86-5.01-8.17-11-15.49-18.06-21.96-6.96-6.38-14.04-12.58-21.96-17.79-6.9-4.54-14.39-7.19-22.66-7.64-2.62-.14-5.23-.41-8.08-.64-.57,1.99-1.16,3.8-1.6,5.65-.44,1.86-.74,3.75-1.15,5.83,1.64.75,3.23,1.43,4.78,2.2,3.15,1.56,6.31,3.1,9.4,4.77,2.69,1.45,4.38,3.57,5.33,6.68,3.68,12.07,9.41,23.19,15.83,34.04,6.67,11.28,12.85,22.85,19.21,34.31.34.62,1.04,1.26.34,2.45-.48-.74-.88-1.29-1.2-1.87-5.9-10.62-11.69-21.3-17.71-31.85-4.08-7.14-8.5-14.09-11.8-21.86-1.67.23-3.24.42-4.78.68-10.93,1.85-21.94,2.11-32.98,1.78-10.6-.31-20.94-2.37-31.21-4.8-11.59-2.74-23.09-5.81-34.39-9.55-4.93-1.63-9.8-3.43-14.64-5.32-3.22-1.26-6.54-1.56-9.89-1.45-4.22.15-8.44.62-12.66.91-1.06.07-1.68.55-2.26,1.46-6.72,10.6-13.5,21.15-20.23,31.74-7.14,11.24-12.85,23.2-17.58,35.63-2.03,5.34-3,10.92-3.35,16.62-.72,11.73-1.08,23.47-1.05,35.22.03,10.17.93,20.26,2.27,30.33.68,5.14,1.45,10.28,2.17,15.42.16,1.13.52,2.07,1.4,2.93,9.74,9.59,19.49,19.18,29.1,28.89,8.32,8.41,16.47,16.99,24.68,25.51.71.74,1.31,1.6,1.96,2.4h-1.44c-1.35-1.54-2.63-3.14-4.06-4.6-15.95-16.25-31.93-32.49-47.9-48.72-.76-.78-1.61-1.46-2.42-2.19-.32.98-.26,1.74-.11,2.48,2.54,12.28,5.12,24.55,7.64,36.82,1.11,5.39,2.13,10.81,3.19,16.21h-1.44c-.7-3.76-1.34-7.53-2.13-11.27-2.84-13.52-5.78-27.02-8.6-40.54-2.06-9.86-3.11-19.87-4.23-29.88C-.01,422.94-.18,410.25.14,397.55c.21-8.46.73-16.92,1.34-25.36.46-6.36,2.65-12.32,5.08-18.16,6.42-15.4,14.37-29.97,24.01-43.58,5.79-8.17,11.11-16.6,15.57-25.56.96-1.92,2.29-3.66,3.34-5.54,1.78-3.18,4.64-4.46,8.08-4.81,1.59-.17,3.17-.37,4.76-.55,1.66-.19,2.68-.92,3.16-2.7,1.76-6.48,3.21-13.02,4.08-19.68,1.34-10.33,1.8-20.7,1.12-31.1-.1-1.49-.33-3.06-.91-4.41-2.16-5.06-4.29-10.16-6.8-15.05-6.25-12.17-11.56-24.75-16.25-37.58-4.47-12.24-9.63-24.18-15.48-35.83-1.54-3.07-2.82-6.26-4.25-9.38-3.19-6.91-3.72-14.27-2.79-21.61,1.53-12.05,3.96-23.96,7.48-35.6,2.75-9.1,6.27-17.94,10.24-26.58,2.51-5.46,6.1-10.12,10.7-13.96,2.86-2.39,6.23-3.9,9.75-5,3.88-1.21,7.79-2.4,11.74-3.34,5.25-1.24,10.23-3.11,14.98-5.63,5.11-2.71,10.52-4.62,16.1-6.07.69-.18,1.41-.35,2.12-.37,6.96-.23,13.9-.11,20.71,1.68,4.86,1.28,9.77,2.41,14.64,3.64,4.53,1.14,8.71,3.08,12.78,5.35,9.14,5.1,18.29,10.18,27.49,15.16,6.6,3.57,13.33,6.92,19.94,10.48,4.33,2.33,7.88,5.66,11.17,9.28,1.33,1.47,2.84,2.77,4.19,4.23.63.69,1.06,1.57,1.57,2.36,2.3,3.53,4.76,6.98,6.86,10.63,2.1,3.66,4.01,7.45,5.71,11.32,1.68,3.84,3.48,7.63,4.74,11.67,1.21,3.86.91,7.61.31,11.45-.63,4.03-2,7.85-3.2,11.71-.02.08-.05.15-.07.23-1.24,3.4-2.74,6.55-6.99,6.98-.08.57-.24,1.05-.19,1.5.43,4.47-.29,8.9-.48,13.34-.08,1.78-.8,3.56-1.44,5.27-1.37,3.67-2,7.37-1.18,11.28.24,1.13.74,1.91,1.76,2.38,1.31.61,2.07.41,2.75-.88.97-1.83,1.77-3.76,2.78-5.57.77-1.39,1.72-2.67,2.62-3.98,1.03-1.49,2.51-2.1,4.29-2.14,1.42-.03,2.35.62,2.37,2,.02,1.1-.08,2.25-.37,3.31-.99,3.67-2.01,7.34-3.16,10.97-1.51,4.75-1.59,4.74.31,9.24,1.83,4.34,3.85,8.6,5.57,12.98,1.86,4.75,3.71,9.54,5.09,14.44,1.23,4.37,1.03,8.89-.74,13.17-3.42,8.26-6.8,16.55-10.42,24.72-2.11,4.75-4.86,9.2-8.43,13.03-1.4,1.5-2.99,2.92-4.71,4.02-2.4,1.55-4.93,2.99-7.57,4.07-2.33.96-4.87,1.49-7.36,1.98-6.97,1.37-14.03,2.01-21.11,2.47-3.66.24-7.33.39-10.99.57-1.52.07-3.02.08-4.38-.85-.34-.23-.9-.14-1.53-.22-1.69,4.53-3.36,8.99-5.14,13.77,2.4.26,4.58.46,6.74.74,3,.38,6.02.67,8.99,1.23,5.75,1.09,10.84,3.84,15.6,7.09,11.75,8.02,23.12,16.56,34.07,25.65,4.37,3.62,8.8,7.17,13.25,10.68.64.51,1.55.78,2.37.93,5.33,1,10.71,1.78,16.01,2.92,5.22,1.12,9.99,3.43,14.09,6.88,4.22,3.55,8.25,7.3,12.4,10.92.62.54,1.43,1.12,2.21,1.2,8.26.85,16.51,2.01,24.85,1.53,3.67-.21,7.35-.33,11.02-.52,1.45-.07,2.8-.34,4.01-1.32.76-.61,2.01-.65,2.73-1.29,1.29-1.15,2.56-2.44,3.48-3.89,10.35-16.36,19.87-33.17,27.31-51.09,6.8-16.37,13.52-32.78,20.27-49.17,1.6-3.89,2.38-7.95,2.39-12.15.01-2.96.18-5.94-.1-8.87-.76-7.98.24-15.77,2.06-23.52.66-2.8,1.14-5.64,1.85-8.42.43-1.69.94-3.43,1.81-4.92.9-1.55,2.06-3.14,3.5-4.15,4.07-2.86,7.31-6.4,9.86-10.64.08-.14.15-.28.23-.42,1.74-3.28,4.18-5.61,7.97-5.81,0-2.5-.07-4.89.02-7.27.1-2.7.25-5.41.54-8.1.27-2.46,1.86-3.87,4.21-4.28,3.22-.55,6.47-1.01,9.72-1.36,5.24-.57,10.5-1.01,15.75-1.52.23-.02.45-.14.89-.28.13-1.42.52-2.95.33-4.4-.27-2.06.53-3.76,1.36-5.42.76-1.52,1.91-2.8,4.35-2.09-2.71.85-3.34,2.87-3.69,5.07-.73,4.57-1.35,9.16-2.22,13.7-2.65,13.84-7.1,27.01-14.65,39.05-3.69,5.89-7.02,12.01-10.48,18.03-.64,1.11-1.24,2.24-1.75,3.41-2.66,6.16-7.16,10.29-13.51,12.43-1.06.36-2.17.62-3.16,1.11-2.35,1.17-4.77,2.27-6.93,3.74-3.28,2.24-6.09,6.26-3.96,11.97,2.18,5.83,4.63,11.57,7.02,17.32,1.28,3.1,2.59,6.2,4.05,9.21,1.73,3.55,1.86,7.23,1.34,11.01-1.09,7.93-2.93,15.69-4.78,23.47-4.55,19.15-10.56,37.86-17.17,56.37-4.29,12.04-8.6,24.09-13.42,35.92-3.89,9.53-8.4,18.83-12.92,28.08-4.67,9.55-9.69,18.92-14.55,28.37-3.06,5.96-6.12,11.93-9.27,18.08,3.75,2.94,5.18,7.32,6.23,11.88,1,4.35,2.3,8.68,2.79,13.09.56,5.06.57,10.21.47,15.32-.13,7.03-.58,14.05-.91,21.07-.04.82-.2,1.64-.35,2.78-1.14-1-.84-1.92-.78-2.73.85-11.33,1.16-22.66.82-34.02-.15-4.86-1.61-9.44-2.77-14.07-.7-2.78-1.59-5.54-2.7-8.17-1.17-2.76-3.17-4.81-6.35-5.26-.7-.1-1.47-.19-2.12,0-3.59,1.08-7.16,2.19-10.71,3.39-4.06,1.38-5.24,4.84-5.89,8.59-.08.46.19,1.09.5,1.5,6.16,8.28,8.58,17.72,8.75,27.88.07,4.23.28,8.46.29,12.7.01,3.67-.15,7.34-.24,11.01h-.96ZM155.98,131.21c1.07-3.7,2.55-6.88,4.83-9.63,2.81-3.39,6.02-6.35,10.53-7.03,3.13-.47,6.36-.4,9.55-.42,4.07-.03,8.14.13,12.21.14,2.39,0,4.15-1.12,5-3.4.91-2.47,1.9-4.93,2.54-7.48,1.86-7.38,2.91-14.88,3.36-22.48.07-1.27.19-2.57.55-3.78.64-2.1,2.08-2.6,3.85-1.34.96.68,1.86,1.54,2.55,2.5,5.1,7.09,8.41,14.84,8.7,23.7.08,2.39.13,4.79.31,7.18.4,5.26,1.58,4.98,5.32,5.29,3.81.32,5.58-.47,6.84-4.02,1.35-3.84,2.54-7.74,3.55-11.68,1.48-5.75.98-11.42-1.42-16.86-1.84-4.17-3.74-8.31-5.73-12.4-4.29-8.81-9.38-17.06-16.38-24.07-3.42-3.43-7.1-6.4-11.38-8.68-16.02-8.52-32-17.1-48.03-25.59-2.95-1.56-5.98-3.16-9.16-4.08-9.21-2.66-18.54-4.88-28.16-5.52-5.47-.36-10.87-.14-15.99,2.16-2.11.95-4.32,1.7-6.4,2.7-7.74,3.7-15.75,6.62-24.1,8.62-2.79.67-5.48,1.72-8.19,2.68-5.45,1.94-9.61,5.42-12.91,10.22-5.23,7.59-8.93,15.88-11.77,24.56-4.01,12.23-7.3,24.67-9.47,37.37-.79,4.65-1.58,9.31-1.18,14.05.62,7.41,2.67,14.46,6.01,21.08,6.38,12.64,12.07,25.57,16.92,38.88,5.38,14.73,11.67,29.06,19.1,42.89,1.4,2.6,2.84,5.19,4.43,7.67.76,1.18,1.81,2.26,2.94,3.1,2,1.49,3.97,1.16,5.41-.87.82-1.15,1.48-2.47,2-3.8,2.5-6.39,2.58-12.95,1.17-19.57-.73-3.44-1.55-6.86-2.45-10.26-1.85-6.95-3.55-13.92-4.26-21.11-.95-9.7,1.52-18.35,7.3-26.13,5.08-6.84,11.54-12.15,18.59-16.78,2.27-1.5,4.77-2.61,7.51-3.04,3.97-.62,6.85.92,8.54,4.58.6,1.29,1.16,2.6,1.74,3.9.81-.04,1.45-.02,2.07-.12,4.2-.67,8.28,0,12.31,1.1,6.17,1.67,12.33,3.38,18.49,5.07.83.23,1.67.42,2.75.69Zm4.84,162.18c0-1.13.03-1.84,0-2.54-.54-9.75,1.37-19.07,4.84-28.12,1.12-2.91,2.21-5.83,3.29-8.75.85-2.29.55-3.18-1.7-4.18-1.89-.84-3.4-2.06-4.69-3.63-7.88-9.64-14.26-20.23-19.85-31.31-1.47-2.92-1.74-5.96.26-8.88-.53-.48-.92-.88-1.35-1.21-8.01-6.23-16.01-12.48-24.06-18.66-.85-.65-1.97-.97-2.99-1.37-1.78-.7-3.66-1.17-5.36-2.03-5.33-2.7-9.85-6.51-14.06-10.7-5.2-5.17-7.15-11.57-6.96-18.76.15-5.58,1.5-10.91,3.29-16.14,1.42-4.15,3.88-7.5,7.82-9.63,3.97-2.15,8.13-1.98,12.37-1.03.69.15,1.47.44,2.08.25,1.81-.55,3.55-1.31,5.43-2.04-.52-1.24-1.04-2.32-1.44-3.44-1.14-3.25-3.7-4.56-7.2-4.18-2.86.31-5.39,1.52-7.73,3.05-5.77,3.77-11.13,8.06-15.66,13.31-6.77,7.85-10.42,16.83-9.46,27.3.42,4.6,1.19,9.19,2.16,13.71,1.44,6.71,3.29,13.34,4.8,20.03,1.46,6.49.86,12.88-1.55,19.07-.49,1.25-1.12,2.49-1.92,3.57-2.08,2.83-4.65,3.15-7.45,1.06-.53-.4-1.06-.8-1.8-1.37,0,.78,0,1.17,0,1.56.1,6.95.6,13.92.21,20.83-.57,10.13-2.04,20.18-4.71,30-.48,1.75-1.25,3.42-1.86,5.13-.18.51-.3,1.03-.52,1.77,1.13,0,2.07.06,3.01,0,3.61-.26,7.21-.11,10.72.76,10.54,2.61,21.05,5.33,31.6,7.93,6.97,1.72,13.93,3.6,20.98,4.89,6.82,1.25,13.76,1.85,20.65,2.72,2.84.36,5.68.66,8.8,1.02Zm178.25,141.91c.67-1.21,1.31-2.32,1.9-3.45,3.85-7.46,7.71-14.9,11.51-22.38,6.33-12.47,12.51-25.02,17.39-38.15,4.17-11.23,8.34-22.47,12.28-33.78,4.41-12.67,8.73-25.38,12.13-38.38,3.07-11.74,6.29-23.46,8.11-35.48.69-4.56.71-9-1.45-13.33-2.11-4.21-3.91-8.58-5.74-12.92-1.68-3.97-3.37-7.95-4.77-12.02-2.01-5.84-.53-10.2,4.41-13.9,2.45-1.84,5.18-3.12,8.07-4.14,2.18-.77,4.33-1.65,6.41-2.65,1.87-.9,3.55-2.11,4.81-4.04-1.68-2.08-2.93-4.38-3.36-7.04-1.34-8.19.15-15.9,4.03-23.17.59-1.11.92-2.13.84-3.38-.23-3.67-.36-7.34-.58-11.01-.08-1.23-.32-2.45-.49-3.72-2.9.22-4.98,1.29-6.28,3.72-.64,1.2-1.39,2.34-2.14,3.47-2.31,3.49-4.94,6.65-8.64,8.83-1.81,1.07-3.18,2.66-3.76,4.79-.83,3.08-1.75,6.15-2.51,9.25-2.1,8.57-3.4,17.22-2.76,26.1.26,3.58.27,7.2.07,10.78-.39,6.96-2.78,13.44-5.38,19.8-3.66,8.94-7.52,17.81-11.41,26.66-6.59,14.99-12.79,30.17-21.05,44.37-4.9,8.42-9.56,17.01-15.42,24.83-1.68,2.24-2.19,4.46-1.94,7.11.63,6.76,1.26,13.52,1.72,20.29.66,9.69.23,19.32-1.91,28.84-2.76,12.28-7.01,24.07-11.97,35.61-.6,1.39-1.07,2.84-1.73,4.21-.68,1.41-1.5,2.74-2.38,4.31h22.02Zm-104.53-275.24c-.58,1.34-.87,2.08-1.22,2.79-2.17,4.45-4.31,8.92-6.56,13.33-.65,1.27-1.59,2.39-2.47,3.53-.72.94-1.68,1.59-2.91,1.14-1.27-.47-1.36-1.66-1.38-2.8,0-.63.04-1.28.16-1.9.43-2.27.82-4.56,1.38-6.8.77-3.15,1.68-6.28,2.58-9.61-.53.06-.91.05-1.27.15-4.96,1.39-10.04,1.89-15.17,1.83-9.38-.11-18.65-1.24-27.72-3.62-3.71-.97-7.2-.08-9.5,4.91,2,1.42,4.03,2.85,6.06,4.29-.12.19-.23.37-.35.56-2.36-.7-3.99-2.85-6.27-3.7-1.05,2.02-1.24,2.43-1.17,4.63.13,3.59.39,7.17.59,10.76.27,4.73.24,9.38-1.79,13.87-1.59,3.52-4,5.67-7.83,6.24-2.29.34-4.56.81-6.85,1.14-3.37.49-5.83,2.39-8.03,4.92,1.37,1.84,3.77,2.57,4.82,4.69-2.23-.64-3.6-2.67-5.81-3.6-1.04,1.48-1.61,3-1.07,4.73.5,1.59,1.01,3.21,1.77,4.69,4.51,8.75,9.66,17.12,15.44,25.09,1.4,1.93,2.86,3.91,4.63,5.48,1.37,1.21,3.19,2.11,4.96,2.58.87.23,1.62.32,2.17,1.03,1.68,2.16,3.95,2.88,6.58,2.72,2.23-.13,4.46-.27,6.69-.49,6.75-.68,13.5-1.35,20.24-2.12,5.71-.65,11.02-2.58,16.04-5.35,2.98-1.64,5.62-3.68,7.56-6.51,1.4-2.04,2.8-4.09,4.08-6.2,3.86-6.38,6.52-13.34,9.44-20.17,1.5-3.52,2.68-7.18,3.9-10.82,1.45-4.33,1.31-8.69-.3-12.92-2.75-7.24-5.62-14.44-8.48-21.64-.84-2.13-1.8-4.21-2.94-6.84Zm55.61,242.48c-.18-.04-.36-.07-.54-.11-.02-.37-.1-.75-.04-1.12.83-5.77,1.73-11.53,2.51-17.3.93-6.9,1.19-13.84.74-20.79-.49-7.53-3.06-14.51-6.31-21.24-2.2-4.56-5.05-8.7-8.74-12.22-2.11-2.02-4.67-2.89-7.51-3.07.53.55,1.14.9,1.75,1.26,3.68,2.2,6.84,4.99,9.28,8.54,4.75,6.9,5,14.24,2.22,21.95-3.11,8.62-7.45,16.61-12.28,24.36-.2.32-.61.52-.93.77-.14-.11-.29-.21-.43-.32.36-.65.7-1.31,1.08-1.96,1.72-2.98,3.62-5.86,5.12-8.94,2.31-4.73,4.53-9.53,6.44-14.43,3.17-8.17,2.09-15.83-3.46-22.76-1.04-1.3-2.26-2.12-3.86-2.61-5.67-1.74-11.2-3.91-16.07-7.36-5.54-3.93-10.98-8-16.32-12.19-7.36-5.77-14.59-11.71-21.88-17.56-.36-.29-.82-.44-1.24-.66.23.68.58,1.11.99,1.49,8.24,7.55,14.3,16.74,19.74,26.39,8.25,14.6,14.58,30.03,19.65,45.99,5.81,18.29,10.26,36.94,14.33,55.68.61,2.79,1.16,5.59,1.73,8.31.47.1.7.2.93.19.56-.03,1.11-.12,1.66-.16,5.35-.38,10.7-.67,15.99.58,5.05,1.19,10.11,2.35,15.15,3.59,2.46.61,4.43-.15,5.92-2.05,1.03-1.31,2.02-2.71,2.67-4.23,4.54-10.66,8.88-21.4,11.93-32.62,2.34-8.6,3.78-17.29,3.84-26.24.06-9.38-.99-18.66-1.79-27.97-.2-2.29-.27-4.58-.4-6.79-1.81.26-3.53.63-5.26.72-5.5.27-11.01.43-16.52.65-.67.03-1.34.12-2.17.19.31,1,.53,1.75.79,2.5,2.9,8.35,4.77,16.91,5.37,25.73.48,7.07-.22,14.03-1.92,20.92-2.73,11.1-6.43,21.76-13.17,31.16-.31.44-.72.81-1.08,1.21-.15-.11-.29-.22-.44-.33.26-.53.44-1.12.78-1.59,5.36-7.61,8.88-16.05,11.35-24.98,1.98-7.18,3.71-14.4,3.6-21.91-.12-8.12-1.41-16.07-3.64-23.86-.87-3.05-1.95-6.05-2.93-9.08-5.11-.38-9.93-1.11-15.28-1.43.83.96,1.3,1.49,1.75,2.02,2.79,3.29,5.59,6.57,8.36,9.88.34.4.5.95.74,1.43l-.45.27c-.47-.51-.99-.98-1.41-1.52-5.16-6.65-10.91-12.74-17.2-18.33-4.42-3.93-8.72-7.96-14.29-10.36-5.18-2.23-10.55-3.67-16.1-4.51-1.51-.23-3.03-.38-4.94-.61,5.85,6.47,20.74,15.29,26.24,15.57-4.7-3.64-10.62-4.68-14.95-8.49.74-.01,1.36.21,1.93.53,2.8,1.6,5.63,3.03,9.02,2.72.62-.06,1.26.18,1.89.28,4.27.72,7.1,3.57,9.56,6.76,7.82,10.18,12.18,21.67,12.46,34.57.25,11.48-1.44,22.78-3.38,34.05-.09.5-.36.96-.54,1.44ZM118.57,185.56c8.61,6.69,16.85,13.09,25.11,19.51.65-.51,1.22-.84,1.63-1.31,2.67-3.03,6.24-3.97,10.03-4.53,2.13-.32,4.24-.74,6.34-1.23,1.8-.43,3.24-1.52,3.94-3.23.96-2.35,1.91-4.74,2.5-7.2.93-3.87.09-7.8-.21-11.69-.33-4.23-.87-8.43.85-12.58-.73-.55-1.33-1.05-1.98-1.49-8.81-5.94-17.57-11.96-26.45-17.79-5.74-3.76-11.67-7.24-17.53-10.82-.5-.31-1.08-.47-2.05-.89.7,1.41,1.26,2.35,1.65,3.37.34.89,1.33,1.81.16,3.09-.34-.86-.6-1.52-.86-2.17-3.66-8.98-15.29-12.67-23.3-7.37-3,1.98-4.73,4.91-5.89,8.23-1.59,4.54-2.77,9.18-3.15,13.98-.62,7.68,1.17,14.63,6.81,20.19,4.17,4.11,8.7,7.76,13.97,10.41,3.38,1.71,6.97,2.3,10.7,1.95,1.89-.17,3.54-.93,4.65-2.6.23-.34.58-.6,1.05-1.06-.34,3-2.01,4.09-7.95,5.22Zm103.89-35.99c.11-.65.17-.81.15-.95-.77-4.59-.61-9.07,1.42-13.36.17-.35.23-.77.29-1.16.84-5.78,1.4-11.57,1.24-17.42,0-.31-.09-.62-.15-.99-.5-.08-.97-.16-1.44-.23-3.63-.55-4.68-1.58-5.02-5.2-.21-2.23-.46-4.47-.38-6.7.24-6.86-1.85-13.09-4.95-19.04-1.17-2.25-2.65-4.37-4.16-6.41-.71-.97-1.68-2.31-3.11-1.69-1.21.53-1.03,2.03-1.18,3.2-.76,6.26-1.41,12.54-2.33,18.77-.65,4.43-1.88,8.75-3.77,12.84-1.08,2.33-2.7,3.94-5.45,4.03-1.03.03-2.07.24-3.1.22-5.03-.07-10.06-.2-15.1-.3-4.84-.1-8.89,1.71-12.22,5.16-2.71,2.8-4.66,6.08-5.76,9.84-.12.42-.02.91-.02,1.47,21.66,5.97,43.26,11.93,65.02,17.93ZM45.34,289.92c.67,0,1.2.04,1.72,0,2.62-.21,5.24-.49,7.87-.67,5.39-.36,10.63-.05,15.7,2.25,3.63,1.64,7.45,2.87,11.25,4.1,12.46,4.04,25.1,7.42,37.85,10.44,12.33,2.92,24.8,4.72,37.48,4.42,7.09-.17,14.18-.86,21.25-1.45,2.35-.19,4.66-.79,7.16-1.23-1.88-4.96-3.64-9.61-5.28-13.92-2.97.4-5.65,1.1-8.31,1.04-5.66-.14-11.32-.51-16.95-1.1-6.98-.73-13.94-1.72-20.89-2.72-3.86-.55-7.75-1.12-11.52-2.07-11.61-2.92-23.18-5.99-34.76-9.06-7.91-2.1-15.86-3.56-24.12-2.59-3.24.38-6.54.55-9.8.42-1.49-.06-2.21.39-2.85,1.5-1.83,3.19-3.68,6.36-5.5,9.55-.15.26-.17.59-.31,1.09ZM120.82,125.83c.72,2.02,1.35,3.9,2.09,5.73.18.45.71.84,1.17,1.1,12.06,6.8,23.28,14.89,34.76,22.58,3.44,2.3,6.88,4.61,10.32,6.92,1.16-1.28,2.16-2.52,3.31-3.61,1.87-1.78,4.09-2.42,6.63-1.72.54.15,1.1.22,1.64.35,9.82,2.47,19.79,3.55,29.9,3.35,4.17-.08,8.28-.66,12.29-1.81.88-.25,1.9-.38,2.29-1.51.57-1.64,1.21-3.24,1.95-5.21-6.03-1.67-11.85-3.3-17.68-4.91-5.85-1.62-11.7-3.21-17.55-4.84-5.85-1.62-11.66-3.36-17.54-4.87-5.83-1.49-11.54-3.47-17.86-4.68-.11,2.56-.37,4.78-.25,6.98.12,2.3.49,4.6.93,6.86.41,2.12,1.06,4.19,1.61,6.28-.24.06-.49.13-.73.19-1.39-3.15-2.3-6.48-2.59-9.92-.3-3.54-.21-7.11-.3-10.9-.61-.19-1.43-.48-2.27-.71-5.54-1.52-11.09-3.05-16.64-4.52-2.31-.61-4.64-1.23-7-1.56-2.75-.39-5.54-.47-8.47.39Zm178.65,358.34c.61-.94,1.11-1.61,1.52-2.34,3.37-5.95,5.82-12.28,7.15-18.96.87-4.34,3.2-7.18,7.2-8.82.81-.33,1.61-.7,2.43-1.03,3.81-1.52,7.83-2.2,11.87-2.69,1.17-.14,1.82-.63,2.35-1.66,1.78-3.48,3.65-6.92,5.47-10.38.24-.45.36-.97.57-1.56-5.87,0-11.54.01-17.21,0-2.91-.01-5.73.33-8.36,1.68-1.44.74-2.91.78-4.39.13-4.17-1.84-8.56-2.87-13-3.88-5.02-1.15-9.97-1.09-14.99-.68-1.08.09-2.16.28-3.39.44.28,1.54.49,2.88.77,4.19.59,2.81.61,2.81,3.49,3.35.23.04.47.09.68.2,3.13,1.52,6.53,2.42,9.44,4.5,2.05,1.47,3.48,3.17,4.27,5.55,1.25,3.77,1.54,7.66,1.71,11.57.21,4.87.29,9.74.59,14.6.12,1.84-.05,3.87,1.83,5.79Zm119.77-293.2c.16.03.32.06.49.09.21-.32.43-.63.62-.95,3.09-5.32,6.01-10.74,9.29-15.94,7.17-11.37,11.72-23.73,14.46-36.81.12-.58.12-1.19.2-1.95-.67,0-1.14-.03-1.6,0-7.48.61-14.95,1.23-22.43,1.83-2.69.21-3.25.73-3.3,3.51-.03,1.84.06,3.67.15,5.51.52,11.41,1.06,22.81,1.59,34.22.16,3.5.35,7,.53,10.5Zm-180.69-51.81c-2.58-.56-4.05.54-5.08,2.5-5.55,10.58-10,21.56-12.09,33.4-.18,1.02-.29,2.06-.25,3.09.02.57.42,1.13.65,1.69.61-.28,1.41-.4,1.79-.87.96-1.16,1.8-2.44,2.56-3.75,5.68-9.82,9.38-20.42,12.25-31.33.39-1.49.81-3.09.17-4.73Zm-76.32,153.98c.3.14.5.29.72.32,5,.54,10,.75,14.96-.32.71-.15,1.34-.64,1.99-.96-1.36-3.25-12.91-9.91-17.74-10.37-.15,3.79-.59,7.57.07,11.33Zm283.03-163.55c-.54,0-.93-.03-1.32,0-5.71.54-11.42,1.06-17.12,1.66-2.37.25-4.74.61-7.09,1.06-2.31.44-3.81,2.98-3.37,5.71.82-1.89,2.46-1.79,3.93-1.92,6.99-.58,13.98-1.11,20.97-1.63,3.84-.29,3.84-.26,4.1-4.16.01-.15-.05-.31-.11-.73Zm-29.36,41.63c-.56.6-.78.74-.87.94-3.08,6.59-4.38,13.49-3.33,20.73.37,2.5,1.16,4.92,3.22,6.84,1.6-1.92,2.78-3.77,2.51-6.33-.36-3.49-.54-7-.77-10.51-.25-3.72-.49-7.43-.76-11.67Zm-294.84-40.19c.13-.11.26-.22.4-.33-.57-1.5-1.15-3-1.83-4.79-1.56.48-2.97.92-4.38,1.36-.01.19-.02.38-.03.57,1.95,1.06,3.9,2.12,5.85,3.18Zm-57.32,144.54c-2.67.04-5.39-.15-7.9,1.11,2.64-.27,5.39.32,7.9-1.11Zm352.42-118.93s.08,0,.11,0v-2.6s-.08,0-.11,0v2.59Z"/>
  <path class="cls-1" d="m407.85,517.31c1.95-4.38,3.91-8.75,5.85-13.13,3.48-7.84,5.6-16.14,8.09-24.31,5.71-18.75,9.8-37.89,13.9-57.02,4.83-22.49,9.2-45.08,13.98-67.58,3.13-14.76,6.42-29.5,10.05-44.15,2.86-11.56,6.69-22.87,11.64-33.71,2.78-6.09,6.14-11.94,9.6-17.67,4.95-8.21,8.49-16.96,11.49-26.03,1.78-5.39,2.13-10.57.36-15.93-.4-1.21-.64-2.47-.93-3.72-1.24-5.44-.69-10.58,2.12-15.51,1.62-2.84,3.09-5.81,4.19-8.88,2.39-6.66,1.92-7.03-4-11.08-1.65-1.13-3.65-1.15-5.57-.92-.59.07-1.28.65-1.63,1.19-1.42,2.13-2.72,4.33-4.07,6.5-.39.63-.8,1.25-1.2,1.87-.2-.11-.39-.21-.59-.32.28-.68.47-1.42.86-2.04,1.69-2.71,3.39-5.42,5.17-8.07,2.23-3.31,4.61-6.53,6.82-9.85,1.92-2.87,3.44-5.93,4.3-9.31.51-1.98.11-3.64-1.4-5-.89-.8-1.77-1.64-2.76-2.29-3.27-2.14-6.03-2.17-9.04.35-2.75,2.3-5.3,4.87-7.73,7.5-3.47,3.75-6.72,7.72-10.7,10.97-1.56,1.28-3.22,2.37-5.26,2.73-2.25.4-3.72-.68-3.53-2.94.18-2.13.69-4.25,1.23-6.33,1.65-6.42,3.75-12.74,4.99-19.24,1.2-6.25,1.78-12.67.44-19.05-.19-.93-.5-1.85-.81-2.75-.5-1.43-1.42-2.44-2.89-2.99-2.21-.83-4.39-1.73-6.7-2.65,4.32-1.27,7.38.82,10.07,3.51.88.88,1.36,2.36,1.57,3.65.41,2.58.66,5.21.7,7.82.04,2.47-.27,4.94-.41,7.41-.08,1.43-.27,2.88-.18,4.3.47,7.1,1.02,14.19,1.56,21.28.05.63.2,1.24.36,2.14.65-.47,1.2-.74,1.58-1.17,2.28-2.56,4.73-4.99,6.7-7.77,2.31-3.26,5.13-5.87,8.36-8.07,4.46-3.03,10.65-1.1,13.46,2.49,2.51,3.2,2.41,6.39,1.03,9.61-1.13,2.65-2.38,5.31-4.48,7.5-1.33,1.39-2.19,3.27-3.1,5.01-1.06,2.02-.71,2.66,1.49,3.08,3.21.61,5.33,2.85,7.23,5.18.69.84.86,2.48.63,3.63-.43,2.16-1.36,4.22-2.02,6.34-1.05,3.37-3.06,6.28-4.52,9.45-1.78,3.86-1.85,7.85-1.08,11.92.7,3.74,1.55,7.46,2.12,11.22.56,3.67-.95,7.04-1.86,10.5-1.56,5.97-3.99,11.61-6.46,17.19-1.63,3.67-4.06,6.99-6.14,10.46-.53.89-1.13,1.74-1.64,2.63-2.6,4.58-4.98,9.26-6.74,14.26-1.21,3.45-3.02,6.69-4.25,10.14-2.32,6.52-4.65,13.05-6.53,19.71-2.28,8.08-4.18,16.28-6.09,24.46-1.17,5.02-2.01,10.13-3.05,15.18-.63,3.04-1.43,6.04-2.03,9.08-.98,4.98-1.82,9.99-2.8,14.98-.59,3.04-1.36,6.04-1.97,9.07-1.12,5.61-2.15,11.23-3.28,16.83-.55,2.73-1.29,5.41-1.87,8.13-1.04,4.9-1.99,9.81-3.05,14.71-.95,4.43-1.98,8.85-2.98,13.27-.92,4.02-1.85,8.04-2.79,12.06-.95,4.03-1.91,8.05-2.87,12.07-1.86,7.82-3.99,15.56-6.34,23.24-.79,2.59-1.35,5.25-2.14,7.83-1.02,3.35-2.24,6.63-3.23,9.99-.72,2.45-1.63,4.77-2.81,7.05-1.68,3.24-3.03,6.65-4.52,9.99h-1.92Zm57.04-369.98c-.14,0-.28,0-.42.01-.42,1.61-.82,3.22-1.27,4.83-1.28,4.61-2.62,9.2-3.84,13.82-.3,1.14-.31,2.36-.34,3.55-.02.83.52,1.34,1.36,1.35,2.14.05,3.81-1.07,5.37-2.33,1.15-.93.54-2.2.42-3.36-.05-.48-.03-.96-.07-1.43-.4-5.48-.81-10.96-1.21-16.45Z"/>
  <path class="cls-1" d="m177.51,405.74c-2.57-.34-5.14-.68-7.71-1-7.85-.98-15.7-1.75-23.62-1.87-4.58-.07-8.85,1-12.98,2.86-7.99,3.59-15.22,8.44-22.37,13.43-2.75,1.92-5.34,4.08-8.15,5.91-5.35,3.49-9.32,8.21-12.67,13.54-5.38,8.54-9.87,17.53-13.9,26.77-.73,1.68-.58,2.95.39,4.42,1.67,2.53,3.31,5.1,4.69,7.8,1.05,2.04,1.93,4.24,2.43,6.47.39,1.74.41,3.7.04,5.44-1.76,8.2-3.7,16.35-5.6,24.52-.17.73-.44,1.44-.79,2.56-.84-1.1-.47-1.87-.32-2.55,1.76-7.79,3.45-15.6,5.38-23.34.82-3.27.77-6.39-.63-9.34-1.6-3.38-3.42-6.67-5.37-9.87-2.29-3.74-2.46-3.71-.7-7.65,4.42-9.94,9.21-19.68,15.46-28.64,2.58-3.7,5.58-6.94,9.24-9.64,8.37-6.15,16.69-12.38,25.8-17.44,4.82-2.68,9.7-5.39,15.3-5.99,3.48-.37,7.04-.45,10.52-.18,7.32.57,14.61,1.44,21.91,2.23,1.28.14,2.54.47,3.81.71-.06.28-.11.56-.17.84Z"/>
  <path class="cls-1" d="m66.09,293.36c-.09,1.43-.98,2.19-1.55,3.08-3.64,5.7-6.55,11.73-8.18,18.3-2.85,11.44-1.67,22.28,4.76,32.45,7.18,11.37,15.09,22.21,23.47,32.7,8.72,10.93,17.69,21.66,26.53,32.49.46.57,1.3.97,1.14,2.11-1.03-.15-1.43-.97-1.94-1.58-4.58-5.44-9.18-10.86-13.69-16.36-10.5-12.78-20.76-25.75-30.16-39.37-2.27-3.29-4.4-6.67-6.53-10.05-7.02-11.11-7.67-22.93-3.87-35.22,1.93-6.23,4.89-11.96,8.51-17.37.22-.33.47-.64.74-.93.09-.09.28-.09.78-.24Z"/>
  <path class="cls-1" d="m74.68,302.54c.64.06,1.31.03,1.91.2,4.97,1.47,9.99,2.81,14.88,4.51,9.37,3.25,18.39,7.29,27.19,11.88,10.17,5.31,18.51,12.7,25.73,21.51,12.13,14.79,22.78,30.62,33.02,46.74.2.31.3.68.51,1.16-1.16.29-1.32-.61-1.65-1.11-4.28-6.46-8.45-12.99-12.8-19.4-6.54-9.65-13.51-18.99-20.9-28.03-7.15-8.74-15.77-15.55-25.78-20.69-12.04-6.18-24.53-11.2-37.57-14.87-1.15-.32-2.34-.52-3.49-.83-.4-.11-.76-.37-1.14-.56.03-.17.06-.35.09-.52Z"/>
  <path class="cls-1" d="m12.57,415.62c1.24,1.42,2.51,2.81,3.72,4.26,7.86,9.37,17.22,17.09,26.92,24.42,8.47,6.41,17.02,12.72,25.53,19.08.53.4,1.02.86,1.53,1.29-.09.14-.18.29-.27.43-.46-.18-.97-.28-1.36-.56-14.1-10.35-28.44-20.43-41.48-32.12-5.09-4.57-9.51-9.9-14.21-14.9-.39-.42-.63-.98-.95-1.47.18-.14.37-.28.55-.42Z"/>
  <path class="cls-1" d="m100.87,512.75c20.6-9.56,40.17-20.8,60.12-31.27.12.17.24.34.36.51-.34.31-.63.71-1.02.91-10.7,5.74-21.37,11.55-32.14,17.15-7.65,3.98-15.44,7.69-23.18,11.5-.93.46-1.9.84-2.88,1.17-.38.13-.84.02-1.26.02Z"/>
  <path class="cls-1" d="m49.55,311.06c-.06.22-.06.49-.19.64-9.18,10.22-17.19,21.31-24.65,32.82-.02.03-.15-.02-.23-.03.25-2.1,4.74-9.1,11.28-17.72,4.22-5.56,8.61-10.97,13.31-16.13.16.14.32.28.48.42Z"/>
</svg>