<?xml version="1.0" encoding="UTF-8"?>
<svg id="SKHLMC" xmlns="http://www.w3.org/2000/svg" viewBox="0 0 288.26 381.24">
  <defs>
    <style>
      .cls-1 {
        fill: #010101;
        stroke-width: 0px;
      }
    </style>
  </defs>
  <path class="cls-1" d="m172.51,301.23c0-.47,0-.94,0-1.41-.06-3.4,0-6.81-.21-10.2-.17-2.79-1.09-5.41-2.61-7.79-.18-.28-.4-.54-.64-.86-.55,1.45-1.01,2.79-1.56,4.11-.37.88-.84,1.71-1.29,2.55-.13.25-.31.49-.53.67-.42.37-.86.32-1.1-.18-.22-.45-.39-.95-.43-1.44-.11-1.27-.14-2.54-.21-3.81-.1-1.68-.15-3.37-.33-5.04-.1-.91-.37-1.8-.61-2.68-.17-.64-.57-1.15-1.17-1.44-1.25-.62-2.49-1.31-3.8-1.75-.86-.29-1.82-.38-2.77-.06-4.72,1.61-9.44,3.24-14.19,4.76-6.12,1.95-12.32,3.64-18.56,5.15-5.1,1.24-10.23,2.33-15.41,3.12-5.71.86-11.44,1.28-17.21.95-2.73-.16-5.44-.56-8.08-1.29-.43-.12-.85-.31-1.27-.47.02-.07.04-.14.06-.21.19.02.39,0,.58.05,3.18.98,6.45,1.36,9.76,1.54,3.6.2,7.19.02,10.76-.33,4.17-.41,8.31-1.1,12.43-1.94,10.6-2.15,21-5.09,31.3-8.37,2.06-.66,4.1-1.36,6.15-2.05.29-.1.57-.23,1.04-.43-.48-.33-.81-.6-1.17-.82-1.3-.76-2.69-1.37-4.17-1.6-4.33-.67-8.32-2.26-12.28-4.03-3.14-1.4-6.32-2.68-9.49-4-1.01-.42-1.89-1.03-2.64-1.83-.45-.49-.93-.97-1.49-1.33-1.92-1.21-3.62-2.68-5.29-4.21-2.58-2.38-5.3-4.59-8.4-6.24-2.97-1.59-5.98-3.1-9.04-4.52-4.75-2.22-9.56-4.33-14.34-6.49-.19-.08-.36-.21-.61-.36.4-.34.67-.06.92.04,2.01.87,4.03,1.72,6.02,2.65,4.61,2.14,9.22,4.3,13.81,6.5,1.55.74,3.02,1.63,4.53,2.45.16.09.33.18.61.14-.25-.24-.49-.5-.76-.73-2.86-2.5-6-4.6-9.25-6.56-6.98-4.21-14.28-7.81-21.72-11.13-.31-.14-.61-.29-.98-.47.3-.34.53-.18.74-.09,1.25.55,2.51,1.1,3.74,1.68,6.95,3.25,13.79,6.7,20.27,10.81,3.09,1.96,6.12,4.02,8.69,6.67,1.11,1.15,2.28,2.2,3.53,3.2,1.09.88,2.12,1.83,3.15,2.77,1.32,1.2,2.69,2.33,4.19,3.3.63.41,1.25.9,1.75,1.46.78.88,1.71,1.51,2.78,1.95,1.76.73,3.54,1.43,5.29,2.17,2.81,1.19,5.61,2.42,8.42,3.61.8.34,1.64.61,2.61.97-.11-.8-.18-1.42-.28-2.05-.75-4.64-1.47-9.29-2.27-13.93-.9-5.2-1.81-10.39-2.85-15.57-.48-2.39-1.22-4.74-1.95-7.07-1.34-4.3-3.57-8.13-6.38-11.64-3.36-4.19-6.67-8.43-9.99-12.66-.19-.25-.51-.46-.49-1.02.26.22.43.32.55.47,4.1,5.23,8.24,10.43,12.28,15.71,2.16,2.83,3.5,6.11,4.61,9.48,1.36,4.15,2.3,8.4,3.03,12.69.93,5.42,1.81,10.85,2.71,16.27.48,2.88.94,5.77,1.41,8.66.04.21.06.43.1.8.71.16,1.47.34,2.24.49,1.81.35,3.63.67,5.32,1.45.83.39,1.66.82,2.4,1.36.51.38.92.43,1.47.19.7-.3,1.42-.55,2.21-.84-.02-.22-.01-.51-.06-.77-1.84-9.43-3.95-18.79-6.84-27.95-2.32-7.37-5.33-14.43-9.37-21.03-1.99-3.25-4.38-6.16-7.19-8.74-2.77-2.54-5.59-5.01-8.74-7.08-2.75-1.81-5.73-2.86-9.02-3.04-1.04-.06-2.08-.16-3.22-.25-.23.79-.46,1.51-.64,2.25-.18.74-.29,1.49-.46,2.32.65.3,1.29.57,1.9.88,1.25.62,2.51,1.23,3.74,1.9,1.07.58,1.74,1.42,2.12,2.66,1.46,4.8,3.74,9.23,6.3,13.54,2.65,4.49,5.11,9.09,7.64,13.65.14.25.41.5.14.97-.19-.29-.35-.51-.48-.74-2.35-4.23-4.65-8.48-7.05-12.67-1.62-2.84-3.38-5.61-4.7-8.7-.66.09-1.29.17-1.9.27-4.35.74-8.73.84-13.12.71-4.22-.12-8.33-.94-12.42-1.91-4.61-1.09-9.19-2.31-13.68-3.8-1.96-.65-3.9-1.36-5.83-2.12-1.28-.5-2.6-.62-3.94-.58-1.68.06-3.36.25-5.04.36-.42.03-.67.22-.9.58-2.67,4.22-5.37,8.42-8.05,12.63-2.84,4.47-5.11,9.23-7,14.18-.81,2.12-1.19,4.35-1.33,6.61-.29,4.67-.43,9.34-.42,14.01.01,4.05.37,8.06.9,12.07.27,2.05.58,4.09.86,6.14.06.45.21.82.56,1.17,3.88,3.82,7.76,7.63,11.58,11.5,3.31,3.35,6.55,6.76,9.82,10.15.28.29.52.64.78.95h-.57c-.54-.61-1.05-1.25-1.62-1.83-6.35-6.47-12.71-12.93-19.06-19.39-.3-.31-.64-.58-.96-.87-.13.39-.1.69-.04.99,1.01,4.89,2.04,9.77,3.04,14.65.44,2.14.85,4.3,1.27,6.45h-.57c-.28-1.5-.53-3-.85-4.48-1.13-5.38-2.3-10.75-3.42-16.13-.82-3.92-1.24-7.91-1.68-11.89-.54-5.04-.6-10.09-.48-15.14.08-3.37.29-6.73.53-10.09.18-2.53,1.05-4.9,2.02-7.23,2.55-6.13,5.72-11.93,9.55-17.34,2.3-3.25,4.42-6.61,6.2-10.17.38-.76.91-1.46,1.33-2.2.71-1.27,1.85-1.77,3.22-1.91.63-.07,1.26-.15,1.89-.22.66-.08,1.07-.37,1.26-1.07.7-2.58,1.28-5.18,1.62-7.83.53-4.11.72-8.24.45-12.37-.04-.59-.13-1.22-.36-1.75-.86-2.01-1.71-4.04-2.71-5.99-2.49-4.84-4.6-9.85-6.47-14.95-1.78-4.87-3.83-9.62-6.16-14.26-.61-1.22-1.12-2.49-1.69-3.73-1.27-2.75-1.48-5.68-1.11-8.6.61-4.79,1.58-9.53,2.98-14.17,1.09-3.62,2.49-7.14,4.07-10.58,1-2.17,2.43-4.03,4.26-5.55,1.14-.95,2.48-1.55,3.88-1.99,1.54-.48,3.1-.95,4.67-1.33,2.09-.49,4.07-1.24,5.96-2.24,2.03-1.08,4.19-1.84,6.41-2.42.27-.07.56-.14.84-.15,2.77-.09,5.53-.04,8.24.67,1.93.51,3.89.96,5.83,1.45,1.8.45,3.47,1.23,5.09,2.13,3.64,2.03,7.28,4.05,10.94,6.03,2.63,1.42,5.3,2.75,7.93,4.17,1.72.93,3.14,2.25,4.44,3.69.53.58,1.13,1.1,1.67,1.68.25.27.42.62.62.94.92,1.4,1.89,2.78,2.73,4.23.84,1.46,1.6,2.96,2.27,4.5.67,1.53,1.38,3.04,1.89,4.64.48,1.54.36,3.03.12,4.56-.25,1.6-.8,3.12-1.27,4.66,0,.03-.02.06-.03.09-.49,1.35-1.09,2.61-2.78,2.78-.03.23-.1.42-.08.6.17,1.78-.12,3.54-.19,5.31-.03.71-.32,1.42-.57,2.1-.55,1.46-.8,2.93-.47,4.49.1.45.29.76.7.95.52.24.82.16,1.09-.35.39-.73.7-1.5,1.11-2.22.31-.55.68-1.06,1.04-1.58.41-.59,1-.84,1.71-.85.57-.01.94.25.94.8,0,.44-.03.9-.15,1.32-.39,1.46-.8,2.92-1.26,4.37-.6,1.89-.63,1.89.12,3.68.73,1.73,1.53,3.42,2.22,5.16.74,1.89,1.48,3.8,2.03,5.75.49,1.74.41,3.54-.29,5.24-1.36,3.29-2.71,6.59-4.15,9.84-.84,1.89-1.93,3.66-3.35,5.18-.56.6-1.19,1.16-1.87,1.6-.95.62-1.96,1.19-3.01,1.62-.93.38-1.94.59-2.93.79-2.77.55-5.58.8-8.4.98-1.46.1-2.92.16-4.37.23-.6.03-1.2.03-1.74-.34-.14-.09-.36-.06-.61-.09-.67,1.8-1.34,3.58-2.05,5.48.95.1,1.82.18,2.68.29,1.19.15,2.4.27,3.58.49,2.29.43,4.31,1.53,6.21,2.82,4.68,3.19,9.2,6.59,13.56,10.21,1.74,1.44,3.5,2.85,5.27,4.25.25.2.62.31.94.37,2.12.4,4.26.71,6.37,1.16,2.08.45,3.98,1.36,5.61,2.74,1.68,1.41,3.28,2.9,4.93,4.35.25.21.57.45.88.48,3.29.34,6.57.8,9.89.61,1.46-.08,2.92-.13,4.38-.21.58-.03,1.11-.14,1.6-.53.3-.24.8-.26,1.09-.51.51-.46,1.02-.97,1.38-1.55,4.12-6.51,7.91-13.2,10.87-20.33,2.71-6.51,5.38-13.04,8.07-19.56.64-1.55.95-3.16.95-4.83,0-1.18.07-2.36-.04-3.53-.3-3.18.1-6.27.82-9.36.26-1.11.45-2.24.74-3.35.17-.67.37-1.36.72-1.96.36-.62.82-1.25,1.39-1.65,1.62-1.14,2.91-2.55,3.92-4.23.03-.06.06-.11.09-.17.69-1.31,1.66-2.23,3.17-2.31,0-.99-.03-1.95,0-2.89.04-1.07.1-2.15.21-3.22.11-.98.74-1.54,1.68-1.7,1.28-.22,2.57-.4,3.87-.54,2.09-.23,4.18-.4,6.27-.6.09,0,.18-.06.35-.11.05-.57.21-1.17.13-1.75-.11-.82.21-1.5.54-2.16.3-.6.76-1.11,1.73-.83-1.08.34-1.33,1.14-1.47,2.02-.29,1.82-.54,3.64-.88,5.45-1.05,5.51-2.83,10.75-5.83,15.54-1.47,2.34-2.79,4.78-4.17,7.17-.25.44-.49.89-.7,1.36-1.06,2.45-2.85,4.09-5.38,4.95-.42.14-.86.25-1.26.44-.94.47-1.9.9-2.76,1.49-1.31.89-2.42,2.49-1.58,4.76.87,2.32,1.84,4.6,2.79,6.89.51,1.23,1.03,2.47,1.61,3.66.69,1.41.74,2.88.53,4.38-.43,3.16-1.17,6.24-1.9,9.34-1.81,7.62-4.2,15.06-6.83,22.43-1.71,4.79-3.42,9.59-5.34,14.29-1.55,3.79-3.34,7.49-5.14,11.17-1.86,3.8-3.86,7.53-5.79,11.29-1.22,2.37-2.44,4.75-3.69,7.19,1.49,1.17,2.06,2.91,2.48,4.73.4,1.73.92,3.45,1.11,5.21.22,2.01.23,4.06.19,6.1-.05,2.8-.23,5.59-.36,8.38-.02.33-.08.65-.14,1.11-.45-.4-.33-.76-.31-1.09.34-4.51.46-9.02.33-13.54-.06-1.93-.64-3.76-1.1-5.6-.28-1.11-.63-2.2-1.07-3.25-.47-1.1-1.26-1.91-2.53-2.09-.28-.04-.58-.08-.84,0-1.43.43-2.85.87-4.26,1.35-1.62.55-2.09,1.93-2.34,3.42-.03.18.08.43.2.6,2.45,3.29,3.41,7.05,3.48,11.09.03,1.68.11,3.37.12,5.05,0,1.46-.06,2.92-.1,4.38h-.39Zm-64.33-153.63c.43-1.47,1.01-2.74,1.92-3.83,1.12-1.35,2.4-2.53,4.19-2.8,1.25-.19,2.53-.16,3.8-.17,1.62-.01,3.24.05,4.86.06.95,0,1.65-.45,1.99-1.35.36-.98.76-1.96,1.01-2.98.74-2.94,1.16-5.92,1.34-8.94.03-.51.08-1.02.22-1.5.25-.84.83-1.03,1.53-.53.38.27.74.61,1.01.99,2.03,2.82,3.35,5.9,3.46,9.43.03.95.05,1.91.12,2.86.16,2.09.63,1.98,2.12,2.1,1.52.13,2.22-.19,2.72-1.6.54-1.53,1.01-3.08,1.41-4.65.59-2.29.39-4.54-.57-6.71-.73-1.66-1.49-3.31-2.28-4.93-1.71-3.51-3.73-6.79-6.52-9.58-1.36-1.36-2.83-2.55-4.53-3.45-6.37-3.39-12.73-6.8-19.11-10.18-1.17-.62-2.38-1.26-3.64-1.62-3.66-1.06-7.38-1.94-11.21-2.2-2.18-.14-4.33-.06-6.36.86-.84.38-1.72.68-2.55,1.07-3.08,1.47-6.27,2.63-9.59,3.43-1.11.27-2.18.68-3.26,1.07-2.17.77-3.82,2.16-5.14,4.07-2.08,3.02-3.55,6.32-4.68,9.77-1.6,4.87-2.9,9.82-3.77,14.87-.31,1.85-.63,3.7-.47,5.59.25,2.95,1.06,5.75,2.39,8.39,2.54,5.03,4.8,10.17,6.73,15.47,2.14,5.86,4.64,11.56,7.6,17.07.56,1.03,1.13,2.07,1.76,3.05.3.47.72.9,1.17,1.23.8.59,1.58.46,2.15-.35.33-.46.59-.98.8-1.51.99-2.54,1.03-5.15.47-7.79-.29-1.37-.62-2.73-.97-4.08-.74-2.77-1.41-5.54-1.7-8.4-.38-3.86.6-7.3,2.9-10.4,2.02-2.72,4.59-4.83,7.4-6.68.9-.6,1.9-1.04,2.99-1.21,1.58-.25,2.73.37,3.4,1.82.24.51.46,1.03.69,1.55.32-.02.58,0,.82-.05,1.67-.27,3.29,0,4.9.44,2.46.66,4.91,1.34,7.36,2.02.33.09.66.17,1.09.27h0Zm1.93,64.53c0-.45.01-.73,0-1.01-.21-3.88.55-7.59,1.93-11.19.45-1.16.88-2.32,1.31-3.48.34-.91.22-1.27-.68-1.66-.75-.33-1.35-.82-1.87-1.44-3.14-3.84-5.67-8.05-7.9-12.46-.58-1.16-.69-2.37.1-3.53-.21-.19-.37-.35-.54-.48-3.19-2.48-6.37-4.97-9.57-7.42-.34-.26-.78-.39-1.19-.55-.71-.28-1.46-.47-2.13-.81-2.12-1.07-3.92-2.59-5.59-4.26-2.07-2.06-2.85-4.6-2.77-7.46.06-2.22.6-4.34,1.31-6.42.57-1.65,1.54-2.98,3.11-3.83,1.58-.86,3.23-.79,4.92-.41.27.06.58.18.83.1.72-.22,1.41-.52,2.16-.81-.21-.49-.41-.92-.57-1.37-.45-1.29-1.47-1.81-2.86-1.66-1.14.12-2.14.6-3.08,1.21-2.3,1.5-4.43,3.21-6.23,5.3-2.69,3.12-4.15,6.7-3.76,10.86.17,1.83.47,3.66.86,5.46.57,2.67,1.31,5.31,1.91,7.97.58,2.58.34,5.13-.62,7.59-.19.5-.45.99-.76,1.42-.83,1.13-1.85,1.25-2.96.42-.21-.16-.42-.32-.72-.55v.62c.04,2.77.24,5.54.08,8.29-.23,4.03-.81,8.03-1.87,11.94-.19.7-.5,1.36-.74,2.04-.07.2-.12.41-.21.7.45,0,.82.02,1.2,0,1.44-.1,2.87-.04,4.27.3,4.19,1.04,8.38,2.12,12.57,3.16,2.77.68,5.54,1.43,8.35,1.95,2.71.5,5.48.74,8.22,1.08,1.13.14,2.26.26,3.5.41h0Zm70.93,56.47c.27-.48.52-.92.76-1.37,1.53-2.97,3.07-5.93,4.58-8.91,2.52-4.96,4.98-9.96,6.92-15.18,1.66-4.47,3.32-8.94,4.89-13.44,1.75-5.04,3.47-10.1,4.83-15.27,1.22-4.67,2.5-9.33,3.23-14.12.27-1.81.28-3.58-.58-5.3-.84-1.68-1.56-3.41-2.28-5.14-.67-1.58-1.34-3.16-1.9-4.78-.8-2.32-.21-4.06,1.75-5.53.97-.73,2.06-1.24,3.21-1.65.87-.31,1.72-.66,2.55-1.05.74-.36,1.41-.84,1.91-1.61-.67-.83-1.17-1.74-1.34-2.8-.53-3.26.06-6.33,1.6-9.22.23-.44.37-.85.33-1.34-.09-1.46-.14-2.92-.23-4.38-.03-.49-.13-.97-.19-1.48-1.15.09-1.98.51-2.5,1.48-.25.48-.55.93-.85,1.38-.92,1.39-1.97,2.65-3.44,3.51-.72.43-1.27,1.06-1.5,1.91-.33,1.23-.7,2.45-1,3.68-.84,3.41-1.35,6.85-1.1,10.39.1,1.42.11,2.86.03,4.29-.16,2.77-1.11,5.35-2.14,7.88-1.46,3.56-2.99,7.09-4.54,10.61-2.62,5.96-5.09,12-8.38,17.66-1.95,3.35-3.8,6.77-6.14,9.88-.67.89-.87,1.77-.77,2.83.25,2.69.5,5.38.68,8.07.26,3.86.09,7.69-.76,11.48-1.1,4.89-2.79,9.58-4.76,14.17-.24.55-.43,1.13-.69,1.68-.27.56-.6,1.09-.95,1.71h8.76-.01Zm-41.59-109.52c-.23.53-.35.83-.49,1.11-.86,1.77-1.71,3.55-2.61,5.3-.26.51-.63.95-.98,1.4-.29.37-.67.63-1.16.45-.51-.19-.54-.66-.55-1.11,0-.25.02-.51.06-.76.17-.9.33-1.81.55-2.71.31-1.25.67-2.5,1.03-3.82-.21.02-.36.02-.51.06-1.97.55-3.99.75-6.04.73-3.73-.04-7.42-.49-11.03-1.44-1.48-.39-2.86-.03-3.78,1.95.8.57,1.6,1.13,2.41,1.71-.05.08-.09.15-.14.22-.94-.28-1.59-1.13-2.49-1.47-.42.8-.49.97-.47,1.84.05,1.43.16,2.85.23,4.28.11,1.88.1,3.73-.71,5.52-.63,1.4-1.59,2.26-3.12,2.48-.91.14-1.81.32-2.73.45-1.34.19-2.32.95-3.2,1.96.55.73,1.5,1.02,1.92,1.87-.89-.25-1.43-1.06-2.31-1.43-.41.59-.64,1.19-.43,1.88.2.63.4,1.28.7,1.87,1.79,3.48,3.84,6.81,6.14,9.98.56.77,1.14,1.56,1.84,2.18.55.48,1.27.84,1.97,1.03.35.09.64.13.86.41.67.86,1.57,1.15,2.62,1.08.89-.05,1.77-.11,2.66-.19,2.69-.27,5.37-.54,8.05-.84,2.27-.26,4.38-1.03,6.38-2.13,1.19-.65,2.24-1.46,3.01-2.59.56-.81,1.11-1.63,1.62-2.47,1.54-2.54,2.59-5.31,3.76-8.03.6-1.4,1.07-2.86,1.55-4.31.58-1.72.52-3.46-.12-5.14-1.09-2.88-2.24-5.75-3.37-8.61-.33-.85-.72-1.68-1.17-2.72h0Zm22.13,96.48c-.07-.02-.14-.03-.21-.04,0-.15-.04-.3-.02-.45.33-2.3.69-4.59,1-6.88.37-2.75.47-5.51.29-8.27-.19-3-1.22-5.77-2.51-8.45-.88-1.81-2.01-3.46-3.48-4.86-.84-.8-1.86-1.15-2.99-1.22.21.22.45.36.7.5,1.46.88,2.72,1.99,3.69,3.4,1.89,2.75,1.99,5.67.88,8.73-1.24,3.43-2.96,6.61-4.89,9.69-.08.13-.24.21-.37.31-.06-.04-.12-.08-.17-.13.14-.26.28-.52.43-.78.68-1.19,1.44-2.33,2.04-3.56.92-1.88,1.8-3.79,2.56-5.74,1.26-3.25.83-6.3-1.38-9.06-.41-.52-.9-.84-1.54-1.04-2.26-.69-4.46-1.56-6.39-2.93-2.2-1.56-4.37-3.18-6.49-4.85-2.93-2.3-5.81-4.66-8.71-6.99-.14-.12-.33-.18-.49-.26.09.27.23.44.39.59,3.28,3,5.69,6.66,7.85,10.5,3.28,5.81,5.8,11.95,7.82,18.3,2.31,7.28,4.08,14.7,5.7,22.16.24,1.11.46,2.22.69,3.31.19.04.28.08.37.08.22-.01.44-.05.66-.06,2.13-.15,4.26-.27,6.36.23,2.01.47,4.02.94,6.03,1.43.98.24,1.76-.06,2.36-.82.41-.52.8-1.08,1.06-1.68,1.81-4.24,3.53-8.52,4.75-12.98.93-3.42,1.5-6.88,1.53-10.44.02-3.73-.39-7.42-.71-11.13-.08-.91-.11-1.82-.16-2.7-.72.1-1.4.25-2.09.29-2.19.11-4.38.17-6.57.26-.27.01-.53.05-.86.08.12.4.21.7.31.99,1.15,3.32,1.9,6.73,2.14,10.24.19,2.81-.09,5.58-.76,8.32-1.09,4.42-2.56,8.66-5.24,12.4-.12.18-.29.32-.43.48-.06-.04-.12-.09-.18-.13.1-.21.18-.45.31-.63,2.13-3.03,3.53-6.39,4.52-9.94.79-2.86,1.48-5.73,1.43-8.72-.05-3.23-.56-6.39-1.45-9.49-.35-1.21-.78-2.41-1.17-3.61-2.03-.15-3.95-.44-6.08-.57.33.38.52.59.7.8,1.11,1.31,2.22,2.61,3.33,3.93.14.16.2.38.29.57l-.18.11c-.19-.2-.39-.39-.56-.6-2.05-2.65-4.34-5.07-6.84-7.29-1.76-1.56-3.47-3.17-5.69-4.12-2.06-.89-4.2-1.46-6.41-1.79-.6-.09-1.21-.15-1.97-.24,2.33,2.57,8.25,6.08,10.44,6.2-1.87-1.45-4.23-1.86-5.95-3.38.29,0,.54.08.77.21,1.11.64,2.24,1.21,3.59,1.08.25-.02.5.07.75.11,1.7.29,2.83,1.42,3.8,2.69,3.11,4.05,4.85,8.62,4.96,13.76.1,4.57-.57,9.06-1.34,13.55-.04.2-.14.38-.21.57h-.02Zm-68.27-86.34c3.43,2.66,6.7,5.21,9.99,7.76.26-.2.49-.33.65-.52,1.06-1.21,2.48-1.58,3.99-1.8.85-.13,1.69-.29,2.52-.49.72-.17,1.29-.6,1.57-1.29.38-.94.76-1.89.99-2.86.37-1.54.04-3.1-.08-4.65-.13-1.68-.35-3.35.34-5.01-.29-.22-.53-.42-.79-.59-3.51-2.36-6.99-4.76-10.52-7.08-2.28-1.5-4.64-2.88-6.98-4.31-.2-.12-.43-.19-.82-.35.28.56.5.94.66,1.34.14.35.53.72.06,1.23-.14-.34-.24-.6-.34-.86-1.46-3.57-6.08-5.04-9.27-2.93-1.19.79-1.88,1.95-2.34,3.27-.63,1.81-1.1,3.65-1.25,5.56-.25,3.06.47,5.82,2.71,8.03,1.66,1.64,3.46,3.09,5.56,4.14,1.34.68,2.77.92,4.26.78.75-.07,1.41-.37,1.85-1.03.09-.14.23-.24.42-.42-.14,1.19-.8,1.63-3.16,2.08h0Zm41.34-14.32c.04-.26.07-.32.06-.38-.31-1.83-.24-3.61.57-5.32.07-.14.09-.31.12-.46.33-2.3.56-4.6.49-6.93,0-.12-.04-.25-.06-.39-.2-.03-.39-.06-.57-.09-1.44-.22-1.86-.63-2-2.07-.08-.89-.18-1.78-.15-2.67.1-2.73-.74-5.21-1.97-7.58-.47-.9-1.05-1.74-1.66-2.55-.28-.39-.67-.92-1.24-.67-.48.21-.41.81-.47,1.27-.3,2.49-.56,4.99-.93,7.47-.26,1.76-.75,3.48-1.5,5.11-.43.93-1.07,1.57-2.17,1.6-.41.01-.82.1-1.23.09-2-.03-4-.08-6.01-.12-1.93-.04-3.54.68-4.86,2.05-1.08,1.11-1.85,2.42-2.29,3.92-.05.17,0,.36,0,.58,8.62,2.38,17.21,4.75,25.87,7.13h0Zm-70.48,55.85c.27,0,.48.02.68,0,1.04-.08,2.09-.19,3.13-.27,2.14-.14,4.23-.02,6.25.9,1.44.65,2.96,1.14,4.48,1.63,4.96,1.61,9.99,2.95,15.06,4.15,4.91,1.16,9.87,1.88,14.91,1.76,2.82-.07,5.64-.34,8.46-.58.94-.08,1.85-.31,2.85-.49-.75-1.97-1.45-3.82-2.1-5.54-1.18.16-2.25.44-3.31.41-2.25-.06-4.5-.2-6.74-.44-2.78-.29-5.55-.68-8.31-1.08-1.54-.22-3.08-.45-4.58-.82-4.62-1.16-9.22-2.38-13.83-3.61-3.15-.84-6.31-1.42-9.6-1.03-1.29.15-2.6.22-3.9.17-.59-.02-.88.16-1.13.6-.73,1.27-1.46,2.53-2.19,3.8-.06.1-.07.23-.12.43h0Zm30.03-65.29c.29.8.54,1.55.83,2.28.07.18.28.33.47.44,4.8,2.71,9.26,5.92,13.83,8.98,1.37.92,2.74,1.83,4.11,2.75.46-.51.86-1,1.32-1.44.74-.71,1.63-.96,2.64-.68.21.06.44.09.65.14,3.91.98,7.87,1.41,11.9,1.33,1.66-.03,3.29-.26,4.89-.72.35-.1.76-.15.91-.6.23-.65.48-1.29.78-2.07-2.4-.66-4.72-1.31-7.03-1.95-2.33-.64-4.66-1.28-6.98-1.93-2.33-.64-4.64-1.34-6.98-1.94-2.32-.59-4.59-1.38-7.11-1.86-.04,1.02-.15,1.9-.1,2.78.05.92.19,1.83.37,2.73.16.84.42,1.67.64,2.5-.1.02-.19.05-.29.08-.55-1.25-.92-2.58-1.03-3.95-.12-1.41-.08-2.83-.12-4.34-.24-.08-.57-.19-.9-.28-2.2-.6-4.41-1.21-6.62-1.8-.92-.24-1.85-.49-2.79-.62-1.09-.16-2.2-.19-3.37.16v.02Zm71.09,142.59c.24-.37.44-.64.6-.93,1.34-2.37,2.32-4.89,2.85-7.54.35-1.73,1.27-2.86,2.86-3.51.32-.13.64-.28.97-.41,1.52-.6,3.12-.88,4.72-1.07.47-.06.72-.25.94-.66.71-1.38,1.45-2.75,2.18-4.13.1-.18.14-.39.23-.62-2.34,0-4.59,0-6.85,0-1.16,0-2.28.13-3.33.67-.57.29-1.16.31-1.75.05-1.66-.73-3.41-1.14-5.17-1.54-2-.46-3.97-.43-5.96-.27-.43.04-.86.11-1.35.18.11.61.19,1.15.31,1.67.23,1.12.24,1.12,1.39,1.33.09.02.19.04.27.08,1.25.6,2.6.96,3.76,1.79.82.58,1.38,1.26,1.7,2.21.5,1.5.61,3.05.68,4.6.08,1.94.12,3.88.23,5.81.05.73-.02,1.54.73,2.3h0Zm47.66-116.67c.06.01.13.02.19.04.08-.13.17-.25.25-.38,1.23-2.12,2.39-4.27,3.7-6.34,2.85-4.52,4.66-9.44,5.75-14.65.05-.23.05-.47.08-.78-.27,0-.45-.01-.64,0-2.98.24-5.95.49-8.93.73-1.07.08-1.29.29-1.31,1.4-.01.73.02,1.46.06,2.19.21,4.54.42,9.08.63,13.62.06,1.39.14,2.79.21,4.18h0Zm-71.9-20.62c-1.03-.22-1.61.21-2.02.99-2.21,4.21-3.98,8.58-4.81,13.29-.07.41-.12.82-.1,1.23,0,.23.17.45.26.67.24-.11.56-.16.71-.35.38-.46.72-.97,1.02-1.49,2.26-3.91,3.73-8.13,4.87-12.47.16-.59.32-1.23.07-1.88h0Zm-30.37,61.27c.12.06.2.12.29.13,1.99.21,3.98.3,5.95-.13.28-.06.53-.25.79-.38-.54-1.29-5.14-3.94-7.06-4.13-.06,1.51-.23,3.01.03,4.51h0Zm112.62-65.08c-.21,0-.37-.01-.53,0-2.27.21-4.54.42-6.81.66-.94.1-1.89.24-2.82.42-.92.18-1.52,1.19-1.34,2.27.33-.75.98-.71,1.56-.76,2.78-.23,5.56-.44,8.34-.65,1.53-.12,1.53-.1,1.63-1.66,0-.06-.02-.12-.04-.29h0Zm-11.68,16.56c-.22.24-.31.29-.35.37-1.23,2.62-1.74,5.37-1.33,8.25.15.99.46,1.96,1.28,2.72.64-.76,1.11-1.5,1-2.52-.14-1.39-.21-2.79-.31-4.18-.1-1.48-.19-2.96-.3-4.64h0Zm-117.32-15.99c.05-.04.1-.09.16-.13-.23-.6-.46-1.19-.73-1.91-.62.19-1.18.37-1.74.54,0,.08,0,.15-.01.23.78.42,1.55.84,2.33,1.27h0Zm-22.81,57.51c-1.06.02-2.14-.06-3.14.44,1.05-.11,2.14.13,3.14-.44Zm140.23-47.32h.04v-1.03h-.04v1.03h0Z"/>
  <path class="cls-1" d="m208.4,301.23c.78-1.74,1.56-3.48,2.33-5.22,1.38-3.12,2.23-6.42,3.22-9.67,2.27-7.46,3.9-15.08,5.53-22.69,1.92-8.95,3.66-17.94,5.56-26.89,1.25-5.87,2.55-11.74,4-17.57,1.14-4.6,2.66-9.1,4.63-13.41,1.11-2.42,2.44-4.75,3.82-7.03,1.97-3.27,3.38-6.75,4.57-10.36.71-2.14.85-4.21.14-6.34-.16-.48-.25-.98-.37-1.48-.49-2.16-.27-4.21.84-6.17.64-1.13,1.23-2.31,1.67-3.53.95-2.65.76-2.8-1.59-4.41-.66-.45-1.45-.46-2.22-.37-.23.03-.51.26-.65.47-.57.85-1.08,1.72-1.62,2.59-.16.25-.32.5-.48.74-.08-.04-.16-.08-.23-.13.11-.27.19-.57.34-.81.67-1.08,1.35-2.16,2.06-3.21.89-1.32,1.83-2.6,2.71-3.92.76-1.14,1.37-2.36,1.71-3.7.2-.79.04-1.45-.56-1.99-.35-.32-.7-.65-1.1-.91-1.3-.85-2.4-.86-3.6.14-1.09.92-2.11,1.94-3.08,2.98-1.38,1.49-2.67,3.07-4.26,4.37-.62.51-1.28.94-2.09,1.09-.9.16-1.48-.27-1.4-1.17.07-.85.27-1.69.49-2.52.66-2.55,1.49-5.07,1.99-7.66.48-2.49.71-5.04.18-7.58-.08-.37-.2-.74-.32-1.09-.2-.57-.57-.97-1.15-1.19-.88-.33-1.75-.69-2.67-1.05,1.72-.51,2.94.33,4.01,1.4.35.35.54.94.62,1.45.16,1.03.26,2.07.28,3.11.02.98-.11,1.97-.16,2.95-.03.57-.11,1.15-.07,1.71.19,2.83.41,5.65.62,8.47.02.25.08.49.14.85.26-.19.48-.29.63-.47.91-1.02,1.88-1.99,2.67-3.09.92-1.3,2.04-2.34,3.33-3.21,1.77-1.21,4.24-.44,5.36.99,1,1.27.96,2.54.41,3.82-.45,1.05-.95,2.11-1.78,2.98-.53.55-.87,1.3-1.23,1.99-.42.8-.28,1.06.59,1.23,1.28.24,2.12,1.13,2.88,2.06.27.33.34.99.25,1.44-.17.86-.54,1.68-.8,2.52-.42,1.34-1.22,2.5-1.8,3.76-.71,1.54-.74,3.12-.43,4.74.28,1.49.62,2.97.84,4.46.22,1.46-.38,2.8-.74,4.18-.62,2.38-1.59,4.62-2.57,6.84-.65,1.46-1.62,2.78-2.44,4.16-.21.35-.45.69-.65,1.05-1.03,1.82-1.98,3.68-2.68,5.67-.48,1.37-1.2,2.66-1.69,4.03-.92,2.59-1.85,5.19-2.6,7.84-.91,3.22-1.66,6.48-2.42,9.73-.47,2-.8,4.03-1.21,6.04-.25,1.21-.57,2.4-.81,3.61-.39,1.98-.72,3.98-1.11,5.96-.23,1.21-.54,2.4-.78,3.61-.45,2.23-.86,4.47-1.31,6.7-.22,1.09-.51,2.15-.74,3.23-.41,1.95-.79,3.9-1.21,5.85-.38,1.76-.79,3.52-1.19,5.28-.37,1.6-.74,3.2-1.11,4.8-.38,1.6-.76,3.2-1.14,4.8-.74,3.11-1.59,6.19-2.52,9.25-.31,1.03-.54,2.09-.85,3.12-.41,1.33-.89,2.64-1.29,3.98-.29.97-.65,1.9-1.12,2.81-.67,1.29-1.21,2.65-1.8,3.98h-.76,0Zm22.7-147.22c-.06,0-.11,0-.17,0-.17.64-.33,1.28-.51,1.92-.51,1.83-1.04,3.66-1.53,5.5-.12.45-.12.94-.14,1.41,0,.33.21.53.54.54.85.02,1.52-.43,2.14-.93.46-.37.21-.88.17-1.34-.02-.19-.01-.38-.03-.57-.16-2.18-.32-4.36-.48-6.55h0Z"/>
  <path class="cls-1" d="m116.75,256.84c-1.02-.14-2.05-.27-3.07-.4-3.12-.39-6.25-.7-9.4-.74-1.82-.03-3.52.4-5.16,1.14-3.18,1.43-6.06,3.36-8.9,5.34-1.09.76-2.12,1.62-3.24,2.35-2.13,1.39-3.71,3.27-5.04,5.39-2.14,3.4-3.93,6.98-5.53,10.65-.29.67-.23,1.17.16,1.76.66,1.01,1.32,2.03,1.87,3.1.42.81.77,1.69.97,2.57.16.69.16,1.47.02,2.16-.7,3.26-1.47,6.51-2.23,9.76-.07.29-.18.57-.31,1.02-.33-.44-.19-.74-.13-1.01.7-3.1,1.37-6.21,2.14-9.29.33-1.3.31-2.54-.25-3.72-.64-1.34-1.36-2.65-2.14-3.93-.91-1.49-.98-1.48-.28-3.04,1.76-3.96,3.66-7.83,6.15-11.4,1.03-1.47,2.22-2.76,3.68-3.84,3.33-2.45,6.64-4.93,10.27-6.94,1.92-1.07,3.86-2.14,6.09-2.38,1.38-.15,2.8-.18,4.19-.07,2.91.23,5.81.57,8.72.89.51.06,1.01.19,1.52.28-.02.11-.04.22-.07.33h0Z"/>
  <path class="cls-1" d="m72.41,212.12c-.04.57-.39.87-.62,1.23-1.45,2.27-2.61,4.67-3.25,7.28-1.13,4.55-.66,8.87,1.89,12.91,2.86,4.52,6,8.84,9.34,13.01,3.47,4.35,7.04,8.62,10.56,12.93.18.23.52.39.45.84-.41-.06-.57-.39-.77-.63-1.82-2.16-3.65-4.32-5.45-6.51-4.18-5.09-8.26-10.25-12-15.67-.9-1.31-1.75-2.65-2.6-4-2.79-4.42-3.05-9.12-1.54-14.01.77-2.48,1.95-4.76,3.39-6.91.09-.13.19-.25.29-.37.04-.04.11-.04.31-.1h0Z"/>
  <path class="cls-1" d="m75.83,215.77c.25.02.52.01.76.08,1.98.58,3.98,1.12,5.92,1.79,3.73,1.29,7.32,2.9,10.82,4.73,4.05,2.11,7.37,5.05,10.24,8.56,4.83,5.89,9.06,12.18,13.14,18.6.08.12.12.27.2.46-.46.12-.53-.24-.66-.44-1.7-2.57-3.36-5.17-5.09-7.72-2.6-3.84-5.38-7.56-8.32-11.15-2.85-3.48-6.27-6.19-10.26-8.23-4.79-2.46-9.76-4.46-14.95-5.92-.46-.13-.93-.21-1.39-.33-.16-.04-.3-.15-.45-.22.01-.07.02-.14.04-.21h0Z"/>
  <path class="cls-1" d="m51.12,260.77c.49.57,1,1.12,1.48,1.7,3.13,3.73,6.85,6.8,10.71,9.72,3.37,2.55,6.77,5.06,10.16,7.59.21.16.41.34.61.51-.04.06-.07.12-.11.17-.18-.07-.39-.11-.54-.22-5.61-4.12-11.32-8.13-16.51-12.78-2.03-1.82-3.78-3.94-5.65-5.93-.16-.17-.25-.39-.38-.58.07-.06.15-.11.22-.17h0Z"/>
  <path class="cls-1" d="m86.25,299.42c8.2-3.8,15.98-8.28,23.92-12.44.05.07.1.14.14.2-.14.12-.25.28-.41.36-4.26,2.28-8.5,4.6-12.79,6.82-3.04,1.58-6.14,3.06-9.22,4.58-.37.18-.76.33-1.15.47-.15.05-.33,0-.5,0h0Z"/>
  <path class="cls-1" d="m65.83,219.16c-.02.09-.02.19-.08.25-3.65,4.07-6.84,8.48-9.81,13.06,0,.01-.06,0-.09-.01.1-.84,1.89-3.62,4.49-7.05,1.68-2.21,3.43-4.37,5.3-6.42.06.06.13.11.19.17h0Z"/>
</svg>