<?xml version="1.0" encoding="UTF-8"?>
<svg id="SKHLMC" xmlns="http://www.w3.org/2000/svg" viewBox="0 0 288.26 381.24">
  <defs>
    <style>
      .cls-1 {
        fill: #010101;
        stroke-width: 0px;
      }
    </style>
  </defs>
  <path class="cls-1" d="m146.84,290.67c.2-.52.35-1.06.6-1.55.8-1.58,1.63-3.14,2.44-4.72.2-.39.42-.77.54-1.18.15-.5,0-.75-.49-.95-.29-.12-.59-.19-.89-.26-3.33-.78-6.67-1.49-10.09-1.78-1.17-.1-2.36-.18-3.54-.2-3.49-.07-6.93-.59-10.38-1.04-1.89-.25-3.73-.65-5.44-1.84,0,.51.27.74.45,1,2.49,3.5,4.98,6.99,7.47,10.48.26.36.59.69.53,1.26-.15-.16-.33-.3-.46-.47-2.78-3.9-5.57-7.79-8.33-11.71-.58-.82-1.23-1.54-2.1-2.07-.82-.5-1.58-1.1-2.38-1.64-1.52-1.02-2.73-2.35-3.78-3.83-2.2-3.12-3.82-6.54-5.26-10.06-1.9-4.67-3.1-9.5-3.51-14.53-.42-5.26-.9-10.53-1.3-15.79-.25-3.28-.43-6.57-.57-9.87-.14-3.29-.29-6.59-.27-9.88.02-3.92.21-7.83.32-11.74.01-.36,0-.73-.14-1.13-.1.17-.21.34-.29.52-.86,2.03-1.82,4.03-2.56,6.11-.59,1.66-1,3.4-1.33,5.14-.94,4.98-1.83,9.96-2.68,14.95-.69,4.07-1.32,8.16-1.91,12.25-.2,1.38-.3,2.79-.27,4.18.08,4.41.11,8.83.39,13.23.37,5.83.92,11.65,1.47,17.46.39,4.08.92,8.15,1.38,12.22.05.44.07.89.1,1.33-.07.01-.15.03-.22.04-.06-.14-.15-.28-.17-.43-.29-2.28-.6-4.56-.84-6.84-.47-4.48-.93-8.96-1.33-13.45-.34-3.74-.65-7.49-.88-11.25-.31-5.06-.46-10.13-.19-15.2.09-1.61.41-3.2.66-4.8.61-3.9,1.19-7.8,1.88-11.69.87-4.89,1.81-9.78,2.79-14.65.26-1.27.74-2.5,1.22-3.71.91-2.31,1.95-4.57,2.82-6.91.32-.88.38-1.88.41-2.84.11-3.19-.58-6.22-1.99-9.1-.87-1.79-1.68-3.6-2.46-5.43-.79-1.86-1.5-3.75-2.24-5.63-.54-1.4-1.4-2.53-2.65-3.4-.8-.56-1.49-1.29-2.31-2.02-.29.15-.7.36-1.1.58-2.8,1.57-5.56,3.21-7.84,5.5-2.09,2.09-4.06,4.29-6.08,6.45-.04.04-.05.11-.11.25,1.65.93,3.31,1.9,4.55,3.4,1.27,1.54,1.7,3.41,2.14,5.46,1.45-2.04,2.79-3.97,4.16-5.88,1.36-1.89,2.74-3.78,4.14-5.64,1.4-1.87,2.75-3.78,4.38-5.72.09.59-.19.79-.35,1.01-2.99,4.05-6.03,8.08-8.96,12.17-3.05,4.24-6.08,8.51-8.52,13.14-2.16,4.11-3.79,8.45-5.03,12.92-.09.3-.19.61-.33,1.09-.33-.58-.15-.93-.04-1.26.74-2.24,1.42-4.51,2.27-6.71.84-2.17,1.89-4.26,2.82-6.4.11-.26.19-.61.11-.87-1.3-4.21-3.13-8.12-6.33-11.26-.13-.13-.27-.25-.47-.44-1.28,1.05-2.59,2.04-4.15,2.61-1.54.56-3.1,1.09-4.75,1.67.09,1.13.14,2.24.28,3.35.65,5.03,2.16,9.77,4.87,14.08,1.14,1.82,2.38,3.57,3.58,5.35,3.06,4.54,6.02,9.14,8.64,13.96.09.16.2.3.35.52.09-.18.15-.28.19-.38,2.26-5.43,4.25-10.95,6.1-16.53,2.32-6.96,4.66-13.91,7-20.86.09-.26.19-.51.3-.8.44.25.21.53.13.75-.81,2.45-1.61,4.91-2.44,7.34-2.48,7.3-4.94,14.6-7.47,21.89-.69,2-1.56,3.93-2.32,5.9-.37.95-.73,1.92-1.05,2.89-.09.26-.09.63.04.88,1.31,2.55,2.44,5.17,3.39,7.87.02.04.1.06.21.12.11-.21.23-.41.32-.63,1.75-4.36,3.28-8.78,4.19-13.41.85-4.3,2.3-8.45,3.68-12.61,1.69-5.1,3.47-10.18,5.21-15.27.11-.33.26-.65.39-.98l.26.08c-.04.21-.05.42-.12.61-1.09,3.14-2.2,6.28-3.26,9.43-2,5.98-4.09,11.94-5.6,18.07-.46,1.87-.74,3.79-1.33,5.62-1,3.1-2.16,6.16-3.29,9.22-.23.61-.29,1.16-.12,1.79,1.05,4.04,1.73,8.14,2.01,12.31.23,3.42.28,6.85-.38,10.22-.44,2.22-1.09,4.4-1.65,6.6-.03.11-.11.21-.32.3-.01-.18-.07-.37-.02-.53.3-1.17.59-2.35.93-3.52.99-3.41,1.23-6.9,1.14-10.43-.14-5.71-1-11.32-2.63-16.8-.78-2.63-1.93-5.12-3.21-7.57-.18.02-.35.04-.54.07-.02-.1-.08-.2-.05-.27.2-.52.03-.96-.23-1.41-2.13-3.54-4.21-7.12-6.4-10.62-1.72-2.74-3.56-5.4-5.37-8.08-2.78-4.12-4.47-8.66-5.27-13.53-.26-1.56-.39-3.13-.6-4.8-1.37.45-2.68.96-3.73,1.87-1.34,1.16-2.56,2.44-3.81,3.7-.94.94-.97,2.07-.4,3.19.65,1.27,1.38,2.5,2.11,3.73,1.55,2.62,3.11,5.24,4.68,7.85,1.23,2.05,2.42,4.14,3.75,6.11,1.13,1.67,2.5,3.17,3.69,4.81,2.94,4.03,5.5,8.28,7.44,12.9.88,2.09,1.25,4.29,1.72,6.48,1.16,5.42,1.94,10.89,2.41,16.41.41,4.83.88,9.66,1.58,14.45.77,5.22,1.62,10.44,2.44,15.66.04.28.08.57.11.86l-.23.05c-.08-.17-.2-.33-.23-.5-.57-3.5-1.16-6.99-1.68-10.49-.58-3.9-1.14-7.81-1.63-11.73-.3-2.4-.44-4.83-.67-7.24-.22-2.23-.48-4.45-.73-6.67-.01-.12,0-.3-.07-.36-1.09-.91-1.52-2.25-2.18-3.42-2.47-4.35-4.87-8.75-7.29-13.13-2.7-4.89-4.82-10.03-6.72-15.26-.18-.48-.37-.96-.56-1.44-.06.02-.12.03-.18.05.04.42.08.83.11,1.24.27,3.53.52,7.06.83,10.6.23,2.6.53,5.19.79,7.79.32,3.22.58,6.43.36,9.68-.11,1.52-.04,3.05-.09,4.57-.12,3.79-.22,7.58-.4,11.37-.16,3.38-.38,6.76-.67,10.13-.48,5.57-1.04,11.13-1.56,16.7-.04.4-.07.8-.11,1.2h-.56c.42-4.2.87-8.4,1.27-12.61.25-2.63.46-5.26.63-7.9.26-4.16.51-8.32.7-12.48.14-3.04.18-6.09.26-9.13.04-1.3.07-2.61.1-3.91.08-3.24-.32-6.45-.63-9.67-.28-2.87-.57-5.75-.83-8.63-.26-2.91-.48-5.82-.7-8.73-.14-1.86-.26-3.72-.4-5.58-.06-.88-.35-1.67-.82-2.44-1.54-2.52-3.02-5.08-4.53-7.61-.54-.91-1.07-1.82-1.68-2.69-1.19-1.72-.95-3.63.51-4.96.99-.9,1.93-1.86,2.9-2.77,1.35-1.26,3.01-1.95,4.71-2.59.72-.28,1.46-.55,2.21-.74,3.2-.79,5.83-2.51,8.23-4.72,2.59-2.38,5-4.94,7.36-7.54,3.15-3.47,6.76-6.3,10.85-8.56,3.23-1.78,5.87-4.26,8.04-7.25.16-.22.49-.46.74-.46,2.44-.01,4.65-1.04,6.99-1.48.73-.14,1.45-.33,2.19-.45,1.18-.19,1.94-.91,2.42-1.95,1.84-3.96,3.04-8.14,4.33-12.29.35-1.14.04-2.14-.58-3.09-1.4-2.15-2.33-4.53-3.28-6.89-.71-1.77-1.02-3.66-1.09-5.56-.07-2-.86-3.58-2.3-4.91-2.21-2.02-3.82-4.47-5.19-7.12-1.03-2-1.6-4.1-1.88-6.31-.33-2.56-.68-5.12-.85-7.69-.11-1.76,0-3.54.16-5.3.15-1.51.78-2.9,1.91-3.95,2.04-1.88,3.14-4.28,3.98-6.85.39-1.19.88-2.31,1.67-3.31.8-1,1.81-1.66,2.94-2.23,2.89-1.48,6.01-2.17,9.14-2.81,1.74-.35,3.48-.65,5.22-.95,2.02-.34,3.82-1.26,5.66-2.1.88-.4,1.74-.82,2.61-1.24,1.86-.89,3.81-1.27,5.88-1.19,1.74.06,3.49.14,5.22.02,2.72-.18,5.44-.5,8.15-.81.93-.11,1.82-.04,2.75.07.89.1,1.45.72,2.23.94,1.39.39,2.51,1.28,3.65,2.08,1.14.8,2.23,1.69,3.07,2.84.79,1.1,1.56,2.23,2.37,3.31.42.56.93,1.07,1.4,1.6,1.58,1.78,3.19,3.54,4.74,5.35.98,1.15,1.9,2.37,2.81,3.58,1.04,1.39,1.87,2.92,2.63,4.48.81,1.67,1.6,3.36,2.33,5.07.6,1.38.79,2.85.82,4.36.04,1.78-.08,3.53-.47,5.26-.11.47-.25.88-.69,1.16-.18.11-.35.28-.46.45-.82,1.27-1.89,2.29-3.08,3.21-.61.47-1.17,1-1.81,1.42-.81.54-1.68.58-2.55.09-.51-.29-1.03-.54-1.64-.86-.04.3-.09.46-.09.63-.04,1.49-.08,2.98-.09,4.47,0,1.51-.57,2.78-1.53,3.9-.1.12-.19.24-.37.47,1.53.42,2.98.82,4.42,1.21.21-.25.35-.47.54-.61.18-.13.46-.29.63-.23.18.06.33.34.39.56.1.37-.18.86.54,1.03-.45.11-.68.21-.78.62-.35,1.38-.78,2.75-1.17,4.12-.3,1.09-.39,2.19-.2,3.5.16-.3.27-.43.3-.58.35-2.15,1.49-3.76,3.24-5.02.75-.54,1.4-1.23,2.01-1.93.28-.32.44-.81.54-1.24.18-.74.48-1.07,1.26-1.09.62-.02,1.24,0,1.87-.01,1.12-.02,1.34-.2,1.63-1.26.05-.18.09-.36.14-.54.32-1.1.76-1.45,1.92-1.52,2.09-.12,4.17-.09,6.24.18,2.23.3,4.47.56,6.68.98,1.83.35,3.57,1.07,5.19,2,1.3.75,1.3,2.12.02,2.98-.51.35-1.1.57-1.64.88-.29.17-.61.35-.8.61-.14.19-.16.55-.06.77.06.14.43.26.63.21.94-.21,1.87-.46,2.79-.72.54-.16,1.07-.22,1.64-.19,2.58.14,5.15.21,7.73.33,1.33.06,2.67.12,4,.23.91.07,1.78,0,2.65-.33,1-.38,2.02-.11,3.04,0,.31.03.61.09.91.11,1.02.07,2.05.1,3.06.22.7.08,1.3.42,1.71,1.02.21.31.41.63.6.95.21.37.46.6.94.64.68.05,1.12.52,1.41,1.09.89,1.75,1.63,3.59,1.72,5.57.06,1.35-.13,2.72-.28,4.08-.21,1.87-.86,3.63-1.53,5.36-.33.86-.77,1.7-1.25,2.49-.51.84-1.19,1.51-2.3,1.53-.22,0-.46.16-.64.31-.26.21-.49.47-.73.72-.54.54-1.16.85-1.96.91-1.77.12-3.52-.02-5.28-.11-.09,0-.19-.04-.28-.02-.84.18-1.56-.14-2.26-.53-.32-.18-.63-.29-.89.1-.98,1.48-2.58,2.15-4.09,2.8-1.24.54-2.39,1.18-3.52,1.89-2.38,1.51-4.41,3.44-6.29,5.51-.81.9-1.6,1.82-2.37,2.75-.28.33-.49.72-.72,1.08-.61.97-.61,2-.18,3.03.64,1.51,1.3,3.01,1.95,4.53.83,1.94,1.62,3.89,2.48,5.82.68,1.53,1.44,3.02,2.14,4.54.49,1.06.9,2.16,1.39,3.22.67,1.46,1.41,2.89,2.08,4.35s1.3,2.94,1.95,4.41c1.3,2.91,2.68,5.79,3.87,8.75,1.23,3.04,2.29,6.15,3.37,9.24.52,1.49.95,3.01,1.37,4.53.19.68.25,1.39.35,2.1.24,1.65.48,3.3.69,4.95.22,1.68.37,3.38.64,5.06.28,1.74.69,3.45,1.03,5.18.4,2.03.94,4.05,1.02,6.14.02.68.18,1.36.16,2.03-.07,3.21-1.43,5.78-3.88,7.82-1.63,1.36-3.52,2.21-5.55,2.74-.89.23-1.85.24-2.75.46-1.88.46-3.79.5-5.7.69-.8.08-1.62-.02-2.42.02-1.72.09-3.4-.23-5.09-.38-1.79-.16-3.55-.53-5.33-.81-1.4-.22-2.8-.42-4.19-.69-.69-.14-1.36-.41-2.07-.63-1.08,1.75-2.49,3.25-4.09,4.57-.47.39-.7.81-.62,1.44.12.98.18,1.97.28,2.96.27,2.68.57,5.35.82,8.03.3,3.18.56,6.36.85,9.54.25,2.75.53,5.49.81,8.24,0,.09.06.18.09.26h-.75c-.05-.93-.09-1.85-.17-2.78-.25-3-.51-6-.78-9-.48-5.26-.98-10.51-1.47-15.76-.06-.6-.14-1.21-.22-1.87-.25.08-.39.12-.53.18-1.17.5-2.33.41-3.41-.19-.67-.38-1.33-.83-1.88-1.36-2.34-2.23-4.63-4.51-6.95-6.77-.23-.22-.47-.43-.8-.73-.15.63-.26,1.07-.35,1.53-.47,2.27-.7,4.54-.24,6.84.16.79.17,1.61.18,2.41.03,2.09-.3,4.15-.68,6.2-.85,4.58-2.04,9.09-2.61,13.73-.31,2.53-.66,5.05-.99,7.57h-.37c.07-.65.11-1.3.2-1.95.54-3.69,1.02-7.38,1.65-11.06.58-3.33,1.37-6.63,1.97-9.96.27-1.49.42-3.02.43-4.54.02-1.26-.26-2.52-.37-3.79-.06-.74-.12-1.5-.03-2.23.19-1.54.46-3.07.74-4.59.07-.37.09-.65-.22-.92-1.28-1.09-2.69-1.98-4.26-2.81-.52,1.03-1.23,1.89-1.34,3.07-.33,3.28-.74,6.54-1.02,9.82-.3,3.53-.61,7.06-.72,10.59-.15,4.79-.12,9.57-.14,14.36,0,1.33.08,2.66.12,4h-.56c0-1.33,0-2.66.02-4,.07-5.37.15-10.74.22-16.11,0-.16-.06-.31-.13-.65-2.35,4.13-4.59,8.09-6.85,12.07.71.54.64,1.16.32,1.8-.18.36-.38.71-.6,1.05-1.16,1.85-2.04,3.83-2.87,5.84h-.37v-.03Zm-38.76-26.42c.07.19.09.35.17.47,1.05,1.79,2.07,3.61,3.19,5.37.7,1.1,1.56,2.1,2.62,2.89,2.12,1.58,4.27,3.12,6.62,4.35.66.34,1.35.7,2.07.82,2.7.44,5.41.79,8.12,1.16.26.04.53,0,.84,0,.07-.95.15-1.78.2-2.62.12-2.3-.4-4.51-.98-6.71-.6-2.25-1.26-4.49-1.88-6.73-.08-.3-.3-.6.02-1.08.15.38.28.61.35.86.69,2.45,1.37,4.91,2.05,7.36.63,2.26.96,4.56.81,6.92-.04.68-.09,1.35-.14,2.1.4.04.77.09,1.14.11,1.15.05,2.3.06,3.44.16.61.06.96-.12,1.29-.64,2.8-4.41,5.63-8.8,8.45-13.2,1.26-1.96,2.51-3.93,3.78-5.89.12-.19.2-.54.7-.36-4.29,6.69-8.55,13.33-12.84,20.02.26.09.42.18.6.2.74.08,1.49.1,2.23.23.64.11,1.02-.08,1.39-.62,2.4-3.56,4.89-7.05,7.24-10.65,1.51-2.31,2.88-4.73,4.18-7.17,1.8-3.37,3.46-6.82,5.2-10.22.46-.91.95-1.8,1.48-2.79-.36-.19-.65-.35-.95-.5-4.1-2.04-8.38-3.66-12.74-5.03-2.12-.67-4.15-1.52-6.03-2.69-1.77-1.1-3.51-2.25-5.17-3.51-3.72-2.82-6.93-6.13-9.52-10.04-1.79-2.7-2.64-5.67-2.79-8.87-.15-3.12.21-6.21.83-9.26,1-4.9,2.65-9.58,4.84-14.07,1.34-2.74,2.69-5.47,4.41-8,.78-1.14,1.72-2.11,2.92-2.84,2.03-1.22,4.24-1.52,6.56-1.38.13,0,.26.15.4.23-.09.09-.11.13-.13.13-.12.02-.24.04-.35.03-4.04-.23-7.36,1.02-9.47,4.66-1.26,2.18-2.49,4.38-3.61,6.63-1.72,3.42-3.17,6.95-4.18,10.66-1.1,4.07-1.86,8.17-1.81,12.41.05,3.71,1.04,7.09,3.18,10.15,2.8,4,6.24,7.33,10.18,10.17,3.24,2.35,6.69,4.26,10.57,5.43,4.41,1.33,8.68,3.05,12.78,5.16,2.39,1.23,4.61,2.7,6.45,4.7.95,1.03,1.97,1.99,2.96,2.98.19.19.41.36.64.56.29-.21.54-.39.78-.58,3.97-3.22,7.37-6.96,10.1-11.28,3.73-5.92,7.23-11.98,10.46-18.19.92-1.76,1.95-3.51,2.16-5.53.24-2.28.35-4.58.56-6.87.06-.7-.23-1.1-.83-1.38-1.56-.72-3.18-1.26-4.86-1.59-.07-.02-.16.04-.15.04.41,1.32.89,2.59,1.21,3.91.47,1.91.47,3.46.07,4.08-.04-.23-.08-.4-.1-.57-.05-.74-.06-1.49-.16-2.23-.27-2.02-.82-3.94-2.02-5.65-.44-.62-.91-.89-1.69-.88-3.17.05-6.35.04-9.52.01-1.4-.01-2.8-.04-4.19-.2-4.11-.48-8.01-1.74-11.75-3.47-.16-.07-.28-.24-.42-.36.25-.11.42-.09.57-.02.6.26,1.19.54,1.79.78,4.15,1.69,8.43,2.82,12.94,2.87,3.39.04,6.78,0,10.17,0,.23,0,.47-.03.82-.05-.29-.32-.45-.61-.7-.75-1.93-1.18-3.8-2.49-5.98-3.23-.88-.3-1.78-.61-2.56-1.1-1.21-.76-2.37-1.62-3.44-2.55-.81-.7-1.5-1.56-2.2-2.39-.6-.7-1.14-1.45-1.69-2.15-.29.12-.44.19-.68.28-.37-1.5-1.14-2.51-2.63-2.49-.26.19-.4.38-.56.39-.39.03-.8.02-1.19-.05-2.3-.39-4.61-.77-6.95-.62-2.54.16-5.08.41-7.61.63-.51.04-1.01.08-1.52.12-.02-.07-.03-.13-.04-.2.18-.06.36-.16.54-.19,1.14-.15,2.28-.32,3.42-.42,2.04-.17,4.09-.44,6.14-.39,2.1.05,4.19.45,6.29.7.19.02.38.04.77.07-.89-1.28-1.67-2.4-2.45-3.51-2.11-2.96-4.73-5.32-7.95-7.06-3.38-1.82-6.89-3.31-10.52-4.55-5.36-1.84-10.9-2.42-16.54-2.25-3.27.1-6.41.73-9.37,2.19-.64.32-1.3.59-1.94.92-3.01,1.56-6.01,3.12-9.01,4.7-1.23.64-2.26,1.53-3.17,2.57-.88,1-1.78,1.99-2.68,2.98-.15.17-.33.31-.49.46-.05-.04-.1-.08-.14-.11.09-.17.16-.36.28-.5.65-.75,1.32-1.49,1.97-2.24,1.37-1.6,2.89-2.99,4.79-3.94,3.55-1.79,7.1-3.6,10.66-5.37,1.54-.76,3.16-1.3,4.86-1.6,4.21-.75,8.42-.6,12.63-.07,3.66.46,7.19,1.38,10.62,2.73,3.33,1.31,6.62,2.72,9.67,4.61,1.38.86,2.67,1.82,3.8,2.99,1.69,1.75,3.16,3.68,4.52,5.69.17.25.36.57.61.67.62.24,1.28.37,2.09.59-1.64-3.46-3.23-6.73-5.47-9.62-.32-.42-.69-.82-1.11-1.13-1.82-1.37-3.31-3.21-5.57-3.96-4.23-2.62-8.44-5.28-12.69-7.86-2.58-1.56-5.17-3.12-7.85-4.49-3.6-1.84-7.5-2.81-11.49-3.37-3.16-.44-6.32-.5-9.47.18-2.55.54-5.11,1.08-7.65,1.68-2.39.57-4.75,1.22-7.13,1.84-1.5.39-2.7,1.24-3.68,2.42-.52.61-1.03,1.23-1.55,1.85.16.38.31.75.46,1.12,1.52,3.71,2.73,7.54,4.73,11.05.06.11.11.23.15.34,1.07,2.69,1.66,5.46,1.45,8.38-.11,1.52-.2,3.04-.25,4.56-.02.51.02,1.08.22,1.54,1.18,2.64,2.47,5.22,3.98,7.7,1.42,2.34,2.7,4.76,4.04,7.15.11.2.15.43.23.65-.07.03-.13.07-.2.1-.67-.91-1.08-1.97-1.64-2.94-.57-1-1.11-2.02-1.69-3.01-.56-.96-1.19-1.9-1.75-2.87-.57-1-1.1-2.02-1.64-3.03-.53-.99-.94-2.04-1.57-2.98-.09.16-.11.28-.11.4-.07,3.08-.16,6.15-.2,9.23-.03,2.24-.04,4.48.04,6.72.11,3.01.3,6.02.47,9.03.14,2.48.26,4.97.46,7.45.33,4.09.69,8.17,1.1,12.25.2,2.04.44,4.08.83,6.09.81,4.17,2.3,8.13,4.07,11.98.1.22.25.41.4.66.33-.11.64-.18.91-.31,2.51-1.19,4.65-2.77,5.69-5.49.29-.75.62-1.5.82-2.28.36-1.45.62-2.91.94-4.37.03-.15.13-.29.19-.43.16.16.2.3.19.43-.31,2.68-.95,5.26-2.17,7.68-.61,1.21-1.47,2.22-2.56,3.03-1.17.87-2.38,1.68-3.81,2.14v-.03Zm45.1-142.55c0-.83.04-1.58,0-2.32-.06-1,.21-1.91.72-2.75.22-.37.44-.75.7-1.1,1.41-1.89,2.83-3.78,4.25-5.67.04-.05.07-.1.12-.14.72-.83,1.52-1.04,2.5-.56.53.26,1.03.58,1.47.98,1.03.94,2,1.95,3.03,2.9,1.12,1.03,2.15,2.15,3.55,2.84.96.47,1.89.47,2.75-.07,1.66-1.05,3.17-2.31,4.33-3.93.94-1.31,1.59-2.74,1.49-4.42-.02-.34-.02-.69.02-1.03.31-2.42-.24-4.7-1.21-6.89-2.23-5.08-5.05-9.77-8.96-13.75-2.36-2.4-4.52-4.96-6.37-7.78-.4-.62-.91-1.18-1.45-1.7-2.32-2.21-5.1-3.62-8.14-4.56-.32-.1-.68-.09-1.01-.06-.74.07-1.48.19-2.22.26-3.21.35-6.42.71-9.66.65-1.09-.02-2.18.01-3.26.05-2.14.07-4.19.47-6.09,1.53-.6.33-1.23.6-1.84.91-2.18,1.1-4.47,1.84-6.89,2.24-2.11.35-4.21.82-6.3,1.28-2.56.56-5.05,1.31-7.33,2.67-1.42.85-2.49,1.95-3.08,3.49-.33.87-.66,1.75-.95,2.63-.63,1.93-1.64,3.59-3.06,5.06-.66.68-1.17,1.52-1.62,2.37-.87,1.65-.9,3.43-.83,5.26.12,3.24.37,6.45.84,9.66.23,1.54.45,3.09,1.11,4.51,1.44,3.09,3.05,6.06,5.66,8.36,1.8,1.58,2.63,3.58,2.74,5.92.12,2.52.68,4.91,1.86,7.16.88,1.68,1.7,3.39,2.61,5.05.58,1.04,1.52,1.62,2.76,1.6.44,0,.88,0,1.3-.08,3.09-.56,5.97-1.69,8.69-3.25.84-.49,1.21-1.14,1.17-2.14-.08-2.08-.14-4.17-.07-6.25.05-1.45.27-2.91.56-4.33.49-2.38,1.95-4.06,4.11-5.12.92-.45,1.87-.84,2.8-1.26,1-.45,1.91-1.01,2.67-1.83,1-1.07,2.28-1.61,3.76-1.58.93.02,1.86.14,2.79.19.78.04,1.45.34,2.01.87.63.6,1.3,1.17,1.85,1.84.58.72,1.27,1.12,2.16,1.3,1,.2,1.98.52,2.98.77.29.07.59.13.97.21h0Zm34.37,87.63c.13.84.22.95.86,1.08.3.06.61.12.91.19,3.12.67,5.84,2.01,7.98,4.48.99,1.14,2.17,2.14,3.29,3.16.86.79,1.3,1.77.95,2.85-.45,1.37.14,2.14,1.09,2.99,2.53,2.26,4.98,4.6,7.45,6.92.23.21.56.38.59,1-.39-.33-.63-.53-.86-.74-2.66-2.49-5.31-4.98-7.97-7.46-.21-.2-.45-.36-.77-.61-.19.73-.32,1.3-.49,1.87-.4,1.34-.7,2.72-1.24,4-1.92,4.56-4.12,8.99-6.66,13.24-1.85,3.1-3.77,6.15-5.64,9.23-.72,1.19-1.39,2.41-2.13,3.71.32.08.57.17.83.22,2.26.41,4.52.86,6.79,1.21,2.02.32,4.06.61,6.1.77,4.33.33,8.63,0,12.88-.92,2.49-.54,4.77-1.44,6.47-3.42.67-.77,1.22-1.65,1.82-2.47.84-1.15,1.13-2.46,1.16-3.86.05-2.07-.26-4.1-.67-6.1-.97-4.78-1.76-9.59-2.35-14.44-.31-2.52-.57-5.07-1.38-7.5-1.73-5.13-3.55-10.22-5.79-15.15-3.7-8.15-7.43-16.29-11.11-24.45-1.12-2.49-2.12-5.04-3.19-7.55-.46-1.06-.34-2.06.19-3.05.21-.38.42-.77.69-1.1.76-.95,1.52-1.89,2.33-2.79,2.5-2.8,5.31-5.25,8.61-7.06,1.06-.58,2.17-1.07,3.28-1.57,1.03-.46,1.8-1.16,2.23-2.24-.17-.06-.25-.11-.34-.12-3.71-.36-7.41-.71-11.12-1.09-.44-.05-.82-.02-1.18.36-.06-.6-.05-1.14,0-1.68.15-1.98.6-3.84,1.67-5.56,1.19-1.93,2.19-3.98,2.91-6.14.19-.58.31-1.21.34-1.82.05-1.16-.54-1.93-1.61-2.37-.8-.33-1.53-.18-2.22.25-.9.54-1.56,1.33-2.07,2.23-1.05,1.87-2.07,3.76-3.11,5.63-1.37,2.47-3.1,4.64-5.21,6.54-1.45,1.31-2.85,2.7-4.16,4.14-.85.93-1.66,1.96-2.24,3.08-1.21,2.31-2.36,4.64-3.98,6.73-1.44,1.86-1.99,4.06-1.59,6.43.11.67.23,1.35.35,2.02.6,3.56,1.21,7.11,1.77,10.67.63,3.99,1.2,7.99,1.79,11.98.39,2.65.68,5.3,1.15,7.93.3,1.64.89,3.23,1.25,4.86.18.8.47,1.38,1.35,1.55h.01Zm-38.38-61.32c-.21-.29-.36-.52-.53-.74-1.88-2.4-3.79-4.77-5.63-7.2-1.32-1.74-2.7-3.4-4.52-4.65-.98-.68-1.57-1.65-1.93-2.78-.95-2.93-1.26-5.95-1.19-9.01,0-.25.03-.51.05-.93-.32.29-.51.44-.68.61-1.11,1.09-2.2,2.19-3.33,3.27-.38.36-.8.7-1.24.97-.44.28-.96.18-1.19-.13-.29-.41-.12-.79.15-1.1.26-.3.57-.58.88-.83,1.86-1.51,3.73-2.99,5.59-4.5.33-.27.63-.6.89-.94.84-1.13,1.91-1.95,3.25-2.4,1.5-.51,2.2-.28,3.18.95.17.21.37.46.61.53,1.12.34,2.26.62,3.4.93.04-.05.07-.11.11-.16-.56-.57-1.1-1.14-1.67-1.7-.63-.63-1.37-1.06-2.29-1.11-.56-.03-1.11-.16-1.67-.2-1.72-.12-3.3.23-4.52,1.52-.79.84-1.72,1.42-2.75,1.88-1.02.46-2.05.89-3.05,1.39-1.82.91-2.98,2.38-3.52,4.35-.44,1.6-.67,3.23-.68,4.88,0,1.83.03,3.67.16,5.5.11,1.51-.49,2.51-1.8,3.16-.19.1-.37.22-.57.32-2.08,1.06-4.24,1.94-6.52,2.49-1.63.4-3.28.79-4.88-.32-.79,3.66-2.03,7.08-3.23,10.51-1.21,3.44-3.11,6.53-5.11,9.65.29.1.49.18.68.24,2.49.7,5.03,1.12,7.59,1.46.46.06.94.16,1.38.07,2.53-.46,5.06-.52,7.61-.28,4.52.44,8.9,1.49,12.99,3.46,2.29,1.1,4.46,2.46,6.69,3.7.31.17.62.34,1.03.56,0-.58.05-.99,0-1.38-.25-1.79.05-3.53.44-5.26.13-.58.3-1.15.53-1.69.46-1.1.95-1.3,2.09-1.07.81.17,1.59.58,2.51.36,0-.93.06-1.85-.01-2.77-.19-2.6-.45-5.2-.67-7.8-.13-1.48.01-2.88,1.38-3.84h0Zm21.68,5.08c-.25.47-.46.95-.74,1.39-.93,1.51-1.85,3.01-2.83,4.49-.26.39-.49.77-.6,1.23-.4,1.73-.79,3.45-1.21,5.17-.69,2.82-1.44,5.61-3.21,7.99-1.11,1.49-2.29,2.94-3.47,4.38-.6.74-1.28,1.41-1.9,2.09,1.33,1.07,2.56,2.11,3.84,3.09,1.51,1.15,2.73,2.55,3.65,4.19,1.35,2.41,2.68,4.84,3.87,7.33.67,1.4,1.78,2.34,2.81,3.51.16-.24.27-.38.35-.53.5-.93,1-1.86,1.5-2.79,1.59-2.97,2.92-6.04,3.56-9.37.7-3.63,1.45-7.25,2.15-10.88.39-2,.98-3.98.75-6.06-.03-.3.06-.62.12-.92.31-1.49.93-2.86,1.87-4.02,1.43-1.76,2.44-3.74,3.39-5.77.1-.21.16-.44.26-.72-.3-.02-.51-.04-.73-.06-2.84-.25-5.64-.7-8.14-2.14-1.65-.95-3.44-1.18-5.29-1.59h0Zm-21.4-4.75c-.77.57-1.24,1.21-1.23,2.09.03,1.49.06,2.98.17,4.46.14,2.01.36,4.02.53,6.03.05.65.07,1.3.09,1.95.01.91.49,1.39,1.35,1.64,1.96.56,3.94.54,5.9.08,3.22-.75,6.12-2.21,8.78-4.17,1.08-.79,2.06-1.67,2.8-2.82,1.38-2.15,2.54-4.42,3.59-6.74.14-.3.23-.66.24-.99.04-1.46.19-2.94.02-4.38-.29-2.4-.77-4.78-1.21-7.16-.18-.96-.47-1.89-.72-2.84-.27.23-.35.49-.49.7-.4.62-.8,1.24-1.27,1.81-.29.35-.72.72-1.21.42-.45-.27-.33-.78-.23-1.19.16-.7.37-1.38.55-2.07.05-.19.06-.39.11-.73-.8.55-1.35.29-1.96-.14-.55-.39-1.19-.67-1.82-.91-.59-.22-1.22-.25-1.81.05-.82.42-1.49.99-1.92,1.86.52.8,1.44,1.22,1.9,2.05-.05.05-.09.11-.14.16-.65-.56-1.3-1.13-1.98-1.72-.4.76-.38,1.47-.35,2.19.06,1.24.18,2.48.16,3.72-.03,2.26-1.09,3.84-3.28,4.57-.3.1-.58.22-.89.28-1,.2-2.01.39-3.02.55-.84.14-1.61.4-2.23,1,.45.91,1.3,1.5,1.65,2.42-.06.05-.12.09-.18.14-.61-.75-1.23-1.49-1.89-2.31h0Zm-5.49-26.98c-.53-.95-.98-1.87-1.54-2.72-.46-.71-1.16-.96-2.03-.72-2.41.65-4.01,2.11-4.43,4.61-.2,1.21-.16,2.47-.12,3.71.07,2.12.42,4.2,1.08,6.22.37,1.12.93,2.09,1.91,2.79,1.29.92,2.57,1.86,3.84,2.79.2.14.51.23.46.65-.31-.11-.57-.2-1.01-.35,2.54,3.24,4.95,6.31,7.4,9.43,1.13-.83,2.37-1.07,3.64-1.23,1.36-.18,2.68-.5,3.89-1.21.8-.46,1.37-1.11,1.54-2.01.17-.88.25-1.77.28-2.66.07-1.75-.55-3.52.26-5.29-.31-.28-.59-.52-.86-.77-1.61-1.51-3.21-3.03-4.81-4.54-2.82-2.66-5.64-5.33-8.48-7.99-.3-.28-.69-.47-1.02-.7h0Zm50.94,92.01c-.12,1.97-.2,3.71-.34,5.44-.14,1.68-.4,3.33-1.14,4.87-.46.95-.91,1.91-1.39,2.85-2.77,5.36-5.85,10.54-8.92,15.73-3.23,5.47-7.22,10.25-12.21,14.19-.07.05-.1.14-.14.21.77,1.01,3.37,3.44,4.33,3.96.54.29,1.13.51,1.73.66.9.21,1.74-.06,2.44-.62,2.32-1.86,4.31-4.03,5.85-6.59,1.27-2.1,2.44-4.27,3.76-6.33,3.31-5.16,6.32-10.48,8.9-16.05,1.06-2.28,2.08-4.58,2.51-7.09.15-.87.46-1.72.71-2.57.54-1.81.26-2.71-1.17-3.94-.75-.65-1.44-1.37-2.14-2.07-.6-.59-1.16-1.21-1.76-1.8-.28-.27-.6-.5-1.01-.85h0Zm-29.19-52.74c-.08.03-.18.05-.24.1-1.89,1.5-3.98,2.63-6.23,3.49-2.84,1.1-5.71,1.63-8.74.86-.87-.22-1.52-.65-2.07-1.31-.19-.23-.41-.5-.67-.6-.67-.24-1.36-.46-2.05-.57-.81-.13-1.17.09-1.39.89-.33,1.19-.69,2.4-.81,3.62-.14,1.35,0,2.73-.04,4.09-.01.48.19.72.57.96,3.3,2.04,6.59,4.11,9.89,6.15.78.48,1.61.89,2.33,1.29,5.79-5.09,8.94-11.38,9.46-18.98h0Zm51.88-6.31c1.76.22,3.52.28,5.28.15.24-.02.51-.09.7-.22,1.58-1.06,2.93-2.28,3.37-4.27.58-2.64,1.09-5.29,1.33-7.99.17-1.92.23-3.84,0-5.77-.2-1.57-.68-3.03-1.56-4.34-.39-.57-.89-.96-1.59-1.03-1.39-.14-2.79-.24-4.18-.35-.1,0-.2.03-.45.07.65.36,1.18.61,1.66.94.94.63.93,1.09-.06,1.6-1.15.59-2.35,1.08-3.68,1.68,0,.35-.02.84,0,1.33.14,2.64.28,5.29-.26,7.9-.34,1.67-.84,3.31-1.21,4.98-.14.63-.17,1.3-.15,1.94.02.7.25.9.93,1.09.42.12.84.22,1.25.37.37.14.77.3.83.85-.53.73-1.53.51-2.21,1.07h0Zm-37.83,18.29h-.22c-.2.92-.42,1.83-.61,2.75-.81,3.95-1.62,7.91-2.42,11.86-.44,2.18-1.46,4.15-2.28,6.18-.54,1.34-1.42,2.55-2.14,3.82-.51.91-.5,1.51.18,2.3.52.61,1.09,1.2,1.71,1.71.84.69,1.77,1.27,2.61,1.95.87.69,1.84,1.12,2.88,1.48.79.27,1.58.57,2.32.95,1.05.54,2.05,1.17,3.07,1.77.2.11.4.21.68.37-.03-.23-.03-.35-.07-.47-1.03-3.31-1.47-6.73-1.89-10.15-.37-2.93-.77-5.85-1.22-8.76-.74-4.75-1.54-9.5-2.32-14.25-.08-.51-.19-1-.29-1.51h0Zm13.08-24.14c.32-.33.54-.53.74-.75,1.71-1.92,2.93-4.16,4.21-6.36.67-1.15.91-2.35.95-3.64.07-2.34.01-4.66-.52-6.95-.16-.67-.03-1.25.55-1.66.45-.32.93-.61,1.4-.89.24-.14.53-.19.77-.32.51-.28.71-.77.76-1.31.05-.51-.39-.65-.74-.86-.19-.11-.39-.2-.58-.3-2.86-1.51-5.98-1.95-9.11-2.48-2.27-.39-3.91.46-5.57,1.66-.22.16-.4.37-.57.54.21.76.73,1.16,1.29,1.51.84.52,1.78.72,2.76.71,1.7-.01,2.85.79,3.4,2.38.25.73.47,1.49.52,2.25.13,2.27.01,4.54-.3,6.79-.44,3.16-.49,6.31.05,9.69h0Zm-33.95,103.94c-.18.25-.28.35-.35.49-1.3,2.55-2.65,5.07-3.86,7.65-.98,2.09-2.02,4.14-3.29,6.05-2.83,4.28-5.71,8.51-8.57,12.76-.16.25-.32.49-.53.8,2.64.55,5.15,1.08,7.65,1.6.11-.15.2-.24.26-.34,2.33-4.1,4.67-8.2,6.99-12.32.16-.28.25-.63.27-.96.1-1.08.14-2.17.24-3.25.38-4.11.77-8.21,1.18-12.48h0Zm-5.2-130.52c.3.09.62.19.95.28,2.07.56,4.14,1.11,6.21,1.66,1.26.34,2.52.69,3.78,1.01.24.06.64.07.76-.07.84-1.03,1.82-2.01,1.84-3.46.03-2.05.03-4.1.01-6.15,0-.24-.16-.53-.34-.71-1.21-1.2-2.44-2.4-3.69-3.56-.52-.48-1.1-.92-1.72-1.27-.95-.54-1.72-.34-2.37.52-1.33,1.76-2.59,3.58-3.99,5.28-1.57,1.92-1.84,4.07-1.44,6.47h0Zm-94.94,90.36c-.13,1.52-.05,2.99.54,4.38.29.68.52,1.4.78,2.1,2.03,5.56,4.31,10.99,7.22,16.15,2.64,4.68,5.23,9.4,7.85,14.09.13.24.19.56.56.67.01-.16.04-.25.02-.34-.58-3.3-1.15-6.61-1.76-9.9-.35-1.89-.75-3.77-1.51-5.57-2-4.76-4.62-9.16-7.73-13.26-2.01-2.65-4.13-5.22-5.8-8.1-.05-.08-.11-.14-.17-.21h0Zm84.96-92.6c0,.64.29.97.63,1.3,4.73,4.46,9.45,8.92,14.18,13.38.24.23.5.42.77.65.21-.26.37-.45.53-.63,1.47-1.69,2.82-1.94,4.8-.89.14.07.27.15.4.23.39.25.79.49,1.2.75.37-.17.73-.33,1.12-.52-.12-.37-.21-.67-.33-.95-.58-1.38-1.17-2.75-1.75-4.12-.47-1.11-.98-2.22-.45-3.51-3.75-1.01-7.43-1.99-11.17-3-.05,1.01-.07,1.88-.13,2.74-.04.53-.12,1.05-.81,1.34-.37-.35-.78-.68-1.12-1.07-1.16-1.34-2.28-2.71-3.43-4.06-.18-.21-.37-.49-.6-.56-1.26-.39-2.54-.72-3.87-1.09h0Zm45.36,31.8c.07-.23.12-.32.13-.4.25-2.63.51-5.25.75-7.87.32-3.43.63-6.85.92-10.29.06-.72.28-1.47-.06-2.16-2.21-.4-4.97-.54-6.19-.29-.4,6.9-.92,13.81-1.24,20.82,1.96.07,3.81.13,5.7.19h0Zm29.43,1.27c-.23-.07-.45-.16-.68-.22-1.08-.28-1.44-.71-1.48-1.82-.01-.31,0-.62.07-.93.14-.76.26-1.54.49-2.27,1.14-3.51,1.44-7.11,1.12-10.77-.05-.56-.07-1.12-.03-1.67.03-.44.23-.78.72-.96,1.13-.42,2.23-.91,3.34-1.38.17-.07.34-.14.62-.26-1.31-1.07-2.56-1.52-3.83-1.93-.14-.05-.36.15-.54.23-.21.09-.43.25-.64.25-1.24-.03-2.48-.09-3.72-.15-.7-.03-1.4-.07-2.2-.11.11.29.16.47.24.63.8,1.64,1.17,3.38,1.32,5.2.19,2.31.01,4.6-.25,6.88-.37,3.22-1.29,6.26-3.19,8.95-.1.14-.14.31-.24.55,2.04.13,3.99.25,5.94.39,1.01.07,1.97-.12,2.94-.58h0Zm-47.43.02c1.13.22,2.14.39,3.13.63.38.09.65,0,.94-.21.87-.65,1.75-1.29,2.65-1.91.32-.22.42-.47.42-.86,0-1.03-.02-2.06.09-3.07.38-3.89.8-7.78,1.21-11.67.1-.98.2-1.96.31-3.06-.57-.1-1.09-.17-1.59-.28-.56-.12-.91.09-1.22.58-.53.84-1.08,1.68-1.74,2.42-1.1,1.23-2.26,2.4-3.45,3.54-.51.49-.65.96-.49,1.65.64,2.7.97,5.44.83,8.22-.05,1.1-.15,2.16-.72,3.14-.14.24-.22.51-.38.89h.01Zm16.66-29.89c-.02-.07-.03-.14-.05-.21-1.05-.04-2.1-.12-3.16-.11-.61,0-1.23.16-1.84.26-.56.09-.88.42-.94,1-.02.19-.05.37-.1.55-.28,1.11-.81,1.56-1.96,1.64-.56.04-1.12.02-1.68.02-.89,0-1,.04-1.09.89-.12,1.26-.17,2.54-.19,3.81,0,.38.18.76.27,1.1.97.1,1.83.19,2.68.27.39-1,.67-1.18,1.75-1.12.31.02.61.07.93.11.57.07,1.15.13,1.72.19.05-.19.08-.27.09-.36.11-.98.14-1.05,1.15-1,1.46.06,2.91.17,4.37.28,1.7.13,1.87.34,1.68,2.07,0,.03-.01.06-.01.09-.22,2.38-.44,4.76-.66,7.15-.29,3.12-.59,6.25-.88,9.38-.08.82-.12,1.64-.19,2.46.98-.69,1.82-1.45,2.62-2.26.14-.14.16-.46.14-.69-.06-.77-.18-1.54-.24-2.31-.14-1.7-.16-3.4.02-5.12.27-2.66.45-5.32.6-7.99.07-1.19-.2-2.34-.72-3.44-.47-.99-1.19-1.56-2.3-1.63-.46-.03-.93-.08-1.39-.12-1.05-.1-1.99-.49-2.77-1.2-1.13-1.02-1.1-1.51.14-2.38.65-.46,1.34-.86,2.02-1.3h0Zm-91.58,37.78c-.87,1-1.64,1.98-2.52,2.85-.82.81-1.2,1.7-1.12,2.83.02.25-.02.49-.04.74-.55-.61-.33-1.3-.37-2.12-.55.44-1,.8-1.45,1.17-1.1.91-1.09,1.23.02,2.16.05.04.09.08.14.12,1.26,1,2.67,1.84,3.31,3.61.54-.69.96-1.23,1.42-1.81-.49-.21-.87-.34-1.23-.53-.58-.3-1.15-.61-1.7-.97-.26-.17-.55-.4-.38-.91.86,1.01,2.01,1.4,3.11,1.88.4.18.68.11.99-.19.43-.4.87-.83,1.39-1.08.89-.42,1.83-.8,2.79-1.04,3.68-.91,7.37-1.75,11.06-2.62.33-.08.67-.16,1-.24-1.12-.34-2.23-.51-3.32-.73-1.22-.25-2.42-.56-3.64-.81-.47-.1-1.09.07-1.39-.18-.51-.44-1.08-.41-1.62-.55-2.13-.54-4.36-.66-6.46-1.58h0Zm-27.26,24.14c.04.1.04.16.08.21.16.19.33.37.49.56,2.05,2.24,3.83,4.65,4.89,7.53.35.96.72,1.92,1.09,2.87.07.18.18.34.3.55.12-.13.2-.19.25-.27,1.32-2.07,2.64-4.14,3.97-6.2.26-.4.3-.82.19-1.24-.29-1.11-.53-2.24-.95-3.3-1.04-2.61-3.3-3.89-5.63-5.08-1.62,1.51-3.16,2.94-4.68,4.37h0Zm109.69-34.01c1.13.35,3.5.54,4.35.37.19-3.2.37-6.42.58-9.64.2-3.24.46-6.47.63-9.78-1.36-.11-2.58-.54-3.81-.17-.19,1.84-.38,3.56-.55,5.29-.4,4.05-.81,8.1-1.19,12.15-.05.58,0,1.17,0,1.78h0Zm22.72-15.04c.3-.19.54-.37.81-.53,1.07-.65,2.12-.6,3.14.11,1.09.76,1.47,1.84,1.21,3.1-.16.82-.41,1.64-.77,2.38-.89,1.88-1.83,3.73-2.82,5.56-.95,1.77-1.26,3.66-1.39,5.68.73.08,1.36.16,1.98.23.5-.86.95-1.63,1.4-2.41,1-1.7,1.81-3.49,2.16-5.43.37-2.04.67-4.1.82-6.17.14-1.99-.1-4-.96-5.83-1.19-2.52-.9-2.01-3.15-2.09-1.21-.04-2.25.51-3.27.8.29,1.58.56,3.03.84,4.58h0Zm5.13-5.17c.12.26.21.48.33.69.9,1.6,1.37,3.33,1.45,5.15.16,3.51-.3,6.94-1.41,10.28-.53,1.58-1.38,2.98-2.2,4.41-.21.36-.37.75-.6,1.22.91.1,1.68.17,2.44.28.52.08.86-.07,1.16-.54.81-1.26,1.5-2.57,1.98-3.99.75-2.19,1.12-4.46,1.26-6.76.12-2.07.23-4.16-.13-6.23-.24-1.39-.63-2.73-1.34-3.95-.13-.23-.36-.53-.56-.54-.76-.07-1.53-.03-2.37-.03h0Zm-31.2,23.04c.05.14.05.19.07.2,2.94,1.88,6.26,2.44,9.66,2.7.19.02.45-.17.59-.33,1.1-1.26,2.18-2.54,3.26-3.82.1-.12.16-.28.28-.53-.61,0-1.11.02-1.6,0-2.47-.11-4.96-.13-7.42-.37-1.19-.12-2.15,0-3.03.82-.56.51-1.22.91-1.8,1.34h0Zm32.48-.95c.87.17,1.52-.05,1.94-.67.98-1.45,1.7-3.03,2.19-4.71,1.04-3.53,1.19-7.15,1.04-10.79-.07-1.71-.49-3.38-1.27-4.93-.5-.98-.66-1.05-1.88-.76.09.2.16.4.25.59.71,1.47,1.09,3.03,1.25,4.65.27,2.65.07,5.28-.27,7.89-.33,2.61-1.07,5.1-2.42,7.38-.25.42-.51.84-.82,1.35h0Zm20.37-19.07c.08.3.15.57.22.84.46,1.73.61,3.49.54,5.26-.09,2.49-.4,4.95-.87,7.4-.35,1.82-.58,3.69-1.6,5.32-.02.03.04.1.08.22.82-.16,1.35-.67,1.71-1.39,1.37-2.77,2.5-5.61,2.83-8.72.3-2.81-.2-5.44-1.49-7.94-.13-.25-.28-.49-.46-.7-.22-.28-.49-.49-.98-.28h0Zm-51.83-5.32c-1.37,1.23-2.7,2.38-3.98,3.59-.3.28-.5.72-.63,1.12-.34,1.03-.61,2.09-.91,3.13-.28.98.04,1.87.37,2.94,2.13-2.16,4.36-4.04,5.77-6.7-.94-1.19-.33-2.66-.61-4.07h0Zm-5.9-1.35c-.3.8-.59,1.49-.82,2.19-.59,1.77-1.16,3.54-1.74,5.31-.26.8-.52,1.6-.74,2.4-.11.43-.28.88.02,1.45.38-.31.8-.51,1.02-.85.4-.62.78-1.28.98-1.98.62-2.14,1.14-4.31,1.71-6.47.13-.51.27-1.02.4-1.53.02-.08,0-.18-.02-.32-.23-.06-.45-.11-.81-.2h0Zm-64.36,32.96l-.14-.19c-3.01.26-6.05.24-9.08.68,2.48.93,5.1,1.17,7.67,1.86.54-.82,1.04-1.59,1.54-2.35h0Zm61.76-26.6c.72-2.2,1.41-4.3,2.12-6.49-1.4-.38-2.78-.74-4.15-1.11-.38-.1-.56.08-.68.43-.18.52.03.96.21,1.47.2-.06.37-.11.54-.15,1.26-.3,2.4.51,2.49,1.81.03.43,0,.88-.1,1.29-.15.6-.38,1.17-.61,1.75-.14.33-.27.63.19,1h0Zm-14.85-7.19c.4-1.4.35-2.6.3-3.85-1.53-.4-2.99-.78-4.46-1.17-.03.06-.06.12-.09.18,1.36,1.57,2.52,3.31,4.25,4.83h0Zm46.35,12.36c.94-1.21,1.86-2.4,1.42-4.13-.25-.98-.29-2-.81-2.93-.35.05-.64.1-.91.14.1,2.32.19,4.59.3,6.92h0Zm-32.09-6.31c.2-.44.33-.65.39-.88.11-.39.24-.77.26-1.17.02-.48,0-.98-.12-1.44-.14-.53-.62-.75-1.12-.85-.44-.09-.86-.05-1.12.46.54,1.23,1.08,2.46,1.71,3.89h0Zm-31.41-10.46c-.27.06-.33.06-.38.09-1.84,1.47-3.68,2.94-5.52,4.42-.21.17-.39.41-.52.64-.06.1-.04.33.04.42.08.09.31.14.41.09.35-.18.73-.37,1.01-.65,1.54-1.49,3.05-3,4.57-4.51.11-.11.18-.23.39-.5h0Zm-28.86,36.39c-1.86.42-3.69.67-5.42,1.38,1.31.01,2.61-.07,3.91-.13,1.07-.05,1.1-.06,1.52-1.25h0Zm108.34-4.31c.63.58,1.14.25,1.65,0h-1.65Z"/>
</svg>