<?xml version="1.0" encoding="UTF-8"?>
<svg id="Layer_1" data-name="Layer 1" xmlns="http://www.w3.org/2000/svg" viewBox="0 0 466.23 564.15">
  <defs>
    <style>
      .cls-1 {
        stroke-width: 0px;
      }
    </style>
  </defs>
  <path class="cls-1" d="m248.33,564.15c.51-1.33.91-2.72,1.55-3.98,2.05-4.06,4.19-8.08,6.28-12.12.51-.99,1.07-1.98,1.38-3.04.39-1.29,0-1.92-1.26-2.43-.74-.3-1.52-.48-2.3-.66-8.56-2-17.15-3.83-25.93-4.58-3.02-.26-6.06-.45-9.09-.51-8.97-.19-17.82-1.51-26.69-2.68-4.87-.64-9.6-1.68-13.98-4.73,0,1.32.69,1.91,1.16,2.56,6.39,8.99,12.81,17.96,19.2,26.95.66.93,1.52,1.78,1.37,3.24-.39-.4-.84-.76-1.17-1.21-7.15-10.02-14.31-20.03-21.4-30.1-1.5-2.12-3.16-3.96-5.4-5.32-2.11-1.29-4.07-2.83-6.13-4.21-3.91-2.62-7.02-6.03-9.72-9.84-5.66-8.02-9.83-16.81-13.52-25.86-4.88-12.01-7.98-24.43-9.02-37.36-1.09-13.53-2.31-27.06-3.33-40.6-.63-8.44-1.1-16.9-1.46-25.36-.36-8.46-.74-16.93-.7-25.39.05-10.07.53-20.13.81-30.19.03-.93,0-1.87-.36-2.91-.25.44-.54.87-.74,1.33-2.22,5.22-4.68,10.36-6.57,15.7-1.51,4.27-2.57,8.74-3.41,13.2-2.42,12.79-4.71,25.61-6.88,38.44-1.78,10.47-3.4,20.97-4.92,31.48-.51,3.54-.77,7.17-.7,10.75.2,11.34.29,22.71,1.01,34.02.96,14.98,2.36,29.94,3.79,44.88,1,10.49,2.37,20.95,3.56,31.42.13,1.14.17,2.28.25,3.43-.19.03-.38.07-.57.1-.15-.37-.38-.73-.43-1.11-.74-5.86-1.55-11.72-2.17-17.59-1.21-11.52-2.39-23.04-3.43-34.57-.87-9.62-1.68-19.26-2.26-28.91-.79-13.01-1.19-26.04-.48-39.06.22-4.13,1.05-8.23,1.7-12.33,1.57-10.02,3.05-20.06,4.83-30.04,2.24-12.58,4.64-25.13,7.17-37.65.66-3.26,1.91-6.42,3.14-9.53,2.35-5.95,5.02-11.76,7.24-17.76.83-2.26.98-4.84,1.06-7.29.27-8.21-1.49-16-5.11-23.4-2.24-4.59-4.32-9.26-6.32-13.96-2.02-4.78-3.86-9.64-5.75-14.48-1.4-3.6-3.59-6.5-6.8-8.75-2.06-1.45-3.83-3.31-5.94-5.18-.74.39-1.8.92-2.84,1.5-7.19,4.04-14.3,8.26-20.16,14.14-5.36,5.38-10.44,11.03-15.63,16.57-.1.11-.13.28-.29.65,4.25,2.39,8.5,4.89,11.69,8.75,3.27,3.95,4.36,8.77,5.49,14.04,3.72-5.25,7.17-10.21,10.7-15.11,3.5-4.87,7.04-9.71,10.63-14.51,3.59-4.8,7.07-9.71,11.26-14.71.23,1.52-.48,2.02-.9,2.6-7.68,10.42-15.49,20.76-23.04,31.28-7.83,10.91-15.63,21.87-21.89,33.78-5.55,10.57-9.75,21.71-12.92,33.22-.22.78-.48,1.56-.86,2.81-.85-1.49-.38-2.4-.11-3.23,1.89-5.77,3.64-11.59,5.84-17.24,2.17-5.57,4.86-10.95,7.26-16.44.29-.67.49-1.58.28-2.24-3.35-10.81-8.04-20.88-16.28-28.94-.34-.33-.69-.65-1.2-1.13-3.29,2.69-6.66,5.25-10.67,6.71-3.97,1.44-7.97,2.8-12.21,4.28.24,2.9.36,5.76.72,8.6,1.68,12.92,5.54,25.11,12.51,36.18,2.94,4.67,6.11,9.18,9.19,13.76,7.86,11.68,15.48,23.5,22.2,35.88.22.4.51.76.89,1.33.24-.47.38-.72.49-.98,5.8-13.95,10.92-28.15,15.69-42.48,5.96-17.89,11.99-35.75,18-53.62.22-.66.5-1.31.78-2.06,1.14.63.53,1.35.34,1.93-2.07,6.3-4.13,12.61-6.26,18.88-6.37,18.76-12.71,37.53-19.19,56.26-1.77,5.13-4,10.1-5.97,15.16-.96,2.45-1.88,4.93-2.69,7.44-.22.68-.22,1.63.09,2.25,3.36,6.55,6.28,13.29,8.71,20.24.04.1.25.15.54.3.27-.54.59-1.06.81-1.61,4.51-11.2,8.42-22.57,10.78-34.48,2.19-11.06,5.91-21.73,9.46-32.42,4.35-13.12,8.91-26.17,13.39-39.24.29-.85.66-1.68.99-2.52l.67.21c-.1.53-.14,1.07-.32,1.57-2.79,8.08-5.66,16.13-8.38,24.24-5.15,15.38-10.51,30.69-14.4,46.46-1.18,4.81-1.91,9.75-3.42,14.45-2.57,7.98-5.54,15.83-8.46,23.69-.58,1.57-.74,2.97-.32,4.61,2.7,10.38,4.44,20.93,5.16,31.64.6,8.79.72,17.6-.98,26.28-1.12,5.71-2.79,11.32-4.23,16.97-.07.29-.29.53-.82.77-.03-.46-.17-.95-.06-1.37.76-3.02,1.51-6.05,2.38-9.04,2.55-8.77,3.16-17.74,2.93-26.81-.36-14.69-2.58-29.11-6.77-43.19-2.01-6.75-4.95-13.15-8.24-19.47-.46.06-.9.11-1.38.17-.06-.26-.21-.52-.14-.69.52-1.34.08-2.48-.6-3.62-5.48-9.1-10.82-18.3-16.46-27.31-4.41-7.04-9.15-13.88-13.8-20.77-7.15-10.58-11.48-22.25-13.54-34.79-.66-4-1.01-8.05-1.53-12.33-3.52,1.15-6.88,2.47-9.59,4.8-3.44,2.97-6.59,6.28-9.8,9.5-2.42,2.42-2.49,5.32-1.04,8.19,1.66,3.27,3.56,6.43,5.43,9.59,3.99,6.74,8,13.46,12.04,20.17,3.17,5.27,6.21,10.63,9.65,15.71,2.91,4.29,6.42,8.16,9.48,12.36,7.55,10.37,14.14,21.29,19.13,33.15,2.25,5.36,3.22,11.03,4.41,16.65,2.97,13.92,4.98,28,6.2,42.17,1.06,12.42,2.25,24.82,4.06,37.15,1.97,13.43,4.17,26.83,6.27,40.25.11.73.2,1.47.29,2.21l-.59.14c-.2-.43-.51-.84-.59-1.29-1.46-8.99-2.98-17.96-4.32-26.97-1.49-10.03-2.93-20.07-4.19-30.14-.77-6.18-1.12-12.41-1.73-18.61-.57-5.72-1.24-11.43-1.87-17.15-.03-.32,0-.76-.19-.92-2.8-2.33-3.9-5.78-5.6-8.79-6.35-11.19-12.53-22.48-18.75-33.74-6.94-12.56-12.39-25.77-17.27-39.23-.45-1.24-.95-2.47-1.43-3.7-.16.04-.31.08-.47.12.09,1.07.2,2.13.28,3.2.7,9.08,1.34,18.16,2.13,27.24.58,6.68,1.36,13.35,2.03,20.02.83,8.27,1.49,16.54.92,24.87-.27,3.9-.11,7.83-.23,11.75-.31,9.74-.56,19.49-1.03,29.23-.42,8.69-.97,17.38-1.71,26.05-1.23,14.32-2.67,28.62-4.02,42.93-.1,1.03-.18,2.05-.27,3.08h-1.44c1.09-10.8,2.23-21.6,3.26-32.41.64-6.76,1.19-13.53,1.62-20.31.68-10.69,1.3-21.38,1.79-32.07.36-7.82.45-15.66.66-23.48.09-3.35.18-6.71.26-10.06.21-8.33-.81-16.58-1.62-24.85-.72-7.39-1.47-14.79-2.13-22.19-.66-7.48-1.23-14.96-1.81-22.44-.37-4.78-.68-9.56-1.03-14.34-.16-2.27-.9-4.3-2.1-6.28-3.96-6.48-7.76-13.05-11.65-19.56-1.39-2.33-2.76-4.69-4.31-6.91-3.06-4.41-2.43-9.34,1.32-12.74,2.54-2.31,4.95-4.77,7.46-7.12,3.46-3.24,7.75-5.01,12.1-6.66,1.86-.71,3.75-1.42,5.68-1.9,8.22-2.04,14.98-6.45,21.16-12.13,6.67-6.12,12.85-12.71,18.91-19.39,8.1-8.93,17.37-16.19,27.9-22.01,8.3-4.58,15.1-10.95,20.67-18.63.41-.57,1.25-1.17,1.89-1.18,6.27-.03,11.96-2.68,17.98-3.8,1.88-.35,3.74-.85,5.63-1.16,3.04-.5,4.98-2.35,6.22-5,4.73-10.17,7.82-20.92,11.12-31.6.91-2.94.1-5.5-1.48-7.93-3.6-5.53-5.99-11.64-8.43-17.71-1.83-4.55-2.61-9.42-2.8-14.29-.19-5.15-2.2-9.21-5.92-12.62-5.68-5.2-9.82-11.5-13.34-18.3-2.66-5.13-4.11-10.55-4.83-16.21-.84-6.57-1.76-13.15-2.19-19.76-.29-4.52-.02-9.11.42-13.62.38-3.89,2-7.46,4.92-10.16,5.24-4.84,8.08-11.01,10.23-17.61,1-3.05,2.25-5.95,4.3-8.5,2.06-2.57,4.66-4.26,7.55-5.74,7.42-3.8,15.44-5.57,23.5-7.22,4.46-.91,8.94-1.68,13.43-2.44,5.2-.88,9.83-3.24,14.55-5.39,2.25-1.03,4.48-2.12,6.71-3.19,4.78-2.3,9.8-3.26,15.11-3.06,4.47.16,8.97.35,13.42.05,7-.47,13.98-1.28,20.96-2.08,2.4-.27,4.69-.09,7.08.18,2.28.26,3.72,1.85,5.72,2.41,3.57.99,6.44,3.29,9.39,5.35,2.93,2.05,5.74,4.34,7.88,7.29,2.04,2.83,4,5.72,6.09,8.51,1.09,1.45,2.39,2.76,3.6,4.12,4.07,4.58,8.2,9.1,12.18,13.76,2.53,2.96,4.89,6.08,7.22,9.2,2.67,3.58,4.8,7.51,6.75,11.51,2.09,4.3,4.1,8.64,6,13.03,1.54,3.55,2.03,7.32,2.11,11.21.1,4.58-.2,9.07-1.22,13.53-.28,1.22-.64,2.27-1.77,2.97-.46.28-.89.71-1.18,1.16-2.1,3.27-4.86,5.89-7.91,8.25-1.56,1.21-3.02,2.56-4.66,3.65-2.08,1.39-4.31,1.5-6.56.23-1.3-.74-2.64-1.39-4.21-2.2-.11.76-.22,1.19-.23,1.63-.09,3.83-.21,7.66-.23,11.49-.02,3.87-1.47,7.14-3.93,10.03-.25.3-.48.62-.95,1.22,3.93,1.08,7.65,2.1,11.37,3.12.55-.64.89-1.21,1.39-1.57.47-.34,1.19-.74,1.63-.6.45.15.84.88.99,1.43.25.94-.45,2.22,1.4,2.64-1.15.27-1.74.55-2,1.6-.89,3.56-2.01,7.06-3,10.6-.78,2.79-.99,5.62-.52,9,.4-.76.7-1.11.77-1.49.9-5.52,3.83-9.66,8.33-12.91,1.92-1.39,3.59-3.17,5.17-4.96.73-.83,1.14-2.07,1.4-3.19.45-1.91,1.24-2.75,3.24-2.81,1.6-.05,3.2,0,4.8-.03,2.89-.06,3.45-.51,4.18-3.24.12-.46.23-.93.36-1.39.82-2.84,1.95-3.72,4.94-3.9,5.36-.31,10.71-.23,16.03.47,5.73.76,11.48,1.43,17.16,2.51,4.71.9,9.17,2.74,13.34,5.14,3.34,1.92,3.33,5.45.06,7.65-1.32.89-2.83,1.47-4.22,2.27-.75.43-1.58.9-2.06,1.57-.35.48-.4,1.42-.16,1.98.15.36,1.11.66,1.61.55,2.41-.53,4.8-1.17,7.17-1.86,1.4-.41,2.75-.56,4.22-.48,6.62.36,13.25.55,19.88.84,3.43.15,6.87.32,10.29.58,2.34.18,4.57.01,6.8-.84,2.56-.97,5.2-.27,7.81-.02.79.07,1.57.22,2.35.27,2.62.19,5.26.26,7.87.56,1.8.2,3.33,1.08,4.39,2.63.54.79,1.05,1.61,1.53,2.44.55.95,1.19,1.55,2.42,1.64,1.74.12,2.89,1.34,3.63,2.8,2.3,4.51,4.18,9.23,4.41,14.32.16,3.48-.34,7-.72,10.48-.53,4.8-2.21,9.32-3.93,13.79-.85,2.22-1.97,4.36-3.21,6.39-1.32,2.15-3.07,3.89-5.91,3.93-.56,0-1.18.42-1.65.8-.68.54-1.27,1.22-1.88,1.84-1.39,1.4-2.98,2.19-5.03,2.33-4.54.32-9.05-.06-13.58-.29-.24-.01-.49-.1-.71-.05-2.15.45-4.01-.35-5.82-1.36-.83-.46-1.61-.75-2.29.26-2.53,3.8-6.62,5.52-10.52,7.21-3.18,1.38-6.14,3.04-9.04,4.87-6.13,3.88-11.34,8.83-16.18,14.17-2.09,2.31-4.1,4.69-6.09,7.08-.71.85-1.27,1.84-1.86,2.78-1.56,2.5-1.58,5.13-.46,7.78,1.64,3.89,3.34,7.75,5,11.64,2.13,4.98,4.17,10,6.37,14.95,1.74,3.93,3.7,7.76,5.49,11.67,1.25,2.73,2.31,5.55,3.57,8.28,1.73,3.75,3.62,7.43,5.35,11.18,1.73,3.75,3.34,7.56,5.02,11.33,3.33,7.49,6.9,14.89,9.96,22.48,3.15,7.82,5.88,15.8,8.67,23.76,1.34,3.83,2.45,7.74,3.53,11.65.48,1.75.65,3.58.91,5.39.61,4.24,1.23,8.48,1.78,12.73.57,4.33.94,8.7,1.64,13.01.73,4.47,1.77,8.88,2.65,13.32,1.04,5.23,2.42,10.4,2.61,15.78.06,1.74.45,3.49.41,5.22-.18,8.24-3.68,14.86-9.97,20.1-4.2,3.5-9.05,5.68-14.27,7.05-2.3.6-4.75.61-7.06,1.18-4.82,1.17-9.75,1.28-14.64,1.77-2.06.2-4.16-.06-6.23.05-4.41.24-8.73-.6-13.08-.98-4.59-.4-9.13-1.36-13.69-2.08-3.6-.57-7.2-1.08-10.77-1.78-1.78-.35-3.49-1.05-5.32-1.62-2.78,4.49-6.41,8.35-10.52,11.76-1.21,1.01-1.8,2.08-1.6,3.7.32,2.52.47,5.07.72,7.6.7,6.89,1.46,13.76,2.11,20.65.77,8.17,1.43,16.36,2.18,24.53.65,7.06,1.37,14.11,2.07,21.17.02.23.15.45.22.67h-1.92c-.14-2.38-.23-4.76-.43-7.14-.64-7.72-1.3-15.43-2-23.14-1.24-13.51-2.51-27.02-3.79-40.52-.15-1.55-.36-3.1-.57-4.8-.63.21-1.01.3-1.37.46-3.01,1.29-5.98,1.06-8.77-.5-1.73-.97-3.41-2.13-4.83-3.5-6.01-5.74-11.91-11.59-17.86-17.39-.59-.57-1.21-1.1-2.06-1.87-.38,1.61-.67,2.76-.91,3.92-1.21,5.83-1.79,11.66-.62,17.59.4,2.02.43,4.13.46,6.2.08,5.38-.77,10.67-1.75,15.93-2.18,11.77-5.25,23.37-6.7,35.29-.79,6.5-1.69,12.98-2.54,19.47h-.96c.17-1.67.27-3.34.51-5,1.38-9.48,2.62-18.98,4.25-28.42,1.48-8.57,3.51-17.05,5.06-25.61.69-3.83,1.07-7.77,1.11-11.66.04-3.25-.68-6.49-.95-9.75-.16-1.9-.3-3.85-.07-5.73.49-3.96,1.19-7.89,1.89-11.81.17-.94.24-1.67-.56-2.36-3.29-2.81-6.91-5.1-10.95-7.22-1.34,2.65-3.15,4.87-3.45,7.88-.84,8.42-1.89,16.82-2.62,25.24-.78,9.07-1.58,18.15-1.86,27.23-.38,12.3-.31,24.61-.37,36.92-.02,3.43.2,6.85.31,10.28h-1.44c.01-3.43,0-6.85.04-10.28.18-13.8.39-27.61.57-41.41,0-.4-.15-.8-.33-1.67-6.03,10.62-11.81,20.79-17.62,31.02,1.83,1.4,1.64,2.99.82,4.63-.46.93-.98,1.83-1.53,2.71-2.99,4.75-5.25,9.85-7.38,15.01h-.96Zm-99.63-67.9c.17.49.24.89.44,1.22,2.71,4.61,5.32,9.29,8.19,13.8,1.8,2.83,4.02,5.4,6.74,7.43,5.45,4.06,10.98,8.02,17.02,11.18,1.69.88,3.47,1.81,5.32,2.11,6.93,1.13,13.91,2.03,20.87,2.98.67.09,1.36.01,2.17.01.19-2.44.39-4.58.51-6.73.32-5.92-1.02-11.6-2.53-17.24-1.55-5.79-3.23-11.54-4.83-17.31-.21-.76-.76-1.55.05-2.77.39.97.71,1.58.89,2.22,1.77,6.31,3.52,12.62,5.28,18.93,1.62,5.82,2.46,11.72,2.09,17.78-.11,1.74-.23,3.47-.36,5.39,1.04.1,1.98.23,2.92.27,2.95.14,5.91.15,8.85.42,1.57.15,2.46-.31,3.31-1.64,7.2-11.34,14.47-22.63,21.72-33.93,3.24-5.05,6.46-10.1,9.72-15.13.32-.49.52-1.39,1.79-.93-11.03,17.2-21.97,34.26-33.01,51.47.67.23,1.09.46,1.54.51,1.9.21,3.83.25,5.72.58,1.64.28,2.63-.2,3.57-1.59,6.17-9.14,12.58-18.13,18.6-27.37,3.87-5.95,7.4-12.15,10.74-18.42,4.62-8.67,8.9-17.52,13.36-26.28,1.19-2.34,2.45-4.63,3.8-7.16-.92-.49-1.67-.9-2.43-1.28-10.54-5.24-21.53-9.41-32.75-12.92-5.46-1.71-10.67-3.91-15.5-6.91-4.54-2.83-9.02-5.78-13.28-9.01-9.56-7.25-17.81-15.76-24.46-25.81-4.59-6.94-6.78-14.57-7.16-22.8-.38-8.03.54-15.95,2.13-23.81,2.56-12.6,6.8-24.62,12.44-36.17,3.44-7.05,6.91-14.06,11.33-20.56,2-2.94,4.42-5.43,7.51-7.29,5.22-3.14,10.91-3.91,16.85-3.55.34.02.66.38,1.03.6-.22.24-.27.33-.33.34-.3.04-.61.1-.91.08-10.38-.6-18.93,2.62-24.35,11.98-3.24,5.6-6.39,11.26-9.29,17.04-4.41,8.8-8.16,17.87-10.75,27.4-2.84,10.46-4.78,21.01-4.64,31.91.12,9.54,2.67,18.22,8.18,26.1,7.19,10.28,16.05,18.83,26.16,26.15,8.33,6.04,17.2,10.95,27.16,13.95,11.34,3.41,22.31,7.84,32.86,13.27,6.15,3.16,11.85,6.94,16.58,12.08,2.43,2.65,5.06,5.11,7.62,7.65.5.49,1.05.92,1.64,1.43.74-.55,1.39-1.01,2-1.5,10.2-8.28,18.95-17.88,25.96-29,9.59-15.22,18.58-30.8,26.9-46.75,2.36-4.52,5.01-9.01,5.55-14.21.62-5.87.91-11.78,1.44-17.66.16-1.81-.6-2.82-2.14-3.54-4.01-1.86-8.17-3.23-12.5-4.09-.19-.04-.42.11-.39.1,1.06,3.39,2.28,6.67,3.12,10.05,1.22,4.92,1.2,8.89.19,10.5-.1-.59-.21-1.03-.25-1.47-.14-1.91-.15-3.84-.41-5.73-.69-5.2-2.1-10.14-5.2-14.52-1.13-1.59-2.33-2.28-4.34-2.25-8.15.12-16.31.1-24.47.03-3.59-.03-7.2-.1-10.76-.51-10.57-1.24-20.58-4.46-30.21-8.91-.41-.19-.73-.61-1.09-.92.63-.29,1.07-.22,1.47-.05,1.54.66,3.06,1.38,4.61,2.01,10.67,4.34,21.67,7.24,33.26,7.38,8.71.11,17.43.02,26.15.02.6,0,1.2-.07,2.11-.13-.74-.83-1.16-1.56-1.79-1.94-4.97-3.03-9.77-6.39-15.36-8.3-2.26-.77-4.58-1.56-6.58-2.82-3.1-1.96-6.08-4.17-8.85-6.56-2.09-1.81-3.85-4.02-5.65-6.14-1.54-1.8-2.94-3.72-4.34-5.52-.74.31-1.14.48-1.74.73-.95-3.85-2.94-6.46-6.76-6.4-.67.49-1.03.97-1.43,1-1.01.07-2.06.05-3.06-.12-5.91-1.01-11.84-1.97-17.86-1.6-6.53.4-13.05,1.06-19.57,1.61-1.3.11-2.6.21-3.9.32-.04-.17-.07-.34-.11-.51.46-.16.92-.42,1.39-.48,2.93-.39,5.86-.83,8.8-1.07,5.25-.43,10.52-1.13,15.77-.99,5.4.14,10.78,1.16,16.17,1.79.49.06.98.09,1.98.19-2.29-3.28-4.28-6.17-6.31-9.02-5.43-7.6-12.16-13.68-20.43-18.14-8.68-4.69-17.72-8.5-27.03-11.69-13.77-4.72-28.01-6.23-42.51-5.79-8.41.26-16.48,1.88-24.08,5.62-1.65.81-3.35,1.52-4.98,2.36-7.73,4-15.46,8.02-23.17,12.07-3.15,1.65-5.8,3.94-8.15,6.61-2.27,2.58-4.58,5.12-6.89,7.67-.39.43-.84.79-1.27,1.18-.12-.1-.25-.2-.37-.29.24-.43.41-.92.72-1.29,1.67-1.94,3.4-3.82,5.07-5.76,3.52-4.1,7.44-7.69,12.32-10.14,9.13-4.6,18.24-9.26,27.4-13.81,3.95-1.96,8.13-3.33,12.49-4.1,10.81-1.92,21.64-1.53,32.47-.18,9.4,1.17,18.49,3.54,27.31,7.02,8.56,3.38,17.01,6.98,24.85,11.85,3.54,2.2,6.86,4.67,9.78,7.69,4.35,4.51,8.12,9.46,11.61,14.63.44.64.92,1.47,1.56,1.72,1.59.62,3.28.95,5.36,1.51-4.22-8.89-8.31-17.29-14.07-24.73-.83-1.07-1.77-2.1-2.85-2.91-4.67-3.53-8.51-8.25-14.32-10.18-10.87-6.74-21.69-13.56-32.62-20.2-6.62-4.02-13.28-8.03-20.17-11.54-9.26-4.72-19.29-7.23-29.54-8.66-8.11-1.13-16.25-1.28-24.33.45-6.56,1.4-13.13,2.77-19.66,4.32-6.14,1.46-12.22,3.14-18.33,4.74-3.85,1.01-6.93,3.2-9.47,6.21-1.33,1.57-2.64,3.15-3.98,4.75.4.97.79,1.93,1.19,2.88,3.91,9.53,7.03,19.39,12.15,28.4.16.28.27.58.39.88,2.74,6.92,4.27,14.03,3.73,21.53-.28,3.9-.51,7.81-.63,11.73-.04,1.32.05,2.78.57,3.95,3.04,6.78,6.35,13.43,10.22,19.8,3.65,6.01,6.95,12.23,10.38,18.37.28.51.39,1.11.59,1.66-.17.08-.34.17-.51.25-1.72-2.33-2.78-5.06-4.22-7.57-1.47-2.56-2.85-5.18-4.35-7.73-1.45-2.48-3.06-4.88-4.49-7.37-1.47-2.56-2.83-5.19-4.21-7.8-1.35-2.55-2.41-5.25-4.03-7.67-.22.4-.27.72-.28,1.03-.18,7.91-.42,15.82-.52,23.73-.07,5.76-.1,11.52.1,17.27.28,7.74.78,15.48,1.22,23.21.36,6.38.66,12.77,1.17,19.14.85,10.51,1.78,21.01,2.82,31.5.52,5.24,1.12,10.5,2.13,15.66,2.09,10.72,5.92,20.89,10.45,30.8.25.56.64,1.06,1.03,1.69.86-.28,1.64-.45,2.35-.79,6.45-3.06,11.95-7.12,14.62-14.1.74-1.94,1.6-3.85,2.1-5.86.92-3.72,1.6-7.49,2.41-11.24.08-.39.33-.74.49-1.1.42.42.52.77.48,1.11-.79,6.88-2.44,13.52-5.58,19.73-1.58,3.12-3.77,5.7-6.59,7.8-3.02,2.24-6.12,4.31-9.8,5.51Zm115.92-366.42c0-2.14.09-4.06-.02-5.96-.16-2.58.55-4.9,1.85-7.07.57-.96,1.14-1.93,1.8-2.83,3.63-4.87,7.28-9.72,10.93-14.58.1-.13.19-.25.3-.37,1.85-2.14,3.9-2.68,6.43-1.45,1.35.66,2.66,1.5,3.77,2.51,2.66,2.41,5.15,5.02,7.8,7.46,2.87,2.64,5.53,5.53,9.13,7.31,2.47,1.22,4.86,1.22,7.07-.18,4.27-2.71,8.15-5.95,11.13-10.1,2.41-3.37,4.08-7.05,3.84-11.35-.05-.88-.06-1.77.04-2.64.79-6.23-.61-12.07-3.1-17.71-5.74-13.05-12.98-25.11-23.04-35.35-6.06-6.16-11.63-12.75-16.38-20.01-1.04-1.59-2.35-3.04-3.73-4.36-5.96-5.69-13.12-9.31-20.93-11.73-.81-.25-1.74-.22-2.6-.15-1.91.17-3.8.48-5.71.68-8.26.89-16.51,1.83-24.84,1.66-2.8-.06-5.6.03-8.39.12-5.5.17-10.78,1.21-15.65,3.94-1.53.86-3.16,1.54-4.73,2.33-5.61,2.83-11.48,4.74-17.7,5.76-5.43.89-10.81,2.12-16.2,3.29-6.58,1.43-12.97,3.37-18.83,6.87-3.65,2.18-6.4,5.01-7.91,8.98-.85,2.24-1.69,4.49-2.43,6.77-1.62,4.95-4.21,9.24-7.87,13-1.69,1.74-3.02,3.92-4.17,6.09-2.24,4.23-2.31,8.82-2.13,13.53.31,8.32.96,16.59,2.16,24.82.58,3.95,1.15,7.94,2.86,11.6,3.7,7.93,7.85,15.59,14.56,21.48,4.62,4.05,6.75,9.21,7.05,15.22.32,6.47,1.76,12.63,4.79,18.4,2.27,4.31,4.36,8.72,6.72,12.99,1.49,2.68,3.91,4.17,7.09,4.12,1.12-.02,2.25,0,3.35-.2,7.94-1.44,15.34-4.35,22.33-8.35,2.17-1.25,3.1-2.94,3.01-5.49-.2-5.35-.37-10.72-.18-16.06.14-3.73.7-7.47,1.45-11.13,1.25-6.12,5-10.43,10.56-13.16,2.36-1.16,4.8-2.17,7.21-3.24,2.58-1.15,4.9-2.6,6.87-4.7,2.58-2.75,5.87-4.13,9.66-4.06,2.39.04,4.77.35,7.16.49,2.01.11,3.73.88,5.17,2.24,1.62,1.54,3.35,3,4.75,4.73,1.49,1.85,3.26,2.88,5.56,3.34,2.58.52,5.1,1.33,7.65,1.99.75.19,1.52.33,2.49.53Zm88.35,225.25c.33,2.16.56,2.44,2.2,2.78.78.16,1.56.32,2.34.49,8.02,1.73,15.02,5.17,20.52,11.51,2.55,2.94,5.57,5.49,8.46,8.13,2.21,2.02,3.33,4.55,2.43,7.32-1.15,3.52.35,5.5,2.8,7.68,6.5,5.8,12.79,11.83,19.14,17.8.58.55,1.43.97,1.52,2.58-.99-.85-1.63-1.35-2.22-1.91-6.83-6.39-13.64-12.79-20.48-19.18-.54-.51-1.16-.92-1.99-1.57-.49,1.88-.83,3.35-1.26,4.8-1.02,3.44-1.8,6.98-3.18,10.27-4.93,11.73-10.58,23.11-17.11,34.03-4.76,7.96-9.7,15.81-14.5,23.73-1.85,3.06-3.57,6.2-5.47,9.53.81.21,1.47.43,2.14.56,5.81,1.06,11.62,2.2,17.45,3.11,5.2.81,10.43,1.57,15.68,1.97,11.14.86,22.18,0,33.11-2.37,6.39-1.39,12.26-3.71,16.64-8.79,1.71-1.99,3.13-4.23,4.69-6.36,2.17-2.96,2.9-6.32,2.98-9.92.13-5.31-.67-10.53-1.72-15.69-2.5-12.29-4.52-24.66-6.04-37.11-.79-6.49-1.46-13.03-3.56-19.29-4.44-13.18-9.13-26.27-14.88-38.95-9.51-20.96-19.09-41.88-28.55-62.86-2.89-6.41-5.44-12.96-8.21-19.42-1.17-2.73-.87-5.3.49-7.83.53-.98,1.08-1.98,1.77-2.84,1.95-2.43,3.91-4.85,5.98-7.17,6.43-7.2,13.64-13.49,22.14-18.16,2.72-1.5,5.58-2.76,8.42-4.03,2.66-1.19,4.62-2.97,5.73-5.76-.44-.16-.65-.29-.88-.31-9.53-.93-19.06-1.83-28.59-2.8-1.14-.12-2.1-.05-3.03.93-.15-1.55-.12-2.94-.01-4.32.38-5.08,1.55-9.88,4.28-14.3,3.07-4.96,5.62-10.23,7.49-15.78.5-1.49.8-3.1.87-4.67.13-2.97-1.39-4.96-4.13-6.1-2.05-.86-3.92-.45-5.71.63-2.32,1.4-4.01,3.42-5.32,5.74-2.7,4.81-5.32,9.66-8,14.48-3.52,6.34-7.96,11.93-13.38,16.8-3.74,3.36-7.32,6.93-10.7,10.65-2.19,2.4-4.26,5.05-5.76,7.91-3.12,5.94-6.06,11.93-10.22,17.29-3.71,4.79-5.11,10.43-4.08,16.52.29,1.73.6,3.46.89,5.19,1.53,9.14,3.12,18.27,4.55,27.42,1.61,10.26,3.09,20.53,4.59,30.8.99,6.8,1.75,13.63,2.96,20.39.76,4.22,2.28,8.3,3.22,12.49.46,2.06,1.21,3.54,3.47,3.98Zm-98.66-157.62c-.53-.74-.92-1.33-1.36-1.89-4.83-6.16-9.75-12.26-14.48-18.51-3.39-4.48-6.94-8.73-11.62-11.95-2.53-1.74-4.03-4.24-4.97-7.15-2.43-7.54-3.23-15.29-3.05-23.17.01-.65.07-1.31.13-2.38-.83.75-1.31,1.14-1.75,1.58-2.85,2.8-5.66,5.64-8.55,8.41-.97.93-2.05,1.79-3.2,2.5-1.14.71-2.48.47-3.06-.33-.75-1.05-.31-2.02.39-2.83.67-.78,1.46-1.48,2.26-2.13,4.79-3.87,9.6-7.69,14.38-11.57.85-.69,1.62-1.53,2.28-2.41,2.17-2.91,4.92-5.02,8.35-6.17,3.86-1.3,5.65-.72,8.18,2.44.43.54.96,1.17,1.56,1.36,2.89.87,5.82,1.6,8.73,2.38.09-.14.19-.27.28-.41-1.43-1.46-2.84-2.93-4.29-4.36-1.63-1.62-3.51-2.72-5.89-2.86-1.43-.08-2.85-.41-4.28-.51-4.41-.3-8.49.58-11.63,3.92-2.02,2.15-4.41,3.66-7.06,4.84-2.63,1.17-5.28,2.3-7.85,3.58-4.69,2.35-7.67,6.11-9.06,11.19-1.13,4.11-1.73,8.31-1.75,12.55-.02,4.71.07,9.44.41,14.13.28,3.87-1.26,6.44-4.62,8.12-.5.25-.96.57-1.46.83-5.35,2.73-10.9,4.99-16.75,6.41-4.19,1.02-8.44,2.03-12.55-.82-2.03,9.42-5.21,18.2-8.31,27.01-3.12,8.85-8,16.79-13.13,24.81.75.26,1.25.47,1.76.62,6.4,1.8,12.93,2.88,19.51,3.75,1.18.16,2.42.4,3.55.19,6.5-1.19,13.01-1.34,19.57-.71,11.63,1.13,22.87,3.82,33.4,8.9,5.89,2.84,11.47,6.33,17.19,9.52.79.44,1.59.87,2.65,1.45,0-1.49.12-2.54-.02-3.56-.63-4.6.12-9.08,1.13-13.53.34-1.48.77-2.95,1.35-4.34,1.17-2.82,2.45-3.35,5.36-2.75,2.07.43,4.08,1.49,6.45.92,0-2.38.15-4.76-.03-7.12-.5-6.69-1.15-13.36-1.72-20.04-.33-3.81.03-7.4,3.56-9.88Zm55.72,13.06c-.64,1.21-1.19,2.44-1.9,3.58-2.39,3.87-4.76,7.75-7.28,11.53-.68,1.01-1.27,1.97-1.54,3.16-1.02,4.44-2.04,8.87-3.12,13.29-1.77,7.24-3.71,14.43-8.26,20.53-2.86,3.84-5.88,7.56-8.91,11.26-1.55,1.89-3.28,3.62-4.88,5.37,3.41,2.75,6.58,5.42,9.87,7.94,3.88,2.96,7.02,6.56,9.38,10.78,3.46,6.2,6.89,12.44,9.96,18.84,1.73,3.6,4.58,6.02,7.23,9.01.4-.61.69-.97.91-1.37,1.29-2.39,2.58-4.78,3.86-7.18,4.08-7.64,7.5-15.52,9.15-24.09,1.79-9.33,3.72-18.63,5.52-27.96.99-5.14,2.51-10.22,1.92-15.57-.08-.77.15-1.59.31-2.36.79-3.82,2.39-7.35,4.81-10.34,3.67-4.53,6.28-9.61,8.72-14.83.26-.55.42-1.14.67-1.85-.77-.06-1.32-.11-1.87-.16-7.29-.64-14.5-1.8-20.92-5.5-4.23-2.45-8.84-3.04-13.61-4.08Zm-55.01-12.22c-1.99,1.46-3.2,3.1-3.15,5.37.08,3.83.16,7.66.43,11.47.37,5.17.93,10.33,1.37,15.5.14,1.67.19,3.35.22,5.02.03,2.35,1.26,3.58,3.47,4.21,5.05,1.45,10.13,1.39,15.16.21,8.28-1.94,15.74-5.69,22.57-10.72,2.78-2.04,5.3-4.29,7.2-7.25,3.55-5.53,6.54-11.35,9.23-17.33.35-.78.58-1.69.61-2.54.09-3.75.48-7.55.04-11.25-.74-6.17-1.98-12.28-3.12-18.4-.46-2.46-1.22-4.87-1.84-7.31-.7.58-.9,1.25-1.26,1.8-1.04,1.59-2.06,3.2-3.27,4.66-.74.89-1.84,1.84-3.12,1.08-1.16-.69-.84-2-.6-3.07.4-1.79.96-3.54,1.42-5.32.13-.49.15-1,.28-1.88-2.05,1.42-3.47.74-5.03-.36-1.41-1-3.06-1.73-4.69-2.34-1.51-.57-3.14-.65-4.66.13-2.1,1.08-3.84,2.55-4.94,4.77,1.33,2.05,3.71,3.14,4.89,5.27-.12.13-.24.27-.36.4-1.67-1.45-3.34-2.9-5.09-4.41-1.03,1.96-.98,3.78-.89,5.62.16,3.19.46,6.38.42,9.56-.07,5.81-2.79,9.87-8.43,11.75-.76.25-1.5.57-2.28.73-2.58.51-5.17,1-7.77,1.42-2.16.35-4.13,1.03-5.72,2.57,1.16,2.34,3.35,3.86,4.24,6.22-.15.12-.31.23-.46.35-1.58-1.92-3.16-3.84-4.87-5.93Zm-14.1-69.35c-1.37-2.45-2.53-4.81-3.96-7-1.19-1.83-2.98-2.47-5.23-1.86-6.19,1.68-10.32,5.42-11.38,11.84-.51,3.11-.42,6.36-.32,9.54.18,5.44,1.09,10.79,2.78,15.98.94,2.88,2.39,5.37,4.92,7.17,3.32,2.36,6.6,4.77,9.88,7.18.51.37,1.32.58,1.17,1.67-.8-.28-1.46-.51-2.6-.9,6.54,8.33,12.73,16.23,19.01,24.23,2.9-2.14,6.08-2.74,9.36-3.17,3.49-.46,6.9-1.29,10-3.1,2.05-1.19,3.52-2.86,3.97-5.16.44-2.25.64-4.56.73-6.85.19-4.5-1.41-9.06.67-13.59-.79-.71-1.52-1.33-2.21-1.98-4.13-3.89-8.25-7.78-12.37-11.68-7.26-6.85-14.51-13.71-21.8-20.53-.77-.72-1.77-1.21-2.63-1.79Zm130.93,236.51c-.31,5.07-.52,9.54-.87,13.99-.35,4.31-1.02,8.57-2.92,12.53-1.18,2.45-2.33,4.9-3.58,7.32-7.11,13.78-15.05,27.09-22.93,40.43-8.3,14.05-18.56,26.36-31.39,36.48-.17.13-.25.37-.36.54,1.98,2.59,8.65,8.83,11.12,10.17,1.38.75,2.91,1.32,4.44,1.69,2.31.55,4.48-.15,6.28-1.6,5.97-4.79,11.08-10.36,15.04-16.93,3.26-5.4,6.26-10.97,9.67-16.27,8.52-13.26,16.25-26.94,22.87-41.25,2.72-5.87,5.35-11.77,6.46-18.23.39-2.24,1.17-4.42,1.83-6.6,1.4-4.64.66-6.97-3.02-10.12-1.93-1.66-3.7-3.52-5.51-5.33-1.53-1.52-2.99-3.11-4.53-4.62-.71-.7-1.53-1.29-2.6-2.19Zm-75.02-135.58c-.21.08-.45.12-.62.26-4.86,3.86-10.24,6.75-16.02,8.98-7.29,2.82-14.68,4.19-22.47,2.21-2.23-.57-3.9-1.66-5.33-3.36-.49-.59-1.06-1.28-1.73-1.53-1.71-.62-3.49-1.18-5.28-1.47-2.08-.34-3,.24-3.57,2.29-.85,3.07-1.77,6.17-2.09,9.31-.35,3.47,0,7.01-.09,10.52-.03,1.24.5,1.86,1.46,2.46,8.49,5.25,16.94,10.56,25.43,15.8,2.01,1.24,4.14,2.3,5.98,3.31,14.89-13.08,22.97-29.25,24.32-48.79Zm133.37-16.23c4.52.56,9.04.72,13.58.39.62-.04,1.3-.22,1.81-.56,4.05-2.73,7.52-5.85,8.65-10.97,1.5-6.79,2.81-13.61,3.42-20.54.44-4.94.6-9.88-.02-14.83-.51-4.03-1.74-7.78-4.01-11.16-.99-1.47-2.3-2.48-4.09-2.65-3.57-.35-7.16-.61-10.74-.9-.26-.02-.52.07-1.16.17,1.67.93,3.04,1.58,4.27,2.41,2.41,1.63,2.4,2.8-.16,4.11-2.96,1.51-6.04,2.78-9.46,4.32,0,.91-.06,2.16,0,3.41.37,6.79.71,13.59-.66,20.31-.88,4.3-2.16,8.51-3.11,12.79-.36,1.62-.43,3.33-.39,4.99.05,1.8.63,2.32,2.38,2.81,1.08.3,2.17.56,3.21.96.95.37,1.97.78,2.13,2.19-1.36,1.88-3.93,1.32-5.67,2.74Zm-97.25,47.02c-.19,0-.38,0-.57,0-.52,2.36-1.08,4.71-1.56,7.08-2.09,10.16-4.16,20.32-6.23,30.49-1.14,5.6-3.76,10.66-5.86,15.89-1.39,3.45-3.64,6.55-5.49,9.81-1.32,2.34-1.28,3.89.45,5.91,1.34,1.57,2.8,3.08,4.39,4.39,2.15,1.78,4.54,3.27,6.72,5.01,2.23,1.78,4.74,2.89,7.41,3.8,2.03.69,4.06,1.46,5.96,2.45,2.69,1.39,5.26,3.02,7.89,4.54.51.29,1.04.55,1.76.94-.08-.59-.08-.91-.17-1.2-2.65-8.5-3.77-17.29-4.86-26.09-.94-7.52-1.97-15.03-3.13-22.52-1.91-12.22-3.96-24.42-5.96-36.63-.21-1.3-.5-2.58-.75-3.87Zm33.63-62.06c.83-.84,1.39-1.36,1.9-1.92,4.39-4.93,7.52-10.69,10.81-16.36,1.71-2.95,2.35-6.04,2.45-9.35.19-6.01.03-11.98-1.34-17.87-.4-1.71-.07-3.21,1.41-4.26,1.16-.83,2.38-1.57,3.61-2.28.62-.35,1.36-.49,1.99-.83,1.32-.71,1.82-1.99,1.95-3.37.12-1.3-1.01-1.68-1.9-2.2-.48-.28-.99-.51-1.49-.77-7.34-3.87-15.36-5.02-23.43-6.38-5.83-.99-10.05,1.19-14.31,4.27-.56.4-1.02.95-1.47,1.38.54,1.96,1.87,2.98,3.31,3.87,2.17,1.34,4.57,1.84,7.1,1.82,4.36-.03,7.33,2.04,8.74,6.13.64,1.87,1.22,3.84,1.34,5.79.34,5.83.03,11.67-.78,17.45-1.13,8.12-1.26,16.22.12,24.9Zm-87.28,267.18c-.45.63-.72.91-.89,1.25-3.33,6.55-6.8,13.03-9.92,19.67-2.52,5.36-5.19,10.63-8.45,15.56-7.27,10.99-14.69,21.88-22.04,32.81-.42.63-.83,1.27-1.35,2.06,6.78,1.42,13.23,2.77,19.66,4.12.29-.38.52-.61.67-.88,6-10.55,12.01-21.09,17.98-31.66.41-.73.63-1.63.7-2.47.26-2.78.35-5.58.61-8.36.97-10.56,1.99-21.11,3.03-32.09Zm-13.36-335.51c.76.23,1.59.49,2.43.72,5.32,1.43,10.65,2.85,15.97,4.27,3.24.87,6.47,1.78,9.72,2.59.62.15,1.65.19,1.95-.17,2.17-2.64,4.68-5.16,4.73-8.9.07-5.27.08-10.53.03-15.8,0-.62-.42-1.37-.88-1.82-3.12-3.09-6.26-6.18-9.49-9.16-1.34-1.23-2.83-2.36-4.42-3.26-2.45-1.39-4.41-.88-6.09,1.34-3.42,4.53-6.67,9.19-10.26,13.57-4.04,4.93-4.73,10.46-3.7,16.62ZM21.91,362.56c-.34,3.91-.14,7.68,1.38,11.27.75,1.76,1.34,3.59,2,5.39,5.21,14.28,11.09,28.25,18.56,41.52,6.78,12.04,13.45,24.15,20.18,36.22.34.61.5,1.44,1.44,1.71.03-.41.09-.65.05-.88-1.49-8.49-2.95-16.98-4.52-25.46-.9-4.87-1.94-9.7-3.87-14.31-5.13-12.24-11.88-23.54-19.86-34.08-5.16-6.82-10.61-13.41-14.92-20.82-.12-.2-.29-.37-.44-.55ZM240.29,124.52c0,1.64.74,2.5,1.63,3.34,12.16,11.46,24.3,22.93,36.46,34.39.61.58,1.28,1.09,1.98,1.68.54-.66.94-1.15,1.35-1.63,3.79-4.35,7.25-4.99,12.34-2.3.35.19.7.39,1.04.6,1.01.63,2.02,1.26,3.09,1.92.95-.44,1.87-.86,2.88-1.33-.32-.96-.53-1.72-.84-2.44-1.48-3.54-3-7.06-4.49-10.59-1.21-2.86-2.52-5.71-1.16-9.03-9.65-2.59-19.09-5.12-28.7-7.7-.12,2.6-.18,4.82-.33,7.05-.09,1.36-.32,2.71-2.08,3.45-.95-.9-2-1.74-2.87-2.74-2.97-3.45-5.86-6.97-8.81-10.44-.46-.54-.94-1.26-1.55-1.44-3.25-1-6.54-1.85-9.95-2.79Zm116.6,81.74c.19-.59.31-.81.33-1.03.65-6.75,1.3-13.49,1.92-20.24.81-8.81,1.63-17.62,2.36-26.44.15-1.85.73-3.77-.15-5.56-5.68-1.04-12.77-1.38-15.91-.74-1.03,17.73-2.37,35.49-3.19,53.53,5.05.17,9.8.33,14.65.49Zm75.64,3.26c-.58-.19-1.15-.42-1.74-.57-2.77-.71-3.71-1.82-3.81-4.68-.03-.79.02-1.6.17-2.38.37-1.96.66-3.95,1.27-5.84,2.92-9.03,3.7-18.27,2.88-27.68-.12-1.43-.17-2.88-.07-4.3.08-1.14.58-2.01,1.86-2.48,2.9-1.07,5.72-2.35,8.58-3.54.44-.18.87-.37,1.59-.68-3.38-2.75-6.59-3.91-9.85-4.95-.37-.12-.93.38-1.4.58-.55.23-1.1.65-1.64.64-3.19-.07-6.38-.24-9.56-.39-1.79-.08-3.59-.18-5.65-.28.28.75.41,1.2.61,1.61,2.06,4.22,3,8.7,3.39,13.37.5,5.93.03,11.82-.65,17.68-.95,8.27-3.32,16.09-8.19,23-.25.35-.35.8-.62,1.42,5.25.34,10.26.65,15.26,1,2.59.18,5.07-.31,7.57-1.5Zm-121.93.05c2.91.57,5.5,1,8.05,1.61.98.23,1.66.02,2.41-.54,2.24-1.67,4.51-3.31,6.8-4.9.82-.57,1.08-1.22,1.08-2.21,0-2.64-.04-5.29.22-7.9.98-10.01,2.06-20,3.1-30,.26-2.53.52-5.05.8-7.86-1.47-.25-2.79-.44-4.09-.71-1.45-.3-2.34.24-3.14,1.49-1.37,2.15-2.78,4.32-4.47,6.21-2.82,3.15-5.81,6.16-8.87,9.09-1.32,1.27-1.67,2.47-1.25,4.24,1.65,6.94,2.49,13.98,2.14,21.14-.14,2.82-.39,5.56-1.84,8.07-.35.61-.56,1.3-.97,2.28Zm42.82-76.84c-.04-.18-.08-.37-.12-.55-2.71-.11-5.41-.32-8.11-.29-1.58.02-3.15.4-4.72.67-1.43.24-2.27,1.08-2.42,2.56-.05.48-.13.95-.25,1.42-.73,2.86-2.08,4.02-5.05,4.22-1.43.1-2.88.04-4.32.05-2.29.02-2.58.1-2.79,2.3-.32,3.25-.43,6.53-.48,9.8-.02.97.47,1.95.69,2.82,2.5.25,4.71.48,6.9.7,1.01-2.57,1.72-3.04,4.49-2.87.8.05,1.58.18,2.38.27,1.47.17,2.95.33,4.41.49.12-.48.2-.7.22-.93.27-2.51.37-2.69,2.96-2.58,3.75.15,7.49.43,11.23.72,4.38.34,4.8.88,4.33,5.31,0,.08-.03.16-.03.24-.56,6.12-1.12,12.24-1.69,18.37-.75,8.03-1.52,16.06-2.27,24.1-.2,2.1-.32,4.21-.48,6.32,2.51-1.78,4.68-3.74,6.73-5.82.36-.36.4-1.19.35-1.78-.15-1.99-.45-3.97-.61-5.95-.35-4.38-.41-8.75.04-13.16.69-6.83,1.15-13.68,1.53-20.54.17-3.05-.52-6.02-1.84-8.83-1.2-2.55-3.07-4.01-5.91-4.2-1.19-.08-2.39-.2-3.58-.31-2.71-.25-5.11-1.27-7.13-3.09-2.9-2.63-2.84-3.87.37-6.11,1.68-1.18,3.45-2.22,5.18-3.33Zm-235.4,97.11c-2.24,2.56-4.21,5.09-6.48,7.32-2.11,2.07-3.09,4.38-2.89,7.28.05.63-.06,1.27-.09,1.91-1.41-1.58-.84-3.34-.96-5.44-1.41,1.13-2.58,2.05-3.72,3-2.82,2.34-2.81,3.15.04,5.55.12.1.24.21.37.31,3.23,2.56,6.87,4.72,8.51,9.28,1.4-1.78,2.48-3.16,3.66-4.66-1.26-.54-2.24-.88-3.15-1.36-1.48-.78-2.96-1.58-4.36-2.49-.67-.43-1.42-1.02-.97-2.34,2.22,2.59,5.17,3.59,8,4.83,1.04.46,1.74.27,2.55-.5,1.1-1.03,2.24-2.14,3.57-2.77,2.3-1.08,4.7-2.06,7.16-2.67,9.45-2.34,18.94-4.51,28.42-6.74.86-.2,1.71-.41,2.56-.61-2.89-.87-5.72-1.3-8.53-1.87-3.13-.63-6.22-1.44-9.35-2.08-1.2-.25-2.81.18-3.58-.47-1.3-1.12-2.77-1.06-4.17-1.42-5.48-1.4-11.22-1.69-16.6-4.06Zm-70.06,62.04c.09.25.11.42.21.54.41.49.84.96,1.27,1.43,5.28,5.75,9.84,11.95,12.56,19.36.91,2.47,1.86,4.93,2.81,7.38.18.46.47.88.76,1.42.32-.34.51-.49.63-.69,3.4-5.31,6.78-10.64,10.21-15.93.68-1.04.77-2.12.49-3.2-.74-2.85-1.36-5.76-2.44-8.49-2.67-6.72-8.48-10.01-14.46-13.05-4.16,3.88-8.11,7.57-12.04,11.23Zm281.97-87.43c2.9.89,8.99,1.39,11.17.94.49-8.22.96-16.5,1.48-24.78.52-8.32,1.17-16.64,1.62-25.13-3.5-.28-6.64-1.4-9.79-.44-.49,4.72-.97,9.16-1.41,13.61-1.03,10.41-2.07,20.81-3.06,31.22-.14,1.49-.02,3-.02,4.58Zm58.39-38.66c.76-.5,1.4-.95,2.07-1.36,2.75-1.67,5.45-1.55,8.07.29,2.8,1.96,3.77,4.73,3.12,7.97-.42,2.1-1.06,4.21-1.98,6.13-2.29,4.82-4.71,9.59-7.25,14.29-2.45,4.54-3.24,9.41-3.57,14.61,1.87.21,3.5.4,5.09.58,1.28-2.2,2.43-4.2,3.6-6.19,2.57-4.36,4.65-8.96,5.55-13.95.94-5.25,1.73-10.55,2.1-15.87.36-5.12-.26-10.27-2.47-14.98-3.05-6.49-2.32-5.17-8.1-5.36-3.11-.1-5.79,1.31-8.41,2.05.74,4.06,1.43,7.79,2.16,11.78Zm13.19-13.28c.32.67.54,1.24.84,1.78,2.32,4.12,3.53,8.57,3.74,13.25.41,9.02-.78,17.83-3.63,26.42-1.35,4.06-3.56,7.66-5.65,11.34-.53.93-.95,1.92-1.55,3.14,2.34.26,4.31.43,6.26.71,1.34.2,2.2-.19,2.97-1.38,2.09-3.24,3.86-6.61,5.1-10.26,1.92-5.64,2.88-11.46,3.23-17.37.32-5.33.58-10.69-.33-16.01-.61-3.57-1.61-7.01-3.44-10.15-.34-.58-.93-1.36-1.45-1.4-1.95-.17-3.93-.07-6.1-.07Zm-80.2,59.23c.12.37.12.48.17.51,7.57,4.82,16.09,6.28,24.82,6.93.49.04,1.15-.44,1.52-.86,2.83-3.24,5.61-6.52,8.38-9.81.26-.31.4-.73.73-1.35-1.58,0-2.85.05-4.12,0-6.36-.27-12.75-.33-19.08-.96-3.06-.31-5.52,0-7.8,2.11-1.43,1.32-3.13,2.35-4.63,3.44Zm83.5-2.45q3.37.67,4.99-1.73c2.51-3.74,4.36-7.78,5.63-12.1,2.68-9.08,3.06-18.39,2.67-27.74-.18-4.4-1.25-8.68-3.27-12.66-1.28-2.52-1.69-2.69-4.84-1.95.22.52.4,1.03.63,1.51,1.83,3.78,2.79,7.78,3.22,11.95.7,6.8.18,13.56-.69,20.29-.86,6.7-2.75,13.11-6.23,18.97-.64,1.09-1.32,2.16-2.12,3.46Zm52.35-49.01c.21.77.39,1.46.57,2.15,1.18,4.44,1.57,8.96,1.4,13.53-.24,6.4-1.04,12.73-2.23,19.01-.89,4.69-1.5,9.49-4.11,13.67-.04.07.09.25.21.57,2.12-.4,3.48-1.72,4.4-3.58,3.52-7.12,6.42-14.41,7.28-22.42.78-7.23-.52-13.98-3.82-20.4-.33-.64-.72-1.25-1.17-1.81-.57-.71-1.25-1.26-2.52-.72Zm-133.23-13.68c-3.53,3.16-6.95,6.13-10.23,9.23-.77.73-1.29,1.85-1.62,2.88-.87,2.65-1.56,5.37-2.34,8.05-.73,2.52.11,4.81.94,7.55,5.47-5.56,11.22-10.39,14.83-17.23-2.41-3.07-.86-6.84-1.57-10.47Zm-15.16-3.46c-.78,2.06-1.52,3.82-2.12,5.62-1.52,4.54-2.99,9.09-4.46,13.64-.66,2.05-1.34,4.1-1.89,6.17-.29,1.1-.73,2.26.04,3.74.98-.79,2.05-1.32,2.61-2.18,1.02-1.59,2.01-3.29,2.52-5.08,1.59-5.51,2.94-11.08,4.39-16.63.34-1.31.7-2.62,1.03-3.93.05-.21-.02-.46-.04-.83-.58-.15-1.16-.29-2.07-.52Zm-165.43,84.72l-.35-.5c-7.75.67-15.55.61-23.33,1.76,6.37,2.39,13.1,3,19.72,4.79,1.38-2.12,2.67-4.09,3.95-6.05Zm158.75-68.38c1.85-5.65,3.62-11.06,5.45-16.67-3.61-.97-7.14-1.91-10.67-2.85-.98-.26-1.45.21-1.76,1.11-.45,1.34.07,2.48.53,3.78.52-.15.96-.29,1.4-.39,3.25-.78,6.17,1.3,6.4,4.64.07,1.1,0,2.25-.26,3.32-.39,1.53-.98,3.02-1.58,4.49-.35.86-.7,1.62.48,2.58Zm-38.18-18.48c1.03-3.61.91-6.68.78-9.89-3.92-1.03-7.69-2.01-11.46-3-.08.16-.16.32-.24.47,3.49,4.04,6.49,8.52,10.92,12.41Zm119.15,31.78c2.41-3.12,4.77-6.16,3.64-10.61-.64-2.51-.75-5.15-2.07-7.53-.89.14-1.65.26-2.33.37.26,5.97.5,11.81.76,17.78Zm-82.49-16.23c.51-1.13.84-1.68,1.01-2.27.29-.99.62-1.99.67-3.01.06-1.23.01-2.53-.3-3.71-.35-1.36-1.6-1.92-2.89-2.18-1.13-.23-2.21-.13-2.89,1.17,1.38,3.15,2.78,6.32,4.39,10Zm-80.75-26.9c-.69.16-.86.15-.97.23-4.73,3.78-9.47,7.55-14.18,11.36-.54.44-.99,1.05-1.34,1.65-.15.26-.1.84.1,1.07.2.22.79.36,1.05.23.91-.47,1.87-.96,2.59-1.66,3.95-3.83,7.84-7.72,11.74-11.59.27-.27.47-.6,1.01-1.29Zm-74.18,93.55c-4.77,1.08-9.48,1.72-13.94,3.54,3.37.03,6.7-.18,10.04-.33,2.76-.13,2.83-.16,3.9-3.21Zm278.5-11.07c1.61,1.5,2.92.64,4.23,0h-4.23Z"/>
  <path class="cls-1" d="m118.31,564.15c-.14-13.43-.37-26.85-.39-40.28,0-6.95.12-13.91.63-20.84.81-10.99,2-21.95,3.02-32.92.26-2.78.49-5.57.76-8.35.1-.98.28-1.95.43-2.92.23.01.46.02.69.03.01.8.1,1.61.02,2.4-.5,5.25-1.06,10.49-1.55,15.74-.64,6.76-1.2,13.52-1.87,20.27-1.59,15.95-.86,31.94-.95,47.92-.04,6.31.11,12.63.17,18.94h-.96Z"/>
</svg>