<?xml version="1.0" encoding="UTF-8"?>
<svg id="Kids" xmlns="http://www.w3.org/2000/svg" viewBox="0 0 288.26 381.24">
  <defs>
    <style>
      .cls-1 {
        stroke-width: .75px;
      }

      .cls-1, .cls-2 {
        fill: none;
        stroke: #1d1d1b;
        stroke-miterlimit: 10;
      }

      .cls-2 {
        stroke-width: .5px;
      }
    </style>
  </defs>
  <g>
    <path class="cls-2" d="m96.54,72.07s-.71-.46-1.84-1.58-2.78-3.51-4.11-6.29c-1.33-2.78-2.12-6.43-2.39-10.2-.27-3.78.86-9.08,2.85-11.66,1.99-2.58,6.03-5.7,9.61-6.43,3.58-.73,6.56,0,6.56,0,0,0,.73.4,2.09.4s4.21-.33,6.46,1.06,4.51,4.9,5.96,7.29c1.46,2.39,1.72,5.9,1.99,8.02.27,2.12.53,4.64.46,5.63s-.07,2.25-.99,1.59-1.86-1.13-2.52-.4-2.19,3.38-3.58,5.3-4.37,5.5-6.82,6.56-6.29,1.66-6.29,1.66"/>
    <path class="cls-2" d="m98.54,69.29s-.86.6-1.26,0-.46-1.33.33-1.46,1.39-.6,2.98,0,1.19,1.79.73,1.46-2.78,0-2.78,0Z"/>
    <path class="cls-2" d="m116.96,84.99s1.66,1.71,3.38,2.08,2.92.37,2.92.37"/>
    <line class="cls-2" x1="96.9" y1="89.77" x2="94.76" y2="91.02"/>
    <path class="cls-2" d="m120.34,87.07s-1.06-2.61-1.19-3.93.2-1.92,1.19-3.11,2.05-3.11,2.52-4.57.46-2.52,0-3.58-1.92-3.51-2.75-5.17-1.11-3.13-1.24-4.58"/>
    <path class="cls-2" d="m122.82,47.26s1.76,6.6,2.03,9.97c.27,3.38.53,4.11.8,5.7s.73,4.24.73,6.63-.97,5.5-1.78,7.55-1.07,2.85-2.46,3.98-3.01,1.59-3.01,1.59"/>
    <path class="cls-2" d="m119.32,61.43s.62,4.28,2.15,6.1,2.05,2.68,2.25,4.07.47,2.32.47,2.32l1.56-.35"/>
    <path class="cls-2" d="m122.53,59.46s-1.2-.77-1.5.42-.89,3.25,0,5.43c.89,2.19,1.65,2.45,2.17,2.22s.58-1.29.58-1.29"/>
    <path class="cls-2" d="m98.08,94.4s-1.66-.33-2.79-.86-1.51-1.46-1.38-1.92,1.38-.9,1.38-.9"/>
    <path class="cls-2" d="m103.84,95s5.23-.2,8.81-1.52,5.22-2.69,7.91-4.36c2.69-1.67,2.62-1.89,4.01-2.04s1.92-.29,2.72.37,2.12-.41,3.25-.37,2.52.11,3.51-.42,2.98-.07,3.58,0,1.92.46,2.92.8,1.39.6,2.58.66,1.52,1.19,2.25,1.99,6.56,5.37,8.02,5.96,2.25.33,3.91.99c1.66.66,2.72,1.86,3.64,2.65s2.25,2.78,2.32,5.1-1.33,4.11-1.33,5.7-.86,3.25-1.13,4.24-.2,2.19-1.79,4.37-1.52,2.92-3.45,3.71-3.25.8-3.98,0-2.85-.33-5.37-.99c-2.52-.66-4.84-1.13-5.57-1.52"/>
    <path class="cls-2" d="m92.58,91.88s-5.1-.24-6.69.68-4.31,3.56-4.51,6.02.13,4.31.73,6.63,2.52,6.36,2.65,7.88.87,3.91,2.19,7.09c1.32,3.18,4.43,10.14,5.63,12.12s2.12,6.43,2.82,9.11.6,5.57,0,7.06-2.09,4.77-2.09,7.75-.6,4.07-.8,5.96c-.2,1.89-1.09,3.98-2.09,8.55-.99,4.57-3.08,11.83-3.18,14.21s-1.49,7.95-1.59,10.04c-.1,2.09-1.09,3.68.99,5.07,2.09,1.39,11.93,3.48,15.4,3.88,3.48.4,6.76,0,10.73,1.19s9.24,3.48,14.41,4.27c5.17.8,15.8,1.39,20.77,0,4.97-1.39,5.76-2.68,5.96-4.57s.1-2.88-.5-4.97c-.6-2.09.4-1.79-.4-4.17s-.5-3.38-.89-8.15-1.09-14.71-1.69-21.07c-.6-6.36-1.59-15.6-2.09-20.27-.5-4.67-2.19-15.5-2.78-18.68-.6-3.18-.9-6.06-.9-6.06"/>
    <path class="cls-2" d="m144.32,90.4s-.93,2.35-1.39,6.06-2.19,13.45-2.58,15.37-.07,3.25,0,4.51"/>
    <path class="cls-2" d="m156.84,99.44s-3.05,5.3-5.1,7.09-4.57,2.78-6.36,3.58"/>
    <path class="cls-2" d="m159.29,99.44s2.19,2.8,1.72,5.47c-.46,2.68-.73,5.53-1.72,7.18-.99,1.66-1.13,4.51-2.45,5.9s-2.78,3.18-4.24,3.18"/>
    <path class="cls-2" d="m95.56,90.56s-1.19.17-1.82.47-1.19.99-1.46,1.72-.23,2.09,1.99,3.21,3.98,1.23,3.98,1.23"/>
    <path class="cls-2" d="m104.24,97.71s4.41-.13,8.58-1.46c4.17-1.33,8.1-4.04,9.72-5.23s2.44-2.22,2.94-2.75,1.22-1.2,1.22-1.2"/>
    <path class="cls-2" d="m100.1,105.07s-1.16-.27-1.42.17-.27,1.26.71,1.26,1.87.03,2.67,0,.86-.73.83-1.06-.53-.46-1.16-.45-1.62.08-1.62.08Z"/>
    <path class="cls-2" d="m99.13,106.47s-1.95,5.56-2.35,7.28-.73,3.41-1.56,4.64-.96,2.85-1.39,4.01-.13,1.29.5,2.25,1.08.73,2.05,1.13,2.19-.76,3.22-.6,1.39-.3,2.45-.76,1.46.27,2.15-1.76.99-4.01.3-7.75c-.7-3.74-2.26-8.44-2.26-8.44"/>
    <path class="cls-2" d="m102.28,105.02s.7-2.87.73-3.91"/>
    <path class="cls-2" d="m98.52,103.51s-1.08-.36-.61-1.66c0,0-.46-.76,1.09-1.42s2.91-1.86,3.64-2.98,1.2-2.45,1.2-2.45"/>
    <path class="cls-2" d="m99.01,100.43s-1.06-2.45-.48-4.01,1.04-3.34,1.94-4.57,1.33-1.89,1.46-2.46.96,1.13,1.33,1.62.2,1.26.32,2.19c.06.5.26,1.02.26,1.5,0,.3-.08.62-.11.92,0,0,.66,2.75.4,3.71s-.73,1.95-2.19,2.19-3.45,1.76-3.4,1.99.51,1.51.51,1.51"/>
    <path class="cls-2" d="m98.52,96.42s-1.21-3.57-1.44-4.57-.53-2.22.3-3.45,2.8-2.88,3.44-3.91.7-2.45.6-3.74-.6-3.25-.6-3.25c0,0-1.55.96-2.58,2.78s-1.79,3.38-1.59,4.7c.2,1.33.53,2.68.84,3.26"/>
    <path class="cls-2" d="m101.92,89.4s0-1.86-.19-3-.54-2.73-.54-2.73"/>
    <path class="cls-2" d="m103.56,93.21s.88-.28,1.07-2.49.42-3.74-.54-4.8-2.8-2.63-2.8-2.63"/>
    <path class="cls-2" d="m98.08,69.56s-1.36,2.12-1.72,2.98-1.04,2.78-1.15,4.27.52,2.55,1.08,3.31,1.41,1.17,1.41,1.17"/>
    <path class="cls-2" d="m100.82,77.51s1.76.6,2.89,2.05c1.13,1.46,1.36,3.51,1.36,4.87s-.34,2.81-.34,2.81"/>
    <path class="cls-2" d="m101.56,69.32s2.01,2.62,2.61,4.38c.6,1.76.61,3.11.64,4.14s-.57,2.57-.57,2.57"/>
    <path class="cls-2" d="m123.2,48.93s.61-2.92,1.44-4.12,1.82-1.42,2.58-1.69,1.29-.3,1.56,0,.5,1.16-.3,1.62c0,0-2.25.76-2.37,1.66s.35,2.75.78,4.07,1.62,5.4,1.62,5.4"/>
    <path class="cls-2" d="m161.31,113.34s5.54-.85,5.64-4.68.05-6.06-1.34-10.68-6.11-15.8-7.65-19.23c-1.54-3.43-2.78-7.4-2.93-8s-.2-.89-.2-.89"/>
    <path class="cls-2" d="m154.42,68.51s-.99-1.04-1.04-2.63.4-5.91.52-7.95c.12-2.04.47-4.07,0-4.52s-1.41-1.34-2.16-1.79-1.49-.8-2.29-1.54-1.04-1.39-1.49-2.53-1.14-2.83-2.43-4.02-2.34-1.54-3.58-1.84-1.74-.25-2.09,0-1.04.62,0,1.23,2.83,2.05,3.33,2.94.75,1.74,1.29,3.03.75,2.83.45,4.37-.94,2.73-1.79,3.13-1.14.4-1.54-.1-.69-.76-.66-1.57c0,0,.1-1.82,0-2.75s-1.03-1.42-1.33-1.36-.73.27-.93.96-.17.99-.76,1.46-.93,1.13-.66,2.32,2.05,4.9,3.01,6.63,2.15,3.21,2.92,3.98,1.36,1.69,1.59,2.48,2.62,6.53,3.28,9.21c.66,2.68,1.59,7.09,2.02,9.04s1.18,8.05,1.18,8.05"/>
    <path class="cls-2" d="m125.75,86.95s1.3-6.41,1.79-8.5,1.74-6.11,2.48-7.16,2.09-2.43,2.63-4.32c.55-1.89.7-3.83.7-3.83"/>
    <line class="cls-2" x1="128.49" y1="44.75" x2="140.36" y2="43.23"/>
    <line class="cls-2" x1="126.37" y1="45.93" x2="141.39" y2="43.99"/>
    <path class="cls-2" d="m127.13,55.21s1.13.89,1.91.83,1.74-.03,2.04.33.56.89-.2,1.66-1.46.73-2.09.93l-.63.2"/>
    <line class="cls-2" x1="137.94" y1="57.19" x2="130.87" y2="58.03"/>
    <path class="cls-2" d="m136.81,58.15s1,2.16.36,3.65c-.64,1.49-.9,1.69-1.5,2.12s-1.03-.07-1.09-.33-.18-.76-.18-.76"/>
    <path class="cls-2" d="m132.26,57.86s-.83.56-1.06,1.13.17,1.06.53,1.13,1.19-.04,2.39-.9c1.19-.86,1.63-1.77,1.63-1.77"/>
    <path class="cls-2" d="m136.5,57.36s.46,1.37,0,2.46-.81,1.61-1.45,2.31-1.59,1.17-2.42,1.46-1.69.23-2.15-.45-.17-1.44,1.16-1.9,2.33-1.28,2.77-2.25"/>
    <ellipse class="cls-2" cx="142.5" cy="50.23" rx=".8" ry="1.21" transform="translate(-3.71 12.13) rotate(-4.81)"/>
    <path class="cls-2" d="m99.87,69.16s.15,4.07.49,5.44.83,3.06.83,3.06"/>
    <path class="cls-2" d="m123.07,214.01s9.53,20.05,10.65,23.09c1.13,3.05,3.38,10.47,4.44,12.39s4.51,8.08,5.37,9.01,2.25,5.57,2.58,7.88c.33,2.32,1.39,11.79,2.25,15.04.86,3.25,5.17,12.39,6.63,15.17,1.46,2.78,5.23,12.06,6.1,13.78s2.12,5.57,2.12,5.57"/>
    <path class="cls-2" d="m174.93,311.05s-3.71-18.88-4.11-22.13c-.4-3.25-2.78-15.7-3.98-20.01-1.19-4.31-3.11-9.54-4.17-14.24-1.06-4.7-4.37-14.97-4.84-18.82-.46-3.84-4.41-29.4-4.41-29.4"/>
    <path class="cls-2" d="m106.49,317.36s-.26-.82-.66-2.81c-.4-1.99-1.46-4.31-2.39-7.29-.93-2.98-4.84-16.56-5.9-22.53-1.06-5.96-.86-15.97-.8-20.34.07-4.37,2.45-11.59,2.45-13.45s.27-7.75-.86-12.85c-1.13-5.1-6.63-29.69-6.63-29.69l-1.18-4.23"/>
    <path class="cls-2" d="m86.36,199.83s-.6,2.17.59,2.96,9.81,3.51,13.18,3.38,6.44-1.99,6.44-1.99"/>
    <path class="cls-2" d="m114.24,205.57s1.06,3.72,1.19,4.64,1.19,2.44,4.7,3.31c3.51.86,11.93,1.26,17.95.66,6.03-.6,10.6-2.5,12.72-3.97s2.36-3.39,2.36-3.39"/>
    <path class="cls-2" d="m122.33,213.92s-2.32,24.98-3.05,29.28c-.73,4.31-1.33,8.02-1.33,10.07s-.66,9.81-.86,12.72c-.2,2.92-.4,14.11-.6,17.56-.2,3.45-.93,14.31-.53,17.62.4,3.31,1.69,11.91,1.69,11.91"/>
    <path class="cls-2" d="m101.56,325.06s.5-1.64,1.69-2.78,2.73-2.24,4.77-.84c2.04,1.39,4.82,4.07,6.51,4.57s3.03.14,4.32-2.61,1.39-4.34,2.83-4.54,4.57-.4,6.31.5,2.53,2.24,2.73,5.07c.2,2.83-.15,5.27-1.29,6.56s-2.48,2.09-4.22,2.53-5.42,1.04-6.36,1.79-1.09,2.58-2.29,4.57-2.98,3.28-3.98,3.73-4.47.2-5.96,0-4.32-.84-5.86-2.14-2.46-2.93-2.35-3.63,1.75-3.18,2.15-4.27.4-2.68.55-5.22.45-3.28.45-3.28Z"/>
    <path class="cls-2" d="m100.3,334.14s1.95-1.48,3.54-1.04,4.72,2.58,5.81,2.98,3.23-.4,4.62-1.89,2.93-2.73,6.26-3.58c3.33-.84,7.75-2.68,8.7-3.73s1.49-2.48,1.49-2.48"/>
    <path class="cls-2" d="m98.61,338.72s4.69,1.04,6.58,2.24,4.22,1.99,5.66,2.04,2.47-.01,3.52-.58"/>
    <path class="cls-2" d="m105.06,321s-.02-4.24,0-5.53.22-2.9.22-2.9"/>
    <path class="cls-2" d="m117.39,310.87s1.51.63.27,2.22-3.08,3.33-5.17,4.12c-2.09.8-4.32.7-5.42.45s-1.29-1.49-1.04-2.09"/>
    <path class="cls-2" d="m118.14,311.94s1.55,5.13,1.95,5.89.78,1.37.78,1.37"/>
    <path class="cls-2" d="m175.58,310.75s1.65,0,2.74,1.69.89,4.02.99,5.32.35,2.14,1.74,2.34,1.69.3,3.43,1.19,3.68,2.14,5.57,2.58,6.01.05,7.3.84,2.68,3.08,3.13,6.66c.45,3.58-1.29,5.52-2.19,6.76-.89,1.24-3.88,2.53-6.31,2.68s-5.37.55-7.55,1.14-6.16,2.78-9.51,2.98-9.62-1.09-12.65-2.09c-3.03-.99-3.23-2.78-3.13-3.83s.94-2.34,2.09-4.52.8-3.78.89-4.82.6-5.42.75-6.61.99-1.79,2.04-1.49,2.34,1.04,2.34,1.04c0,0,3.23,3.23,4.57,4.07,1.34.84,3.38,1.89,4.62.65s2.39-3.48,2.29-4.77c-.1-1.29-.45-2.73-.55-3.58s-.5-1.59-.5-1.59c0,0-.5-.94-1.04-2.39s-.7-3.73-1.14-4.47-.61.24-.99,1.09-.94.94-2.68,1.84-7.25,2.68-8.15,2.47-1.34-.03-.89.86,1.2,4.76,1.2,4.76"/>
    <path class="cls-2" d="m161.52,333.87s1.57-.76,2.65-.17,4.11,3.53,5.65,3.68c0,0,3.43.15,5.66-1.14s4.87-1.59,8.79-1.29,8.25.75,11.23-.6c2.98-1.34,3.08-1.89,3.78-2.93s.73-2.37.73-2.37"/>
    <path class="cls-2" d="m159.25,340.29s2.39-.63,3.95.61,5.07,3.39,5.07,3.39"/>
    <path class="cls-2" d="m180.59,319.98s-1.87,1.02-1.9,2.21"/>
    <path class="cls-2" d="m163.05,322.43s1.46.04,2.66.88c1.19.84,3.68,3.98,5.81,4.97s4.62.7,5.47.3,1.69-1.79,2.34-3.33.42-2.6,1.45-3.07c1.03-.46,1.58-1.89,1.1-1.97"/>
    <path class="cls-2" d="m93.63,161.08s5.93,4.67,7.42,5.57"/>
    <path class="cls-2" d="m100.07,163.37s5.57,1.19,8.35,3.28c2.78,2.09,3.98,3.68,6.66,4.97s3.98,1.59,5.76,3.28"/>
    <path class="cls-2" d="m114.24,166.05s8.08-.5,9.77-.7c1.69-.2,1.39-.7,2.58-.7"/>
    <path class="cls-2" d="m85.53,196.06s10.06,4.18,13.93,4.18,11.06,1.55,14.77,2.76,13.75,3.1,20.5,3.45c6.76.35,11.33.38,14.41-.88s4.86-2.57,4.86-2.57"/>
    <path class="cls-2" d="m92.17,63.76s3.89,1.95,5.45,4.07"/>
    <path class="cls-2" d="m100.6,67.84s1.42-2.09,3.57-2.87"/>
  </g>
  <path class="cls-1" d="m96.96,37.35s-2.29,1.32-3.52,2.49-2.87,2.78-3.5,4.4-1.77,5.23-1.77,7.07.08,4.58.54,6.72,1.52,5.9,2.91,8.13,2.13,3.4,2.93,4.17,2.08,1.97,2.08,1.97c0,0-1.43,2.81-1.43,3.83s-.18,2.04.53,3.11,1.97,2.06,1.97,2.06c0,0-1.27,2.13-1.07,3.38s.87,3.58.87,3.58c0,0-.47.55-.53,1.03s-.13.84-.13.84c0,0-1.6.4-2.35.65s-1.56.89-1.56.89c0,0-.69.19-.99.2s-2.87-.05-3.77,0-2.41.59-3.38,1.48-2.69,2.74-3.19,4.23-.42,3.34-.27,3.96.74,3.85,1.81,6.67,1.42,3.63,1.54,4.37.73,3.76,1.61,5.93,5.34,12.06,6.58,14.33,2.73,8.77,2.86,10.27.51,3.26-.33,5.36-1.56,4.01-1.76,5.1-.17,3.44-.5,5.16-.52,3.62-1.04,5.52-2.65,10.59-2.65,10.59c0,0-1.6,6.3-1.86,7.78s-.5,4.01-.79,5.58-1.03,6.29-1.21,7.49-.21,2.37-.06,3.13.82,1.02.82,1.02c0,0-.23,1.15-.15,1.53s-.04.89.53,1.25,3.8,1.56,3.8,1.56c0,0,1.56,5.92,1.89,7.41s3.45,15.45,3.45,15.45c0,0,2.38,10.38,2.64,11.9s.69,5.23.7,7.53.18,4.43-.52,7.37-1.34,5.51-1.58,7.18-.48,5.7-.42,9.83.18,7.84.31,9.32.72,5.78,1.35,8.4,2.28,9.01,3.21,12.26,3.1,9.97,3.32,10.61.39,1.14.39,1.14c0,0-.23,4.62-.23,5.81s.01,2.62.01,2.62c0,0-1.52.42-2.4,1.93s-1.24,2.07-1.39,3.52-.18,3.84-.36,5.17-.49,2.34-1.16,3.54-1.54,1.77-1.34,2.66.59,2.09,1.71,3.04,3.28,2.27,5.53,2.56,4.43.5,5.35.41,1.61-.24,2.88-1.2,1.76-.86,2.68-2.78,1.32-3.81,2.04-4.32,2.53-1.12,4.47-1.55,5.05-.93,6.36-3.02,1.34-2.9,1.29-5.02.3-3.84-.95-5.07-2.39-1.93-3.45-2.05-2.82-.17-3.58-.1-1.87.24-1.87.24c0,0-.44-.05-.98-1.61s-1.02-2.86-1.4-4.28-.52-1.86-.81-2.04-.46-.86-.6-1.82-1.25-8.55-1.23-10.68.41-10.64.57-13.66.47-13.53.47-13.53l.68-11.58s.38-7.52.57-9.05,1.21-7.62,1.51-10.25,1.41-13.32,1.41-13.32l1.27-13.22h.74l4.88,10.45s5.08,10.71,5.9,13.09,2.24,6.71,2.82,8.32,1.09,3.02,2.17,4.94,3.05,5.37,3.71,6.37,1.33,1.53,1.94,3.31,1.35,3.88,1.98,8.75,1.31,10.87,2.16,13.15,4.14,9.87,5.25,12.08,5.91,13.09,5.91,13.09l2.65,6.27.76,2.13s-.76,0-.43.93.99,3.41.99,3.41l.21,1.35s-.99.54-1.1,1.5-.48,5.57-.75,6.61.17,2.25-.36,3.54-1.95,3.75-2.24,4.55-.65,2.66.48,3.78,4.71,2.1,7.2,2.54,5.85,1.13,7.73.84,3.38-.64,6.12-1.71,5.38-1.87,8.8-2.23,6-.67,7.59-2.07,2.92-3.31,3.11-5.36-.23-3.28-.7-5.06-1.51-3.08-2.35-3.69-2.67-.62-4.12-.68-2.99.06-4.61-.68-3.39-1.77-4.67-2.37-2.9-.77-3.52-1.1-1.21-.64-1.27-2.23.06-2.27-.38-3.93-1.71-2.6-2.19-2.78-1.96-.76-1.96-.76c0,0-3.3-17.16-3.94-21.2s-1.89-10.95-2.64-14.33-1.87-7.65-2.67-10.18-2.7-8.71-3.39-12-2.03-6.99-2.92-10.52-1.23-5.21-1.77-8.9-2.32-15.49-2.32-15.49l-1.69-11s.3-.36.42-1.47.32-2.31-.06-3.83-.81-2.64-.64-3.28.13-1.47-.14-2.41-.58-3.23-.69-5.12-1.23-16.3-1.23-16.3l-1.15-12.8-1.06-10.18-1.61-13.09-1.91-11.59-.7-5.15s1.28.42,2.38.58,3.41.22,3.91.46.88,1.06,2.2.95,2.79-.48,3.86-1.48,1.28-1.78,1.89-2.68,1.27-1.72,1.54-2.93,1.02-3.03,1.02-3.03c0,0,1.42-.2,2.47-.81s2.09-1.26,2.65-2.39.5-4.3.37-5.33-.7-5.01-1.71-7.84-5.37-13.67-5.37-13.67c0,0-3.15-7.29-3.76-9.07s-1.24-4.99-1.72-5.67-1.07-1.6-1.05-2.74.33-5.31.51-7.62.24-4.14.11-4.61-1.67-1.58-2.25-1.92-1.96-1.07-2.48-1.74-1.19-2.36-1.77-3.49-1.59-2.41-2.29-3.16-1.42-1.12-2.7-1.41-1.99-.51-2.4-.26-.85.38-.77.68,1.04.99,1.04.99l-11.33,1.52s-.2,0-.1-.45.06-1.13-.22-1.38-1.67-.23-2.34.32-1.45.8-1.95,1.96-1.21,3.58-1.21,3.58c0,0-.62-1.91-.97-3.17s-1.27-1.98-2.1-3.47-2.96-3.78-3.66-4.28-1.85-1.26-3.21-1.42-3.23-.1-3.95-.14-.96-.21-2.09-.4-3.21-.47-4.34-.32-3.03.45-3.95.84-1.97.93-1.97.93Z"/>
  <path class="cls-1" d="m137.94,57.19s2.58,6.19,4.12,7.45,2.03,1.94,2.73,3.79,2.33,6.06,2.77,7.48,1.5,6.02,2.05,8.53,1.4,8.15,1.4,8.15l.28,2.14s-1.63-1.12-3.28-2.45-2.54-2.11-3.14-2.88-1.07-1.22-1.72-1.29-1.53-.33-2.58-.66-3.59-1.04-4.65-1.03-1.78.3-2.34.44-2.12-.03-2.42.1-1.27.36-1.96.49-1.05.16-1.57,0-1.77-.91-1.77-.91l.53-2.6s1.59-7.41,2.29-9.33.93-2.65,2-4.12,1.77-2.08,2.17-4.08.52-2.99.52-2.99l1.07-.58s-.04,1.07.56,1.26,1.46-.04,1.74-.95.94-2.07.81-3.01-.81-1.71-.81-1.71l-.2-1.06,1.44-.17Z"/>
</svg>