<?xml version="1.0" encoding="UTF-8"?>
<svg id="SKHLMC" xmlns="http://www.w3.org/2000/svg" viewBox="0 0 288.26 381.24">
  <defs>
    <style>
      .cls-1 {
        fill: #010101;
        stroke-width: 0px;
      }
    </style>
  </defs>
  <g id="Others-2" data-name="Others">
    <g>
      <path class="cls-1" d="m164.38,301.53c-.18-4.91-.6-9.79-1.44-14.63-.75-4.33-1.48-8.65-2.23-12.98-.06-.34-.14-.7-.23-1.13-1.04-.26-2.1-.53-3.16-.77-4.59-1.1-9.18-2.16-13.76-3.31-5.55-1.39-11.08-2.83-16.45-4.81-1.76-.65-3.52-1.29-5.38-1.97-.11.35-.23.68-.31,1-.82,3.98-1.66,7.97-2.45,11.95-.89,4.53-1.72,9.07-2.58,13.6-.05.27-.16.53-.29.95-.34-.48-.18-.81-.12-1.13.49-2.6.97-5.21,1.47-7.8.96-4.91,1.9-9.83,2.88-14.73.26-1.33.59-2.64.91-4.02-.66-.26-1.31-.52-2.04-.8-.3,1.14-.58,2.2-.85,3.25-2.33,9.1-4.66,18.21-7.01,27.31-.54,2.09-1.13,4.18-1.78,6.25-.4,1.29-.96,2.53-1.46,3.79h-.39c.18-.51.34-1.03.56-1.53,1.14-2.66,1.79-5.45,2.52-8.23,1.93-7.3,3.78-14.62,5.66-21.93.69-2.68,1.37-5.38,2.04-8.07.08-.31.23-.62,0-1.07-.21.44-.32.78-.52,1.07-.52.74-1.04,1.47-1.62,2.15-.46.53-1.06.95-1.51,1.49-.97,1.18-2.05,2.27-2.68,3.74-2.16,5.08-4.38,10.14-6.62,15.18-2.48,5.61-4.9,11.24-7.79,16.67-.09.16-.11.35-.16.53h-.58c1.1-2.23,2.26-4.43,3.3-6.69,2.43-5.32,4.8-10.67,7.17-16.01,1.13-2.54,2.24-5.09,3.34-7.63.14-.32.26-.64.25-1.08-.17.18-.37.34-.53.54-1.73,2.36-3.84,4.36-5.98,6.32-.47.43-1.03.77-1.58,1.1-.43.26-.86.21-1.2-.23-1.43-1.86-3.33-3.24-5.02-4.83-3.14-2.98-6.36-5.87-9.42-8.94-1.91-1.92-3.6-4.06-5.32-6.16-3.27-4-6.49-8.04-9.72-12.07-.22-.27-.39-.56-.63-.91.45-.14.55.12.7.31,3.38,4.2,6.74,8.43,10.14,12.62,2.13,2.64,4.28,5.26,6.73,7.62,2.31,2.22,4.65,4.38,7.04,6.63.3-.28.53-.48.75-.7,3.87-4.17,7.71-8.37,11.61-12.51,2.99-3.18,6.08-6.26,9.07-9.43,3.7-3.94,7.32-7.93,10.99-11.88,2.35-2.53,4.74-5.03,7.11-7.56.96-1.03,1.93-2.07,2.98-3.2-.45-.23-.75-.39-1.05-.53-5.66-2.5-10.78-5.85-15.44-9.92-.1-.09-.22-.15-.29-.26-.75-1.16-1.85-1.1-3.01-.92-3.1.51-6.1,1.39-9.04,2.53-4.25,1.66-8.3,3.75-12.24,6.07-.21.12-.43.21-.74.35.35-.76.91-1.11,7.26-4.35,2.5-1.28,5.1-2.35,7.76-3.29,2.68-.94,5.44-1.58,8.36-1.92-.17-.25-.24-.39-.34-.5-2.88-3.14-5.7-6.36-9.02-9.07-1.16-.94-2.33-1.85-3.58-2.65-2.45-1.54-5.2-2.24-8.01-2.78-3.77-.72-7.58-.81-11.4-.52-3.78.29-7.5.98-10.95,2.69-2.88,1.42-5.05,3.66-6.9,6.25-2.16,3.02-3.75,6.32-5.02,9.81-.1.28-.09.65-.46.8-.19-1.12,2.08-6.23,4.22-9.52,1.94-2.99,4.25-5.62,7.47-7.49-.23-.25-.41-.45-.59-.66-.91-1.09-1.9-2.12-2.71-3.28-1.51-2.14-1.7-4.56-1.17-7.06.27-1.23.63-2.44.96-3.65.08-.27.16-.53.27-.89-1.24.06-2.39.22-3.48.62-.85.32-1.68.68-2.47,1.11-1.88,1.01-3.17,2.44-3.87,4.59-1.47,4.58-3.16,9.09-4.82,13.61-.65,1.76-1.34,3.49-1.74,5.33-.44,2.05-.38,4.12-.24,6.17.4,5.87,2.03,11.5,3.49,17.16,1.19,4.66,2.39,9.32,3.79,13.93,1.06,3.49,2.39,6.9,3.69,10.31,2.1,5.53,4.3,11.01,6.94,16.32,1.49,2.99,3.38,5.64,5.84,7.91,1.9,1.76,3.72,3.59,5.54,5.43,1.02,1.03,2,2.11,2.67,3.43.52,1.02.68,2.05.38,3.19-.38,1.45-.88,2.85-1.8,4.05-.36.48-.8.89-1.2,1.34-.06-.04-.12-.09-.18-.12.06-.14.09-.32.18-.42,1.29-1.3,2.03-2.89,2.49-4.64.32-1.21.25-2.35-.4-3.46-.92-1.54-2.13-2.81-3.59-4.16-.13,1.04-.28,1.88-.34,2.73-.29,3.34-.54,6.7-.8,10.04-.03.32,0,.64.02.96h-.58c.19-2.73.37-5.47.58-8.21.12-1.67.26-3.34.42-5.02.08-.81-.22-1.41-.81-1.97-1.28-1.18-2.49-2.45-3.77-3.63-2.12-1.96-3.65-4.34-4.95-6.9-2.46-4.84-4.54-9.85-6.45-14.93-1.45-3.87-3.05-7.7-4.24-11.64-1.64-5.44-3-10.96-4.43-16.45-.73-2.78-1.4-5.57-2.04-8.37-.81-3.54-1.25-7.13-1.04-10.77.07-1.05-.1-2.06-.43-3.06-.94-2.77-1.29-5.66-1.75-8.53-.6-3.78-.62-7.59-.66-11.41-.07-5.66-.2-11.31-.29-16.97-.05-3.5.04-6.97.52-10.45.72-5.23,2.83-9.7,6.78-13.25.41-.36.78-.78,1.21-1.12.63-.5,1.11-1.04,1.2-1.89.08-.64.57-1.1,1.09-1.42.97-.63,1.99-1.19,3-1.78.42-.24.86-.43,1.39-.7-.3-.79-.55-1.55-.85-2.28-1.34-3.32-2.76-6.62-3.73-10.08-.57-2.03-.85-4.12-.91-6.22-.14-5.09.45-10.11,1.4-15.12,1-5.29,3.27-9.98,6.15-14.42,1.48-2.28,3.56-4.01,5.82-5.49,3.05-1.99,6.26-3.65,9.93-4.17,1.5-.22,3.01-.37,4.53-.48,2.58-.18,5.17-.28,7.75,0,5.55.61,11.15.88,16.58,2.3,1.17.31,2.32.76,3.47,1.17.88.32,1.75.66,2.59,1.05,1.66.77,3.32,1.56,4.96,2.41,1.23.64,2.4,1.39,3.38,2.39.31.32.71.53,1.07.79.11.08.22.13.3.24.32.44.56.93.93,1.32.68.71,1.12,1.59,1.75,2.29.91,1.02,1.29,2.34,2.17,3.38.38.45.43,1.18.66,1.78.53,1.34,1.11,2.66,1.61,4.01.22.6.22,1.28.46,1.87.76,1.94.71,3.96.7,5.98,0,.84-.07,1.69,0,2.52.07.75-.2,1.31-.72,1.81-.23.22-.43.47-.7.76.8,1.1,1.65,2.16,1.6,3.61.31.02.49.03.68.06.5.06.77-.14.93-.63.16-.53.36-1.04.62-1.52.44-.84,1.56-1.23,2.42-.88.43.17.6.53.67.98.23,1.6.07,3.14-.33,4.69-.29,1.12-.47,2.26-.78,3.37-.32,1.11-.79,2.18-1.14,3.29-.13.42-.17.9-.1,1.33.09.5.31.97.53,1.43.72,1.5,1,3.09,1.22,4.73.22,1.6.06,3.21.15,4.81.06.97-.21,1.98-.3,2.96-.21,2.26-.93,4.38-1.76,6.49-.48,1.2-1.2,2.19-1.93,3.2-1.09,1.52-2.17,3.06-3.37,4.49-1.01,1.2-2.16,2.31-3.31,3.38-1.16,1.06-2.59,1.68-4,2.33-.23.11-.5.15-.75.16-.64.04-1.31.12-1.93.03-1.83-.28-3.6.03-5.38.39-1.07.22-2.16.39-3.3.6-.4,1.05-.84,2.09-1.19,3.16-.26.76-.11.98.69,1.12,1.62.27,3.26.48,4.88.75.53.09,1.05.26,1.58.4.15.04.31.13.46.14,3.1.22,5.98,1.21,8.72,2.61,2.47,1.26,4.97,2.5,7.35,3.93,1.6.96,3.09,2.13,4.51,3.35,2.18,1.87,4.63,3.29,7.08,4.72.86.51,1.76.96,2.62,1.46.24.13.55.37.58.59.1.78.68.87,1.23,1,1.1.27,2.21.48,3.3.76,4.94,1.28,9.87,2.56,14.81,3.86,1.71.45,3.41.96,5.03,1.42.75-.73,1.49-1.36,2.14-2.06,1.81-1.99,3.64-3.95,5.32-6.03,1.21-1.5,2.29-3.13,3.24-4.81,1.89-3.34,3.67-6.75,5.44-10.16,1.43-2.75,2.53-5.66,3.59-8.57,1.26-3.46,2.44-6.94,3.8-10.35,1.34-3.35,2.87-6.64,4.32-9.94,1.4-3.19,2.88-6.35,4.22-9.57,1.16-2.78,1.62-5.77,2.43-8.66,1.08-3.89,2.17-7.77,3.31-11.63.36-1.23.88-2.44,1.46-3.58.4-.79.91-1.6,1.56-2.2,1.06-.98,2.21-1.9,3.42-2.67,1.64-1.04,3.55-1.31,5.46-1.42.37-.02.76.11,1.12.26.84.34,1.2,1.33.6,2.07-.36.45-.7.93-1.04,1.39.42.24,2.11.55,2.49.43.2-.07.39-.21.55-.36.73-.64,1.45-1.29,2.17-1.94.95-.86,2.01-1.37,3.32-1.33.89.02,1.45.42,1.85,1.16.51.93.61,1.96.32,2.9-.29.94-.09,1.76.19,2.58.66,1.98.74,4.03.8,6.08.02.57.1,1.15.15,1.78.19.02.37.07.55.06,2.25-.15,4.06.88,5.72,2.23.68.54,1.26,1.2,1.83,1.86.7.8.82,1.75.39,2.71-.4.91-1.21,1.24-2.46,1.09-1.18-.14-2.36-.34-3.55-.45-.53-.05-1.09.05-1.69.09v2.81c.84.24,1.7.48,2.57.72,1.85.52,3.58,1.22,4.98,2.65.75.75.76,2.57.21,3.35-.33.48-.95.52-1.5.47-.41-.04-.81-.18-1.22-.29-.31-.08-.61-.14-1.06-.26.05.41.04.7.11.96.28.91,0,1.64-.64,2.29-.27.28-.53.56-.83.81-2.27,1.94-3.91,4.36-5.38,6.92-1.03,1.8-1.77,3.73-2.49,5.66-.86,2.28-1.8,4.55-2.61,6.85-.75,2.14-1.92,4.06-2.96,6.05-.59,1.12-1.4,2.1-2.41,2.88-1.88,1.46-3.24,3.31-4.25,5.45-.71,1.48-1.45,2.95-2.2,4.42-.17.34-.42.65-.57.99-.14.33-.22.71-.3,1.06-.09.36-.11.75-.22,1.11-.48,1.67-.97,3.33-1.46,5.01-.41,1.39-.83,2.78-1.21,4.17-.48,1.77-.93,3.53-1.39,5.3-.53,2.03-1.05,4.05-1.58,6.08-.44,1.68-.99,3.33-1.28,5.04-.31,1.82-1.12,3.5-1.39,5.3-.31,1.92-1.09,3.7-1.47,5.59-.12.59-.18,1.21-.36,1.79-.42,1.35-.99,2.67-1.31,4.03-.44,1.88-1.23,3.64-1.77,5.48-.11.4-.15.81-.26,1.21-.09.33-.18.68-.32.99-.26.62-.57,1.22-.8,1.86-1.05,2.98-2.07,5.97-3.12,8.94-.64,1.79-1.33,3.55-2,5.34-.58,1.55-.89,3.22-1.98,4.54.04,1.2-.68,2.17-1.01,3.26-.37,1.18-.87,2.34-1.31,3.51-.41,1.12-.79,2.24-1.22,3.35-.95,2.45-1.92,4.88-3.56,6.95-1.36,1.71-3.12,2.79-5.31,3.31-1.55.36-3.1.63-4.66.6-1.5-.03-3.02-.24-4.5-.51-3.24-.58-6.46-1.24-9.69-1.89-2.46-.5-4.93-1.01-7.54-1.56.06.44.1.81.15,1.17.77,4.49,1.58,8.97,2.32,13.46.36,2.19.65,4.39.94,6.59.11.83.04,1.68.15,2.51.21,1.6.11,3.2.25,4.8-.24-.02-.43-.02-.62-.02Zm8.02-51.98c-2.18-3.16-3.51-6.68-4.25-10.38-.53-.19-.98-.34-1.42-.53-2.09-.93-4.16-1.92-6.29-2.8-2.15-.89-4.35-1.65-6.52-2.47-.24-.09-.6-.13-.69-.31-.32-.62-.92-.67-1.44-.87-.78-.3-1.58-.59-2.36-.88-1.27-.46-2.54-.91-3.85-1.38-.56.69-1.11,1.32-1.61,1.99-2.03,2.68-4.02,5.39-6.06,8.06-2.67,3.5-5.41,6.94-8.51,10.06-2.19,2.2-4.46,4.31-6.69,6.48-1.2,1.17-2.37,2.38-3.63,3.66.3.2.53.43.8.53,3.52,1.3,7.01,2.65,10.57,3.85,5.97,2.03,12.11,3.44,18.23,4.94,4.07,1,8.18,1.88,12.28,2.79,6.33,1.41,12.65,2.92,19.1,3.73,2.57.32,5.14.4,7.69-.27,1.54-.4,2.87-1.15,4-2.24,1.5-1.44,2.46-3.22,3.21-5.13.45-1.15.88-2.28,1.32-3.43,1.55-4.03,3.13-8.05,4.63-12.1,3.15-8.47,6.28-16.96,8.86-25.63.95-3.19,2.05-6.33,2.89-9.55,2.02-7.72,3.9-15.47,5.88-23.19,1.1-4.28,2.15-8.57,3.84-12.67.4-.98.86-1.95,1.36-2.89.7-1.35,1.39-2.7,2.21-3.97.5-.77,1.15-1.49,1.84-2.1,1.52-1.33,2.94-2.75,3.91-4.52.93-1.7,1.76-3.46,2.47-5.25,1.08-2.69,1.98-5.46,3.05-8.17.67-1.68,1.4-3.34,2.28-4.91,1.57-2.82,3.64-5.25,6.1-7.35.47-.4.55-.84.45-1.38-.05-.25-.13-.5-.22-.75-.31-.82-.5-1.01-1.37-.85-1.07.2-2.16.45-3.16.86-2.15.9-4.24,1.91-6.35,2.88-.27.12-.5.41-1.02.16.35-.23.59-.42.86-.54,1.93-.92,3.84-1.85,5.8-2.7,2.43-1.06,4.91-1.58,7.54-.68.34.12.77.08,1.15.03.45-.05.81-.33.88-.78.11-.77.11-1.57-.56-2.15-.36-.32-.72-.66-1.12-.93-1.79-1.18-3.84-1.65-5.88-2.11-.78-.18-1.58-.32-2.39-.09-2.46.69-4.92,1.36-7.37,2.04-.18.05-.38.13-.51.27-.56.59-1.26.18-1.92.27.24-.22.5-.37.78-.45.89-.25,1.63-.74,2.37-1.27,1.69-1.24,3.39-2.48,5.15-3.63.63-.41,1.4-.66,2.15-.81.84-.17,1.73-.24,2.6-.21,1.48.05,2.96.18,4.44.32.6.06,1.16.04,1.6-.45.67-.74.71-1.62-.02-2.44-.67-.75-1.35-1.51-2.14-2.11-1.54-1.17-3.2-2.12-5.24-1.89-1.12.12-2.24.32-3.33.57-2.67.6-5.12,1.79-7.47,3.15-2.48,1.44-4.97,2.9-7.45,4.36-.25.14-.48.43-.99.23.28-.22.44-.39.64-.51,1.47-.88,2.95-1.74,4.41-2.64.34-.21.67-.52.88-.85,1.52-2.36,2.99-4.77,4.53-7.12,1.32-2.02,2.92-3.78,4.79-5.31.37-.31.75-.63,1.06-.99,1.06-1.26,1.51-2.99.7-4.5-.28-.51-.63-.89-1.28-.88-1.1.02-2.11.3-2.96,1.02-1.19,1.03-2.4,2.06-3.56,3.14-3.73,3.46-7.05,7.27-10.1,11.33-1.05,1.39-2.03,2.85-2.99,4.3-1.29,1.94-2.48,3.94-3.81,5.85-1,1.44-1.67,2.98-1.83,4.73-.43,4.55-1.33,9-2.37,13.44-1.44,6.16-3.51,12.09-6.31,17.77-1.72,3.48-3.28,7.03-4.35,10.78-1.4,4.92-3.21,9.69-5.28,14.36-1.95,4.4-3.83,8.84-5.92,13.17-3.1,6.44-6.71,12.61-10.81,18.47-2.38,3.39-4.78,6.76-7.19,10.12-.63.87-1.2,1.82-2.36,2.14.64,3.65,2.12,6.93,3.72,10.17Zm-41.56-142.09c.53.51.33,1.09.32,1.6-.09,3.13-.14,6.27-.7,9.36-.11.63.12.99.75,1.15.43.11.9.16,1.34.11,1.26-.14,2.5-.22,3.76,0,1,.17,1.81-.47,1.84-1.48.11-2.81.13-5.6-.69-8.35-1.47-4.95-3.4-9.64-6.95-13.49-.98-1.06-2.02-2.14-3.23-2.9-2.03-1.3-4.18-2.46-6.37-3.48-1.93-.9-3.93-1.74-5.98-2.22-3.17-.74-6.41-1.17-9.63-1.65-1.62-.24-3.29-.21-4.91-.47-2.27-.35-4.56-.48-6.85-.46-.77,0-1.55.09-2.32.11-4.55.16-8.91.94-12.87,3.37-2.37,1.46-4.72,2.92-6.62,5.02-1.12,1.23-1.89,2.69-2.74,4.1-2.03,3.31-3.39,6.9-4.25,10.66-.43,1.85-.74,3.74-1,5.63-.57,4.03-.95,8.09-.44,12.16.23,1.85.49,3.74,1.08,5.49,1.07,3.21,2.4,6.34,3.61,9.5.18.48.43.96.5,1.46.18,1.51.88,2.67,2.15,3.5.78.52,1.55,1.06,2.27,1.64,1.26,1,2.02,2.25,1.82,3.95-.04.35-.02.71,0,1.07.06,1.44.43,2.8,1.17,4.05.49.84,1.14,1.55,2.1,1.74,1,.2,2.04.29,3.07.32.7.03,1.23-.36,1.52-1.02.15-.35.28-.73.35-1.1.38-1.95.34-3.92.18-5.88-.15-1.9-.35-3.79-.46-5.69-.1-1.82.26-3.54,1.56-4.95.04-.04.03-.12.04-.18-1.07-2.61-1.18-3.44-.76-5.73.24-1.32.72-2.55,1.55-3.62,1.25-1.6,2.86-2.29,4.86-1.81.81.19,1.6.52,2.38.79.61.22,1.19.49,1.81.69,2.88.96,5.77,1.9,8.65,2.84.78.26,1.59.48,2.39.73.11-.25.19-.39.23-.54.63-2.04,1.44-4.01,2.43-5.9,1.16-2.21,2.43-4.35,4.25-6.09,1.64-1.58,3.43-2.77,5.88-2.18.45.11.83-.11,1.08-.5.39-.63.81-1.25,1.11-1.92,1.4-3.2,2.09-6.57,2.22-10.06.04-1.13.11-2.25.21-3.38.03-.34.22-.68.35-1.06.65.31.73.82.83,1.27.28,1.19.61,2.39.72,3.6.31,3.46.33,6.91-.86,10.25-.39,1.11-.07,1.61,1.12,1.62.87,0,1.74-.14,2.61-.18.81-.04,1.28-.42,1.55-1.19.46-1.36.65-2.76.78-4.17.14-1.58.26-3.15.42-4.72.06-.5.2-1,.78-1.38Zm-68.24,40.91c-1.22,1.19-2.48,2.31-3.61,3.54-1.56,1.7-2.87,3.57-3.63,5.79-1.22,3.53-1.88,7.18-1.95,10.92-.06,3.32.05,6.66.1,9.98.06,3.95.15,7.88.19,11.83.04,3.49-.07,6.98.47,10.45.5,3.22.82,6.48,1.9,9.58.07.19.17.36.29.61.36-1.15.66-2.21,1.03-3.24.93-2.59,1.93-5.14,2.83-7.74,1.67-4.82,3.4-9.63,5.51-14.27.19-.41.4-.81.64-1.19.5-.77,1.2-1.22,2.12-1.39,1.08-.19,2.16-.38,3.22-.67,2.53-.69,5.02-.65,7.54.14,3.96,1.25,7.68,3.06,11.42,4.81,2.04.96,4.04,2.03,6.23,2.67,4.72,1.36,9.55,1.89,14.43,2.1,2.12.1,4.18-.21,6.24-.71.75-.18,1.5-.39,2.22-.68,1.17-.47,2.02-2.48,1.14-3.82-1.02-1.54-2.54-2.38-4.32-3.26.18.65.32,1.11.44,1.57-.07.03-.14.06-.21.08-.11-.17-.26-.32-.33-.51-.3-.72-.53-1.46-.87-2.16-.91-1.8-.93-3.67-.56-5.57.4-2.09.92-4.16,1.74-6.14.11-.26.18-.53.3-.88-.89.02-1.48-.38-2.01-.95-.51-.54-1.04-1.06-1.52-1.62-2.17-2.54-4.13-5.23-5.21-8.44-.09-.26-.3-.5-.47-.72-1.53-1.96-3.08-3.91-4.58-5.89-.38-.51-.77-.92-1.34-1.2-.96-.48-1.89-.99-2.8-1.55-1.22-.75-2.52-1.23-3.95-1.48-2.5-.45-4.88-1.23-6.83-3-1.28-1.17-2.37-2.46-3.31-3.91-.16-.26-.33-.51-.53-.8-.18.2-.3.31-.39.44-.78,1.13-1.11,2.42-1.05,3.76.08,1.87.29,3.73.43,5.6.18,2.32.29,4.64-.24,6.94-.08.33-.08.71-.02,1.05.4,2.59.24,5.16-.34,7.7-1.38,5.97-4.56,10.92-8.71,15.31-.13.14-.33.23-.5.33-.05-.06-.11-.11-.15-.16.69-.94,1.61-1.68,2.27-2.67-.2-.44-.42-.88-.59-1.33-.38-.99-.87-1.95-.9-3.05-.03-.96-.07-1.93-.11-2.9-.13-2.89-.77-5.69-1.85-8.38-.8-2.01-1.22-4.08-1.26-6.23,0-.74,0-1.47,0-2.31-.75.38-1.29.04-1.81-.37-.31-.24-.61-.48-.9-.74-1.95-1.76-3.86-3.5-5.84-5.3Zm53.42,26.51c-.16.67-.36,1.39-.49,2.1-.32,1.83-.45,3.65.36,5.42.24.53.53.9,1.08,1.15,1.55.7,2.97,1.6,4.04,2.93.73.91,1.37,1.88,2,2.86.44.68.8,1.39,1.17,2.12.56,1.14.31,2.1-.59,2.97-2.15,2.09-4.76,3.05-7.69,3.22-1.77.11-3.48-.33-5.14-.85-4.47-1.38-8.95-2.74-13.39-4.25-4.16-1.41-8.24-3.03-12.39-4.48-1.95-.68-3.95-1.24-5.95-1.72-1.7-.4-3.45-.44-5.22-.29-.73,1.57-1.2,3.17-1.43,4.84-.17,1.28-.38,2.56-.06,3.85.71,2.79,2.49,4.82,4.46,6.52,1.97-.62,3.74-1.32,5.6-1.74,6.24-1.39,12.49-1.39,18.74-.03,3.23.7,6.19,1.99,8.8,4.08,2.86,2.29,5.48,4.81,7.96,7.51,1.71,1.85,3.4,3.74,5.26,5.43,3.15,2.85,6.72,5.14,10.42,7.22,2.34,1.32,4.75,2.48,7.36,3.2,1.02.29,2.03.67,3.02,1.04.7.26,1.34.61,1.74,1.31.13.24.5.38.78.49,1.45.54,2.91,1.07,4.38,1.59.63.23,1.27.44,2.05.71-.19-.94-.35-1.75-.52-2.56-.93-4.69-1.78-9.39-2.81-14.05-.68-3.09-1.62-6.11-2.46-9.17-.05-.18-.11-.41-.24-.51-.26-.18-.28-.34-.19-.64.07-.22-.04-.51-.11-.75-.24-.84-.5-1.67-.75-2.51-.79-2.69-1.6-5.39-2.37-8.09-.07-.23-.32-.53.16-.9,1.21,3.89,2.26,7.74,3.5,11.75.72-.97,1.34-1.75,1.89-2.57,1.62-2.38,3.23-4.76,4.81-7.15.51-.76.77-1.61.7-2.52-1.75-1.01-3.45-2.02-5.15-2.99-1.62-.94-3.16-1.99-4.61-3.19-1.48-1.24-3.01-2.46-4.64-3.49-3.72-2.35-7.66-4.3-11.81-5.78-.87-.31-1.77-.51-2.88-.6.23.25.31.38.42.47,1.47,1.17,2.96,2.3,4.41,3.48.65.53,1.3,1.07,1.83,1.71,2.27,2.74,3.74,5.94,5.22,9.15.07.14,0,.33,0,.52-.11-.04-.21-.04-.23-.08-.12-.22-.23-.46-.35-.69-1.19-2.25-2.34-4.54-3.59-6.75-.92-1.61-2.19-2.91-3.74-4-1.63-1.15-3.11-2.51-4.65-3.79-.28-.23-.54-.38-.93-.43-2.53-.32-5.09-.68-7.81-1.05Zm34.17,41c10.37,2.05,20.66,4.08,30.95,6.11.82-1.37,1.63-2.61,2.34-3.92,1.91-3.52,3.9-7,5.65-10.61,2.03-4.21,3.86-8.53,5.74-12.83,1.58-3.61,3.1-7.25,4.17-11.05,1.43-5.09,3.49-9.92,5.76-14.68,1.41-2.97,2.67-6.04,3.66-9.17,2.08-6.6,3.68-13.32,4.32-20.23.18-2.01.87-3.81,2.07-5.45,1.03-1.4,1.9-2.92,2.88-4.37,1.32-1.96,2.62-3.93,4-5.83.52-.72.8-1.42.87-2.29.13-1.75.53-3.45,1.19-5.07.66-1.6,1.67-2.9,3.17-3.8.64-.38,1.27-.78,1.84-1.25.56-.47,1.09-1.01,1.54-1.6.39-.5.2-1.11-.38-1.34-.37-.15-.81-.17-1.22-.19-.29-.02-.57.08-.86.11-3.53.41-6.23,2.24-8.23,5.06-.66.93-1.08,2.06-1.44,3.15-1.75,5.24-3.27,10.56-4.57,15.92-.59,2.42-1.24,4.82-2.24,7.11-1.21,2.75-2.49,5.46-3.74,8.21-2.42,5.33-4.74,10.69-6.63,16.23-1.82,5.36-3.83,10.64-6.58,15.61-1.66,2.99-3.26,6.03-5.03,8.95-2.2,3.61-5.11,6.66-8.02,9.69-.49.51-.96,1.03-1.31,1.41.4,1.19.8,2.22,1.09,3.27.29,1.02.5,2.07.68,3.12.18,1.04.45,2.09.19,3.19-.17-.19-.27-.41-.3-.63-.16-1.09-.23-2.19-.47-3.26-.32-1.48-.75-2.94-1.17-4.39-.17-.58-.53-.97-1.18-1.14-1.07-.26-2.1-.64-3.16-.92-6.68-1.78-13.35-3.53-20.03-5.3-.24-.07-.49-.08-.6-.1-.71,1.22-1.28,2.38-2.01,3.44-1.74,2.53-3.53,5.02-5.34,7.51-.33.47-.43.86-.27,1.41.58,1.95,1.13,3.91,1.66,5.87.33,1.32.67,2.67,1.02,4.04Zm-40.88-55.63c0,.11-.03.22,0,.29,1.57,3.35,3.76,6.25,6.43,8.79.46.44,1.04.64,1.68.29.16-.09.36-.11.54-.14,1.12-.17,2.24-.32,3.34-.52,1.59-.3,3.16-.61,4.8-.32,1.42.26,2.74-.12,4.03-.73,2.13-.99,3.89-2.45,5.3-4.28,1.52-1.97,2.99-3.97,4.4-6.02,1.79-2.58,2.67-5.5,3.05-8.59.18-1.5.25-3.03.26-4.54,0-1.39,0-2.79-.25-4.15-.45-2.53-1.48-4.87-2.69-7.13-.54-1.01-1.1-2.03-1.73-3.2-.14.41-.26.64-.31.87-.15.75-.28,1.53-.41,2.28-.21,1.15-.46,2.28-1.15,3.27-1.23,1.76-3.14,1.62-4.02-.32-.29-.64-.47-1.35-.57-2.04-.16-1.04-.22-2.1-.34-3.31-4.76,2.24-9.69,3.83-14.73,5.26.08.45.11.8.21,1.13.22.72.48,1.42.68,2.15.7,2.52,1.42,5.03,2.14,7.55.33,1.17.31,2.36.32,3.55.02,1-.43,1.76-1.25,2.27-2.36,1.5-4.83,2.75-7.64,3.16-.82.11-1.63.24-2.57.37.47.94.89,1.76,1.29,2.6.39.82.9,1.6,1.06,2.6-.99.07-1.18-.91-1.87-1.17Zm30.05,66.62c-1.15,1.24-2.17,2.36-3.21,3.46-1.81,1.89-3.67,3.73-5.42,5.67-5.39,5.97-10.85,11.86-16.43,17.66-5.38,5.59-10.64,11.28-15.94,16.93-.54.57-1.05,1.18-1.6,1.81,1.77,1.62,3.45,3.16,5.2,4.76.07-.11.12-.19.17-.28.92-1.66,2.25-2.98,3.6-4.28,2.42-2.33,4.85-4.65,7.25-7,2.69-2.65,5.35-5.34,8.04-7.99,2.88-2.83,5.85-5.58,8.66-8.46,3.65-3.73,6.76-7.89,9.9-12.05,1.65-2.2,3.29-4.4,4.97-6.57.91-1.17.92-1.46-.46-2-1.57-.61-3.16-1.11-4.74-1.66Zm10.99-10.33c.04.37.05.62.1.87.96,4.71,1.92,9.43,2.86,14.14.11.58.38.87.94,1.07,1.49.53,3,1.04,4.41,1.74,2.87,1.4,5.75,2.78,8.78,3.81,2.04.7,1.69.75,2.84-.83,3.44-4.77,6.79-9.6,10.17-14.41.09-.12.12-.28.2-.47-10.09-1.98-20.12-3.94-30.29-5.92Zm-44.71-81.86c-.11.15-.17.2-.19.26-.83,3.09-1.11,6.22-.75,9.41.38,3.32,1.6,6.37,2.98,9.38.13.3.44.53.71.74.38.29.94.43,1.18.79.24.36.47.37.78.33,3.13-.41,5.97-1.61,8.59-3.36.52-.34.86-.82.85-1.44-.02-1.1,0-2.21-.18-3.28-.52-2.89-1.38-5.71-2.36-8.48-.17-.48-.42-.74-.91-.88-1.82-.56-3.63-1.16-5.44-1.74-1.75-.58-3.5-1.16-5.26-1.73Zm-8.25-.53s-.06.09-.1.12c-.18-.09-.4-.13-.53-.27-.3-.3-.57-.62-.82-.95-1.69-2.21-4-3.28-6.68-3.72-1.32-.22-2.44.19-3.35,1.1-1.98,1.95-2.95,6.27-1.43,9.02.25.46.5.92.75,1.36,1.32,2.3,2.99,4.34,5.39,5.57,2.53,1.31,5.26,1.91,8.12,1.93.73,0,1.35-.31,1.94-.71-.64-1.82-1-3.64-1.15-5.52-.14-1.86-.41-3.72-.73-5.57-.16-.95-.48-1.87-.81-2.77-.24-.64-.75-1.02-1.65-.88.39.48.72.88,1.05,1.28Zm25.9-30.67c-.09,0-.17.02-.27.02-.06.64-.14,1.27-.15,1.91-.05,2.66-.33,5.28-1.01,7.86-.48,1.81-1.1,3.57-2.05,5.21-.57.97-1.3,1.43-2.46,1.21-1.3-.24-2.5.12-3.55.92-.38.3-.77.58-1.14.91-1.39,1.28-2.51,2.78-3.42,4.43-.11.21-.2.44-.34.75h23.12c.06-.39.11-.76.17-1.14.11-.64.15-1.29.33-1.9.53-1.83,1.93-2.98,3.91-2.71.11.02.24-.02.34-.03.11-.45.08-.77-.44-.79-.9-.04-1.8-.09-2.69-.09-.61,0-1.23.1-1.84.08-1.39-.05-1.94-.69-1.7-2.06.46-2.62.52-5.26.59-7.92,0-.34,0-.68,0-1.02-.07,0-.12,0-.19-.02-.04.18-.1.36-.11.54-.12,1.55-.21,3.09-.35,4.63-.12,1.39-.37,2.75-.94,4.04-.21.49-.51.94-1.09.99-1.09.11-2.19.24-3.28.24-1.47,0-2.02-.77-1.54-2.14,1.18-3.45,1.24-6.97.81-10.54-.13-1.15-.46-2.25-.7-3.38Zm8.72,23.75h-21.76c-.39,0-.77.03-1.17,0-.46-.04-.69.18-.9.56-.96,1.83-1.72,3.75-2.36,5.73-.07.2-.07.43-.1.63,1.2.63,10.44,3.52,11.02,3.47-.11-.59-.21-1.18-.32-1.83.37-.13.67-.24.97-.33,2.8-.9,5.61-1.75,8.39-2.71,1.8-.63,3.53-1.42,5.29-2.16.32-.13.68-.23.71-.7.05-.84.13-1.67.22-2.65Zm-10.19,61.12c-.08.29-.11.4-.14.52-.29,1.43-1.12,2.4-2.53,2.78-2,.53-3.99,1.03-6.08,1.06-4.02.05-8-.32-11.94-1.05-2.51-.47-5-1.08-7.33-2.13-1.91-.87-3.78-1.81-5.68-2.71-2.87-1.35-5.75-2.64-8.77-3.61-2.14-.69-4.29-.9-6.5-.42-1.58.33-3.16.64-4.72,1.04-.46.12-.91.49-1.24.85-.53.57-1.58,3.11-1.78,4.07.13-.07.25-.11.33-.18,3-2.36,6.48-3.06,10.19-3,3.09.05,6,.85,8.86,1.88,5.93,2.12,11.84,4.32,17.8,6.33,3.48,1.18,7.04,2.15,10.59,3.1,3.28.88,6.34.16,9.14-1.68.61-.4,1.16-.94,1.61-1.5.25-.32.42-.87.34-1.25-.32-1.51-1.2-2.74-2.17-4.09Zm-47.61-36.11c-.84.72-1.63,1.37-2.39,2.04-.12.11-.19.34-.2.52-.04,1.13-.2,2.27-.06,3.38.2,1.56.57,3.1.98,4.62.24.92.75,1.76,1.02,2.67.81,2.77,1.21,5.62,1.16,8.51-.03,1.68.72,3.1,1.39,4.59.15-.11.25-.15.31-.23,3.25-4.13,5.6-8.67,6.41-13.92.3-1.91.43-3.84-.02-5.92-.69.75-1.49,1.02-2.4.95-.68-.06-1.35-.16-2.02-.26-.79-.11-1.43-.52-2.03-1.04-1-.88-1.45-2.03-1.75-3.26-.2-.83-.27-1.7-.41-2.65Zm20.89-20.95c.33.84.94.99,1.56,1.06.91.1,1.5.58,1.81,1.39.28.72.57,1.45.69,2.22.31,1.91.58,3.83.75,5.76.24,2.88.96,5.58,2.25,8.17.59,1.18,1.35,2.09,2.59,2.59.56.23,1.07.59,1.61.88.17.09.38.11.75.22-1.35-3.13-2.5-6.13-2.87-9.38s.07-6.43.84-9.67c-3.34-1.1-6.61-2.15-9.98-3.24Zm43.46-5.12c-.04-1.13-.18-2.21-.56-3.26-.38-1.05-1.29-1.7-2.28-1.6-1.01.11-1.9.51-2.36,1.46-.31.63-.53,1.32-.64,2.01-.17,1.01-.23,2.04-.32,3.08-.17,1.86-.38,3.74-.02,5.59.19.97.43,1.96.83,2.86.44.97,1.38,1.17,2.28.59.34-.21.67-.53.87-.88.3-.53.54-1.11.69-1.69.37-1.6.7-3.21,1-4.82.2-1.09.34-2.21.52-3.32Zm-70.33,17.47c-1.66.75-3.14,1.44-4.44,2.47-.98.78-1.15,2,.05,2.92,1.07.82,2.03,1.79,3.05,2.68.84.75,1.67,1.52,2.54,2.24s1.12.72,2.03.03c.73-.53,1.41-1.13,2.07-1.74.96-.9,1.03-1.37.43-2.53-.17-.33-.39-.68-.68-.94-.65-.58-1.3-1.17-2.03-1.64-1.32-.85-2.57-1.75-3.03-3.5Zm169.13-19.95c1.3-.29,2.51-.55,3.84-.84-.37-2.87-.19-5.82-1.47-8.64-.86.76-1.61,1.45-2.4,2.11-.39.32-.5.72-.46,1.2.17,1.99.32,3.98.49,6.16Zm-96.17,10.42c.15-.28.23-.38.27-.5.72-2.47,1.5-4.93,2.11-7.43.27-1.08.26-2.24.26-3.35,0-.94-.58-1.23-1.44-.87-.48.2-.76.55-.96,1.02-.55,1.31-.98,2.66-1.11,4.08-.1,1.09-.26,2.17-.35,3.26-.04.51-.11,1.07.06,1.52.27.75.73,1.42,1.17,2.27Zm95.23-16.67c-1.4.98-6.62,8.65-6.78,9.85,2.39-1.18,4.77-2.37,7.3-3.62-.15-1.96-.33-4.05-.52-6.23Zm-119.32,145.06c-.06-.06-.12-.12-.18-.18-.23.22-.47.43-.69.65-1.26,1.24-2.51,2.5-3.79,3.74-2.5,2.43-5.02,4.84-7.52,7.28-.97.95-1.83,2-2.47,3.21-.08.15-.1.33-.17.59.73,0,1.19-.34,1.6-.72,1.39-1.29,2.84-2.55,4.12-3.95,1.49-1.64,2.83-3.44,4.23-5.17,1.28-1.58,2.49-3.21,4.08-4.52.32-.26.53-.62.79-.93Zm107.66-142.62c1.72-1.86,3.31-3.58,5.06-5.47h-3.48c-.82,0-1.69.67-1.71,1.47-.03,1.27.07,2.55.12,4Zm-120.62,32.74c-.06.08-.12.15-.18.23,1.81,2.67,3.91,5.11,6.23,7.38-.04-.34-.14-.63-.28-.91-.49-.98-1.06-1.94-1.44-2.95-.53-1.41-1.43-2.39-2.84-2.94-.52-.23-.99-.54-1.49-.81Zm137.6-22.21c-1.34-.06-2.41.46-3.43,1.16-.96.66-1.08.96-.67,2.14,1.35-.25,2.69-.49,4.11-.75,0-.81,0-1.66,0-2.55Zm-10.07-17.77c-.03-.08-.06-.15-.1-.23-.92-.09-1.83-.17-2.75-.26-.1,0-.21,0-.29.04-.8.49-1.63.94-2.5,1.75,1.5,0,2.77,0,4.05,0,.14,0,.32-.07.43-.17.4-.34.77-.74,1.16-1.12Zm-92.62,12.51c-.11,1.1-.12,2.21-.35,3.26-.2.93.24,1.5.75,2.28.23-1.93.43-3.7.65-5.54h-1.05Zm-40.55,23.84c1.26.69,2.39,1.31,3.52,1.93.04-.05.08-.1.11-.14-.43-.89-.85-1.78-1.27-2.67-.76.28-1.48.54-2.36.88Zm125.68-31.72c-.8,1.47-1.02,3.03-1.17,4.72.61-.48,1.2-.97,1.27-1.6.11-1.02-.05-2.07-.1-3.11Zm9.84,17.35c.03.06.06.12.1.18.96-.29,1.9-.57,2.79-.85v-1.43c-1.06.77-1.98,1.44-2.88,2.1Zm-125.53,20.41q.16.59.75.42c-.3-.16-.53-.29-.75-.42Z"/>
      <path class="cls-1" d="m92.39,301.53c1.46-2.28,2.95-4.55,4.36-6.86.74-1.2,1.38-2.48,1.97-3.76.75-1.6.19-2.09-1.52-1.97-.56.04-1.12.29-1.68.42-.15.04-.32.03-.59.05.97-.86,2.71-1.2,3.68-.8.75.31,1.09.86.79,1.61-.5,1.25-1.02,2.51-1.7,3.68-1.23,2.12-2.59,4.16-3.89,6.24-.29.46-.56.94-.84,1.4-.18,0-.38,0-.57,0Z"/>
      <path class="cls-1" d="m141.81,218.02c-4.89-8.23-9.57-16.39-14.27-24.53-.07-.11-.07-.28-.1-.41.11-.04.13-.06.16-.06s.08,0,.09.02c4.72,8.07,9.44,16.15,14.16,24.23.07.11.11.23.14.35,0,.04-.05.11-.18.4Z"/>
      <path class="cls-1" d="m118.86,154.92c.46,0,.93,0,1.39,0,1.58.05,3.16.15,4.74.13,2.48-.03,4.97-.13,7.45-.23,1.87-.08,3.74-.19,5.61-.28.55-.03,1.12-.11,1.65.06v.26c-.3.04-.59.1-.9.11-1.61.08-3.22.15-4.83.21-3.77.13-7.55.27-11.33.35-1.06.02-2.12-.12-3.18-.21-.21-.02-.41-.13-.62-.21,0-.07.02-.13.03-.2Z"/>
      <path class="cls-1" d="m141.99,140.53c-3.94,3.14-8.4,5.34-13.05,7.19-2.31.92-4.63,1.79-7.1,2.68.1-.67.51-.63.76-.74,1.78-.7,3.58-1.3,5.33-2.04,2.72-1.17,5.46-2.34,8.1-3.7,1.8-.93,3.43-2.17,5.15-3.27.22-.14.45-.27.68-.4.04.1.09.18.12.27Z"/>
      <path class="cls-1" d="m116.31,157.7c.12.06.28.1.37.19,3.35,2.85,6.71,5.7,10.06,8.56-.04.06-.08.12-.12.18-.18-.08-.39-.12-.53-.25-3.16-2.67-6.32-5.33-9.48-8.01-.17-.14-.29-.35-.43-.53.05-.05.1-.1.13-.14Z"/>
    </g>
  </g>
</svg>