<?xml version="1.0" encoding="UTF-8"?>
<svg id="Elderly" xmlns="http://www.w3.org/2000/svg" viewBox="0 0 288.26 381.24">
  <defs>
    <style>
      .cls-1 {
        stroke-width: .75px;
      }

      .cls-1, .cls-2 {
        fill: none;
        stroke: #1d1d1b;
        stroke-miterlimit: 10;
      }

      .cls-2 {
        stroke-width: .5px;
      }
    </style>
  </defs>
  <g>
    <path class="cls-2" d="m108.1,82.02s-.43,3.32-1.27,5.62-2.9,4.34-3.5,6.72-1.36,3.66-2.64,1.53-.85-3.91-1.87-6.89.09-2.72.51-5.36-1.96-5.11-2.55-7.4-.51-8.43,1.45-13.36c1.96-4.94,3.91-8.43,8.6-11.91,4.68-3.49,10.38-3.02,10.38-3.02,0,0,3.49.64,7.83,2.34s7.06,2.55,9.53,4.94,3.91,4.77,4.17,5.96-.77,2.13-2.3,3.74-2.38,4.09-5.36,4.6-5.87-.85-6.81.85-.6,5.02-.85,6.72-1.02,4-1.36,5.45-.6,2.81-2.47,3.83-.94-1.36-.94-3.23-1.36-1.53-1.53-2.72-.85-2.72-1.87-3.49-1.62.43-2.21,1.02-1.53-.43-1.53-1.45.43-1.96-1.45-1.36-2.55,1.02-2.55,2.64,0,3.74,1.62,5.96,2.72,2.89,3.49,2.98,1.53-.17,1.36-1.19-.34-1.96-.34-1.96"/>
    <path class="cls-2" d="m136.8,64.54s.96,2.74.64,5.29-.06,3.96-.29,5.11-.48.51-.35,1.6.33,2.85.33,2.85"/>
    <line class="cls-2" x1="112.05" y1="86.54" x2="116.95" y2="92.94"/>
    <line class="cls-2" x1="115.98" y1="77.67" x2="123.46" y2="83.23"/>
    <path class="cls-2" d="m102.49,96.57s-1.05,3.26-1.69,4.6-.96,1.53-.96,1.53"/>
    <path class="cls-2" d="m122.88,103.53s-.89.96-1.53,1.72-1.02.7-.89,2.23.29,3,1.2,4.34.91,2.87.91,2.87"/>
    <path class="cls-2" d="m110.69,95.87s3.19,6.45,4.47,7.66,2.45,3.32,2.45,3.32"/>
    <path class="cls-2" d="m95.18,111.45l2.55-6.51s.32-.45.96-1.4.83-1.21,1.72,0,2.23,1.85,3.7,1.98,5.68,1.72,9.64,4.21,5.62,4.09,7.21,4.53,2.23,0,2.23,0c0,0,1.34,1.02,2.11,2.43s7.72,12.26,7.72,12.26"/>
    <path class="cls-2" d="m102.59,142.15s-1.53-1.15-2.74-3.83-2.36-13.4-2.11-18.32,1.63-6.26,3.43-7.66,7.93-1.4,11.51.64,7.15,7.15,8.49,9.89,2.43,7.98,2.75,10.85.25,2.74.63,4.6.57,4.09.89,5.3.83,2.17,0,1.72-5.56-.26-7.82.51-6.41,2.04-8.39,3.19-2.94,2.36-3.26,1.28-2.94-7.21-3.38-8.17.06-4.47.06-6.51,2.43-8.81,2.68-10.79"/>
    <path class="cls-2" d="m102.91,126.77s-1.72,5.3-2.17,7.6-.61,4.55-.61,4.55"/>
    <path class="cls-2" d="m118.48,121.15s2.43,6.83,3.45,8.43,1.81,2.86,1.81,2.86"/>
    <path class="cls-2" d="m94.03,115.47s-1.91,8.68-2.04,14.17c-.13,5.49.32,12.96.7,16.15.38,3.19.83,9.89,1.02,12s1.34,6.96,1.91,11.17c.57,4.21,1.85,5.43,2.81,6.89s.13,1.72,0,2.94-.57,2.43-.13,4.47.45,4.28.06,6.26-.13,3.06-.38,5.74-.7,7.34-.51,12.38.26,7.53.06,8.55-.05,1.91,1.35,2.81,5.86,2.49,7.78,2.87,9.38.13,12.89.45,4.28.38,6.83-.77,7.09-2.17,10.85-4.21,4.91-4.79,5.17-6.96-.77-4.02-.45-5.87.96-10.28,1.34-14.81c.38-4.53.45-9.45.57-12.19s-.26-4.91-.26-4.91"/>
    <path class="cls-2" d="m123.65,180.64s1.21,12.7,1.47,17.74c.26,5.04.7,11.55,1.15,14.62s.57,8.36.57,8.36"/>
    <path class="cls-2" d="m141.91,156.89s-.83-4.91-1.02-8.43c-.19-3.51.51-6.19.51-6.19"/>
    <path class="cls-2" d="m93.91,115.15s1.72-3.26,4.28-4.79,5.87-3,9.51-1.66,6.89,3.77,11.11,7.6,9.13,9.64,11.11,11.36,6,6.51,7.79,8.87,2.17,3,2.87,4.09,2.17,4.28,2.55,5.04,1.06,1.15,1.06,1.15"/>
    <path class="cls-2" d="m94.4,114.33s-.36-.96.79-2.56,2.23-3.51,5.43-4.21,5.1-.77,7.91,0,5.68,2.87,9.7,6.51c4.02,3.64,6.89,6.83,9.45,9.38s6.32,6.42,8.49,8.99,6.19,8.95,6.77,9.84.98,1.21.98,1.21"/>
    <path class="cls-2" d="m141.22,152.1s1.26-1.14,2.98-.88,3.06.88,3.06.88"/>
    <path class="cls-2" d="m142.75,141.99s2.74-4.82,4.14-5.2,3-.57,4.21,0,1.79,1.25,1.85,2.12-.19,1.13-1.21,1.26-1.6,1.09-2.49.57-1.02.06-2.36.77-3.22,1.74-3.22,1.74c0,0-.23.87,1.24.94s3.59-1.23,3.59-1.23"/>
    <path class="cls-2" d="m147.85,150.74s-1.16-1.32-2.18-2.21-1.71-1.98-1.43-2.68,1.1-1.47,1.77-.7,2.14,1.79,2.72,2.04"/>
    <path class="cls-2" d="m149.5,145.53s-1.02-.51-1.09-1.53.13-1.53.77-1.72.96,0,.96,0"/>
    <line class="cls-2" x1="146.4" y1="145.53" x2="148.74" y2="144.83"/>
    <line class="cls-2" x1="144.69" y1="145.18" x2="144.18" y2="144.05"/>
    <path class="cls-2" d="m151.93,137.27s.31-1.5.38-1.7-.11-.57.65-.96,9.5-5.44,13.08-7.12,7.98-3.98,11.68-6.73,13.4-8.94,15.19-10.34,4.47-2.87,4.98-3.57,1.02-2.04,1.66-.77,1.6,3.13.7,3.45-2.62-.26-2.11.96,3,5.34,3,5.34c0,0,.77.98,0,1.17s-7.4,3.08-9.51,4.41-5.23,4.2-7.85,7.97c-2.62,3.77-5.65,9.22-5.65,9.22"/>
    <path class="cls-2" d="m150.64,140.59s-.63,1.75-.82,2.9.37,1.34-.55,3.32-1.41,3.27-1.71,4.83-.3,3.34-.3,3.34"/>
    <line class="cls-2" x1="191.63" y1="121.41" x2="183.27" y2="134.11"/>
    <path class="cls-2" d="m125.44,145.34s1.91,8.36,2.3,10.53.7,4.28.7,4.28"/>
    <path class="cls-2" d="m106.68,150.67s4.91,13.82,7.14,17.97,3.96,9.19,6.89,10.6,3.33,1.6,5.17.77,2.68-1.53,6.19-2.49,7.21-2.11,9.83-3.89,8.62-6.64,11.87-9.32,4.6-5.04,8.23-6.64,3.06-2.49,5.49-2.68,5.68,0,7.34,0,1.72-.7,2.87-1.91,1.47-2.94,1.79-3.48.77-1.95.96-3.35,1.09-2.62,1.21-3.45,0-1.28,0-1.28"/>
    <path class="cls-2" d="m180.2,143.11s2.3-2.23,3.06-3.77.83-2.36.83-3.45-.51-1.72-1.28-1.79-1.21,1.02-1.72,1.6-1.21,1.95-3.13,3.21-4.98,2.73-5.81,2.6"/>
    <path class="cls-2" d="m122.31,168.99s1.54-5.33,3.58-7.25,2.23-1.28,4.34-1.6,11.43-2.74,15-4.09,11.36-6.66,13.34-8.28,2.68-3.83,4.21-5.59,5.94-3.94,7.66-4.19,3.13.19,4.28-.45,2.62-1.15,3.41-1.85,1.32-1.04,1.96-.28"/>
    <path class="cls-2" d="m136.82,82.06s-.25,2.04-.05,3.02-.2,3.7-.41,4.66-.55,2.11-1.23,4.92c-.68,2.81-1.91,3.28-3.4,4.64s-2.38,2.3-3.45,2.64-3.87,1.28-4.81,1.4-1.45.04-3.02-1.19-4.29-7.62-4.68-8.68,0-.88,0-.88c0,0,2.26-.4,3.37-.15s1.18.17,1.99-.21.34-.13.94-1.36.47-5.79.47-5.79l.72-4.38s.22-.55.66-.43,5.68,1.02,7,1.28,1.91.17,1.91.17"/>
    <path class="cls-2" d="m123.47,76.61s9.52,3.72,9.73,3.84"/>
    <line class="cls-2" x1="137.13" y1="79.38" x2="138.77" y2="80.11"/>
    <path class="cls-2" d="m131.93,83s-.94,1.79-.94,2.51.17,1.05.94,1.03,1.91-1.03,2.77-2.1,1.57-1.96,2.13-3.23.57-1.79-.05-1.83-2.21.17-2.65.36-.87.62-1.08,1.3-1.11,1.96-1.11,1.96Z"/>
    <path class="cls-2" d="m136.77,85.94s.78-.26,2.18-2.04,2-2.8,2-3.44-.21-.73-.94-.71-1.23.11-1.83,1-1.42,1.85-1.42,1.85"/>
    <path class="cls-2" d="m103.77,221.04s1.52,4.21,1.18,6.09-.62,5.62-.56,7.91-.54,9.11-1.56,14.04c-1.02,4.94-2.64,13.36-3.74,16.09s-2.81,10.47-2.21,14.38c.6,3.91,1.62,7.06,1.62,11.49s.26,8.6.51,9.45.68,3.06,1.53,3.49,5.28,2.21,7.4,1.96,4.6-3.4,5.53-5.19.77-3.49.51-5.45.68-6.13.68-8.94,1.62-7.49,2.13-10.72c.51-3.23.51-5.62,1.96-9.53s3.28-5.28,4.91-7.83,1.47-5.79,2.57-9.45,3.4-11.23,4.94-16.6c1.53-5.36,3.85-13.82,3.85-13.82"/>
    <path class="cls-2" d="m117.03,222.19s-.34,12-3.4,23.41c-3.06,11.4-4.26,17.19-6.89,24s-4.51,11.23-4.09,16.6,1.79,13.02,1.79,13.02"/>
    <path class="cls-2" d="m98.57,295.56s4.34,3.99,6.98,3.65,6.9-2.99,8.39-4.43"/>
    <path class="cls-2" d="m98.76,298.85s-1.49.26-2.02,2.11-1.24,4.66-1.69,7.79-1.47,6.64.57,8.43,4.02,2.62,9,2.23,5.3-1.02,8.49-.96,5.43,1.91,10.34,1.4,6.19-1.4,9-3.96,3.7-4.66,3.64-7.15-1.02-3.83-2.3-4.28-7.91-1.47-9.19-1.66-3.38-1.02-4.53-1.66-2.81-3.37-3.7-4.14-2.4-1.71-2.4-1.71"/>
    <path class="cls-2" d="m94.95,309.4s-.22,2.99,4.76,4.01,9.13.83,12.19,1.34,5.87,1.91,11.49,1.4,7.72-1.28,9.64-2.62,2.95-3.2,2.95-3.2"/>
    <path class="cls-2" d="m100.52,303.98s.09,2.58,2.38,3.64,3.64-.02,4.85-.79,1.59-1.43,1.59-1.43"/>
    <path class="cls-2" d="m117.03,273.19s1.7,1.79,5.02,3,8.94,1.91,11.04,2.87,2.3,4.09,1.91,5.55-2.62,3.19-5.04,4.53-6.57,1.72-8.62,1.4-6.95-.96-6.95-.96"/>
    <path class="cls-2" d="m114.65,286.36s2.43-.3,4.15,0,5.51,1.35,10.79,0,5.58-3.08,5.58-3.08"/>
    <path class="cls-2" d="m92.24,140.31s-3.38.69-4.49,1.2-1.11,1.03-.68,2.68,4,22.59,4.89,25.74c.89,3.15,2.15,8.26,2.37,11.32.22,3.06,1.58,6.47,2.35,6.98s1.91-.44,1.91-.44"/>
    <path class="cls-2" d="m92.44,143.11s-1.79.15-3.4,0-2.22,0-2.22,0"/>
    <line class="cls-2" x1="92.32" y1="141.51" x2="87.76" y2="141.51"/>
    <path class="cls-2" d="m125.25,127.76s2.51,4.88,3.19,7.23,1.02,3.61,1.02,3.61"/>
    <path class="cls-2" d="m135.93,137.51s-1.53.42-4.77,1.4-4.96,3.28-4.96,3.28"/>
    <path class="cls-2" d="m102.91,178.36s7.32-1.19,10.21-1.02,5.36,2.38,5.36,2.38"/>
  </g>
  <path class="cls-1" d="m99.29,60.37s-2.47,5.08-2.64,9.13-.07,5.69.61,7.52,2.07,2.85,2.03,4.95-.5,3.56-.5,3.56c0,0-.62,1.38-.18,2.8s.66,3.22,1.14,4.94-.24,1.56.94,2.63,1.6,1.3,1.37,1.96-.5,2.17-1.36,3.51-1,.72-1.64,1.64-1.98,3.57-2.26,4.29-1.79,4.27-2.11,5.27-1.15,5.28-1.15,5.28c0,0-1.59,9.08-1.58,12.13s.28,10.33.28,10.33c0,0-2.34.45-3.41.83s-2.28.88-2.02,1.97,2.48,13.08,2.48,13.08c0,0,1.91,10.43,3.03,15.02s1.8,8.36,2.02,10.05.32,2.84.93,4.34.86,2.09,1.42,2.64,1.91-.44,1.91-.44c0,0-.39,2.2-.43,3.3s-.11,3.26-.28,5.19-.55,6.63-.45,9.79.28,7.07.22,8.42-.41,2.28-.1,2.94.64,1.43,2.67,2.25,3.54,1.36,3.54,1.36c0,0,.82,2.3,1.01,3.62s-.2,5-.28,6.61-.18,7.21-.51,10.01-2.05,12.39-2.81,15.8c-.76,3.41-1.3,5.89-1.78,7.2s-1.47,4.44-1.84,6.44-1.06,5.82-.82,7.68,1.15,6.17,1.39,8.11.39,7.38.39,7.38l.25,4.95s-1.54.34-2.02,2.11-1.79,8.44-1.79,8.44c0,0-.63,2.82-.55,4.16s.72,3.84,2.67,4.7,3.52,1.54,7,1.19,7.91-1.45,10.33-.87,5.48,1.88,9.05,1.28,5.33-.51,7.9-2.99,4.07-3.07,4.4-5.6.43-4.88-.59-5.76-2.54-1.42-6.34-2.02-5.54-.65-7.4-1.68-2.11-1.45-3.77-3.27-3.69-3.23-3.69-3.23l.44-5.71s3.51.47,5.48.75,5.9,1.03,8.97-.68,5.07-2.48,5.67-4.07.88-3.34.31-4.45-.69-2.05-3.96-2.78-5.65-.83-8.37-2.02-5.47-3.16-5.47-3.16c0,0,.06-2.43,1.12-5.35,1.06-2.92,1.93-4.72,3.71-7.14s3.05-3.77,3.38-6.46,1.24-6.21,2.79-11.42,6.16-21.45,6.16-21.45l.5-2.95s2.47-.5,4.17-2.11,3.11-2.53,3.34-4.81.17-3.05,0-5.26-.3-1.11-.3-1.11l1.36-14.94s.41-6.84.52-10.08c.11-3.23,0-7.86,0-7.86,0,0,2.71-2.02,6.35-4.99s5.22-5.09,8.07-7.11,4.6-2.68,5.96-3.62,1.17-1.62,4.57-1.61,6.82.57,7.69-.41,1.73-1.34,2.74-4.11,1.42-4.79,1.96-6.2.27-2.28.88-3.05,2.37-3,2.08-4.72-.83-2.32-.83-2.32l1.1-1.67,4.47-6.79,2.79-4.23s3.89-2.05,5.98-2.96,3.92-1.32,3.86-1.74-.42-.98-1.46-2.8-1.87-3.42-1.87-3.42c0,0-.33-.71.28-.77s1.82-.19,1.82-.19c0,0,.79,0,.23-1.36s-1.26-2.54-1.26-2.54c0,0-.25-.44-.79.39s-1.25,1.49-2.71,2.45-17.86,12.32-19.87,13.6-5.6,3.37-7.7,4.39-9.42,4.91-9.42,4.91l-6.24,3.6-.54,2.28s-1.34-.96-2.66-.84-2.55-.27-4.01,1.78-2.52,3.78-2.52,3.78c0,0-1.59-2.54-2.92-4.48s-2.77-4.14-4.53-6.07-3.41-3.68-3.41-3.68l-6.58-11.08s-1.07-1.53-1.59-1.98-1.21-.57-1.21-.57c0,0-.39-1.47-.86-2.3s-1.3-1.83-1.22-3.65-.2-1.66.65-2.62,1.8-2.17,1.8-2.17c0,0,3.04-.64,4.47-1.15s2.09-.91,3.71-2.34,2.4-1.64,3.49-3.61,1.47-4.51,1.8-6.55.41-3.8.41-3.8c0,0,1.28-.89,2.01-1.83s2.03-2.11,2.06-3.11.14-1.43-.83-1.25-2.14.36-2.51,0-.62-2.51-.62-2.51c0,0,.21-1.9.27-2.29s.1-1.66.21-4.38-.23-4.82-.23-4.82l-.33-1.21s1.48-.75,1.71-2.06.43-1.93-1.01-3.81-4.39-5-6.51-5.94-5.24-2.32-7.87-3.15-5.56-1.74-6.89-1.66-5.39.42-7.67,1.94-3.63,2.91-5.56,4.58-3.72,5.93-3.72,5.93Z"/>
</svg>