<?xml version="1.0" encoding="UTF-8"?>
<svg id="Layer_1" data-name="Layer 1" xmlns="http://www.w3.org/2000/svg" viewBox="0 0 489.01 536.51">
  <defs>
    <style>
      .cls-1 {
        stroke-width: 0px;
      }
    </style>
  </defs>
  <path class="cls-1" d="m275.83,536.51c-.35-12.07-1.44-24.07-3.45-35.98-1.84-10.95-3.76-21.88-5.65-32.82-.14-.78-.33-1.56-.54-2.55-2.71-.67-5.49-1.36-8.26-2.05-18.67-4.66-37.42-9.04-55.99-14.08-9.77-2.65-19.22-6.45-28.82-9.74-.83-.28-1.64-.61-2.75-1.03-.29.97-.61,1.83-.8,2.73-1.88,9.07-3.8,18.13-5.58,27.22-2.34,11.99-4.56,24-6.85,36-.11.58-.39,1.14-.68,1.96-.83-.85-.48-1.57-.37-2.18,1.71-9.1,3.41-18.21,5.2-27.3,2.31-11.75,4.7-23.49,7.07-35.23.23-1.16.55-2.3.86-3.6-1.69-.66-3.31-1.28-5.13-1.99-.85,3.26-1.67,6.34-2.46,9.41-5.67,22.13-11.32,44.26-17.03,66.38-1.3,5.03-2.77,10.01-4.24,14.99-.57,1.91-1.37,3.75-2.07,5.62-.53,1.41-1.07,2.83-1.61,4.24h-.96c.27-.91.51-1.83.82-2.72,1.38-4,3.04-7.92,4.12-11.99,5.28-19.75,10.43-39.53,15.58-59.31,2.13-8.19,4.15-16.41,6.21-24.62.19-.77.56-1.57.06-2.77-.54,1.11-.81,1.95-1.3,2.64-1.32,1.88-2.64,3.78-4.12,5.53-1.18,1.39-2.75,2.45-3.88,3.87-2.16,2.72-4.72,5.1-6.16,8.45-6.11,14.24-12.36,28.42-18.63,42.59-5.72,12.93-11.38,25.89-18.13,38.33h-.96c1.49-3,3.04-5.97,4.45-9.01,4.87-10.51,9.77-21.01,14.52-31.58,5.23-11.66,10.3-23.4,15.43-35.11.34-.78.61-1.59.59-2.6-.44.49-.94.94-1.33,1.48-4.33,5.9-9.58,10.93-14.94,15.84-1.22,1.12-2.68,2-4.12,2.84-.98.57-1.92.28-2.78-.59-3.26-3.29-6.54-6.55-9.9-9.73-8.42-7.96-17.15-15.61-25.26-23.87-6.08-6.2-11.49-13.07-17.02-19.8-7-8.52-13.83-17.18-20.71-25.79-.55-.69-1.32-1.35-1.22-2.9.72.79,1.15,1.22,1.53,1.69,11.01,13.6,21.93,27.27,33.07,40.77,5.76,6.97,12.48,13.05,19.14,19.16,2.23,2.05,4.5,4.06,6.92,6.24,1.59-1.7,3.1-3.32,4.61-4.94,9.53-10.24,19.02-20.52,28.61-30.7,12.01-12.74,24.16-25.34,36.14-38.1,7.06-7.51,13.86-15.26,20.86-22.83,3.04-3.29,6.31-6.36,9.41-9.58,1.76-1.84,3.39-3.8,5.23-5.87-.88-.45-1.49-.81-2.13-1.09-15.09-6.73-28.82-15.54-40.84-26.9-1.2-1.13-2.44-1.09-3.76-.93-5.4.67-10.71,1.83-15.9,3.48-13.48,4.28-26.04,10.57-38.22,17.67-.55.32-1.1.65-1.66.96-.13.07-.31.07-.54.12-.47-.86.27-1.1.76-1.38,4.03-2.28,8.03-4.64,12.14-6.78,9.08-4.74,18.39-8.96,28.25-11.86,2.68-.79,5.39-1.51,8.12-2.08,2.65-.56,5.34-.89,8.19-1.34-.23-.41-.38-.86-.67-1.17-6.7-7.3-13.23-14.77-20.83-21.19-3.91-3.3-7.84-6.6-12.4-8.99-6.01-3.16-12.5-4.78-19.14-5.93-7.76-1.34-15.58-1.71-23.41-1.3-9.2.48-18.27,1.92-26.93,5.28-7.19,2.79-13,7.43-17.82,13.37-6.79,8.34-11.55,17.8-15.21,27.86-.26.7-.54,1.4-.97,2.52-.73-3.04,5.01-15.89,10.39-24.14,4.82-7.38,10.57-13.83,18.42-18.37-1.5-1.54-2.94-2.92-4.26-4.39-3.63-4.04-6.62-8.48-7.34-14.01-.58-4.42.31-8.76,1.4-13.02.57-2.23,1.33-4.42,2.09-6.9-2.8,0-5.35.5-7.85,1.24-4.74,1.42-8.96,3.85-12.61,7.17-.96.87-1.75,2.1-2.21,3.31-2.46,6.5-4.78,13.05-7.16,19.59-2.68,7.36-5.27,14.75-8.08,22.05-3.06,7.93-3.87,16.08-3.21,24.49,1.02,12.98,4.29,25.5,7.55,38.03,3.3,12.68,6.49,25.39,10.22,37.95,2.52,8.49,5.72,16.78,8.92,25.05,4.01,10.35,8.19,20.65,12.58,30.85,2.43,5.64,5.38,11.06,8.24,16.51,2.05,3.92,4.79,7.35,7.97,10.44,5.61,5.46,11.21,10.94,16.73,16.5,1.91,1.92,3.67,4.01,5.29,6.18,2.63,3.51,3.6,7.33,2.13,11.73-1.08,3.22-2.27,6.32-4.37,9-.81,1.04-1.78,1.95-2.67,2.92l-.44-.33c.17-.35.27-.76.52-1.02,3.17-3.24,5-7.18,6.13-11.5.78-2.99.58-5.82-1.04-8.55-2.32-3.88-5.4-7.05-8.96-10.36-.3,2.71-.62,5.05-.82,7.41-.72,8.52-1.39,17.03-2.09,25.55-.04.47-.19.93-.29,1.39h-.96c.31-4.69.58-9.38.94-14.06.43-5.57.95-11.13,1.42-16.7.07-.8.04-1.6.12-2.39.2-1.83-.51-3.21-1.83-4.45-3.26-3.07-6.38-6.29-9.66-9.33-5.18-4.81-8.9-10.64-12.08-16.87-6.06-11.9-11.12-24.24-15.88-36.7-2.85-7.46-5.96-14.83-8.48-22.4-2.72-8.17-4.98-16.51-7.24-24.82-2.6-9.55-5.14-19.12-7.44-28.74-1.99-8.3-3.85-16.65-5.29-25.07-.77-4.53-.71-9.23-.68-13.86.03-3.96-.31-7.79-1.59-11.56-2.09-6.16-2.73-12.63-3.78-19.01-1.53-9.34-1.56-18.77-1.67-28.21-.13-12.23-.51-24.46-.67-36.68-.14-10.47-.22-20.92,1.23-31.36,1.83-13.1,7.17-24.25,17.12-33.09.96-.85,1.81-1.82,2.82-2.6,1.52-1.18,2.53-2.53,2.81-4.53.23-1.67,1.54-2.82,2.89-3.68,2.42-1.54,4.94-2.94,7.43-4.36.96-.54,1.98-.97,3.25-1.59-.78-2.07-1.49-3.99-2.21-5.91-2.82-7.47-5.75-14.9-8.44-22.41-2.06-5.76-2.8-11.8-2.95-17.9-.31-12.44,1.12-24.68,3.42-36.91,2.46-13.08,8.05-24.69,15.13-35.72,3.33-5.19,7.97-9.17,12.97-12.66,7.79-5.44,16.14-9.75,25.65-11.35C89.57.2,98.04-.24,106.51.12c5.66.24,11.31.83,16.94,1.47,7.46.85,14.91,1.77,22.32,2.91,3.7.57,7.37,1.48,10.94,2.61,3.7,1.18,7.3,2.72,10.86,4.31,4,1.78,7.94,3.73,11.85,5.71,3.35,1.69,6.56,3.6,9.22,6.34.75.78,1.75,1.32,2.64,1.98.25.18.63.34.71.59.66,2.08,2.47,3.24,3.77,4.81.6.73,1.02,1.61,1.62,2.33,2.58,3.11,4.25,6.81,6.59,10.08.83,1.16.98,2.8,1.53,4.18,1.35,3.39,2.83,6.72,4.09,10.14.6,1.63.69,3.45,1.27,5.09,1.57,4.43,1.61,9.01,1.6,13.61,0,2.24-.19,4.49-.02,6.71.15,1.94-.44,3.42-1.83,4.69-.52.48-.97,1.04-1.61,1.74,1.52,2.86,4.26,5.21,3.74,8.92.81.09,1.35.14,1.89.2,1.22.14,1.91-.34,2.25-1.58.31-1.15.87-2.23,1.33-3.33.77-1.84,2.25-2.6,4.14-2.76,2.28-.19,3.31.79,3.66,3.07.76,4.88-.38,9.5-1.6,14.15-1.17,4.45-2.5,8.85-3.94,13.21-.54,1.65-.59,3.15.22,4.83,1.11,2.28,1.99,4.69,2.73,7.11.51,1.65.56,3.44.89,5.15.87,4.5.36,9.05.55,13.57.11,2.59-.72,5.2-.79,7.81-.1,3.91-1.38,7.51-2.57,11.12-1.31,3.99-2.89,7.89-5.62,11.26-3.21,3.97-6.02,8.26-9.19,12.26-3.64,4.59-7.75,8.7-12.97,11.57-3.47,1.91-6.99,3.73-11.07,3.11-4.93-.75-9.7-.06-14.49.98-2.42.53-4.88.85-7.63,1.32-.99,2.58-2.13,5.29-3.07,8.07-.58,1.7-.18,2.26,1.73,2.58,3.78.63,7.58,1.09,11.36,1.71,1.56.25,3.07.78,4.62,1.09,2.18.43,4.38.74,6.56,1.17,5.02,1.01,9.86,2.61,14.46,4.85,4.09,1.99,8.12,4.11,12.18,6.15,6.97,3.5,13.34,7.89,19.23,12.97,4.44,3.84,9.37,6.91,14.44,9.81,3.05,1.74,6.13,3.42,9.15,5.21.63.37,1.38,1.04,1.51,1.69.27,1.4,1.19,1.79,2.3,2.06,8.45,2.06,16.93,4.02,25.35,6.2,8.73,2.26,17.4,4.74,26.1,7.13,2.23.61,4.45,1.21,6.71,1.83,1.35-1.35,2.69-2.59,3.92-3.94,4.31-4.72,8.66-9.41,12.85-14.23,5-5.76,8.78-12.37,12.45-19.01,3.63-6.57,7.06-13.25,10.49-19.93,3.51-6.83,6.25-13.99,8.88-21.19,3.12-8.55,6.03-17.18,9.4-25.62,3.32-8.3,7.09-16.41,10.69-24.59,3.47-7.89,7.11-15.71,10.43-23.66,2.84-6.8,3.98-14.12,5.95-21.19,2.7-9.68,5.38-19.37,8.25-29.01.91-3.05,2.29-5.96,3.6-8.87,1.26-2.81,3.2-5.16,5.58-7.1,1.92-1.56,3.86-3.13,5.95-4.44,4.52-2.83,9.57-3.94,14.85-3.84,1.03.02,2.19.52,3.05,1.12,1.51,1.05,1.76,2.64.75,4.21-.85,1.33-1.87,2.55-2.92,3.95,2.03.83,4.09.78,6.11.79.55,0,1.18-.42,1.63-.81,1.82-1.56,3.59-3.17,5.35-4.8,2.39-2.22,5.11-3.41,8.47-3.22,1.99.11,3.29.97,4.24,2.61,1.35,2.35,1.61,4.97.87,7.41-.62,2.07-.29,3.87.31,5.69,1.69,5.21,2.08,10.57,2.14,15.99.01,1.34.26,2.69.41,4.18.6.04,1.23.17,1.84.12,4.24-.38,7.9,1.25,11.16,3.61,2.5,1.81,4.74,4.03,6.89,6.27,1.87,1.95,2.22,4.41,1.09,6.91-.98,2.16-2.98,2.93-6.12,2.56-2.46-.29-4.91-.65-7.38-.84-1.73-.13-3.49-.03-5.23-.03-.53,1.65-.62,4.21-.23,7.02,2.12.6,4.34,1.23,6.55,1.86,3.16.89,6.27,1.92,8.96,3.87.9.65,1.7,1.44,2.56,2.15,2.34,1.9,2.27,4.47,1.76,7.03-.41,2.06-1.66,2.91-3.81,2.79-1.18-.06-2.35-.42-3.52-.66-.82-.17-1.64-.35-2.79-.59.16,1.06.17,1.77.37,2.41.65,2.16-.06,3.92-1.53,5.47-.66.69-1.34,1.38-2.06,2.01-5.82,5.04-10.06,11.25-13.78,17.93-2.23,4-3.87,8.21-5.47,12.47-2.24,5.96-4.73,11.82-6.82,17.83-1.88,5.38-4.8,10.21-7.46,15.18-1.4,2.61-3.32,4.92-5.68,6.74-4.72,3.67-8.1,8.32-10.65,13.67-1.86,3.89-3.84,7.71-5.78,11.56-.25.49-.56.95-.82,1.44-.29.53-.76,1.07-.79,1.63-.23,4.94-2.87,9.2-3.85,13.94-.89,4.28-2.26,8.45-3.39,12.68-1.19,4.45-2.34,8.91-3.5,13.37-1.28,4.93-2.54,9.86-3.82,14.79-1.08,4.15-2.47,8.25-3.19,12.47-.77,4.5-2.73,8.65-3.46,13.11-.71,4.34-2.4,8.4-3.33,12.67-.29,1.32-.47,2.66-.74,3.98-.12.62-.3,1.24-.5,1.84-1.17,3.55-2.64,7.03-3.47,10.65-.95,4.13-2.82,7.91-3.85,11.98-.33,1.3-.58,2.62-.9,3.93-.17.69-.31,1.42-.63,2.03-2.36,4.47-3.56,9.37-5.17,14.11-1.46,4.3-3.09,8.55-4.66,12.81-1.96,5.3-4.03,10.56-5.87,15.9-1,2.92-2.06,5.75-3.81,8.32-.38.56-.16,1.49-.42,2.16-1.96,5.02-3.41,10.23-5.7,15.14-1.17,2.51-1.85,5.26-2.84,7.86-2.32,6.13-4.79,12.22-8.9,17.41-3.6,4.54-8.43,7.01-14.14,8.3-7.65,1.73-15.09,1.41-22.68-.32-7.93-1.81-15.98-3.07-23.97-4.63-5.09-.99-10.17-2.1-15.25-3.14-.68-.14-1.37-.2-2.3-.33.67,3.83,1.31,7.43,1.91,11.02,1.7,10.08,3.4,20.16,5.05,30.25.6,3.68,1.1,7.39,1.53,11.1.24,2.06.23,4.14.34,6.21.22,4.03.44,8.07.66,12.1h-1.44Zm-112-102.3c.77.45,1.39.94,2.1,1.2,8.69,3.21,17.35,6.53,26.12,9.52,14.53,4.95,29.5,8.4,44.39,12.04,10.16,2.48,20.39,4.64,30.58,6.96,15.03,3.43,30.06,6.84,45.32,9.05,5.86.85,11.75,1.23,17.66.34,5.53-.84,10.41-2.94,14.29-7.12,3.26-3.51,5.48-7.63,7.2-12.05,1.07-2.75,2.12-5.51,3.18-8.26,3.85-10.04,7.8-20.05,11.54-30.13,7.92-21.33,15.8-42.68,22.22-64.53,2.21-7.51,4.83-14.9,6.8-22.46,5.94-22.79,11.59-45.65,17.52-68.45,1.58-6.08,3.42-12.13,5.69-17.98,2.27-5.86,4.94-11.59,8.27-16.98,1.74-2.81,3.52-5.52,6.13-7.59,3.79-3.02,7.05-6.58,9.38-10.78,2.36-4.25,4.41-8.7,6.22-13.22,2.78-6.97,5.13-14.11,7.89-21.09,1.52-3.85,3.27-7.65,5.3-11.25,3.87-6.88,8.94-12.85,14.95-17.97,1.24-1.06,1.48-2.17,1.18-3.59-.12-.55-.28-1.08-.47-1.61-.79-2.23-1.47-2.75-3.73-2.26-2.49.54-5.02,1.11-7.35,2.1-5.44,2.31-10.77,4.87-16.14,7.33-.57.26-1.11.88-2.05.17.52-.38.86-.69,1.26-.89,6.19-3.18,12.41-6.25,19.02-8.49,4.53-1.54,9.04-1.7,13.67-.46,1.26.34,2.67.3,4,.23,1.03-.06,1.81-.8,1.96-1.83.27-1.93.28-3.86-1.37-5.32-.84-.74-1.64-1.53-2.55-2.16-4.39-2.99-9.45-4.14-14.52-5.31-2.79-.65-5.53-.64-8.28.14-5.22,1.5-10.45,2.98-15.66,4.5-.67.2-1.31.56-1.92.92-1.02.61-2.98.84-4.74.36.59-.29.97-.54,1.39-.67,2.22-.7,4.3-1.59,6.18-3.06,3.14-2.46,6.44-4.74,9.64-7.12,3.46-2.57,7.16-4.53,11.58-4.7,2.07-.08,4.15-.09,6.21.02,2.95.17,5.88.51,8.83.73,1.28.1,2.52.04,3.51-1.07,1.7-1.91,1.77-4.12-.1-6.23-1.43-1.61-2.9-3.23-4.56-4.59-4.26-3.47-8.95-5.8-14.71-5.1-7.96.97-15.42,3.44-22.38,7.38-7.37,4.18-14.67,8.48-22,12.71-.47.27-1.02.41-1.53.6-.08-.17-.17-.34-.25-.5.55-.4,1.07-.84,1.65-1.19,3.43-2.05,6.85-4.12,10.31-6.11,1.14-.66,1.93-1.5,2.64-2.63,4.17-6.63,8.36-13.25,12.74-19.73,2.74-4.05,6.19-7.52,10-10.61,2.14-1.74,3.97-3.69,4.86-6.39.85-2.57.71-5.04-.61-7.4-.69-1.24-1.64-2.15-3.24-2.05-2.61.16-5.08.75-7.1,2.5-3.08,2.67-6.17,5.33-9.15,8.1-8.97,8.33-16.97,17.54-24.35,27.29-2.6,3.44-5.03,7.01-7.42,10.6-3.32,4.99-6.41,10.13-9.82,15.05-2.48,3.58-4.05,7.4-4.47,11.72-1.12,11.47-3.41,22.72-6.05,33.93-3.52,14.93-8.59,29.26-15.36,43.01-4.42,8.97-8.42,18.14-11.13,27.78-3.33,11.8-7.7,23.2-12.7,34.37-6.33,14.14-11.98,28.62-19.52,42.2-5.11,9.22-10.45,18.32-15.92,27.33-2.94,4.84-6.31,9.43-9.6,14.06-5.09,7.17-10.26,14.28-15.42,21.39-1.16,1.6-2.41,3.15-4.65,3.62.47,1.93.85,3.72,1.33,5.48.47,1.69.99,3.38,1.59,5.03.63,1.73,1.34,3.42,2.07,5.1.7,1.61,1.49,3.18,2.21,4.79.71,1.6,2.08,2.93,2.27,5.01-3.16-2.61-8.34-15.34-10.63-25.79-2.86-1.17-5.79-2.23-8.6-3.56-8.81-4.19-17.77-8-27.05-11.05-.52-.17-1.24-.36-1.43-.76-.58-1.2-1.7-1.35-2.73-1.73-2.32-.86-4.64-1.72-6.97-2.56-2.99-1.08-5.99-2.13-9.12-3.24-1.43,1.75-2.84,3.37-4.13,5.08-4.91,6.51-9.74,13.08-14.68,19.56-6.05,7.95-12.19,15.84-19.22,22.97-5.78,5.86-11.78,11.5-17.63,17.29-3.23,3.2-6.34,6.51-9.83,10.09Zm-34.43-312.06c.31-.86.51-1.38.68-1.9,2.64-8.1,6.24-15.74,11.02-22.8,2.16-3.19,4.7-6.06,7.72-8.47,2.27-1.81,4.72-3.37,7.71-3.59,1.41-.1,2.86.1,4.28.26,1.33.14,2.36-.25,3.05-1.42.85-1.44,1.83-2.83,2.5-4.35,3.52-7.99,5.24-16.4,5.55-25.11.1-2.71.27-5.42.51-8.13.08-.96.05-2.09,1.19-2.68,1.25.73,1.45,1.98,1.74,3.09,2.97,11.45,3.22,22.88-.43,34.25-.85,2.66-.1,3.87,2.69,3.86,2.39,0,4.77-.43,7.16-.5,1.64-.04,2.56-.86,2.96-2.28.66-2.29,1.42-4.6,1.72-6.95.5-3.87.61-7.79,1-11.69.18-1.82.54-3.63.96-5.41.19-.8.46-1.76,1.99-1.68.1.7.29,1.44.29,2.18,0,2.16.02,4.32-.14,6.47-.41,5.65-.66,11.33-1.47,16.93-.41,2.84.27,4.42,3.81,4.36.32,0,.64,0,.96-.02,3.26-.28,6.5-.51,9.79-.05,2.65.37,4.28-1.15,4.4-3.83.32-7.44.12-14.78-2.17-22.04-3.66-11.63-8.41-22.6-16.69-31.78-2.58-2.86-5.22-5.69-8.56-7.63-4.83-2.81-9.74-5.5-14.76-7.95-5.67-2.78-11.57-5.06-17.79-6.34-8.92-1.83-17.91-3.21-26.99-4.03-4.53-.41-9.04-1.11-13.57-1.37-8.55-.49-17.09-.35-25.59.87-5.8.83-11.51,2-16.73,4.79-3.66,1.96-7.29,4.01-10.78,6.24-5.22,3.33-10.06,7.19-13.45,12.45-4.07,6.31-7.83,12.8-10.54,19.87-2.94,7.66-4.7,15.59-5.96,23.65-1.64,10.52-2.71,21.07-1.77,31.74.59,6.63,1.71,13.17,4.09,19.4,2.54,6.64,5.29,13.2,7.93,19.8.38.96.88,1.94.97,2.94.39,4.16,2.49,7.12,5.97,9.3,1.82,1.14,3.57,2.43,5.24,3.79,3.01,2.47,4.76,5.55,4.29,9.62-.11.95-.05,1.92,0,2.88.18,3.49,1.11,6.77,2.9,9.78,1.17,1.98,2.71,3.71,5.01,4.21,2.48.54,5.04.81,7.58.92,1.9.08,3.35-.99,4.08-2.81.33-.81.6-1.66.76-2.51.94-4.82.86-9.69.45-14.56-.37-4.45-.8-8.91-1.1-13.37-.32-4.85.47-9.42,4.01-13.13-.23-.59-.41-1.11-.64-1.62-3.4-7.66-2.11-14.84,2.4-21.58,1.73-2.59,4.19-4.36,7.41-4.87,3.13-.5,6.01.37,8.87,1.45,2.16.82,4.27,1.8,6.46,2.54,5.14,1.74,10.32,3.39,15.49,5.06,3.79,1.23,7.58,2.43,11.58,3.71Zm-105.29,35.44c-2.76,2.67-5.61,5.24-8.24,8.01-4.14,4.39-7.62,9.24-9.63,15.02-3.05,8.75-4.66,17.77-4.81,27.01-.13,8.23.11,16.46.22,24.69.14,9.75.37,19.49.47,29.24.09,8.63-.15,17.27,1.16,25.84,1.22,7.97,2.03,16.02,4.71,23.69.17.48.42.93.71,1.57.89-2.84,1.61-5.45,2.52-7.99,2.34-6.54,4.85-13.03,7.15-19.59,4.12-11.77,8.27-23.51,13.48-34.85.47-1.01.95-2.03,1.56-2.96,1.13-1.72,2.65-2.94,4.76-3.36,3.13-.62,6.25-1.26,9.36-2.01,5.8-1.39,11.52-1.34,17.26.42,9.98,3.06,19.33,7.57,28.69,12.06,6.49,3.11,12.94,6.21,20.03,7.83,9.85,2.25,19.81,3.4,29.88,3.9,6.54.33,12.9-.69,19.2-2.22,1-.24,1.98-.66,2.89-1.14,3.76-1.96,4.86-6.54,2.45-10.02-1.68-2.43-4.02-4.09-6.52-5.54-1.11-.65-2.28-1.2-3.85-2.01.48,1.65.79,2.73,1.11,3.82-.7-.13-1.07-.42-1.22-.79-1.16-2.81-2.45-5.58-3.33-8.47-.59-1.94-.89-4.09-.78-6.12.4-7,2.37-13.66,4.9-20.16.2-.51.35-1.03.59-1.74-2.31-.17-3.96-1.33-5.37-2.92-1.07-1.19-2.22-2.3-3.26-3.51-5.39-6.28-10.2-12.92-12.93-20.86-.25-.72-.76-1.39-1.27-1.98-4.2-4.82-8.23-9.78-11.76-15.13-.5-.76-1.29-1.4-2.08-1.87-2.76-1.61-5.6-3.08-8.36-4.69-2.57-1.5-5.2-2.76-8.23-3.05-1.26-.12-2.5-.53-3.74-.82-5.54-1.29-10.6-3.53-14.76-7.54-2.78-2.67-5.23-5.61-7.29-8.87-.42-.66-.86-1.3-1.55-2.36-.92,1.7-1.91,3.01-2.35,4.48-.59,1.96-1.1,4.07-1.04,6.09.16,4.7.69,9.39,1.06,14.08.44,5.51.61,11-.44,16.48-.22,1.15-.33,2.39-.16,3.53.8,5.44.58,10.84-.4,16.22-2.04,11.14-6.82,21.1-13.53,30.13-2.47,3.33-5.26,6.43-7.95,9.59-.49.57-.93,1.5-2.23,1.07,2.01-2.27,3.9-4.4,5.71-6.45-1.01-2.5-2.02-4.76-2.84-7.08-.45-1.26-.72-2.62-.83-3.96-.2-2.38-.2-4.78-.31-7.17-.34-6.92-1.78-13.63-4.35-20.04-2.35-5.88-3.52-11.93-3.37-18.24.03-1.1,0-2.21,0-3.61-1.92,1.1-3.29.17-4.52-.89-2.6-2.24-5.12-4.58-7.68-6.87-2.86-2.55-5.73-5.08-8.9-7.89Zm155.17,68.82c.6.77.79,1.14,1.08,1.37,3.5,2.78,6.95,5.65,10.57,8.27,2.63,1.91,4.85,4.13,6.74,6.74,4.58,6.32,7.95,13.29,11.14,20.36.2.45.19.99.27,1.49-.17.07-.34.13-.51.2-.34-.67-.66-1.34-1.01-1.99-2.94-5.58-5.78-11.22-8.87-16.71-2.29-4.08-5.52-7.33-9.4-10.07-3.96-2.8-7.57-6.12-11.3-9.24-.81-.68-1.58-1.14-2.72-1.25-3.65-.34-7.29-.84-10.93-1.35-2.65-.37-5.29-.87-8.28-1.36-.56,3.32-1.2,6.52-1.61,9.74-.44,3.41.29,6.67,1.75,9.78.39.84.85,1.45,1.73,1.83,5.64,2.45,10.29,6.08,13.45,11.47,1.61,2.75,3.38,5.42,4.89,8.22,1.51,2.81.94,5.36-1.43,7.56-6.76,6.27-14.77,8.86-23.81,7.52-4.79-.71-9.51-2.11-14.18-3.48-16.8-4.92-33.25-10.89-49.68-16.9-5.47-2-10.95-4.01-16.51-5.77-6.06-1.92-12.31-2.63-18.78-2.2-1.82,3.63-2.89,7.46-3.52,11.41-.51,3.24-1.1,6.52-.35,9.77,1.64,7.1,6.14,12.28,11.15,16.59,4.75-1.5,9.01-3.15,13.42-4.18,9.05-2.13,18.25-2.95,27.57-2.55,6,.26,11.95.87,17.83,2.06,8.5,1.72,16.32,4.91,23.17,10.4,7.07,5.67,13.54,11.93,19.67,18.58,4.22,4.58,8.42,9.22,13.02,13.4,7.84,7.12,16.76,12.78,25.97,17.96,5.72,3.22,11.63,6.01,17.99,7.8,2.76.78,5.45,1.83,8.13,2.85,1.43.54,2.65,1.37,3.51,2.77.37.6,1.16,1.07,1.86,1.33,4.79,1.77,9.61,3.48,14.43,5.19.47.17.99.21,1.68.35-.48-2.29-.91-4.31-1.32-6.34-2.28-11.51-4.36-23.07-6.9-34.53-1.69-7.63-4-15.13-6.09-22.67-.19-.7-.99-1.24-1.18-1.94-.21-.79.14-1.73-.08-2.51-1.08-3.93-2.26-7.83-3.42-11.73-1.43-4.83-2.88-9.64-4.27-14.48-.19-.67-.69-1.43.21-2.57.38,1.12.68,1.9.92,2.7,2.41,8.2,4.82,16.4,7.24,24.6.14.48.42.92.76,1.66,1.14-1.52,2.13-2.76,3.03-4.07,4.51-6.59,9.01-13.19,13.46-19.82,1.23-1.82,1.76-3.91,1.76-6.18-.4-.26-.78-.54-1.18-.78-5.39-3.13-10.79-6.22-16.15-9.39-1.5-.89-2.87-2.01-4.27-3.07-4.7-3.58-9.17-7.51-14.12-10.7-9.15-5.89-18.93-10.64-29.2-14.29-2.21-.78-4.57-1.14-7.37-1.82Zm137.96,113.11c.41-.62.7-1,.93-1.42,5.09-8.96,10.63-17.7,15.16-26.94,6.57-13.41,12.49-27.14,18.55-40.79,3.79-8.55,7.25-17.24,9.83-26.24,2.91-10.17,6.44-20.08,11.16-29.55,3.71-7.45,7.15-15.03,9.91-22.86,6.34-17.99,10.66-36.47,12.67-55.46.55-5.2,2.08-9.92,5.24-14.19,2.51-3.4,4.62-7.09,6.98-10.61,3.29-4.91,6.57-9.84,10.03-14.62,1.23-1.69,1.83-3.39,2.13-5.43.52-3.54,1.15-7.1,2.15-10.54,1.5-5.15,4.48-9.31,9.29-12.01,1.46-.82,2.86-1.78,4.14-2.86,1.27-1.07,2.47-2.28,3.46-3.6,1.13-1.5.48-3.15-1.33-3.71-.67-.21-1.42-.27-2.13-.24-9.89.42-17.54,4.99-23.1,12.98-1.57,2.25-2.57,4.97-3.44,7.61-4.3,12.97-8.06,26.1-11.3,39.38-1.46,5.98-3.06,11.93-5.55,17.57-3,6.8-6.18,13.51-9.25,20.28-5.97,13.17-11.72,26.43-16.39,40.15-4.51,13.25-9.48,26.32-16.29,38.6-3.95,7.13-7.78,14.33-11.94,21.33-5.09,8.57-11.91,15.8-18.71,23.03-1.69,1.8-3.42,3.56-5.12,5.32.6,1.29,1.26,2.4,1.65,3.59,2.02,6.09,3.32,12.33,3.86,18.73.03.39-.14.8-.22,1.2-.19,0-.37.01-.56.02-.12-.72-.29-1.43-.36-2.15-.55-5.83-1.87-11.5-3.52-17.1-.72-2.44-2.12-3.78-4.69-4.45-16.14-4.24-32.23-8.65-48.34-12.99-3.15-.85-6.32-1.6-9.25-2.33-1.94,3.29-3.59,6.49-5.6,9.43-4.06,5.94-8.27,11.77-12.52,17.57-.95,1.29-1.17,2.39-.73,3.94,2.15,7.61,4.19,15.25,6.2,22.89.29,1.1.77,1.64,1.88,1.8,1.82.25,3.64.54,5.43.9,9.08,1.82,18.15,3.7,27.23,5.51,10.26,2.05,20.52,4.06,30.78,6.07,3.83.75,7.68,1.43,11.66,2.17Zm-177.54-152.64c-.05.19-.16.37-.11.48.37.88.72,1.77,1.17,2.62,3.43,6.47,7.78,12.26,12.84,17.54,1.97,2.05,3.9,3.89,7.01,2.27.06-.03.16,0,.24-.01,2.83-.45,5.68-.83,8.5-1.36,3.86-.73,7.72-1.46,11.65-.78,2.95.51,5.71.05,8.43-1.04,5.22-2.09,9.63-5.3,13.34-9.51,4.6-5.23,8.65-10.87,12.47-16.69,4.25-6.48,6.56-13.65,7.49-21.27.44-3.64.59-7.32.67-10.99.11-5.12-.12-10.19-1.73-15.16-2.29-7.05-5.77-13.5-9.35-19.92-.11-.19-.33-.32-.71-.68-.26.9-.52,1.61-.67,2.35-.49,2.51-.9,5.03-1.42,7.53-.48,2.29-1.28,4.46-2.79,6.3-2.92,3.54-6.97,3.21-9.18-.79-.57-1.03-1.05-2.19-1.24-3.35-.46-2.75-.72-5.53-1.05-8.3-.07-.6-.12-1.19-.22-2.16-11.89,5.57-24.08,9.5-36.55,13.06.29,1.4.28,2.6.78,3.53.84,1.55,1.05,3.25,1.53,4.88,1.86,6.36,3.78,12.71,5.36,19.14.64,2.59.53,5.38.66,8.09.11,2.36-1,4.19-2.94,5.43-4.79,3.07-9.76,5.83-15.37,7.1-3.17.72-6.41,1.18-9.93,1.81,1.01,2.05,2.05,4.08,3.02,6.15.99,2.1,2.33,4.08,2.74,6.66-2.49.08-2.96-2.31-4.6-2.92Zm-18.26,289.15c2.57-4.6,6.07-8.19,9.74-11.65,3.55-3.34,7.14-6.64,10.61-10.06,7.63-7.51,15.16-15.12,22.79-22.63,7.29-7.18,14.63-14.3,21.98-21.42,7.88-7.64,14.78-16.14,21.47-24.82,6.58-8.55,13.06-17.17,19.6-25.75,1.22-1.61,1.15-2.41-.75-3.37-4.21-2.13-8.76-3.31-13.06-4.6-2.64,2.86-5.04,5.54-7.51,8.14-4.51,4.75-9.21,9.33-13.58,14.2-15.73,17.57-31.96,34.66-48.33,51.63-10.82,11.21-21.32,22.73-31.95,34.12-1.3,1.39-2.52,2.85-3.86,4.38,4.31,3.96,8.47,7.79,12.86,11.82Zm194.8-135.1c-3.42-1.14-73.44-14.6-75.05-14.44.08.69.11,1.4.25,2.08,2.33,11.49,4.69,22.98,6.98,34.48.3,1.49.89,2.29,2.4,2.82,3.69,1.28,7.39,2.61,10.9,4.31,7.18,3.48,14.37,6.93,21.94,9.49,4.67,1.58,4.02,1.6,6.67-2.02,6.6-9.02,13.03-18.17,19.49-27.29,2.16-3.05,4.22-6.18,6.43-9.43ZM130.57,123.67c-.28.43-.46.61-.52.83-2.32,8.93-2.94,17.94-1.17,27.04,1.22,6.23,3.59,12.08,6.06,17.89.72,1.7,1.68,3.03,3.44,3.72.59.23,1.39.49,1.62.97.76,1.58,2.01,1.26,3.25,1.09,7.51-1.06,14.23-4.1,20.46-8.31,1.2-.81,1.93-1.98,1.91-3.42-.04-2.63.06-5.3-.4-7.87-1.28-7.16-3.39-14.12-5.79-20.99-.52-1.49-1.35-2.15-2.76-2.59-5.34-1.66-10.64-3.42-15.96-5.13-3.34-1.07-6.68-2.13-10.14-3.24Zm-20.43-1.37l-.33.38c-.43-.27-.95-.46-1.28-.82-.77-.81-1.47-1.68-2.16-2.56-4.21-5.31-9.92-7.88-16.43-8.91-3.32-.52-6.16.65-8.44,3.05-4.58,4.81-6.95,15.1-3.41,21.73.83,1.56,1.54,3.19,2.52,4.66,1.25,1.85,2.51,3.72,3.95,5.41,3.3,3.87,7.1,7.17,11.98,8.9,4.45,1.58,9.02,2.71,13.72,3.25,2.82.32,5.58.14,8.08-1.77-2.25-5.58-2.64-11.55-3.27-17.51-.44-4.2-1.12-8.38-1.91-12.53-.32-1.69-1.1-3.32-1.87-4.88-.64-1.29-1.84-1.8-3.75-1.53,1.03,1.23,1.82,2.17,2.61,3.11Zm85.65-18.37c.14-.99.24-2.02.42-3.03.31-1.73.48-3.51,1.04-5.15,1.2-3.53,3.62-5.78,7.49-6.14.92-.08,1.85-.01,2.78-.01.44-1.22.02-1.91-1.21-2-1.99-.14-3.98-.27-5.96-.28-1.83,0-3.68.35-5.48.19-3.32-.29-4.38-1.69-3.81-4.96,1.14-6.56,1.28-13.18,1.47-19.81.02-.84,0-1.68,0-2.52-.16,0-.33-.02-.49-.03-.11.52-.27,1.04-.31,1.56-.3,3.82-.39,7.66-.9,11.45-.44,3.22-1.28,6.4-2.12,9.55-.37,1.41-1.28,2.69-2.91,2.87-2.77.3-5.56.65-8.34.61-3.3-.05-4.51-2.01-3.55-5.19.39-1.3.91-2.57,1.21-3.88,1.72-7.48,1.87-15.04.83-22.62-.38-2.74-.91-5.46-2.15-8.04-.35,1.55-.59,3.08-.61,4.63-.12,8.2-1.23,16.24-3.84,24.03-1.12,3.34-2.44,6.59-4.49,9.49-1.18,1.67-2.66,2.44-4.73,1.98-3.32-.73-6.3.07-9.08,1.98-5.14,3.52-8.74,8.36-11.77,13.68-.25.44-.39.95-.66,1.63h57.19Zm0,1.44c-.6-.12-.83-.21-1.06-.21-18.53-.01-37.06,0-55.6-.04-1.13,0-1.71.43-2.21,1.39-2.46,4.68-4.39,9.58-5.98,14.61-.13.42-.08.9-.13,1.51,9.09,2.88,18.03,5.94,27.32,8.77-.31-1.95-.54-3.47-.79-5.05,6.55-2.05,12.91-3.91,19.17-6.05,6.34-2.16,12.56-4.64,18.66-7.63.21-2.45.41-4.81.63-7.31ZM29.87,257.51c.79-.35,1.04-.4,1.22-.55,7.56-5.94,16.31-7.62,25.68-7.44,7.48.15,14.52,2.11,21.46,4.57,14.46,5.12,28.82,10.5,43.34,15.46,8.46,2.89,17.1,5.23,25.71,7.66,8.41,2.38,16.31.95,23.6-3.77,1.46-.94,2.74-2.19,3.96-3.43,1.35-1.38,1.64-3.11.82-4.88-.88-1.88-1.84-3.72-2.86-5.52-.6-1.07-1.38-2.04-2.36-3.47-.61,5.38-3.57,7.86-8.09,8.86-5.15,1.14-10.27,2.3-15.61,2.21-9.69-.16-19.29-1.11-28.8-2.97-5.73-1.13-11.38-2.58-16.71-5.01-4.72-2.16-9.35-4.52-14.06-6.71-7.1-3.31-14.23-6.52-21.72-8.9-5.53-1.76-11.07-2.25-16.76-.88-3.49.84-7,1.61-10.52,2.3-2,.39-3.36,1.53-4.19,3.25-1.38,2.86-2.6,5.79-4.13,9.24Zm44.32-74.9c-2.75,2.86-6,2.26-9.28,1.91-2.91-.32-5.32-1.37-7.36-3.53-1.93-2.05-2.95-4.51-3.58-7.14-.51-2.13-.72-4.34-1.11-6.78-2.07,1.75-4.01,3.36-5.89,5.03-.31.28-.49.84-.51,1.28-.12,2.71-.33,5.42-.23,8.13.15,4.1,1.42,8,2.57,11.89.64,2.18,1.83,4.2,2.47,6.38,2.03,6.93,2.99,14.03,2.89,21.26-.06,4.12,1.79,7.57,3.48,11.18.41-.28.57-.35.67-.47,8.69-11.07,14.79-23.28,16.32-37.46.41-3.81.49-7.63-.41-11.67Zm30.08-67.46c.94,1.74,1.95,2.55,3.54,2.64,2.81.16,4.54,1.76,5.39,4.36.49,1.52,1.1,3.03,1.33,4.59.71,4.81,1.46,9.63,1.84,14.47.64,8.12,2.92,15.67,7.1,22.63.55.91,1.4,1.74,2.3,2.3,2.17,1.34,4.45,2.52,6.69,3.73.45.24.96.35,1.85.67-3.35-7.79-6.27-15.27-7.18-23.36-.91-8.09.21-16.02,2.04-23.99-8.36-2.7-16.44-5.31-24.9-8.04Zm107.66-12.64c.01-2.77-.37-5.45-1.32-8.02-1.1-2.99-3.79-4.4-6.89-3.67-1.95.46-3.64,1.42-4.5,3.26-.73,1.57-1.35,3.25-1.65,4.95-.44,2.51-.57,5.07-.8,7.61-.43,4.61-.87,9.22-.15,13.84.39,2.53.76,5.07,2.1,7.31,1.28,2.14,3.39,2.72,5.54,1.45.86-.51,1.71-1.26,2.19-2.11.78-1.37,1.46-2.87,1.81-4.4,1.09-4.74,2.04-9.51,2.95-14.29.37-1.95.49-3.95.72-5.92Zm-173.87,43.28c-4.07,1.88-7.72,3.53-10.87,6.05-2.7,2.16-2.84,5.15.12,7.39,2.6,1.97,4.92,4.32,7.37,6.48,2.34,2.06,4.69,4.1,7.03,6.16,1.13.99,2.33,1.03,3.48.12,2.07-1.62,4.17-3.23,6.11-4.99,2.32-2.11,2.47-3.24,1.02-6.07-.47-.91-1.07-1.81-1.8-2.51-1.26-1.21-2.6-2.37-4.05-3.36-3.5-2.39-7.2-4.56-8.42-9.27Zm424.16-72.81c-2.24,2-4.24,3.82-6.27,5.59-.75.66-.89,1.45-.82,2.37.26,3.5.47,7.01.75,10.5.13,1.65.36,3.29.56,5.07,3.16-.7,6.16-1.37,9.44-2.1-.97-7.1-.5-14.36-3.66-21.43Zm-243.71,49.34c.39-.77.62-1.1.73-1.46,1.77-6.13,3.71-12.21,5.21-18.41.66-2.74.59-5.69.56-8.54-.01-1.79-1.3-2.44-3.03-1.91-1.38.43-2.32,1.31-2.89,2.65-1.38,3.25-2.45,6.56-2.78,10.1-.25,2.7-.65,5.38-.88,8.08-.11,1.25-.3,2.64.11,3.76.67,1.85,1.79,3.53,2.96,5.73Zm235.52-41.08c-.21-.06-.41-.11-.62-.17-6.75,7.3-11.47,16.01-16.5,24.53,6.02-3,12.05-6,18.4-9.15-.4-4.84-.84-10.02-1.27-15.21ZM122.09,477.33c1.91.48,3.04-.57,4.04-1.48,3.48-3.18,6.99-6.33,10.22-9.75,2.79-2.96,5.2-6.27,7.79-9.41,4.21-5.11,8-10.59,13.12-14.91.86-.73,1.66-1.62,1.77-2.88-2.42,2.12-4.69,4.34-6.96,6.57-4.91,4.81-9.83,9.61-14.72,14.43-3.81,3.76-7.65,7.49-11.37,11.34-1.64,1.71-2.89,3.75-3.89,6.09ZM437.48,73.76c-.7-.12-1.2-.26-1.7-.27-2.23-.03-4.46-.06-6.68.01-.82.03-1.9.09-2.39.59-.85.88-1.83,2.09-1.88,3.2-.15,3.13.15,6.29.29,9.82,4.25-4.59,8.21-8.87,12.37-13.35ZM126.63,167.85c1.47,4.01,12.62,17.46,15.54,19.34,0-.15.05-.32,0-.44-2.2-4.52-4.4-9.03-6.64-13.53-.2-.4-.57-.79-.95-1.01-2.63-1.48-5.29-2.92-7.94-4.37Zm340.49-48.46v-6.33c-3.25-.05-5.89,1.1-8.38,2.8-2.54,1.74-2.81,2.42-1.82,5.46,3.34-.63,6.68-1.27,10.2-1.93Zm-38.93-47.22c.92.18,1.33.33,1.75.34,2.07.03,4.16-.18,6.2.06,3.07.37,4.52-1.54,6.32-3.91-2.65-.23-4.91-.45-7.18-.61-.45-.03-1,.06-1.37.29-1.8,1.14-3.55,2.36-5.73,3.83Zm-214.99,27.82c-.31,2.99-.4,5.77-.92,8.48-.42,2.17.61,3.51,1.94,5.33.57-4.83,1.08-9.25,1.62-13.81h-2.63Zm-91.7,63.81c.12-.15.25-.29.37-.44-1.05-2.18-2.1-4.37-3.13-6.51-1.93.75-3.68,1.44-5.78,2.26,3.05,1.67,5.79,3.18,8.54,4.69Zm299.73-71.5c.94-1.25,2.38-2.38,2.7-3.77.6-2.56-.1-5.21-.47-7.84-1.71,3.61-2.27,7.42-2.23,11.61Zm33.95,26.43c-2.49,1.1-5.76,3.56-6.93,5.29,2.49-.76,4.75-1.44,6.93-2.11v-3.18Zm-315.37,56.26c-1.07-.45-1.7-.72-2.56-1.08.36,1.5.86,2.1,2.56,1.08Z"/>
  <path class="cls-1" d="m97.83,536.51c1.72-2.68,3.5-5.33,5.14-8.05,3.13-5.18,6.24-10.39,9.25-15.64.82-1.44,1.41-3.04,1.89-4.63.55-1.81-.11-2.9-1.99-2.96-1.88-.05-3.77.35-5.65.61-.66.09-1.3.38-2.16.21.3-.27.57-.7.92-.78,2-.48,4-1.2,6.02-1.25,3.36-.09,4.83,2.04,3.65,5.15-.96,2.52-2.07,5.04-3.47,7.33-4.12,6.73-8.42,13.34-12.66,20.01h-.96Z"/>
  <path class="cls-1" d="m220.22,329.15c-1.62-1.35-31.46-51.84-35.37-59.87-.18-.37-.17-.82-.35-1.73.6.52.89.67,1.03.9,11.66,20.11,23.3,40.23,34.93,60.35.03.05-.15.23-.24.36Z"/>
  <path class="cls-1" d="m163.28,173.75c.35-.07.72-.25,1.05-.2,6.99,1.19,14.02.52,21.03.36,5.91-.13,11.81-.41,17.71-.65,3.35-.13,6.7-.32,10.05-.45.52-.02,1.04.09,1.63.49-.37.15-.74.4-1.12.42-3.11.19-6.22.36-9.33.48-5.11.2-10.21.37-15.32.53-5.43.17-10.86.4-16.28.44-2.78.02-5.57-.33-8.36-.54-.37-.03-.72-.23-1.08-.36v-.53Z"/>
  <path class="cls-1" d="m220.55,138.2c-3.81,2.96-7.82,5.68-11.98,8.09-11.64,6.76-24.3,11.22-36.85,15.9-.24.09-.56-.04-.99-.52.66-.3,1.32-.64,2-.91,6.53-2.57,13.07-5.11,19.59-7.69,9.25-3.66,17.82-8.54,25.89-14.34.6-.43,1.24-.82,1.87-1.23.16.23.31.46.47.69Z"/>
  <path class="cls-1" d="m183.08,202.52c-.79,0-1.09.09-1.21-.01-8.25-6.93-16.48-13.87-24.7-20.82-.2-.17-.24-.51-.17-.94,3.04,2.09,5.73,4.59,8.53,6.93,2.94,2.46,5.88,4.9,8.8,7.39,2.79,2.39,5.74,4.61,8.76,7.46Z"/>
</svg>