<?xml version="1.0" encoding="UTF-8"?>
<svg id="Others" xmlns="http://www.w3.org/2000/svg" xmlns:xlink="http://www.w3.org/1999/xlink" viewBox="0 0 288.26 381.24">
  <defs>
    <style>
      .cls-1, .cls-2, .cls-3, .cls-4 {
        fill: none;
      }

      .cls-2 {
        stroke-width: .75px;
      }

      .cls-2, .cls-4 {
        stroke: #1d1d1b;
        stroke-miterlimit: 10;
      }

      .cls-3 {
        clip-path: url(#clippath);
      }

      .cls-4 {
        stroke-width: .5px;
      }
    </style>
    <clipPath id="clippath">
      <rect class="cls-1" x="19.92" y="75.32" width="262.62" height="267.52" transform="translate(302.46 418.16) rotate(-180)"/>
    </clipPath>
  </defs>
  <g class="cls-3">
    <g>
      <path class="cls-4" d="m251.12,160.41s-4.47-2.15-6.62-2.15-6.77-1.32-8.6-1.15c-1.81.16-6.11,2.81-7.6,4.96s-6.61,2.31-7.77,3.3c-1.15.98-4.62,7.94-6.45,10.41-1.81,2.49-6.94,3.15-14.71,6.11-7.77,2.98-13.89,3.81-21.33,5.63-7.43,1.81-9.26,3.13-12.56,4.79-3.3,1.64-12.24,4.79-17.03,6.28-3.2,1-7.88,1.26-11.32,1.3-1.71.04-3.12.03-3.89.03-2.32,0-7.11-2.98-9.43-2.98s-3.96,1-6.94,0c-1.39-.45-1.84-.98-1.81-1.37.03-.45.7-.7,1.32-.43,1.15.52,3.96-1.33,5.62-1.18,1.64.17,5.78,1.33,7.68,1.17,1.89-.17,4.22-4.13,6.37-7.6,2.15-3.48,8.43-12.07,9.09-14.22s-1-6.96-2.41-10.75c-.78-2.1-1.72-4.21-2.56-6.09-.67-1.52-1.27-2.89-1.64-4-.83-2.47-.17-2.81,1.17-3.8,1.32-1,1.15-1.33,1.15-3.32s.17-3.3.83-5.13c.66-1.81,1.49-3.13.83-5.45s-2.81-10.75-2.81-13.56c0-.73-.12-1.8-.35-3.07-.66-3.67-2.24-8.9-4.46-11.48-2.97-3.47-20.83-9.58-20.83-9.58,0,0-6.94-2.98-12.07-3.98-5.13-.98-13.07.34-17.86,1.83-4.79,1.48-13.06,10.58-15.04,13.89-1.99,3.3-5.62,10.91-5.13,15.37.49,4.47-1.92,13.73-.05,20.01s2.37,8.43,3.52,12.56c1.15,4.13,2.98,6.94,3.3,9.26.05.4.05.84,0,1.31-.19,1.81-1.05,3.94-1.36,4.69-.08.18-.13.28-.13.28"/>
      <path class="cls-4" d="m92.86,184.94c7.28,4.82,16.55,11.35,16.55,11.35,0,0,11.46,8.87,13.51,10.14,2.03,1.27,0,4.12,0,4.12"/>
      <path class="cls-4" d="m38.69,277.85c-.04-.73-.05-1.41-.04-2.02.16-5.62.16-14.22.98-22.65.83-8.43,1.83-21.99,3.15-29.44,1.32-7.43,3.96-14.38,5.62-19.01,1.64-4.62,7.43-11.07,8.26-12.07.83-.98,2.32-7.11,3.64-7.77.91-.45,1.89-.67,2.1-1.2.09-.23.03-.53-.28-.95-.98-1.32,1.17-1.32,1.99-3.96.82-2.64,1.32-5.62,2.31-7.11.63-.95,1.61-.43,2.94.38.76.47,1.66,1.02,2.68,1.44,2.81,1.17,8.28,3.98,13.9,7.11,1.57.88,4.08,2.49,6.9,4.35"/>
      <path class="cls-4" d="m40.92,292.3c-.87-4.48-1.99-10.28-2.23-14.44"/>
      <path class="cls-4" d="m42.57,300.97c-.36-1.53-.65-2.86-.79-3.82-.18-1.2-.49-2.89-.87-4.83"/>
      <path class="cls-4" d="m47.24,317.49c-.91-2.73-3.33-10.93-4.66-16.51"/>
      <path class="cls-4" d="m157.15,223.73s7.16-2.81,12.45-3.47c5.3-.66,13.07-3.47,21.01-9.26,7.93-5.79,14.71-12.23,16.2-12.73,1.48-.49,5.62-3.8,7.77-4.62s4.96-1,7.6-1,4.96-.98,7.94-1.64c2.97-.66,5.28-.83,5.28-.83"/>
      <path class="cls-4" d="m86.26,206.96s9.92-4.39,16.71-3.89c6.77.49,13.89,3.8,16.7,5.45.32.19.66.4,1.02.62.71.43,1.46.92,2.23,1.41,2.14,1.36,4.34,2.77,5.84,3.42,2.32,1,3.15,3.64,6.28,4.96.85.36,1.84.52,2.84.58.49.04.97.05,1.45.06,2.12.04,4.05-.01,4.65,1.17.98,1.99.66,2.66,3.3,2.98,1.31.17,2.05.53,2.76.76.74.23,1.44.31,2.69-.1,1.5-.49,2.81-.66,4.39-.49,1.02.12,2.16.38,3.55.79,3.47,1.02,5.62,1.02,9.43,2.19,3.8,1.15,8.92,1.15,6.61,2.81s-6.45,9.92-9.26,13.89c-2.81,3.98-10.25,17.03-13.89,22.99-.91,1.48-1.85,3.04-2.78,4.57-2.82,4.64-5.57,8.9-6.8,9.14-1.44.3-3.37-1.15-5.91-1.98-.39-.13-.79-.23-1.2-.32-.21-.05-.44-.09-.7-.13-3.5-.49-10.58-.18-13.37.13-2.97.32-8.76.49-12.23.49s-15.22-1.83-18.35-2.32"/>
      <path class="cls-4" d="m176.71,229.69s9.92.66,15.22-2.15c5.28-2.81,11.24-5.79,17.85-10.26,6.62-4.46,11.92-8.1,16.2-13.39,2.12-2.62,3.41-4.07,4.14-4.84.78-.8.98-.93.98-.93l3.41-2.66.06-.05c-.06-1.15.38-3.21,1.08-5.14.47-1.31,1.06-2.55,1.68-3.41,1.11-1.52,1.14-2.97,1.36-5.01.08-.76.19-1.62.4-2.59.78-3.52,1.66-5.28,3.1-8.26.95-1.97,2.85-4.13,4.74-6.17.96-1.04,1.92-2.05,2.75-2.98.51-.57,1-1.02,1.48-1.39,1.87-1.42,3.68-1.55,5.69-1.81,2.54-.34,4.96.98,5.62,2.09.67,1.11-1.1,2.98.45,2.56,1.54-.41,3.52,1.08,5.06,3.25.87,1.22.97,2.54.75,3.74-.16.96-.52,1.85-.87,2.58-.19.43-.19.84-.06,1.24.34,1.18,1.64,2.29,1.72,3.28.12,1.32,1.22,2.2,2.2,2.97.43.32.83,1.05,1.08,1.96.34,1.23.38,2.78-.19,4.12-.98,2.33-2.53,5.83-4.51,8.48-1.61,2.14-5.87,5.63-8.55,8.07-.65.6-1.19,1.11-1.59,1.54-2.09,2.23-4.42,4.05-6.4,6.15-1.98,2.09-3.74,6.72-3.74,6.72,0,0-8.28,17.86-14.22,25.79-5.96,7.94-9.6,11.36-13.46,13.9-3.85,2.53-5.95,4.18-7.6,5.84-1.66,1.64-3.96,3.86-6.94,4.96s-8.48,1.2-13.22,1.32c-4.74.1-20.18.44-27.56.76-7.38.34-14.03,1.17-14.03,1.17"/>
      <path class="cls-4" d="m237.34,164.15s-1.05,2.01-2.47,3.39c-.36.36-.76.69-1.17.91-1.98,1.1-4.62,0-4.62,0,0,0-4.18,1.54-3.86,2.54,0,0,.38,1.18.88,2.64.17.49.36,1.01.56,1.54.76,2.1,1.98,5.08,4.46,6.18,1.06.47,2.34.54,3.47.47,1.52-.1,2.76-.47,2.76-.47"/>
      <path class="cls-4" d="m259.61,203.03s.78,3.89,0,3.34c-.31-.23-.87-.95-1.64-1.85-1.13-1.31-2.72-2.99-4.74-4.11-3.42-1.87-8.82-3.96-12.36-4.52-2.45-.38-4.73-.6-6.35-.44-.71.06-1.3.21-1.7.44-1.32.78-3.29,1.33-2.69,3.15"/>
      <path class="cls-4" d="m268.66,170.28s.03,0,.08.01c.49.12,3.15.74,4.14.93,1.1.22,1,1.54,1.1,3.42.09,1.49-.16,2.97-.44,4.43,0,0-.47,2.1-.74,3.24l-.04.16"/>
      <path class="cls-4" d="m246.94,164.82l-6.07-.67s-.26.01-.67.03c-.69.03-1.81.05-2.85-.03-1.66-.1-2.76-1.76-2.76-1.76"/>
      <path class="cls-4" d="m238.7,181.84s-.89.32-1.26-.53c-.13-.31-.19-.79-.1-1.5.03-.17.05-.38.09-.62.3-1.93,1.06-6.07,1.71-9.52.54-2.84,1-5.21,1.05-5.49.01-.01.01-.03.01-.03"/>
      <path class="cls-4" d="m255.84,166.93s1.4.25,2.97-.83c1.58-1.08,4.12-2.81,4.12-2.81"/>
      <path class="cls-4" d="m267.8,174.11s-2.8-1.46-3.54-1.8"/>
      <polyline class="cls-4" points="234.58 181.8 236.8 179.65 237.3 179.17"/>
      <path class="cls-4" d="m90.59,143.59c-.89-.58-1.96-1.09-3.16-1.27-3.64-.54-6.74.22-7.84,4.02-.76,2.66-.89,6.04-.04,9.14.38,1.36.93,2.66,1.7,3.82,2.54,3.86,3.96,6.06,6.28,6.28,1.27.12,2.54-.16,3.51-.61.79-.38,1.37-.87,1.57-1.37.44-1.1.88-2.44.88-2.44"/>
      <path class="cls-4" d="m93.49,146.34s-.03-.04-.08-.1c-.27-.36-1.27-1.61-2.77-2.6"/>
      <path class="cls-4" d="m140.16,156.47s-5,2.5-8.76,3.5c-3.74.98-10.03,3.2-12.12,3.96-1.59.6-2.11,1.11-2.78,1.04-.22-.01-.45-.09-.74-.26-1.22-.66-1.98.22-2.54,1.42-.54,1.22-5.62,11.36-6.84,14.22-.06.17-.13.32-.19.47-.95,2.44-.43,2.67.19,3.29.66.66.34,3.64,2.54,6.06s6.13,5.4,6.13,5.4"/>
      <path class="cls-4" d="m145.13,173.31s-3.47-.12-8.99-1c-5.5-.88-12.67-3.52-15.32-4.52-2.64-.98-4.33-2.82-4.33-2.82"/>
      <path class="cls-4" d="m106.38,184.11s13.78,8.7,15.61,9.86"/>
      <path class="cls-4" d="m94.81,147.53c-.51-.48-.97-.91-1.4-1.3-1.55-1.44-2.56-2.4-2.77-2.6-.04-.03-.05-.04-.05-.04"/>
      <path class="cls-4" d="m113.22,166.13s-2.93-3.13-6.36-6.72c-3.39-3.55-7.27-7.53-9.29-9.36-.91-.82-1.74-1.58-2.5-2.27"/>
      <polyline class="cls-4" points="106.38 181.01 106.18 180.82 91.04 164.98 91.03 164.97"/>
      <path class="cls-4" d="m139.33,118.14s-1.97,2.36-5.71,1.7c-3.76-.66-9.26-2.9-11.14-.79s-5.4,7.63-6.62,14.01c-1.2,6.4-5.28,9.92-6.45,12.68-1.15,2.76-1.93,6.4-2.03,10.25-.04,1.26-.22,2.42-.52,3.42-.6,2.06-1.64,3.42-2.68,3.42-1.54,0-3.52.12-4.84-5.28-1.24-5.06-2.97-8.39-4.26-9.77-.09-.09-.18-.17-.26-.25"/>
      <path class="cls-4" d="m70.72,167.34s4.57,1.63,6.67-2.37c2.1-4.02,2.49-8.04,2.16-9.48"/>
      <path class="cls-4" d="m127.32,142.17s1.22-2.49,4.42-3.81,4.74-.88,4.74-.88c0,0,1.42,1.2,0,1.64-1.44.44-3.61.78-5.67,2.44-2.05,1.64-5.23,2.76-3.48.61Z"/>
      <path class="cls-4" d="m62.4,183.67s12.45,5.34,14.44,6.5c1.98,1.15,5.45,3.8,5.45,3.8"/>
      <path class="cls-4" d="m137.11,199.91s4.87,1.94,4.87,6.52.17,5.69-.98,8.43c-1.17,2.76-3.12,4.66-3.12,4.66"/>
      <path class="cls-4" d="m120.33,209.72s-7.28.3-12.73,1.28c-5.45,1-11.07,1.83-15.71,7.62-1.36,1.7-2.46,3.41-3.34,5.12-2.16,4.11-3.21,8.25-4.26,12.56-1.49,6.13-2.47,16.54-1.98,22.65.49,6.13,2.15,10.26,3.96,13.24,1.83,2.97,4.33,3.8,4.33,3.8"/>
      <path class="cls-4" d="m95.69,252.01c.49.34,21.86-17.85,27.23-22.65,5.35-4.79,16.41-9.77,16.41-9.77"/>
      <path class="cls-4" d="m150.04,224.5s-10.87,7.33-14.17,11.31c-3.3,3.98-7.6,7.6-10.09,12.9"/>
      <path class="cls-4" d="m60.63,218.77s16.54-9.42,19.84-10.08c3.32-.66,3.47-1.74,3.47-1.74"/>
      <circle class="cls-4" cx="130.38" cy="151.56" r=".43"/>
      <path class="cls-4" d="m42.2,345.12c-.54-2.76-.91-5.16-.91-6.63,0-5.45.32-22.65,0-28.44-.32-5.67-.38-17.27-.38-17.73h0"/>
      <path class="cls-4" d="m131.78,313.85c-.19.53-.4,1.01-.6,1.42-1.76,3.64-4.74,8.06-6.72,11.68-1.98,3.64-6.17,11.04-7.06,13.34-.88,2.32-2.2,2.66-3.85,3.76-1.66,1.1-4.2,1.1-9.7,2.64-5.52,1.54-20.94,6.17-27.12,8.82-6.18,2.64-21.72,8.43-25.19,9.75s-3.96,1.81-4.62-.83c-.4-1.59-2.37-8.74-3.86-15.36-.28-1.26-.56-2.5-.79-3.67"/>
      <path class="cls-4" d="m136.17,277.85s-.35,18.59-1.01,21.79c-.58,2.82-1.87,10.05-3.38,14.2"/>
      <path class="cls-4" d="m29.75,354.21c.1.35.32.65.79.65,1.15,0,8.43-1.17,9.43-1.99.98-.82,3.08-3.78,3.08-3.78"/>
      <path class="cls-4" d="m38.69,277.85h0c-.1.8-4.2,31.99-5.34,44.26-1.15,12.41-3.64,30.93-3.64,30.93,0,0-.12.63.04,1.15"/>
      <path class="cls-4" d="m29.75,354.19v.03c-.09.47-1.24,6.79-.08,7.59"/>
      <path class="cls-4" d="m121.49,375.44c1.89-5.87,4.21-13.06,4.79-15.62.82-3.64,1.81-5.62,1.15-6.79-.66-1.15,2.47-11.24,4.34-19.84,1.87-8.59,3.92-22.65,5.09-30.58,1.15-7.94,1.2-24.31,1.2-24.31"/>
      <path class="cls-4" d="m39.97,352.87s.49,5.47-.66,6.29c-1.17.82-2.6.66-6.13,1.64-2.1.6-3.03.54-3.5,1.01-.32.3-.43.84-.53,1.97-.27,2.81-1.42,11.41-1.42,11.41,0,0,0,.98-1.15,2.47-1.17,1.49-7.28,10.43-9.43,14.22-2.15,3.81-3.81,7.94-3.47,10.09.32,2.15,1.4,6.11-.04,8.11-1.45,1.98-1.94,3.3-.79,9.75s11.45,22.32,16.31,28.28c4.86,5.95,9.49,11.24,12.63,11.9,3.15.66,8.26.32,11.58-1.83,3.3-2.15,9.26-6.44,9.26-6.44,0,0,17.03-11.41,23.15-16.37,6.11-4.96,6.77-4.64,9.92-6.94,3.13-2.32,6.45-7.28,7.6-9.6,1.15-2.32,2.64-6.11,4.3-8.76,1.66-2.66,4.3-6.79,5.62-9.26,1.32-2.49,2.49-4.81,2.64-8.28.17-3.47,1.99-5.62,3.64-10.91.49-1.55,1.2-3.77,1.98-6.2"/>
      <path class="cls-4" d="m131.78,313.85v-.03c.1-.96,2.77-27.8,3.1-30.23"/>
      <path class="cls-4" d="m126.78,280.28s-4.79,15.54-6.45,20.84c-1.66,5.28-3.47,12.23-4.13,18.02"/>
      <path class="cls-4" d="m107.43,282.6s-1.98,15.71,1,22.49c2.98,6.79,3.8,17.86,3.96,22.65"/>
      <path class="cls-4" d="m42.57,300.97h0c-.01.47-.36,10.06,0,16.53.38,6.61,2.36,15.04,6.49,21.98,4.13,6.96,6.77,10.43,8.6,12.9"/>
      <path class="cls-4" d="m53.2,358s-6.5-4.03-8.43-6.94c-1.57-2.37-2.28-4.81-2.5-5.63-.04-.19-.06-.3-.06-.3"/>
      <path class="cls-4" d="m121.48,375.44h.01l21.15-.25s9.11-8.11,10.75-14.39c1.66-6.28,3.32-19.34,2.49-30.75-.83-11.41-2.66-23.15-5.13-30.92-2.49-7.77-6.77-18.86-6.77-18.86"/>
      <path class="cls-4" d="m58.65,231.01s15.17-3.47,20.32-4.79c5.14-1.32,9.57-2.49,9.57-2.49"/>
      <path class="cls-4" d="m150.78,201.32s2.78,6.2,3.52,7.69c.75,1.49,1.33,3.47,1.33,3.47"/>
      <line class="cls-4" x1="153.2" y1="210.43" x2="157.15" y2="219.52"/>
      <path class="cls-4" d="m76.07,171.14s6.94,5.25,9.58,7.01c2.58,1.71,6.92,6.48,7.19,6.77h.01"/>
      <path class="cls-4" d="m88.75,151.99s2.15-.79,2.89-.85c.75-.06-.57.67-.61,2.24-.05,1.58-.7,2.9,0,3.73.69.82.82,3.06-.44,2.15-1.27-.92-2.25-2.18-3.57-2.78s-3.23-2.95-1.49-5.34,4.13-3.21,4.38-3.87-.49-1.98-2.15-2.64-3.3-.66-4.38,0-2.97,2.51-2.15,7.37c.83,4.86,3.47,8.67,5,10.15s4.36,0,4.36,0"/>
      <path class="cls-4" d="m229.37,173.63s4.55,3.32,5.21,3.72c.66.41,2.21,2.31,2.21,2.31"/>
      <path class="cls-4" d="m234.88,167.56s3.1,2.19,4.26,2.11h.01"/>
    </g>
  </g>
  <g>
    <path class="cls-2" d="m31.02,342.84s2.55-23.83,3.07-28.42,2.87-23.77,2.87-23.77c0,0,1.62-11.24,1.67-14.37s.4-17.28.99-23.66,1.31-18.53,2.55-25.59c1.24-7.05,2.99-14.43,5.07-19.69s1.86-5.44,3.93-8.28c2.07-2.84,4.03-5.1,4.9-6.29s1.44-2.76,2.21-4.68,1.24-3.43,2.4-3.94,2.02-.77,1.59-1.69-.53-1.1.11-1.74,1.55-1.89,1.93-3.3.58-3.41,1.43-4.98c.85-1.57,1.09-2.23,2.13-1.72s1.46,1.1,1.98-.59,1.55-3.35.52-5.98c-1.03-2.64-2.43-5.88-3.23-8.81s-1.97-7.1-2.76-9.95c-.79-2.85-1.4-5.38-1.22-8.68s.53-6.04.67-8.7c.15-2.65-.15-5.69.26-7.52s1.1-4.31,1.96-6.24c.85-1.93,1.75-4.22,2.99-5.99s2.09-2.98,3.6-4.61c1.51-1.63,2.71-3.06,4.73-4.77s3.07-2.87,4.89-3.69,4.17-1.58,6.57-2.01,5.29-.89,7.29-.93c2-.04,4.63-.04,6.7.49,0,0,3.44.83,6.24,1.87,2.8,1.04,10.52,3.94,10.52,3.94,0,0,6.62,2.57,8.99,3.74s5.4,2.47,6.45,4.05c1.05,1.58,1.96,2.98,2.7,5.34.74,2.36,1.25,3.65,1.56,5.91s.18,3.04.54,5.11.87,4.7,1.48,7.12,1.31,3.88,1.33,5.27c.01,1.4.06,1.72-.58,3.46s-1.04,2.44-1.14,4c-.11,1.56.07,2.38-.11,3.44s.01,1.11-1.16,2.11c-1.18,1-1.91,1.09-1.47,2.62s2.25,5.78,2.99,7.51c.74,1.73,2.29,5.56,2.91,7.68s.95,3.13,1.06,4.19c.11,1.06.52,2.01-.65,3.95s-6.03,9.01-8.34,12.68-4.41,6.79-5.53,7.43-2.88.33-4.46.01c-1.58-.31-3.93-1.08-5.21-.7s-3.04,1.23-3.83,1.16-1.55-.46-1.82-.05-.43,1.03.77,1.48,2.37.89,3.77.74,3-.55,3.94-.43,1.88.32,3.44.96,3.38,1.59,4.68,1.8c1.3.21,5.02.24,6.83.16s5.62-.36,7.08-.66c1.45-.3,3.79-.96,5.91-1.68,2.12-.72,4.52-1.54,6.32-2.21,1.81-.67,3.23-1.19,4.56-1.75,1.33-.56,3.18-1.43,4.49-2.1,1.31-.67,3.66-1.78,4.96-2.22s4.44-1.37,6.25-1.8,4.43-1,7.02-1.58,6.72-1.55,8.62-2.14c1.9-.59,4.13-1.4,6.36-2.19s3.78-1.31,5.89-1.99c2.11-.68,3.37-.85,5.07-1.78s2.37-1.2,3.36-2.81,2.43-4.17,3.53-6.02,1.91-3.46,2.63-3.76,1.61-.49,3.24-.97,2.97-.84,3.62-1.49,1.97-2.21,2.93-2.9,2.3-1.64,3.35-2.07c1.05-.43,2.03-.75,3.04-.62s2.03.3,3.52.57,2.99.45,4.01.56,1.62.16,2.97.66c1.35.5,3.64,1.49,3.64,1.49,0,0,.65-.77,2.36-1.15,1.7-.39,2.21-.57,4.08-.66,1.87-.09,1.98.11,2.87.58s1.91.71,2.05,1.56c.14.84.17.9,0,1.48s-.89,1.5.12,1.13c1-.37,2.04-.02,2.81.57s2.15,1.45,2.74,2.87.72,1.75.7,2.35-.38,1.09.71,1.34,1.87.2,2.92.65c1.05.46,1.39.6,1.47,2.35.07,1.75.14,2.81-.18,4.43s-1.04,3.59-.88,4.72.29,2.44-.13,3.47-2.03,5.29-3.79,7.58-2.13,2.87-5.08,5.48l-3.66,3.24s-.63.29-.49,1.26.42,2.08.19,2.56-.5.02-1.06-.64-.65-1.28-1.2-.73-4.03,3.75-5.06,4.79-2.44,2.81-3.07,4.06-4.39,9.36-5.97,12.43-5.21,9.94-7.11,12.85c-1.9,2.9-5.24,7.75-8.17,10.84s-4.08,4.5-6.66,6.25c-2.58,1.76-5.07,3.42-6.37,4.48-1.3,1.07-3.31,3.06-4.31,3.91s-3.24,2.87-5.35,3.43c-2.1.56-4.67,1.12-10.88,1.27s-16.84.4-20.52.51c-3.68.11-9.95.23-14.91.66-4.95.43-8.5.82-8.5.82,0,0-2.92,4.76-3.89,6.07s-1.47,2.09-2.07,2.54c-.59.44-.87.49-.61,1.18s2.91,7.66,4.09,11.04,3.38,9.11,4.5,15.21,2.59,15.79,2.91,20.93.15,15.29.15,15.29"/>
    <path class="cls-2" d="m158.26,222.76s4.34-1.53,6.38-2.03,5.7-.95,8.05-1.6c2.34-.65,7-2.06,10.51-4.07,3.51-2,8.99-5.69,12.17-8.26s8.79-7.63,10.49-8.53c1.69-.91,4.55-2.77,5.81-3.55s2.24-1.86,4.94-2.2c2.7-.34,5.74-.15,7.89-.66,2.16-.51,5.66-1.51,7.5-1.79s1.96-.32,2.69-.39,1.04-.23.81.48-.85,3.32-.88,3.79-.67.91-1.23,1.15-2.44.9-2.87,1.65-.18,1.5-.73,2.12-1.52,1.7-2.85,3.32c-1.33,1.62-3.28,4.01-5.44,5.85-2.16,1.84-6.78,5.35-9.24,7.02-2.46,1.67-9.63,6.14-11.81,7.35-2.18,1.22-5.84,3.23-7.72,4.15s-3.77,1.66-5.41,1.94-5.27.69-7.13.69-3.04,0-3.04,0c0,0-.31-.16,0-.45s.41-.59-.33-.85c-.73-.26-5.26-1.15-6.39-1.48s-4.19-1.05-5.13-1.23-3.95-.89-5.15-1.2-2.13-.51-2.55-.57-.19-.55.66-.65Z"/>
  </g>
</svg>