<?xml version="1.0" encoding="UTF-8"?>
<svg id="Kids" xmlns="http://www.w3.org/2000/svg" viewBox="0 0 288.26 381.24">
  <defs>
    <style>
      .cls-1 {
        stroke-width: .75px;
      }

      .cls-1, .cls-2 {
        fill: none;
        stroke: #1d1d1b;
        stroke-miterlimit: 10;
      }

      .cls-2 {
        stroke-width: .5px;
      }
    </style>
  </defs>
  <g>
    <path class="cls-2" d="m117.81,130.63s.2,1.19.99,1.98,2.28,2.28,4.85,2.48,8.32-1.49,11.79-2.38,8.62-2.67,10.9-3.37,5.94-.2,8.32-.79c3.14-.79,7.45-2.34,9.26-5.18,2.14-3.37,2.76-7.42,3.38-11.28.57-3.52.99-7.46-1.15-10.58,0,0-3.47-3.37-6.34-4.95s-4.85-1.98-6.44-2.87-2.77-1.98-5.25-2.48-10.7-.69-13.87.5c-3.17,1.19-5.05,2.77-6.74,5.25s-5.35,6.24-6.34,7.83-2.38,5.27-2.38,8.18-1.29,6.77-2.18,8.26-1.49,3.37-1.49,3.37"/>
    <path class="cls-2" d="m115.13,131.62s-2.97,3.17-4.16,4.26-1.68,1.59-1.68,1.59"/>
    <path class="cls-2" d="m112.85,125.97s-7.13,1.09-10.5,2.77-6.64,3.67-7.93,5.8-1.59,3.22-2.67,4.71-2.18,3.37-3.47,6.64c-1.29,3.27-.59,4.16,0,5.65s1.29-.2,2.67,0,2.58.62,2.58.62"/>
    <path class="cls-2" d="m167.74,106.65s1.68,4.07,1.68,8.92-.29,5.94-.84,7.23-1,2.38-.82,3.17.11,4.19.44,6.51.17,5.28-.48,6.14-1.17,1.32-1.7,2.44-1.39,2.64-2.31,3.5-1.98,1.45-3.24,2.25-2.11,1.65-3.57,1.65h-7.07c-1.78,0-1.32.07-2.11,0s-.86-.66-.4-1.19.99-1.45,1.52-2.77.66-1.12,1.72-1.12,3.37.4,4.23.79,2.45.26,3.44-.26,1.51-1.19,1.98-1.85.66-1.06.4-1.78.99-1.52.99-2.44-.4-3.37.79-3.83,2.31-1.19,3.04-1.92.86-2.31,1.06-2.77,1.38-2.17,1.38-2.17"/>
    <line class="cls-2" x1="161.82" y1="134.54" x2="149.31" y2="128.94"/>
    <line class="cls-2" x1="162.82" y1="133.81" x2="150.63" y2="128.9"/>
    <line class="cls-2" x1="150.17" y1="143.37" x2="147.04" y2="139.54"/>
    <line class="cls-2" x1="149.08" y1="143.98" x2="146.01" y2="139.94"/>
    <path class="cls-2" d="m116.55,127.92s-1.06-1.72-1.42-2.58-.23-2.05-1.09-1.06-1.92,1.19-1.19,2.18,1.47,2.64,1.73,3.57.32,1.63,1.11,1.71.67-.14,1.45-.39.79-.99.33-1.72-.92-1.72-.92-1.72Z"/>
    <path class="cls-2" d="m118.28,131.9s-1.53,2.06-3.14,3.2-3.86,2.36-3.86,2.36"/>
    <path class="cls-2" d="m146.54,181.68s.79-.07,2.07-.79,5.13-3.3,5.79-3.63.59-1.32,0-2.11-3.17-3.57-4.56-5.35c-1.39-1.78-4.23-5.09-5.48-6.6s-3.1-2.51-4.03-3.37-1.19-2.31-1.39-4.03-.86-3.17-2.18-4.11-1.85-2.16-2.31-1.83-.92.59-.66,1.32.07.53-1.65.33-1.39-.59-3.43-3.01-4.36-5.11-7-7.03-7.07-2.9-9.09-3.5-3.32-.5-4.64,0-2.31,1.98-2.31,1.98c0,0-1.45,2.3-2.91,3.43s-.73,1.86-1.45,1.66-2.18-.46-2.71.59,1.06,1.25,0,1.59-2.44,1.72-3.1,2.44-2.05,2.71-2.91,3.04-2.38.2-2.97.46-1.32,1.32-2.51,3.9c-1.19,2.58-2.64,4.78-3.37,6.35s-3.96,7.78-4.82,11.02c-.86,3.24-2.97,8.26-3.7,10.9s-2.97,11.03-3.9,13.74-2.84,8.19-3.57,10.3-1.52,4.89-2.31,7.33c-.79,2.44-1.45,2.44-1.39,4.09s-.73,3.83-1.25,5.22-1.06,4.03-.59,5.68.4,4.36.26,6.41-.59,7.73-.13,11.89c.46,4.16,1.39,7.53,1.92,10.1.53,2.58.2,4.29,2.05,7.2s5.28,3.7,8.32,3.43,9.71-.59,12.09-1.39c2.38-.79,5.28-2.97,7.33-4.69s7-6.14,9.38-10.04,5.03-7.99,5.03-7.99"/>
    <path class="cls-2" d="m109.82,189.01s3.04,4.82,4.95,6.67,4.74,3.83,4.74,3.83"/>
    <path class="cls-2" d="m136.1,164.53s-1.92-1.14-2.64-1.41-2.18-.46-3.96,0-2.31,1.06-4.09,1.85-2.31,1.72-4.16,3.43-5.23,5.02-6.58,6.27-2.8,3.37-3.46,4.23-1.06,1.37-1.06,1.37"/>
    <path class="cls-2" d="m128.62,163.4s-2.29-7.61-3.55-10.51-6.8-8.9-6.8-8.9c0,0-.93-.54-3.14.38-2.21.92-5.05,3.17-5.84,6.6-.79,3.43-1.16,9.38-.84,14.13s.58,10.83.84,14.4c.26,3.57.26,11.49.53,13.54s2.18,26.67,2.31,30.28.13,8.56.86,10.14,1.06,2.51,1.06,2.51c0,0-.2,6.41-.33,7.99s.02,4.47-2.1,4.16c-1.37-.2-1.93.05-2.72-.84s-.73-3.12-.56-4.51.07-2.23.11-3.37.6-2.38-.28-2.53-1.06-.4-1.59-1.29,0-2.53,0-2.53"/>
    <path class="cls-2" d="m88.81,255.52s4.76-6.87,7.6-8.45c2.84-1.59,7.33-3.1,8.78-4.29,1.45-1.19,3.24-3.07,3.24-3.07"/>
    <path class="cls-2" d="m113.71,235.04s2.71-2.64,3.5-3.83,1.56-2.97,2.3-4.23,1.99-3.76,2.92-5.09c.92-1.32,3.06-9.16,3.06-9.16"/>
    <path class="cls-2" d="m112.31,228.7s4.26-4.09,7.29-7.73c3.03-3.63,5.23-5.9,5.23-5.9"/>
    <path class="cls-2" d="m132.53,213.64s-2.44,4.63-3.63,6.14-2.84,3.43-3.7,3.5-3.64,0-3.64,0"/>
    <path class="cls-2" d="m104.8,207.83s-10.43,9.16-18.76,13.76-14.93,6.71-16.71,7.11"/>
    <path class="cls-2" d="m66.82,215.36s7.13-10.24,8.85-12.42c1.72-2.18,6.6-5.68,8.52-7.46,1.92-1.78,2.44-2.44,2.44-2.44"/>
    <path class="cls-2" d="m113.16,233.84s-2.15.05-3.8,0-2.77-.11-2.77-.77-1.25-18.23-1.52-21.73c-.26-3.5-.46-16.64-.79-20.61-.33-3.96-1.59-22.92-1.52-26.68.07-3.76.59-10.24,1.85-13.01s2.25-3.96,4.69-5.88,3.04-2.25,4.82-2.18,2.61-.28,5.02,1.39c0,0,4.82,3.36,6.08,4.12s4.03,2.94,5.48,4.07,2.91,3.24,3.5,4.76.53,2.77.86,3.7.66,1.92.92,3.04,1.06,2.84,1.59,3.63.53,2.11.73,3.3.99,2.71,1.52,3.5,1.06,1.45,1.92,1.92,1.72,1.06,3.5,3.3,6.01,9.25,7.26,10.7.33,3.57,0,4.76-4.42,5.15-7.66,7.66-6.27,3.37-7.79,5.61-3.24,4.16-5.02,5.68c-1.78,1.52-3.96,2.77-4.89,1.65s-5.09-10.43-7-14.86c-1.92-4.42-5.94-13.14-6.54-14.86s-1.19-3.1-1.78-3.83-1.12-1.32-1.12-1.32"/>
    <path class="cls-2" d="m127.93,166.89s5.06,6.34,7.24,7.4,6.96,2.36,6.96,2.36"/>
    <path class="cls-2" d="m123.82,171.56s7.13,6.95,11.62,8.07,7-.92,7-.92"/>
    <path class="cls-2" d="m147.04,169.4s-6.11.63-8.63,2.17"/>
    <path class="cls-2" d="m141.65,162.84s-2.78,2.42-4.79,3.56"/>
    <path class="cls-2" d="m152.09,189.9s-1.85,3.74-5.55,6.84-7.66,5.15-9.44,6.8c-1.78,1.65-1.98,1.98-3.3,4.29s-1.98,2.58-3.76,3.76c-1.78,1.19-3.89,2.44-3.89,2.44"/>
    <path class="cls-2" d="m64.88,264.01s3.27,2.8,11.85,2.54c8.59-.26,9.18-.12,12.09-2.54s8.12-6.31,10.77-9.81c2.64-3.5,4.42-5.94,5.22-7.07s3.37-2.97,3.37-2.97"/>
    <path class="cls-2" d="m107.36,233.68s.24,1.91,1.48,2.06,2.33.1,2.92,0,.3-1.88.3-1.88"/>
    <path class="cls-2" d="m110.08,239.3s-.2-.84.5-.99,1.69-.3,1.74.99,0,3.52,0,3.52c0,0,.15,1.14-.7,1.14s-1.54-.35-1.56-1.19.03-3.47.03-3.47Z"/>
    <path class="cls-2" d="m125.2,223.29s.43,1,2.41.61,3.52-.61,3.52-.61c0,0,1.54-.58,2.53.96s2.87,6.29,3.42,13.03c.24,3.01.42,6.04.5,9.06.05,2.02.14,4-.42,5.97-.24.85-1.18.52-1.87.52-1.04,0-1.93-.25-1.93-.25"/>
    <path class="cls-2" d="m131.76,215.08s-.23,3.37-.73,5.16-1.5,3.31-1.5,3.31"/>
    <line class="cls-2" x1="132.32" y1="223.24" x2="134.4" y2="222.16"/>
    <line class="cls-2" x1="140.89" y1="218.85" x2="149.71" y2="214.04"/>
    <path class="cls-2" d="m132.76,213.44s2.43,11.16,2.83,12.69,2.93,13.77,3.52,16.05c.59,2.28,1.93,9.01,2.27,11.44.35,2.43.64,4.21.64,4.21"/>
    <path class="cls-2" d="m137.89,207.43s2.8,10.87,3.84,14.09,2.77,12.43,3.57,15.45,2.92,16.89,3.57,19.61c.64,2.72,1.59,7.78,1.98,9.76s0,2.08,0,2.08"/>
    <path class="cls-2" d="m172.74,233.68s-3.12-.72-7.08,1.36c-3.96,2.08-9.31,5.6-12.33,7.73s-6.14,4.37-6.14,4.37"/>
    <line class="cls-2" x1="141.02" y1="251.44" x2="137.89" y2="254.01"/>
    <path class="cls-2" d="m148.86,256.59s21.15-14.67,26.25-18.56,8.52-6.41,10.4-11.81,3.07-8.37,1.73-10.8-2.08-4.51-4.01-6.93-4.36-3.42-5.89-3.71-4.85,0-4.85,0"/>
    <path class="cls-2" d="m180.47,198.59s3.17,2.63,3.76,4.66c.59,2.03.4,4.9,0,6.61"/>
    <path class="cls-2" d="m154.84,176.64s2.44,3.42,3.78,4.56,2.58,1.14,5.4-.35c2.82-1.49,9.96-4.76,13.77-6.69s14.17-8.52,14.17-8.52c0,0,6.33-5.08,7.8-6.48"/>
    <path class="cls-2" d="m153.06,192.95s1.35,1.88,2.59,2.57,4.21-1.39,5.84-2.33,9.71-5,14.41-8.02c4.71-3.02,11.74-8.47,13.92-10.5s5.4-4.76,6.89-8.52c1.49-3.76,3.86-9.06,5.1-10.65s2.67-3.91,3.62-4.26,1.49.1,3.02,0,3.22-.35,3.22-.35"/>
    <path class="cls-2" d="m209.15,154.95s-1.19-.45-1.78.5c-.59.94-.84,1.39-1.34,2.23s.3.25,1.24-.5,1.83-2.67,2.77-3.76,1.54-2.87,2.58-4.21,3.27-4.85,4.21-5.25,1.29-.35,1.78-.25,1.14,1.14.3,2.72c-.84,1.59-1.63,4.26-2.82,6.04s-2.03,3.27-2.38,4.56c-.35,1.29-.2,1.59.54,1.68s1.34-.74,2.23-1.73.74-1.44,1.24-2.08,1.39-1.34,1.93-1.04.64.3.84,1.63c.2,1.34.1,1.68,0,2.67s-.84,2.23-2.13,3.22-3.67,2.28-4.21,3.17-1.29,1.68-1.98,1.98-1.83.74-1.83.74"/>
    <path class="cls-2" d="m205.43,151.23s.2-1.49,2.03-2.97c1.83-1.49,3.96-3.22,4.76-3.42s1.63.05,2.48-.74,1.88-1.29,2.33-1.44,1.04,0,1.04,0"/>
    <path class="cls-2" d="m212.66,168.77s1.98-.64,2.43-1.49,1.63-2.38,2.53-2.53c1.86-.31,3.66-2.65,4.01-4.41"/>
    <path class="cls-2" d="m215.09,167.28s1.24,2.03-1.09,3.91c-2.33,1.88-7.63,5.1-9.41,6.29s-2.38,1.83-3.57,3.12-14.02,11.94-17.09,14.71-4.66,4.16-7.23,6.14-5.75,4.85-7.93,6.44c-2.18,1.59-6.29,4.8-9.46,6.14s-3.91,1.24-5.84,1.34c-1.93.1-2.72-.69-5.5-2.97-2.77-2.28-7.54-6.78-7.54-6.78"/>
    <path class="cls-2" d="m217.57,143.7s5-9.55,5.7-10.94c.69-1.39.89-1.88,1.73-1.83s1.24.4,1.24,1.39-.1,5.15-.3,6.14-2.63,5.4-3.52,7.18c-.89,1.78-4.71,9.26-4.71,9.26"/>
    <path class="cls-2" d="m218.47,147.33s4.64-8.23,5.09-8.88,1.49-1.68,2.38,0"/>
    <line class="cls-2" x1="224.34" y1="131.07" x2="224.16" y2="137.82"/>
    <path class="cls-2" d="m221.43,147.59c1.09.56,2.22,3.02.2,2.85-.59-.05-1.45-.38-1.45-.38"/>
    <path class="cls-2" d="m220.18,159.22s1.17,1.28,2.03,1.13,1.65-1.19.96-1.88-2.56-1.48-2.56-1.48"/>
    <path class="cls-2" d="m219.65,153.86s4.06,1.24,4.31,1.98c.2.6.32,1-.14,1.5-.28.31-.93.85-1.38.58"/>
    <path class="cls-2" d="m134.45,149.85s2.58-2.05,5.15-3.43,5.75-1.06,6.41,0,1.19,1.85,1.19,1.85"/>
    <path class="cls-2" d="m148.61,128.98s-2.14.37-3.98,2.92c-1.85,2.55-3.05,3.61-3.17,4.73s-.52,2.31,1.33,3.3,3.57.16,4.43-.88l.85-1.04"/>
    <path class="cls-2" d="m143.46,130.26s-1.89,3.17-1.29,4.84"/>
    <path class="cls-2" d="m83.46,201.97s4.82-.87,7.4.52,6.67.73,8.39,1.06"/>
    <path class="cls-2" d="m97.82,246.34s-.11-4.95,0-7.2c.11-2.25,1.69-9.25,2.15-10.96s1.12-3.35,2.44-4.28,3.22-4.58,3.22-4.58"/>
    <path class="cls-2" d="m117.48,248.65s1-6.73,0-8.95c-1-2.21-1.46-2.95-1.52-4.07"/>
    <path class="cls-2" d="m122.56,223.32s3.18,3.6,3.57,5.06,2.25,4.95,3.4,5.75,2.07,3.38,1.87,4.1"/>
    <path class="cls-2" d="m128.62,223.7s2.3,2.52,3.14,7.06,2.46,9.63,2.64,11.01.61,5.48,0,7.33-1.04,4.09-1.04,4.09"/>
    <path class="cls-2" d="m123.49,247.61s2.06-2.99,2.65-7.48c.59-4.49.65-6.41-.93-8.72s-1.72-3.9-2.64-4.89-1-1.25-1-1.25"/>
    <path class="cls-2" d="m68.36,269.36s3.55,6.83,6.85,8.81,6.6,3.04,8.45,4.03,5.35,1.06,7.4,1.19,5.63-1.52,6.71-1.72,3.19-1.32,3.19-1.32"/>
    <path class="cls-2" d="m72.04,270.66s3.96,4.47,9.18,5.99,9.25,1.39,10.7.73,2.31-1.21,2.97-1"/>
    <path class="cls-2" d="m78.8,280.03s11.27.74,13.91,0,3.1-.74,3.1-.74"/>
    <path class="cls-2" d="m146.8,295.64s-1.52,1.55-3.17,3.53c-1.65,1.98-6.01,6.41-8.39,8.06-2.38,1.65-4.89,1.12-6.27.73s-3.63-2.18-7.2-3.57-3.04-1.45-4.42-2.91c-1.39-1.45-11.29-14.07-14.46-18.09s-4.69-6.28-6.01-8.59c-1.32-2.31-1.65-6.74-1.65-6.74-.09-.86,1.06-2.18,1.65-3.04s2.84-2.64,4.42-3.7,9.11-8.12,9.11-8.12l2.77-2.31s3.92-2.2,6.42-2.75c2.5-.55,4.66-.35,6.92.51s4.68,2.11,6.24,3.57,8.36,5.55,10.74,6.8,3.8,2.51,5.37,5.35c1.57,2.84,1.96,4.32,2.63,6.29s.92,5.14,1.12,6.19.66,2.77.73,4.16-.4,4.49-.66,5.42-2.82,5.37-2.82,5.37"/>
    <path class="cls-2" d="m127.98,256.04s-3.43,1.25-4.89,2.18-3.63,1.78-4.82,2.84-2.97,2.44-4.09,3.83-4,4.45-5.73,5.86-4.97,4.69-6.09,5.62-.59,1.86.26,2.91,12.94,15.19,15.85,18.1c2.91,2.91,6.67,5.88,8.92,7.79s4.5,2.58,5.88,1.85c1.38-.73,5.68-4.49,6.6-5.81s5.94-10.1,6.93-11.43,1.92-2.38,2.97-4.36,1.39-3.95.59-4.65-2.05-2-2.71-2.94-1.72-1.99-2.38-2.52.07-2.77-.83-3.7-4.84-5.02-7.06-7.26c-2.22-2.25-4.93-5.15-5.98-6.27s-2.3-2.48-3.43-2.05Z"/>
    <path class="cls-2" d="m97,273.88s2.38-4.03,5.35-7.31,6.6-7.28,6.6-7.28c0,0,2.91-3.37,4.23-4.49,0,0,7.36-3.93,13.82-2.06s15.31,6.62,17.95,9,6.34,7.4,6.8,9.86"/>
    <path class="cls-2" d="m113.38,252.22s4.42-2.52,9.91-2.12,9.18,1.86,9.18,1.86"/>
    <path class="cls-2" d="m122.4,258.63s11.53,13,15.49,17.16c3.96,4.16,11.26,10.72,11.26,10.72"/>
    <path class="cls-2" d="m118.27,261.06s14.87,16.11,19.13,20.34c4.25,4.23,9.41,8.39,9.41,8.39"/>
    <path class="cls-2" d="m90.27,283.34s.07,3.94-.53,5.53-2.49,3.76-2.43,4.95,1.51,3.5,5.27,4.49,13.47,3.24,17.83,4.62c4.36,1.39,9.25,2.91,11.99,3.43s4.37.51,4.37.51"/>
    <path class="cls-2" d="m136.35,306.38s4.84-.54,6.42-1.4c1.59-.86,2.31-1.98,2.31-1.98"/>
    <path class="cls-2" d="m89.3,289.79s3.15,3.3,6.52,4.36,8.02,2.31,12.63,3.83,8.9,3.5,8.9,3.5"/>
    <path class="cls-2" d="m145.79,293.05s-.17,2.51,1.01,2.59,2.81-1.01,3.05-2.34-.1-2.53-1.04-2.82"/>
    <path class="cls-2" d="m145.79,304.24s-.87-.99-.7-1.93.5-1.68,1.72-1.83,2.86-.02,3.55,1.01.51,1.62.46,2.41"/>
    <path class="cls-2" d="m149.9,292s3.77,4.02,4.02,5.06-.35,2.33-1.24,2.87-2.35.92-3.53.72-1.77-1.85-2.12-2.75.5-2.34.5-2.34"/>
    <path class="cls-2" d="m146.49,303h3.45s.96-.15.94,1.49-2.01,10.75-2.45,13.42c-.45,2.67-3.47,11.94-3.86,14.02s-.25,2.87-1.34,2.87-2.82-.54-3.62-.84-1.09-.74-.79-1.88,3.42-11.34,4.56-15.75c1.14-4.41,2.18-9.33,2.23-10.8s.25-2.53.89-2.53Z"/>
    <path class="cls-2" d="m120.29,259.75s9.94,11.35,13.44,15.11,14.14,13.54,14.14,13.54"/>
    <path class="cls-2" d="m112.57,255.36s-1.56-1.36-2.16-2.16-.8-1.98-.66-2.58,1.77-.63,2.39,0,1.44,1.41,1.25,2.26-.81,2.47-.81,2.47Z"/>
    <line class="cls-2" x1="110.05" y1="247.96" x2="110.05" y2="250.32"/>
    <line class="cls-2" x1="112.14" y1="250.63" x2="112.33" y2="248.14"/>
    <path class="cls-2" d="m90.23,285.3s.76.66,1.29,1.78.73,1.19,2.84,1.32,4.23,1.58,5.09,3.17,1.52,4.11,1.52,4.11"/>
  </g>
  <path class="cls-1" d="m130.14,94s-1.95,2.15-3.07,3.58-4.05,4.72-4.97,5.96-2.22,3.15-2.72,5.65-.71,6.16-1.1,7.55-1.08,3.41-1.61,4.4-1.53,3.44-1.53,3.44c0,0-.63-.81-.74-.67s-.99.95-1.29,1.23-.49.86-.49.86c0,0-2.16.37-3.32.63s-3.88.59-6.32,1.83-5.8,2.91-7.1,4.39-1.99,2.64-2.68,3.94-1.93,2.99-2.62,4.25-2.12,4.11-2.49,5.38-.93,2.03-.42,3.42.74,2.56,1.34,2.29,1.54-.73,2.49-.52,1.81.55,1.81.55c0,0-.37.58-1.46.69s-1.9-.2-2.49.44-1.8,2.78-1.8,2.78c0,0-2.03,3.9-2.93,5.61s-3.81,7.73-4.3,8.91-2.3,6.69-2.85,8.22-3.11,9.62-3.58,11.34-2.99,10.1-3.81,12.46-3.04,8.92-3.7,11.02-.96,3.31-1.38,4.18-.92,1.68-.94,2.32-.16,2.59-.54,3.75-1.17,3.28-1.3,4.23-.27,2.24-.02,3.55.39,4.1.2,7.29-.43,8.6-.07,11,.87,5.64,1.31,7.51.8,4.63,1.09,5.87.86,3.27,1.84,4.33,1.96,2,1.96,2c0,0,1.34,2.53,2.6,4.19s2.64,3.57,4.66,4.63,4.02,1.97,5.31,2.52,2.76,1.64,5,1.91,4.16.4,4.16.4c0,0,.19,3.68-.39,5.07s-1.48,2.8-1.89,3.59-.77,1.74-.24,3.11,1.39,1.99,3.11,2.6,10.93,2.89,12.7,3.35,10.72,3.14,13.21,3.85,6.49,1.67,7.61,1.79,2.39.19,2.39.19c0,0,1.83,1.26,3.7,1.48s3.09-.11,4.01-.68,2.16-1.33,2.16-1.33c0,0,2.21-.27,3.44-.55s2.16-.32,3.17-1.1,1.8-1.66,1.8-1.66l.65,1.12-.31,2.95s-1.55,7.36-1.93,8.8-2.76,10.3-2.76,10.3l-1.64,4.96s-1.08,2.23.35,2.72,2.56.94,3.4.9,1.25.05,1.5-1.4,1.31-5.37,2.04-7.83,1.72-5.98,2.61-10.49,1.91-9.63,1.91-9.63c0,0-.03-1.78-.07-2.44s-.63-1.72-.63-1.72c0,0-.47-.46.13-.57s2.31-.25,2.9-1.22,1.11-2.35.77-2.68-4.08-4.8-4.08-4.8c0,0,.34-.86.56-1.26s2-3.28,2.22-4.31.94-4.82.67-6.1-.88-4.91-1.15-6.45-.57-3.69-1.07-4.34-.28-1.59-.1-1.85-.37-2.37-.74-4.22-1.42-6.87-1.42-6.87c0,0,10.64-7.41,12.87-8.98s7.31-5.14,9.59-6.79,4.44-3.59,7.52-5.68,4.83-5.22,5.76-6.74,2.27-5.95,2.6-7.19.98-3.53.45-4.77-2.39-4.85-2.39-4.85l-1.16-1.92s.66-1.69.5-3.59-.58-3.68-1.36-4.62-2.78-2.87-2.78-2.87l16.9-14.74s2.77-2.3,3.51-3.09,2.58-2.51,3.32-3,3.88-2.39,6.47-4.18,2.64-1.9,3.96-2.98.76-2.43.76-2.43l-.29-.89s.8-1.6,1.66-2.07,2.57-.88,3.43-2.11,1.45-2.76,1.45-2.76c0,0,.87.26,1.31-.37s.64-1,.38-1.31-.77-.68-.77-.68c0,0,.87,0,1.42-.85s-.14-1.56-.54-1.78-3.6-1.4-3.6-1.4c0,0-.36-.36-.83-.1s-.97.42-.53-.45,1.71-3.35,1.71-3.35c0,0,.82.43,1.45.38s1.76-.57,1.12-1.42-1.31-1.43-1.31-1.43l2.4-4.68,2.1-4.07s.16-1.79.21-3.15.07-3.11,0-3.66-.37-1.02-1.15-1.11-.92.22-1.33,1.03-5.61,10.71-5.61,10.71c0,0-.79-.22-1.62.25s-1.83,1.57-2.63,1.7-1.46-.14-3.06,1.07-3.36,2.32-4.11,3.34-1.22,2.21-1.22,2.21c0,0-1.02.74-1.83,1.84s-1.99,2.54-2.64,3.76-1.61,2.7-1.61,2.7l-3.8,3.2-3.59,2.91-8.21,5.09s-3.76,2.1-6.45,3.67-9.76,4.34-11.52,5.55-3.51,1.82-4.62,2.05-1.95-.25-2.53-.82-2.64-3.03-2.64-3.03l-1.22-1.29s.23-.62-.02-1.11-3.41-4.1-4.61-5.61-3.25-4.32-4.42-5.53-1.79-2.02-2.55-2.63-1.08-.7-2.08-1.57-1.51-1.41-1.82-2.31-.31-2.67-.74-4.12-1.13-1.69-2.01-2.51-2.06-1.88-2.06-1.88c0,0,2.15-1.42,3.5-2.22s3.06-2.01,4.81-1.89,2.63.02,3.12.76,1.01,2,1.85,2.21,8.92-.02,9.64.03,1.62-.69,2.36-1.19,3.64-2.22,4.32-3.09,1.57-2.6,2.15-3.51,1.04-1.76,1.72-2.45.45-2.42.44-3.15-.31-3.32-.4-5.32-.46-4.18-.02-5.35,1.48-2.99,1.47-5.58.12-5.41-.44-7.78-1.22-3.92-1.22-3.92c0,0,.19-1.63-.46-3.22s-1.08-2.47-2.67-3.81-2.98-2.56-4.44-3.34-3.1-1.49-4.67-2.14-2.8-1.38-3.67-1.88-2.6-1.45-4.22-1.62-5.49-.18-7.36-.27-4.48.32-5.47.68-2.12.81-2.78,1.2-1.87,1.28-1.87,1.28Z"/>
</svg>