<?xml version="1.0" encoding="UTF-8"?>
<svg id="Layer_1" data-name="Layer 1" xmlns="http://www.w3.org/2000/svg" viewBox="0 0 454.59 571.05">
  <defs>
    <style>
      .cls-1 {
        stroke-width: 0px;
      }
    </style>
  </defs>
  <path class="cls-1" d="m125.32,571.05c-2.1-9.24-4.31-18.46-6.24-27.74-1.36-6.53-2.69-13.11-3.37-19.74-.72-7.01-1.09-14.1-.35-21.18.07-.68,0-1.37,0-2.3-1.69,1-3.17,1.87-4.93,2.91.05-.15-.08.07-.09.29-.12,4.58-.27,9.17-.32,13.76-.09,7.16-.16,14.32-.16,21.48,0,6.28.09,12.57.17,18.85.02,1.26.15,2.51.23,3.76-.2.05-.4.11-.6.16-.21-.39-.59-.77-.62-1.18-.21-2.71-.46-5.42-.48-8.14-.06-8.72-.08-17.44,0-26.17.06-7,.29-13.99.46-20.99.02-.69.16-1.38.26-2.21-3.8-2.48-5.37-6.88-8.49-10.23-3.29,4.72-8.02,7.65-12.78,10.56-6.61,4.03-10.78,9.94-13.07,17.27-.16.5-.37.99-.59,1.47-.04.08-.27.07-.49.13-.73-.77-.22-1.58.02-2.33,2.38-7.76,7.01-13.79,13.97-17.98,3.54-2.13,7.07-4.28,9.85-7.39.81-.91,1.47-1.96,2.25-3.01-.66-.91-1.18-1.67-1.74-2.41-10.42-13.87-20.94-27.67-31.19-41.67-2.58-3.53-5.5-5.91-9.59-7.52-5.92-2.33-11.54-5.41-17.27-8.19-.56-.27-1.39-.47-.94-1.78,2.57.96,4.88,2.34,7.27,3.49,2.38,1.14,4.73,2.37,7.13,3.48,2.44,1.12,4.92,2.15,7.62,2.88-.21-.37-.41-.76-.65-1.12-3.94-5.88-7.86-11.78-11.87-17.61-.86-1.25-1.97-2.4-3.16-3.35-7.37-5.86-14.83-11.6-21.29-18.5-.62-.66-1.18-1.37-1.77-2.06.09-.15.18-.31.27-.46.41.13.93.14,1.21.41,1.79,1.73,3.44,3.62,5.3,5.27,4.59,4.06,9.27,8.03,13.91,12.03.17-.13.33-.26.5-.4-.43-.64-.83-1.3-1.29-1.92-7.69-10.37-15.4-20.73-23.07-31.12-7.37-9.98-12.08-21.18-14.84-33.19-1.02-4.42-.04-8.82,1.42-13.06.94-2.74,2.25-5.25,4.1-7.54,5.08-6.3,10.29-12.46,16.47-17.74,6.43-5.5,13.95-8.31,22.21-9.44,7.52-1.03,15.08-.69,22.61-.52,5.48.12,10.67,2,15.76,3.96,10.06,3.87,19.45,9.06,28.47,14.92,9.98,6.49,19.91,13.06,29.86,19.59.69.45,1.41.86,2.45,1.49-1.09-6.01-3.03-11.19-6.16-15.92-2.54-3.85-5.93-6.82-9.8-9.18-7.51-4.56-15.06-9.05-22.73-13.34-7.33-4.1-14.82-7.9-22.24-11.85-.78-.42-1.5-.96-2.3-1.47.79-1.16,1.43-.5,1.96-.22,2.75,1.45,5.48,2.95,8.21,4.44,10.5,5.75,21.03,11.46,31.49,17.29,3.04,1.7,5.89,3.75,9.23,5.9-.43-.87-.64-1.39-.93-1.87-2.32-3.91-5.07-7.46-8.87-10.08-9.42-6.48-18.84-12.97-28.28-19.42-2.7-1.84-5.48-3.56-8.21-5.36-.52-.34-.95-.83-1.42-1.24.1-.16.19-.32.29-.49.47.12,1.01.13,1.4.38,12.96,8.48,26.05,16.76,38.39,26.15,3.66,2.79,6.27,6.47,8.41,10.48,1.17,2.2,2.42,4.28,4.11,6.16,4.87,5.43,7.38,12.01,8.65,19.09.21,1.15.64,1.8,1.61,2.31,1.38.71,2.67,1.61,4.08,2.25,4.09,1.85,7.69,4.38,10.92,7.47.15.15.39.21.95.51-.66-2.76-1.25-5.21-1.84-7.66-2.68-11.16-7.63-21.36-13.33-31.22-5.92-10.23-12.05-20.34-18.08-30.51-.45-.75-.8-1.55-1.29-2.5,1.42-.2,1.66.66,2.02,1.26,3.97,6.51,8.06,12.95,11.84,19.57,4.55,7.97,8.95,16.02,13.18,24.16,4.41,8.48,6.82,17.65,8.73,26.97.18.86.51,1.84,1.09,2.46,3.31,3.51,6.72,6.92,10.11,10.36.16.16.38.26.74.49,4.47-5.57,10.68-9.13,15.98-13.77.23-.2.5-.37.73-.57,3.62-3.26,3.52-3.27,3.68-8.17.15-4.49.54-8.97.85-13.8-3.36-4.01-4.39-9.25-5.15-14.6-.44-3.07-.99-6.12-1.5-9.24-.93-.32-1.82-.58-2.68-.93-3.74-1.53-7.56-2.89-11.17-4.69-3.56-1.76-7.14-3.4-10.84-4.83-17.22-6.69-33.16-15.67-47.8-26.95-5.11-3.94-10.33-7.74-15.49-11.62-7.3-5.49-15.13-10.11-23.32-14.12-6.01-2.94-12.01-5.9-18.01-8.83-.55-.27-1.13-.47-1.82-.76-.43.47-.86.9-1.24,1.37-6.1,7.56-12.13,15.18-18.31,22.66-2.17,2.63-4.8,4.88-7.09,7.43-8.22,9.12-16.53,18.17-23.98,27.95-5.27,6.93-8.82,14.6-10.42,23.17-.78,4.17-.62,8.33-.3,12.53.65,8.51,1.3,17.02,2.8,25.44,1.02,5.72,3.26,11.02,5.25,16.41,6.16,16.72,13.44,32.96,21.2,48.99,5.35,11.06,10.62,22.15,15.11,33.6,3.22,8.21,5.32,16.74,7.48,25.25,3.65,14.39,7.19,28.8,10.82,43.2.61,2.41,1.44,4.76,2.18,7.13,1.33,4.32,3.92,7.89,6.67,11.4,3.81,4.86,8.18,9.18,12.72,13.3,3.38,3.06,5.35,6.82,6.45,11.11.73,2.85,1.27,5.74,1.9,8.62h-1.4c-.66-4.96-1.9-9.78-4.22-14.22-.8-1.53-2.19-2.8-3.42-4.07-3.95-4.08-8.07-8-11.92-12.18-5.34-5.8-8.42-12.82-10.3-20.41-3.43-13.89-7.03-27.73-10.28-41.66-3.93-16.83-9.81-32.91-17.31-48.46-6.11-12.68-12.19-25.39-17.79-38.31-4.6-10.63-8.55-21.54-12.64-32.39-1.96-5.19-2.83-10.66-3.27-16.19-.63-7.83-1.21-15.66-1.85-23.48-.36-4.37.77-8.44,2.15-12.53,2.89-8.57,7.81-15.92,13.63-22.66,9.52-11.01,19.19-21.89,28.94-32.7,7.21-7.99,13.71-16.53,20.07-25.19.87-1.19,1.68-2.45,2.65-3.55,3.02-3.44,4.09-7.57,4.56-12,.41-3.95,1.24-7.84,2.79-11.52.54-1.27,1.28-2.49,2.11-3.6,1-1.33,2.33-2.28,4.07-2.49,3.46-.43,6.92-.88,10.76-1.38,2.35-5.97,5.16-12.18,7.09-18.75-1.14-.24-2.32-.15-2.89-.71-.71-.69-1.16-1.87-1.27-2.89-.18-1.68-.12-3.42.06-5.11.66-6.41,1.51-12.81,2.1-19.23.48-5.18-.31-10.23-2.16-15.12-3.03-8-6.08-15.99-8.95-24.05-3.49-9.81-7.15-19.58-9.67-29.71-2.06-8.29-2.75-16.72-2.6-25.22.07-4.01,1.73-7.55,3.93-10.82,6.96-10.32,15.67-18.84,25.83-26.03,7.3-5.17,15.39-8,24.02-9.71,8.77-1.74,17.64-2.79,26.51-3.83C159.92.18,166.05-.03,172.2,0c10.03.05,19.79,1.83,29.44,4.41,7.67,2.05,15.28,4.29,22.61,7.37,3.34,1.41,6.6,3.02,9.82,4.69,1.5.77,2.77,1.97,4.22,2.85,2.41,1.46,4.97,2.68,7.3,4.24,2.23,1.49,4.26,3.29,6.37,4.97.85.68,1.7,1.37,2.53,2.07.75.63,1.46,1.29,2.21,1.93,1.05.9,2.13,1.77,3.18,2.68.38.33.71.74,1.03,1.14.14.17.14.46.29.62,2.42,2.56,4.85,5.1,7.28,7.65.26.27.57.51.77.83.58.9,1,1.94,1.69,2.73,3.64,4.15,6.03,9.01,8.11,14.03,1.66,4.02,3.06,8.15,4.59,12.23.18.49.39.98.7,1.72,3.77-2.75,7.79-4.84,10.76-8.34,5.19-6.1,10.43-12.16,15.6-18.29,4.53-5.36,4.68-5.69,12.26-6.04,1.63-.08,3.25-.25,4.87-.41,1.61-.16,2.98-.79,4.09-2,2.47-2.69,5.73-2.56,8.89-2.14,1.06.14,2.19,1.2,2.92,2.13,1.06,1.37,2.31,1.98,3.97,2,.23,0,.47.1.7.07,3.28-.5,5.8,1.21,8.37,2.82.19.12.4.26.54.44,2.56,3.17,6.23,4.67,9.7,6.46.67.35,1.38.68,1.97,1.14,2.24,1.77,4.29,3.83,6.69,5.32,2.61,1.62,4.42,4.15,7.12,5.67,1.29.73,1.99,2.47,3.27,3.24,2.05,1.23,3.26,3.16,4.86,4.77.77.77,1,1.69,1.06,2.74.23,4.54-.03,9.02-1.61,13.35-.95,2.62-1.83,5.27-2.69,7.92-.78,2.41-2.51,3.92-4.72,4.87-1.94.84-3.62,1.92-5.23,3.34-1.52,1.34-3.54,2.26-5.49,2.91-4.14,1.38-8.39,2.34-12.78,2.53-.3.01-.59.11-1.01.2v5.44c1.24.38,2.16-.28,2.95-.94,1.94-1.64,4.09-2.27,6.65-2.31,6.61-.1,13.22-.44,19.83-.71,1.13-.05,2.33.17,3.29-.8.26-.26.88-.23,1.33-.23,3.66,0,7.32-.09,10.98.08,2.86.13,5.71.66,8.57.89,1.06.08,2.18-.08,3.21-.37,1.11-.31,1.91-1,1.58-2.41-.34-1.46.46-2.48,1.71-2.94,1.58-.58,3.25-1.24,4.9-1.29,5.36-.16,10.74-.21,16.1,0,3.32.13,6.07,1.63,7.7,4.78.81,1.56,1.88,3,2.65,4.58.37.77.21,1.79.47,2.64,1.04,3.42,2.31,6.77,3.18,10.23.59,2.31.87,4.75.91,7.14.12,6.23.3,12.47-.05,18.68-.24,4.31-1.07,8.63-2.06,12.85-.9,3.85-2.2,7.62-3.63,11.31-.74,1.91-1.92,3.77-3.3,5.3-3.66,4.04-7.98,6.85-13.81,6.39-3.13-.25-6.28-.35-9.43-.35-2.64,0-4.99.93-6.87,2.88-.76.78-1.61,1.49-2.3,2.33-1.75,2.13-4.09,3.29-6.63,4.07-2.42.75-5.03,1.05-7.27,2.14-2.2,1.07-4.49,1.68-6.77,2.39-2.51.78-5.05,1.45-7.53,2.28-2.45.82-4.23,2.59-5.82,4.54-2.48,3.06-5.42,5.57-8.78,7.6-2.53,1.53-5.12,2.96-7.6,4.57-6.86,4.43-14.44,7.63-21.17,12.24-5.56,3.81-11.54,7.06-16.22,12.07-5.23,5.61-8.58,12.06-9.36,19.79-.29,2.84-1.08,5.62-1.47,8.45-.55,3.97-.94,7.97-1.39,11.96-.3,2.69-.65,5.37-.83,8.07-.14,2.09.12,4.21-.06,6.3-.81,9.71-.11,19.43-.48,29.15-.13,3.42-.15,6.84-.2,10.26-.07,3.86.02,7.72-.21,11.57-.37,6.26-.84,12.51-1.47,18.75-.58,5.68-1.46,11.32-2.17,16.99-.54,4.38-1,8.77-1.52,13.15-.32,2.69-.68,5.38-1.03,8.06-.39,2.96-.84,5.92-1.17,8.89-.54,4.84-.96,9.7-1.5,14.55-.27,2.46-.69,4.91-1.03,7.36-.28,1.96-.59,3.93-.82,5.9-.52,4.51.42,8.93.9,13.37.36,3.29.81,6.58,1.33,9.85.73,4.64,1.61,9.26,2.34,13.91.55,3.53.96,7.07,1.44,10.61.33,2.37.69,4.74,1.01,7.11.99,7.31,1.87,14.63,2.98,21.92,1.06,6.99,2.23,13.98,3.56,20.92.9,4.68,1.5,9.41,2.42,14.08.65,3.31,1.92,6.5,2.89,9.75.44,1.48.84,2.97,1.25,4.45h-1.87c-2.33-7.03-3.82-14.24-4.9-21.56-1.33-8.98-2.98-17.92-4.37-26.9-1.09-6.99-1.95-14.01-3.02-21.01-1.96-12.82-4-25.63-6.02-38.44-.31-1.98-.72-3.96-1.14-6.25-.31.51-.44.63-.46.77-1.08,5.64-2.18,11.29-3.21,16.94-.13.72-.03,1.53.16,2.25.64,2.48,1.28,4.97,2.06,7.41,1.92,6.06.99,11.51-3.32,16.29-.23.26-.41.63-.47.97-.15.96-.11,1.97-.35,2.91-2.37,9.18-4.86,18.33-7.16,27.53-1.83,7.31-3.44,14.67-5.15,22.01-.18.77-.13,1.68-1.51,2.06.15-1.04.22-1.86.39-2.66,3.37-16.22,7.75-32.18,11.93-48.2.19-.73.33-1.46.58-2.56-3.8,2.04-7.07,4.1-9.8,6.9-6.61,6.8-11.92,14.55-16.59,22.76-2.69,4.73-5.27,9.53-7.89,14.3-3.86,7.03-7.88,13.96-13.16,20.06-1.26,1.45-2.47,2.95-3.7,4.43h-1.87c.37-.48.74-.97,1.12-1.44,2.93-3.62,6.2-7.02,8.73-10.91,3.89-5.99,7.37-12.26,10.84-18.51,4.49-8.1,8.96-16.2,14.65-23.55,4.26-5.51,8.88-10.51,15.01-14.12,4.41-2.59,7.24-6.73,7.41-12.02.13-4.07-1.43-7.88-2.77-12.15-.37,1.09-.57,1.73-.79,2.36-1.08,3-2.1,6.02-3.25,8.98-2.47,6.39-7.22,10.2-13.8,11.71-7.98,1.82-16.02,2.13-24.03.23-12.06-2.87-23.64-7.16-35.07-11.91-3.78-1.57-7.6-3.07-11.48-4.64-.26.63-.46.97-.55,1.33-.79,3.33-1.61,6.65-2.3,9.99-.16.77,0,1.7.27,2.47,6.68,19.4,13.38,38.8,20.13,58.18,1.63,4.69,3.42,9.34,5.14,14h-1.4c-1.41-3.86-2.77-7.74-4.23-11.58-2.79-7.31-4.78-14.93-9.03-21.66-4.6-7.29-8.97-14.72-13.47-22.08-.42-.68-1.02-1.25-1.62-1.98-.26.46-.42.64-.48.85-1.8,6.27-3.51,12.56-5.42,18.79-1.84,6.01-3.71,12.05-6.64,17.63-3.54,6.74-7.31,13.35-10.98,20.02h-1.4c1.79-3.27,3.54-6.56,5.38-9.81,3.98-7.04,7.84-14.13,10.38-21.87,5.61-17.07,10.07-34.45,14.15-51.94.21-.88.34-1.78.47-2.49-8.5-3.14-16.76-6.2-25.13-9.3-.39,1.06-.74,2-1.07,2.94-4.28,12.09-8.55,24.18-12.85,36.26-6.86,19.24-15.15,37.81-26.07,55.13-.19.3-.2.71-.3,1.07h-1.87c.4-.66.81-1.33,1.21-1.99,6.8-11.09,12.99-22.5,17.96-34.53,7.05-17.03,13.12-34.43,19.16-51.83.88-2.54,1.72-5.1,2.62-7.77-6.43-2.72-12.64-5.37-18.89-7.93-.49-.2-1.37.09-1.86.44-2.51,1.83-4.95,3.77-7.43,5.64-.72.55-1.06,1.18-1.17,2.13-.58,4.86-1.21,9.71-1.92,14.55-1.65,11.22-3.23,22.45-5.08,33.63-1.37,8.27-2.75,16.58-4.83,24.69-1.85,7.2-4.68,14.16-7.1,21.21-.1.29-.45.5-1.04,1.12,0-.99-.08-1.51.02-1.98.14-.68.4-1.34.63-2,1.96-5.65,4.22-11.22,5.83-16.97,3.1-11.01,4.7-22.35,6.45-33.63,1.99-12.89,3.73-25.82,5.56-38.73.08-.54,0-1.11,0-1.83-.67.47-1.11.77-1.54,1.09-9.42,7.12-17.87,15.52-28.25,21.37-1,.57-1.26,1.43-1.26,2.55,0,3.97-.09,7.94-.15,11.91-.07,5.37.23,10.73,1.09,16.03,2.35,14.43,5.73,28.64,9.23,42.83h-1.4Zm125.2-283.58c.36-.14.74-.24,1.07-.43,4.88-2.74,9.77-5.47,14.61-8.27,1.33-.77,2.64-1.67,3.75-2.73,2.72-2.59,2.85-5.16.07-7.57-1.22-1.05-1.52-2.14-1.68-3.48-.64-5.31-1.23-10.64-1.92-15.95-.52-4.01-1-8.07-2.86-11.72-3.58-7.02-7.79-13.63-13.11-19.49-1.34-1.48-2.73-2.91-4.21-4.48-1.23,1.96-2.24,3.7-3.38,5.35-2.8,4.05-5.87,7.93-10.3,10.28-4.04,2.14-8.21,4.09-12.45,5.81-6.54,2.64-13.36,3.39-20.34,2.08-3.73-.7-7.44-1.45-11.45-2.24,1.3,1.24,2.52,2.21,3.5,3.38,2.2,2.61,4.36,5.27,6.41,8,5.65,7.53,10.1,15.66,12.33,24.9,1.91,7.93,3.94,15.83,5.83,23.77.3,1.26.83,1.9,2.09,2.06,1.69.23,3.36.7,5.06.77,2.44.11,4.93.48,7.31-.44-.04-.27-.03-.43-.08-.57-5.17-13.91-10.32-27.83-15.54-41.72-1.34-3.56-2.94-7.02-4.4-10.53-.24-.58-.85-1.28.5-1.81,4.22,8.72,7.4,17.87,10.77,26.93,3.4,9.15,6.8,18.31,10.22,27.53.79-.21,1.33-.27,1.81-.48,2.69-1.22,5.44-2.32,8.02-3.74,2.91-1.6,5.65-3.49,8.47-5.26l-.08.07Zm-43.63,104.03c-.81-.74-1.34-1.28-1.94-1.74-2.88-2.25-5.86-4.38-8.65-6.74-2.49-2.09-4.86-4.34-7.15-6.66-3.44-3.48-6.8-7.06-10.13-10.66-.75-.81-1.52-.93-2.49-.75-1.83.33-3.67.67-5.51.93-7.77,1.08-15.52,2.31-23.31,3.15-6.55.7-13.1,1.44-19.74.69-9.33-1.04-18.35-3.24-27.14-6.45-1.31-.48-2.61-1.01-3.87-1.61-.25-.12-.31-.64-.61-1.35.84.25,1.27.36,1.68.5,2.78,1,5.53,2.1,8.34,2.99,11.58,3.64,23.32,6.05,35.56,4.49,10.32-1.31,20.64-2.62,30.95-3.96,1.26-.16,2.49-.51,4.01-.83-.5-.56-.74-.85-1-1.12-3.19-3.2-6.32-6.46-9.6-9.56-3.39-3.21-6.91-6.25-11.27-8.19-1.2-.53-2.3-.7-3.57-.68-4.51.08-9.03.16-13.54.03-6.68-.19-13.34-.67-20.02-.82-8.17-.18-16.35-.12-24.52-.2-5.05-.05-10.11-.2-15.16-.3-.16,0-.33.03-.46-.02-.36-.14-.71-.32-1.06-.48.62-.5,1.19-.66,1.75-.65,1.48.01,2.95.13,4.43.14,11.05.11,22.1.18,33.15.33,4.04.05,8.07.33,12.11.43,7.15.19,14.3.33,21.46.47.34,0,.68-.11,1.54-.25-1.4-.87-2.39-1.45-3.35-2.08-10.81-7.07-21.61-14.16-32.44-21.21-8.82-5.74-17.97-10.86-27.77-14.75-5.95-2.36-12.03-4.33-18.48-4.55-7.3-.24-14.62-.2-21.87.99-7.93,1.31-15,4.46-21.03,9.88-5.46,4.91-10.14,10.5-14.8,16.14-2.56,3.09-4.05,6.6-5.12,10.36-1.06,3.73-1.18,7.45-.22,11.27,1.84,7.27,4.6,14.17,7.93,20.88,2.78,5.62,6.66,10.5,10.32,15.52,9.76,13.39,19.77,26.62,29.14,40.29,7.44,10.85,15.05,21.56,22.91,32.11,10.13,13.6,20.24,27.22,30.36,40.82.51.68,1.06,1.36,1.69,1.93,1.45,1.32,2.35,1.35,3.95.23.57-.4,1.07-.9,1.61-1.34,1.01-.81,1.94-1.76,3.05-2.39,4-2.29,7.73-4.92,11.34-7.77,11.23-8.88,22.34-17.9,33.79-26.48,21.2-15.89,41.26-33.05,60.04-51.72.5-.49,1-.99,1.4-1.56,1.14-1.58,1.22-2.7-.02-4.25-.96-1.2-2.13-2.26-3.33-3.21-3.47-2.75-7.04-5.38-10.52-8.13-.93-.73-1.85-1-3.01-.92-4.02.28-8.05.73-12.08.69-6.91-.07-13.82-.45-20.73-.72-5.05-.2-10.09-.38-15.14-.66-6.59-.36-13.17-.8-19.75-1.22-1.42-.09-2.83-.23-4.41-.36.6-1.62,1.7-1.08,2.47-1.04,3.25.17,6.49.51,9.75.69,4.58.26,9.16.4,13.73.66,6.59.37,13.16.92,19.76,1.19,8.7.35,17.41.41,26.56-.43Zm209.95-203.01c-1.44-2.33-2.03-2.21.04-4.5.35-.39.63-.93.7-1.44.07-.49-.01-1.19-.32-1.48-.26-.24-1.06-.18-1.42.05-1.56,1-3.3,1.38-5.08,1.52-1.68.13-3.38.01-5.07.05-5.67.14-11.34.28-17.01.47-5.28.18-10.56.32-15.84.66-4.25.27-8.52.65-12.73,1.29-4.22.64-8.37,1.69-12.57,2.5-.98.19-2.02.27-3,.14-1.61-.22-2.27-1.4-1.6-2.88.54-1.19,1.19-2.39,2.04-3.37,4.4-5.13,8.79-10.28,13.37-15.25,4.37-4.75,7.58-10.04,8.75-16.44.32-1.75.6-3.55.56-5.31-.07-2.91-1.84-4.96-4.53-4.96-1.71,0-3.59.51-5.09,1.35-2.36,1.32-4.65,2.89-6.62,4.72-3.93,3.64-7.69,7.46-11.39,11.34-4.29,4.5-8.39,9.18-12.65,13.71-5.09,5.4-10.56,10.34-17.22,13.79-4.44,2.3-8.66,5.01-12.09,8.66-4.62,4.9-7.47,10.82-9.23,17.31-1.9,7.02-2.64,14.27-4.42,21.34-2.42,9.63-3.87,19.51-5.88,29.25-3.76,18.19-7.2,36.43-12.06,54.39-2.94,10.87-5.01,21.97-7.56,32.94-2.55,10.98-5.22,21.96-9.68,32.34-3.8,8.85-8.04,17.52-12.14,26.24-2.58,5.5-4.09,11.13-3.48,17.33.78,7.82,2.8,15.11,7.58,21.47.28.37.38.87.65,1.5-1.54-.03-1.96-1.06-2.49-1.83-4.47-6.45-6.54-13.71-6.97-21.45-.21-3.79-.18-7.6,1.04-11.38-2.75-1.37-5.28-2.64-7.5-3.74-20.59,20.83-42.45,39.56-65.73,56.7.27.25.37.39.5.45,5.65,2.41,11.29,4.82,16.96,7.18.57.24,1.31.1,1.91.13.64.49,1.2,1.18,1.93,1.46,7.12,2.71,14.26,5.36,21.41,7.98.82.3,1.68.89,2.66.28.16-.1.56.13.82.28.78.44,1.5,1,2.31,1.36,1.35.59,2.78,1.01,4.13,1.59,10.65,4.57,21.47,8.65,32.54,12.12,9.04,2.83,18.15,3.99,27.56,2.63,8.38-1.21,14.43-5.17,17.41-13.47,2.11-5.87,3.8-11.84,5.09-17.92,1.62-7.68,2.8-15.43,3.6-23.24.74-7.18,1.65-14.35,2.51-21.51.85-7.09,1.74-14.17,2.6-21.26.7-5.78,1.4-11.56,2.07-17.34.5-4.39.98-8.79,1.42-13.2.73-7.26,1.56-14.51,2.08-21.78.39-5.5.44-11.03.5-16.55.11-9.57.05-19.15.21-28.72.1-5.98.39-11.95.76-17.92.51-8.23,1.84-16.36,3.45-24.44.77-3.88,1.79-7.68,3.68-11.25,2.32-4.39,5.77-7.7,9.44-10.83,6.61-5.62,14.06-10,21.54-14.32,6.06-3.5,12.24-6.79,18.27-10.34,2.6-1.53,5.07-3.34,7.37-5.29,1.51-1.27,2.96-2.75,4.1-4.78-.63.17-.93.22-1.22.33-4.59,1.7-9.18,3.4-13.76,5.11-.65.24-1.28.66-1.78-.32,1.11-1.14,2.62-1.37,3.97-1.86,7.97-2.85,15.93-5.78,23.97-8.4,4.79-1.56,9.76-2.55,14.61-3.94,2.37-.68,4.81-1.4,6.59-3.3,1.8-1.93,3.55-3.91,5.42-5.97Zm-132.98-108.24c-.03-.33,0-.57-.08-.78-1.93-5.41-3.65-10.91-5.89-16.2-1.72-4.06-3.68-8.14-6.24-11.7-4.63-6.43-9.86-12.38-15.82-17.7-9.32-8.33-19.86-14.68-31.1-19.97-8.77-4.13-18.02-6.8-27.39-9.12-8.7-2.16-17.53-3.3-26.53-3.27-7.08.03-14.14.25-21.15,1.3-8.14,1.22-16.3,2.33-24.38,3.86-6.75,1.27-13.19,3.5-18.94,7.5-9.25,6.43-17.92,13.42-24.55,22.68-2.28,3.18-4.39,6.43-5.64,10.15-.56,1.68-1.14,3.46-1.15,5.2-.03,4.11.03,8.25.49,12.33.81,7.2,2.45,14.27,4.72,21.13,2.88,8.7,6.17,17.27,9.26,25.91,2.59,7.25,5.28,14.46,7.64,21.78,1.48,4.59,2.05,9.35,1.26,14.25-.94,5.82-1.6,11.69-2.31,17.55-.16,1.3-.15,2.65-.02,3.96.21,2.12,1.48,2.87,3.39,1.92,1.65-.83,3.26-1.83,4.71-2.97,2.55-1.99,4.22-4.61,4.36-7.91.09-2.07.02-4.18-.32-6.21-.8-4.83-1.74-9.64-2.75-14.42-1.48-7-1.07-13.78,2.25-20.2,1.24-2.39,2.39-4.94,5.37-5.8.38-.11.64-.64.94-1,.65-.77,1.3-1.55,1.93-2.34,2.82-3.53,6.53-4.85,10.94-4.45.68.06,1.37.06,2.05,0,5.62-.51,10.49.87,14.05,5.56,1.27,1.67,2.61,3.29,3.8,5.02,3.15,4.54,6.23,9.12,9.37,13.67.62.89,1.28,1.78,2.05,2.54,1.09,1.07,1.85.95,2.57-.37.44-.81.73-1.71,1.01-2.6,1.1-3.48,2.01-7.03,3.29-10.44,1.8-4.82,4.06-9.43,7.39-13.43,1.9-2.28,4.18-3.49,7.27-3.48,4.26.02,8.36.76,12.35,2.13,5.19,1.77,9.59,4.49,12.58,9.42,3.79,6.25,9.56,10.12,16.64,11.95,8.05,2.08,16.09,4.2,24.19,6.08,4.22.98,8.53,1.66,12.84,2.14,2.16.24,4.4-.25,6.93-.44-1.96-5.13-2.98-10.15-1.97-15.16.97-4.85,2.64-9.57,4.2-14.29,1.66-5.02,6.16-7.87,9.4-11.59-1.68-5.32.17-7.28,3.12-9.66,1.14-.92,2.46-1.63,3.85-2.54Zm-107.65,75.47c-2.77,2.24-3.78,4.87-3.59,8.03.09,1.47.09,2.96,0,4.44-.11,1.86-.17,3.75-.59,5.55-1.49,6.37-4.79,11.07-11.76,12.28-1.88.33-3.73.92-5.31,2.08,1.14,2.35,3.65,3.61,4.26,6.24-2.48-1.1-3.53-3.8-5.7-5.24-2.22,1.74-1.82,3.99-1.34,6.08,1.33,5.71,3.45,11.14,6.21,16.3,2.51,4.7,6.14,8.28,11.35,9.81,4.01,1.17,7.35,3.27,10.25,6.19,3.91,3.94,8.64,6.26,14.13,7.08,2.23.33,4.45.69,6.65,1.15,4.5.95,8.94.65,13.38-.42,5.18-1.24,9.95-3.5,14.74-5.75,5.17-2.43,9.07-6.16,12.33-10.74,2.81-3.96,4.9-8.27,6.77-12.73,2.5-5.95,5.1-11.84,6.55-18.18.55-2.39.77-4.79.47-7.17-1.18-9.46-4.02-18.51-7.15-27.47-.94-2.7-3.49-3.83-6.18-2.91-1.25.43-2.45.99-3.67,1.48-3.68,1.47-7.35,2.98-11.05,4.39-3.9,1.49-8.02,2.22-12.14,1.8-6.48-.66-12.93-1.65-19.36-2.7-4.29-.7-8.52-1.76-12.78-2.67-2.29-.49-4.05.27-5.62,2.33.77.68,1.5,1.27,2.16,1.92,1.39,1.36,2.78,2.73,4.11,4.15.26.28.24.81.35,1.22-.19.11-.37.22-.56.34-2.29-2.28-4.57-4.55-6.91-6.88Zm-23.52,32.17c-3.14-3.65-6.14-7.2-9.21-10.69-5.03-5.74-10.01-11.5-13.24-18.53-.24-.53-.72-1.02-1.21-1.34-6.79-4.52-11.89-10.69-16.55-17.22-4.68-6.55-5.04-13.67-2.11-21.06.31-.77.61-1.54.91-2.31l-.53-.43c-.1.28-.15.58-.3.83-.54.94-1.18,1.83-1.65,2.81-2.71,5.62-3.69,11.46-2.42,17.67,1.21,5.93,2.32,11.89,3.3,17.86.91,5.52-.23,10.6-5.09,13.82-2.96,1.96-4.28,4.47-5.4,7.63-3,8.48-6.09,16.95-10.76,24.92.72.42,1.4.78,2.04,1.18,2.38,1.48,4.83,2.85,7.1,4.47,12.83,9.1,24.62,19.46,36.1,30.18,7.22,6.73,14.53,13.36,21.84,19.99,9.11,8.28,18.7,15.93,29.15,22.47.54.34,1.12.64,2.1,1.2-2.98-12.49-6.84-23.88-17.4-31.96-.3,1.54-.41,2.8-.8,3.96-.35,1.05.13,2.52-1.48,3.07,1.43-10.75,3.5-21.32,8.13-31.58-1.88-.74-3.49-1.49-5.16-2.01-5.73-1.79-9.94-5.4-12.75-10.62-2.66-4.94-4.69-10.17-6.1-15.6-.79-3.04-1.41-6.16,1.49-8.73Zm130.3,42.58c-.23.65-.49,1.29-.67,1.95-2,7.27-4.02,14.53-5.96,21.82-1.32,4.96-2.42,9.94-2.54,15.13-.1,4.41-2.01,7.92-6.08,10.03-.48.25-.95.54-1.42.8-2.79,1.53-5.63,3.01-8.38,4.61-5.65,3.28-11.22,6.7-16.89,9.94-4.81,2.74-9.93,4.49-15.58,3.98-2.78-.25-5.56-.55-8.31-1.04-6.71-1.2-13.1-3.3-18.85-7.1-7.86-5.19-15.85-10.19-23.57-15.57-11.44-7.99-21.56-17.57-31.84-26.95-5.74-5.24-11.26-10.73-17.1-15.85-7.13-6.25-14.4-12.34-21.8-18.26-4.12-3.3-8.49-6.33-13-9.08-4.3-2.62-9.07-4.5-12.75-8.61-.66,1.42-1.31,2.56-1.75,3.78-1.86,5.21-3.16,10.57-3.8,16.07-.35,3.05.34,5.73,3.22,7.45.8.48,1.51,1.1,2.27,1.63,15.5,10.7,31.04,21.33,46.48,32.11,7.52,5.25,15.05,10.54,22.21,16.27,7.48,5.98,14.88,12.03,22.86,17.34,13.46,8.96,28.11,14.56,44.33,15.64,5.02.34,9.9-.29,14.55-2.45,8.83-4.09,17.34-8.8,25.7-13.76,5.49-3.25,10.84-6.73,16.27-10.08.66-.41,1.27-1.26,2.23-.58-.03.19,0,.42-.09.48-6.83,4.44-13.68,8.86-20.55,13.3.91,5.23,8.84,33.57,9.65,34.72,8.99-32.04,14.97-64.89,21.16-97.71Zm-31.91-96.03c-.41-.13-.69-.24-.97-.31-9.73-2.41-19.46-4.79-29.18-7.22-7.95-1.99-13.93-6.69-18.18-13.6-1.57-2.55-3.74-4.33-6.32-5.7-4.39-2.32-9.12-3.5-14-4.16-4.33-.58-7.83.69-10.13,4.59-.04.07-.09.12-.14.19-3.73,5.45-6.28,11.43-8.06,17.76-.55,1.94-1.05,3.91-1.75,5.8-1.02,2.74-2.03,3.18-5.23,2.15,6.52,6.8,12.69,13.23,19.06,19.87,2.52-3.11,5.71-2.7,9.03-1.94,4.09.94,8.18,1.91,12.31,2.6,5.74.95,11.5,1.86,17.29,2.39,4.45.41,8.82-.64,12.99-2.27,3.98-1.55,7.91-3.25,11.86-4.88,1.95-.81,3.91-1.46,6.15-.67.54-2.61.79-5.19,1.64-7.56.86-2.38,2.33-4.54,3.65-7.04Zm-119.53,23.97c5.6,11.25,14.69,19.33,21.92,28.42,3.07-.91,5.72-1.71,8.39-2.48,2.33-.67,4.19-1.99,5.69-3.86,2-2.49,3.24-5.35,3.54-8.49.3-3.08.29-6.2.35-9.3.05-2.41.53-4.62,2.34-6.38.48-.47.81-1.09,1.13-1.54-11.96-12.97-23.82-25.84-35.65-38.67q.76,2.3-.04,3.04c-.3-.55-.6-1.07-.89-1.6-.93-1.71-1.87-3.41-2.77-5.12-1.7-3.22-4.39-4.86-7.97-5.31-3.95-.49-7.49.21-10.16,3.33-1.61,1.88-3.19,3.86-4.37,6.02-4.22,7.66-4.72,15.35.44,22.87,3.31,4.83,7.16,9.2,11.43,13.19,1.63,1.52,3.52,2.81,5.45,3.95,1.68,1,2.9.5,3.85-1.25.44-.81.7-1.72.99-2.6.28-.85.48-1.73.7-2.53.99-.14,1.15.4,1,.97-.79,3.04-1.02,6.48-5.36,7.35Zm151.74-52.58c-2.56,5.3-4.85,10.3-6.53,15.56-1.42,4.44-2.89,8.86-4.42,13.27-1.45,4.18-3.4,8.23-4.46,12.5-2.85,11.46-5.32,23.01-8.02,34.51-.31,1.32-.8,2.82-1.71,3.74-2.08,2.11-2.98,4.64-3.62,7.4-.33,1.43-.9,2.81-1.33,4.23-.14.47-.2.97-.31,1.51,4.59.63,8.97.92,13.39.11,5.86-1.08,11.5-2.66,16.57-5.93,1.17-.76,2.41-1.42,3.66-2.05,1.81-.9,3.67-.89,5.29.35,1.19.91,2.18,2.1,3.22,3.12,2.94-2.59,5.95-5.24,9.04-7.96-.22-2.73-.46-5.58-.67-8.24-3.82-1.26-3.06-4.58-3.66-7.38-3.1,0-6.12.03-9.14,0-3.21-.04-6.43-3.22-6.53-6.39-.1-3.26-.18-6.52-.31-9.78-.11-2.56-.33-5.11-.44-7.67-.12-2.71-.36-5.47,1.73-7.71.36-.38.58-.93.75-1.44.75-2.32,2.44-2.92,4.7-2.92,3,0,6-.25,9.14-.4-.2-.6-.26-.9-.39-1.18-2.84-6.05-5.58-12.15-8.56-18.13-1.71-3.43-4.38-6.19-7.39-9.1Zm-45.65,211.99c-.96.67-1.84,1.15-2.57,1.8-2.67,2.38-5.27,4.83-7.94,7.21-2.49,2.22-4.88,4.61-7.61,6.5-1.7,1.17-2.37,2.57-2.46,4.35-.16,3.26-.19,6.53-.19,9.8-.02,15.41-.04,30.82.01,46.23.02,4.97-.88,3.51,3.43,6.45.71.48,1.4.99,2.05,1.55,1.54,1.34,2.94,2.78,3.4,4.89.08.39.4.86.74,1.04,2.38,1.25,4.8,2.43,7.19,3.63,1.75-3.67,3.41-7.08,5.01-10.53,3.29-7.12,6.51-14.28,9.82-21.39.76-1.64.67-3.03-.26-4.58-2.27-3.81-4.34-7.73-6.61-11.53-1.14-1.91-1.85-3.91-2.3-6.06-1.12-5.28-1.16-10.66-1.3-15.99-.15-5.97.27-11.96.36-17.94.03-1.67.4-3.43-.78-5.42ZM336.37,53.95c.35,2.66.64,5.27,1.06,7.87.49,3.05.36,6.29,2,9.04,1.88,3.15,2.65,6.57,3.19,10.14.71,4.69,1.68,9.36,3.74,13.67.86,1.78,2.12,3.43,3.45,4.91,1.34,1.49,3.13,1.43,4.95.71,1.64-.65,2.92-1.48,2.85-3.49-.04-1.07,0-2.14-.04-3.21-.3-7.92-.55-15.84-.96-23.75-.23-4.49-.69-8.98-1.16-13.46-.22-2.16-.65-4.3-1.08-6.43-.61-3.06-2.81-4.65-5.61-5.28-2.31-.52-4.74-.8-7.1-.73-6.6.19-13.19.54-19.78.97-6.86.45-5.65.6-9.57,5-4.49,5.05-8.81,10.26-13.21,15.39-1.31,1.52-2.66,3.01-4.04,4.58.32.09.5.2.61.16,4.24-1.75,8.7-1.57,13.12-1.43,3.62.12,7.07.94,9.97,3.37,1.17.98,2.55,1.26,4.13,1.06,4.99-.63,9.98-1.53,15.06-.83.09.01.21-.18.36-.32-.56-1.64-1.12-3.29-1.74-5.11-2.32,0-4.64.03-6.97,0-3.36-.05-6.4-1.15-9.21-2.92-.56-.35-1.07-.73-.55-1.34,2.73.99,5.34,2.32,8.09,2.8,2.77.48,5.68.11,8.65.11-.11-1.16-.16-2.01-.27-2.85-.34-2.54-.69-5.07-1.04-7.61-.08-.58-.12-1.12,1.1-1.04Zm-52.41,173.73c.7-3.64,1.44-7.21,2.05-10.8,1.15-6.8,2.95-13.35,6.78-19.2.21-.32.41-.67.53-1.04.53-1.58-.27-2.72-1.38-3.67-.99-.85-1.93-1.68-3.49-.89-2.91,1.47-5.87,2.88-8.9,4.06-3.54,1.37-7.11,2.82-10.81,3.59-3.3.69-6.79.6-10.19.69-1.34.04-2.37.33-3.29,1.34-1.36,1.5-2.9,2.82-4.25,4.33-1.12,1.25-2.17,2.6-3.09,4.01-1.02,1.55-1.04,1.89.37,3.22,1.8,1.69,3.26,3.66,4.9,5.48.3.34.74.55,1.06.87.31.31.63.64.83,1.02.87,1.64,1.74,3.26,3.38,4.3.23.14.37.45.5.71.43.89.73,1.85,1.27,2.67,3.8,5.79,6.65,11.95,7.49,18.9.66,5.4,1.34,10.8,1.82,16.22.19,2.11,1.22,3.52,2.71,5.14,1.44-14.13,6.12-27.15,9.72-40.35.77-.23,1.34-.41,1.99-.6Zm-68.65,68.21c-.25-1.2-.4-2.04-.6-2.86-1.62-6.64-3.29-13.28-4.87-19.93-1.78-7.49-4.57-14.56-8.93-20.9-2.95-4.29-6.26-8.32-9.37-12.49-1.77-2.37-4.03-4.15-6.72-5.25-2.58-1.05-5.26-1.86-7.92-2.69-.92-.29-1.92-.32-2.84-.47-1.95,5.05-3.19,10.02-4.22,15.06-.24,1.18.18,1.8,1.06,2.54,5.29,4.39,9.37,9.72,12.03,16.09,2.16,5.18,3.92,10.48,4.96,16,.16.87.34,1.64,1.18,2.14,5.33,3.2,10.59,6.52,15.98,9.61,3.04,1.75,6.49,2.45,10.26,3.15Zm34.65,79.31c.45-1.27.78-2.13,1.07-3,4.14-12.57,7.04-25.45,9.86-38.36.26-1.19.21-2.28-.1-3.42-3.13-11.47-6.24-22.94-9.37-34.4-.17-.63-.42-1.24-.67-1.97-5.79,3.12-11.38,6.14-17.17,9.26.52,4.74,1.03,9.46,1.56,14.29.5-.2.71-.29.92-.38,2.26-.87,3.04-.54,3.37,1.8.22,1.58.03,3.22.02,4.84-.05,9.09-.59,18.2.32,27.27.4,4.01.77,8.02,3.07,11.58,1.94,3,3.6,6.18,5.38,9.28.53.93,1.02,1.87,1.74,3.2Zm74.52-291.11c-2.54,0-5.02.04-7.49-.01-2.17-.04-4.33-.25-6.5-.27-2.62-.03-4.3,1.25-5.34,3.7-.83,1.96-.82,3.92-.74,5.94.08,1.92-.61,3.46-1.96,4.8-.88.87-1.72,1.8-2.44,2.81-2.17,3.03-1.6,7.81,1.34,10.06,1.5,1.15,2.55,2.21,1.69,4.22-.17.4-.05.92-.04,1.39.1,5.43.21,10.87.32,16.3,0,.28.15.56.24.91.7.03,1.32.1,1.93.08,4.03-.14,8.07-.52,12.09-.39,3.12.1,5.58-.75,7.69-3,.84-.89,1.36-1.71,1.35-3.02,0-2.32-.06-4.71.47-6.94,1-4.21,2.31-8.37,3.69-12.48.54-1.61.78-3.15.49-4.78-1.17-6.72-4.18-12.78-6.8-19.3Zm129.19,61.55c-.42-5.26-.72-10.53-1.28-15.77-.56-5.19-2.27-10.06-5.59-14.14-3.46-4.25-5.17-3.91-8.52-.54-2.97,3-4.18,6.87-5,10.86-1.45,7.03-1.4,14.2-1.75,21.32-.12,2.47.11,4.97.27,7.44.3,4.49.58,8.98,1.04,13.46.39,3.83,1.67,7.42,3.54,10.79.96,1.74,2.28,2.98,4.43,2.85,3.02-.18,5.04-1.73,6.18-4.53,4.14-10.17,7.1-20.57,6.68-31.74Zm-11.51,37.67c-3.89.55-6.11-1.51-7.44-4.6-1.13-2.63-2.25-5.35-2.73-8.14-.78-4.58-1.34-9.24-1.45-13.88-.22-8.93-.34-17.89.9-26.78.42-2.99,1.06-5.97,1.93-8.85.93-3.09,2.63-5.8,5.15-7.92,2.6-2.2,4.08-2.33,6.92-.57.36.22.71.46,1.24.8-1.74-4.92-4.3-6.82-9-6.84-2.65-.01-5.31.16-7.94-.05-2.24-.18-3.65.79-4.94,2.4-2.95,3.68-4.65,7.93-5.53,12.47-2.1,10.76-3.39,21.59-2.94,32.61.28,6.79,1.13,13.46,2.9,20.01,1.15,4.24,2.91,8.19,5.65,11.68.97,1.24,2.02,2.02,3.73,1.84,1.54-.16,3.11-.04,4.67-.03,3.55.01,6.32-1.71,8.89-4.14Zm-17.95,3.93c-.31-.63-.4-.93-.59-1.15-1.95-2.37-3.31-5.08-4.37-7.93-2.74-7.35-3.79-15.05-4.15-22.82-.5-10.51.53-20.95,2.3-31.31,1.06-6.2,2.93-12.09,7.18-16.95.07-.08,0-.28,0-.49-.38-.02-.77-.09-1.15-.06-1.9.15-3.3,1.34-4.62,2.51-1.12,1-.03,2.22.17,3.27.45,2.32-.1,4.16-2,5.55-2.96,2.15-5.91,4.29-8.91,6.38-3.83,2.66-7.73,5.23-11.52,7.93-.69.49-1.36,1.39-1.5,2.19-1.53,9.16-1.97,18.34-.46,27.58.39,2.41,1.62,4.12,3.29,5.68,4.01,3.75,8.52,6.75,13.52,9,1.77.8,3.56,1.57,5.3,2.42,2.4,1.18,2.92,3.39,1.34,5.58-.27.38-.72.66-.89,1.06-.14.32.02.76.07,1.43.73-.51,1.19-.84,1.82-1.28.26.6.45,1.04.6,1.41h4.57Zm-39.15-73.42c-6.18.21-12.27.37-18.35.69-1.17.06-2.55.48-3.41,1.23-1.31,1.14-2.44,2.61-3.31,4.13-2.76,4.85-4.43,10.09-5.19,15.61-.27,1.93-.54,3.87-.83,5.92,2.12-.98,3.87-2,5.76-2.61,5.7-1.84,9.51,1.1,9.13,7.01-.47,7.28-2.92,13.79-7.83,19.28-1.76,1.96-3.51,3.93-5.24,5.87.99,4.92,3.67,8.76,7.12,12.24,5.62-.25,11.3-.5,17.22-.77-.62-1.4-1.11-2.53-1.62-3.65-5.05-11.09-7.88-22.59-6.06-34.85.81-5.45,1.66-10.9,2.91-16.26,1.31-5.61,4.08-10.41,9.43-13.27.1-.06.13-.26.28-.56Zm-182.27,214.31c-.32,1.28-.75,2.37-.85,3.48-.25,2.86-.39,5.73-.5,8.6-.12,2.87-.01,5.74-.26,8.62-.36,4.25-.39,8.54-.51,12.81-.19,7-.31,13.99-.49,20.99-.03,1.09.27,1.86,1.18,2.58,4.26,3.38,8.45,6.86,12.67,10.28.38.31.84.5,1.37.81.15-2.79.4-5.34.41-7.89.04-12.3.03-24.61,0-36.91,0-1.86-.27-3.72-.26-5.58.01-2.48.15-4.97.28-7.45.1-2.04-.74-3.24-2.71-4.06-3.22-1.34-6.35-2.95-8.84-5.52-.29-.3-.78-.41-1.5-.77Zm156.22-250.93l-.46.22c0,1.23-.02,2.45,0,3.68.11,5.2.24,10.4.33,15.61.04,1.94-.67,3.45-2.55,4.31-2.96,1.36-5.89,2.8-8.83,4.19-2.15,1.02-2.54,2.17-1.4,4.26.73,1.33,2.07,1.99,3.75,1.7,1.14-.2,2.25-.59,3.39-.83,2.58-.54,5.16-1.09,7.75-1.55,2.51-.44,5.05-.73,7.56-1.18,2.37-.42,4.04-1.82,4.9-4.08.52-1.37,1.04-2.77,1.33-4.21,1.43-7.07,2.83-14.15,4.14-21.24.69-3.75.03-7.14-3.25-9.59-.62-.46-1.27-.89-1.93-1.3-5.04-3.08-10.09-6.15-15.14-9.21-.5-.3-1.06-.52-1.73-.84.43,5.77.82,11.33,1.3,16.87.05.6.5,1.32.99,1.69,1.44,1.08,2.37,2.51,2.89,4.15,1.11,3.47,2.21,6.95,3.06,10.49.98,4.09-.84,7.43-4.66,9.04-.38.16-.9-.03-1.36-.05-.04-.16-.08-.32-.11-.48.69-.44,1.39-.87,2.07-1.32,2.45-1.61,3.73-3.81,2.92-6.75-1.04-3.73-2.23-7.42-3.45-11.1-.3-.9-.99-1.66-1.51-2.49Zm44.81,36.05c-.07-.18-.14-.37-.2-.55-2.69-.04-5.39-.01-8.08-.14-1.94-.09-3.52.64-4.86,1.88-1.02.94-1.93,2.03-2.71,3.18-2.24,3.32-3.57,7.05-4.7,10.87-1.78,6.03-1.94,12.26-2.21,18.45-.24,5.43-.14,10.87.72,16.27,1.07,6.69,3.22,12.95,7.33,18.63,3.86-.16,7.76-.33,11.97-.5-.38-.65-.53-.99-.75-1.29-5.22-7.1-6.92-15.38-7.66-23.89-.69-7.85-.05-15.68,1.35-23.43,1.34-7.44,3.19-14.64,9.8-19.48Zm-236.82,177.93c.07-.12.13-.25.2-.37-1.49-1.05-3.03-2.03-4.46-3.15-6.35-5-12.52-10.24-19.03-15.02-10.4-7.64-20.97-15.06-31.56-22.45-11.67-8.15-23.44-16.16-35.15-24.26-2.22-1.54-4.66-2.91-5.47-6.09-2.64,3.63-5.07,6.96-7.58,10.41,1.39.68,2.52,1.21,3.62,1.77,8.88,4.49,17.87,8.77,26.59,13.55,8.96,4.91,16.88,11.4,24.96,17.61,14.18,10.9,29.16,20.43,45.77,27.23.69.28,1.4.52,2.1.78Zm165.01-159.36c.29-.25.72-.57,1.07-.96,1.23-1.4,2.44-2.82,3.65-4.24,3.53-4.1,3.55-4.02,8.9-5.68,1.9-.59,3.66-1.65,5.44-2.57.36-.18.73-.64.8-1.03.32-1.72.53-3.45.79-5.3-2.18.1-4.15,1-6.09-.22-2.09-1.31-2.21-3.41-2.35-5.65-1.03-.35-2.02-.83-3.07-1-1.47-.24-2.08-1.07-2.39-2.43-1.05-4.62-2.19-9.22-3.24-13.84-.67-2.94-1.23-5.9-1.83-8.79,2.25-1.73,4.32-3.33,6.28-4.84-.23-1.38-.85-1.82-1.98-1.82-2.64.01-5.29-.1-7.93-.1-.49,0-.99.26-1.33.36,0,1.96.36,3.82-.1,5.45-.48,1.72-1.74,3.21-2.73,4.93.29.7.69,1.55,1.01,2.42,1.71,4.66,3.52,9.3,5.05,14.02.99,3.07.9,6.11-.43,9.28-1.82,4.36-3.11,8.94-3.7,13.68-.63,5.06-.21,6.11,3.77,8.3.06.03.15,0,.42,0Zm-136.18,172.74c.07.84.07,1.3.14,1.74.64,3.91,1.33,7.81,1.93,11.72.52,3.4,2.14,6.27,3.96,9.04,2.22-.02,2.4-.03,3.48,1.04,3.17,3.12,7.26,4.59,11.16,6.54,1.37-2.46,1.87-4.97,1.76-7.54-.24-5.19-.63-10.38-.97-15.57-.08-1.14-.23-2.28-.37-3.62-7.15-.28-14.04-1.23-21.08-3.35Zm111.45-160.59c-4.06-.93-8.12-1.9-12.2-2.75-.48-.1-1.15.28-1.6.61-.49.35-.77.99-1.25,1.37-1.15.91-1.46,2.05-1.42,3.48.09,3.18.03,6.37.03,9.56,0,2.41-.04,4.82.02,7.23.04,1.57,1.57,3.03,3.01,2.8,3.89-.61,7.77-1.32,11.71-2,.09-.87.17-1.63.26-2.52.67-.31,1.36-.64,2.06-.94,2.07-.89,4.16-1.72,6.2-2.67.49-.23,1.17-.77,1.19-1.19.11-2.53.06-5.07.06-7.59-2.78-.89-5.27-1.69-7.77-2.49-.1-1-.18-1.84-.28-2.88Zm-50.88,41.35c1.3-1.22,1.86-2.32,2.16-3.67,1.81-8.11,3.73-16.21,5.51-24.33,1.62-7.37,3.5-14.64,6.45-21.63,1.63-3.86,3.06-7.83,4.2-11.87,1.52-5.42,3.59-10.59,5.98-15.66.56-1.18,1.06-2.39,1.63-3.68-2.64-2.11-2.2-5.28-2.72-8.09-1.59.31-2.16,1.35-2.77,2.34-4,6.48-8.02,12.96-11.97,19.47-.42.69-.59,1.59-.64,2.41-.22,3.46.3,6.85,1.46,10.09,1.18,3.27,1.31,6.52.44,9.82-2.9,11.05-5.69,22.13-8.84,33.11-1.08,3.77-1.19,7.44-.89,11.66Zm72.93-18.83c-.8-.49-1.5-.95-2.23-1.37-2.63-1.51-5.37-2.85-7.87-4.54-2.22-1.51-4.2-1.84-6.6-.43-1.84,1.08-3.92,1.75-5.74,2.53-.14,1.06-.25,1.81-.36,2.65-3.98.71-7.86,1.39-11.87,2.1,1.49,2.93,4.33,1.12,6.36,2.08.17,2.23-.05,4.55,1.43,6.47.72.2,1.43.4,2.09.58.25,3.06.49,5.95.74,8.91,9.72-4.39,17.26-11.09,24.05-19Zm-63.63-31.62c-.84-.05-1.21-.1-1.58-.1-3.24,0-6.49.07-9.73-.04-1.16-.04-1.83.29-2.5,1.21-2.56,3.53-4.2,7.38-4.54,11.78-.11,1.35-.32,2.54.94,3.55.48.39.7,1.19.9,1.84,1.58,5.11,3.16,10.22,4.68,15.34.59,1.99,1.02,4.04,1.58,6.29.31-.47.5-.64.56-.85,2.98-11.08,5.97-22.16,8.88-33.25.46-1.77.54-3.65.83-5.76Zm15.84-37.68c1.09.14,2.39.32,3.69.46,2.73.31,5.31.95,7.6,2.64,1.42,1.05,3.06,1.81,4.74,1.74,1.29-1.57,2.35-3.11,3.66-4.41,1.93-1.89,2.45-4.02,1.81-6.59-.71-2.84-2.11-5.32-3.68-7.75-1.75-2.71-4.33-3.8-7.34-3.69-4.83.17-9.07,1.98-12.56,5.37-2.33,2.26-2.6,4.19-1.12,7.14.38.76.86,1.47,1.32,2.19.58.91,1.18,1.79,1.9,2.88Zm106.01,84.7c-4.81-7.11-6.91-14.65-7.47-22.56-.62-8.69-.43-17.42.9-26.05,1.01-6.59,3.1-12.84,7.2-18.25.15-.19.18-.47.27-.71-.11-.12-.23-.24-.34-.36-1.56.94-3.19,1.79-4.68,2.84-3.55,2.5-5.42,6.21-6.6,10.19-2.33,7.85-3.43,15.95-3.69,24.11-.25,7.63,1.66,14.94,4.45,22.01,1.25,3.16,2.66,6.26,4,9.39,2.02-.2,3.76-.38,5.96-.6Zm-60.57-108.08c-.89.13-1.5.22-2.11.3-2.83.36-5.51.39-7.87-1.76-.98-.89-2.44-1.38-3.77-1.74-10.88-2.95-20.08.75-28.57,7.32.2.56.39,1.05.54,1.48,2.21-.35,4.26-.82,6.32-.95,2.68-.16,5.22.29,7.37,2.22.67.61,1.8.81,2.75.99,4.75.88,9.56.92,14.37,1.1,1.93.07,3.86.33,5.8.43,1.69.08,3.03-.41,4.28-1.81,2.12-2.38,1.66-4.78.88-7.58Zm-146.43,291.71c6.03,5.95,11.05,12.77,18.49,17.85.3-11.79.58-23.03.87-34.28-6.18,5.81-13.94,9.52-19.35,16.42ZM374.19,106.14c2.18-2.15,4.68-3.59,6.01-6.24,2.28-4.53,4.18-9.21,5.44-14.11.83-3.22,1.32-6.53,1.82-9.82.23-1.51-.29-2.91-1.55-3.95-4.73-3.91-9.3-8.04-14.2-11.72-5.16-3.89-10.18-7.91-14.94-12.27-.53-.49-1.15-.89-1.91-1.46.52,2.45,1.05,4.53,1.37,6.64.21,1.41.7,2.34,2.01,3.11,5.7,3.35,11.36,6.77,16.95,10.3,4.58,2.89,5.96,6.43,4.94,11.77-1.2,6.25-2.31,12.52-3.59,18.76-.59,2.87-1.47,5.68-2.35,9Zm-80.05,33.46c4.97,1.41,9.81,2.05,14.32,3.47.13,1.12.22,1.95.32,2.84,2.24.71,4.39,1.34,6.5,2.08,1.2.42,2.13.34,3.19-.5,4.02-3.17,8.13-6.24,12.21-9.34,1.19-.91,2.04-2.05,2.64-3.55-2.1-1.37-4.09-2.67-6.11-4-1.19,1.05-2.19,2.02-3.3,2.86-.65.49-1.45.99-2.22,1.06-3.24.26-6.5.38-9.75.51-4.42.18-8.84.3-13.25.5-.56.03-1.24.26-1.62.65-.97.98-1.81,2.1-2.92,3.43Zm-75.73,168.05c.4,8.13.79,15.95,1.19,24.11,5.12-4.6,10.1-9.07,14.88-13.36-.33-.88-.63-1.4-.7-1.94-.26-1.92-.43-3.85-.65-5.77-.25-2.22-.51-4.43-.8-6.91-4.53,2.19-8.87,4.03-13.92,3.86Zm140.79-189.39c-2.04-.18-4.01-.59-5.88.52-1.13.67-2.34,1.21-3.51,1.83-1.2.64-2.03,1.61-2.64,2.84-1.66,3.38-2.71,6.98-3.16,10.67-.67,5.61-.99,11.26-1.44,16.9-.02.24.17.5.25.71,2.54-2.35,4.89-4.72,7.45-6.84,1.68-1.39,2.45-2.93,2.68-5.11.54-5.09,1.33-10.16,3.27-14.96.9-2.22,1.96-4.36,2.97-6.57Zm-42.65,32.26c0,1.62.09,3.49-.03,5.35-.09,1.39.5,2.09,1.66,2.72,3.55,1.93,7.03,3.99,10.54,5.98.52.29,1.07.53,1.44.71,2.45-1.32,2.92-3.27,2.64-5.64-.25-2.08-.35-4.17-.44-6.26-.19-4.03-.32-8.07-.49-12.1-.03-.59-.17-1.18-.32-2.14-5.12,3.88-9.98,7.56-15.01,11.37Zm29.45-28.12c-2.59.48-4.91.82-6.48,2.98-.87,1.19-1.92,2.24-2.88,3.36-1.14,1.34-2.28,2.69-3.4,4.02.72.64,1.29,1.13,1.84,1.62-.16.34-.23.58-.37.75-1.66,1.98-2.27,4.19-1.54,6.72.08.29.02.62.03.93.21,5.43.41,10.86.65,16.29.03.62.27,1.24.48,2.16,2.18-2.42,4.07-4.57,6.02-6.66.62-.67.87-1.36.91-2.28.19-3.95.5-7.89.73-11.84.34-5.7,1.41-11.24,3.53-16.55.16-.4.27-.83.47-1.5Zm-52.06,46.6c-1.06-.96-1.78-1.77-2.66-2.36-1.18-.79-1.49-1.79-1.47-3.15.06-5.83.06-11.65,0-17.48-.02-1.49.21-2.72,1.46-3.68.47-.36,1.16-1.05,1.07-1.42-.36-1.48.75-2.08,1.45-2.94.51-.63,1-1.29,1.87-2.41-2.69.19-4.81.33-6.93.51-.28.02-.67.18-.8.41-1.17,2-2.29,4.03-3.4,6.06-.09.17.03.45.03.68.23,6.9.47,13.79.67,20.69.04,1.34.6,2.34,1.48,3.3,1.89,2.05,4.21,2.38,7.23,1.8Zm-12.77-70.43c-.06,2.09.68,3.51,1.78,4.76,1.54,1.75,3.18,3.41,4.67,5.2,2.09,2.52,4.79,4.23,7.71,5.47,1.51.64,3.3.66,4.98.81.77.07,1.56-.21,1.65-1.02-1.3-1.61-2.83-2.94-3.6-4.62-.81-1.76-.88-3.86-1.2-5.45-1.89-.88-3.72-1.43-5.21-2.47-3.26-2.29-6.93-2.39-10.78-2.68Zm114.54,32.41c7.51-5.23,14.97-9.61,21.71-15.14-1.96-1.87-2.32-2.11-3.5-2.15-2.1-.07-4.2-.05-6.29-.18-1.42-.09-2.51.41-3.6,1.27-5.11,4.01-7.02,9.61-8.31,16.2Zm-55.14-54.41c-2.03,1.52-3.74,2.81-5.56,4.17,1.48,6.62,2.89,13.12,4.4,19.61.75,3.21.83,3.2,4.02,4.19.8.25,1.55.58,2.45.11,1.64-.87,3.34-1.62,4.96-2.4-1.32-1.28-2.67-2.43-3.8-3.77-.62-.73-1.24-1.3-2.13-1.67-2.04-.85-3.36-2.42-4.16-4.46-.97-2.47-.57-4.84.34-7.24.32-.83.56-1.8.47-2.66-.18-1.84-.6-3.66-.99-5.89Zm-126.29,458.29l.39-.17c-3.93-11.43-7.86-22.87-11.79-34.31-1.27,3.54-2.13,7-3.09,10.44-.25.89,0,1.45.53,2.1,1.07,1.33,2.16,2.66,3.06,4.11,3.28,5.28,6.48,10.61,9.71,15.92.39.64.79,1.28,1.19,1.92Zm87.5-418.78c-1.97-.09-3.63.04-5.19-.3-1.59-.35-3.09-1.16-4.67-1.79,3.06,6.64,6.07,13.17,9.1,19.69.09.2.43.29.76.49v-18.1Zm113.21,63.78c-3.37-1.73-6.7-3.19-9.76-5.08-3.07-1.89-5.87-4.22-8.81-6.37-.02.2-.12.45-.06.65,1.1,3.84,2.9,7.33,5.24,10.56.73,1.01,1.8,1.49,2.99,1.56,2.09.12,4.18.19,6.27.18,1.47,0,2.86-.35,4.14-1.49Zm-66.35-.49c-2.66,2.23-4.4,4.97-4.44,7.1,5.86.18,11.27-2,17.29-2.94-1.21-.99-1.53-2.33-3-2.24-3.47.2-6.78-.5-9.86-1.91Zm39.88-107.03c-.07.5-.17.72-.12.89.78,2.81.17,5.55-.37,8.29-1.19,6.06-3.37,11.79-5.91,17.4-.23.5-.36,1.04-.68,2,2.61-1.58,4.53-3.08,5.34-5.61.79-2.44,1.7-4.85,2.29-7.34.86-3.62,1.87-7.23,1.69-11.02-.09-1.82-.85-3.2-2.25-4.62Zm-234.09,58.49l.36-.24c-.22-.38-.41-.77-.65-1.13-1.99-2.96-3.92-5.96-5.99-8.87-2.29-3.22-4.57-6.46-7.08-9.5-2-2.41-4.68-3.83-7.93-4.01,7.16,7.99,14.23,15.87,21.29,23.76Zm123.29-36.89c-7.25,5.04-10.59,12.15-11.98,20.4,1.01-1.27,1.95-2.58,2.78-3.97,2.38-4.01,4.68-8.08,7.11-12.06.67-1.1,1.72-1.96,2.58-2.94.09-.1.11-.25.19-.44-.2-.29-.41-.6-.68-.99Zm-190.5,107.38c1.34-2.55,2.89-4.65,3.59-7.37-3.99-.15-7.61.05-11.31,1.65,2.29,2.59,4.79,4.2,7.72,5.72Zm267.29-29.01c-1.74,1.96-3.39,3.82-5.23,5.89,2.99,1.26,5.65,2.22,8.66,1.57-1.16-2.52-2.24-4.88-3.43-7.47Zm-11.47-129.84c-2.86-3.43-8.08-2.99-9.98.61,3.26-.2,6.45-.39,9.98-.61Zm13.78,68.52c-2.36.32-2.5.29-2.69,1.21-.34,1.63-1,3.25-.65,4.98,1.14-.24,2.19-.45,3.35-.69v-5.49Zm-174.47,120.81c.09-.1.19-.2.28-.31-2.07-1.8-4.14-3.6-6.45-5.6-.6,1.45-1.08,2.62-1.63,3.93,2.74.69,5.27,1.33,7.8,1.97Zm162.61-136.48c-.96-3.15-1.81-5.92-2.68-8.77-1.68,3.16-.74,6.37,2.68,8.77Zm-44.22-12.44c1.04,1.87,1.87,3.35,2.74,4.9.86-1.48,1.6-2.77,2.48-4.28-1.72-.21-3.21-.39-5.22-.63Zm-45.92,117.85c-.08-.15-.16-.29-.24-.44h-2.45c-.6,1.46-1.17,2.85-1.74,4.23.14.08.27.15.41.23,1.34-1.34,2.67-2.68,4.01-4.02Zm112.07-145.65c.97.67,1.94,1.34,2.9,2-.66-1.13-1.38-2.16-2.9-2Zm50.82,57.22c-.5.32-.83.53-1.33.86.56.36.9.58,1.46.94-.05-.72-.08-1.15-.12-1.81Zm-261.73,20.32c-.03-.16-.15-.74-.27-1.32-.16.16-.32.32-.48.48.33.37.67.74.76.84Z"/>
  <path class="cls-1" d="m105.22,571.05c-4.21-16.41-8.43-32.81-12.66-49.3,1.32-.12,1.41.7,1.58,1.31,1.07,3.81,2.32,7.58,3.12,11.45,2.55,12.33,5.94,24.44,9.37,36.55h-1.4Z"/>
  <path class="cls-1" d="m250.59,287.4c-1.14.08-1.34-.76-1.66-1.59-2.56-6.59-5.08-13.2-7.76-19.74-1.71-4.16-3.73-8.2-5.53-12.33-2.72-6.23-4.28-12.81-5.53-19.46-.09-.47.1-.98.17-1.56,1.01.19.98.82,1.09,1.42.98,5.52,2.28,10.96,4.31,16.18,1.13,2.89,2.59,5.65,3.76,8.53,3.6,8.85,7.14,17.72,10.68,26.6.25.63.27,1.35.4,2.03,0,0,.08-.07.08-.07Z"/>
</svg>