<?xml version="1.0" encoding="UTF-8"?>
<svg id="SKHLMC" xmlns="http://www.w3.org/2000/svg" viewBox="0 0 288.26 381.24">
  <defs>
    <style>
      .cls-1 {
        fill: #010101;
        stroke-width: 0px;
      }
    </style>
  </defs>
  <path class="cls-1" d="m106.17,296.22c-.78-3.44-1.6-6.87-2.32-10.32-.51-2.43-1-4.88-1.25-7.35-.27-2.61-.41-5.25-.13-7.88.03-.25,0-.51,0-.86-.63.37-1.18.7-1.83,1.08.02-.06-.03.03-.03.11-.04,1.7-.1,3.41-.12,5.12-.03,2.66-.06,5.33-.06,7.99,0,2.34.03,4.68.06,7.02,0,.47.06.93.09,1.4-.07.02-.15.04-.22.06-.08-.15-.22-.29-.23-.44-.08-1.01-.17-2.02-.18-3.03-.02-3.25-.03-6.49,0-9.74.02-2.61.11-5.21.17-7.81,0-.26.06-.51.1-.82-1.41-.92-2-2.56-3.16-3.81-1.22,1.76-2.98,2.85-4.76,3.93-2.46,1.5-4.01,3.7-4.86,6.43-.06.19-.14.37-.22.55-.01.03-.1.03-.18.05-.27-.29-.08-.59,0-.87.89-2.89,2.61-5.13,5.2-6.69,1.32-.79,2.63-1.59,3.67-2.75.3-.34.55-.73.84-1.12-.25-.34-.44-.62-.65-.9-3.88-5.16-7.79-10.3-11.61-15.51-.96-1.31-2.05-2.2-3.57-2.8-2.2-.87-4.29-2.01-6.43-3.05-.21-.1-.52-.17-.35-.66.96.36,1.82.87,2.71,1.3.89.42,1.76.88,2.65,1.3.91.42,1.83.8,2.84,1.07-.08-.14-.15-.28-.24-.42-1.47-2.19-2.93-4.38-4.42-6.55-.32-.47-.73-.89-1.18-1.25-2.74-2.18-5.52-4.32-7.92-6.89-.23-.25-.44-.51-.66-.77.03-.06.07-.12.1-.17.15.05.35.05.45.15.67.64,1.28,1.35,1.97,1.96,1.71,1.51,3.45,2.99,5.18,4.48.06-.05.12-.1.19-.15-.16-.24-.31-.48-.48-.71-2.86-3.86-5.73-7.72-8.59-11.58-2.74-3.71-4.5-7.88-5.52-12.35-.38-1.65-.01-3.28.53-4.86.35-1.02.84-1.95,1.53-2.81,1.89-2.34,3.83-4.64,6.13-6.6,2.39-2.05,5.19-3.09,8.27-3.51,2.8-.38,5.61-.26,8.42-.19,2.04.04,3.97.74,5.87,1.47,3.74,1.44,7.24,3.37,10.6,5.55,3.71,2.42,7.41,4.86,11.11,7.29.26.17.52.32.91.55-.41-2.24-1.13-4.16-2.29-5.93-.95-1.43-2.21-2.54-3.65-3.42-2.8-1.7-5.61-3.37-8.46-4.96-2.73-1.53-5.52-2.94-8.28-4.41-.29-.16-.56-.36-.86-.55.29-.43.53-.19.73-.08,1.02.54,2.04,1.1,3.06,1.65,3.91,2.14,7.83,4.27,11.72,6.44,1.13.63,2.19,1.4,3.44,2.2-.16-.32-.24-.52-.35-.7-.86-1.46-1.89-2.78-3.3-3.75-3.51-2.41-7.01-4.83-10.53-7.23-1-.68-2.04-1.32-3.06-1.99-.19-.13-.35-.31-.53-.46.04-.06.07-.12.11-.18.17.04.38.05.52.14,4.82,3.16,9.7,6.24,14.29,9.73,1.36,1.04,2.33,2.41,3.13,3.9.44.82.9,1.59,1.53,2.29,1.81,2.02,2.75,4.47,3.22,7.1.08.43.24.67.6.86.51.26.99.6,1.52.84,1.52.69,2.86,1.63,4.06,2.78.06.06.15.08.35.19-.25-1.03-.47-1.94-.68-2.85-1-4.15-2.84-7.95-4.96-11.62-2.2-3.81-4.48-7.57-6.73-11.36-.17-.28-.3-.58-.48-.93.53-.07.62.25.75.47,1.48,2.42,3,4.82,4.41,7.28,1.69,2.97,3.33,5.96,4.91,8.99,1.64,3.16,2.54,6.57,3.25,10.04.07.32.19.68.41.92,1.23,1.31,2.5,2.58,3.76,3.86.06.06.14.1.28.18,1.66-2.07,3.97-3.4,5.95-5.12.09-.07.19-.14.27-.21,1.35-1.21,1.31-1.22,1.37-3.04.06-1.67.2-3.34.32-5.14-1.25-1.49-1.63-3.44-1.92-5.43-.16-1.14-.37-2.28-.56-3.44-.35-.12-.68-.22-1-.35-1.39-.57-2.81-1.08-4.16-1.75-1.32-.66-2.66-1.27-4.03-1.8-6.41-2.49-12.34-5.83-17.79-10.03-1.9-1.47-3.84-2.88-5.77-4.32-2.72-2.04-5.63-3.76-8.68-5.26-2.24-1.09-4.47-2.2-6.7-3.29-.2-.1-.42-.17-.68-.28-.16.17-.32.33-.46.51-2.27,2.81-4.51,5.65-6.81,8.43-.81.98-1.79,1.82-2.64,2.77-3.06,3.39-6.15,6.76-8.92,10.4-1.96,2.58-3.28,5.43-3.88,8.62-.29,1.55-.23,3.1-.11,4.66.24,3.17.48,6.33,1.04,9.47.38,2.13,1.21,4.1,1.95,6.11,2.29,6.22,5,12.27,7.89,18.23,1.99,4.12,3.95,8.24,5.62,12.51,1.2,3.06,1.98,6.23,2.78,9.4,1.36,5.36,2.68,10.72,4.03,16.08.23.9.54,1.77.81,2.65.5,1.61,1.46,2.94,2.48,4.24,1.42,1.81,3.04,3.42,4.73,4.95,1.26,1.14,1.99,2.54,2.4,4.13.27,1.06.47,2.14.71,3.21h-.52c-.25-1.85-.71-3.64-1.57-5.29-.3-.57-.82-1.04-1.27-1.51-1.47-1.52-3-2.98-4.44-4.53-1.99-2.16-3.13-4.77-3.83-7.6-1.28-5.17-2.62-10.32-3.83-15.51-1.46-6.26-3.65-12.25-6.44-18.04-2.27-4.72-4.54-9.45-6.62-14.26-1.71-3.96-3.18-8.02-4.7-12.05-.73-1.93-1.05-3.97-1.22-6.03-.23-2.91-.45-5.83-.69-8.74-.13-1.63.29-3.14.8-4.66,1.08-3.19,2.91-5.93,5.07-8.43,3.54-4.1,7.14-8.15,10.77-12.17,2.68-2.97,5.1-6.15,7.47-9.38.32-.44.63-.91.99-1.32,1.12-1.28,1.52-2.82,1.7-4.47.15-1.47.46-2.92,1.04-4.29.2-.47.48-.93.79-1.34.37-.5.87-.85,1.51-.93,1.29-.16,2.58-.33,4-.51.87-2.22,1.92-4.53,2.64-6.98-.42-.09-.86-.06-1.08-.26-.26-.26-.43-.7-.47-1.08-.07-.63-.04-1.27.02-1.9.25-2.39.56-4.77.78-7.16.18-1.93-.12-3.81-.8-5.63-1.13-2.98-2.26-5.95-3.33-8.95-1.3-3.65-2.66-7.29-3.6-11.06-.77-3.09-1.02-6.22-.97-9.39.03-1.49.64-2.81,1.46-4.03,2.59-3.84,5.83-7.01,9.61-9.69,2.72-1.92,5.73-2.98,8.94-3.61,3.26-.65,6.57-1.04,9.87-1.43,2.28-.27,4.56-.35,6.85-.33,3.73.02,7.37.68,10.96,1.64,2.85.76,5.69,1.6,8.42,2.74,1.24.52,2.46,1.12,3.65,1.75.56.29,1.03.73,1.57,1.06.9.54,1.85,1,2.72,1.58.83.55,1.59,1.22,2.37,1.85.32.25.63.51.94.77.28.23.54.48.82.72.39.33.79.66,1.18,1,.14.12.26.28.38.42.05.06.05.17.11.23.9.95,1.81,1.9,2.71,2.85.1.1.21.19.29.31.22.33.37.72.63,1.02,1.35,1.54,2.24,3.35,3.02,5.22.62,1.5,1.14,3.03,1.71,4.55.07.18.15.36.26.64,1.4-1.02,2.9-1.8,4-3.1,1.93-2.27,3.88-4.53,5.81-6.81,1.69-1.99,1.74-2.12,4.56-2.25.61-.03,1.21-.09,1.81-.15.6-.06,1.11-.29,1.52-.74.92-1,2.13-.95,3.31-.8.39.05.82.45,1.09.79.39.51.86.74,1.48.74.09,0,.17.04.26.03,1.22-.19,2.16.45,3.12,1.05.07.04.15.1.2.16.95,1.18,2.32,1.74,3.61,2.4.25.13.51.25.73.42.83.66,1.6,1.43,2.49,1.98.97.6,1.65,1.54,2.65,2.11.48.27.74.92,1.22,1.21.76.46,1.21,1.18,1.81,1.78.29.29.37.63.39,1.02.09,1.69-.01,3.36-.6,4.97-.35.98-.68,1.96-1,2.95-.29.9-.93,1.46-1.76,1.81-.72.31-1.35.71-1.95,1.24-.57.5-1.32.84-2.04,1.08-1.54.51-3.12.87-4.76.94-.11,0-.22.04-.38.07v2.02c.46.14.8-.1,1.1-.35.72-.61,1.52-.84,2.48-.86,2.46-.04,4.92-.16,7.38-.26.42-.02.87.06,1.22-.3.1-.1.33-.09.49-.09,1.36,0,2.72-.03,4.09.03,1.06.05,2.13.25,3.19.33.39.03.81-.03,1.19-.14.41-.12.71-.37.59-.9-.13-.54.17-.92.64-1.09.59-.22,1.21-.46,1.82-.48,1.99-.06,4-.08,5.99,0,1.24.05,2.26.61,2.87,1.78.3.58.7,1.12.99,1.7.14.29.08.67.17.98.39,1.27.86,2.52,1.18,3.81.22.86.32,1.77.34,2.66.04,2.32.11,4.64-.02,6.95-.09,1.6-.4,3.21-.77,4.78-.33,1.43-.82,2.84-1.35,4.21-.28.71-.71,1.4-1.23,1.97-1.36,1.5-2.97,2.55-5.14,2.38-1.16-.09-2.34-.13-3.51-.13-.98,0-1.86.35-2.56,1.07-.28.29-.6.55-.86.87-.65.79-1.52,1.22-2.47,1.51-.9.28-1.87.39-2.71.8-.82.4-1.67.63-2.52.89-.93.29-1.88.54-2.8.85-.91.31-1.57.96-2.17,1.69-.92,1.14-2.02,2.07-3.27,2.83-.94.57-1.91,1.1-2.83,1.7-2.55,1.65-5.37,2.84-7.88,4.56-2.07,1.42-4.29,2.63-6.04,4.49-1.95,2.09-3.19,4.49-3.48,7.37-.11,1.06-.4,2.09-.55,3.14-.2,1.48-.35,2.97-.52,4.45-.11,1-.24,2-.31,3-.05.78.04,1.57-.02,2.34-.3,3.61-.04,7.23-.18,10.85-.05,1.27-.06,2.55-.07,3.82-.03,1.44,0,2.87-.08,4.31-.14,2.33-.31,4.66-.55,6.98-.22,2.11-.54,4.21-.81,6.32-.2,1.63-.37,3.26-.57,4.89-.12,1-.25,2-.38,3-.15,1.1-.31,2.2-.44,3.31-.2,1.8-.36,3.61-.56,5.42-.1.92-.26,1.83-.38,2.74-.1.73-.22,1.46-.31,2.2-.19,1.68.16,3.32.33,4.98.13,1.22.3,2.45.49,3.67.27,1.73.6,3.45.87,5.18.2,1.31.36,2.63.54,3.95.12.88.26,1.76.38,2.65.37,2.72.7,5.44,1.11,8.16.39,2.6.83,5.2,1.32,7.79.33,1.74.56,3.5.9,5.24.24,1.23.71,2.42,1.08,3.63.16.55.31,1.11.47,1.66h-.7c-.87-2.62-1.42-5.3-1.82-8.02-.49-3.34-1.11-6.67-1.63-10.01-.41-2.6-.73-5.21-1.12-7.82-.73-4.77-1.49-9.54-2.24-14.31-.12-.74-.27-1.47-.42-2.33-.12.19-.16.23-.17.29-.4,2.1-.81,4.2-1.19,6.3-.05.27-.01.57.06.84.24.92.48,1.85.77,2.76.71,2.26.37,4.28-1.24,6.06-.09.1-.15.23-.17.36-.06.36-.04.73-.13,1.08-.88,3.42-1.81,6.82-2.66,10.25-.68,2.72-1.28,5.46-1.92,8.19-.07.29-.05.63-.56.77.06-.39.08-.69.15-.99,1.25-6.04,2.88-11.98,4.44-17.94.07-.27.12-.54.22-.95-1.41.76-2.63,1.53-3.65,2.57-2.46,2.53-4.44,5.42-6.17,8.47-1,1.76-1.96,3.55-2.94,5.32-1.44,2.62-2.93,5.2-4.9,7.47-.47.54-.92,1.1-1.38,1.65h-.7c.14-.18.28-.36.42-.54,1.09-1.35,2.31-2.61,3.25-4.06,1.45-2.23,2.74-4.56,4.03-6.89,1.67-3.01,3.33-6.03,5.45-8.76,1.59-2.05,3.3-3.91,5.59-5.26,1.64-.96,2.69-2.5,2.76-4.47.05-1.51-.53-2.93-1.03-4.52-.14.41-.21.64-.29.88-.4,1.12-.78,2.24-1.21,3.34-.92,2.38-2.69,3.8-5.14,4.36-2.97.68-5.96.79-8.94.09-4.49-1.07-8.8-2.66-13.05-4.43-1.41-.58-2.83-1.14-4.27-1.73-.1.23-.17.36-.2.49-.29,1.24-.6,2.48-.86,3.72-.06.29,0,.63.1.92,2.49,7.22,4.98,14.44,7.49,21.65.61,1.75,1.27,3.48,1.91,5.21h-.52c-.52-1.44-1.03-2.88-1.57-4.31-1.04-2.72-1.78-5.56-3.36-8.06-1.71-2.71-3.34-5.48-5.01-8.22-.16-.25-.38-.47-.6-.74-.1.17-.16.24-.18.32-.67,2.33-1.31,4.67-2.02,6.99-.68,2.24-1.38,4.48-2.47,6.56-1.32,2.51-2.72,4.97-4.09,7.45h-.52c.67-1.22,1.32-2.44,2-3.65,1.48-2.62,2.92-5.26,3.86-8.14,2.09-6.35,3.75-12.82,5.27-19.33.08-.33.13-.66.17-.93-3.16-1.17-6.24-2.31-9.35-3.46-.15.39-.28.74-.4,1.09-1.59,4.5-3.18,9-4.78,13.5-2.55,7.16-5.64,14.07-9.7,20.52-.07.11-.07.26-.11.4h-.7c.15-.25.3-.5.45-.74,2.53-4.13,4.83-8.37,6.68-12.85,2.62-6.34,4.88-12.81,7.13-19.29.33-.95.64-1.9.98-2.89-2.39-1.01-4.7-2-7.03-2.95-.18-.07-.51.03-.69.16-.93.68-1.84,1.4-2.77,2.1-.27.2-.39.44-.44.79-.22,1.81-.45,3.61-.71,5.42-.61,4.18-1.2,8.36-1.89,12.52-.51,3.08-1.02,6.17-1.8,9.19-.69,2.68-1.74,5.27-2.64,7.89-.04.11-.17.19-.39.42,0-.37-.03-.56,0-.74.05-.25.15-.5.23-.74.73-2.1,1.57-4.18,2.17-6.32,1.15-4.1,1.75-8.32,2.4-12.52.74-4.8,1.39-9.61,2.07-14.41.03-.2,0-.41,0-.68-.25.17-.41.29-.57.41-3.51,2.65-6.65,5.78-10.51,7.95-.37.21-.47.53-.47.95,0,1.48-.03,2.96-.06,4.43-.03,2,.09,3.99.41,5.97.87,5.37,2.13,10.66,3.44,15.94h-.52,0Zm46.6-105.54c.13-.05.28-.09.4-.16,1.82-1.02,3.64-2.04,5.44-3.08.49-.29.98-.62,1.4-1.02,1.01-.96,1.06-1.92.03-2.82-.45-.39-.57-.8-.63-1.3-.24-1.98-.46-3.96-.71-5.94-.19-1.49-.37-3-1.06-4.36-1.33-2.61-2.9-5.07-4.88-7.25-.5-.55-1.02-1.08-1.57-1.67-.46.73-.83,1.38-1.26,1.99-1.04,1.51-2.18,2.95-3.83,3.83-1.5.8-3.06,1.52-4.63,2.16-2.43.98-4.97,1.26-7.57.77-1.39-.26-2.77-.54-4.26-.83.48.46.94.82,1.3,1.26.82.97,1.62,1.96,2.39,2.98,2.1,2.8,3.76,5.83,4.59,9.27.71,2.95,1.47,5.89,2.17,8.85.11.47.31.71.78.77.63.09,1.25.26,1.88.29.91.04,1.83.18,2.72-.16-.01-.1-.01-.16-.03-.21-1.92-5.18-3.84-10.36-5.78-15.53-.5-1.32-1.09-2.61-1.64-3.92-.09-.22-.32-.48.19-.67,1.57,3.25,2.75,6.65,4.01,10.02,1.27,3.41,2.53,6.81,3.8,10.25.29-.08.5-.1.67-.18,1-.45,2.02-.86,2.98-1.39,1.08-.6,2.1-1.3,3.15-1.96l-.03.03h0Zm-16.24,38.72c-.3-.28-.5-.48-.72-.65-1.07-.84-2.18-1.63-3.22-2.51-.93-.78-1.81-1.62-2.66-2.48-1.28-1.3-2.53-2.63-3.77-3.97-.28-.3-.57-.35-.93-.28-.68.12-1.37.25-2.05.35-2.89.4-5.78.86-8.68,1.17-2.44.26-4.88.54-7.35.26-3.47-.39-6.83-1.21-10.1-2.4-.49-.18-.97-.38-1.44-.6-.09-.04-.12-.24-.23-.5.31.09.47.13.63.19,1.03.37,2.06.78,3.1,1.11,4.31,1.35,8.68,2.25,13.23,1.67,3.84-.49,7.68-.98,11.52-1.47.47-.06.93-.19,1.49-.31-.19-.21-.28-.32-.37-.42-1.19-1.19-2.35-2.4-3.57-3.56-1.26-1.19-2.57-2.33-4.19-3.05-.45-.2-.86-.26-1.33-.25-1.68.03-3.36.06-5.04.01-2.49-.07-4.96-.25-7.45-.31-3.04-.07-6.09-.04-9.13-.07-1.88-.02-3.76-.07-5.64-.11-.06,0-.12.01-.17,0-.13-.05-.26-.12-.39-.18.23-.19.44-.25.65-.24.55,0,1.1.05,1.65.05,4.11.04,8.23.07,12.34.12,1.5.02,3,.12,4.51.16,2.66.07,5.32.12,7.99.17.13,0,.25-.04.57-.09-.52-.32-.89-.54-1.25-.77-4.02-2.63-8.04-5.27-12.07-7.89-3.28-2.14-6.69-4.04-10.34-5.49-2.21-.88-4.48-1.61-6.88-1.69-2.72-.09-5.44-.07-8.14.37-2.95.49-5.58,1.66-7.83,3.68-2.03,1.83-3.77,3.91-5.51,6.01-.95,1.15-1.51,2.46-1.91,3.86-.39,1.39-.44,2.77-.08,4.19.68,2.71,1.71,5.27,2.95,7.77,1.03,2.09,2.48,3.91,3.84,5.78,3.63,4.98,7.36,9.91,10.85,15,2.77,4.04,5.6,8.02,8.53,11.95,3.77,5.06,7.53,10.13,11.3,15.19.19.25.39.51.63.72.54.49.87.5,1.47.09.21-.15.4-.33.6-.5.38-.3.72-.66,1.14-.89,1.49-.85,2.88-1.83,4.22-2.89,4.18-3.3,8.31-6.66,12.58-9.86,7.89-5.91,15.36-12.3,22.35-19.25.19-.18.37-.37.52-.58.42-.59.45-1,0-1.58-.36-.45-.79-.84-1.24-1.19-1.29-1.02-2.62-2-3.92-3.03-.35-.27-.69-.37-1.12-.34-1.5.1-3,.27-4.5.26-2.57-.03-5.14-.17-7.72-.27-1.88-.07-3.76-.14-5.63-.25-2.45-.13-4.9-.3-7.35-.45-.53-.03-1.05-.09-1.64-.13.22-.6.63-.4.92-.39,1.21.06,2.42.19,3.63.26,1.7.1,3.41.15,5.11.25,2.45.14,4.9.34,7.35.44,3.24.13,6.48.15,9.89-.16h.01Zm78.14-75.56c-.54-.87-.76-.82.01-1.67.13-.15.23-.35.26-.54.03-.18,0-.44-.12-.55-.1-.09-.39-.07-.53.02-.58.37-1.23.51-1.89.57-.63.05-1.26,0-1.89.02-2.11.05-4.22.1-6.33.17-1.97.07-3.93.12-5.9.25-1.58.1-3.17.24-4.74.48-1.57.24-3.12.63-4.68.93-.36.07-.75.1-1.12.05-.6-.08-.84-.52-.6-1.07.2-.44.44-.89.76-1.25,1.64-1.91,3.27-3.83,4.98-5.68,1.63-1.77,2.82-3.74,3.26-6.12.12-.65.22-1.32.21-1.98-.03-1.08-.68-1.85-1.69-1.85-.64,0-1.34.19-1.89.5-.88.49-1.73,1.08-2.46,1.76-1.46,1.35-2.86,2.78-4.24,4.22-1.6,1.67-3.12,3.42-4.71,5.1-1.89,2.01-3.93,3.85-6.41,5.13-1.65.86-3.22,1.86-4.5,3.22-1.72,1.82-2.78,4.03-3.44,6.44-.71,2.61-.98,5.31-1.65,7.94-.9,3.58-1.44,7.26-2.19,10.89-1.4,6.77-2.68,13.56-4.49,20.24-1.09,4.05-1.86,8.18-2.81,12.26-.95,4.09-1.94,8.17-3.6,12.04-1.41,3.29-2.99,6.52-4.52,9.77-.96,2.05-1.52,4.14-1.3,6.45.29,2.91,1.04,5.62,2.82,7.99.1.14.14.32.24.56-.57-.01-.73-.39-.93-.68-1.66-2.4-2.43-5.1-2.59-7.98-.08-1.41-.07-2.83.39-4.24-1.02-.51-1.97-.98-2.79-1.39-7.66,7.75-15.8,14.72-24.46,21.1.1.09.14.15.19.17,2.1.9,4.2,1.79,6.31,2.67.21.09.49.04.71.05.24.18.45.44.72.54,2.65,1.01,5.31,1.99,7.97,2.97.31.11.63.33.99.1.06-.04.21.05.31.1.29.16.56.37.86.51.5.22,1.03.38,1.54.59,3.96,1.7,7.99,3.22,12.11,4.51,3.36,1.05,6.76,1.48,10.26.98,3.12-.45,5.37-1.92,6.48-5.01.79-2.18,1.41-4.41,1.89-6.67.6-2.86,1.04-5.74,1.34-8.65.28-2.67.61-5.34.93-8.01.32-2.64.65-5.27.97-7.91.26-2.15.52-4.3.77-6.45.19-1.63.36-3.27.53-4.91.27-2.7.58-5.4.77-8.11.15-2.05.16-4.11.19-6.16.04-3.56.02-7.13.08-10.69.04-2.23.15-4.45.28-6.67.19-3.06.68-6.09,1.28-9.1.29-1.44.67-2.86,1.37-4.19.86-1.63,2.15-2.87,3.51-4.03,2.46-2.09,5.23-3.72,8.02-5.33,2.26-1.3,4.56-2.53,6.8-3.85.97-.57,1.89-1.24,2.74-1.97.56-.47,1.1-1.02,1.53-1.78-.23.06-.35.08-.45.12-1.71.63-3.42,1.27-5.12,1.9-.24.09-.48.25-.66-.12.41-.42.98-.51,1.48-.69,2.97-1.06,5.93-2.15,8.92-3.13,1.78-.58,3.63-.95,5.44-1.47.88-.25,1.79-.52,2.45-1.23.67-.72,1.32-1.46,2.02-2.22h0Zm-49.49-40.28c-.01-.12,0-.21-.03-.29-.72-2.01-1.36-4.06-2.19-6.03-.64-1.51-1.37-3.03-2.32-4.35-1.72-2.39-3.67-4.61-5.89-6.59-3.47-3.1-7.39-5.46-11.57-7.43-3.26-1.54-6.71-2.53-10.19-3.39-3.24-.8-6.52-1.23-9.87-1.22-2.64.01-5.26.09-7.87.48-3.03.45-6.07.87-9.07,1.44-2.51.47-4.91,1.3-7.05,2.79-3.44,2.39-6.67,4.99-9.14,8.44-.85,1.18-1.63,2.39-2.1,3.78-.21.63-.42,1.29-.43,1.94-.01,1.53.01,3.07.18,4.59.3,2.68.91,5.31,1.76,7.86,1.07,3.24,2.3,6.43,3.45,9.64.96,2.7,1.97,5.38,2.84,8.11.55,1.71.76,3.48.47,5.3-.35,2.17-.6,4.35-.86,6.53-.06.48-.06.99,0,1.47.08.79.55,1.07,1.26.71.61-.31,1.21-.68,1.75-1.11.95-.74,1.57-1.72,1.62-2.94.03-.77,0-1.56-.12-2.31-.3-1.8-.65-3.59-1.02-5.37-.55-2.61-.4-5.13.84-7.52.46-.89.89-1.84,2-2.16.14-.04.24-.24.35-.37.24-.29.48-.58.72-.87,1.05-1.31,2.43-1.81,4.07-1.66.25.02.51.02.76,0,2.09-.19,3.9.32,5.23,2.07.47.62.97,1.22,1.41,1.87,1.17,1.69,2.32,3.39,3.49,5.09.23.33.48.66.76.95.41.4.69.35.96-.14.16-.3.27-.64.38-.97.41-1.3.75-2.62,1.22-3.89.67-1.79,1.51-3.51,2.75-5,.71-.85,1.56-1.3,2.71-1.3,1.59,0,3.11.28,4.6.79,1.93.66,3.57,1.67,4.68,3.51,1.41,2.33,3.56,3.77,6.19,4.45,3,.77,5.99,1.56,9,2.26,1.57.36,3.17.62,4.78.8.8.09,1.64-.09,2.58-.16-.73-1.91-1.11-3.78-.73-5.64.36-1.81.98-3.56,1.56-5.32.62-1.87,2.29-2.93,3.5-4.31-.63-1.98.06-2.71,1.16-3.6.42-.34.92-.61,1.43-.95h0Zm-40.07,28.09c-1.03.83-1.41,1.81-1.34,2.99.03.55.03,1.1,0,1.65-.04.69-.06,1.4-.22,2.07-.55,2.37-1.78,4.12-4.38,4.57-.7.12-1.39.34-1.98.77.42.87,1.36,1.34,1.59,2.32-.92-.41-1.31-1.41-2.12-1.95-.83.65-.68,1.49-.5,2.26.5,2.13,1.28,4.15,2.31,6.07.93,1.75,2.29,3.08,4.22,3.65,1.49.44,2.74,1.22,3.81,2.3,1.46,1.47,3.22,2.33,5.26,2.64.83.12,1.66.26,2.48.43,1.67.35,3.33.24,4.98-.16,1.93-.46,3.7-1.3,5.49-2.14,1.92-.9,3.38-2.29,4.59-4,1.05-1.47,1.82-3.08,2.52-4.74.93-2.21,1.9-4.41,2.44-6.77.2-.89.29-1.78.17-2.67-.44-3.52-1.5-6.89-2.66-10.22-.35-1-1.3-1.43-2.3-1.08-.47.16-.91.37-1.37.55-1.37.55-2.74,1.11-4.11,1.63-1.45.55-2.98.83-4.52.67-2.41-.25-4.81-.61-7.21-1-1.6-.26-3.17-.66-4.76-.99-.85-.18-1.51.1-2.09.87.29.25.56.47.8.71.52.51,1.03,1.02,1.53,1.54.1.1.09.3.13.45-.07.04-.14.08-.21.13-.85-.85-1.7-1.69-2.57-2.56h0Zm-8.75,11.97c-1.17-1.36-2.29-2.68-3.43-3.98-1.87-2.14-3.73-4.28-4.93-6.9-.09-.2-.27-.38-.45-.5-2.53-1.68-4.43-3.98-6.16-6.41-1.74-2.44-1.88-5.09-.79-7.84.12-.29.23-.57.34-.86l-.2-.16c-.04.1-.06.22-.11.31-.2.35-.44.68-.61,1.05-1.01,2.09-1.37,4.27-.9,6.58.45,2.21.86,4.43,1.23,6.65.34,2.05-.09,3.95-1.89,5.14-1.1.73-1.59,1.66-2.01,2.84-1.12,3.16-2.27,6.31-4,9.27.27.16.52.29.76.44.89.55,1.8,1.06,2.64,1.66,4.78,3.39,9.16,7.24,13.44,11.23,2.69,2.5,5.41,4.97,8.13,7.44,3.39,3.08,6.96,5.93,10.85,8.36.2.13.42.24.78.45-1.11-4.65-2.55-8.89-6.48-11.89-.11.57-.15,1.04-.3,1.47-.13.39.05.94-.55,1.14.53-4,1.3-7.93,3.03-11.75-.7-.28-1.3-.55-1.92-.75-2.13-.67-3.7-2.01-4.75-3.95-.99-1.84-1.75-3.79-2.27-5.81-.29-1.13-.52-2.29.55-3.25h0Zm48.5,15.85c-.09.24-.18.48-.25.73-.74,2.71-1.5,5.41-2.22,8.12-.49,1.85-.9,3.7-.95,5.63-.04,1.64-.75,2.95-2.26,3.73-.18.09-.35.2-.53.3-1.04.57-2.1,1.12-3.12,1.72-2.1,1.22-4.18,2.49-6.29,3.7-1.79,1.02-3.7,1.67-5.8,1.48-1.03-.09-2.07-.2-3.09-.39-2.5-.45-4.88-1.23-7.02-2.64-2.93-1.93-5.9-3.79-8.77-5.79-4.26-2.97-8.02-6.54-11.85-10.03-2.14-1.95-4.19-3.99-6.36-5.9-2.65-2.33-5.36-4.59-8.11-6.8-1.53-1.23-3.16-2.36-4.84-3.38-1.6-.98-3.38-1.67-4.75-3.2-.25.53-.49.95-.65,1.41-.69,1.94-1.18,3.93-1.41,5.98-.13,1.14.13,2.13,1.2,2.77.3.18.56.41.84.61,5.77,3.98,11.55,7.94,17.3,11.95,2.8,1.95,5.6,3.92,8.27,6.06,2.78,2.23,5.54,4.48,8.51,6.45,5.01,3.33,10.46,5.42,16.5,5.82,1.87.13,3.68-.11,5.42-.91,3.29-1.52,6.45-3.28,9.57-5.12,2.04-1.21,4.03-2.5,6.06-3.75.25-.15.47-.47.83-.22-.01.07,0,.16-.03.18-2.54,1.65-5.09,3.3-7.65,4.95.34,1.95,3.29,12.49,3.59,12.92,3.35-11.92,5.57-24.15,7.88-36.37h0Zm-11.88-35.74c-.15-.05-.26-.09-.36-.12-3.62-.9-7.24-1.78-10.86-2.69-2.96-.74-5.18-2.49-6.77-5.06-.58-.95-1.39-1.61-2.35-2.12-1.63-.86-3.39-1.3-5.21-1.55-1.61-.22-2.91.26-3.77,1.71-.01.03-.03.04-.05.07-1.39,2.03-2.34,4.25-3,6.61-.2.72-.39,1.46-.65,2.16-.38,1.02-.76,1.18-1.95.8,2.43,2.53,4.72,4.92,7.09,7.4.94-1.16,2.13-1,3.36-.72,1.52.35,3.04.71,4.58.97,2.14.35,4.28.69,6.44.89,1.66.15,3.28-.24,4.83-.84,1.48-.58,2.94-1.21,4.41-1.82.73-.3,1.46-.54,2.29-.25.2-.97.29-1.93.61-2.81.32-.89.87-1.69,1.36-2.62h0Zm-44.49,8.92c2.08,4.19,5.47,7.19,8.16,10.58,1.14-.34,2.13-.64,3.12-.92.87-.25,1.56-.74,2.12-1.44.74-.93,1.21-1.99,1.32-3.16.11-1.15.11-2.31.13-3.46.02-.9.2-1.72.87-2.37.18-.17.3-.41.42-.57-4.45-4.83-8.87-9.62-13.27-14.39.19.57.18.95-.01,1.13-.11-.2-.22-.4-.33-.6-.35-.64-.7-1.27-1.03-1.91-.63-1.2-1.63-1.81-2.97-1.98-1.47-.18-2.79.08-3.78,1.24-.6.7-1.19,1.44-1.63,2.24-1.57,2.85-1.76,5.71.16,8.51,1.23,1.8,2.66,3.42,4.25,4.91.61.57,1.31,1.05,2.03,1.47.63.37,1.08.19,1.43-.47.16-.3.26-.64.37-.97.1-.32.18-.64.26-.94.37-.05.43.15.37.36-.29,1.13-.38,2.41-1.99,2.74h0Zm56.47-19.57c-.95,1.97-1.81,3.83-2.43,5.79-.53,1.65-1.08,3.3-1.65,4.94-.54,1.56-1.27,3.06-1.66,4.65-1.06,4.27-1.98,8.56-2.98,12.84-.12.49-.3,1.05-.64,1.39-.77.79-1.11,1.73-1.35,2.75-.12.53-.33,1.05-.5,1.57-.05.17-.07.36-.12.56,1.71.23,3.34.34,4.98.04,2.18-.4,4.28-.99,6.17-2.21.44-.28.9-.53,1.36-.76.67-.33,1.37-.33,1.97.13.44.34.81.78,1.2,1.16,1.09-.96,2.21-1.95,3.36-2.96-.08-1.02-.17-2.08-.25-3.07-1.42-.47-1.14-1.7-1.36-2.75-1.15,0-2.28.01-3.4,0-1.19-.01-2.39-1.2-2.43-2.38-.04-1.21-.07-2.43-.12-3.64-.04-.95-.12-1.9-.16-2.85-.04-1.01-.13-2.04.64-2.87.13-.14.22-.35.28-.54.28-.86.91-1.09,1.75-1.09,1.12,0,2.23-.09,3.4-.15-.07-.22-.1-.33-.15-.44-1.06-2.25-2.08-4.52-3.19-6.75-.64-1.28-1.63-2.3-2.75-3.39h0Zm-16.99,78.9c-.36.25-.68.43-.96.67-.99.89-1.96,1.8-2.96,2.68-.93.83-1.82,1.72-2.83,2.42-.63.44-.88.96-.92,1.62-.06,1.21-.07,2.43-.07,3.65,0,5.74-.01,11.47,0,17.21,0,1.85-.33,1.31,1.28,2.4.26.18.52.37.76.58.57.5,1.09,1.03,1.27,1.82.03.15.15.32.28.39.89.47,1.79.9,2.68,1.35.65-1.37,1.27-2.64,1.86-3.92,1.22-2.65,2.42-5.31,3.65-7.96.28-.61.25-1.13-.1-1.7-.84-1.42-1.62-2.88-2.46-4.29-.42-.71-.69-1.46-.86-2.26-.42-1.97-.43-3.97-.48-5.95-.06-2.22.1-4.45.13-6.68.01-.62.15-1.28-.29-2.02h0Zm36.75-98.21c.13.99.24,1.96.39,2.93.18,1.14.13,2.34.74,3.36.7,1.17.99,2.45,1.19,3.77.26,1.75.63,3.48,1.39,5.09.32.66.79,1.28,1.28,1.83.5.55,1.16.53,1.84.26.61-.24,1.09-.55,1.06-1.3-.01-.4,0-.8-.01-1.19-.11-2.95-.2-5.9-.36-8.84-.09-1.67-.26-3.34-.43-5.01-.08-.8-.24-1.6-.4-2.39-.23-1.14-1.05-1.73-2.09-1.97-.86-.19-1.76-.3-2.64-.27-2.46.07-4.91.2-7.36.36-2.55.17-2.1.22-3.56,1.86-1.67,1.88-3.28,3.82-4.92,5.73-.49.57-.99,1.12-1.5,1.7.12.03.19.07.23.06,1.58-.65,3.24-.58,4.88-.53,1.35.04,2.63.35,3.71,1.25.44.36.95.47,1.54.39,1.86-.23,3.71-.57,5.61-.31.03,0,.08-.07.13-.12-.21-.61-.42-1.22-.65-1.9-.86,0-1.73.01-2.59,0-1.25-.02-2.38-.43-3.43-1.09-.21-.13-.4-.27-.2-.5,1.02.37,1.99.86,3.01,1.04,1.03.18,2.11.04,3.22.04-.04-.43-.06-.75-.1-1.06-.13-.95-.26-1.89-.39-2.83-.03-.22-.04-.42.41-.39h0Zm-19.51,64.66c.26-1.35.54-2.68.76-4.02.43-2.53,1.1-4.97,2.52-7.15.08-.12.15-.25.2-.39.2-.59-.1-1.01-.51-1.37-.37-.32-.72-.63-1.3-.33-1.08.55-2.18,1.07-3.31,1.51-1.32.51-2.65,1.05-4.02,1.34-1.23.26-2.53.22-3.79.26-.5.01-.88.12-1.22.5-.51.56-1.08,1.05-1.58,1.61-.42.47-.81.97-1.15,1.49-.38.58-.39.7.14,1.2.67.63,1.21,1.36,1.82,2.04.11.13.28.2.39.32s.23.24.31.38c.32.61.65,1.21,1.26,1.6.09.05.14.17.19.26.16.33.27.69.47.99,1.41,2.15,2.48,4.45,2.79,7.03.25,2.01.5,4.02.68,6.04.07.79.45,1.31,1.01,1.91.54-5.26,2.28-10.1,3.62-15.02.29-.09.5-.15.74-.22h0Zm-25.55,25.39c-.09-.45-.15-.76-.22-1.06-.6-2.47-1.22-4.94-1.81-7.42-.66-2.79-1.7-5.42-3.32-7.78-1.1-1.6-2.33-3.1-3.49-4.65-.66-.88-1.5-1.54-2.5-1.95-.96-.39-1.96-.69-2.95-1-.34-.11-.71-.12-1.06-.17-.73,1.88-1.19,3.73-1.57,5.61-.09.44.07.67.39.95,1.97,1.63,3.49,3.62,4.48,5.99.8,1.93,1.46,3.9,1.85,5.95.06.32.13.61.44.8,1.98,1.19,3.94,2.43,5.95,3.58,1.13.65,2.42.91,3.82,1.17Zm12.9,29.52c.17-.47.29-.79.4-1.12,1.54-4.68,2.62-9.47,3.67-14.28.1-.44.08-.85-.04-1.27-1.16-4.27-2.32-8.54-3.49-12.8-.06-.23-.16-.46-.25-.73-2.15,1.16-4.24,2.29-6.39,3.45.19,1.76.38,3.52.58,5.32.19-.07.26-.11.34-.14.84-.32,1.13-.2,1.25.67.08.59.01,1.2,0,1.8-.02,3.38-.22,6.77.12,10.15.15,1.49.29,2.98,1.14,4.31.72,1.12,1.34,2.3,2,3.45.2.35.38.7.65,1.19h0Zm27.73-108.35c-.95,0-1.87.01-2.79,0-.81-.01-1.61-.09-2.42-.1-.98-.01-1.6.47-1.99,1.38-.31.73-.31,1.46-.28,2.21.03.71-.23,1.29-.73,1.79-.33.32-.64.67-.91,1.05-.81,1.13-.6,2.91.5,3.74.56.43.95.82.63,1.57-.06.15-.02.34-.01.52.04,2.02.08,4.05.12,6.07,0,.1.06.21.09.34.26.01.49.04.72.03,1.5-.05,3-.19,4.5-.15,1.16.04,2.08-.28,2.86-1.12.31-.33.51-.64.5-1.12,0-.86-.02-1.75.17-2.58.37-1.57.86-3.12,1.37-4.64.2-.6.29-1.17.18-1.78-.44-2.5-1.56-4.76-2.53-7.18h0Zm48.08,22.91c-.16-1.96-.27-3.92-.48-5.87-.21-1.93-.84-3.74-2.08-5.26-1.29-1.58-1.92-1.46-3.17-.2-1.11,1.12-1.56,2.56-1.86,4.04-.54,2.62-.52,5.28-.65,7.93-.04.92.04,1.85.1,2.77.11,1.67.22,3.34.39,5.01.15,1.43.62,2.76,1.32,4.02.36.65.85,1.11,1.65,1.06,1.12-.07,1.88-.64,2.3-1.69,1.54-3.79,2.64-7.66,2.49-11.81Zm-4.28,14.02c-1.45.2-2.27-.56-2.77-1.71-.42-.98-.84-1.99-1.02-3.03-.29-1.7-.5-3.44-.54-5.17-.08-3.32-.13-6.66.33-9.97.16-1.11.39-2.22.72-3.29.35-1.15.98-2.16,1.92-2.95.97-.82,1.52-.87,2.58-.21.13.08.26.17.46.3-.65-1.83-1.6-2.54-3.35-2.55-.99,0-1.98.06-2.96-.02-.83-.07-1.36.29-1.84.89-1.1,1.37-1.73,2.95-2.06,4.64-.78,4-1.26,8.04-1.09,12.14.1,2.53.42,5.01,1.08,7.45.43,1.58,1.08,3.05,2.1,4.35.36.46.75.75,1.39.68.57-.06,1.16-.01,1.74-.01,1.32,0,2.35-.64,3.31-1.54h0Zm-6.68,1.46c-.12-.23-.15-.35-.22-.43-.73-.88-1.23-1.89-1.63-2.95-1.02-2.74-1.41-5.6-1.54-8.49-.19-3.91.2-7.8.86-11.65.39-2.31,1.09-4.5,2.67-6.31.03-.03,0-.1,0-.18-.14,0-.29-.03-.43-.02-.71.06-1.23.5-1.72.93-.42.37-.01.83.06,1.22.17.86-.04,1.55-.74,2.07-1.1.8-2.2,1.6-3.32,2.37-1.43.99-2.88,1.95-4.29,2.95-.26.18-.51.52-.56.82-.57,3.41-.73,6.83-.17,10.26.15.9.6,1.53,1.22,2.11,1.49,1.4,3.17,2.51,5.03,3.35.66.3,1.32.58,1.97.9.89.44,1.09,1.26.5,2.08-.1.14-.27.25-.33.39-.05.12,0,.28.03.53.27-.19.44-.31.68-.48.1.22.17.39.22.52h1.7,0Zm-14.57-27.33c-2.3.08-4.57.14-6.83.26-.44.02-.95.18-1.27.46-.49.42-.91.97-1.23,1.54-1.03,1.81-1.65,3.76-1.93,5.81-.1.72-.2,1.44-.31,2.2.79-.36,1.44-.74,2.14-.97,2.12-.68,3.54.41,3.4,2.61-.17,2.71-1.09,5.13-2.91,7.18-.66.73-1.31,1.46-1.95,2.18.37,1.83,1.37,3.26,2.65,4.56,2.09-.09,4.21-.19,6.41-.29-.23-.52-.41-.94-.6-1.36-1.88-4.13-2.93-8.41-2.26-12.97.3-2.03.62-4.06,1.08-6.05.49-2.09,1.52-3.87,3.51-4.94.04-.02.05-.1.1-.21h0Zm-67.84,79.76c-.12.48-.28.88-.32,1.3-.09,1.06-.15,2.13-.19,3.2-.04,1.07,0,2.14-.1,3.21-.13,1.58-.15,3.18-.19,4.77-.07,2.61-.12,5.21-.18,7.81-.01.41.1.69.44.96,1.59,1.26,3.14,2.55,4.72,3.83.14.12.31.19.51.3.06-1.04.15-1.99.15-2.94.01-4.58.01-9.16,0-13.74,0-.69-.1-1.38-.1-2.08,0-.92.06-1.85.1-2.77.04-.76-.28-1.21-1.01-1.51-1.2-.5-2.36-1.1-3.29-2.05-.11-.11-.29-.15-.56-.29h0Zm58.14-93.39l-.17.08c0,.46,0,.91,0,1.37.04,1.94.09,3.87.12,5.81.01.72-.25,1.28-.95,1.6-1.1.51-2.19,1.04-3.29,1.56-.8.38-.95.81-.52,1.59.27.5.77.74,1.4.63.42-.07.84-.22,1.26-.31.96-.2,1.92-.41,2.88-.58.93-.16,1.88-.27,2.81-.44.88-.16,1.5-.68,1.82-1.52.19-.51.39-1.03.49-1.57.53-2.63,1.05-5.27,1.54-7.91.26-1.4.01-2.66-1.21-3.57-.23-.17-.47-.33-.72-.48-1.88-1.15-3.76-2.29-5.63-3.43-.19-.11-.39-.19-.64-.31.16,2.15.31,4.22.48,6.28.02.22.19.49.37.63.54.4.88.93,1.08,1.54.41,1.29.82,2.59,1.14,3.9.36,1.52-.31,2.77-1.73,3.36-.14.06-.33-.01-.51-.02-.01-.06-.03-.12-.04-.18.26-.16.52-.32.77-.49.91-.6,1.39-1.42,1.09-2.51-.39-1.39-.83-2.76-1.28-4.13-.11-.33-.37-.62-.56-.93h0Zm16.68,13.42c-.03-.07-.05-.14-.07-.2-1-.01-2.01,0-3.01-.05-.72-.03-1.31.24-1.81.7-.38.35-.72.76-1.01,1.18-.83,1.24-1.33,2.62-1.75,4.05-.66,2.24-.72,4.56-.82,6.87-.09,2.02-.05,4.05.27,6.06.4,2.49,1.2,4.82,2.73,6.93,1.44-.06,2.89-.12,4.46-.19-.14-.24-.2-.37-.28-.48-1.94-2.64-2.58-5.72-2.85-8.89-.26-2.92-.02-5.84.5-8.72.5-2.77,1.19-5.45,3.65-7.25Zm-88.14,66.22s.05-.09.07-.14c-.55-.39-1.13-.76-1.66-1.17-2.36-1.86-4.66-3.81-7.08-5.59-3.87-2.84-7.8-5.61-11.75-8.36-4.34-3.03-8.72-6.01-13.08-9.03-.83-.57-1.73-1.08-2.04-2.27-.98,1.35-1.89,2.59-2.82,3.87.52.25.94.45,1.35.66,3.3,1.67,6.65,3.26,9.9,5.04,3.33,1.83,6.28,4.24,9.29,6.55,5.28,4.06,10.85,7.6,17.03,10.13.26.1.52.19.78.29h0Zm61.41-59.31c.11-.09.27-.21.4-.36.46-.52.91-1.05,1.36-1.58,1.31-1.53,1.32-1.5,3.31-2.11.71-.22,1.36-.61,2.02-.96.13-.07.27-.24.3-.38.12-.64.2-1.28.29-1.97-.81.04-1.54.37-2.27-.08-.78-.49-.82-1.27-.87-2.1-.38-.13-.75-.31-1.14-.37-.55-.09-.77-.4-.89-.9-.39-1.72-.82-3.43-1.21-5.15-.25-1.09-.46-2.2-.68-3.27.84-.64,1.61-1.24,2.34-1.8-.09-.51-.32-.68-.74-.68-.98,0-1.97-.04-2.95-.04-.18,0-.37.1-.49.13,0,.73.13,1.42-.04,2.03-.18.64-.65,1.19-1.02,1.83.11.26.26.58.38.9.64,1.73,1.31,3.46,1.88,5.22.37,1.14.33,2.27-.16,3.45-.68,1.62-1.16,3.33-1.38,5.09-.23,1.88-.08,2.27,1.4,3.09.02.01.06,0,.16,0h0Zm-50.68,64.29c.03.31.03.48.05.65.24,1.46.5,2.91.72,4.36.19,1.27.8,2.33,1.47,3.36.83,0,.89-.01,1.3.39,1.18,1.16,2.7,1.71,4.15,2.43.51-.92.7-1.85.66-2.81-.09-1.93-.23-3.86-.36-5.79-.03-.42-.09-.85-.14-1.35-2.66-.1-5.23-.46-7.85-1.25h0Zm41.48-59.77c-1.51-.35-3.02-.71-4.54-1.02-.18-.04-.43.1-.6.23-.18.13-.29.37-.47.51-.43.34-.54.76-.53,1.3.03,1.18.01,2.37.01,3.56,0,.9-.01,1.79,0,2.69.01.58.58,1.13,1.12,1.04,1.45-.23,2.89-.49,4.36-.74.03-.32.06-.61.1-.94.25-.12.51-.24.77-.35.77-.33,1.55-.64,2.31-.99.18-.09.44-.29.44-.44.04-.94.02-1.89.02-2.82-1.03-.33-1.96-.63-2.89-.93-.04-.37-.07-.68-.1-1.07h0Zm-18.94,15.39c.48-.45.69-.86.8-1.37.67-3.02,1.39-6.03,2.05-9.06.6-2.74,1.3-5.45,2.4-8.05.61-1.44,1.14-2.91,1.56-4.42.57-2.02,1.34-3.94,2.23-5.83.21-.44.39-.89.61-1.37-.98-.79-.82-1.97-1.01-3.01-.59.12-.8.5-1.03.87-1.49,2.41-2.98,4.82-4.46,7.25-.16.26-.22.59-.24.9-.08,1.29.11,2.55.54,3.76.44,1.22.49,2.43.16,3.65-1.08,4.11-2.12,8.24-3.29,12.32-.4,1.4-.44,2.77-.33,4.34h0Zm27.14-7.01c-.3-.18-.56-.35-.83-.51-.98-.56-2-1.06-2.93-1.69-.83-.56-1.56-.68-2.46-.16-.68.4-1.46.65-2.14.94-.05.39-.09.67-.13.99-1.48.26-2.93.52-4.42.78.55,1.09,1.61.42,2.37.77.06.83-.02,1.69.53,2.41.27.07.53.15.78.22.09,1.14.18,2.21.28,3.32,3.62-1.63,6.42-4.13,8.95-7.07h0Zm-23.68-11.77c-.31-.02-.45-.04-.59-.04-1.21,0-2.42.03-3.62-.01-.43-.01-.68.11-.93.45-.95,1.31-1.56,2.75-1.69,4.38-.04.5-.12.95.35,1.32.18.15.26.44.33.68.59,1.9,1.18,3.8,1.74,5.71.22.74.38,1.5.59,2.34.12-.17.19-.24.21-.32,1.11-4.12,2.22-8.25,3.3-12.38.17-.66.2-1.36.31-2.14h0Zm5.9-14.02c.41.05.89.12,1.37.17,1.02.12,1.98.35,2.83.98.53.39,1.14.67,1.76.65.48-.58.87-1.16,1.36-1.64.72-.7.91-1.5.67-2.45-.26-1.06-.79-1.98-1.37-2.88-.65-1.01-1.61-1.41-2.73-1.37-1.8.06-3.38.74-4.67,2-.87.84-.97,1.56-.42,2.66.14.28.32.55.49.82.22.34.44.67.71,1.07h0Zm39.45,31.52c-1.79-2.65-2.57-5.45-2.78-8.4-.23-3.23-.16-6.48.33-9.7.38-2.45,1.15-4.78,2.68-6.79.06-.07.07-.17.1-.26-.04-.04-.09-.09-.13-.13-.58.35-1.19.67-1.74,1.06-1.32.93-2.02,2.31-2.46,3.79-.87,2.92-1.28,5.94-1.37,8.97-.09,2.84.62,5.56,1.66,8.19.47,1.18.99,2.33,1.49,3.49.75-.07,1.4-.14,2.22-.22h0Zm-22.54-40.23c-.33.05-.56.08-.79.11-1.05.13-2.05.15-2.93-.66-.36-.33-.91-.51-1.4-.65-4.05-1.1-7.47.28-10.63,2.72.07.21.15.39.2.55.82-.13,1.59-.31,2.35-.35,1-.06,1.94.11,2.74.83.25.23.67.3,1.02.37,1.77.33,3.56.34,5.35.41.72.03,1.44.12,2.16.16.63.03,1.13-.15,1.59-.67.79-.89.62-1.78.33-2.82h0Zm-54.5,108.57c2.24,2.21,4.11,4.75,6.88,6.64.11-4.39.22-8.57.32-12.76-2.3,2.16-5.19,3.54-7.2,6.11h0Zm72.07-96.54c.81-.8,1.74-1.34,2.24-2.32.85-1.69,1.56-3.43,2.02-5.25.31-1.2.49-2.43.68-3.65.09-.56-.11-1.08-.58-1.47-1.76-1.46-3.46-2.99-5.28-4.36-1.92-1.45-3.79-2.94-5.56-4.57-.2-.18-.43-.33-.71-.54.19.91.39,1.69.51,2.47.08.52.26.87.75,1.16,2.12,1.25,4.23,2.52,6.31,3.83,1.7,1.08,2.22,2.39,1.84,4.38-.45,2.33-.86,4.66-1.34,6.98-.22,1.07-.55,2.11-.87,3.35h0Zm-29.79,12.45c1.85.52,3.65.76,5.33,1.29.05.42.08.73.12,1.06.83.26,1.63.5,2.42.77.45.16.79.13,1.19-.19,1.5-1.18,3.03-2.32,4.54-3.48.44-.34.76-.76.98-1.32-.78-.51-1.52-.99-2.27-1.49-.44.39-.82.75-1.23,1.06-.24.18-.54.37-.83.39-1.21.1-2.42.14-3.63.19-1.65.07-3.29.11-4.93.19-.21.01-.46.1-.6.24-.36.36-.67.78-1.09,1.28h0Zm-28.19,62.55c.15,3.03.29,5.94.44,8.97,1.91-1.71,3.76-3.38,5.54-4.97-.12-.33-.23-.52-.26-.72-.1-.71-.16-1.43-.24-2.15-.09-.83-.19-1.65-.3-2.57-1.69.82-3.3,1.5-5.18,1.44h0Zm52.4-70.49c-.76-.07-1.49-.22-2.19.19-.42.25-.87.45-1.31.68-.45.24-.76.6-.98,1.06-.62,1.26-1.01,2.6-1.18,3.97-.25,2.09-.37,4.19-.54,6.29,0,.09.06.19.09.26.95-.87,1.82-1.76,2.77-2.55.63-.52.91-1.09,1-1.9.2-1.89.49-3.78,1.22-5.57.33-.83.73-1.62,1.11-2.45h0Zm-15.87,12.01c0,.6.03,1.3-.01,1.99-.03.52.19.78.62,1.01,1.32.72,2.62,1.49,3.92,2.23.19.11.4.2.54.26.91-.49,1.09-1.22.98-2.1-.09-.77-.13-1.55-.16-2.33-.07-1.5-.12-3-.18-4.5-.01-.22-.06-.44-.12-.8-1.91,1.44-3.71,2.81-5.59,4.23h0Zm10.96-10.47c-.96.18-1.83.31-2.41,1.11-.32.44-.71.83-1.07,1.25-.42.5-.85,1-1.27,1.5.27.24.48.42.68.6-.06.13-.09.22-.14.28-.62.74-.84,1.56-.57,2.5.03.11,0,.23.01.35.08,2.02.15,4.04.24,6.06.01.23.1.46.18.8.81-.9,1.51-1.7,2.24-2.48.23-.25.32-.51.34-.85.07-1.47.19-2.94.27-4.41.13-2.12.52-4.18,1.31-6.16.06-.15.1-.31.17-.56h0Zm-19.38,17.34c-.39-.36-.66-.66-.99-.88-.44-.29-.55-.67-.55-1.17.02-2.17.02-4.34,0-6.51,0-.55.08-1.01.54-1.37.17-.13.43-.39.4-.53-.13-.55.28-.77.54-1.09.19-.23.37-.48.7-.9-1,.07-1.79.12-2.58.19-.1,0-.25.07-.3.15-.44.74-.85,1.5-1.27,2.26-.03.06.01.17.01.25.09,2.57.17,5.13.25,7.7.01.5.22.87.55,1.23.7.76,1.57.89,2.69.67h0Zm-4.75-26.21c-.02.78.25,1.31.66,1.77.57.65,1.18,1.27,1.74,1.94.78.94,1.78,1.57,2.87,2.04.56.24,1.23.25,1.85.3.29.03.58-.08.61-.38-.48-.6-1.05-1.09-1.34-1.72-.3-.66-.33-1.44-.45-2.03-.7-.33-1.38-.53-1.94-.92-1.21-.85-2.58-.89-4.01-1Zm42.63,12.06c2.8-1.95,5.57-3.58,8.08-5.63-.73-.7-.86-.79-1.3-.8-.78-.03-1.56-.02-2.34-.07-.53-.03-.93.15-1.34.47-1.9,1.49-2.61,3.58-3.09,6.03h0Zm-20.52-20.25c-.76.57-1.39,1.05-2.07,1.55.55,2.46,1.08,4.88,1.64,7.3.28,1.19.31,1.19,1.5,1.56.3.09.58.22.91.04.61-.32,1.24-.6,1.85-.89-.49-.48-.99-.9-1.41-1.4-.23-.27-.46-.48-.79-.62-.76-.32-1.25-.9-1.55-1.66-.36-.92-.21-1.8.13-2.69.12-.31.21-.67.17-.99-.07-.68-.22-1.36-.37-2.19h0Zm-47,170.57l.15-.06c-1.46-4.25-2.93-8.51-4.39-12.77-.47,1.32-.79,2.61-1.15,3.89-.09.33,0,.54.2.78.4.5.8.99,1.14,1.53,1.22,1.97,2.41,3.95,3.61,5.93.15.24.29.48.44.71h0Zm32.57-155.86c-.73-.03-1.35.01-1.93-.11-.59-.13-1.15-.43-1.74-.67,1.14,2.47,2.26,4.9,3.39,7.33.03.07.16.11.28.18v-6.74h0Zm42.13,23.74c-1.25-.64-2.49-1.19-3.63-1.89-1.14-.7-2.18-1.57-3.28-2.37,0,.07-.04.17-.02.24.41,1.43,1.08,2.73,1.95,3.93.27.38.67.55,1.11.58.78.04,1.56.07,2.33.07.55,0,1.06-.13,1.54-.55h0Zm-24.69-.18c-.99.83-1.64,1.85-1.65,2.64,2.18.07,4.19-.74,6.44-1.09-.45-.37-.57-.87-1.12-.83-1.29.07-2.52-.19-3.67-.71h0Zm14.84-39.83c-.03.19-.06.27-.04.33.29,1.05.06,2.07-.14,3.09-.44,2.26-1.25,4.39-2.2,6.48-.09.19-.13.39-.25.74.97-.59,1.69-1.15,1.99-2.09.29-.91.63-1.81.85-2.73.32-1.35.7-2.69.63-4.1-.03-.68-.32-1.19-.84-1.72h0Zm-87.12,21.77l.13-.09c-.08-.14-.15-.29-.24-.42-.74-1.1-1.46-2.22-2.23-3.3-.85-1.2-1.7-2.4-2.64-3.54-.74-.9-1.74-1.43-2.95-1.49,2.66,2.97,5.3,5.91,7.92,8.84h0Zm45.89-13.73c-2.7,1.88-3.94,4.52-4.46,7.59.38-.47.73-.96,1.03-1.48.89-1.49,1.74-3.01,2.65-4.49.25-.41.64-.73.96-1.09.03-.04.04-.09.07-.16-.07-.11-.15-.22-.25-.37h0Zm-70.9,39.96c.5-.95,1.08-1.73,1.34-2.74-1.49-.06-2.83.02-4.21.61.85.96,1.78,1.56,2.87,2.13Zm99.48-10.8c-.65.73-1.26,1.42-1.95,2.19,1.11.47,2.1.83,3.22.58-.43-.94-.83-1.82-1.28-2.78h0Zm-4.27-48.32c-1.06-1.28-3.01-1.11-3.71.23,1.21-.07,2.4-.15,3.71-.23Zm5.13,25.5c-.88.12-.93.11-1,.45-.13.61-.37,1.21-.24,1.85.42-.09.82-.17,1.25-.26v-2.04h0Zm-64.93,44.96s.07-.07.1-.12c-.77-.67-1.54-1.34-2.4-2.08-.22.54-.4.98-.61,1.46,1.02.26,1.96.5,2.9.73h0Zm60.52-50.8c-.36-1.17-.67-2.2-1-3.26-.63,1.18-.28,2.37,1,3.26Zm-16.46-4.63c.39.7.7,1.25,1.02,1.82.32-.55.6-1.03.92-1.59-.64-.08-1.19-.15-1.94-.23h0Zm-17.09,43.86c-.03-.06-.06-.11-.09-.16h-.91c-.22.54-.44,1.06-.65,1.57.05.03.1.06.15.09.5-.5.99-1,1.49-1.5h0Zm41.71-54.21c.36.25.72.5,1.08.74-.25-.42-.51-.8-1.08-.74Zm18.91,21.3c-.19.12-.31.2-.49.32.21.13.33.22.54.35-.02-.27-.03-.43-.04-.67h0Zm-97.41,7.56c-.01-.06-.06-.28-.1-.49l-.18.18c.12.14.25.28.28.31h0Z"/>
  <path class="cls-1" d="m98.69,296.22c-1.57-6.11-3.14-12.21-4.71-18.35.49-.04.52.26.59.49.4,1.42.86,2.82,1.16,4.26.95,4.59,2.21,9.1,3.49,13.6h-.52Z"/>
  <path class="cls-1" d="m152.79,190.65c-.42.03-.5-.28-.62-.59-.95-2.45-1.89-4.91-2.89-7.35-.64-1.55-1.39-3.05-2.06-4.59-1.01-2.32-1.59-4.77-2.06-7.24-.03-.17.04-.36.06-.58.38.07.36.31.41.53.36,2.05.85,4.08,1.6,6.02.42,1.08.96,2.1,1.4,3.17,1.34,3.29,2.66,6.6,3.97,9.9.09.23.1.5.15.76l.03-.03h0Z"/>
</svg>