<?xml version="1.0" encoding="UTF-8"?>
<svg id="SKHLMC" xmlns="http://www.w3.org/2000/svg" viewBox="0 0 288.26 381.24">
  <defs>
    <style>
      .cls-1 {
        fill: #010101;
        stroke-width: 0px;
      }
    </style>
  </defs>
  <path class="cls-1" d="m52.79,303.93c-.05-2.08-.1-4.17-.17-6.25-.03-.88.22-1.69.65-2.43.48-.81,1-1.62,1.63-2.32,1.13-1.24,1.32-2.59.89-4.17-.39-1.44-.62-2.93-.91-4.4-.28-1.45.02-2.85.38-4.24.13-.5.25-1.02.26-1.54.07-3.43.17-6.85.13-10.28-.03-2.47-.24-4.95-.4-7.43-.17-2.63-.45-5.26-.55-7.9-.12-3.03-.17-6.07-.12-9.1.04-2.38.38-4.72,1.02-7.04.51-1.85.87-3.76,1.05-5.66.26-2.88.87-5.65,1.78-8.39.98-2.94,1.69-5.95,2.56-8.92.9-3.06,1.83-6.12,2.79-9.17.56-1.76,1.43-3.35,2.68-4.73,1.78-1.97,3.32-4.12,4.7-6.38,1.39-2.28,3.16-4.23,5.06-6.08,2.04-1.98,4.11-3.92,6.17-5.88,2.33-2.22,4.67-4.44,6.6-7.04,1.03-1.39,2.05-2.79,3.04-4.2.98-1.41,2.25-2.54,3.52-3.65.98-.86,2.21-1.25,3.44-1.59.57-.16.96-.43,1.25-.98.56-1.08,1.37-1.96,2.25-2.81,1.98-1.9,3.88-3.88,5.82-5.81,1.32-1.31,2.66-2.6,4.01-3.88.28-.27.63-.47.98-.64,1.82-.87,3.26-2.2,4.32-3.87,1.18-1.87,2.23-3.83,3.32-5.76.13-.22.19-.49.24-.74.06-.36-.04-.66-.44-.76-1.07-.26-1.25-1.05-1.14-1.97.25-2.04.47-4.08.82-6.1,1.14-6.63,2.81-13.13,5.05-19.48,1.65-4.66,3.77-9.1,6.46-13.25.69-1.06,1.5-2.06,2.35-3,1.98-2.21,4.07-4.32,6.45-6.13,1.06-.8,2.11-1.61,2.94-2.7.86-1.13,2.2-1.39,3.52-1.4,1.53,0,2.88-.48,4.17-1.23.45-.26.91-.51,1.36-.78,2.03-1.28,4.23-1.55,6.58-1.31,1.16.12,2.36.06,3.51-.13,2.93-.49,5.62.21,8.24,1.43.21.1.42.2.63.26,1.78.49,3.39,1.36,5.01,2.19,1.07.54,1.94,1.3,2.58,2.33.17.27.38.53.61.76,1.58,1.48,2.83,3.22,4.01,5.01.81,1.22,1.68,2.4,2.46,3.63.34.54.54,1.17.76,1.77.43,1.15.72,2.35,1.61,3.27.13,1.07.82,1.89,1.27,2.83.54,1.13,1.1,2.25,1.72,3.33.78,1.37,1.15,2.86,1.47,4.39.27,1.29.37,2.57.39,3.88.02,1.42-.2,2.8-.54,4.15-.49,1.92-1.07,3.82-1.6,5.73-.22.76-.59,1.44-1.13,2.03-.64.7-1.24,1.43-1.88,2.12-.2.22-.49.38-.76.58-.59-.74-.31-1.38-.08-2.02.22-.6.45-1.2.62-1.84-.86.52-1.54,1.11-1.92,2.09-1.09,2.73-2.33,5.4-4.21,7.68-.8.96-1.81,1.76-2.77,2.57-1.27,1.07-2.17,2.34-2.32,4.04-.02.27,0,.55,0,.87.44,0,.76.02,1.08,0,.58-.04.78.06.74.59-.05.86-.2,1.7-.53,2.52-.56,1.42-1.03,2.87-1.53,4.32-.18.51-.28,1.05-.49,1.54-.43.98-.92,1.93-1.39,2.9-.37.76-.98,1.23-1.82,1.31-.64.07-1.09.39-1.47.87-.87,1.1-1.72,2.21-2.6,3.3-.76.94-1.58,1.83-2.31,2.79-1.07,1.42-2.63,1.99-4.23,2.46-.6.18-1.29.07-1.93.13-1.91.18-3.81.46-5.72.53-1.29.04-2.59-.15-3.83-.62-1.31-.49-2.65-.88-3.98-1.3-.78-.25-1.56-.47-2.33-.74-.38-.13-.7-.13-.97.2v-.49c-.22.08-.4.14-.58.2-.25-.56-.71-1.05-.67-1.73,0-.02-.16-.06-.25-.09.37-.45.36-.95.22-1.52-.93.39-1.43,1.12-2.02,1.94.38.15.68.27.99.39.36.36.71.71,1.08,1.06.25.23.47.09.68-.08-.03.17-.07.34-.11.55.18-.02.33-.03.48-.04-.23.25-.04.42.11.57,1.19,1.13,2.16,2.44,2.96,3.87,1.17,2.09,1.99,4.27,2.34,6.67.38,2.67,1.01,5.3,1.57,7.94.61,2.89,1.27,5.78,1.91,8.67.35,1.56.71,3.11,1.07,4.66.3,1.3.58,2.6.93,3.89.29,1.07.67,2.11,1,3.16.13.4.25.81.35,1.22.19.76,0,1.45-.53,1.98-.81.8-1.65,1.58-2.52,2.32-.69.59-1.45,1.11-2.19,1.65-.35.25-.55.51-.51.96.04.58,0,1.17,0,1.92.38-.15.66-.26.94-.37,5.37-2.21,10.72-4.43,16.1-6.62,3.41-1.39,6.83-2.75,10.26-4.09,2.93-1.14,6.02-1.69,9.07-2.36,3.82-.84,7.64-1.67,11.45-2.55,1.67-.38,3.27-.39,4.88.27,1.45.59,2.96,1.03,4.41,1.59.57.22,1.01.2,1.55-.12,3.83-2.29,7.66-4.6,11.55-6.82,4.76-2.71,9.57-5.32,14.37-7.98.2-.11.41-.2.61-.31.87-.48,1.97-.18,2.5.89,4.17,8.42,8.4,16.8,12.62,25.19,1.55,3.09,3.09,6.19,4.68,9.25.49.95,1.05,1.88,1.72,2.72,1.09,1.38,1.09,2.51-.07,4.04-1.44,1.91-3.2,3.44-5.37,4.43-1.65.76-3.36,1.4-5.04,2.12-4.05,1.72-8.09,3.45-12.13,5.18-6.38,2.74-12.75,5.49-19.13,8.23-1.37.59-2.75,1.16-4.2,1.77.2.38.36.69.53,1,.45.85.4,1.14-.31,1.76-2.32,2.05-4.69,4.05-7.44,5.53-.65.34-.96.81-1.02,1.52-.05.58-.16,1.16-.31,1.73-.33,1.26-1.1,2.2-2.24,2.83-.25.14-.49.3-.69.42.07.74.16,1.42.18,2.09.02,1.47-.49,2.66-1.86,3.4-.68.37-1.32.83-2.03,1.28.16.27.31.52.45.76.94,1.49.63,3.03-.86,3.97-1.39.88-2.95,1.38-4.56,1.69-4.17.81-8.3.56-12.4-.52-1.86-.49-3.73-.94-5.59-1.44-.75-.2-1.48-.48-2.22-.72-.12-.04-.24-.11-.37-.13-2.03-.31-4.05-.61-6.07-.91-.09-.01-.19.03-.34.06-.01.21-.04.43-.03.65.24,4.14.91,8.22,1.45,12.33.25,1.94.48,3.88.64,5.83.17,2.1-.32,4.14-.64,6.2-.22,1.38-.47,2.76-.7,4.14h-.59c.16-1.09.27-2.2.5-3.28.78-3.76,1.05-7.52.47-11.36-.65-4.28-1.08-8.59-1.6-12.89-.07-.57-.15-1.14-.24-1.84-.67.03-1.27.03-1.88.09-1.43.14-2.84.33-4.27.45-2.3.2-4.62.27-6.91.57-3.36.45-6.69,1.06-10.03,1.6-4.28.69-8.55,1.4-12.83,2.07-2.57.4-5.15.79-7.73,1.1-2.68.32-5.37.54-8.07.81-.74.07-1.47.16-2.26.25.04.26.05.45.09.63.47,2.53.99,5.05,1.38,7.59.36,2.32.52,4.66.87,6.97.33,2.16.69,4.32,1.69,6.3.14.28.18.62.27.93h-.59c-.23-.64-.46-1.27-.69-1.91-.22-.61-.42-1.22-.63-1.83-.19.26-.23.47-.27.69-.19,1.02-.38,2.03-.57,3.05h-.39c0-.16,0-.33.02-.49.23-1.52.49-3.02.69-4.54.07-.54.05-1.11-.01-1.65-.13-1.16-.33-2.32-.49-3.48-.4-2.87-.76-5.75-1.19-8.61-.18-1.2-.52-2.39-.8-3.61-.51.05-.9.09-1.3.12-.09.4-.19.74-.26,1.09-.62,2.97-1.24,5.93-1.84,8.9-.82,4.09-1.63,8.18-2.45,12.27h-.39c.01-.36-.02-.72.05-1.07,1.33-6.57,2.68-13.14,4.02-19.71.09-.43.16-.87.24-1.32-.71,0-.75,0-.87.52-.58,2.54-1.19,5.07-1.67,7.63-.27,1.47-.3,2.97-.46,4.46-.23,2.13-.9,4.12-1.77,6.06-.49,1.09-1.01,2.19-1.11,3.41h-.59c.11-.47.16-.97.33-1.42.4-1.1.84-2.19,1.3-3.26.77-1.78,1.22-3.63,1.34-5.57.06-.94.11-1.89.29-2.81.55-2.78,1.16-5.54,1.74-8.31.04-.2.04-.42.07-.7-1.31.07-2.54.12-3.77.22-.23.02-.48.2-.65.39-1.56,1.71-3.1,3.43-4.64,5.15-.37.41-.5.88-.48,1.43.03,1,.03,2.02-.02,3.02-.04.78-.41,1.4-1.03,1.92-.6.5-1.15,1.07-1.63,1.68-1.71,2.18-3.38,4.39-5.05,6.59-.4.53-.75,1.12-1.12,1.68h-.59c.19-.36.33-.76.58-1.09,1.64-2.19,3.29-4.39,4.97-6.54.72-.92,1.48-1.84,2.35-2.61.7-.62,1.02-1.33,1.07-2.21.04-.78.05-1.57-.02-2.35-.07-.81.17-1.47.7-2.06.93-1.05,1.85-2.1,2.78-3.15.48-.54.96-1.08,1.56-1.75h-1.17c-2.15,0-4.32.12-6.46-.04-3.1-.24-5.55-1.68-6.88-4.6-.5-1.11-.88-2.34-1.02-3.54-.3-2.49-.47-4.99-.56-7.5-.03-.89-.32-1.43-.99-1.94-2.02-1.55-3.94-3.21-5.62-5.14-.22-.26-.47-.51-.74-.81-.62.97-1.14,1.87-1.75,2.72-.84,1.18-1.38,2.46-1.8,3.85-1.09,3.68-2.3,7.34-3.48,11-.99,3.09-2.25,6.05-4.14,8.71-2.06,2.9-4.05,5.85-6.17,8.7-1.07,1.43-2.33,2.72-3.52,4.05-.22.25-.52.44-.85.7-.07-.59-.05-.58.2-.85,1.02-1.1,2.03-2.21,3.05-3.3.27-.29.34-.59.29-.98-.13-.91-.11-1.83.2-2.71.13-.37.06-.69-.11-1.02-.86-1.79-1.71-3.59-2.56-5.39-.07-.14-.2-.26-.31-.38-.07.03-.13.05-.2.08.36,1.61.71,3.23,1.07,4.84.39,1.74.26,3.31-1.05,4.73-.78.85-1.3,1.94-1.87,2.95-.18.32-.23.75-.23,1.13,0,.61.21.89.8.9,1.63.04,2.96.82,4.19,1.72,1.76,1.29,3.68,2.22,5.66,3.06.5.21.97.52,1.45.78h-1.18c-.26-.13-.51-.27-.77-.39-1.87-.83-3.74-1.67-5.37-2.94-.41-.31-.86-.59-1.32-.83-1.01-.52-2.03-1.01-3.31-.91v5.07h-.58v.02Zm149.9-98.01c.51.17.87.3,1.23.42.8.26,1.63.48,2.42.78.74.27,1.44.64,1.9,1.31.45.65.42,1.17-.23,1.6-.47.31-1.05.51-1.61.62-1.52.31-3.05.25-4.57.04-1.8-.24-3.61-.52-5.39-.87-.51-.1-.93-.1-1.4.12-1.51.7-3.02,1.38-4.55,2.05-3.82,1.68-7.57,3.5-11.21,5.57-1.5.85-1.87,1.64-1.65,3.29.42,3.06.87,6.13,1.29,9.19.81,5.94,1.61,11.88,2.42,17.81.09.69.21,1.39.32,2.13,1.42-.22,2.72-.08,4.05.16,3.9.72,7.82.96,11.76.15,1.08-.22,2.18-.39,3.28-.48,1-.09,1.28.24,1.3,1.23v.57c1.16-.44,2.25-.84,3.34-1.25,5.51-2.1,11.02-4.2,16.53-6.31,6.33-2.42,12.68-4.81,18.98-7.27,3.01-1.17,5.93-2.53,8.92-3.74,1.59-.65,3.09-1.39,4.31-2.62.6-.6,1.19-1.21,1.76-1.84.95-1.05,1-1.62.31-2.91-.71-1.32-1.44-2.63-2.12-3.97-3.05-6.06-6.09-12.12-9.14-18.18-2.59-5.16-5.19-10.32-7.79-15.47-.6-1.19-.85-1.3-2.07-.74-1.36.64-2.72,1.27-4.01,2.02-8.67,5-17.33,10.04-25.98,15.06-.78.45-1.54.95-2.45,1.51h.01Zm-14.56-75.36c.05.04.11.07.16.11.1-.07.21-.13.3-.22.18-.18.36-.37.53-.58,1.11-1.36,1.78-2.94,2.29-4.61.8-2.66,1.63-5.3,1.48-8.13-.15-2.89-.64-5.68-2.05-8.27-1.45-2.66-2.83-5.37-4.19-8.07-.59-1.16-.95-2.45-1.63-3.55-2.19-3.56-4.53-7.03-7.94-9.58-.78-.58-1.53-1.27-2.4-1.67-1.87-.84-3.8-1.56-5.73-2.26-1.73-.62-3.49-.96-5.37-.79-1.94.18-3.9.14-5.86.15-1.3,0-2.53.25-3.69.82-.67.33-1.34.68-1.97,1.07-1.53.95-3.14,1.53-4.97,1.54-1.36,0-2.5.59-3.41,1.65-.52.62-1.09,1.23-1.75,1.7-1.68,1.2-3.21,2.56-4.68,4-1.9,1.85-3.65,3.81-5.1,6.04-2.77,4.27-4.81,8.88-6.48,13.66-2.46,7.04-3.98,14.3-5.21,21.64-.18,1.08-.11,2.2-.14,3.3-.02.53.33.78.78.85.3.05.65.02.94-.08.88-.34,1.74-.76,2.61-1.1,1.15-.45,2.23-.45,3.12.58.17.2.39.34.59.51.36.29.77.38,1.2.24.71-.23,1.44-.43,2.11-.76,1.31-.63,1.66-1.47,1.36-2.88-.09-.41-.16-.84-.15-1.25.01-.71.35-1,1.07-.93.35.03.7.14,1.04.26.52.19,1.02.42,1.54.62.87.33,1.74.65,2.77,1.03-.18-.51-.29-.84-.41-1.16-.44-1.18-.58-2.42-.44-3.66.28-2.45.94-4.79,1.97-7.03.65-1.42,1.74-2.25,3.21-2.61,1.72-.43,3.43-.26,5.13.11,1.27.28,2.06,1.07,2.52,2.23.2.51.29,1.07.42,1.6.09.35.13.71.28,1.03,1.27,2.75,2.54,5.5,3.84,8.24.3.64.67,1.25.99,1.84,1.31.04,1.37,0,1.37-1.2,0-.99.33-1.84.94-2.61,1.01-1.26,2.34-1.95,3.9-2.23,1.6-.28,3.21-.53,4.82-.79,3.61-.58,6.94-1.78,9.7-4.28,1.2-1.09,2-2.4,2.2-4.03.1-.81.11-1.62.21-2.43.04-.36.19-.71.31-1.14.28.15.47.18.54.29.67,1.11,1.48,2.16,1.69,3.49.16,1.03.23,2.07.37,3.1.04.26.17.51.33.96.33-.46.59-.71.73-1.02.28-.59.47-1.21.75-1.8.25-.52.48-1.09.86-1.5.47-.52,1.11-.29,1.2.41.07.51.03,1.05-.07,1.55-.47,2.3-1.45,4.38-2.85,6.27-.16.22-.29.46-.52.83,1.15.09,1.97-.31,2.67-.87.81-.65,1.52-1.42,2.24-2.17.36-.38.63-.83.98-1.22.09-.1.31-.07.69-.16-.62,1.75-1.18,3.32-1.74,4.89h0Zm1.08,143.64c.19-.08.31-.13.43-.19,1.95-.98,3.89-1.97,5.84-2.95.52-.26,1.08-.46,1.58-.75,1.45-.85,2.14-2.6,1.66-4.19-.05-.17-.18-.32-.27-.49-.33.13-.6.25-.87.36-1.9.77-3.81,1.54-5.71,2.3-.3.12-.62.33-1.12-.04.36-.18.59-.32.84-.42,1.75-.71,3.5-1.42,5.26-2.11,1.31-.52,2.52-1.21,3.6-2.13,1.17-.99,1.33-2.34,1.41-3.78-3.97.72-8.15,1.09-9.01.8.16-.39.5-.34.81-.36,1.65-.15,3.31-.27,4.96-.47,1.16-.14,2.36-.18,3.41-.78,2.94-1.71,5.73-3.63,8.25-5.93.78-.71.79-1.05.21-1.92-.27-.39-.58-.6-1.06-.55-.42.04-.86.02-1.26.13-2.29.62-4.59,1.23-6.86,1.94-3.06.96-6.14,1.79-9.38,1.65-1.89-.08-3.77-.24-5.65-.42-1.2-.12-2.38-.36-3.57-.53-.31-.04-.58-.09-.53-.54.24,0,.47-.04.68,0,2.59.52,5.22.77,7.86.92,3.43.2,6.77-.24,9.96-1.58.78-.33,1-.81.69-1.8-.65.05-1.33.07-2,.16-1.71.23-3.41.59-5.12.72-3.1.24-6.19-.11-9.24-.67-1.2-.22-2.4-.21-3.6.03-1.69.34-3.39.67-5.08,1.01-2.59.51-5.16,1.12-7.66,1.99-3.41,1.18-6.82,2.39-10.27,3.48-2.58.81-5.21,1.45-7.83,2.13-.97.25-1.96.5-2.95.62-2.78.35-5.56.67-8.34.95-2.36.24-4.73.45-7.11.61-2.44.17-4.88.32-7.32.41-3.33.13-6.64.11-9.94-.51-1.29-.24-2.55-.82-3.92-.54-.05.01-.14-.02-.17-.07-.45-.56-1.13-.4-1.81-.63,0,.6-.03,1.11,0,1.63.09,1.2-.46,1.99-1.51,2.5-3.23,1.56-6.58,2.3-10.14,1.43-2.09-.51-4.16-1.07-6.24-1.61-.63-.17-1.12-.56-1.43-1.11-.28-.51-.44-1.08-.68-1.61-.17-.38-.3-.82-.58-1.09-1.16-1.1-2.37-2.14-3.57-3.2-.1-.09-.25-.12-.5-.24,0,.65,0,1.17,0,1.69-.09,4.5-.09,9.01.23,13.51.11,1.63.43,3.23,1.01,4.77.78,2.07,2.2,3.49,4.25,4.33,1.8.74,3.7.8,5.57.77,2.77-.05,5.53-.22,8.29-.41,2.83-.2,5.65-.47,8.47-.74,2.75-.27,5.51-.53,8.25-.89,3.26-.43,6.51-.94,9.76-1.46,5.02-.8,10.03-1.65,15.04-2.47,2.92-.48,5.86-.91,8.82-1.06,1.59-.08,3.18-.23,4.77-.38,1.04-.1,2.07-.39,3.1-.36,2.54.09,5.07.37,7.53,1.04,2.48.67,4.97,1.34,7.46,1.98,2.81.72,5.65,1.37,8.58,1.26.94-.04,1.89-.11,2.83-.21,1.99-.22,3.92-.7,5.77-1.45,1.78-.71,2.22-2.49,1.03-3.97-.49-.61-.58-.65-1.31-.27-1.19.61-2.36,1.26-3.54,1.88-.26.14-.51.47-1.07-.07h0Zm-73.38-37.52c.05.02.11.04.16.06.15-.25.31-.48.45-.73,2.62-4.88,5.24-9.77,7.21-14.97.84-2.23,1.71-4.43,2.08-6.81.1-.63,0-1.15-.27-1.69-1.25-2.44-2.61-4.82-4.3-6.99-1.21-1.55-2.48-3.07-4.19-4.08-3.17-1.87-6.42-3.62-9.87-4.94-1.51-.57-3.06-.91-4.69-.71-2.49.31-4.98.58-7.46.94-3.25.46-6.51.92-9.71,1.72-1.52.38-2.64,1.19-3.49,2.47-1.13,1.69-2.01,3.5-2.71,5.41-.55,1.49-.82,3.01-.75,4.6.05,1.07.18,2.15.15,3.22-.05,1.63,1.03,2.52,2.12,3.45-.56-1.44-1.12-2.87-1.71-4.36.61.06.58.07,1.71,2.84.44,1.08.94,2.14,1.41,3.2.48,1.07.92,2.19,1.38,3.28.45,1.06.9,2.11,1.35,3.17.17-.29.2-.54.17-.78-.14-1.07-.29-2.13-.45-3.19-.28-1.81-.6-3.62,0-5.42.24-.72.22-1.36,0-2.08-.6-2.03-.74-4.08-.21-6.17.23-.93.25-1.94.22-2.91-.04-1.4-.21-2.79-.3-4.19,0-.15.11-.31.17-.46.07,0,.14,0,.21,0,.07.4.16.8.2,1.2.05.49.06.98.1,1.46.16,1.92.21,3.83-.23,5.73-.42,1.8-.15,3.55.43,5.41.9-1.73,1.68-3.34,2.56-4.9.87-1.54,1.73-3.09,2.92-4.61.09.69.09.7-.08.98-.4.64-.8,1.27-1.2,1.91-1.55,2.54-2.98,5.13-4.03,7.92-.45,1.2-.73,2.44-.58,3.73.11.97.27,1.94.44,2.9.42,2.43.42,4.83-.18,7.26-.47,1.92-.77,3.92-.84,5.89-.13,3.78-.03,7.57-.04,11.36,0,.42.1.72.46,1,2.09,1.64,3.9,3.55,5.41,5.75.07.09.18.15.31.25.61-4.75,1.19-9.44,1.83-14.11.37-2.71.76-5.42,1.27-8.11,1.34-7.01,2.99-13.96,3.87-21.05.24-1.91.44-3.81.18-5.75-.15-1.12-.04-2.28-.02-3.42,0-.33.03-.71.53-.85.02.24.05.42.05.61.01,1.4,0,2.81.03,4.21.01.62.14,1.24.1,1.85-.09,1.4-.17,2.81-.4,4.18-.83,4.81-1.73,9.62-2.61,14.42-.74,4.04-1.56,8.06-2.21,12.11-.6,3.79-1.03,7.62-1.52,11.43-.22,1.71-.39,3.42-.58,5.08.14.12.21.2.29.25.13.09.27.18.41.26,3.09,1.59,6.41,2.12,9.84,2.09,1.04,0,2.08-.15,3.11-.31,1.6-.24,3.2-.55,4.81-.83.22-.92.43-1.74.63-2.56.69-2.86,1.45-5.68,2.91-8.27.29-.51.47-1.08.64-1.64.74-2.54,1.45-5.08,2.17-7.62.46-1.63,1-3.24,1.34-4.9.55-2.69.7-5.42.85-8.16.11-2.13-.2-4.14-.89-6.13-.67-1.91-1.33-3.81-1.99-5.73-.11-.31-.19-.64-.29-.99.64-.11.64.33.73.59.86,2.5,1.72,4.99,2.53,7.51.23.71.41,1.46.42,2.19.02,1.79,0,3.59-.13,5.37-.24,3.12-.61,6.23-1.69,9.2-.23.62-.36,1.28-.54,1.93h0Zm6.05,9.78c.65.57,1.28,1.14,1.93,1.67,1.54,1.26,2.88,2.76,4.63,3.74,1.76.99,3.52,1.99,5.34,2.87,3.4,1.64,6.84,3.21,10.28,4.79.16.07.37.11.55.09.93-.12,1.86-.27,2.8-.41.07-.2.14-.35.16-.5.78-4.49,1.56-8.99,2.33-13.48.28-1.61.47-3.22-.23-4.79-.12-.27-.16-.56-.22-.85-.41-1.82-.77-3.64-.63-5.52.17-2.31.45-4.61.49-6.92.09-5.39.11-10.77.06-16.16-.04-3.91-.23-7.82-.36-11.73-.08-2.54-.16-5.09-.27-7.63-.03-.61-.1-1.25-.28-1.83-1.23-3.98-2.48-7.95-3.76-12.02-.08.92-.16,1.76-.23,2.59-.13,1.4-.28,2.8-.81,4.11-.25.62-.62,1.23-1.06,1.72-1.09,1.21-2.57,1.6-4.14,1.71-2.92.2-5.64-.47-8.12-2.03-2.37-1.49-4.7-3.05-7.06-4.58-.32-.21-.59-.51-.91-.57,1.02,1.7,2.17,3.34,3.04,5.11,1.98,4.01,3.37,8.26,4.49,12.59.82,3.2,1.42,6.44,1.6,9.72.13,2.47.07,4.96-.11,7.42-.18,2.4-.53,4.79-.94,7.16-.78,4.46-2.38,8.67-4.08,12.83-1.46,3.59-2.95,7.17-4.48,10.87h0Zm11.71-112.28c-.35.7-.09,1.24,0,1.76.26,1.41-.08,2.35-1.31,3.07-.67.39-1.43.63-2.15.91-1.03.4-1.92.16-2.64-.67-.11-.12-.22-.24-.35-.34-.5-.43-1.05-.6-1.72-.4-1.82.55-3.3,1.32-4.09,3.33-.98,2.48-2.31,4.83-4.12,6.84-1.14,1.26-2.36,2.43-3.51,3.68-.32.35-.68.79-.73,1.22-.2,1.64-.05,3.25.69,4.77.47.96.91,1.94,1.41,2.9.31.6.66,1.2,1.08,1.73.51.63,1.13,1.18,1.67,1.78,1.77,2.01,3.43,4.1,4.73,6.45.21.38.54.74.89,1,1.94,1.49,3.9,2.95,5.87,4.4,1.37,1.01,2.81,1.9,4.39,2.54,2.29.93,4.71,1.24,7.16,1.35.25.01.49-.04.81-.07-1.09-3.68-1.75-7.4-3.18-10.89-.16,1.23.45,2.3.71,3.43-.45.16-.54-.13-.64-.36-.7-1.67-1.01-3.36-.43-5.14.69-2.08,1.79-3.89,3.5-5.29-.01-.13,0-.22-.04-.31-1-3.13-1.98-6.27-3.05-9.39-.3-.88-.54-1.74-.52-2.66.04-1.89.09-3.78.22-5.66.03-.5-.05-1.1.37-1.52.45.1.31.37.28.62-.28,2.21-.39,4.42-.31,6.64.02.65.12,1.31.32,1.92.99,3.14,2.03,6.26,3.05,9.38.07.21.18.4.36.8.16-.39.31-.6.33-.82.21-2.24.39-4.48.6-6.71.04-.45.11-.91.21-1.34.14-.58.53-.87,1.15-.85s1.23,0,1.92,0c-.14-.41-.23-.72-.35-1.02-1.08-2.76-2.16-5.52-3.26-8.27-.84-2.12-1.53-4.3-2.95-6.14-.21-.27-.46-.56-.76-.68-1.47-.61-2.97-1.17-4.47-1.73-.36-.13-.74-.18-1.16-.27h0Zm50.64,80.08c-.8-.36-1.43-.4-2.05-.11s-1.25.58-1.81.96c-2.5,1.66-4.99,3.34-7.46,5.04-1.34.92-2.62,1.94-3.97,2.83-1.55,1.02-3.14,1.97-4.72,2.95-.19.12-.4.21-.61.31-.85.4-1.68.82-2.54,1.2-2.05.9-3.84,2.28-5.96,3.07-1.46.55-2.81,1.37-4.21,2.09-.89.46-1.55,1.11-1.47,2.21.08,1.07.18,2.13.31,3.19.06.54.23,1.01.56,1.5.27.39.09,1.06.16,1.6.03.25.13.51.26.73.91,1.53,1.85,3.05,2.77,4.58.61,1.02,1.23,2.03,1.81,3.06.42.74.8,1.49,1.16,2.25.42.9.81,1.82,1.19,2.74.3.72.56,1.46,1.38,1.84,2.34-.81,4.68-1.63,7.02-2.43,1.65-.56,3.26-1.23,4.95-1.65,3.25-.8,6.53-1.47,9.91-2.21,0-.23.04-.59,0-.93-.19-1.38-.41-2.75-.61-4.12-.25-1.76-.51-3.51-.75-5.27-.22-1.57-.41-3.14-.62-4.71-.24-1.76-.51-3.52-.75-5.27-.22-1.57-.37-3.14-.63-4.7-.32-1.89-.6-3.77-.57-5.7.01-.76.3-1.24.91-1.59,1.24-.72,2.48-1.44,3.74-2.13.8-.44,1.61-.83,2.61-1.34h0Zm7.44-3.44c-3.74.06-6.8-1.56-9.93-3.61.36-.11.56-.24.68-.19.27.1.51.29.75.46,2.01,1.34,4.21,2.21,6.56,2.69.56.11,1.17.07,1.73-.05.79-.17,1.56-.46,2.34-.71.98-.32,1.95-.46,2.95-.02.38.17.82.23,1.23.29,1.36.19,2.71.41,4.07.52,1.49.12,3,.21,4.48-.12.57-.13,1.16-.24,1.47-1.04-.3-.29-.58-.74-.98-.93-.94-.45-1.92-.81-2.9-1.14-2.22-.75-4.46-1.46-6.67-2.21-.33-.11-.62-.38-.92-.57.03-.07.06-.14.09-.21.16,0,.33-.04.47,0,1.37.51,2.74,1.02,4.11,1.55.46.18.85.13,1.28-.15,1.07-.69,2.17-1.33,3.26-1.98.44-.27.88-.54,1.4-.87-.35-.15-.58-.26-.82-.34-1.6-.57-3.2-1.12-4.79-1.69-.86-.3-1.72-.31-2.6-.12-4.77,1.04-9.56,2.05-14.32,3.12-2.06.46-4.14.91-6.14,1.59-2.89,1-5.73,2.17-8.56,3.32-5.73,2.33-11.45,4.7-17.18,7.06-.92.38-1.85.78-2.67,1.13-.14,5.35-.28,10.58-.42,15.89.18-.08.33-.13.47-.2,2.16-1.08,4.33-2.13,6.46-3.26,3.65-1.95,7.35-3.81,10.89-5.97,3.39-2.07,6.57-4.48,9.88-6.69,1.38-.92,2.83-1.74,4.26-2.59.64-.38,1.38-.59,2.07-.33,1.38.51,2.52-.03,3.68-.63.46-.24.96-.42,1.43-.64.97-.45,1.94-.91,2.91-1.36h0Zm-106.3-31.1c-.57.52-1.13.98-1.62,1.49-.38.39-.75.82-.98,1.3-1.91,3.96-3.83,7.92-5.66,11.92-1.36,2.96-2.63,5.98-3.48,9.13-1.15,4.28-2.24,8.57-3.19,12.9-.88,4.01-1.6,8.05-2.26,12.1-.38,2.37-.56,4.79-.71,7.19-.11,1.72-.16,3.47.31,5.16.85,3.07,1.75,6.14,2.61,9.21.28,1.02.87,1.81,1.66,2.48.32.27.65.54.97.82,1.25,1.07,2.37,2.23,3.2,3.67.29.51.62,1,.98,1.46,1.38,1.79,3.1,3.26,4.83,4.69.51.42,1.04.84,1.62,1.29.06-.21.11-.29.11-.38.05-2.48.1-4.96.12-7.44,0-.28-.04-.61-.2-.83-.57-.8-.63-1.7-.55-2.63.1-1.2.26-2.4.33-3.6.03-.58.04-1.2-.13-1.74-1.12-3.4-2.33-6.78-3.45-10.18-.31-.95-.55-1.96-.61-2.95-.19-3.09-.29-6.18-.4-9.28-.04-1.07,0-2.16-.01-3.23,0-.35-.09-.7-.14-1.05-.14-.93-.36-1.85-.42-2.79-.09-1.47-.18-2.93-.64-4.33-.53-1.62-.8-3.28-.98-4.97-.27-2.52-.3-5.04.47-7.46,1.21-3.82,2.43-7.64,3.83-11.39,1.33-3.55,3.4-6.74,5.5-9.97-.32-.18-.66-.36-1.08-.59h0Zm77.78-36.64c-.3.48-.57,1.04-.96,1.49-.79.93-1.47,1.9-1.91,3.05-.43,1.16-.93,2.29-1.31,3.47-.66,2.07-1.85,3.8-3.29,5.38-.52.58-1.14.86-1.91.74-.77-.12-1.54-.26-2.31-.39-.88-.15-1.56-.63-2.09-1.34-.41-.55-.77-1.14-1.19-1.67-.21-.27-.47-.59-.78-.7-1.05-.38-2.15-.35-3.36-.2-.1.58-.23,1.15-.29,1.72-.08.78-.11,1.56-.17,2.34-.17,2.43-.65,4.85-.46,7.31.04.54.15.84.72.95.57.11,1.13.31,1.69.49,2.18.69,4.34,1.39,6.53,2.06.96.3,1.96.41,3.04.21-.06-.24-.09-.43-.16-.59-.49-1.1-1-2.19-1.48-3.3-.7-1.62-1.38-3.23-2.04-4.87-.1-.24-.41-.58.15-.93.7,1.63,1.38,3.23,2.07,4.82.7,1.6,1.42,3.21,2.11,4.75.16.04.23.08.29.07,2.46-.28,4.93-.47,7.37-.87,1.54-.26,2.57-1.38,3.41-2.74-2.29-1.24-4.5-2.44-6.7-3.63-1.12-.6-2.24-1.21-3.36-1.82-.28-.15-.5-.33-.13-.7,3.52,1.91,7.04,3.81,10.61,5.75,1.45-1.82,2.86-3.59,4.33-5.43-.41-.13-.74-.26-1.07-.35-3.66-.93-7.33-1.85-10.99-2.77-.27-.07-.6-.06-.63-.54.24,0,.46-.04.67,0,1.09.22,2.18.42,3.25.7,2.99.78,5.99,1.57,8.96,2.43,1.19.34,2.34-.13,2.75-1.3,1.08-3.11,2.25-6.18,3.37-9.28.11-.32.11-.68.17-1.05-1.47-.36-2.85-.53-4.25-.49-2.01.06-3.97-.27-5.85-.96-1.58-.58-3.16-1.2-4.79-1.82h0Zm-20.76-3.04c.14.42.22.65.31.88,1.34,3.39,2.68,6.79,4.02,10.18.27.68.4,1.44,1.28,1.69.24.07.41.4.58.64.27.37.55.73.78,1.13.72,1.23,1.82,1.82,3.19,1.99.42.05.84.11,1.26.16.52.07.96-.06,1.33-.46,1.41-1.52,2.58-3.16,3.25-5.17.54-1.6,1.16-3.18,1.87-4.72.29-.63.32-1.09.02-1.7-2.72-5.56-5.42-11.13-8.08-16.72-.21-.43-.51-.45-.88-.52.05-1.33-.06-2.58-.56-3.78-.31-.75-.75-1.42-1.54-1.68-2.02-.69-4.06-.91-6.11-.11-.95.37-1.67.99-2.12,1.92-.82,1.72-1.4,3.51-1.79,5.36-.87,4.13.68,7.45,3.49,10.35.65.67,1.26,1.36,1.58,2.26-.12.07-.22.13-.23.11-.51-.56-1.01-1.12-1.66-1.85h0Zm38.11-21.54c-.05.6-.11,1.05-.12,1.5-.05,1.78-.52,3.42-1.77,4.75-.58.61-1.21,1.18-1.88,1.7-2.35,1.82-5.08,2.77-7.97,3.28-1.96.35-3.93.6-5.88,1-2.7.55-4,2.1-4.14,4.78-.04.69-.27,1-.93,1.21-.21.07-.44.09-.71.15,1.31,2.71,2.61,5.39,4,8.27.46-.69.87-1.18,1.16-1.74.47-.9.78-1.02,1.69-.64,1.35.57,2.71,1.11,4.09,1.62,2.61.96,5.32,1.16,8.13,1.03.08-.4.16-.78.22-1.16.22-1.37.83-2.53,1.86-3.46.43-.39.87-.79,1.31-1.17,1.92-1.63,3.44-3.56,4.46-5.87.44-.98.91-1.95,1.36-2.93.07-.16.13-.34.24-.64-.31.1-.48.17-.66.21-.35.09-.69.2-1.04.25-.4.05-.87.04-1-.38-.09-.29.09-.66.16-1,.02-.09.11-.16.18-.23,1.45-1.78,2.3-3.85,2.86-6.05.13-.52.18-1.06-.14-1.68-.21.13-.34.31-.42.51-.14.33-.23.68-.39,1-.39.82-.72,1.68-1.23,2.43-.52.76-1.24.6-1.49-.29-.14-.49-.18-1.02-.22-1.54-.14-1.71-.41-3.36-1.74-4.9h0Zm-102.97,92.82c.07,0,.15,0,.22-.01,0-.32-.02-.64,0-.96.05-.78.02-1.59.21-2.33.71-2.74,1.87-5.27,3.5-7.6.93-1.33,2.15-2.16,3.73-2.47,2.01-.4,4.02-.84,6.04-1.16,2.34-.38,4.7-.67,7.06-.97.47-.06.7-.23.74-.71.19-1.98.42-3.95.58-5.93.24-2.86.97-5.58,2.33-8.11.37-.69.77-1.36,1.18-2.09-1.2-.35-2.38-.62-3.59-.54-1.46.09-2.92.28-4.37.45-.86.1-1.71.23-2.67.36.5.85.96,1.54,1.63,2.07,1.12.89,2.21,1.83,3.32,2.74.22.18.49.33.25.93-2.07-1.88-4.48-3.21-5.88-5.65-1.07.21-2.04.4-3.03.59.04.43.04.72.09,1,.28,1.8.56,3.6.85,5.4.05.31.2.65-.37.91-.53-2.37-.66-4.77-1.16-7.1-.91.2-.94.17-1.36.73-.53.7-1.05,1.42-1.47,2.18-1.27,2.31-2.71,4.57-3.7,7-1.43,3.5-2.54,7.12-3.74,10.7-1.16,3.49-1.07,7.04-.42,10.59h0Zm21.95-15.69c.64-.07,1.09-.13,1.54-.18.97-.09,1.96-.3,2.91-.2,1.15.12,2.3.44,3.41.82,2.81.97,5.39,2.46,8.01,3.84,1.3.69,2.55,1.44,3.63,2.45,2.05,1.91,3.65,4.16,5.09,6.54.58.96,1.11,1.96,1.67,2.93.08-.33.07-.62.02-.9-.38-2.14-1.28-4.09-2.1-6.08-.87-2.14-1.83-4.25-2.57-6.44-.59-1.73-1.14-3.47-2.04-5.06-1.26-2.25-2.55-4.47-3.83-6.7-.55-.96-1.11-1.92-1.67-2.87-.71-1.2-1.76-1.99-3.05-2.48-1.22-.46-2.43-.94-3.67-1.34-1.01-.33-2.05-.58-3.05-.85-1.3,1.89-2.3,3.84-2.85,5.97-.39,1.51-.61,3.06-.82,4.61-.25,1.93-.41,3.87-.62,5.96h0Zm-38.52,72.6c.17-.18.23-.22.26-.27,1.28-2.35,2.57-4.69,3.81-7.06.2-.38.24-.88.22-1.32-.07-1.72-.2-3.44-.3-5.16-.13-2.37-.27-4.75-.38-7.13-.02-.55-.03-1.12.09-1.65.45-1.97.89-3.94,1.45-5.88.41-1.44.99-2.83.82-4.38-.02-.19.06-.39.07-.58.1-1.26.25-2.51-.44-3.71-.53-.93-.91-1.95-1.33-2.94-.86-2.04-1.88-4.04-2.21-6.25-.38-2.57-.6-5.17-.89-7.76-.04-.38-.11-.76-.16-1.14-.57,1.51-.95,3.03-1.37,4.53-.66,2.35-1.21,4.74-2.07,7.02-.7,1.87-.91,3.64-.58,5.62.57,3.52,1.14,7.06.97,10.67-.13,2.86-.18,5.73-.19,8.6-.01,2.81.05,5.61.13,8.41.02.71.16,1.43.29,2.12.28,1.44.6,2.87.91,4.3.28,1.27.58,2.52.9,3.93h0Zm39.74-103.56c.09.08.11.11.13.11,3.59.49,6.87,1.79,9.76,3.97,2.54,1.91,4.61,4.32,6.85,6.55,1.4,1.39,2.49,3.08,4.2,4.19,2.65,1.72,5.23,3.56,7.87,5.3,2.67,1.76,5.57,2.84,8.85,2.58,1.06-.08,2.06-.34,2.98-.85.7-.38,1.27-.94,1.59-1.68.63-1.45.84-2.99.98-4.59-2.23,1.04-2.18.79-3.82.79-.49,0-.97-.12-1.45-.17-3.32-.31-6.35-1.4-9.04-3.39-1.81-1.34-3.61-2.7-5.42-4.03-2.57-1.9-5.13-3.81-7.98-5.3-1.89-.99-3.62-2.21-5.05-3.82-1.64-1.84-2.61-3.97-2.58-6.47,0-.6.19-1.19.33-1.98-2.88,2.94-5.95,5.47-8.21,8.78h0Zm-18.98,18.53c-.3.2-.42.25-.5.33-1.95,1.88-3.92,3.73-5.83,5.65-1.24,1.25-2.37,2.59-3.32,4.09-1.57,2.48-3.21,4.91-5.19,7.1-.97,1.07-1.75,2.28-2.22,3.65-.74,2.16-1.41,4.33-2.1,6.51-.07.21-.11.45-.09.67.23,2.82.42,5.65.75,8.47.18,1.54.49,3.1,1,4.57.76,2.15,1.74,4.21,2.63,6.31.08.18.21.33.37.59.08-.45.13-.77.19-1.09.3-1.96.55-3.94.91-5.89.98-5.35,2.05-10.68,3.47-15.94.76-2.83,1.56-5.66,2.54-8.41,1.63-4.57,3.71-8.97,5.84-13.33.49-1.01.96-2.04,1.54-3.27h0Zm41.72,19.75c.12-.2.2-.27.21-.35.96-4.22,1.2-8.51,1.25-12.92-1.98-1.83-4.05-3.72-6.11-5.62-3.5-3.22-7.09-6.35-10.85-9.28-1.65-1.28-3.34-2.51-5.23-3.43-2.54-1.23-5.21-1.85-8.03-1.78-.6.02-1.15.09-1.56.62-2.36,3.07-4.73,6.14-7.11,9.23.52.39,1.07.48,1.71.24.42-.16.88-.25,1.32-.35,3.03-.69,6.1-1.01,9.18-1.31,1.09-.11,2.22-.05,3.31.11,3.12.45,6.06,1.52,9,2.61,1.74.65,2.99,1.81,3.9,3.39,1.4,2.43,2.83,4.85,4.21,7.29,1.06,1.87,2.12,3.77,2.66,5.86.4,1.56.97,3.04,1.6,4.51.16.37.34.74.55,1.19h0Zm-12.59,56.98c.16-.36.27-.6.36-.83,1.54-3.91,3.07-7.83,4.61-11.73,3.42-8.63,6.85-17.26,10.27-25.89.81-2.06,1.79-4.06,2.16-6.27.57-3.37,1.15-6.74,1.69-10.12.15-.92.35-1.9.19-2.79-.83-4.67-2.22-9.18-4.05-13.55-.07-.16-.19-.29-.28-.44-.07.01-.14.02-.21.03-.1,1.65-.2,3.3-.29,4.95-.06,1.11-.02,2.23-.17,3.32-.31,2.26-.7,4.5-1.11,6.75-.09.52-.02.94.17,1.41.53,1.29,1.05,2.6,1.54,3.91.78,2.1.86,4.24.37,6.44-.84,3.72-2.28,7.21-3.88,10.63-1.81,3.86-3.83,7.63-5.82,11.41-.89,1.68-1.72,3.35-2.16,5.21-.23.98-.65,1.91-1.04,2.84-.49,1.17-1.16,2.28-1.53,3.48-.72,2.33-1.3,4.71-1.9,7.07-.3,1.19-.51,2.41-.78,3.69.64.17,1.2.31,1.84.48h0Zm-48.55,25.96c.13-.16.21-.22.25-.3,1.14-2.74,2.16-5.52,3.01-8.36.76-2.53,1.6-5.03,3.05-7.28,1.52-2.36,2.98-4.75,4.47-7.13,1-1.6,2.03-3.19,3.01-4.73-1.15-2.66-3.46-4.15-5.42-6.04-.18.3-.35.55-.49.8-2.79,5.05-5.59,10.1-8.37,15.16-.27.5-.4,1.08-.6,1.62-.04.11-.09.28-.18.32-.52.27-.59.78-.62,1.25-.09,1.1-.2,2.22-.11,3.32.22,2.83.23,5.66,0,8.49-.02.25.01.56.16.74.58.73,1.21,1.42,1.84,2.14h0Zm51.47-25.38c.16-.25.26-.38.34-.52,1.14-2.05,2.33-4.08,3.4-6.17.57-1.11,1.53-2.06,1.53-3.42,0-.05.07-.13.11-.13.58-.14.65-.69.85-1.11.58-1.23,1.15-2.45,1.67-3.71,1.88-4.58,3.79-9.15,5.6-13.76,3.09-7.86,4.23-16.03,3.63-24.45-.04-.64-.15-1.27-.23-1.9-.42,1.52-.7,3.01-.89,4.52-.56,4.5-1.82,8.77-3.58,12.95-2.74,6.52-5.3,13.11-7.91,19.68-2.15,5.42-4.25,10.86-6.37,16.29-.15.38-.29.78-.48,1.28.83.16,1.55.3,2.32.45h0Zm6.04-9.69c.69,1.11,1.39,2.21,2.06,3.32,1.05,1.73,2.07,3.48,2.75,5.39.13.38.4.77.11,1.22-.12,0-.29.05-.36,0-2.4-1.98-4.23-4.48-6.12-7.09-1.3,2.34-2.54,4.6-3.83,6.92,2.56.57,5.01.93,7.5.83,3.39-.14,6.77-.33,10.14-.58,3.21-.23,6.42-.56,9.64-.85.42-.04.83-.13,1.43-.24-.29-.16-.4-.23-.51-.29-3.63-1.71-7.27-3.38-10.87-5.14-2.55-1.25-5-2.67-7.05-4.7-.94-.93-2.01-1.72-3.05-2.61-.63,1.32-1.22,2.55-1.82,3.81h0Zm5.18-61.8c.36-1.14.4-2.07-.12-3.09-1.05-2.05-2.37-3.9-3.8-5.67-2.56-3.17-5.44-6.06-8.32-8.93-3.07-3.07-6.75-4.96-10.96-5.84-.62-.13-1.31-.09-1.93.06-.91.21-1.8.55-2.68.9-1.24.5-2.07,1.49-3.03,2.6.36,0,.54,0,.72,0,1,.06,2.02.06,3.01.21,3.13.47,5.9,1.79,8.44,3.64,5.8,4.23,11.05,9.11,16.33,13.96.76.7,1.51,1.4,2.34,2.18h0Zm-15.95,67.38c-6.33,1.48-12.48,1.87-18.43-1.22-.08.58-.16,1.09-.22,1.61-.16,1.45-.29,2.92-.47,4.37-.15,1.23.32,2.02,1.51,2.35,1.69.48,3.38.97,5.1,1.36,1.23.28,2.5.53,3.75.58,2.58.11,4.92-.82,7.2-1.9.71-.34,1.04-.95.97-1.76-.13-1.58.13-3.12.51-4.64.04-.18.04-.38.08-.74h0Zm-51.62-25.74s-.07.01-.11.02c-.02.32-.02.65-.04.97-.09,1.27-.11,2.54-.55,3.76-.98,2.76-1.31,5.65-1.5,8.54-.2,3.09-.18,6.19.09,9.29.27,3.08.47,6.17.65,9.26.15,2.6.29,5.2.33,7.81.02,2.31-.12,4.63-.17,6.94,0,.47.07.94.12,1.56,1.34-.72,2.53-1.36,3.71-2.01-.04-.83-.1-1.58-.12-2.32-.04-1.72-.21-3.46.62-5.08.11-.22.05-.57,0-.84-.36-1.72-.75-3.44-1.12-5.16-.51-2.32-1.05-4.64-1.03-7.04.02-3.85,0-7.71,0-11.56,0-.29,0-.59.02-.88.05-1.76.25-3.52.13-5.27-.15-2.4-.53-4.79-.82-7.18-.03-.27-.14-.54-.21-.81h0Zm82.5-65.49c-.41.35-.16.6-.04.85.64,1.29,1.31,2.55,1.92,3.85,1.05,2.21,2.08,4.42,3.1,6.64.2.44.42.9.51,1.37.45,2.55,1.45,4.94,2.25,7.38.78,2.38,1.6,4.75,1.7,7.3.14,3.58.27,7.16.38,10.75.06,1.89.04,3.79.09,5.68.03,1.19.11,2.38.17,3.76,1.03-.79,1.95-1.45,2.82-2.18.65-.54,1.26-1.14,1.81-1.77.57-.66.65-1.41.32-2.27-.48-1.25-.91-2.52-1.23-3.81-1.4-5.86-2.8-11.72-4.11-17.6-.58-2.57-.97-5.18-1.4-7.79-.63-3.77-2.37-6.94-5.03-9.62-.96-.97-1.98-1.89-3.25-2.52h0Zm10.82,78.28c-.89,5.25-1.76,10.39-2.65,15.68,3.43-.56,6.61-1.53,9.83-2.46-2.09-4.6-4.13-9.12-7.18-13.22h0Zm-29.12-72.7c-.25-.42-.39-.7-.57-.96-1.52-2.21-3.18-4.29-5.07-6.2-.41-.41-.8-.87-1.07-1.38-.66-1.27-1.25-2.58-1.84-3.88-.19-.41-.37-.85-.45-1.29-.33-1.78-.82-3.59.65-5.19-.16.01-.28.04-.36.12-1.38,1.22-2.51,2.65-3.38,4.26-.49.91-.62,1.91-.38,2.94.49,2.12,1.4,4.01,3.03,5.46.85.76,1.74,1.49,2.7,2.09,2.15,1.35,4.35,2.61,6.73,4.02Zm-54.66,68.73c-.07,0-.15,0-.22,0-.41,1.5-.84,3-1.24,4.5-.31,1.17-.4,2.36-.34,3.58.15,2.76.23,5.53.36,8.3.05,1.14.15,2.28.24,3.54.17-.18.25-.24.29-.31,1.34-2.38,2.67-4.77,4.03-7.15.21-.37.1-.66,0-1.01-.91-3.06-1.8-6.12-2.67-9.18-.21-.74-.3-1.5-.44-2.26h0Zm16.35,6.59c.06-.36.1-.48.1-.6,0-1.79-.04-3.59-.02-5.38.01-1.56.05-3.13.13-4.69.04-.92-.02-1.78-.38-2.67-1.1-2.68-2.12-5.39-3.18-8.09-.11-.29-.25-.56-.37-.85-.14.18-.16.33-.16.47.07,2.96.11,5.93.22,8.89.07,1.8.39,3.55,1.02,5.25.46,1.25.86,2.53,1.3,3.79.42,1.22.85,2.43,1.36,3.86h0Zm6.07,14.14s.09-.05.1-.1c.19-1.71.39-3.41.56-5.12.02-.19-.11-.44-.24-.6-1.14-1.41-2.28-2.83-3.47-4.2-.62-.71-1.34-1.37-2.21-1.84-.18,1.88-.36,3.68-.5,5.48-.06.78.2,1.49.8,2.02,1.65,1.47,3.31,2.91,4.97,4.37h0Zm-17.22,5.39s-.09-.04-.13-.07c-.59.93-1.18,1.85-1.76,2.79-1.29,2.07-2.61,4.13-3.35,6.49-.58,1.86-1.14,3.74-1.8,5.57-.71,2.01-1.52,3.99-2.32,6.06.08.07.27.23.48.41,1.77-2.62,3.62-5.12,4.61-8.1,1.43-4.26,2.81-8.53,4.21-12.79.04-.11.03-.25.04-.37h0Zm6.72-48.67c0,.96-.09,1.82.02,2.65s.37,1.65.67,2.44c1.23,3.26,2.49,6.51,3.74,9.76.09.22.21.44.36.74.32-1.45.58-2.79.91-4.12.15-.58.1-1.09-.12-1.61-1.02-2.39-2.05-4.79-3.08-7.18-.08-.18-.18-.36-.31-.49-.7-.72-1.42-1.42-2.18-2.18h0Zm-20.08,72.11c.92-3.89,1.32-7.62,1.14-11.59-1.04.56-1.89,1.11-2.81,1.49-.87.35-1.21.96-1.42,1.8-.2.83-.22,1.56.22,2.34.55.99.99,2.05,1.48,3.08.43.9.87,1.8,1.39,2.87h0Zm83.39-108.75c1.18-.25,1.74-.86,1.87-1.89.13-1.07-.02-2.09-.45-3.06-1.11-2.5-2.26-4.98-3.41-7.46-.25-.55-.57-1.07-.88-1.67-.76,1.35-.74,1.49-.36,2.74.76,2.49,1.48,4.99,2.2,7.49.37,1.27.69,2.56,1.03,3.84h0Zm-79.29,107.14c-.88-1-1.71-1.95-2.56-2.92-.12.17-.18.22-.19.27-.33,2.32-.76,4.61-1.39,6.86-.11.37-.02.79-.02,1.19.07.02.14.04.21.07,1.3-1.8,2.6-3.6,3.95-5.47h0Zm55.69-34.41c1.2,2.1,4.31,5.88,5.44,6.64-.44-1.61-3.15-6.49-4.57-8.2-.29.53-.57,1.03-.86,1.56h0Zm104.73-8.67c-2.89.74-15.04,5.45-15.55,5.9,1.28-.18,2.52-.27,3.72-.81,2.49-1.14,5.03-2.16,7.55-3.24,1.43-.61,2.86-1.24,4.3-1.85h0Z"/>
  <path class="cls-1" d="m146.81,296.85c1.34-1.74,2.91-3.05,4.56-4.27,1.35-1,2.36-2.24,3.11-3.71.63-1.25,1.28-2.5,1.76-3.81.9-2.44,1.69-4.92,2.53-7.39.1-.29.09-.65.58-.86,0,.36.06.63,0,.87-.92,3.09-1.88,6.17-3.22,9.11-.71,1.58-1.45,3.14-2.57,4.48-.39.47-.83.92-1.31,1.3-1.64,1.29-3.3,2.56-4.65,4.17-.17.2-.18.19-.78.1h0Z"/>
  <path class="cls-1" d="m153.42,131.64c-.66,1.22-2.98,2-4.54,1.53-.2-.39-.01-.69.25-.96,1.03-1.01,1.93-2.11,2.54-3.43.04-.09.2-.13.45-.28.01,1.05-.57,1.68-1.04,2.33-.47.65-1.04,1.23-1.74,2.04.54-.05.89-.01,1.19-.13.75-.3,1.47-.67,2.21-1.01.22-.1.41-.38.68-.09h0Z"/>
</svg>