<?xml version="1.0" encoding="UTF-8"?>
<svg id="Layer_1" data-name="Layer 1" xmlns="http://www.w3.org/2000/svg" viewBox="0 0 501.61 542.76">
  <defs>
    <style>
      .cls-1 {
        stroke-width: 0px;
      }
    </style>
  </defs>
  <path class="cls-1" d="m.41,542.76c-.13-5.1-.25-10.2-.41-15.3-.07-2.16.54-4.15,1.6-5.94,1.18-1.98,2.45-3.97,3.99-5.67,2.76-3.04,3.24-6.34,2.19-10.21-.96-3.53-1.53-7.17-2.23-10.77-.69-3.55.05-6.97.93-10.39.31-1.23.62-2.5.64-3.76.17-8.39.41-16.78.32-25.17-.07-6.06-.59-12.13-.98-18.19-.42-6.45-1.09-12.89-1.34-19.35-.29-7.42-.42-14.86-.3-22.28.1-5.82.94-11.57,2.5-17.25,1.24-4.52,2.14-9.2,2.56-13.87.63-7.05,2.13-13.83,4.36-20.54,2.39-7.19,4.14-14.58,6.27-21.85,2.2-7.5,4.48-14.99,6.83-22.45,1.36-4.31,3.5-8.2,6.56-11.59,4.35-4.82,8.12-10.09,11.5-15.62,3.41-5.58,7.74-10.37,12.4-14.88,4.99-4.84,10.07-9.59,15.11-14.39,5.71-5.44,11.43-10.88,16.16-17.24,2.53-3.4,5.03-6.82,7.45-10.29,2.4-3.45,5.5-6.22,8.63-8.95,2.4-2.11,5.41-3.05,8.42-3.89,1.39-.39,2.36-1.06,3.05-2.4,1.36-2.65,3.36-4.79,5.52-6.87,4.85-4.65,9.49-9.5,14.26-14.23,3.23-3.21,6.52-6.37,9.83-9.49.68-.65,1.54-1.16,2.39-1.57,4.45-2.14,7.99-5.38,10.59-9.48,2.9-4.58,5.46-9.38,8.14-14.1.31-.54.47-1.19.58-1.81.15-.87-.11-1.61-1.07-1.85-2.61-.64-3.07-2.57-2.8-4.82.61-4.99,1.15-9.99,2-14.94,2.8-16.24,6.88-32.16,12.37-47.7,4.03-11.4,9.22-22.29,15.83-32.44,1.69-2.6,3.67-5.04,5.75-7.35,4.86-5.41,9.96-10.59,15.79-15.01,2.6-1.97,5.17-3.95,7.2-6.62,2.11-2.77,5.39-3.41,8.62-3.43,3.75-.02,7.05-1.17,10.2-3,1.1-.64,2.24-1.24,3.32-1.92,4.96-3.14,10.36-3.79,16.11-3.2,2.83.29,5.78.15,8.59-.32,7.18-1.21,13.77.52,20.17,3.51.51.24,1.02.49,1.55.63,4.35,1.19,8.29,3.33,12.27,5.36,2.61,1.33,4.76,3.19,6.32,5.71.41.67.92,1.31,1.49,1.85,3.87,3.62,6.92,7.89,9.83,12.28,1.98,2.99,4.12,5.87,6.03,8.9.83,1.32,1.32,2.87,1.87,4.34,1.05,2.81,1.77,5.76,3.95,8.01.32,2.63,2.02,4.64,3.11,6.92,1.32,2.76,2.7,5.5,4.21,8.15,1.92,3.36,2.82,7.01,3.61,10.74.66,3.15.91,6.3.96,9.51.05,3.47-.48,6.85-1.33,10.17-1.21,4.7-2.61,9.36-3.93,14.03-.53,1.87-1.44,3.52-2.76,4.97-1.56,1.72-3.04,3.5-4.61,5.2-.5.54-1.19.92-1.86,1.42-1.44-1.82-.76-3.38-.19-4.94.55-1.47,1.11-2.94,1.51-4.5-2.1,1.27-3.76,2.72-4.71,5.11-2.67,6.68-5.7,13.22-10.31,18.81-1.95,2.36-4.44,4.3-6.79,6.3-3.1,2.63-5.32,5.72-5.69,9.89-.06.67,0,1.35,0,2.13,1.08,0,1.86.04,2.64,0,1.43-.09,1.9.15,1.82,1.45-.13,2.11-.5,4.17-1.31,6.18-1.38,3.47-2.53,7.04-3.75,10.57-.43,1.25-.68,2.56-1.21,3.76-1.06,2.4-2.26,4.73-3.41,7.1-.91,1.87-2.39,3-4.45,3.22-1.56.17-2.68.95-3.61,2.12-2.13,2.69-4.22,5.42-6.37,8.09-1.86,2.3-3.87,4.48-5.65,6.83-2.63,3.48-6.45,4.88-10.37,6.02-1.48.43-3.16.17-4.73.31-4.67.43-9.32,1.13-14,1.3-3.15.11-6.34-.37-9.39-1.52-3.2-1.2-6.5-2.15-9.75-3.19-1.9-.61-3.82-1.16-5.71-1.8-.92-.31-1.71-.31-2.38.48,0-.36,0-.73,0-1.21-.55.19-.98.34-1.41.49-.61-1.38-1.74-2.57-1.64-4.24,0-.06-.4-.15-.61-.22.9-1.11.89-2.33.53-3.71-2.27.95-3.51,2.74-4.95,4.75.92.36,1.67.66,2.42.95.88.87,1.74,1.75,2.64,2.6.6.57,1.14.21,1.66-.19-.08.42-.17.84-.27,1.34.45-.04.81-.07,1.17-.1-.57.6-.11,1.03.28,1.4,2.92,2.77,5.28,5.97,7.24,9.47,2.86,5.11,4.88,10.45,5.73,16.33.94,6.53,2.47,12.98,3.84,19.44,1.5,7.08,3.1,14.15,4.68,21.22.85,3.81,1.75,7.61,2.63,11.41.74,3.18,1.42,6.37,2.27,9.52.71,2.61,1.64,5.16,2.46,7.74.31.99.61,1.98.86,2.98.47,1.86.02,3.54-1.31,4.85-1.99,1.96-4.04,3.86-6.17,5.67-1.7,1.44-3.54,2.73-5.37,4.03-.85.6-1.34,1.24-1.26,2.36.1,1.43.02,2.87.02,4.71.92-.36,1.61-.63,2.3-.91,13.14-5.4,26.26-10.84,39.42-16.2,8.35-3.4,16.73-6.74,25.13-10.02,7.17-2.8,14.73-4.13,22.21-5.78,9.35-2.06,18.71-4.09,28.04-6.24,4.09-.94,8.01-.96,11.96.65,3.54,1.44,7.24,2.52,10.81,3.89,1.39.53,2.48.49,3.79-.29,9.39-5.62,18.76-11.27,28.28-16.69,11.66-6.63,23.44-13.04,35.18-19.55.49-.27,1.01-.48,1.5-.75,2.13-1.17,4.83-.43,6.11,2.17,10.21,20.61,20.58,41.13,30.91,61.68,3.8,7.56,7.57,15.15,11.46,22.66,1.2,2.33,2.58,4.61,4.2,6.67,2.66,3.39,2.66,6.15-.18,9.9-3.53,4.67-7.83,8.42-13.14,10.86-4.05,1.86-8.24,3.43-12.35,5.18-9.91,4.21-19.81,8.44-29.71,12.69-15.62,6.71-31.22,13.44-46.84,20.16-3.36,1.45-6.74,2.84-10.29,4.34.5.94.89,1.69,1.29,2.44,1.11,2.07.98,2.78-.77,4.32-5.69,5.03-11.49,9.93-18.23,13.54-1.58.84-2.35,1.98-2.51,3.73-.13,1.42-.4,2.85-.76,4.23-.81,3.09-2.69,5.38-5.48,6.93-.62.34-1.21.74-1.69,1.03.16,1.82.4,3.48.43,5.13.05,3.61-1.2,6.52-4.56,8.33-1.67.9-3.23,2.03-4.97,3.14.4.67.75,1.27,1.11,1.86,2.29,3.66,1.55,7.42-2.1,9.72-3.41,2.15-7.22,3.37-11.16,4.14-10.22,1.99-20.33,1.37-30.37-1.28-4.55-1.2-9.13-2.31-13.68-3.52-1.84-.49-3.63-1.17-5.44-1.77-.3-.1-.59-.28-.9-.32-4.96-.75-9.91-1.49-14.87-2.22-.22-.03-.46.08-.84.15-.03.52-.1,1.06-.07,1.58.59,10.13,2.23,20.14,3.55,30.19.62,4.75,1.18,9.51,1.57,14.28.42,5.14-.78,10.15-1.57,15.19-.53,3.38-1.14,6.75-1.71,10.13h-1.44c.4-2.68.67-5.38,1.22-8.03,1.9-9.21,2.57-18.41,1.14-27.81-1.59-10.48-2.64-21.03-3.92-31.56-.17-1.4-.36-2.8-.58-4.51-1.63.07-3.12.07-4.6.22-3.49.34-6.96.8-10.46,1.11-5.64.49-11.32.66-16.92,1.4-8.22,1.1-16.38,2.59-24.57,3.91-10.47,1.69-20.93,3.43-31.41,5.06-6.3.98-12.61,1.93-18.94,2.69-6.57.79-13.16,1.33-19.75,1.99-1.81.18-3.61.4-5.53.62.09.63.13,1.09.22,1.55,1.14,6.19,2.42,12.37,3.38,18.59.88,5.67,1.27,11.41,2.13,17.08.8,5.28,1.7,10.57,4.15,15.42.35.69.44,1.52.66,2.28h-1.44c-.56-1.56-1.13-3.11-1.68-4.67-.53-1.49-1.03-2.99-1.54-4.49-.47.63-.56,1.16-.66,1.7-.46,2.49-.93,4.98-1.4,7.46h-.96c.02-.4,0-.8.05-1.2.56-3.71,1.19-7.4,1.68-11.12.17-1.32.12-2.71-.03-4.04-.33-2.85-.82-5.68-1.21-8.53-.97-7.03-1.85-14.07-2.91-21.08-.45-2.95-1.28-5.85-1.96-8.84-1.26.12-2.2.21-3.19.3-.23.97-.46,1.81-.64,2.66-1.51,7.27-3.03,14.53-4.5,21.8-2.02,10.01-4,20.02-6,30.04h-.96c.03-.87-.05-1.77.12-2.61,3.26-16.09,6.56-32.17,9.84-48.26.22-1.06.39-2.13.59-3.23-1.75.01-1.83,0-2.12,1.28-1.41,6.22-2.92,12.42-4.09,18.68-.67,3.59-.74,7.28-1.13,10.93-.56,5.21-2.21,10.1-4.34,14.85-1.2,2.68-2.47,5.36-2.71,8.36h-1.44c.26-1.16.39-2.37.8-3.48.99-2.69,2.05-5.36,3.19-7.99,1.88-4.37,2.99-8.89,3.27-13.64.14-2.3.26-4.63.7-6.88,1.34-6.8,2.85-13.56,4.27-20.34.11-.5.11-1.03.18-1.72-3.21.17-6.22.29-9.23.53-.56.05-1.18.5-1.59.95-3.81,4.18-7.58,8.4-11.37,12.6-.9,1-1.22,2.15-1.17,3.51.08,2.46.08,4.94-.05,7.4-.1,1.9-1.01,3.42-2.53,4.69-1.46,1.22-2.82,2.61-3.99,4.11-4.18,5.34-8.28,10.74-12.37,16.14-.99,1.31-1.84,2.74-2.75,4.12h-1.44c.47-.89.82-1.87,1.42-2.67,4.02-5.37,8.05-10.74,12.18-16.02,1.77-2.26,3.62-4.5,5.75-6.4,1.71-1.53,2.51-3.26,2.61-5.4.09-1.91.12-3.84-.05-5.75-.18-1.99.42-3.59,1.71-5.04,2.28-2.56,4.54-5.15,6.81-7.72,1.17-1.33,2.36-2.65,3.82-4.28-1.29,0-2.08,0-2.86,0-5.27,0-10.57.3-15.81-.11-7.59-.59-13.6-4.12-16.84-11.27-1.23-2.72-2.15-5.72-2.51-8.68-.74-6.09-1.16-12.23-1.38-18.36-.08-2.18-.79-3.49-2.43-4.75-4.94-3.8-9.65-7.87-13.77-12.59-.55-.63-1.14-1.24-1.82-1.98-1.51,2.37-2.8,4.58-4.28,6.66-2.05,2.89-3.39,6.03-4.4,9.44-2.68,9.02-5.63,17.97-8.51,26.93-2.43,7.56-5.51,14.81-10.14,21.33-5.04,7.1-9.92,14.32-15.11,21.31-2.61,3.51-5.71,6.66-8.63,9.93-.55.61-1.27,1.07-2.07,1.72-.16-1.44-.12-1.41.5-2.08,2.5-2.69,4.96-5.41,7.48-8.08.67-.71.84-1.44.7-2.39-.33-2.24-.27-4.47.49-6.63.32-.91.14-1.68-.26-2.51-2.11-4.39-4.18-8.8-6.28-13.19-.17-.35-.49-.63-.75-.94-.16.07-.33.13-.49.2.87,3.95,1.73,7.91,2.62,11.85.96,4.27.63,8.1-2.57,11.59-1.9,2.08-3.18,4.75-4.59,7.23-.45.79-.56,1.84-.57,2.77-.02,1.49.51,2.17,1.96,2.2,3.98.11,7.25,2.01,10.26,4.22,4.3,3.15,9,5.44,13.87,7.5,1.23.52,2.37,1.28,3.55,1.92h-2.88c-.63-.32-1.25-.67-1.89-.96-4.59-2.04-9.15-4.1-13.16-7.19-1.01-.77-2.11-1.44-3.23-2.03-2.47-1.28-4.98-2.47-8.1-2.24v12.42H.41Zm367.07-240c1.24.42,2.13.73,3.02,1.02,1.97.63,3.98,1.18,5.92,1.9,1.8.67,3.52,1.57,4.66,3.22,1.1,1.59,1.02,2.87-.57,3.93-1.15.77-2.57,1.25-3.94,1.53-3.71.76-7.48.6-11.2.1-4.42-.59-8.83-1.28-13.2-2.14-1.26-.25-2.27-.24-3.42.29-3.69,1.72-7.4,3.39-11.13,5.03-9.36,4.11-18.54,8.58-27.44,13.64-3.67,2.09-4.59,4.01-4.03,8.05,1.04,7.5,2.13,15,3.16,22.51,1.99,14.54,3.95,29.08,5.93,43.62.23,1.7.52,3.4.79,5.22,3.47-.53,6.67-.2,9.91.4,9.56,1.76,19.16,2.35,28.8.37,2.65-.54,5.35-.96,8.04-1.18,2.45-.21,3.13.58,3.18,3.01,0,.39,0,.78,0,1.39,2.85-1.07,5.52-2.05,8.18-3.07,13.5-5.14,26.99-10.29,40.49-15.45,15.5-5.92,31.04-11.77,46.49-17.81,7.36-2.87,14.53-6.2,21.85-9.17,3.89-1.58,7.57-3.41,10.56-6.41,1.46-1.47,2.91-2.96,4.3-4.5,2.33-2.57,2.45-3.97.77-7.12-1.73-3.24-3.53-6.44-5.19-9.72-7.48-14.83-14.92-29.68-22.39-44.52-6.35-12.63-12.7-25.26-19.07-37.88-1.47-2.92-2.09-3.19-5.06-1.8-3.32,1.56-6.66,3.12-9.83,4.95-21.23,12.25-42.43,24.58-63.62,36.89-1.92,1.11-3.77,2.32-5.99,3.69Zm-35.65-184.55c.13.09.27.18.4.27.25-.18.52-.33.74-.55.45-.45.89-.91,1.3-1.41,2.73-3.34,4.37-7.19,5.61-11.29,1.96-6.51,3.99-12.98,3.63-19.91-.37-7.08-1.57-13.92-5.02-20.26-3.55-6.52-6.92-13.14-10.26-19.76-1.44-2.84-2.32-6-3.98-8.69-5.37-8.72-11.1-17.21-19.45-23.47-1.91-1.43-3.74-3.12-5.87-4.08-4.58-2.06-9.3-3.83-14.02-5.53-4.23-1.52-8.54-2.36-13.15-1.94-4.75.43-9.56.34-14.34.36-3.18.01-6.19.62-9.04,2-1.65.8-3.28,1.66-4.83,2.62-3.74,2.32-7.68,3.75-12.17,3.78-3.32.02-6.13,1.44-8.35,4.05-1.28,1.51-2.68,3.01-4.28,4.16-4.12,2.93-7.85,6.28-11.46,9.8-4.65,4.53-8.94,9.33-12.49,14.8-6.79,10.45-11.78,21.75-15.88,33.46-6.03,17.23-9.75,35.03-12.76,52.99-.44,2.64-.26,5.39-.34,8.08-.04,1.29.81,1.9,1.91,2.08.74.12,1.59.06,2.29-.2,2.16-.83,4.25-1.85,6.4-2.7,2.81-1.11,5.46-1.1,7.64,1.41.41.48.95.84,1.45,1.25.87.71,1.88.93,2.93.59,1.74-.56,3.53-1.06,5.17-1.85,3.21-1.55,4.07-3.6,3.34-7.06-.21-1.01-.39-2.05-.37-3.07.03-1.74.85-2.44,2.62-2.28.86.08,1.72.35,2.54.64,1.28.46,2.51,1.03,3.77,1.51,2.12.81,4.26,1.59,6.79,2.53-.44-1.25-.71-2.05-1.01-2.85-1.08-2.9-1.41-5.92-1.07-8.96.68-5.99,2.3-11.72,4.83-17.21,1.6-3.47,4.25-5.5,7.86-6.4,4.21-1.05,8.39-.64,12.57.28,3.12.68,5.05,2.63,6.17,5.47.49,1.25.7,2.61,1.04,3.92.22.85.33,1.74.69,2.52,3.1,6.74,6.23,13.48,9.4,20.19.74,1.57,1.65,3.07,2.43,4.5,3.22.11,3.36,0,3.36-2.94,0-2.42.8-4.51,2.31-6.39,2.48-3.09,5.73-4.78,9.55-5.45,3.93-.69,7.87-1.31,11.8-1.93,8.84-1.41,17-4.37,23.75-10.49,2.93-2.66,4.9-5.87,5.38-9.86.24-1.98.28-3.97.51-5.95.1-.88.46-1.73.75-2.79.68.36,1.15.45,1.32.72,1.65,2.72,3.63,5.3,4.14,8.55.39,2.52.57,5.07.9,7.6.09.64.41,1.25.8,2.36.82-1.12,1.44-1.75,1.79-2.5.69-1.44,1.16-2.97,1.84-4.41.61-1.28,1.18-2.66,2.11-3.68,1.16-1.27,2.72-.71,2.94,1.01.16,1.24.07,2.56-.18,3.79-1.15,5.64-3.55,10.73-6.98,15.36-.4.54-.71,1.13-1.28,2.04,2.82.22,4.83-.77,6.53-2.13,1.98-1.58,3.72-3.48,5.48-5.31.88-.92,1.54-2.04,2.39-2.99.21-.24.75-.18,1.68-.38-1.52,4.29-2.89,8.14-4.25,11.98Zm2.65,351.76c.46-.2.77-.31,1.06-.46,4.77-2.41,9.53-4.83,14.31-7.23,1.28-.64,2.64-1.12,3.87-1.83,3.56-2.07,5.24-6.37,4.07-10.27-.13-.42-.43-.78-.67-1.19-.8.33-1.46.6-2.12.87-4.66,1.88-9.32,3.76-13.99,5.63-.74.3-1.52.82-2.74-.09.88-.45,1.45-.79,2.05-1.03,4.29-1.74,8.58-3.48,12.89-5.17,3.22-1.27,6.18-2.97,8.82-5.21,2.86-2.43,3.26-5.73,3.46-9.25-9.72,1.76-19.95,2.68-22.07,1.97.4-.95,1.23-.83,1.98-.89,4.05-.36,8.11-.65,12.14-1.15,2.83-.35,5.79-.43,8.34-1.91,7.2-4.18,14.03-8.89,20.2-14.51,1.91-1.74,1.94-2.58.51-4.71-.65-.96-1.43-1.46-2.59-1.34-1.03.1-2.1.05-3.09.32-5.61,1.53-11.25,3.01-16.8,4.76-7.49,2.36-15.03,4.38-22.97,4.03-4.62-.2-9.23-.58-13.83-1.04-2.93-.29-5.83-.88-8.75-1.31-.75-.11-1.41-.22-1.3-1.33.58,0,1.14-.09,1.66.01,6.35,1.27,12.78,1.88,19.24,2.26,8.41.49,16.57-.59,24.38-3.87,1.9-.8,2.44-1.99,1.7-4.42-1.59.12-3.26.18-4.9.4-4.19.56-8.35,1.44-12.55,1.76-7.6.59-15.15-.26-22.63-1.65-2.95-.55-5.87-.52-8.81.07-4.15.83-8.29,1.65-12.44,2.47-6.35,1.25-12.63,2.75-18.75,4.87-8.36,2.9-16.71,5.86-25.16,8.51-6.32,1.98-12.76,3.54-19.17,5.22-2.38.62-4.79,1.23-7.23,1.53-6.8.86-13.61,1.63-20.43,2.32-5.79.59-11.59,1.09-17.4,1.5-5.97.42-11.95.78-17.93,1.01-8.15.31-16.27.28-24.35-1.25-3.15-.59-6.24-2.01-9.59-1.33-.13.03-.34-.05-.42-.16-1.1-1.36-2.76-.98-4.43-1.55,0,1.46-.08,2.72.02,3.98.23,2.94-1.13,4.87-3.69,6.11-7.91,3.81-16.11,5.63-24.84,3.49-5.11-1.25-10.19-2.62-15.28-3.95-1.55-.41-2.75-1.37-3.5-2.73-.68-1.24-1.08-2.64-1.66-3.95-.41-.93-.73-2.01-1.42-2.67-2.84-2.69-5.8-5.25-8.74-7.83-.25-.22-.61-.3-1.22-.59,0,1.6.02,2.87,0,4.13-.22,11.03-.22,22.06.56,33.08.28,3.99,1.05,7.9,2.47,11.67,1.92,5.07,5.38,8.54,10.41,10.6,4.42,1.81,9.05,1.97,13.65,1.88,6.78-.13,13.55-.54,20.31-1.01,6.92-.49,13.83-1.15,20.73-1.82,6.74-.66,13.5-1.29,20.21-2.18,7.98-1.05,15.94-2.31,23.9-3.58,12.29-1.97,24.56-4.03,36.84-6.06,7.16-1.18,14.34-2.24,21.6-2.59,3.9-.19,7.79-.56,11.68-.93,2.54-.24,5.08-.96,7.59-.87,6.22.23,12.41.91,18.45,2.54,6.08,1.64,12.17,3.28,18.28,4.84,6.89,1.76,13.83,3.35,21.01,3.08,2.31-.09,4.62-.27,6.92-.52,4.87-.53,9.59-1.71,14.13-3.54,4.36-1.75,5.43-6.1,2.52-9.71-1.2-1.49-1.41-1.58-3.22-.65-2.91,1.5-5.77,3.09-8.67,4.61-.64.34-1.25,1.16-2.63-.16Zm-179.69-91.89c.13.05.26.09.38.14.37-.6.76-1.18,1.09-1.79,6.42-11.96,12.83-23.93,17.65-36.66,2.06-5.45,4.19-10.86,5.1-16.68.24-1.54.01-2.82-.65-4.13-3.06-5.98-6.4-11.8-10.54-17.11-2.96-3.79-6.08-7.52-10.25-9.98-7.77-4.59-15.72-8.87-24.18-12.09-3.69-1.4-7.5-2.22-11.49-1.73-6.09.75-12.2,1.43-18.28,2.29-7.97,1.13-15.95,2.26-23.78,4.22-3.72.93-6.46,2.92-8.55,6.05-2.76,4.14-4.91,8.58-6.64,13.24-1.35,3.64-2.02,7.38-1.84,11.26.12,2.63.44,5.26.36,7.89-.12,4,2.52,6.18,5.18,8.45-1.38-3.52-2.75-7.03-4.18-10.68,1.49.14,1.43.16,4.19,6.96,1.07,2.64,2.31,5.23,3.46,7.83,1.18,2.63,2.25,5.36,3.39,8.04,1.1,2.59,2.21,5.17,3.31,7.76.42-.71.49-1.33.41-1.92-.34-2.61-.7-5.22-1.1-7.82-.68-4.43-1.47-8.87,0-13.27.59-1.76.53-3.33,0-5.09-1.48-4.97-1.8-9.99-.52-15.12.57-2.28.6-4.75.54-7.12-.09-3.42-.51-6.83-.74-10.25-.02-.37.26-.75.41-1.13.17,0,.34,0,.52.01.17.98.39,1.95.5,2.94.13,1.19.15,2.39.25,3.58.39,4.7.52,9.38-.57,14.04-1.03,4.41-.36,8.7,1.05,13.24,2.2-4.24,4.12-8.18,6.27-12,2.12-3.77,4.24-7.57,7.16-11.28.22,1.7.23,1.71-.19,2.39-.97,1.56-1.97,3.1-2.93,4.67-3.79,6.21-7.29,12.57-9.86,19.4-1.11,2.95-1.79,5.98-1.42,9.14.27,2.37.67,4.74,1.08,7.09,1.03,5.96,1.03,11.82-.44,17.79-1.16,4.7-1.88,9.59-2.05,14.42-.31,9.26-.08,18.54-.1,27.81,0,1.03.25,1.76,1.13,2.45,5.13,4.01,9.55,8.7,13.24,14.08.16.23.44.37.76.62,1.5-11.64,2.92-23.11,4.49-34.56.91-6.64,1.86-13.28,3.12-19.85,3.29-17.16,7.32-34.18,9.47-51.54.58-4.67,1.08-9.32.44-14.07-.37-2.74-.11-5.58-.06-8.37.02-.81.07-1.75,1.3-2.08.05.58.12,1.03.13,1.49.03,3.43.02,6.87.08,10.3.03,1.51.34,3.03.24,4.53-.22,3.42-.41,6.87-.99,10.24-2.04,11.79-4.23,23.55-6.39,35.32-1.81,9.89-3.83,19.74-5.41,29.66-1.48,9.29-2.52,18.65-3.71,27.98-.53,4.18-.95,8.37-1.41,12.43.35.3.52.48.71.61.33.23.66.45,1.01.64,7.57,3.9,15.7,5.2,24.1,5.12,2.54-.02,5.09-.37,7.61-.75,3.93-.59,7.84-1.34,11.79-2.03.55-2.25,1.06-4.25,1.54-6.26,1.68-7,3.56-13.92,7.12-20.26.7-1.24,1.16-2.64,1.56-4.01,1.8-6.21,3.55-12.43,5.31-18.65,1.13-3.99,2.45-7.94,3.28-12,1.35-6.58,1.72-13.27,2.07-19.98.28-5.21-.48-10.14-2.19-15-1.64-4.67-3.26-9.34-4.87-14.02-.27-.77-.46-1.57-.7-2.42,1.56-.26,1.56.8,1.78,1.45,2.1,6.11,4.2,12.23,6.19,18.38.56,1.73,1,3.57,1.03,5.37.05,4.38.01,8.78-.32,13.15-.58,7.64-1.49,15.25-4.14,22.52-.56,1.53-.89,3.14-1.33,4.72Zm14.82,23.95c1.6,1.4,3.13,2.79,4.72,4.1,3.76,3.09,7.06,6.75,11.35,9.16,4.32,2.42,8.63,4.87,13.08,7.02,8.33,4.02,16.76,7.85,25.17,11.73.4.18.91.27,1.34.22,2.28-.3,4.56-.66,6.85-1,.16-.48.34-.85.4-1.23,1.91-11,3.82-22.01,5.71-33.01.68-3.95,1.15-7.89-.56-11.74-.29-.65-.39-1.38-.55-2.08-1.01-4.45-1.89-8.91-1.55-13.51.42-5.65,1.1-11.29,1.19-16.94.21-13.19.27-26.38.14-39.57-.09-9.58-.56-19.15-.87-28.73-.2-6.23-.4-12.46-.67-18.68-.07-1.5-.24-3.05-.68-4.48-3-9.74-6.07-19.46-9.2-29.43-.2,2.25-.39,4.3-.57,6.34-.31,3.42-.68,6.86-1.99,10.06-.62,1.51-1.51,3.01-2.6,4.22-2.68,2.96-6.3,3.91-10.14,4.18-7.16.5-13.82-1.15-19.88-4.96-5.81-3.66-11.52-7.47-17.28-11.21-.78-.51-1.45-1.26-2.22-1.4,2.5,4.16,5.31,8.17,7.45,12.52,4.86,9.83,8.25,20.23,10.99,30.84,2.02,7.83,3.47,15.76,3.91,23.81.33,6.04.17,12.14-.27,18.18-.43,5.87-1.29,11.73-2.3,17.54-1.91,10.91-5.84,21.22-9.99,31.43-3.57,8.8-7.23,17.56-10.97,26.61Zm28.68-274.95c-.85,1.71-.23,3.03.01,4.32.64,3.45-.19,5.75-3.22,7.52-1.63.95-3.49,1.54-5.27,2.23-2.53.98-4.69.38-6.47-1.65-.26-.3-.55-.58-.85-.84-1.23-1.06-2.58-1.47-4.21-.98-4.46,1.34-8.09,3.23-10.02,8.15-2.39,6.07-5.65,11.83-10.09,16.75-2.78,3.08-5.78,5.96-8.59,9.01-.78.85-1.66,1.93-1.79,2.99-.48,4.01-.13,7.97,1.68,11.69,1.15,2.36,2.24,4.76,3.46,7.09.77,1.47,1.61,2.94,2.64,4.23,1.24,1.55,2.76,2.88,4.08,4.37,4.33,4.92,8.4,10.03,11.59,15.8.52.94,1.33,1.8,2.19,2.45,4.76,3.64,9.56,7.22,14.37,10.78,3.35,2.47,6.88,4.65,10.75,6.22,5.62,2.28,11.54,3.03,17.54,3.31.6.03,1.2-.09,1.99-.16-2.66-9.01-4.29-18.11-7.79-26.68-.38,3,1.1,5.64,1.75,8.41-1.11.39-1.32-.31-1.56-.87-1.71-4.08-2.48-8.23-1.05-12.58,1.68-5.1,4.38-9.53,8.57-12.95-.03-.31-.02-.55-.09-.77-2.46-7.67-4.86-15.36-7.46-22.99-.73-2.15-1.32-4.27-1.27-6.52.1-4.62.22-9.25.53-13.86.08-1.22-.13-2.7.9-3.73,1.11.24.76.91.69,1.53-.68,5.4-.96,10.82-.75,16.25.06,1.58.3,3.2.78,4.7,2.43,7.68,4.96,15.33,7.47,22.98.17.51.44.98.88,1.97.39-.96.75-1.47.8-2.01.51-5.48.96-10.96,1.46-16.44.1-1.1.26-2.22.52-3.29.35-1.41,1.31-2.12,2.81-2.09,1.5.03,3,0,4.71,0-.34-1.01-.56-1.76-.85-2.49-2.65-6.76-5.29-13.52-7.98-20.26-2.06-5.18-3.75-10.54-7.22-15.04-.51-.66-1.13-1.37-1.87-1.67-3.61-1.49-7.27-2.87-10.94-4.23-.87-.32-1.81-.43-2.83-.67Zm124.02,196.1c-1.95-.89-3.5-.98-5.01-.26-1.51.72-3.05,1.43-4.44,2.36-6.12,4.07-12.21,8.18-18.27,12.34-3.28,2.25-6.41,4.74-9.73,6.94-3.79,2.51-7.7,4.83-11.57,7.22-.47.29-.99.52-1.49.76-2.07.98-4.12,2.01-6.21,2.93-5.02,2.2-9.41,5.58-14.59,7.53-3.57,1.35-6.89,3.35-10.3,5.11-2.17,1.13-3.8,2.72-3.61,5.41.19,2.61.45,5.22.76,7.82.15,1.32.56,2.48,1.37,3.67.65.95.22,2.6.38,3.93.07.62.32,1.26.64,1.79,2.24,3.75,4.53,7.48,6.79,11.22,1.5,2.49,3.01,4.98,4.44,7.5,1.02,1.8,1.97,3.64,2.85,5.5,1.04,2.2,1.99,4.45,2.92,6.7.73,1.77,1.38,3.58,3.38,4.51,5.73-1.98,11.46-3.98,17.2-5.95,4.03-1.38,7.99-3.01,12.11-4.03,7.95-1.97,15.98-3.59,24.26-5.42,0-.56.1-1.44-.02-2.28-.46-3.37-1-6.73-1.49-10.09-.62-4.3-1.24-8.6-1.83-12.91-.53-3.84-1-7.69-1.53-11.53-.59-4.31-1.24-8.61-1.83-12.91-.53-3.84-.91-7.7-1.55-11.52-.78-4.62-1.48-9.23-1.4-13.95.03-1.86.74-3.03,2.22-3.89,3.04-1.76,6.07-3.52,9.15-5.21,1.95-1.08,3.95-2.04,6.39-3.29Zm18.23-8.42c-9.15.14-16.64-3.83-24.32-8.83.89-.26,1.36-.58,1.67-.46.66.25,1.24.72,1.83,1.12,4.92,3.27,10.31,5.41,16.07,6.58,1.36.27,2.87.17,4.24-.12,1.94-.41,3.82-1.13,5.72-1.74,2.41-.78,4.78-1.12,7.23-.04.93.41,2,.56,3.02.7,3.32.47,6.63,1,9.96,1.28,3.66.3,7.34.52,10.97-.3,1.4-.32,2.85-.59,3.6-2.54-.73-.72-1.42-1.8-2.4-2.27-2.29-1.1-4.69-1.98-7.09-2.8-5.43-1.84-10.91-3.57-16.34-5.41-.82-.28-1.51-.92-2.26-1.4.07-.17.14-.34.21-.51.39,0,.81-.11,1.16.02,3.36,1.24,6.71,2.51,10.06,3.79,1.13.43,2.08.32,3.13-.36,2.61-1.69,5.31-3.25,7.98-4.86,1.08-.65,2.15-1.32,3.43-2.12-.85-.36-1.42-.63-2.01-.84-3.91-1.39-7.83-2.75-11.74-4.14-2.1-.74-4.21-.77-6.37-.3-11.69,2.55-23.4,5.03-35.07,7.64-5.05,1.13-10.15,2.22-15.03,3.9-7.08,2.44-14.02,5.31-20.97,8.14-14.04,5.71-28.04,11.52-42.06,17.29-2.26.93-4.52,1.9-6.54,2.76-.34,13.09-.68,25.9-1.02,38.9.45-.2.81-.33,1.14-.5,5.28-2.65,10.61-5.21,15.82-7.98,8.94-4.77,18.01-9.34,26.66-14.61,8.31-5.06,16.1-10.96,24.19-16.38,3.38-2.26,6.93-4.25,10.42-6.34,1.57-.94,3.37-1.44,5.06-.82,3.38,1.24,6.17-.07,9.02-1.54,1.13-.58,2.34-1.02,3.5-1.56,2.38-1.1,4.74-2.22,7.12-3.33ZM80.23,238.6c-1.4,1.28-2.76,2.39-3.97,3.65-.92.96-1.84,2.01-2.41,3.18-4.68,9.7-9.37,19.4-13.86,29.19-3.33,7.25-6.43,14.64-8.51,22.35-2.82,10.47-5.49,20.99-7.81,31.58-2.15,9.81-3.93,19.71-5.53,29.63-.94,5.81-1.37,11.72-1.73,17.61-.26,4.21-.39,8.49.75,12.63,2.08,7.53,4.28,15.03,6.38,22.55.69,2.5,2.12,4.44,4.06,6.07.79.67,1.59,1.33,2.38,2.01,3.05,2.61,5.81,5.47,7.84,8.98.72,1.24,1.52,2.44,2.39,3.57,3.39,4.39,7.58,7.98,11.82,11.49,1.26,1.04,2.55,2.05,3.96,3.17.15-.51.26-.72.26-.94.12-6.07.24-12.14.3-18.21,0-.68-.11-1.5-.49-2.03-1.39-1.97-1.54-4.16-1.35-6.43.25-2.94.64-5.87.81-8.82.08-1.41.11-2.93-.33-4.25-2.75-8.33-5.7-16.6-8.44-24.94-.76-2.32-1.35-4.79-1.5-7.22-.46-7.56-.71-15.14-.98-22.72-.09-2.63.01-5.28-.03-7.91-.02-.86-.22-1.72-.35-2.58-.35-2.27-.89-4.53-1.04-6.82-.23-3.59-.43-7.17-1.57-10.61-1.31-3.96-1.97-8.04-2.41-12.18-.65-6.17-.73-12.33,1.15-18.28,2.96-9.35,5.94-18.71,9.38-27.89,3.25-8.7,8.32-16.5,13.47-24.41-.79-.43-1.62-.88-2.65-1.44Zm190.46-89.72c-.74,1.17-1.4,2.54-2.36,3.66-1.94,2.27-3.61,4.66-4.67,7.47-1.06,2.84-2.28,5.62-3.2,8.5-1.62,5.06-4.53,9.3-8.05,13.18-1.28,1.41-2.79,2.1-4.68,1.8-1.89-.29-3.77-.63-5.65-.95-2.16-.37-3.83-1.54-5.12-3.27-1-1.34-1.89-2.78-2.92-4.1-.52-.67-1.16-1.45-1.91-1.72-2.58-.92-5.27-.85-8.24-.48-.25,1.43-.57,2.82-.72,4.22-.2,1.9-.28,3.82-.41,5.73-.42,5.96-1.58,11.88-1.12,17.91.1,1.32.37,2.06,1.77,2.32,1.4.26,2.77.76,4.14,1.19,5.33,1.68,10.64,3.4,15.98,5.04,2.36.73,4.79,1.01,7.44.52-.15-.58-.21-1.05-.39-1.45-1.2-2.7-2.46-5.37-3.63-8.08-1.71-3.96-3.39-7.92-5-11.92-.24-.59-1-1.42.37-2.28,1.71,3.99,3.37,7.91,5.07,11.81,1.72,3.93,3.48,7.85,5.16,11.63.4.1.56.19.71.17,6.02-.68,12.08-1.14,18.04-2.14,3.77-.63,6.3-3.37,8.36-6.72-5.61-3.04-11.01-5.97-16.41-8.9-2.74-1.48-5.48-2.96-8.22-4.45-.68-.37-1.22-.8-.31-1.71,8.62,4.67,17.23,9.33,25.99,14.08,3.56-4.46,7.01-8.79,10.61-13.3-1-.33-1.8-.64-2.63-.85-8.97-2.27-17.95-4.53-26.92-6.79-.67-.17-1.47-.15-1.55-1.33.58,0,1.13-.09,1.64.01,2.66.54,5.33,1.02,7.95,1.71,7.33,1.92,14.66,3.85,21.94,5.96,2.92.84,5.73-.31,6.73-3.18,2.64-7.61,5.52-15.14,8.26-22.72.28-.78.28-1.66.42-2.57-3.6-.88-6.97-1.31-10.4-1.21-4.93.14-9.71-.65-14.33-2.35-3.88-1.43-7.73-2.93-11.74-4.46Zm-50.84-7.44c.35,1.02.53,1.6.75,2.16,3.28,8.31,6.56,16.62,9.84,24.92.66,1.66.98,3.53,3.13,4.15.58.17,1,.99,1.43,1.57.67.9,1.35,1.79,1.91,2.76,1.76,3,4.45,4.46,7.81,4.87,1.03.12,2.06.27,3.08.4,1.27.16,2.36-.15,3.26-1.12,3.45-3.72,6.33-7.75,7.97-12.65,1.32-3.92,2.85-7.79,4.57-11.55.71-1.54.79-2.67.05-4.17-6.66-13.62-13.27-27.26-19.79-40.94-.51-1.06-1.26-1.09-2.15-1.28.12-3.25-.14-6.32-1.36-9.25-.76-1.84-1.84-3.47-3.76-4.12-4.94-1.69-9.94-2.23-14.97-.26-2.33.91-4.08,2.42-5.18,4.71-2.01,4.2-3.43,8.59-4.39,13.13-2.14,10.12,1.66,18.25,8.54,25.35,1.58,1.63,3.09,3.34,3.87,5.54-.3.16-.53.31-.56.28-1.25-1.36-2.48-2.75-4.06-4.52Zm93.32-52.76c-.12,1.48-.26,2.57-.29,3.68-.13,4.37-1.27,8.38-4.34,11.62-1.42,1.5-2.97,2.9-4.6,4.16-5.76,4.46-12.43,6.78-19.51,8.04-4.79.85-9.62,1.48-14.39,2.45-6.61,1.34-9.79,5.14-10.13,11.7-.09,1.68-.67,2.45-2.28,2.96-.52.16-1.07.23-1.73.36,3.22,6.64,6.39,13.2,9.8,20.25,1.13-1.68,2.13-2.9,2.84-4.27,1.14-2.2,1.91-2.5,4.13-1.57,3.31,1.4,6.64,2.73,10.01,3.97,6.39,2.35,13.04,2.85,19.91,2.53.19-.99.38-1.91.54-2.84.55-3.35,2.04-6.19,4.56-8.48,1.06-.96,2.12-1.94,3.21-2.87,4.71-3.98,8.42-8.71,10.93-14.37,1.07-2.41,2.23-4.78,3.33-7.17.18-.4.31-.83.58-1.56-.75.25-1.18.41-1.61.52-.85.22-1.69.49-2.55.61-.97.13-2.13.09-2.46-.94-.23-.7.21-1.62.4-2.44.05-.21.27-.39.43-.57,3.56-4.36,5.64-9.43,7.01-14.82.32-1.28.45-2.6-.34-4.12-.52.31-.83.75-1.04,1.24-.34.8-.57,1.66-.95,2.45-.96,2.01-1.77,4.12-3.02,5.94-1.28,1.87-3.03,1.47-3.64-.7-.34-1.21-.44-2.51-.54-3.77-.34-4.18-1.01-8.23-4.26-12.01ZM61.01,315.98c.18-.01.36-.02.53-.03,0-.78-.04-1.57,0-2.35.13-1.91.04-3.89.52-5.71,1.74-6.7,4.59-12.91,8.56-18.61,2.27-3.26,5.27-5.29,9.13-6.06,4.92-.99,9.84-2.05,14.8-2.85,5.74-.93,11.52-1.65,17.3-2.38,1.16-.15,1.71-.57,1.82-1.74.46-4.84,1.02-9.67,1.43-14.52.59-7.01,2.38-13.66,5.71-19.87.9-1.68,1.88-3.33,2.9-5.13-2.94-.85-5.83-1.51-8.78-1.33-3.58.22-7.14.68-10.7,1.09-2.1.24-4.19.57-6.53.89,1.22,2.08,2.34,3.76,3.99,5.08,2.74,2.19,5.42,4.47,8.12,6.7.54.44,1.2.82.62,2.27-5.07-4.6-10.97-7.86-14.4-13.83-2.62.51-5,.97-7.43,1.45.09,1.05.11,1.76.22,2.46.68,4.41,1.38,8.82,2.07,13.23.12.76.48,1.58-.9,2.22-1.31-5.81-1.61-11.68-2.84-17.38-2.22.49-2.31.42-3.32,1.78-1.29,1.72-2.58,3.47-3.61,5.35-3.12,5.66-6.63,11.18-9.05,17.13-3.49,8.56-6.22,17.43-9.15,26.2-2.85,8.54-2.62,17.23-1.02,25.94Zm53.76-38.42c1.57-.18,2.67-.33,3.78-.43,2.38-.21,4.8-.74,7.13-.5,2.82.3,5.64,1.07,8.34,2,6.89,2.37,13.19,6.02,19.62,9.41,3.19,1.68,6.24,3.52,8.9,6,5.02,4.67,8.95,10.18,12.46,16.01,1.42,2.36,2.73,4.79,4.1,7.18.2-.81.17-1.52.04-2.21-.93-5.23-3.14-10.02-5.14-14.89-2.14-5.23-4.47-10.41-6.29-15.76-1.44-4.24-2.8-8.49-4.99-12.4-3.08-5.5-6.25-10.95-9.39-16.41-1.35-2.35-2.71-4.7-4.1-7.03-1.75-2.93-4.31-4.88-7.47-6.07-2.99-1.12-5.96-2.29-8.98-3.29-2.47-.82-5.02-1.41-7.47-2.09-3.19,4.63-5.64,9.4-6.99,14.61-.95,3.69-1.5,7.5-2,11.28-.62,4.72-1.01,9.47-1.53,14.59ZM20.44,455.35c.42-.44.56-.53.63-.66,3.13-5.75,6.29-11.48,9.32-17.28.48-.92.59-2.15.54-3.23-.18-4.22-.5-8.43-.74-12.64-.33-5.81-.66-11.63-.93-17.45-.06-1.34-.07-2.74.23-4.04,1.09-4.82,2.19-9.64,3.54-14.39,1-3.53,2.42-6.94,2.01-10.72-.05-.46.14-.95.18-1.42.25-3.09.62-6.14-1.07-9.08-1.3-2.27-2.23-4.77-3.25-7.19-2.11-4.99-4.61-9.89-5.4-15.31-.92-6.3-1.47-12.66-2.19-19-.11-.93-.26-1.86-.4-2.79-1.39,3.7-2.32,7.41-3.35,11.09-1.61,5.76-2.97,11.61-5.06,17.2-1.71,4.57-2.22,8.92-1.43,13.76,1.4,8.63,2.78,17.29,2.37,26.12-.33,7.01-.44,14.04-.47,21.07-.03,6.87.13,13.73.31,20.6.04,1.74.39,3.49.72,5.2.69,3.52,1.46,7.03,2.23,10.53.68,3.1,1.42,6.18,2.21,9.63Zm97.31-253.6c.21.19.26.27.32.28,8.8,1.19,16.82,4.39,23.91,9.71,6.22,4.67,11.29,10.59,16.78,16.05,3.43,3.41,6.1,7.54,10.29,10.26,6.5,4.21,12.8,8.73,19.27,12.98,6.55,4.3,13.63,6.95,21.66,6.33,2.6-.2,5.04-.84,7.3-2.08,1.72-.94,3.1-2.31,3.89-4.12,1.55-3.54,2.06-7.32,2.41-11.24-5.46,2.54-5.34,1.93-9.35,1.94-1.19,0-2.37-.3-3.56-.42-8.13-.76-15.55-3.42-22.14-8.29-4.43-3.28-8.83-6.6-13.27-9.87-6.3-4.65-12.57-9.32-19.54-12.97-4.62-2.42-8.87-5.41-12.36-9.35-4.01-4.51-6.4-9.71-6.31-15.84.02-1.46.46-2.91.8-4.85-7.06,7.2-14.58,13.4-20.1,21.49Zm-46.47,45.37c-.74.49-1.02.61-1.22.81-4.77,4.6-9.61,9.13-14.27,13.84-3.03,3.06-5.8,6.35-8.13,10.02-3.85,6.07-7.87,12.02-12.71,17.38-2.37,2.63-4.29,5.59-5.43,8.95-1.8,5.28-3.45,10.61-5.15,15.93-.17.52-.28,1.1-.23,1.64.57,6.91,1.02,13.84,1.84,20.73.45,3.78,1.21,7.6,2.46,11.18,1.85,5.26,4.26,10.31,6.45,15.45.19.44.51.82.91,1.45.19-1.1.33-1.88.46-2.66.74-4.81,1.35-9.64,2.23-14.42,2.4-13.1,5.03-26.16,8.49-39.03,1.86-6.92,3.81-13.85,6.22-20.6,4-11.2,9.08-21.97,14.3-32.65,1.21-2.48,2.36-4.99,3.78-8Zm102.16,48.37c.3-.48.48-.66.52-.86,2.35-10.33,2.95-20.83,3.07-31.65-4.86-4.47-9.91-9.11-14.96-13.76-8.58-7.89-17.36-15.56-26.57-22.73-4.04-3.14-8.17-6.15-12.8-8.4-6.22-3.01-12.75-4.54-19.67-4.36-1.48.04-2.82.22-3.83,1.52-5.78,7.53-11.58,15.03-17.42,22.6,1.27.96,2.63,1.17,4.18.58,1.04-.39,2.15-.61,3.23-.86,7.41-1.68,14.95-2.48,22.48-3.22,2.67-.26,5.44-.12,8.1.27,7.63,1.11,14.84,3.71,22.03,6.4,4.27,1.6,7.32,4.43,9.55,8.29,3.44,5.95,6.92,11.87,10.3,17.84,2.6,4.59,5.18,9.23,6.52,14.36.99,3.81,2.38,7.45,3.92,11.04.39.91.83,1.81,1.35,2.92Zm-30.84,139.54c.39-.89.66-1.46.89-2.04,3.77-9.58,7.51-19.17,11.3-28.73,8.38-21.14,16.78-42.27,25.16-63.41,1.99-5.04,4.38-9.94,5.3-15.35,1.4-8.25,2.82-16.5,4.14-24.77.36-2.26.86-4.65.47-6.84-2.03-11.43-5.43-22.47-9.92-33.18-.16-.39-.46-.72-.69-1.07-.17.03-.34.06-.52.08-.24,4.04-.49,8.09-.71,12.13-.15,2.71-.04,5.45-.41,8.12-.76,5.53-1.71,11.03-2.72,16.52-.23,1.27-.05,2.31.42,3.45,1.3,3.17,2.56,6.36,3.76,9.58,1.91,5.15,2.11,10.39.9,15.77-2.05,9.1-5.58,17.66-9.5,26.03-4.43,9.46-9.38,18.69-14.26,27.93-2.17,4.11-4.21,8.2-5.28,12.76-.56,2.39-1.59,4.68-2.54,6.96-1.19,2.87-2.83,5.58-3.74,8.53-1.76,5.71-3.18,11.53-4.65,17.32-.74,2.92-1.25,5.89-1.91,9.04,1.57.41,2.93.76,4.5,1.17Zm-118.88,63.56c.31-.38.52-.53.6-.73,2.78-6.71,5.28-13.51,7.37-20.47,1.86-6.19,3.91-12.32,7.47-17.83,3.73-5.77,7.29-11.64,10.95-17.46,2.46-3.91,4.96-7.81,7.37-11.59-2.81-6.51-8.48-10.17-13.27-14.8-.45.74-.85,1.34-1.19,1.96-6.84,12.37-13.69,24.73-20.49,37.12-.67,1.22-.97,2.64-1.46,3.96-.1.28-.21.68-.43.79-1.28.65-1.45,1.91-1.53,3.06-.21,2.7-.48,5.43-.27,8.12.54,6.94.57,13.87-.01,20.8-.05.6.03,1.37.38,1.81,1.42,1.78,2.96,3.47,4.51,5.25Zm126.03-62.16c.4-.61.64-.93.83-1.27,2.79-5.02,5.7-9.99,8.32-15.1,1.39-2.71,3.74-5.04,3.74-8.38,0-.12.16-.31.28-.33,1.42-.35,1.6-1.7,2.09-2.72,1.42-3,2.82-6.01,4.08-9.08,4.61-11.22,9.27-22.41,13.71-33.69,7.57-19.26,10.35-39.26,8.9-59.88-.11-1.56-.37-3.11-.56-4.66-1.02,3.72-1.72,7.38-2.18,11.08-1.36,11.01-4.46,21.47-8.76,31.71-6.71,15.96-12.98,32.11-19.36,48.2-5.26,13.27-10.4,26.6-15.59,39.9-.37.94-.71,1.9-1.17,3.13,2.04.4,3.8.74,5.68,1.1Zm14.79-23.73c1.69,2.72,3.4,5.41,5.05,8.14,2.56,4.24,5.07,8.51,6.74,13.21.33.94.99,1.88.27,2.99-.29,0-.71.13-.89-.02-5.88-4.86-10.36-10.96-14.99-17.35-3.18,5.74-6.23,11.26-9.38,16.95,6.28,1.39,12.28,2.28,18.36,2.03,8.29-.35,16.57-.82,24.84-1.42,7.87-.57,15.73-1.36,23.6-2.07,1.03-.09,2.04-.33,3.5-.58-.72-.4-.98-.57-1.25-.7-8.88-4.19-17.81-8.28-26.63-12.59-6.25-3.05-12.24-6.54-17.27-11.51-2.3-2.27-4.91-4.22-7.48-6.4-1.54,3.23-2.98,6.24-4.46,9.33Zm12.69-151.34c.87-2.78.99-5.06-.29-7.57-2.57-5.01-5.8-9.54-9.31-13.89-6.28-7.77-13.32-14.83-20.38-21.88-7.52-7.52-16.52-12.15-26.84-14.29-1.51-.31-3.21-.21-4.72.14-2.24.52-4.42,1.34-6.56,2.2-3.04,1.22-5.07,3.66-7.41,6.36.88,0,1.33-.02,1.77,0,2.46.15,4.95.14,7.38.51,7.66,1.14,14.46,4.39,20.67,8.91,14.21,10.36,27.06,22.31,39.98,34.18,1.86,1.71,3.7,3.44,5.72,5.33Zm-39.06,165.01c-15.51,3.63-30.56,4.59-45.13-2.98-.2,1.43-.4,2.68-.54,3.94-.39,3.56-.72,7.14-1.14,10.7-.36,3.01.78,4.94,3.69,5.75,4.14,1.17,8.28,2.37,12.48,3.33,3.02.69,6.11,1.29,9.19,1.42,6.31.28,12.04-2.01,17.62-4.66,1.74-.83,2.54-2.33,2.38-4.32-.31-3.86.31-7.63,1.24-11.36.11-.45.11-.94.2-1.82Zm-126.41-63.04c-.09.01-.18.03-.27.04-.04.79-.06,1.58-.11,2.37-.22,3.1-.28,6.23-1.34,9.21-2.4,6.76-3.21,13.83-3.68,20.91-.5,7.57-.44,15.16.21,22.74.65,7.55,1.15,15.12,1.59,22.68.37,6.37.72,12.74.8,19.12.06,5.66-.29,11.33-.41,16.99-.02,1.15.18,2.31.3,3.83,3.27-1.77,6.19-3.34,9.08-4.91-.11-2.04-.25-3.86-.29-5.68-.1-4.22-.52-8.47,1.53-12.45.28-.54.13-1.39,0-2.05-.89-4.22-1.83-8.42-2.75-12.63-1.25-5.69-2.56-11.36-2.53-17.24.05-9.43.01-18.87.01-28.3,0-.72.02-1.44.04-2.16.13-4.3.6-8.63.33-12.91-.37-5.88-1.29-11.72-2-17.58-.08-.67-.34-1.32-.51-1.99Zm202.02-160.37c-1.01.85-.4,1.48-.11,2.07,1.56,3.15,3.2,6.25,4.71,9.42,2.58,5.4,5.09,10.82,7.6,16.25.5,1.08,1.04,2.2,1.24,3.35,1.1,6.25,3.54,12.09,5.5,18.07,1.91,5.84,3.93,11.64,4.17,17.87.34,8.77.67,17.54.94,26.32.14,4.63.1,9.27.21,13.9.07,2.91.26,5.82.42,9.21,2.53-1.94,4.78-3.56,6.9-5.33,1.58-1.33,3.08-2.78,4.43-4.34,1.4-1.62,1.6-3.46.78-5.57-1.17-3.05-2.24-6.16-3-9.33-3.44-14.35-6.85-28.7-10.06-43.1-1.41-6.3-2.38-12.69-3.44-19.07-1.54-9.22-5.8-17-12.32-23.57-2.35-2.37-4.85-4.63-7.97-6.16Zm26.49,191.69c-2.17,12.85-4.3,25.44-6.49,38.39,8.4-1.36,16.19-3.75,24.08-6.02-5.11-11.26-10.12-22.33-17.59-32.37Zm-71.3-178.03c-.61-1.04-.96-1.72-1.4-2.35-3.72-5.4-7.79-10.51-12.41-15.18-1-1.01-1.97-2.14-2.61-3.39-1.61-3.11-3.05-6.31-4.5-9.5-.46-1.01-.9-2.07-1.1-3.16-.81-4.36-2-8.8,1.6-12.7-.39.03-.68.11-.88.29-3.38,2.99-6.14,6.49-8.28,10.44-1.21,2.24-1.51,4.67-.93,7.2,1.19,5.18,3.42,9.81,7.43,13.38,2.08,1.85,4.26,3.65,6.61,5.13,5.26,3.3,10.66,6.39,16.47,9.84ZM35.11,384.92c-.18,0-.36-.01-.54-.02-1.01,3.67-2.06,7.34-3.03,11.03-.75,2.87-.99,5.79-.83,8.77.36,6.77.56,13.55.87,20.32.13,2.8.37,5.59.58,8.66.41-.44.61-.58.72-.77,3.29-5.83,6.55-11.69,9.88-17.5.52-.91.24-1.61-.02-2.47-2.22-7.49-4.42-14.98-6.54-22.49-.51-1.8-.73-3.68-1.08-5.53Zm40.03,16.13c.15-.89.24-1.18.24-1.47-.02-4.39-.09-8.79-.06-13.18.03-3.83.13-7.66.31-11.49.11-2.25-.04-4.37-.92-6.53-2.69-6.57-5.2-13.21-7.79-19.82-.27-.7-.6-1.38-.91-2.07-.34.44-.4.8-.4,1.16.16,7.26.27,14.52.53,21.78.16,4.4.95,8.7,2.49,12.86,1.13,3.07,2.11,6.19,3.18,9.28,1.03,2.98,2.08,5.95,3.32,9.46Zm14.87,34.63s.23-.13.25-.24c.47-4.18.95-8.36,1.36-12.55.05-.47-.27-1.07-.59-1.46-2.8-3.46-5.58-6.94-8.5-10.29-1.53-1.75-3.27-3.35-5.4-4.51-.43,4.6-.88,9-1.23,13.42-.15,1.91.49,3.65,1.95,4.94,4.03,3.59,8.11,7.13,12.17,10.69Zm-42.17,13.21c-.1-.05-.21-.1-.31-.16-1.44,2.28-2.89,4.54-4.3,6.83-3.15,5.08-6.4,10.11-8.21,15.89-1.43,4.56-2.8,9.15-4.4,13.65-1.75,4.92-3.73,9.76-5.69,14.84.2.17.65.56,1.18,1,4.34-6.42,8.86-12.55,11.3-19.83,3.5-10.42,6.89-20.88,10.32-31.32.09-.28.07-.61.1-.91Zm16.46-119.19c0,2.35-.22,4.45.06,6.48.28,2.03.91,4.05,1.64,5.97,3,7.99,6.09,15.94,9.16,23.9.21.55.51,1.07.87,1.82.78-3.56,1.42-6.84,2.24-10.08.36-1.41.24-2.67-.3-3.95-2.51-5.86-5.02-11.73-7.55-17.59-.19-.43-.44-.87-.77-1.2-1.72-1.76-3.47-3.48-5.34-5.35ZM15.13,506.28c2.25-9.52,3.24-18.67,2.79-28.37-2.54,1.37-4.62,2.73-6.88,3.65-2.12.86-2.97,2.35-3.48,4.42-.5,2.03-.53,3.83.53,5.74,1.35,2.43,2.42,5.02,3.63,7.54,1.06,2.21,2.14,4.41,3.41,7.03ZM219.34,239.96c2.9-.62,4.25-2.11,4.57-4.62.33-2.62-.04-5.12-1.09-7.49-2.73-6.11-5.54-12.19-8.36-18.27-.62-1.35-1.39-2.63-2.15-4.08-1.85,3.3-1.81,3.64-.89,6.7,1.85,6.1,3.62,12.22,5.38,18.35.9,3.12,1.69,6.27,2.53,9.4ZM25.16,502.33c-2.15-2.45-4.19-4.78-6.28-7.16-.29.41-.44.53-.46.67-.81,5.67-1.85,11.28-3.41,16.8-.26.91-.04,1.94-.04,2.92.17.05.35.11.52.16,3.18-4.41,6.37-8.82,9.67-13.39Zm136.37-84.27c2.94,5.15,10.56,14.41,13.32,16.27-1.08-3.95-7.72-15.9-11.2-20.08-.72,1.3-1.4,2.53-2.11,3.81Zm256.46-21.22c-7.07,1.8-36.82,13.34-38.09,14.46,3.14-.45,6.18-.65,9.1-1.99,6.09-2.79,12.31-5.3,18.48-7.93,3.51-1.5,7.01-3.03,10.52-4.54Z"/>
  <path class="cls-1" d="m230.63,525.43c3.27-4.26,7.13-7.48,11.17-10.45,3.31-2.44,5.79-5.48,7.61-9.09,1.54-3.06,3.14-6.12,4.32-9.33,2.21-5.98,4.15-12.06,6.19-18.1.24-.71.21-1.58,1.42-2.11,0,.87.15,1.55-.02,2.14-2.25,7.57-4.61,15.11-7.88,22.32-1.75,3.86-3.56,7.69-6.3,10.97-.96,1.16-2.04,2.26-3.21,3.19-4.02,3.16-8.07,6.27-11.38,10.22-.42.5-.45.47-1.91.25Z"/>
  <path class="cls-1" d="m246.84,120.85c-1.62,2.99-7.29,4.9-11.11,3.74-.5-.96-.03-1.7.62-2.34,2.52-2.47,4.73-5.17,6.22-8.41.1-.22.48-.31,1.09-.68.03,2.57-1.4,4.12-2.54,5.71-1.15,1.59-2.54,3.01-4.25,4.99,1.32-.13,2.19-.03,2.91-.31,1.84-.73,3.61-1.63,5.4-2.47.53-.25,1-.93,1.66-.22Z"/>
</svg>