<?xml version="1.0" encoding="UTF-8"?>
<svg id="Elderly" xmlns="http://www.w3.org/2000/svg" viewBox="0 0 288.26 381.24">
  <defs>
    <style>
      .cls-1 {
        stroke-width: .75px;
      }

      .cls-1, .cls-2 {
        fill: none;
        stroke: #1d1d1b;
        stroke-miterlimit: 10;
      }

      .cls-2 {
        stroke-width: .5px;
      }
    </style>
  </defs>
  <g>
    <path class="cls-2" d="m103.68,79.82s-1.45,3.15-2.21,5.79-1.79,3.06-2.47,2.47-2.21-5.28-2.98-8.17-2.89-9.19-3.57-13.28-.43-9.62.43-11.91,3.74-6.72,5.11-7.57,5.11-3.4,5.11-3.4c0,0,1.02-1.11,7.57-1.7s10.47,1.02,14.13,3.32,6.3,4.94,7.74,8.09,2.13,5.79,1.87,8.51-.26,2.5-1.79,3.16-2.89.5-3.91-.86-1.02-2.98-3.23-2.64-5.62,2.72-5.87,4.68-.26,7.06-.6,9.53-2.04,3.15-3.57,1.62-4.85-4.77-6.38-5.53-3.4.51-4.09-1.36-1.62-2.21-2.47-1.62-1.77.94-1.45,3.62,1.02,4.28,1.6,5.36,1.04,1.91,1.04,1.91Z"/>
    <path class="cls-2" d="m109.15,80.33s.26,2.04-.77,2.17-1.72-.26-2.94-1.09-1.77-1.6-1.77-1.6"/>
    <path class="cls-2" d="m133.89,64.43s.65,3.84.56,4.73-.61,2.23-1.24,3.19-.64,1.98-.32,2.87.68,2.04.68,2.04"/>
    <path class="cls-2" d="m108.55,71.73s8.96,9.73,10.17,10.79,1.47.81,1.47.81"/>
    <path class="cls-2" d="m108.38,82.5s5.11,7.53,6.7,8.55l1.6,1.02"/>
    <path class="cls-2" d="m129.76,77.9s2.03-.08,2.92-.36,1.61-.66,1.77.36,1.5,3.96,2.52,7.15,1.47,3.96.57,5.36-4.02,6.7-5.23,8.36-1.21,2.04-2.94,1.79-7.21-1.34-8.68-1.85-1.47-1.02-2.3-1.28-1.98-1.47-2.87-2.87-.77-4.53-.19-6.25,1.21-3.83,2.55-5.43,2.3-2.68,4.79-3.45,4.02-.7,5.04-1.02,2.04-.51,2.04-.51Z"/>
    <path class="cls-2" d="m123.44,85.31s6.06,2.49,8.17,3,4.53,0,4.53,0"/>
    <line class="cls-2" x1="100.98" y1="86.92" x2="100.4" y2="91.75"/>
    <line class="cls-2" x1="99.37" y1="93.25" x2="96.76" y2="98.33"/>
    <path class="cls-2" d="m121.82,108.89s.29,1.18.48,1.88.32.96-.51.96-1.6-.7-3.51-1.66-3-2.55-4.21-3.26-6.19-2.23-8.49-3.64-3.77-2.81-5.17-3.19-3.38-1.15-3.38-1.15c0,0-.51-1.4-1.15-.51s-1.34,2.55-3,4.97-4.28,5.43-5.17,7.72-2.23,9.45-2.55,11.55.57,7.21,1.09,11.04,1.91,10.21,3.32,14.3c1.4,4.09,2.62,4.98,3.57,6.19"/>
    <path class="cls-2" d="m122.44,107.89s-.78-2.61-1.55-3.25-1.79-1.47-1.79-1.47c-.83-1.09.73-4.85.73-4.85"/>
    <path class="cls-2" d="m89.08,146.48s-1.06,12.48-.75,14.97.7,4.21,1.72,5.74,2.23,2.17,1.79,3.19-.64,1.98-.57,3,.06,1.4-.51,2.3-.57,1.21-.38,3.06.7,3.13.26,3.38-1.91,1.4-1.47,3.51.89,3.32.64,5.04-.19,4.47-.77,6.64-.51,3.38.7,3.77,8.36,2.74,10.47,3.51,2.36,1.4,2.3-.96,0-7.34.77-10.34,1.6-4.72,1.6-4.72c0,0,.45-1.72.64.64s1.28,11.04,1.53,13.85-.77,2.62.26,2.81,2.11-.7,3.38-.57c0,0,8.36-.38,13.72-1.85s8.62-2.81,10.66-5.68,2.55-4.72,2.87-5.81-.45-1.6,0-2.55,1.21-3.96,1.28-6.13-.45-3.7-.45-5.23.13-2.11-.51-2.87-.26-2.04-.19-3,.84-.96,1.15-3.13-.13-2.87-.39-5.94-.51-4.34-.51-4.34"/>
    <path class="cls-2" d="m136.91,138.99s-2.17-9.7-3.26-12.57-2.94-6.7-3.45-8.3-1.91-2.94-1.91-2.94"/>
    <path class="cls-2" d="m120.38,101.27s3.22,2.62,4.24,3.58"/>
    <path class="cls-2" d="m125.03,105.01s2.5,3.59,3.26,4.74,1.94,2.81,1.94,2.81"/>
    <path class="cls-2" d="m131.04,114.7s.38,3.29.64,4.06.7,1.66.64,2.23-.34,1.39-.34,1.39"/>
    <path class="cls-2" d="m119.38,99.62s.62.39.81,1.02.38,2.23,1.63,2.93,4.69,2.11,9.22,3.7,12.32,3.77,18.7,3.83,12.19-.89,12.19-.89"/>
    <path class="cls-2" d="m100.48,91.11s-1.35.07-.91.64,8.04,6.4,11.74,8.88,12.26,8.1,16.34,10.46,10.15,5.68,13.4,6.64,9.32.51,11.49.32,5.11-.83,5.11-.83"/>
    <path class="cls-2" d="m161.49,111.1s1.72-2.75,1.85-4.66.19-6.19.83-7.09,1.34-2.49,2.23-4.66,2.87-4.39,3.89-6.15,2.3-3.04,4.15-4.38c.79-.57,5.04-3.36,5.04-.8"/>
    <path class="cls-2" d="m104.68,110.07s6.24,2.62,9.12,4.79,3.32,3.32,4.09,5.11,1.15,2.43,1.79,3.26,1.6,1.6.7,1.28-3.7-1.15-6.96-.77-4.02.51-6.13,1.72-4.91,4.09-7.15,5.55-3.57,3.89-3.38,5.36,1.15,3.19,3,3.77,2.18.57,3.99.32,2.13-.7,2.13-.7"/>
    <path class="cls-2" d="m89.04,129.16s4.34,5.11,5.62,6.19,2.11,1.02,2.11,1.02"/>
    <path class="cls-2" d="m87.57,131.33s4.28,5.49,6.51,6.64,3.89,1.02,3.89,1.02"/>
    <path class="cls-2" d="m89.87,118.33s4.4,13.26,4.91,14.73l.51,1.47"/>
    <path class="cls-2" d="m99.48,103.05s6.47,11.62,7.69,14.62,1.58,4.4,1.58,4.4"/>
    <path class="cls-2" d="m116.17,112.05s4.5,7.34,6.27,11.23,2.41,4.79,2.41,4.79"/>
    <path class="cls-2" d="m118.86,113.71s4.46,9.23,5.6,11.63,1.99,3.81,1.99,3.81"/>
    <path class="cls-2" d="m129.19,124.5s3.83,7.09,4.34,9l.51,1.91"/>
    <path class="cls-2" d="m132.32,120.99s5.4,10.47,7.01,13.53,1.35,4.53,1.93,4.47,4.28-2.62,4.28-2.62"/>
    <path class="cls-2" d="m89.89,185.78s1.36-2.72,4.09-2.81,6.38,1.02,7.4,1.79"/>
    <path class="cls-2" d="m90.28,177.6s1.83-1.97,4.21-1.41,4.51,2.26,4.51,2.26"/>
    <path class="cls-2" d="m113.8,177.28s8.86-1.46,13.62-1.63,11.29.45,11.29.45"/>
    <path class="cls-2" d="m108.36,188.24s7.57.17,13.62,1.87,6.72,3.15,8.26,3.83"/>
    <path class="cls-2" d="m119.29,182.96s6.26,1.28,9.23,1.41,5.28,2.09,6.47,2.85,2.94,2.19,2.94,2.19"/>
    <path class="cls-2" d="m95.29,166.46s7.36-1.36,9.66-2.89,4.43,0,4.43,0"/>
    <path class="cls-2" d="m109.72,161.78s5.51,2.81,9.14,3.83"/>
    <path class="cls-2" d="m124.27,162.88s1.98-3.23,2.18-4.43"/>
    <path class="cls-2" d="m120.38,124.5s13.09,11.06,15.13,13.11,3.82,4,3.82,4"/>
    <path class="cls-2" d="m138.03,147.22s.49-3.91.89-4.77,3.57-3.78,5.31-5.21,6.08-7.32,7.79-10.16,3.83-7.02,3.83-7.02"/>
    <path class="cls-2" d="m97.58,133.64s12.4,9.32,15.38,11.79,11.96,10.32,18.66,11.83,9.51,2.38,11.64,2.72,4.34-.34,4.6-1.53,2.72-5.36,4.17-7.32,4.94-6.04,7.32-11.15c2.38-5.11,7.4-15.49,7.4-15.49"/>
    <path class="cls-2" d="m171.76,92.07s2.3-4.68,4.26-6.13,3.15-2.76,5.28-3.42,2.81-.75,3.74-.58,1.53,1.36.94,2.21-1.96,1.28-3.49,2.21-3,2.56-3,2.56"/>
    <path class="cls-2" d="m175.17,94.37s3.32-3.59,3.82-4.51,2.99-1.88,5.54-2.94,3.23-1.32,4.09-1.15.85,1.92.43,2.53-3.15,1.67-4.6,2.8-3.91,3.35-4.43,4.03-1.03,1.56-1.03,1.56"/>
    <path class="cls-2" d="m177.89,97.35s1.79-1.62,4-2.38,4-.43,5.11,0,1.45.4,1.96.96.26,1.86-.85,2.11-3.4-.18-5.11.85-2.98,4.17-4.68,6.72-3.74,4.98-5.11,6.45-2.04,3.13-2.04,3.13"/>
    <path class="cls-2" d="m168.84,90.7s-.63-2.19.54-2.39.91.23.91.23"/>
    <line class="cls-2" x1="182.24" y1="92.97" x2="181.89" y2="94.97"/>
    <path class="cls-2" d="m182.92,82.06s.16-.63.76-1.65,1.45-1.11,2.21-.6,1.53,1.35,1.53,1.35c0,0,.68.69,0,1.8s-2.89,3.95-2.89,3.95"/>
    <line class="cls-2" x1="156.53" y1="118.78" x2="159.93" y2="112.93"/>
    <line class="cls-2" x1="167.17" y1="122.8" x2="170.32" y2="116.75"/>
    <path class="cls-2" d="m99.25,91.75s-.7.96.51,1.85,11.22,8.17,15.12,10.72,15.39,10.3,19.92,12.43,5.76,1.62,5.85.85"/>
    <path class="cls-2" d="m139.69,118.33l2.08,3.11s.45.57,1.09,0,.96-1.28.32-1.66-2.69-1.79-2.69-1.79"/>
    <path class="cls-2" d="m177.51,106.78s1.07.68.98,2.01-.3,1.54-.3,1.54"/>
    <path class="cls-2" d="m174.89,110.14s1.93.19,2.61.19,1.58.13,2.21.77.72,1.91-.23,2.81-1.49.79-1.49.79"/>
    <path class="cls-2" d="m172.24,113.27s1.82,0,3.48.3,2.17.38,2.28,1.4-.28,1.7-.79,2.3-.68.47-1.11,0-.51-.51-1.53-.51h-2.81"/>
    <path class="cls-2" d="m164.27,129.63s1.28-1.17,2.09-2.15.38-1.36,1.49-1.66,2.3-.55,3.91-1.83,2-1.23,2.64-1.61,1.36-2.22,1.57-2.85.43-1.96.43-1.96"/>
    <path class="cls-2" d="m170.01,117.34s-.27,1.67,1.15,1.73,1.17.57,2.32.7,2.29.29,2.29.29"/>
    <path class="cls-2" d="m162.53,111.44s-1.02-.64-1.83-.6-1.57.26-1.4,1.11.49.98,1.61.98,4.69,1.4,6.69,2.26,2.94,1.83,3.57,1.83,1.19-1.26.6-1.54-2.26-1.6-4.77-2.54-4.47-1.49-4.47-1.49Z"/>
    <path class="cls-2" d="m158.87,119.05s-.58-.08-1.4-.27-1.28-.45-1.96,0-.47,1.59,1.19,1.93,5.19,1.49,7.32,2.43,2.38,1.49,3.4,1.36,1.02-1.44-.68-2.12-7.12-3.19-7.87-3.32Z"/>
    <path class="cls-2" d="m91.03,201.51s1.33,4.69,2.01,6.05.85,1.87.85,1.87"/>
    <path class="cls-2" d="m98.04,203.85s-1.34,2.18-2.74,3.88-1.66,1.53-1.4,2.68-.06,4.28.77,5.11,2.3,2.3,3.06,3.7,1.21,2.17,2.23,3.64,2.17,3.38,2.17,3.38"/>
    <path class="cls-2" d="m103.08,223.24s-.7,2.94-1.53,3.96-1.15,1.53-.32,2.17,1.21,2.17,1.4,3.38.13,3.7,1.53,6.96,1.09,4.02,1.4,7.15,1.21,7.91,1.21,10.91.26,5.87,0,8.3-.13,3.45-1.09,4.72-.57,1.72-.96,3.96-1.98,13.28-2.11,15.06-.45,3.26-.51,4.72-.57,3-.06,4.34.89,2.55,4.09,4.28,4.21,2.04,6.06,2.17,3.83-1.15,5.68-.77,4.02-.77,4.79-1.21,1.79-1.6,1.85-3,1.34-9.32,2.62-13.47c1.28-4.15,4.4-10.21,5.3-14.04s2.04-11.17,1.85-14.87-.7-11.94-.89-15.83-.38-11.04-.83-16.4-1.15-9.32-.96-13.15,1.21-5.68,1.91-8.43.79-5.11.79-5.11"/>
    <path class="cls-2" d="m137.25,193.95s.74,4.49,1.64,9.9,3.13,15.95,3.19,19.9c.06,3.96,1.34,10.53,1.72,13.85s.19,8.36-1.34,12.51c-1.53,4.15-3.38,7.09-3.83,9.45s-2.11,8.68-2.74,10.66-2.81,5.04-3,6.45-.06,3.96-1.34,5.43-4.17,4.08-4.17,4.08"/>
    <path class="cls-2" d="m102.05,295.38s3.39,3.5,6.2,4.33,5.94,1.21,9.57.38,7-2.13,7-2.13"/>
    <path class="cls-2" d="m110.53,305.09s.08-3.53.59-5.63,2.04-10.15,2.68-14.36,1.4-11.49,2.11-15.64,1.21-6.83,1.21-9.83.13-5.49-.51-7.85-1.15-3.45-1.28-6.89-.78-9.64-1.54-12.83-1.21-6.64-1.53-10.21-1.7-10.91-1.74-12.89.15-3.64.15-3.64"/>
    <path class="cls-2" d="m119.23,229.5s6.57,3.26,8.43,4.66,2.62,1.4,2.62,1.4"/>
    <path class="cls-2" d="m128.71,202.12s.99,4.66.99,6.38-.32,2.94,0,4.53.83,5.68.89,9.45.45,13.34.7,19.09,1.15,16.53,1.02,19.21-.53,8.49-1.8,13.28c-1.26,4.79-3.24,9.64-4.26,12.7s-1.76,4.74-2.49,8.3c-.73,3.55-1.09,8.3-1.09,8.3"/>
    <path class="cls-2" d="m116.1,285.1s8.04-7.02,9.57-8.55l1.53-1.53"/>
    <path class="cls-2" d="m117.53,294.41s9.45-9.73,9.97-11.17"/>
    <line class="cls-2" x1="107.17" y1="281.14" x2="111.89" y2="278.71"/>
    <line class="cls-2" x1="108.57" y1="262.12" x2="110.52" y2="265.69"/>
    <path class="cls-2" d="m116.1,223.31s8.34-.14,11.4-1.02"/>
    <path class="cls-2" d="m128.61,170.71s4.98-1.87,6.51-4.26,1.79-7.94,1.79-7.94"/>
    <path class="cls-2" d="m127.5,285.8s-.28,7.27,0,8.61"/>
    <path class="cls-2" d="m118.46,304.63s-.13,2.1,0,3.12.58,1.79.58,1.79"/>
    <path class="cls-2" d="m126.44,296.9s.19-.69.45-1.53.64-1.47,1.34-.96.57,2.32,2.23,3.55,4.72,3.08,6.45,3.47,7.66,1.4,9.26,2.23,2.89,1.53,2.85,4.09-.55,3.45-2.21,4.79-4.02,2.36-7.09,2.74-7.28-.32-9.45-.38-5.04-.19-5.04-.19"/>
    <path class="cls-2" d="m104.93,312.22s-.77.06-1.53-.96-1.54-1.21-2.66-.51-1.24,1.15-.92,2.49.83,3.45.45,5.23-.32,2.49-.89,4.47-1.34,3.89-.38,6.19c.96,2.3,4.98,3.64,9.32,3.7,4.34.06,7.09-.57,10.72.83,3.64,1.4,6.57,3.06,12.13,2.3,5.55-.77,9.45-3.77,11.36-6.19,1.91-2.43,2.23-5.11,1.4-6.19s-3.57-3.06-6.32-3.77-4.66-1.98-7.34-3.06-4.79-1.47-5.87-2.74-1.21-1.85-2.17-2.74-1.47-2.55-2.04-2.55-1.59.23-1.79,1.33-.13,2.76-1.66,4.35-2.2,2.17-3.3,3.32-3.78,2.87-5.31,3.26-2.69.57-3.71-1.28-1.02-2.3-1.02-2.3c0,0,.7-1.09,1.53-5.17s.39-9.54.39-9.54"/>
    <path class="cls-2" d="m148.95,308.91s-.87.95-1.83,1.59-3.77,1.47-6.26,1.72-8.17-.89-10.28-1.21-5.11-.64-6.45-.7-2.69-.03-2.69-.03"/>
    <path class="cls-2" d="m99.71,321.67s0,3.32,1.97,4.53c1.98,1.21,4.6,1.79,8.43,2.36,3.83.57,7.02.77,10.4,1.91s10.15,3,14.17,2.11c4.02-.89,5.62-2.43,6.83-3.26s2.73-3.05,2.73-3.05"/>
  </g>
  <g>
    <path class="cls-1" d="m106.59,268.26s.29-5.13.24-8.12-.24-5.69-.55-7.94-.7-5.33-.7-5.33l-.3-3.57-1.1-3.58s-.91-2.35-1.11-3.61-.34-3.85-.77-4.9-1.49-2.37-1.49-2.37c0,0-.17-.4.42-1.19s.92-1.39.92-1.39c0,0-1.49-2.26-2.56-3.96s-1.87-3.33-2.61-4.23-2.58-3.01-2.58-3.01l-.57-5.61s-.36-.69-.94-2.28-1.83-5.64-1.83-5.64c0,0-1.45-.36-1.74-.64s-.85-.85-.48-2.49.68-3.8.8-5.4.09-2.84.13-4.74-.84-3.09-.61-3.87.79-1.72,1.15-1.98.58-.5.34-2.07-.83-3.12-.34-3.87.81-1.19,1-3.05.49-2.46.57-3-.22-1.25-.82-1.97-1.54-1.52-1.99-3.4-.79-3.39-.76-4.95.42-8.54.42-8.54l.39-5.05s-.97-3.23-1.51-5.73-1.55-8.03-1.97-11.59-.71-5.17-.37-7.09.82-4.71,1.35-6.89.39-3.2,1.57-5.11,6.02-8.81,6.02-8.81l1.79-3.23s.65.61,1.15-.37l1.95-3.79s.14-1.23.2-2.12,1.23-.64,1.23-.64l.5-3.32s-.01-1.06-.29-.51-1.1,1.81-1.7.79-2.24-5.78-3.55-10.17-3.33-11.82-3.35-14.71-.44-6.01.77-8.48,2.21-4.93,3.89-6.4,4.36-3.48,5.94-4.32,6.49-2.1,9.03-2.08,5.69.11,7.78.91,5.95,2.24,8.57,4.95,3.94,3.69,4.99,6.94,1.52,5.54,1.32,7.24-.91,2.29-.26,4.07.17,3.96,0,4.4-1.83,2.21-1.55,3.51.97,3.34.97,3.34c0,0,.61-.34.88.64s2.98,8.56,2.98,8.56c0,0,1.11,2.33.12,3.95s-5.23,8.36-5.23,8.36c0,0-.71,2.01-2.08,1.86s-3.79-.58-5.39-.92-5.01-1.38-5.01-1.38l-.46,1.28s1.68,2.2,2.35,2.76,3.3,2.64,3.3,2.64c0,0,7.8,2.98,10.86,3.78s10,2.5,14.83,2.31,11.22-.9,11.22-.9c0,0,1.11-.99,1.29-3.02s.22-6.57.81-7.56,1.03-2.63,2.45-5.1,2.26-3.68,2.26-3.68c0,0-.18-1.64.22-2.3s1.53-.31,1.53-.31c0,0,1.24-2.02,2.87-3.23s2.58-2.32,4.08-2.48,1.77,0,1.77,0l.28.83,3.43-1.29.76-1.65s1.08-1.21,1.64-.9,1.81.97,2.1,1.66.31,1.39-.25,2.19-2.64,3.57-2.64,3.57c0,0,1.74-.78,2.46-.97s1.8-.23,1.97.02.41,1.57.25,1.95-.15.52-2.01,1.55-4.95,3.49-4.95,3.49l-.35,2s1.86-.64,4.32-.25,2.95,1.63,2.95,1.63c0,0,.5,1.55-1.44,1.68s-4.41.1-5.48,1.46-2.99,4.6-2.99,4.6l-1.74,2.68s1.14.83.98,2.01,0,1.65,0,1.65c0,0,.8-.15,1.23.66s.73,1.53.25,2.17-1.97,1.7-1.97,1.7c0,0-.11,1.41-.45,1.85s-1.14.74-1.14.74c0,0-.08,1.29-.63,2.5s-1.08,2.02-2.23,2.73-1.97,1.59-3.21,2.13-3.17,1.15-3.17,1.15c0,0,.1.4-.81,1.4s-2.09,2.15-2.09,2.15c0,0-2.9,6.68-4.34,9.37s-3.28,5.91-4.42,7.49-2.26,2.84-3.49,4.65-2.66,3.79-3.41,5.55-.45,2.75-2.23,3.06-3.64.18-5.11-.17-2.94-.81-2.94-.81c0,0,1.18,6.21,1,8.5s.04,2.11-.6,3.51-.87,2.18-.82,2.97.75,1.62.82,2.34.14,2.87.31,4.38.26,3.88-.17,5.71-1.12,3.45-1.05,3.89.21,1.76-.06,2.55-.36,2.06-.36,2.06c0,0,1.46,9,2.3,13.56s1.62,8.37,1.97,11.24.9,9.65,1.33,12.43c.43,2.78,1.58,8.35.79,12.48-.79,4.12-1.16,5.69-2.36,8.34s-2.21,4.51-2.87,7.35-1.25,5.6-2.06,8.18-1.29,3.63-1.99,4.94-1.9,3.5-1.77,5.51-1.29,3.54-1.29,3.54l-3.63,3.55-.41,5.65.13,2.96s.67-.54,1.05.4.18,1.97,1.92,3.15,4.48,3.08,7.06,3.6,7.42,1.17,9.02,2.31,3.29,2.62,2.4,5.04-1.59,3.47-2.99,4.25-4.22,2.02-6.24,2.13-10.53-.42-10.53-.42l-2.97-.11s-1.35-.43.99.65,4.26,1.88,5.95,2.67,6.6,2.38,7.86,3.2,3.59,2.28,3.34,3.88-.37,3.3-2.22,5.09c-1.85,1.78-3.7,3.22-6.46,4.31-2.76,1.09-5.61,2.04-8.47,1.56s-5.06-1.22-6.86-1.92-3.15-1.34-5.88-1.37-5.96.09-8.51,0c-2.55-.09-5.54-1.58-6.25-2.63s-1.48-2.77-1.16-4.1.94-2.92,1.27-4.97.69-5.29.09-7.52-.19-2.86,1.14-3.02,1.77.09,2.35.68,1.56,1.22,1.72-.16.2-8.42.2-8.42c0,0-1.66-.45-2.46-2.13s-1.13-2.15-.91-4.43,2.86-21.85,2.86-21.85c0,0,.06-2.2.69-3.21s1.08-2.81,1.08-2.81Z"/>
    <path class="cls-1" d="m131.1,115.18s.59,3.5.88,4.38,3.49,7.52,3.49,7.52c0,0,3.98,7.43,4.48,8.73s.66,2.95,1.66,2.89,2.88-1.44,4.38-3.3,4.83-6.15,6.36-8.88,3.5-6.13,3.5-6.13c0,0-1.07-.06-.7-.84s.67-1.27,1.03-1.03.92-1.2.92-1.2c0,0-2.46.56-4.54.71s-3.03.15-5.24.19-6.25-.51-6.25-.51c0,0-.48,1.09.93,1.28s1.63.38,1.52,1.05-.69,1.87-1.22,1.62-1.39-1.53-1.78-2.12-.9-1.21-1.59-1.35-3.28-.97-4.88-1.84-2.94-1.2-2.94-1.2Z"/>
  </g>
</svg>