<?xml version="1.0" encoding="UTF-8"?>
<svg id="Layer_1" data-name="Layer 1" xmlns="http://www.w3.org/2000/svg" viewBox="0 0 370.29 535.21">
  <defs>
    <style>
      .cls-1 {
        stroke-width: 0px;
      }
    </style>
  </defs>
  <path class="cls-1" d="m250.92,477.14c-.75,1.59-.61,3.29-.53,4.96.12,2.62.31,5.24.41,7.87.16,3.93.33,7.87.36,11.8.02,2.32-.26,4.64-.36,6.97-.34,8.25-.65,16.51-.98,24.76-.02.57-.21,1.14-.32,1.71h-1.32c.25-4.23.57-8.45.75-12.68.26-6.13.41-12.27.61-18.41.01-.37.06-.73.07-1.09.07-2.26.25-4.53.17-6.79-.16-4.74-.44-9.48-.68-14.22-.12-2.31-.25-4.62-.38-6.93-6.83-.66-13.39-1.07-19.88-2-3.13-.45-5.35.41-7.75,2.23-4.44,3.35-9.17,6.29-14.47,8.17-7.37,2.62-14.42,2.61-21.09-2.16-2.12-1.51-4.59-2.57-6.98-3.67-8.24-3.78-16.56-7.37-24.58-11.64-5.15-2.75-10.94-3.35-17-4.13.46,1.17.82,2.02,1.13,2.9,1.56,4.25,3.19,8.48,4.65,12.78,1.12,3.32,2.03,6.69,1.21,10.29-.29,1.26-.32,2.62-.26,3.92.17,3.5.43,6.99.69,10.48.48,6.41.96,12.81,1.48,19.22.37,4.58.8,9.16,1.2,13.74h-.88c-.28-2.1-.64-4.18-.82-6.29-.68-7.93-1.26-15.87-1.97-23.8-.5-5.61-.78-11.23-.69-16.86,0-.29-.07-.61.02-.88,1.03-3.23-.08-6.26-1.07-9.21-1.7-5.06-3.71-10.01-5.53-15.03-.41-1.14-1.14-1.59-2.26-1.68-4.66-.34-9.33-.66-13.99-1.05-6.11-.51-12.22-1.02-18.32-1.67-1.87-.2-3.69-.85-5.52-1.37-6.12-1.73-12.22-3.55-18.35-5.24-5.86-1.61-10.84-4.69-15.19-8.87-.21-.2-.44-.38-.5-.44-12.99,2.79-26.08,3.78-39.07,5.5-.07,0-.19-.34-.43-.8,6.44-1.13,12.79-1.77,19.09-2.72,6.25-.94,12.68-.86,18.95-3.19-.45-.49-.74-.86-1.08-1.19-6.95-6.63-12.98-14.08-19.25-21.33-5.64-6.52-11.95-12.46-18.04-18.58-3.77-3.78-7.68-7.43-11.54-11.12-1.95-1.86-3.94-3.69-5.88-5.51.26-.75.66-.9,1.18-.45,1.48,1.3,2.97,2.6,4.41,3.95,3.14,2.96,6.27,5.94,9.38,8.93,2.38,2.28,4.74,4.57,7.09,6.89,7.25,7.14,14.28,14.46,20.55,22.52,2.77,3.57,6.1,6.71,9.18,10.04.29.31.64.57,1.07.95-.43-2.5-.91-4.82-1.21-7.16-.37-2.9-.68-5.8-.87-8.72-.74-11.03-.88-22.07-.96-33.12-.05-6.73.83-13.28,2.51-19.74,4.34-16.6,10.08-32.7,17.85-48.03,3.32-6.54,7.07-12.79,12.03-18.28,5.05-5.58,9.62-11.62,14.95-16.92,6.58-6.55,13.88-12.35,21.63-17.52.61-.41,1.25-.77,1.87-1.15,3.51-2.13,7.17-3.39,11.42-3.21,5.78.25,11.57,0,17.36.09,2.99.05,5.99.28,8.96.62,3.61.41,6.94,1.72,10,3.69,8.24,5.29,15.54,11.71,22.13,18.91,2.01,2.2,3.65,4.76,5.37,7.21,3.72,5.3,8,10,12.9,14.28,4,3.49,7.43,7.66,10.86,11.75,5.69,6.78,11.16,13.74,16.73,20.62.16.2.38.35.81.38-.31-.7-.61-1.41-.95-2.1-5.23-10.72-10.49-21.42-15.68-32.16-3.9-8.08-6.26-16.69-8.35-25.37-.63-2.63-1.34-5.24-2.08-7.84-1.19-4.19-1.12-8.24,1.21-12.06.11-.19.21-.38.3-.58.03-.06,0-.13,0-.44-1.43-1-3.02-2.03-4.53-3.16-4.73-3.56-9.6-6.97-14.09-10.82-3.09-2.64-5.74-5.82-8.41-8.92-4.97-5.75-9.83-11.6-14.68-17.46-.68-.82-1.34-1.29-2.38-1.21-.22.01-.44-.07-.65-.07-2.94.02-5.85-.15-8.53-2.02-1.69,5.28-3.37,10.24-4.83,15.28-.5,1.72-.45,3.61-.56,5.43-.08,1.32.36,2.43,1.6,3.13.57.32,1.03.85,1.61,1.13,5.79,2.85,10.45,7.22,15.3,11.33,6.91,5.86,13.8,11.76,20.67,17.68,5.07,4.37,9.53,9.33,13.39,14.77,3.73,5.25,7.17,10.7,10.69,16.09.44.67,1.19,1.38.46,2.65-.42-.53-.8-.9-1.06-1.35-3.97-6.76-8.34-13.26-13.16-19.45-4.8-6.16-10.51-11.36-16.49-16.34-7.13-5.94-14.12-12.06-21.19-18.07-2.51-2.13-5.08-4.22-8.13-5.55-1.36-.6-2.22-2.17-3.96-2.03-.12,0-.27-.28-.4-.45-2.9-3.73-6.64-6.51-10.98-8.06-8.35-2.99-15.92-7.36-23.4-11.98-1.31-.81-2.65-1.57-3.88-2.49-5.85-4.41-12.54-6.9-19.58-8.5-6.77-1.54-13.6-2.83-20.36-4.4-3.48-.81-6.9-1.89-10.28-3.05-4.05-1.4-8.19-2.13-12.46-2.28-2.77-.09-5.56-.41-8.32-.22-4.14.28-7.78,1.91-10.66,5-.82.88-.84,2-.74,3.11.21,2.25.6,4.5.65,6.75.04,2.11-.16,4.23-.43,6.33-.47,3.69-1.12,7.36-1.6,11.05-.95,7.24-2.81,14.21-6.2,20.7-5.2,9.98-8.97,20.49-11.89,31.32-3.68,13.63-6.46,27.46-8.78,41.39-1.25,7.5-2.59,14.98-3.69,22.5-.85,5.78-1.39,11.6-2.09,17.4-.66,5.45-.85,10.92-.9,16.41-.06,5.81.73,11.52,1.57,17.24,1.46,9.9,3.03,19.78,4.52,29.68.12.76.02,1.56.02,2.49-1.45-1.41-1.51-3.18-1.82-4.86-.55-2.93-1.13-5.85-1.62-8.78-.4-2.44-.69-4.9-1.04-7.34-.31-2.16-.67-4.32-.96-6.48-.44-3.24-.7-6.52-1.27-9.74-1.17-6.61-.87-13.26-.8-19.9.03-3.19.5-6.38.8-9.57.29-3.04.55-6.09.93-9.12.45-3.61.96-7.22,1.52-10.81.78-4.96,1.61-9.92,2.47-14.87.52-3.01,1.17-6,1.72-9.01.74-4.08,1.33-8.19,2.17-12.25,1.28-6.2,2.64-12.38,4.13-18.53,1.37-5.66,3.01-11.24,4.41-16.89.45-1.82.67-3.74.69-5.62.07-9.08-.02-18.17.05-27.25.05-6.58.09-13.17.49-19.73.31-5.07.72-10.2,2.19-15.11.91-3.06,2.01-6.11,3.39-8.99,2.45-5.15,5.06-10.24,7.82-15.22,2.19-3.95,4.7-7.72,7.11-11.55,2.21-3.52,4.44-7.02,6.75-10.48.59-.88.54-1.54.07-2.4-1.36-2.49-2.72-4.99-3.98-7.54-1.55-3.14-3.02-6.31-4.49-9.49-1.27-2.74-1.37-5.76-1.88-8.66-.54-3.08-.58-6.25-.8-9.38-.16-2.26-.35-4.53-.34-6.79.01-2.4.2-4.81.41-7.2.2-2.25.47-4.49.81-6.72.62-4.18,1.26-8.35,1.99-12.51.57-3.23,1.18-6.45,1.99-9.63,1.32-5.22,2.72-10.43,4.24-15.6,1.13-3.85,2.4-7.66,3.8-11.42,3.33-8.91,6.88-17.73,12.49-25.52,1.74-2.42,3.66-4.72,5.67-6.92,2.27-2.48,4.74-4.79,7.12-7.17,2.72-2.72,5.96-4.71,9.32-6.48,1.06-.56,2.36-.9,3.56-.94,3.59-.12,7.18-.09,10.77-.02,3.14.06,6.27.26,9.4.39.29.01.62.08.87-.02,2.57-1.05,5.33-.69,7.98-1.14,1.79-.31,3.62-.41,5.43-.54,2.62-.19,5.25-.27,7.86-.51,2.61-.24,5.21-.59,7.81-.92,3.18-.4,6.34-.98,9.53-1.22,4.15-.3,8.32-.48,12.47-.43,2.31.03,4.63.53,6.9,1.01,9.13,1.93,17.66,5.46,25.84,9.87,4.04,2.18,8.01,4.5,11.14,7.98.39.43.86.89,1.38,1.06,2.6.81,4.38,2.83,6.48,4.36,1.4,1.02,2.59,2.33,3.91,3.48.48.42,1.04.76,1.58,1.11.23.16.63.21.72.42,1.26,2.64,3.23,4.71,5.16,6.87,2.22,2.49,4.08,5.31,5.94,8.09,2.6,3.87,5.25,7.72,7.51,11.78,2.28,4.1,3.59,8.63,4.25,13.29.45,3.18.78,6.38,1.02,9.58.09,1.2-.24,2.44-.38,3.66-.55,4.86-2.2,9.41-4.02,13.9-.78,1.91-.35,2.6,1.74,2.4,1.87-.18,3.72-.64,5.59-.9,2.23-.31,4.48-.53,6.71-.82,5.46-.7,10.95-.45,16.43-.42,2.91.02,5.82.34,8.73.49.79.04,1.58-.12,2.37-.06.75.06,1.49.32,2.24.44,2.4.39,4.64,1.24,6.74,2.44,1.98,1.14,3.5,2.53,3.17,5.19-.2,1.58-.04,3.21-.04,4.73-1.3,1.47-3.12,1.26-4.63,1.84-1.48.56-2.98,1.08-4.43,1.7-1.66.71-2.55,2.17-3.1,3.77-.4,1.17.2,2.23,1.05,3.34,1-.46,2-.89,2.96-1.37,2.88-1.44,5.82-2.78,8.61-4.39,2.62-1.52,5.49-2.01,8.37-2.26,4.14-.36,8.31-.47,12.47-.49,11.87-.06,23.74.08,35.6-.08,3.89-.05,7.51.82,11.04,2.16,1.42.54,2.79.9,4.22.71,2.42-.32,3.65,1.03,4.56,2.91,1.53,3.13,2.11,6.53,2.61,9.94.27,1.87.2,3.8.51,5.67.8,4.8.46,9.63.36,14.45-.05,2.53-.76,5.05-1.15,7.58-.72,4.71-1.96,9.28-3.76,13.7-.16.4-.31.82-.44,1.23-.88,2.74-2.75,4.06-5.63,4.34-2.1.21-4.13.98-6.23,1.27-2,.28-4.05.26-6.08.36-.51.02-1.03-.02-1.54-.02-3.86.04-3.96.42-5.02,3.87-.72,2.34-.82,4.86-1.19,7.31-.03.21-.04.44-.11.63-1.35,3.55-2.92,7.03-4.02,10.65-.97,3.2-3.01,5.48-5.04,7.99-4.6,5.67-9.57,11.17-12.72,17.83-2.16,4.57-4.19,9.28-4.54,14.49-.14,2.01-.87,4.01-.84,6,.07,3.83.27,7.65,1.18,11.44.69,2.89.8,5.91,1.32,8.85.71,4.01,1.59,7.98,2.34,11.98.23,1.21.18,2.48.41,3.69.69,3.63,1.56,7.22,2.18,10.86.71,4.16,1.16,8.36,1.86,12.52.42,2.52,1.13,4.98,1.67,7.48.26,1.19.43,2.4.68,3.6.83,3.99,1.71,7.96,2.5,11.96,1.19,6.02,2.32,12.06,3.46,18.09,1.36,7.18,2.61,14.38,4.07,21.54,1.82,8.95,2.37,17.99,1.91,27.07-.22,4.28-1.08,8.54-1.79,12.79-.93,5.62-1.95,11.23-3.03,16.82-.75,3.87-1.63,7.71-2.51,11.54-.51,2.21-1.18,4.38-1.69,6.59-.95,4.15-3.16,7.68-5.52,11.11-3.15,4.58-6.46,9.04-10.45,12.97-2.23,2.2-4.71,3.92-7.5,5.26-1.64.79-3.25,1.7-4.98,2.24-2.07.65-4.23,1.08-6.38,1.39-2.23.32-4.51.37-6.76.54-3.35.25-6.69.54-10.04.74-1.9.12-3.81.17-5.71.12-3.94-.1-7.89-.23-11.82-.45-1.91-.1-3.78-.18-5.6.55.48-1.38-.44-1.14-1.63-1.22.37.83.63,1.4.89,1.98Zm-24.4-153.23c-1.11-1.37-2.02-2.5-2.94-3.63-3.38-4.14-6.71-8.38-10.85-11.76-4.99-4.08-9.11-8.85-12.83-14.04-2.13-2.97-4.13-6.09-6.62-8.74-5.21-5.55-10.97-10.54-17.15-15.01-3.75-2.72-7.66-5.21-12.4-5.8-3.26-.4-6.54-.75-9.82-.82-6.08-.13-12.16.02-18.24-.06-2.34-.03-4.5.47-6.55,1.51-1.5.76-3.05,1.49-4.4,2.47-4.6,3.37-9.21,6.74-13.65,10.32-3.41,2.75-6.76,5.63-9.81,8.77-3.61,3.72-6.81,7.83-10.29,11.69-6.26,6.95-11.5,14.56-15.62,22.97-6.77,13.85-12.03,28.25-16.21,43.07-2.39,8.49-3.91,17.1-3.56,25.98.32,8.33.54,16.66.9,24.99.18,4.23.54,8.45.9,12.68.38,4.52,1.46,8.79,4.6,12.31,3.92,4.4,8.5,7.84,14.19,9.57,6.08,1.84,12.2,3.58,18.32,5.31,2.81.79,5.61,1.79,8.49,2.12,6.45.75,12.94,1.12,19.42,1.7,6.47.59,12.95,1.14,19.4,1.93,4.72.58,9.31,1.76,13.64,3.91,6.68,3.32,13.45,6.45,20.18,9.67.98.47,1.91.5,2.97.21,3.54-.98,7.02-2.19,10.14-4.1,4.36-2.67,8.78-5.32,12.8-8.46,7.15-5.57,14.23-11.26,20.95-17.34,7.62-6.9,13.88-15.05,19.68-23.53,6.96-10.18,13.03-20.85,17.78-32.24,3.13-7.49,4.19-15.2,1.84-23.15-.6-2.03-1.34-3.97-2.93-5.55-3.27-3.25-6.42-6.62-9.58-9.98-2.26-2.4-4.45-4.85-6.67-7.28-.97-1.06-1.92-2.14-2.85-3.17-3.81,3.28-7.46,6.42-11.12,9.57-4.87,4.2-10.3,7.37-16.4,9.53-11.59,4.1-23.4,7.48-35.23,10.79-2.53.71-5.07,1.42-7.63,2.04-.76.19-1.6.74-2.51.03.54-1,1.47-.98,2.27-1.2,13.84-3.74,27.66-7.52,41.19-12.27,5.48-1.93,10.78-4.17,15.25-8.02,2.55-2.19,5.21-4.26,7.76-6.45,1.88-1.61,3.67-3.33,5.58-5.07-3.92-4.87-7.74-9.63-11.57-14.39-.73.44-1.24.74-1.73,1.04-7.16,4.42-14.65,7.9-23.19,8.7-11.78,1.1-23.54,2.35-35.31,3.55-5.3.54-10.6,1.09-15.9,1.64-.65.07-1.32.21-1.41-.92.63-.11,1.18-.25,1.73-.31,5.45-.56,10.89-1.12,16.34-1.67,10.75-1.09,21.51-2.15,32.26-3.26,4.58-.47,9.14-1.09,13.45-2.9,4.46-1.87,8.74-4.06,12.94-6.93ZM55.15,163.91c1.1-.97,1.04-1.99.82-3.01-.28-1.28-.61-2.56-.97-3.82-.58-2.04-1.28-4.05-1.78-6.1-.81-3.38,1.08-5.66,4.59-5.85,2.04-.11,3.74.6,5.27,1.81,3.59,2.84,5.81,6.62,6.74,11.01.47,2.21,1.61,3.7,3.23,4.97,1.44,1.13,2.9,2.25,4.47,3.16,2.16,1.26,4.48,2.17,7.07,2.08,2.95-.1,5.62.77,8.08,2.35,1.91,1.23,3.77,2.55,5.73,3.68,6.63,3.84,13.32,4,19.92-.02,2.3-1.4,4.43-3.11,6.61-4.71,3.24-2.37,6.6-4.15,10.84-4.18,4.17-.03,6.15-1.91,7.34-5.97.12-.42.25-.84.34-1.27,1.07-5,2.19-10,3.19-15.02,2.36-11.83,4.56-23.69,7.05-35.49,1.04-4.92,2.55-9.75,4.02-14.57.46-1.5,1.33-2.94,2.3-4.2,1.6-2.1,3.98-2.25,5.93-.46.85.78,1.64,1.73,2.16,2.75,1.69,3.32,3.4,6.64,4.81,10.09,1.66,4.05,3.03,8.23,4.49,12.36,1.16,3.27,3.23,5.3,6.89,5.43,4.89.19,9.78.44,14.66.71,5.04.28,10.11.58,14.83,2.58,2.32.99,4.19.51,5.82-1.07,1.46-1.42,2.88-2.95,3.99-4.65,5.2-7.99,9.84-16.27,12.87-25.36,1.67-5,2.99-9.99,2.6-15.42-.64-8.74-3.06-16.81-7.92-24.09-2.8-4.2-5.66-8.38-8.78-12.34-2.79-3.55-5.77-7.01-9.04-10.12-3.27-3.12-7-5.76-10.52-8.61-8.4-6.79-17.82-11.74-27.98-15.3-7.63-2.68-15.43-4.58-23.6-3.79-5.59.55-11.17,1.31-16.75,1.97-3.19.37-6.37.95-9.57,1.03-4.69.12-9.35.45-13.95,1.29-4.07.74-8.16.61-12.25.5-3.29-.09-6.57-.3-9.85-.41-2.4-.08-4.64.46-6.65,1.85-1.02.71-2.13,1.31-3.1,2.07-7.24,5.7-13.52,12.28-18.55,20.05-6.31,9.75-10.36,20.51-13.66,31.51-2.72,9.09-4.86,18.37-6.86,27.65-2.16,10-3.63,20.13-3.31,30.43.1,3.29.06,6.61.53,9.85.44,3.09,1.02,6.3,2.3,9.1,2.99,6.51,6.36,12.85,9.75,19.17,1.02,1.9,2.56,3.55,3.97,5.21.47.55,1.28.8,1.89,1.16Zm171.06,307.81c3.04.32,5.5.62,7.97.84,4.44.41,8.87.79,13.31,1.14,1.73.14,3.46.16,5.19.28,3.79.28,7.57.74,11.35.84,3.94.1,7.89-.07,11.82-.26,4.45-.21,8.9-.46,13.33-.9,4.62-.46,8.99-1.74,13.14-3.96,8.2-4.39,13.58-11.46,18.42-19.01,3.83-6,5.71-12.78,7.02-19.73,1.7-8.98,3.42-17.95,5.13-26.93,1.71-8.99,1.91-18.06.8-27.08-.95-7.75-2.47-15.44-3.96-23.12-2.91-15.07-6.11-30.09-8.92-45.18-3.35-17.96-6.45-35.97-9.6-53.97-.81-4.63-1.2-9.35-.47-13.98,1.39-8.84,4.24-17.17,9.82-24.36,3.09-3.99,6.28-7.91,9.27-11.98,1.55-2.11,2.95-4.38,4.07-6.74,2.52-5.32,3.81-11.04,4.86-16.81.25-1.4.41-2.81.62-4.29h-9.35c-1.21,2.12-2.21,4.26-3.57,6.14-1.84,2.56-3.06,5.31-3.62,8.38-.33,1.8-.58,3.61-.85,5.41-.11.7-.44.85-1.12.46.11-1.2.15-2.43.34-3.63.59-3.7,1.36-7.36,3.67-10.45,1.82-2.43,3.13-5.1,4.27-7.89,2.11-5.19,3.09-10.66,3.92-16.16.35-2.32.61-4.64.01-6.96-.81-3.15-2.43-4.09-5.51-3.18-.7.2-1.39.46-2.05.77-4.74,2.23-7.6,6.04-9.13,10.95-.94,3-1.86,6.01-2.76,9.02-.69,2.32-1.97,4.23-3.82,5.77-1.29,1.08-2.59,2.14-3.86,3.24-4.43,3.82-9.1,7.45-12.59,12.18-4.43,6-8.63,12.17-12.8,18.36-1.43,2.12-2.25,4.57-2.59,7.17-.09.67.05,1.61-1.05,2.17-.08-.67-.21-1.13-.18-1.59.23-3.53,1.55-6.7,3.49-9.58,4.52-6.73,8.95-13.53,14.29-19.94-2.15,0-2.48-1.53-2.73-3.06-.12-.72-.05-1.46-.05-2.19,0-1.73,0-3.46,0-5.4-2.55.26-4.5-.96-6.5-2-1.75-.92-3.41-2-5.18-2.88-.66-.33-1.59-.54-2.27-.36-2.25.61-4.29,1.71-6.08,3.08,2.17,3.14,4.21,6.17,6.32,9.15,1.95,2.75,2.18,5.66.98,8.74-1.04,2.65-2.13,5.29-3.2,7.93-2.45,6.03-4.66,12.16-7.42,18.04-2.9,6.18-3.96,12.67-4.24,19.34-.28,6.8-.34,13.6-.46,20.4-.08,4.47-.1,8.93-.17,13.4-.08,5.34-.16,10.68-.29,16.02-.1,3.8-.29,7.6-.43,11.39-.07,1.83-.06,3.66-.21,5.48-.34,4.29-.75,8.58-1.11,12.87-.37,4.29-.64,8.6-1.08,12.88-.81,7.92-1.55,15.85-2.68,23.72-.41,2.89.44,4.74,2.32,6.71,5.2,5.45,10.27,11.02,15.31,16.62,1.26,1.4,2.26,3.04,3.33,4.6.82,1.19,1.47,2.51,2.36,3.64,1.26,1.61,2.68,3.1,4.03,4.63,4.65,5.26,9.32,10.5,14.7,15.06,2.9,2.46,5.69,5.04,8.55,7.55.53.47,1.27.8.65,2.03-5.27-4.33-10.37-8.66-15.07-13.41-4.7-4.74-9.11-9.76-13.95-14.97,0,.9-.02,1.39,0,1.87.15,3.97-.35,7.87-1,11.78-1.03,6.22-3.07,12.03-6.55,17.3-1.97,2.99-3.84,6.07-6.02,8.92-6.62,8.66-13.39,17.21-20.06,25.84-4.13,5.35-8.81,10.17-13.94,14.56-1.92,1.65-3.86,3.28-6.18,5.27Zm-77.89-288.58c-.99.77-1.47.04-2.09-.27-.62-.31-1.36-.68-2-.6-1.66.2-3.33.52-4.94,1-2.14.64-2.89,4.04-1.32,5.61,3.21,3.2,6.33,6.51,9.68,9.56,3.1,2.82,5.79,5.98,8.47,9.18,1.73,2.07,3.58,4.06,5.51,5.93,1.75,1.7,3.84,2.98,6.31,3.34,1.66.24,3.35.35,5.02.34,3.58-.03,7.17-.09,10.74-.29,4.08-.23,8.16-.58,12.22-.96,6.09-.58,11.16-3.11,15.2-7.81,4.2-4.89,7.95-10.11,11.7-15.35,2.26-3.16,3.58-6.65,4.32-10.45,1.46-7.51,1.64-15.08,1.27-22.68-.23-4.82-.47-9.65.76-14.41.22-.84.33-1.73.39-2.6.14-2.28.07-4.48-1.39-6.49-.84-1.16-1.44-2.58-1.79-3.98-.6-2.41-1.92-4.41-3.26-6.41-1.52-2.28-1.97-2.51-4.51-1.54-3.3,1.25-6.63,2-10.19,2.33-8.87.81-17.68,2.17-26.53,3.12-3.39.36-6.82.77-10.25.26-1.23-.18-2.45-.5-3.68-.55-1.45-.06-1.77.36-1.84,1.9q1.71.86,1.71,1.87c-.67-.07-1.34-.15-2.18-.24.07.77.07,1.35.18,1.91,1.28,6.38,2.61,12.74,3.87,19.12,1.19,6.03,2.31,12.05,1.15,18.26-.51,2.73-1.61,4.71-4.31,5.48-3.01.86-6.06,1.63-9.13,2.28-3.21.68-6.47,1.16-9.7,1.74-.1.02-.17.18-.28.3.26.32.53.65.89,1.09Zm112.63,118.93c.25-1.59.58-2.93.64-4.29.21-4.74.32-9.48.47-14.23.23-7.23-.16-14.46.35-21.7.55-7.86.36-15.78.55-23.67.06-2.77.16-5.54.44-8.29.37-3.56.72-7.1-.02-10.66-.26-1.27-.39-2.59-.42-3.89-.06-3.15-.07-6.3.01-9.45.03-1.15.19-2.36.61-3.41,2.13-5.36,5.88-9.52,10.15-13.27,1.2-1.05,2.4-2.1,3.64-3.19-1.77-3.77-4.24-6.78-7.08-9.79-.89.28-1.91.6-2.93.93-1.58.5-3.14,1.1-4.74,1.5-2.1.52-4.24.86-6.34,1.34-1.81.41-3.59,1.16-5.42,1.33-3.25.3-6.53.29-9.8.39-1.1.03-2.25-.19-3.28.06-1.41.34-2.54-.15-3.7-.7-.66-.31-1.25-.77-1.9-1.09-.75-.38-1.55-.68-2.63-1.15-.31,1.12-.62,1.98-.77,2.87-.76,4.37-2.23,8.42-4.73,12.14-1.03,1.53-2.09,2.96-3.38,4.26-.81.82-1.03,1.7-.24,2.72.8,1.03,1.71,2.04,2.23,3.21,1.62,3.64,3.86,6.78,6.9,9.36.16.14.38.32.4.51.19,1.73,1.59,2.68,2.48,3.96.25.36.61.68.71,1.08.75,3.09,2.17,5.98,2.44,9.24.32,3.84,1.15,7.63,1.58,11.46.43,3.83.43,7.72.99,11.53.87,5.96,1.21,12.02,2.96,17.84-.27,3.17,1.18,5.99,2.18,8.79,1.57,4.36,3.79,8.49,5.83,12.67.53,1.09,1.29,2.12,2.13,3.01,2.89,3.09,5.96,5.98,9.73,8.6ZM75.39,166.7c-.11.77-.21,1.63-.37,2.49-.76,4.24-1.47,8.49-2.31,12.71-.7,3.55-2.69,6.38-5.75,8.22-2.96,1.77-5.73,3.71-8.06,6.26-.62.68-1.34,1.28-2.25,2.15.8.11,1.28.23,1.75.24,3.83.14,7.5,1,11.1,2.31,2.88,1.04,5.82,1.97,8.8,2.65,6.91,1.57,13.88,2.89,20.79,4.45,7.48,1.69,14.55,4.34,20.78,8.99,2.28,1.7,4.79,3.1,7.24,4.57,5.52,3.31,11.1,6.56,17.21,8.69,3.44,1.2,6.54,2.88,9.38,5.12.89.7,1.8,1.38,2.8,2.14.53-7.69.93-8.78,3.31-15.05.87-2.31,1.52-4.7,2.17-6.77-1.81-1.9-3.52-3.42-4.91-5.2-4.07-5.2-8.58-9.97-13.4-14.46-2.24-2.09-4.37-4.31-6.58-6.44-2.13-2.06-1.07-6.78,1.76-7.61,1.43-.42,2.9-.7,4.8-1.15-5.6-4.08-10.83-7.89-16.16-11.77-.67.45-1.28.84-1.86,1.26-1.77,1.29-3.49,2.67-5.31,3.89-7.49,5.02-15.16,5.15-22.91.62-1.96-1.14-3.81-2.47-5.73-3.67-2.09-1.31-4.32-2.11-6.85-1.97-.86.05-1.78-.03-2.59-.29-2.22-.7-4.39-1.52-6.85-2.38Zm187.49,198.42c.08.68.07.88.12,1.08,2.15,8.25,1.24,16.24-2.05,24.02-5.4,12.8-12.34,24.73-20.44,36.01-5.35,7.45-11.17,14.52-17.92,20.73-7.32,6.74-15.1,12.96-23.14,18.83-6.05,4.43-12.43,8.27-19.72,10.35-.15.04-.25.25-.39.4,3.72,2.05,7.34,4.1,11.02,6.05,2.79,1.48,5.81,1.99,8.94,1.48,3.33-.54,6.57-1.4,9.65-2.84,5.07-2.38,9.66-5.49,14.12-8.83,6.46-4.83,12.65-9.98,17.93-16.1,3.87-4.49,7.51-9.17,11.21-13.8,6.13-7.66,12.24-15.33,17.6-23.57,2.48-3.81,4.97-7.66,6.21-12.06,1.7-5.98,2.96-12.07,2.81-18.36-.08-3.64-1.01-6.9-3.53-9.65-3.21-3.5-6.36-7.06-9.54-10.6-.86-.96-1.74-1.89-2.9-3.15Zm-31.01-193.98c0,1.59,0,2.83,0,4.07,0,3.08.95,4.35,3.91,5.1.63.16,1.31.15,1.96.15,6.52-.01,12.98-.54,19.35-2.1,4.48-1.1,4.48-1.02,6.4-5.21.66-1.44.91-2.81.62-4.44-.6-3.37-1.09-6.79-1.33-10.2-.15-2.08-.68-3.81-2.05-5.39-2.14-2.46-2.26-4.93-.75-7.87.59-1.14,1.07-2.43,1.21-3.7.23-2.25.18-4.53.21-6.8.03-2.63-.59-4.95-2.36-7.09-1.22-1.47-2.08-3.37-2.65-5.22-.86-2.75-.11-5.19,2.35-6.95,2.25-1.61,4.81-2.46,7.45-3.08.25-.06.6.32,1.23.69-.78.28-1.17.41-1.55.56-1.76.69-3.59,1.27-5.28,2.12-3.3,1.65-4.15,4.04-2.53,7.91.64,1.52,1.66,2.93,2.68,4.25,1.09,1.4,1.62,2.91,1.61,4.66-.01,2.93-.01,5.86,0,8.79,0,1.5-.39,2.88-1.1,4.19-1.71,3.16-1.63,4.4.69,7.11,1.26,1.47,1.81,3.12,2.02,4.98.38,3.41.75,6.82,1.26,10.21.33,2.24.29,4.36-.91,6.36-.43.72-.76,1.51-1.38,2.74,2.36-.81,4.2-1.37,5.88-2.44,3.02-1.92,6.04-3.86,9.65-4.83.11-.38.3-.79.33-1.21.37-5.76.89-11.52,1.02-17.28.11-4.96-.21-9.94-.39-14.91-.15-4.09-.4-8.18-.58-12.27-.04-.85-.16-1.59-1.06-1.97-1.17-.5-1.45-1.58-1.57-2.7-.38-3.75,1.14-6.46,4.63-7.85,1.96-.78,4.05-1.22,6.06-1.89.58-.19,1.46-.57,1.54-.99.32-1.69.5-3.43-.26-5.24-1.51.79-2.82,1.58-4.21,2.18-11.57,5-23.72,6.67-36.22,6.26-1.3-.04-2.66-.09-3.89-.45-3.02-.89-4.08-5.14-1.82-7.31,1.15-1.1,2.59-1.89,3.87-2.86.77-.58,1.79-.94,2.15-2.09-4.68-.16-9.03,1.76-13.72,1.04-1.74,3.21-3.21,6.6-5.28,9.58-2.53,3.65-3.28,7.5-2.96,11.79.1,1.33.39,2.31,1.66,2.74,2.54.85,3.21,2.65,2.97,5.14-.16,1.67-.03,3.37-.03,5.05,0,2.89,0,5.79,0,9.11.54-.76.84-1.14,1.1-1.56,3.17-5.18,6.33-10.36,9.5-15.54.42-.69.85-1.37,1.26-2.06.49-.83.71-1.64.49-2.69-.41-1.91.33-2.74,2.31-2.81,2.05-.07,4.1,0,6.15-.03,1.19-.02,1.92.54,2.36,1.59.62,1.49.66,3.02.11,4.5-.82,2.19-1.76,4.33-2.71,6.47-.64,1.46-1.38,2.87-2.16,4.47.99.1,1.75.17,2.78.27v7.86c.93.15,1.57.26,2.24.37v19.12c-1.09.09-2.02.16-3,.24-.55,2.4.22,4.85-.54,7.34h-18.71Zm-176.42-16.84c.47,1.61.94,2.99,1.26,4.4.33,1.48.8,2.96.34,4.51-.52,1.76-1.79,2.4-3.32,1.4-1.08-.71-1.99-1.7-2.89-2.66-.78-.83-1.44-1.78-2.27-2.82-.45.62-.79,1.07-1.1,1.54-2.08,3.27-4.11,6.58-6.24,9.82-5.79,8.82-11.02,17.95-15.28,27.63-1.65,3.75-3.22,7.49-3.72,11.64-1.15,9.66-1.6,19.37-1.79,29.08-.18,9.01-.04,18.02-.03,27.03,0,.52.09,1.04.13,1.56.45-.41.61-.81.79-1.19,1.98-4.48,3.83-9.02,5.99-13.41,2.4-4.88,4.44-9.89,5.43-15.23.9-4.88,1.27-9.86,2.23-14.72.73-3.7,1.08-7.36.74-11.11-.15-1.67-.44-3.35-.38-5.02.03-1.03.3-2.3.95-3.02,3.2-3.53,7.28-5.29,12.06-5.36,1.46-.02,2.93.02,4.38.14,1.19.1,2.19-.26,3.01-1.04,2.12-2.01,4.25-4,6.26-6.11,2.7-2.82,4.25-6.24,5.15-10.02,1.24-5.22,1.65-10.51,2.03-15.84.27-3.82-.12-7.45-1.76-10.9-.8-1.69-1.63-3.4-3.16-4.65-2.95,1.46-5.77,2.84-8.83,4.35Zm258.68,8.78c.17-.46.35-.92.52-1.37.71-1.84,1.25-3.77,2.15-5.51,2.48-4.82,6.41-7.89,11.76-9.01,2.29-.48,4.3.57,5.14,2.74.44,1.13.63,2.4.71,3.62.31,4.58-.72,9.02-1.66,13.45-.57,2.7-1.42,5.34-2.18,8.14,3.58,0,7.09.01,10.59,0,1.37,0,2.74-.16,4.1-.09,1.05.05,1.66-.29,1.98-1.28.65-2.01,1.44-3.99,1.99-6.03,1.96-7.16,2.48-14.53,2.95-21.88.36-5.69.43-11.4-.25-17.08-.57-4.75-1.69-9.34-3.67-13.71-.78-1.73-1.18-1.9-3.06-1.68-1.01.12-2.04.17-3.06.18-9.37.06-18.74.11-28.1.17-.55,0-1.1.1-1.74.16.49,1.79,1,3.38,1.37,5,1.27,5.67,1.3,11.46,1.39,17.22.14,8.99-.39,17.95-.95,26.98Zm-53.44,148.01c.19-2.14.44-4.08.47-6.03,0-.48-.62-1.15-1.12-1.43-4.4-2.41-7.69-6.07-10.92-9.74-3.49-3.97-5.73-8.69-7.03-13.77-1.38-5.37-2.55-10.81-3.57-16.26-.9-4.81-1.59-9.66-2.14-14.52-.6-5.29-.85-10.63-1.43-15.92-.23-2.12-.28-4.33-1.22-6.47-6.16,1.66-12.21,3.3-18.35,4.96.24.99.41,1.76.61,2.53,1.95,7.5,3.8,15.03,5.87,22.5,2.67,9.58,5.33,19.16,8.35,28.63,2.69,8.42,7.5,15.48,14.83,20.69,4.66,3.31,9.97,4.29,15.66,4.85Zm-131.76-142.78c.13.34.14.53.24.6,5.2,3.8,10.39,7.61,15.62,11.36.46.33,1.24.44,1.82.35,4.83-.79,9.66-1.56,14.46-2.53,2.06-.41,4.04-1.23,6.03-1.95,1.35-.49,2.06-1.59,2.34-2.97.84-4.19,1.07-8.39.23-12.61-1.87-9.44-3.71-18.89-5.61-28.62-4.1-1.64-8.47-3.39-12.95-5.19-.2.76-.37,1.32-.48,1.88-.55,2.87-1.03,5.75-1.63,8.61-1.14,5.43-2.34,10.86-3.51,16.28-.51,2.35-.84,4.76-1.54,7.05-1.09,3.56-3.53,5.63-7.38,5.79-.51.02-1.02.09-1.53.1-2.17.04-4.14.74-6.1,1.84Zm131.71,144.08c-1.06-.16-1.98-.32-2.9-.42-6.28-.7-11.86-2.92-16.61-7.22-4.64-4.21-8.13-9.17-10.58-14.91-3.22-7.56-5.2-15.52-7.42-23.4-.98-3.48-1.88-6.98-2.92-10.85-.37.64-.55.92-.7,1.23-.85,1.69-1.66,3.4-2.56,5.07-1.79,3.32-2.29,6.7-1.01,10.35.8,2.27,1.32,4.64,1.89,6.98,1.77,7.25,3.51,14.51,6.43,21.41,5.31,12.54,11.59,24.62,17.66,36.8.22.44.52.83.91,1.43,3.74-.91,7.46-1.72,11.1-2.75,1.36-.39,2.58-1.32,3.85-2.01.93-.51,1.21-1.33,1.29-2.37.22-2.99.59-5.96.83-8.94.28-3.41.49-6.83.75-10.39Zm-96.27-181.62c1.43-2.47,2.31-2.82,4.92-2.43,2.16.32,4.37.8,6.52.63,6.48-.5,12.93-1.28,19.39-1.97,5.01-.53,10.02-1.08,15.02-1.65,1.64-.19,3.32-.3,4.89-1.28-5.1-2.47-10.48-2.91-15.85-3.28-4.96-.34-9.93-.42-14.9-.63-3.61-.15-6.31-1.69-7.67-5.18-.37-.95-.7-1.92-1.07-2.88-1.89-4.99-3.65-10.03-5.74-14.93-1.11-2.6-2.62-5.07-4.28-7.36-1.59-2.2-3.49-2.09-4.95.16-1.06,1.63-1.89,3.47-2.51,5.32-2.67,8-4.18,16.28-5.83,24.52-.37,1.85-.68,3.71-1.03,5.67,4.45,1.8,8.71,3.52,13.08,5.29Zm45.14,81.08c-.37.11-.55.11-.64.2-3.28,3.14-7.4,4.25-11.73,4.91-5.13.78-10.28,1.21-15.47,1.25-1.94.01-3.88.16-6.08.25.49.71.78,1.19,1.13,1.62,1.67,2.03,3.36,4.05,5.06,6.05,4.44,5.23,8.83,10.52,13.38,15.66,3.61,4.07,8.09,7.17,12.45,10.37,3.11,2.29,6.31,4.47,9.63,6.81.64-1.5,1.16-2.78,1.74-4.03.51-1.1.56-2.14.25-3.36-2.93-11.69-5.8-23.39-8.67-35.09-.38-1.54-.69-3.09-1.04-4.65Zm93.02-35.93c1.44,0,2.53.03,3.62-.02.42-.02.91-.11,1.23-.35,2.39-1.78,4.2-3.81,4.62-7.06,1.13-8.63,1.66-17.29,1.95-25.97.14-4.23-.1-8.47-.26-12.71-.1-2.55-.2-5.12-.61-7.64-.38-2.36-1.11-4.68-1.8-6.98-.16-.55-.77-1.33-1.22-1.37-2.14-.16-4.31-.3-6.57.1.11.74.18,1.31.29,1.87,1.51,7.09,2.45,14.26,2.33,21.51-.1,6.42-.4,12.85-.8,19.26-.27,4.22-.81,8.42-1.38,12.61-.29,2.15-.88,4.26-1.41,6.73Zm52.14-1.58c1.55-.35,2.81-.74,4.1-.92,2.63-.36,4.21-1.92,5-4.31,1.06-3.19,2.07-6.39,2.95-9.63,1.63-5.95,2.46-12.05,2.33-18.2-.13-5.98-.51-11.97-1.77-17.85-.41-1.91-1.15-3.78-1.97-5.57-.35-.77-1.24-1.71-1.98-1.8-1.97-.25-3.99-.09-6.06-.09.05.44.04.67.11.86,2.44,6.39,3.03,13.07,2.98,19.83-.03,5.11-.18,10.23-.46,15.34-.26,4.81-.73,9.63-2.3,14.24-.89,2.63-1.89,5.22-2.94,8.1Zm-103.98-37.08c-2.18-.25-2.19-.25-2.95,1.09-.9,1.59-1.69,3.25-2.69,4.78-3.94,5.99-7.94,11.94-11.91,17.9-.44.66-1.13,1.34-1.18,2.05-.15,2.23-.06,4.47-.06,6.68h18.04v-7.23c1.26-.07,2.19-.12,3.4-.19-.09-5.67.14-11.24-.14-16.76-.97-.17-1.67-.29-2.51-.44v-7.88Zm54.42-3.91c-4.26,0-8.06-.01-11.85,0-2,0-2.36.38-2.48,2.44-.1,1.82-.22,3.64-.28,5.46-.21,6.64-.41,13.29-.6,19.93-.02.63.09,1.27.15,2.13,4.69-.23,9.22-.34,13.91-1.03.38-9.67.75-19.14,1.13-28.94Zm-17.68-30.88c-1.08-.61-1.63-.97-2.22-1.24-3.98-1.8-8.2-2.71-12.53-2.86-6.72-.22-13.45-.45-20.17.22-1.25.12-2.21.53-3.12,1.35-1.09.97-2.27,1.84-3.43,2.72-.87.66-1.8,1.25-2.68,1.91-1.2.9-1.49,2.05-1.06,3.5.45,1.53,1.45,2.35,2.98,2.49,1.67.15,3.35.35,5.02.28,4.01-.16,8.03-.31,12.02-.74,6.72-.71,13.25-2.27,19.51-4.85,1.81-.75,3.53-1.71,5.69-2.78Zm-72.46,128.28c6.42-1.74,12.57-3.4,18.68-5.05-.5-4.13-2.7-7.05-4.91-9.98-3.48-4.6-7.06-9.13-9.64-14.33-.08-.16-.34-.22-.46-.3-2.55,2.98-5.09,5.89-7.55,8.88-.34.41-.42,1.22-.3,1.78,1.32,6.2,2.71,12.4,4.17,19Zm14.82-67.33c.46-.55.7-.8.89-1.07,6.21-8.7,12.44-17.4,17.29-26.97,1.72-3.39,3.18-6.9,4.76-10.36.54-1.18.57-2.42.19-3.63-.14-.44-.54-1.05-.9-1.11-2.58-.46-5.17-.76-7.93.34.95,2.85-.75,4.88-2.08,7.07-3.73,6.12-7.45,12.25-11.06,18.44-.75,1.29-1.28,2.82-1.48,4.3-.58,4.2.07,8.39.33,12.99Zm118.55,11.65c1.31-.12,2.38-.26,3.46-.31.93-.04,1.51-.48,1.81-1.32,1.22-3.44,2.65-6.82,3.6-10.34,1.85-6.9,1.74-14.03,2.05-21.1.16-3.64-.13-7.3-.24-10.95-.14-4.56-1-8.99-2.58-13.28-1.1-2.98-3.9-4.49-7.19-3.91.02.14,0,.3.07.43,3.31,7.11,4.28,14.71,4.3,22.42.01,5.32-.35,10.66-.82,15.96-.39,4.43-1.03,8.85-1.86,13.21-.56,2.99-1.63,5.88-2.58,9.18Zm-62.29-56.18c.92,9.07,1.47,18.04,1.38,27.03-.09,9-1.79,17.84-2.93,26.63,3.81,2.51,5.52,3.07,7.59,2.52.4-3.49.81-7.01,1.24-10.78-.83.08-1.38.13-1.93.19-1.78.2-2.59-.47-2.72-2.26-.03-.44-.01-.88,0-1.32.08-1.46.21-2.91.26-4.37.17-4.9.29-9.79.47-14.69.09-2.41.22-4.82.44-7.21.17-1.83.85-2.39,2.68-2.52.71-.05,1.42-.07,2.31-.11-.75-5.45-1.5-10.73-2.81-16.12-2.19,1.1-4.07,2.04-5.99,3Zm-6.28,3.3c1.27,15.97,2.05,31.91-.08,47.75,1.33.74,2.38,1.32,3.46,1.92,3.73-17.39,3.91-34.64,1.68-52.29-1.8.93-3.39,1.75-5.07,2.62Zm-14.66,99.65c.15.02.3.05.45.07.22-.53.45-1.05.67-1.58,2.8-6.83,5.6-13.66,8.39-20.49,1.11-2.71,2.26-5.39,3.28-8.13.41-1.12.52-2.35.86-4.02-.92.62-1.43.89-1.84,1.26-2.05,1.87-4.09,3.76-6.12,5.66-3.08,2.89-4.87,6.51-5.97,10.55-.96,3.54-.74,7.09-.39,10.66.2,2.01.44,4.01.66,6.02Zm-21.9,118.06c.91,1.79,1.58,3.41,2.51,4.87.89,1.4,2,2.68,3.11,3.91,1.17,1.3,2.4,2.56,3.72,3.71,1.27,1.11,2.06,2.75,3.81,3.6.83-6.94,1.66-13.68,2.25-20.75-4.85,2.98-10.07,3.4-15.4,4.65Zm61.66-207.85c-.39-6.32-1.29-12.31-2.77-18.17-3.16.08-5.98.56-8.7,1.72.94,5.61,1.86,11.03,2.77,16.45h8.7Zm-3.41,43.42c.76-3.84,1.52-7.67,2.3-11.58-.59-.1-.87-.2-1.14-.18-2.25.13-4.5.31-6.75.42-1.01.05-1.4.56-1.51,1.49-.29,2.6-.62,5.2-.91,7.8-.07.62-.01,1.25-.01,2.05h8.01Zm-235.98,14.06c2.49-1.47,4.56-3.28,5.52-6.11,1.83-5.44,2.55-11.08,3.14-16.75.05-.48.01-1.15-.28-1.43-1.01-.98-2.15-1.82-3.47-2.91-.32,9.54-.59,18.72-4.9,27.2Zm164.12-54.27c0-2.52.06-5.05-.05-7.57-.02-.55-.56-1.15-.99-1.59-.34-.34-.89-.49-1.35-.71-1.59-.76-2.55-1.83-2.3-3.78.17-1.32.03-2.68.03-4.45-1.75,2.02-3.15,3.64-4.74,5.47,1.44.07,2.55.28,3.24,1.4,1.48,2.42,3.3,4.64,4.02,7.49.34,1.35.79,2.72,2.13,3.74Zm66.37,50.38c3.04-2.73,6.07-5.45,9.1-8.17-.07-.14-.14-.28-.22-.42h-8.88v8.58Zm-240.89-32.48c2.9-1.44,5.55-2.75,8.33-4.13-1.49-1.74-3.16-2.86-5.33-2.72-2.41.16-4.44,1.31-3.67,4.58.15.63.37,1.25.68,2.27Zm238.8,32.69c.24-.33.51-.54.52-.76.15-2.59.28-5.19.34-7.78,0-.21-.64-.65-.91-.6-.3.05-.71.52-.76.85-.18,1.29-.45,2.62-.29,3.88.18,1.42-.17,3.04,1.1,4.41Zm-63.34-20.54c-.11-.03-.22-.05-.32-.08-.14.43-.38.85-.41,1.28-.16,2.11-.28,4.22-.39,6.33-.07,1.39-.13,2.77-.14,4.16,0,.81.46.97,1.26.61v-12.31Z"/>
  <path class="cls-1" d="m8.15,535.21c.06-1.15.02-2.31.21-3.44.57-3.44,1.2-6.87,1.85-10.3.71-3.71,1.41-7.42,2.24-11.1.46-2.05,1.14-4.05,1.81-6.05.44-1.32.37-2.59-.11-3.85-.85-2.25-1.64-4.53-2.61-6.73-1.66-3.78-2.79-7.64-2.76-11.83.01-2.09-.51-4.18-.69-6.28-.13-1.6-.12-3.22-.14-4.82-.15-10.9-.28-21.79-.46-32.69-.03-1.67-.29-3.33-.4-5-.03-.48.13-.97.51-1.52.18.41.46.8.51,1.22.32,2.75.75,5.51.83,8.27.14,4.54.02,9.08.04,13.62.03,4.39-.07,8.79.19,13.17.37,6.19.89,12.37,1.59,18.53.48,4.2,2.74,7.84,4.33,11.68.27.64,1.08,1.15,1.75,1.53,4.39,2.49,9.14,3.94,14.17,4.22,3.38.18,6.42,1.32,9.48,2.52,2.72,1.07,5.41,2.21,8.17,3.17,3.68,1.28,7.44,1.54,11.22.41,8.68-2.61,17.38-5.16,26.01-7.9,7.59-2.41,15.11-5.08,22.67-7.59.89-.29,1.81-1,2.86-.37-.09.99-.88.96-1.45,1.16-9.77,3.27-19.53,6.6-29.34,9.77-6.33,2.04-12.74,3.83-19.1,5.76-5.33,1.62-10.53,1.16-15.64-.87-2.65-1.05-5.27-2.17-7.92-3.22-2.74-1.09-5.56-1.7-8.52-1.86-4.06-.22-7.87-1.52-11.54-3.22-.52-.24-1.04-.49-1.67-.78-2.21,10.86-4.4,21.55-6.56,32.25-.14.71-.14,1.45-.21,2.17h-1.32Z"/>
  <path class="cls-1" d="m51.23,535.21c.71-.48,1.36-1.09,2.13-1.4,5.9-2.37,11.81-4.72,17.74-7.01,6.24-2.4,12.08-5.58,17.83-8.93,16.21-9.42,31.79-19.81,47.25-30.4.53-.36,1.07-.69,1.56-1,.77.5.6.95.12,1.3-1.06.77-2.17,1.49-3.25,2.24-15.04,10.3-30.25,20.32-46.01,29.48-7.23,4.2-14.75,7.72-22.66,10.48-4.26,1.48-8.34,3.48-12.51,5.24h-2.2Z"/>
  <path class="cls-1" d="m31.89,535.21c-4.29-2.88-8.58-5.76-12.87-8.66-.62-.42-1.19-.91-1.78-1.37.07-.14.14-.28.22-.42.38.02.85-.1,1.12.08,4.92,3.25,9.82,6.54,14.71,9.83.17.11.24.36.36.54h-1.76Z"/>
  <path class="cls-1" d="m19.77,493.62c2.86-.55,5.71-1.14,8.58-1.64,6.38-1.11,12.39-3.38,18.36-5.8,10.37-4.2,20.54-8.86,30.51-13.94,2.46-1.26,4.83-2.7,7.25-4.06.67.32.65.79.12,1.16-.95.68-1.92,1.34-2.95,1.89-14.37,7.58-29.03,14.55-44.47,19.68-5.31,1.76-10.94,2.54-16.43,3.72-.33.07-.75-.25-1.13-.38.05-.21.1-.42.15-.63Z"/>
  <path class="cls-1" d="m52.68,473.5c-.86-.4-1.38-.59-1.84-.87-3.85-2.3-7.99-3.46-12.5-3.42-7.16.06-14.32.02-21.48.02h-2.34c-.05-.15-.1-.29-.15-.44.24-.25.46-.71.71-.73,1.38-.07,2.77-.04,4.16-.04,5.25,0,10.5.1,15.74-.04,5.49-.15,10.8.35,15.67,3.13.78.44,1.8.7,2.04,2.38Z"/>
  <path class="cls-1" d="m167.59,473.88c.03.27.19.6.08.8-5.33,10.23-10.44,20.59-17.42,29.84-.37.49-.89.85-1.65,1.56-.04-.76-.2-1.18-.05-1.36,7.19-9.13,12.23-19.53,17.63-29.72.25-.47.62-.88.93-1.31.16.06.33.12.49.19Z"/>
</svg>