<?xml version="1.0" encoding="UTF-8"?>
<svg id="SKHLMC" xmlns="http://www.w3.org/2000/svg" viewBox="0 0 288.26 381.24">
  <defs>
    <style>
      .cls-1 {
        fill: #010101;
        stroke-width: 0px;
      }
    </style>
  </defs>
  <path class="cls-1" d="m171.42,275.08c-.31.65-.25,1.34-.22,2.03.05,1.07.13,2.14.17,3.22.07,1.61.13,3.22.15,4.82,0,.95-.11,1.9-.15,2.85-.14,3.37-.27,6.75-.4,10.12,0,.23-.09.47-.13.7h-.54c.1-1.73.23-3.45.31-5.18.11-2.5.17-5.01.25-7.52,0-.15.02-.3.03-.45.03-.92.1-1.85.07-2.77-.07-1.94-.18-3.87-.28-5.81-.05-.94-.1-1.89-.16-2.83-2.79-.27-5.47-.44-8.12-.82-1.28-.18-2.19.17-3.17.91-1.81,1.37-3.75,2.57-5.91,3.34-3.01,1.07-5.89,1.07-8.62-.88-.87-.62-1.88-1.05-2.85-1.5-3.37-1.54-6.77-3.01-10.04-4.76-2.1-1.12-4.47-1.37-6.95-1.69.19.48.34.83.46,1.18.64,1.74,1.3,3.47,1.9,5.22.46,1.36.83,2.73.49,4.2-.12.51-.13,1.07-.11,1.6.07,1.43.18,2.86.28,4.28.2,2.62.39,5.23.6,7.85.15,1.87.33,3.74.49,5.61h-.36c-.11-.86-.26-1.71-.34-2.57-.28-3.24-.51-6.48-.8-9.73-.2-2.29-.32-4.59-.28-6.89,0-.12-.03-.25,0-.36.42-1.32-.03-2.56-.44-3.76-.69-2.07-1.52-4.09-2.26-6.14-.17-.47-.47-.65-.92-.69-1.9-.14-3.81-.27-5.72-.43-2.5-.21-4.99-.42-7.49-.68-.76-.08-1.51-.35-2.26-.56-2.5-.71-4.99-1.45-7.5-2.14-2.39-.66-4.43-1.92-6.21-3.62-.09-.08-.18-.16-.2-.18-5.31,1.14-10.66,1.54-15.96,2.25-.03,0-.08-.14-.18-.33,2.63-.46,5.23-.72,7.8-1.11,2.55-.38,5.18-.35,7.74-1.3-.18-.2-.3-.35-.44-.49-2.84-2.71-5.3-5.75-7.87-8.72-2.3-2.66-4.88-5.09-7.37-7.59-1.54-1.54-3.14-3.04-4.72-4.54-.8-.76-1.61-1.51-2.4-2.25.11-.31.27-.37.48-.18.6.53,1.21,1.06,1.8,1.61,1.28,1.21,2.56,2.43,3.83,3.65.97.93,1.94,1.87,2.9,2.82,2.96,2.92,5.84,5.91,8.4,9.2,1.13,1.46,2.49,2.74,3.75,4.1.12.13.26.23.44.39-.18-1.02-.37-1.97-.49-2.93-.15-1.18-.28-2.37-.36-3.56-.3-4.51-.36-9.02-.39-13.53-.02-2.75.34-5.43,1.03-8.07,1.77-6.78,4.12-13.36,7.29-19.63,1.36-2.67,2.89-5.23,4.92-7.47,2.06-2.28,3.93-4.75,6.11-6.91,2.69-2.68,5.67-5.05,8.84-7.16.25-.17.51-.31.76-.47,1.43-.87,2.93-1.39,4.67-1.31,2.36.1,4.73,0,7.09.04,1.22.02,2.45.11,3.66.25,1.48.17,2.84.7,4.09,1.51,3.37,2.16,6.35,4.78,9.04,7.73.82.9,1.49,1.95,2.19,2.95,1.52,2.17,3.27,4.09,5.27,5.84,1.63,1.43,3.04,3.13,4.44,4.8,2.33,2.77,4.56,5.61,6.84,8.43.07.08.16.14.33.16-.13-.29-.25-.58-.39-.86-2.14-4.38-4.29-8.75-6.41-13.14-1.59-3.3-2.56-6.82-3.41-10.37-.26-1.07-.55-2.14-.85-3.2-.49-1.71-.46-3.37.49-4.93.04-.08.09-.16.12-.24.01-.02,0-.05,0-.18-.58-.41-1.23-.83-1.85-1.29-1.93-1.45-3.92-2.85-5.76-4.42-1.26-1.08-2.35-2.38-3.44-3.64-2.03-2.35-4.02-4.74-6-7.13-.28-.34-.55-.53-.97-.49-.09,0-.18-.03-.27-.03-1.2,0-2.39-.06-3.49-.83-.69,2.16-1.38,4.18-1.97,6.24-.2.7-.18,1.48-.23,2.22-.03.54.15.99.65,1.28.23.13.42.35.66.46,2.37,1.16,4.27,2.95,6.25,4.63,2.82,2.39,5.64,4.81,8.45,7.22,2.07,1.79,3.89,3.81,5.47,6.04,1.52,2.15,2.93,4.37,4.37,6.57.18.27.49.56.19,1.08-.17-.22-.33-.37-.43-.55-1.62-2.76-3.41-5.42-5.38-7.95-1.96-2.52-4.29-4.64-6.74-6.68-2.91-2.43-5.77-4.93-8.66-7.38-1.03-.87-2.08-1.72-3.32-2.27-.56-.25-.91-.89-1.62-.83-.05,0-.11-.11-.16-.18-1.18-1.52-2.71-2.66-4.49-3.29-3.41-1.22-6.51-3.01-9.56-4.9-.54-.33-1.08-.64-1.59-1.02-2.39-1.8-5.12-2.82-8-3.47-2.77-.63-5.56-1.16-8.32-1.8-1.42-.33-2.82-.77-4.2-1.25-1.65-.57-3.35-.87-5.09-.93-1.13-.04-2.27-.17-3.4-.09-1.69.11-3.18.78-4.36,2.04-.34.36-.34.82-.3,1.27.09.92.25,1.84.27,2.76.02.86-.07,1.73-.18,2.59-.19,1.51-.46,3.01-.65,4.52-.39,2.96-1.15,5.81-2.53,8.46-2.12,4.08-3.67,8.37-4.86,12.8-1.5,5.57-2.64,11.22-3.59,16.91-.51,3.06-1.06,6.12-1.51,9.19-.35,2.36-.57,4.74-.85,7.11-.27,2.23-.35,4.46-.37,6.71-.02,2.37.3,4.71.64,7.04.6,4.05,1.24,8.08,1.85,12.13.05.31,0,.64,0,1.02-.59-.58-.62-1.3-.74-1.99-.22-1.2-.46-2.39-.66-3.59-.16-1-.28-2-.42-3-.13-.88-.27-1.77-.39-2.65-.18-1.32-.29-2.66-.52-3.98-.48-2.7-.36-5.42-.33-8.13.01-1.3.2-2.61.33-3.91.12-1.24.22-2.49.38-3.73.18-1.48.39-2.95.62-4.42.32-2.03.66-4.05,1.01-6.08.21-1.23.48-2.45.7-3.68.3-1.67.54-3.35.89-5.01.52-2.53,1.08-5.06,1.69-7.57.56-2.31,1.23-4.59,1.8-6.9.18-.74.27-1.53.28-2.3.03-3.71,0-7.42.02-11.13.02-2.69.04-5.38.2-8.06.13-2.07.29-4.17.89-6.17.37-1.25.82-2.5,1.39-3.67,1-2.1,2.07-4.18,3.2-6.22.89-1.61,1.92-3.15,2.91-4.72.9-1.44,1.81-2.87,2.76-4.28.24-.36.22-.63.03-.98-.56-1.02-1.11-2.04-1.63-3.08-.63-1.28-1.23-2.58-1.83-3.88-.52-1.12-.56-2.35-.77-3.54-.22-1.26-.24-2.55-.33-3.83-.07-.92-.14-1.85-.14-2.77,0-.98.08-1.97.17-2.94.08-.92.19-1.83.33-2.75.25-1.71.51-3.41.81-5.11.23-1.32.48-2.64.81-3.93.54-2.13,1.11-4.26,1.73-6.37.46-1.57.98-3.13,1.55-4.67,1.36-3.64,2.81-7.24,5.1-10.43.71-.99,1.5-1.93,2.32-2.83.93-1.01,1.94-1.96,2.91-2.93,1.11-1.11,2.44-1.92,3.81-2.65.43-.23.96-.37,1.45-.38,1.47-.05,2.93-.04,4.4,0,1.28.02,2.56.11,3.84.16.12,0,.25.03.36,0,1.05-.43,2.18-.28,3.26-.47.73-.13,1.48-.17,2.22-.22,1.07-.08,2.15-.11,3.21-.21s2.13-.24,3.19-.38c1.3-.16,2.59-.4,3.89-.5,1.7-.12,3.4-.2,5.1-.18.94.01,1.89.22,2.82.41,3.73.79,7.22,2.23,10.56,4.03,1.65.89,3.27,1.84,4.55,3.26.16.18.35.36.56.43,1.06.33,1.79,1.16,2.65,1.78.57.42,1.06.95,1.6,1.42.2.17.42.31.65.45.09.07.26.09.29.17.51,1.08,1.32,1.92,2.11,2.81.91,1.02,1.67,2.17,2.43,3.31,1.06,1.58,2.15,3.15,3.07,4.81.93,1.68,1.47,3.53,1.74,5.43.18,1.3.32,2.61.42,3.91.04.49-.1,1-.16,1.5-.22,1.99-.9,3.85-1.64,5.68-.32.78-.14,1.06.71.98.76-.07,1.52-.26,2.28-.37.91-.13,1.83-.22,2.74-.34,2.23-.29,4.47-.18,6.71-.17,1.19,0,2.38.14,3.57.2.32.02.65-.05.97-.02.31.02.61.13.92.18.98.16,1.9.51,2.75,1,.81.47,1.43,1.03,1.3,2.12-.08.65-.02,1.31-.02,1.93-.53.6-1.27.51-1.89.75-.6.23-1.22.44-1.81.69-.68.29-1.04.89-1.27,1.54-.16.48.08.91.43,1.36.41-.19.82-.36,1.21-.56,1.18-.59,2.38-1.14,3.52-1.79,1.07-.62,2.24-.82,3.42-.92,1.69-.15,3.4-.19,5.1-.2,4.85-.02,9.7.03,14.55-.03,1.59-.02,3.07.34,4.51.88.58.22,1.14.37,1.72.29.99-.13,1.49.42,1.86,1.19.63,1.28.86,2.67,1.07,4.06.11.76.08,1.55.21,2.32.33,1.96.19,3.93.15,5.9-.02,1.03-.31,2.06-.47,3.1-.29,1.92-.8,3.79-1.54,5.6-.07.16-.13.34-.18.5-.36,1.12-1.12,1.66-2.3,1.77-.86.09-1.69.4-2.55.52-.82.11-1.65.11-2.48.15-.21,0-.42,0-.63,0-1.58.02-1.62.17-2.05,1.58-.29.96-.34,1.99-.49,2.99-.01.09-.02.18-.04.26-.55,1.45-1.19,2.87-1.64,4.35-.4,1.31-1.23,2.24-2.06,3.26-1.88,2.32-3.91,4.56-5.2,7.29-.88,1.87-1.71,3.79-1.86,5.92-.06.82-.36,1.64-.34,2.45.03,1.56.11,3.13.48,4.67.28,1.18.33,2.41.54,3.62.29,1.64.65,3.26.96,4.9.09.49.07,1.01.17,1.51.28,1.48.64,2.95.89,4.44.29,1.7.47,3.42.76,5.12.17,1.03.46,2.03.68,3.06.11.49.18.98.28,1.47.34,1.63.7,3.25,1.02,4.89.49,2.46.95,4.93,1.41,7.39.56,2.93,1.07,5.88,1.66,8.8.74,3.66.97,7.35.78,11.06-.09,1.75-.44,3.49-.73,5.23-.38,2.3-.8,4.59-1.24,6.87-.31,1.58-.67,3.15-1.03,4.72-.21.9-.48,1.79-.69,2.69-.39,1.7-1.29,3.14-2.26,4.54-1.29,1.87-2.64,3.69-4.27,5.3-.91.9-1.92,1.6-3.06,2.15-.67.32-1.33.69-2.03.92-.85.27-1.73.44-2.61.57-.91.13-1.84.15-2.76.22-1.37.1-2.73.22-4.1.3-.78.05-1.56.07-2.33.05-1.61-.04-3.22-.09-4.83-.18-.78-.04-1.54-.07-2.29.22.2-.56-.18-.47-.67-.5.15.34.26.57.36.81l.02.02Zm-9.97-62.61c-.45-.56-.83-1.02-1.2-1.48-1.38-1.69-2.74-3.42-4.43-4.81-2.04-1.67-3.72-3.62-5.24-5.74-.87-1.21-1.69-2.49-2.71-3.57-2.13-2.27-4.48-4.31-7.01-6.13-1.53-1.11-3.13-2.13-5.07-2.37-1.33-.16-2.67-.31-4.01-.34-2.48-.05-4.97,0-7.45-.02-.96-.01-1.84.19-2.68.62-.61.31-1.25.61-1.8,1.01-1.88,1.38-3.76,2.75-5.58,4.22-1.39,1.12-2.76,2.3-4.01,3.58-1.48,1.52-2.78,3.2-4.2,4.78-2.56,2.84-4.7,5.95-6.38,9.39-2.77,5.66-4.92,11.54-6.62,17.6-.98,3.47-1.6,6.99-1.45,10.62.13,3.4.22,6.81.37,10.21.07,1.73.22,3.45.37,5.18.16,1.85.6,3.59,1.88,5.03,1.6,1.8,3.47,3.2,5.8,3.91,2.48.75,4.99,1.46,7.49,2.17,1.15.32,2.29.73,3.47.87,2.64.31,5.29.46,7.94.69,2.64.24,5.29.47,7.93.79,1.93.24,3.8.72,5.57,1.6,2.73,1.36,5.5,2.64,8.25,3.95.4.19.78.2,1.21.09,1.45-.4,2.87-.89,4.14-1.68,1.78-1.09,3.59-2.17,5.23-3.46,2.92-2.28,5.81-4.6,8.56-7.09,3.11-2.82,5.67-6.15,8.04-9.61,2.84-4.16,5.32-8.52,7.27-13.17,1.28-3.06,1.71-6.21.75-9.46-.25-.83-.55-1.62-1.2-2.27-1.34-1.33-2.62-2.71-3.91-4.08-.92-.98-1.82-1.98-2.73-2.97-.4-.43-.78-.87-1.16-1.3-1.56,1.34-3.05,2.62-4.54,3.91-1.99,1.72-4.21,3.01-6.7,3.89-4.74,1.68-9.56,3.06-14.4,4.41-1.03.29-2.07.58-3.12.83-.31.08-.65.3-1.03.01.22-.41.6-.4.93-.49,5.66-1.53,11.3-3.07,16.83-5.01,2.24-.79,4.4-1.7,6.23-3.28,1.04-.89,2.13-1.74,3.17-2.64.77-.66,1.5-1.36,2.28-2.07-1.6-1.99-3.16-3.93-4.73-5.88-.3.18-.51.3-.71.42-2.93,1.81-5.99,3.23-9.48,3.55-4.81.45-9.62.96-14.43,1.45-2.17.22-4.33.45-6.5.67-.27.03-.54.09-.58-.38.26-.04.48-.1.71-.13,2.23-.23,4.45-.46,6.68-.68,4.39-.45,8.79-.88,13.18-1.33,1.87-.19,3.73-.45,5.5-1.18,1.82-.76,3.57-1.66,5.29-2.83h0Zm-70.02-65.38c.45-.4.42-.81.34-1.23-.11-.52-.25-1.05-.4-1.56-.24-.83-.52-1.65-.73-2.49-.33-1.38.44-2.31,1.88-2.39.83-.04,1.53.25,2.15.74,1.47,1.16,2.37,2.71,2.75,4.5.19.9.66,1.51,1.32,2.03.59.46,1.18.92,1.83,1.29.88.51,1.83.89,2.89.85,1.21-.04,2.3.31,3.3.96.78.5,1.54,1.04,2.34,1.5,2.71,1.57,5.44,1.63,8.14,0,.94-.57,1.81-1.27,2.7-1.92,1.32-.97,2.7-1.7,4.43-1.71,1.7-.01,2.51-.78,3-2.44.05-.17.1-.34.14-.52.44-2.04.89-4.09,1.3-6.14.96-4.83,1.86-9.68,2.88-14.5.42-2.01,1.04-3.98,1.64-5.95.19-.61.54-1.2.94-1.72.65-.86,1.63-.92,2.42-.19.35.32.67.71.88,1.12.69,1.36,1.39,2.71,1.97,4.12.68,1.65,1.24,3.36,1.83,5.05.47,1.34,1.32,2.17,2.82,2.22,2,.08,4,.18,5.99.29,2.06.11,4.13.24,6.06,1.05.95.4,1.71.21,2.38-.44.6-.58,1.18-1.21,1.63-1.9,2.12-3.26,4.02-6.65,5.26-10.36.68-2.04,1.22-4.08,1.06-6.3-.26-3.57-1.25-6.87-3.24-9.84-1.14-1.72-2.31-3.42-3.59-5.04-1.14-1.45-2.36-2.86-3.69-4.14-1.34-1.27-2.86-2.35-4.3-3.52-3.43-2.77-7.28-4.8-11.43-6.25-3.12-1.1-6.3-1.87-9.64-1.55-2.28.22-4.56.54-6.84.8-1.3.15-2.6.39-3.91.42-1.92.05-3.82.18-5.7.53-1.66.3-3.33.25-5.01.2-1.34-.04-2.68-.12-4.02-.17-.98-.03-1.9.19-2.72.76-.42.29-.87.54-1.27.85-2.96,2.33-5.52,5.02-7.58,8.19-2.58,3.98-4.23,8.38-5.58,12.88-1.11,3.71-1.99,7.51-2.8,11.3-.88,4.09-1.48,8.23-1.35,12.43.04,1.34.02,2.7.22,4.02.18,1.26.42,2.57.94,3.72,1.22,2.66,2.6,5.25,3.98,7.83.42.78,1.05,1.45,1.62,2.13.19.22.52.33.77.47h0Zm69.9,125.78c1.24.13,2.25.25,3.26.34,1.81.17,3.62.32,5.44.47.71.06,1.41.07,2.12.11,1.55.11,3.09.3,4.64.34,1.61.04,3.22-.03,4.83-.11,1.82-.09,3.64-.19,5.45-.37,1.89-.19,3.67-.71,5.37-1.62,3.35-1.79,5.55-4.68,7.53-7.77,1.56-2.45,2.33-5.22,2.87-8.06.69-3.67,1.4-7.33,2.1-11,.7-3.67.78-7.38.33-11.07-.39-3.17-1.01-6.31-1.62-9.45-1.19-6.16-2.5-12.3-3.64-18.46-1.37-7.34-2.64-14.7-3.92-22.05-.33-1.89-.49-3.82-.19-5.71.57-3.61,1.73-7.02,4.01-9.95,1.26-1.63,2.57-3.23,3.79-4.9.63-.86,1.21-1.79,1.66-2.75,1.03-2.17,1.56-4.51,1.99-6.87.1-.57.17-1.15.25-1.75h-3.82c-.49.87-.9,1.74-1.46,2.51-.75,1.05-1.25,2.17-1.48,3.42-.13.74-.24,1.48-.35,2.21-.04.29-.18.35-.46.19.04-.49.06-.99.14-1.48.24-1.51.56-3.01,1.5-4.27.74-.99,1.28-2.08,1.74-3.22.86-2.12,1.26-4.36,1.6-6.6.14-.95.25-1.9,0-2.84-.33-1.29-.99-1.67-2.25-1.3-.29.08-.57.19-.84.31-1.94.91-3.11,2.47-3.73,4.47-.38,1.23-.76,2.46-1.13,3.69-.28.95-.8,1.73-1.56,2.36-.53.44-1.06.87-1.58,1.32-1.81,1.56-3.72,3.04-5.14,4.98-1.81,2.45-3.53,4.97-5.23,7.5-.58.87-.92,1.87-1.06,2.93-.04.27.02.66-.43.89-.03-.27-.09-.46-.07-.65.09-1.44.63-2.74,1.43-3.91,1.85-2.75,3.66-5.53,5.84-8.15-.88,0-1.01-.63-1.12-1.25-.05-.29-.02-.6-.02-.89v-2.21c-1.04.11-1.84-.39-2.66-.82-.72-.38-1.39-.82-2.12-1.18-.27-.13-.65-.22-.93-.15-.92.25-1.75.7-2.48,1.26.89,1.28,1.72,2.52,2.58,3.74.8,1.12.89,2.31.4,3.57-.42,1.08-.87,2.16-1.31,3.24-1,2.46-1.9,4.97-3.03,7.37-1.18,2.53-1.62,5.18-1.73,7.9-.11,2.78-.14,5.56-.19,8.34-.03,1.83-.04,3.65-.07,5.48-.03,2.18-.07,4.36-.12,6.55-.04,1.55-.12,3.11-.18,4.65-.03.75-.02,1.5-.09,2.24-.14,1.75-.31,3.51-.45,5.26-.15,1.75-.26,3.51-.44,5.26-.33,3.24-.63,6.48-1.1,9.69-.17,1.18.18,1.94.95,2.74,2.12,2.23,4.2,4.5,6.26,6.79.51.57.92,1.24,1.36,1.88.34.49.6,1.03.96,1.49.51.66,1.1,1.27,1.65,1.89,1.9,2.15,3.81,4.29,6.01,6.15,1.18,1.01,2.33,2.06,3.49,3.09.22.19.52.33.27.83-2.15-1.77-4.24-3.54-6.16-5.48-1.92-1.94-3.72-3.99-5.7-6.12,0,.37,0,.57,0,.76.06,1.62-.14,3.22-.41,4.81-.42,2.54-1.25,4.92-2.68,7.07-.8,1.22-1.57,2.48-2.46,3.64-2.71,3.54-5.47,7.03-8.2,10.56-1.69,2.19-3.6,4.16-5.7,5.95-.78.67-1.58,1.34-2.53,2.15h0Zm-31.83-117.92c-.4.31-.6.02-.85-.11s-.56-.28-.82-.25c-.68.08-1.36.21-2.02.41-.87.26-1.18,1.65-.54,2.29,1.31,1.31,2.59,2.66,3.96,3.91,1.27,1.15,2.37,2.44,3.46,3.75.71.85,1.46,1.66,2.25,2.42.72.69,1.57,1.22,2.58,1.36.68.1,1.37.14,2.05.14,1.46-.01,2.93-.04,4.39-.12,1.67-.09,3.33-.24,4.99-.39,2.49-.24,4.56-1.27,6.21-3.19,1.72-2,3.25-4.13,4.78-6.27.92-1.29,1.46-2.72,1.77-4.27.6-3.07.67-6.16.52-9.27-.09-1.97-.19-3.94.31-5.89.09-.34.13-.71.16-1.06.06-.93.03-1.83-.57-2.65-.34-.47-.59-1.05-.73-1.63-.25-.98-.78-1.8-1.33-2.62-.62-.93-.8-1.03-1.84-.63-1.35.51-2.71.82-4.16.95-3.62.33-7.22.89-10.84,1.27-1.39.15-2.79.31-4.19.11-.5-.07-1-.2-1.5-.22-.59-.02-.72.15-.75.78.47.23.7.49.7.76-.27-.03-.55-.06-.89-.1.03.31.03.55.07.78.52,2.61,1.07,5.21,1.58,7.81.49,2.46.94,4.92.47,7.46-.21,1.12-.66,1.92-1.76,2.24-1.23.35-2.48.67-3.73.93-1.31.28-2.64.47-3.96.71-.04,0-.07.07-.11.12.11.13.22.27.36.45h0Zm46.02,48.6c.1-.65.24-1.2.26-1.75.09-1.94.13-3.87.19-5.81.09-2.95-.07-5.91.14-8.87.22-3.21.15-6.45.22-9.67.02-1.13.07-2.26.18-3.39.15-1.45.29-2.9,0-4.36-.11-.52-.16-1.06-.17-1.59-.02-1.29-.03-2.57,0-3.86.01-.47.08-.96.25-1.39.87-2.19,2.4-3.89,4.15-5.42.49-.43.98-.86,1.49-1.3-.72-1.54-1.73-2.77-2.89-4-.36.11-.78.25-1.2.38-.65.2-1.28.45-1.94.61-.86.21-1.73.35-2.59.55-.74.17-1.47.47-2.21.54-1.33.12-2.67.12-4,.16-.45.01-.92-.08-1.34.02-.58.14-1.04-.06-1.51-.29-.27-.13-.51-.31-.78-.45-.31-.16-.63-.28-1.07-.47-.13.46-.25.81-.31,1.17-.31,1.79-.91,3.44-1.93,4.96-.42.63-.85,1.21-1.38,1.74-.33.34-.42.69-.1,1.11.33.42.7.83.91,1.31.66,1.49,1.58,2.77,2.82,3.82.07.06.16.13.16.21.08.71.65,1.1,1.01,1.62.1.15.25.28.29.44.31,1.26.89,2.44,1,3.78.13,1.57.47,3.12.65,4.68.18,1.56.18,3.15.4,4.71.36,2.44.49,4.91,1.21,7.29-.11,1.3.48,2.45.89,3.59.64,1.78,1.55,3.47,2.38,5.18.22.45.53.87.87,1.23,1.18,1.26,2.44,2.44,3.98,3.51h-.02Zm-75.82-55.31c-.04.31-.09.67-.15,1.02-.31,1.73-.6,3.47-.94,5.19-.29,1.45-1.1,2.61-2.35,3.36-1.21.72-2.34,1.52-3.29,2.56-.25.28-.55.52-.92.88.33.04.52.09.72.1,1.56.06,3.06.41,4.54.94,1.18.42,2.38.8,3.6,1.08,2.82.64,5.67,1.18,8.5,1.82,3.06.69,5.95,1.77,8.49,3.67.93.69,1.96,1.27,2.96,1.87,2.26,1.35,4.54,2.68,7.03,3.55,1.41.49,2.67,1.18,3.83,2.09.36.29.74.56,1.14.87.22-3.14.38-3.59,1.35-6.15.36-.94.62-1.92.89-2.77-.74-.78-1.44-1.4-2.01-2.12-1.66-2.12-3.51-4.07-5.48-5.91-.92-.85-1.79-1.76-2.69-2.63-.87-.84-.44-2.77.72-3.11.58-.17,1.18-.29,1.96-.47-2.29-1.67-4.43-3.22-6.6-4.81-.27.18-.52.34-.76.51-.72.53-1.43,1.09-2.17,1.59-3.06,2.05-6.19,2.1-9.36.25-.8-.47-1.56-1.01-2.34-1.5-.85-.54-1.77-.86-2.8-.8-.35.02-.73-.01-1.06-.12-.91-.29-1.79-.62-2.8-.97h0Zm76.61,81.08c.03.28.03.36.05.44.88,3.37.51,6.64-.84,9.81-2.21,5.23-5.04,10.11-8.35,14.71-2.19,3.04-4.56,5.93-7.32,8.47-2.99,2.75-6.17,5.3-9.46,7.69-2.47,1.81-5.08,3.38-8.06,4.23-.06.02-.1.1-.16.16,1.52.84,3,1.68,4.5,2.47,1.14.6,2.37.81,3.65.6,1.36-.22,2.68-.57,3.94-1.16,2.07-.97,3.95-2.24,5.77-3.61,2.64-1.97,5.17-4.08,7.33-6.58,1.58-1.83,3.07-3.75,4.58-5.64,2.5-3.13,5-6.26,7.19-9.63,1.01-1.56,2.03-3.13,2.54-4.93.69-2.44,1.21-4.93,1.15-7.5-.03-1.49-.41-2.82-1.44-3.94-1.31-1.43-2.6-2.88-3.9-4.33-.35-.39-.71-.77-1.18-1.29h0Zm-12.67-79.26v1.66c0,1.26.39,1.78,1.6,2.08.26.07.54.06.8.06,2.66,0,5.3-.22,7.91-.86,1.83-.45,1.83-.42,2.62-2.13.27-.59.37-1.15.25-1.81-.25-1.38-.45-2.77-.54-4.17-.06-.85-.28-1.56-.84-2.2-.87-1.01-.92-2.01-.31-3.22.24-.47.44-.99.49-1.51.09-.92.07-1.85.09-2.78.01-1.07-.24-2.02-.96-2.9-.5-.6-.85-1.38-1.08-2.13-.35-1.12-.04-2.12.96-2.84.92-.66,1.97-1.01,3.04-1.26.1-.02.25.13.5.28-.32.11-.48.17-.63.23-.72.28-1.47.52-2.16.87-1.35.67-1.7,1.65-1.03,3.23.26.62.68,1.2,1.1,1.74.45.57.66,1.19.66,1.9,0,1.2,0,2.39,0,3.59,0,.61-.16,1.18-.45,1.71-.7,1.29-.67,1.8.28,2.91.51.6.74,1.27.83,2.03.16,1.39.31,2.79.51,4.17.13.92.12,1.78-.37,2.6-.18.29-.31.62-.56,1.12.96-.33,1.72-.56,2.4-1,1.23-.78,2.47-1.58,3.94-1.97.04-.16.12-.32.13-.49.15-2.35.36-4.71.42-7.06.04-2.03-.09-4.06-.16-6.09-.06-1.67-.16-3.34-.24-5.01-.02-.35-.07-.65-.43-.8-.48-.2-.59-.65-.64-1.1-.16-1.53.47-2.64,1.89-3.21.8-.32,1.65-.5,2.48-.77.24-.08.6-.23.63-.4.13-.69.2-1.4-.11-2.14-.62.32-1.15.65-1.72.89-4.73,2.04-9.69,2.73-14.8,2.56-.53-.02-1.09-.04-1.59-.18-1.23-.36-1.67-2.1-.74-2.99.47-.45,1.06-.77,1.58-1.17.31-.24.73-.38.88-.85-1.91-.07-3.69.72-5.61.42-.71,1.31-1.31,2.7-2.16,3.91-1.03,1.49-1.34,3.06-1.21,4.82.04.54.16.94.68,1.12,1.04.35,1.31,1.08,1.21,2.1-.07.68-.01,1.38-.01,2.06v3.72c.22-.31.34-.47.45-.64,1.3-2.12,2.59-4.23,3.88-6.35.17-.28.35-.56.51-.84.2-.34.29-.67.2-1.1-.17-.78.13-1.12.94-1.15.84-.03,1.68,0,2.51-.01.49,0,.78.22.96.65.25.61.27,1.23.04,1.84-.34.89-.72,1.77-1.11,2.64-.26.6-.56,1.17-.88,1.83.4.04.72.07,1.14.11v3.21c.38.06.64.11.92.15v7.81c-.45.04-.83.07-1.23.1-.22.98.09,1.98-.22,3h-7.65Zm-72.09-6.88c.19.66.38,1.22.51,1.8.13.6.33,1.21.14,1.84-.21.72-.73.98-1.36.57-.44-.29-.81-.69-1.18-1.09-.32-.34-.59-.73-.93-1.15-.18.25-.32.44-.45.63-.85,1.34-1.68,2.69-2.55,4.01-2.37,3.6-4.5,7.33-6.24,11.29-.67,1.53-1.32,3.06-1.52,4.76-.47,3.95-.65,7.91-.73,11.88-.07,3.68-.02,7.36-.01,11.04,0,.21.04.42.05.64.18-.17.25-.33.32-.49.81-1.83,1.56-3.69,2.45-5.48.98-1.99,1.81-4.04,2.22-6.22.37-1.99.52-4.03.91-6.01.3-1.51.44-3.01.3-4.54-.06-.68-.18-1.37-.16-2.05.01-.42.12-.94.39-1.23,1.31-1.44,2.97-2.16,4.93-2.19.6,0,1.2,0,1.79.06.49.04.89-.11,1.23-.42.87-.82,1.74-1.63,2.56-2.5,1.1-1.15,1.74-2.55,2.1-4.09.51-2.13.67-4.29.83-6.47.11-1.56-.05-3.04-.72-4.45-.33-.69-.67-1.39-1.29-1.9-1.21.6-2.36,1.16-3.61,1.78h0Zm105.7,3.59c.07-.19.14-.38.21-.56.29-.75.51-1.54.88-2.25,1.01-1.97,2.62-3.22,4.81-3.68.94-.2,1.76.23,2.1,1.12.18.46.26.98.29,1.48.13,1.87-.29,3.69-.68,5.5-.23,1.1-.58,2.18-.89,3.33,1.46,0,2.9,0,4.33,0,.56,0,1.12-.07,1.68-.04.43.02.68-.12.81-.52.27-.82.59-1.63.81-2.46.8-2.93,1.01-5.94,1.21-8.94.15-2.33.18-4.66-.1-6.98-.23-1.94-.69-3.82-1.5-5.6-.32-.71-.48-.78-1.25-.69-.41.05-.83.07-1.25.07-3.83.02-7.66.04-11.48.07-.22,0-.45.04-.71.07.2.73.41,1.38.56,2.04.52,2.32.53,4.68.57,7.04.06,3.67-.16,7.33-.39,11.02h0Zm-21.84,60.48c.08-.87.18-1.67.19-2.46,0-.2-.25-.47-.46-.58-1.8-.98-3.14-2.48-4.46-3.98-1.43-1.62-2.34-3.55-2.87-5.63-.56-2.19-1.04-4.42-1.46-6.64-.37-1.97-.65-3.95-.87-5.93-.25-2.16-.35-4.34-.58-6.51-.09-.87-.11-1.77-.5-2.64-2.52.68-4.99,1.35-7.5,2.03.1.4.17.72.25,1.03.8,3.06,1.55,6.14,2.4,9.19,1.09,3.91,2.18,7.83,3.41,11.7,1.1,3.44,3.06,6.33,6.06,8.45,1.9,1.35,4.07,1.75,6.4,1.98h0Zm-53.84-58.34c.05.14.06.22.1.25,2.12,1.55,4.25,3.11,6.38,4.64.19.13.51.18.74.14,1.97-.32,3.95-.64,5.91-1.03.84-.17,1.65-.5,2.46-.8.55-.2.84-.65.96-1.21.34-1.71.44-3.43.09-5.15-.76-3.86-1.52-7.72-2.29-11.69-1.68-.67-3.46-1.39-5.29-2.12-.08.31-.15.54-.2.77-.22,1.17-.42,2.35-.67,3.52-.47,2.22-.96,4.44-1.43,6.65-.21.96-.34,1.95-.63,2.88-.45,1.45-1.44,2.3-3.02,2.37-.21,0-.42.04-.63.04-.89.02-1.69.3-2.49.75h0Zm53.82,58.87c-.43-.07-.81-.13-1.18-.17-2.57-.29-4.85-1.19-6.79-2.95-1.9-1.72-3.32-3.75-4.32-6.09-1.32-3.09-2.12-6.34-3.03-9.56-.4-1.42-.77-2.85-1.19-4.43-.15.26-.22.38-.29.5-.35.69-.68,1.39-1.05,2.07-.73,1.36-.94,2.74-.41,4.23.33.93.54,1.9.77,2.85.72,2.96,1.43,5.93,2.63,8.75,2.17,5.12,4.74,10.06,7.22,15.04.09.18.21.34.37.58,1.53-.37,3.05-.7,4.54-1.12.56-.16,1.05-.54,1.57-.82.38-.21.49-.54.53-.97.09-1.22.24-2.44.34-3.65.11-1.39.2-2.79.31-4.25h0Zm-39.34-74.21c.58-1.01.94-1.15,2.01-.99.88.13,1.79.33,2.66.26,2.65-.2,5.28-.52,7.92-.8,2.05-.22,4.09-.44,6.14-.67.67-.08,1.36-.12,2-.52-2.08-1.01-4.28-1.19-6.48-1.34-2.03-.14-4.06-.17-6.09-.26-1.48-.06-2.58-.69-3.13-2.12-.15-.39-.29-.78-.44-1.18-.77-2.04-1.49-4.1-2.35-6.1-.45-1.06-1.07-2.07-1.75-3.01-.65-.9-1.43-.85-2.02.07-.43.67-.77,1.42-1.03,2.17-1.09,3.27-1.71,6.65-2.38,10.02-.15.76-.28,1.52-.42,2.32,1.82.74,3.56,1.44,5.34,2.16h0Zm18.44,33.13c-.15.04-.22.04-.26.08-1.34,1.28-3.02,1.74-4.79,2.01-2.1.32-4.2.49-6.32.51-.79,0-1.59.07-2.48.1.2.29.32.49.46.66.68.83,1.37,1.65,2.07,2.47,1.81,2.14,3.61,4.3,5.47,6.4,1.48,1.66,3.31,2.93,5.09,4.24,1.27.94,2.58,1.83,3.93,2.78.26-.61.47-1.14.71-1.65.21-.45.23-.87.1-1.37-1.2-4.78-2.37-9.56-3.54-14.34-.16-.63-.28-1.26-.42-1.9h0Zm38.01-14.68c.59,0,1.03.01,1.48,0,.17,0,.37-.04.5-.14.98-.73,1.72-1.56,1.89-2.88.46-3.53.68-7.06.8-10.61.06-1.73-.04-3.46-.11-5.19-.04-1.04-.08-2.09-.25-3.12-.16-.96-.45-1.91-.74-2.85-.07-.22-.31-.54-.5-.56-.87-.07-1.76-.12-2.68.04.04.3.07.54.12.76.62,2.9,1,5.83.95,8.79-.04,2.62-.16,5.25-.33,7.87-.11,1.72-.33,3.44-.56,5.15-.12.88-.36,1.74-.58,2.75h0Zm21.31-.65c.63-.14,1.15-.3,1.68-.38,1.07-.15,1.72-.78,2.04-1.76.43-1.3.85-2.61,1.21-3.93.67-2.43,1.01-4.92.95-7.44-.05-2.44-.21-4.89-.72-7.29-.17-.78-.47-1.54-.8-2.28-.14-.31-.51-.7-.81-.74-.8-.1-1.63-.04-2.48-.04.02.18.02.27.04.35,1,2.61,1.24,5.34,1.22,8.1-.01,2.09-.07,4.18-.19,6.27-.11,1.97-.3,3.93-.94,5.82-.36,1.07-.77,2.13-1.2,3.31h0Zm-42.49-15.15c-.89-.1-.89-.1-1.21.45-.37.65-.69,1.33-1.1,1.95-1.61,2.45-3.24,4.88-4.87,7.31-.18.27-.46.55-.48.84-.06.91-.02,1.83-.02,2.73h7.37v-2.95c.51-.03.89-.05,1.39-.08-.04-2.32.06-4.59-.06-6.85-.4-.07-.68-.12-1.03-.18v-3.22h0Zm22.24-1.6c-1.74,0-3.29,0-4.84,0-.82,0-.96.16-1.01,1-.04.74-.09,1.49-.11,2.23-.09,2.71-.17,5.43-.25,8.14,0,.26.04.52.06.87,1.92-.09,3.77-.14,5.68-.42.16-3.95.31-7.82.46-11.83h0Zm-7.22-12.62c-.44-.25-.67-.4-.91-.51-1.63-.74-3.35-1.11-5.12-1.17-2.75-.09-5.5-.18-8.24.09-.51.05-.9.22-1.27.55-.45.4-.93.75-1.4,1.11-.36.27-.74.51-1.1.78-.49.37-.61.84-.43,1.43.18.63.59.96,1.22,1.02.68.06,1.37.14,2.05.11,1.64-.07,3.28-.13,4.91-.3,2.75-.29,5.41-.93,7.97-1.98.74-.31,1.44-.7,2.33-1.14h0Zm-29.61,52.42c2.62-.71,5.14-1.39,7.63-2.06-.2-1.69-1.1-2.88-2.01-4.08-1.42-1.88-2.88-3.73-3.94-5.86-.03-.07-.14-.09-.19-.12-1.04,1.22-2.08,2.41-3.09,3.63-.14.17-.17.5-.12.73.54,2.53,1.11,5.07,1.7,7.76h0Zm6.06-27.51c.19-.22.29-.33.36-.44,2.54-3.55,5.08-7.11,7.06-11.02.7-1.39,1.3-2.82,1.95-4.23.22-.48.23-.99.08-1.48-.06-.18-.22-.43-.37-.45-1.05-.19-2.11-.31-3.24.14.39,1.16-.31,1.99-.85,2.89-1.52,2.5-3.04,5.01-4.52,7.53-.31.53-.52,1.15-.6,1.76-.24,1.72.03,3.43.13,5.31h0Zm48.44,4.76c.54-.05.97-.11,1.41-.13.38-.02.62-.2.74-.54.5-1.41,1.08-2.79,1.47-4.23.76-2.82.71-5.73.84-8.62.07-1.49-.05-2.98-.1-4.47-.06-1.86-.41-3.67-1.05-5.43-.45-1.22-1.59-1.83-2.94-1.6,0,.06,0,.12.03.18,1.35,2.91,1.75,6.01,1.76,9.16,0,2.17-.14,4.36-.34,6.52-.16,1.81-.42,3.62-.76,5.4-.23,1.22-.67,2.4-1.05,3.75h0Zm-25.45-22.96c.38,3.71.6,7.37.56,11.04-.04,3.68-.73,7.29-1.2,10.88,1.56,1.03,2.26,1.25,3.1,1.03.16-1.43.33-2.86.51-4.4-.34.03-.56.05-.79.08-.73.08-1.06-.19-1.11-.92-.01-.18,0-.36,0-.54.03-.6.09-1.19.11-1.79.07-2,.12-4,.19-6,.04-.98.09-1.97.18-2.95.07-.75.35-.98,1.1-1.03.29-.02.58-.03.94-.04-.31-2.23-.61-4.38-1.15-6.59-.89.45-1.66.83-2.45,1.23h0Zm-2.57,1.35c.52,6.53.84,13.04-.03,19.51.54.3.97.54,1.41.78,1.52-7.11,1.6-14.15.69-21.37-.74.38-1.39.72-2.07,1.07h0Zm-5.99,40.72c.06,0,.12.02.18.03.09-.22.18-.43.27-.65,1.14-2.79,2.29-5.58,3.43-8.37.45-1.11.92-2.2,1.34-3.32.17-.46.21-.96.35-1.64-.38.25-.58.36-.75.51-.84.76-1.67,1.54-2.5,2.31-1.26,1.18-1.99,2.66-2.44,4.31-.39,1.45-.3,2.9-.16,4.36.08.82.18,1.64.27,2.46h0Zm-8.95,48.24c.37.73.65,1.39,1.03,1.99.36.57.82,1.1,1.27,1.6.48.53.98,1.05,1.52,1.52.52.45.84,1.12,1.56,1.47.34-2.84.68-5.59.92-8.48-1.98,1.22-4.11,1.39-6.29,1.9h0Zm25.2-84.93c-.16-2.58-.53-5.03-1.13-7.42-1.29.03-2.44.23-3.55.7.38,2.29.76,4.51,1.13,6.72h3.55Zm-1.39,17.74c.31-1.57.62-3.13.94-4.73-.24-.04-.36-.08-.47-.07-.92.05-1.84.13-2.76.17-.41.02-.57.23-.62.61-.12,1.06-.25,2.12-.37,3.19-.03.25,0,.51,0,.84h3.28Zm-96.42,5.75c1.02-.6,1.86-1.34,2.26-2.5.75-2.22,1.04-4.53,1.28-6.84.02-.2,0-.47-.11-.58-.41-.4-.88-.74-1.42-1.19-.13,3.9-.24,7.65-2,11.11h0Zm67.06-22.18c0-1.03.02-2.06-.02-3.09,0-.22-.23-.47-.4-.65-.14-.14-.36-.2-.55-.29-.65-.31-1.04-.75-.94-1.54.07-.54.01-1.1.01-1.82-.72.83-1.29,1.49-1.94,2.24.59.03,1.04.11,1.32.57.6.99,1.35,1.9,1.64,3.06.14.55.32,1.11.87,1.53h0Zm27.12,20.59c1.24-1.12,2.48-2.23,3.72-3.34-.03-.06-.06-.11-.09-.17h-3.63v3.51h0Zm-98.43-13.27c1.18-.59,2.27-1.12,3.4-1.69-.61-.71-1.29-1.17-2.18-1.11-.98.07-1.81.54-1.5,1.87.06.26.15.51.28.93h0Zm97.58,13.36c.1-.13.21-.22.21-.31.06-1.06.11-2.12.14-3.18,0-.09-.26-.27-.37-.25-.12.02-.29.21-.31.35-.07.53-.18,1.07-.12,1.59.07.58-.07,1.24.45,1.8h0Zm-25.88-8.39s-.09-.02-.13-.03c-.06.18-.16.35-.17.52-.07.86-.11,1.72-.16,2.59-.03.57-.05,1.13-.06,1.7,0,.33.19.4.51.25v-5.03h0Z"/>
  <path class="cls-1" d="m72.22,298.81c.02-.47,0-.94.09-1.41.23-1.41.49-2.81.76-4.21.29-1.52.58-3.03.92-4.54.19-.84.47-1.65.74-2.47.18-.54.15-1.06-.04-1.57-.35-.92-.67-1.85-1.07-2.75-.68-1.54-1.14-3.12-1.13-4.83,0-.85-.21-1.71-.28-2.57-.05-.65-.05-1.32-.06-1.97-.06-4.45-.11-8.9-.19-13.36-.01-.68-.12-1.36-.16-2.04-.01-.2.05-.4.21-.62.07.17.19.33.21.5.13,1.12.31,2.25.34,3.38.06,1.86,0,3.71.02,5.57.01,1.79-.03,3.59.08,5.38.15,2.53.36,5.05.65,7.57.2,1.72,1.12,3.2,1.77,4.77.11.26.44.47.72.63,1.79,1.02,3.73,1.61,5.79,1.72,1.38.07,2.62.54,3.87,1.03,1.11.44,2.21.9,3.34,1.3,1.5.52,3.04.63,4.58.17,3.55-1.07,7.1-2.11,10.63-3.23,3.1-.98,6.17-2.08,9.26-3.1.36-.12.74-.41,1.17-.15-.04.4-.36.39-.59.47-3.99,1.34-7.98,2.7-11.99,3.99-2.59.83-5.21,1.56-7.8,2.35-2.18.66-4.3.47-6.39-.36-1.08-.43-2.15-.89-3.24-1.32-1.12-.45-2.27-.69-3.48-.76-1.66-.09-3.22-.62-4.72-1.32-.21-.1-.42-.2-.68-.32-.9,4.44-1.8,8.81-2.68,13.18-.06.29-.06.59-.09.89h-.54Z"/>
  <path class="cls-1" d="m89.82,298.81c.29-.2.56-.45.87-.57,2.41-.97,4.83-1.93,7.25-2.86,2.55-.98,4.94-2.28,7.29-3.65,6.62-3.85,12.99-8.09,19.31-12.42.22-.15.44-.28.64-.41.31.2.25.39.05.53-.43.31-.89.61-1.33.92-6.15,4.21-12.36,8.3-18.8,12.05-2.95,1.72-6.03,3.15-9.26,4.28-1.74.6-3.41,1.42-5.11,2.14h-.9,0Z"/>
  <path class="cls-1" d="m81.92,298.81c-1.75-1.18-3.51-2.35-5.26-3.54-.25-.17-.49-.37-.73-.56.03-.06.06-.11.09-.17.16,0,.35-.04.46.03,2.01,1.33,4.01,2.67,6.01,4.02.07.04.1.15.15.22h-.72Z"/>
  <path class="cls-1" d="m76.96,281.82c1.17-.22,2.33-.47,3.51-.67,2.61-.45,5.06-1.38,7.5-2.37,4.24-1.72,8.39-3.62,12.47-5.7,1.01-.51,1.97-1.1,2.96-1.66.27.13.27.32.05.47-.39.28-.78.55-1.21.77-5.87,3.1-11.86,5.95-18.17,8.04-2.17.72-4.47,1.04-6.71,1.52-.13.03-.31-.1-.46-.16.02-.09.04-.17.06-.26h0Z"/>
  <path class="cls-1" d="m90.41,273.59c-.35-.16-.56-.24-.75-.36-1.57-.94-3.26-1.41-5.11-1.4-2.93.02-5.85,0-8.78,0h-.96c-.02-.06-.04-.12-.06-.18.1-.1.19-.29.29-.3.56-.03,1.13-.02,1.7-.02,2.15,0,4.29.04,6.43-.02,2.24-.06,4.41.14,6.4,1.28.32.18.74.29.83.97h0Z"/>
  <path class="cls-1" d="m137.37,273.75c.01.11.08.25.03.33-2.18,4.18-4.27,8.41-7.12,12.19-.15.2-.36.35-.67.64-.02-.31-.08-.48-.02-.56,2.94-3.73,5-7.98,7.2-12.14.1-.19.25-.36.38-.54.07.02.13.05.2.08h0Z"/>
</svg>