<svg xmlns="http://www.w3.org/2000/svg" viewBox="0 0 210 210"><defs><style>.cls-1{fill:#333;}.cls-2{fill:#fff;}</style></defs><g id="Layer_1" data-name="Layer 1"><rect class="cls-1" width="210" height="210"/></g><g id="BG"><path class="cls-2" d="M1.42,29.15.18,25.2c1.13-.37,2.22-.75,3.26-1.14l-.3-7.19L2.86,9.68l3.82-.15.51,13.06c.52-.2,1.31-.52,2.35-1l.69-.28L11.09,25Q7.54,26.59,1.42,29.15Zm8.45,3a14.93,14.93,0,0,0-1.32-1.65A17.19,17.19,0,0,0,7,28.82a14.65,14.65,0,0,0,7.94-6.94c1.52-2.86,2.49-7,2.92-12.3a17.4,17.4,0,0,1,3,.53c1,.31,1.48.59,1.45.86a1.34,1.34,0,0,1-.28.59,2.39,2.39,0,0,0-.48,1.34,36.23,36.23,0,0,1-2.59,9.82A48.56,48.56,0,0,1,24.12,29l-1.54,1.54-1.52,1.54a40.48,40.48,0,0,0-4.18-5.74A18.36,18.36,0,0,1,9.87,32.11Zm2-13.09a19.66,19.66,0,0,0-1.52-3.15,26.14,26.14,0,0,0-2.18-3.25L11.49,11A25.71,25.71,0,0,1,13.76,14a21.14,21.14,0,0,1,1.63,3Z"/><path class="cls-2" d="M38.58,23.78a10.74,10.74,0,0,0-1.22-1.21v.55q-5.34.36-10.91.64l-.1-2,3.21-.1.92,0V21h-3V19.38l-.25.05-.31.05a4.09,4.09,0,0,0-.44-.85,2.92,2.92,0,0,0-.65-.75c1.52-.16,2.45-.48,2.79-.93H27.56c-.23,0-.59,0-1.06.05a2.71,2.71,0,0,1-.07-.95,3.06,3.06,0,0,1,.07-1,18.19,18.19,0,0,0,2,.11h2v-.54H29a13.07,13.07,0,0,0-1.42.08,2.38,2.38,0,0,1-.08-.92,2.45,2.45,0,0,1,.08-.93A10.59,10.59,0,0,0,29,13h1.44v-.43a.83.83,0,0,1,0-.2,15.19,15.19,0,0,1,2,0c.84.07,1.27.18,1.27.33-.21,0-.31.08-.31.13V13h1.47a13.59,13.59,0,0,0,1.44-.08,2.45,2.45,0,0,1,.08.93,2.38,2.38,0,0,1-.08.92,10.6,10.6,0,0,0-1.44-.08H33.41v.54h2c.47,0,1.14,0,2-.11a2.93,2.93,0,0,1,.08,1,2.55,2.55,0,0,1-.08,1A11.44,11.44,0,0,0,36,17h-1.5V17a.91.91,0,0,0,.06.42c0,.06.11.09.25.09h.68c.24,0,.37-.19.41-.56a4.8,4.8,0,0,0,1.64.56,1.19,1.19,0,0,1-.15.56l1.17-1.55h-.36l-.2,0h-.15a4.41,4.41,0,0,1-.08-1.31,4.37,4.37,0,0,1,.08-1.3c.37,0,.76,0,1.16,0h1.19v-.73c0-.17,0-.44-.05-.81a12.77,12.77,0,0,1,1.85,0q1.14.11,1.14.33a.74.74,0,0,0-.31.58V14h3.67v6a4.33,4.33,0,0,0,0,.74.15.15,0,0,0,.15.13h.15a.29.29,0,0,0,.22-.09.68.68,0,0,0,.11-.42,15.28,15.28,0,0,0,.1-1.62,5.88,5.88,0,0,0,1.93,1,8.55,8.55,0,0,1-.33,2.3A1.68,1.68,0,0,1,48,23a2.06,2.06,0,0,1-1.19.28h-1a2,2,0,0,1-1.59-.61,1.47,1.47,0,0,1-.4-.76,6.39,6.39,0,0,1-.16-1.42l-.91,1.27a10.81,10.81,0,0,0-1.29-1A9,9,0,0,1,38.58,23.78Zm6.65,8.38a11.71,11.71,0,0,0-1.29-1.11q-5.85.4-16,1l-.36-2.36,3.24-.1c.24-.38.47-.79.69-1.21H28.8c-.8,0-1.7,0-2.68.13a4.16,4.16,0,0,1-.07-1.14,5.26,5.26,0,0,1,.07-1.22,54.87,54.87,0,0,0,5.6.23H43c1.87,0,3.74-.08,5.61-.23a5,5,0,0,1,.08,1.22,3.54,3.54,0,0,1-.08,1.11,19.52,19.52,0,0,0-2-.1h-2a20.53,20.53,0,0,1,3.21,2.3ZM33.29,12.44a5.24,5.24,0,0,1-1.78-.12v-.05a1,1,0,0,0,0-.21v-.3H28.91c-.8,0-1.67,0-2.64.13a6.05,6.05,0,0,1-.07-1.4,5.93,5.93,0,0,1,.07-1.39,22.12,22.12,0,0,0,2.64.13h2.63V8.32c0-.19,0-.32,0-.41a23.3,23.3,0,0,1,2.36,0q1.47.09,1.47.33a.56.56,0,0,0-.31.48v.48h4.63V8.32c0-.19,0-.32,0-.41a23.77,23.77,0,0,1,2.38,0c1,.06,1.49.17,1.49.33a.57.57,0,0,0-.3.48v.48h2.71c.82,0,1.73,0,2.7-.13a5.07,5.07,0,0,1,.08,1.39,4.36,4.36,0,0,1-.08,1.34,9.27,9.27,0,0,0-1.34-.07H43.21v.3s0,.12,0,.21v.07a6.09,6.09,0,0,1-1.79.1,5.32,5.32,0,0,1-1.8-.12v-.05a.9.9,0,0,0,0-.21v-.3H35v.3a1,1,0,0,0,0,.21v.07A6,6,0,0,1,33.29,12.44Zm-5.6,6.89h2.79V18.11h2.1A3.27,3.27,0,0,1,32.45,17V17H30.88a2.38,2.38,0,0,1-1,1.44A5.37,5.37,0,0,1,27.69,19.33ZM29.29,26a4.37,4.37,0,0,1-.08-1.19,6.06,6.06,0,0,1,.08-1.29,72.56,72.56,0,0,0,7.59.31h4.41c1.23,0,2.69-.06,4.4-.18a4.39,4.39,0,0,1,.08,1.18A4.23,4.23,0,0,1,45.69,26c-1.18-.11-2.55-.17-4.1-.17h-8.2C32.26,25.81,30.89,25.87,29.29,26Zm4.15-4.48,3.85-.15a9.83,9.83,0,0,0,1-1,9,9,0,0,0,.75-1c-.76-.39-1.4-.69-1.9-.89a1.69,1.69,0,0,1-1.39.51H34.45a4.44,4.44,0,0,1-1-.1v.43H35a14.11,14.11,0,0,0,1.49-.08,2.45,2.45,0,0,1,.08.93,2.42,2.42,0,0,1-.08.92A11.11,11.11,0,0,0,35,21H33.44Zm.63,7.93,6.61-.26.43,0L41,29.07l-.78-.4.58-.33H34.93ZM40,17.07c0-.06,0-.16.06-.27a1.16,1.16,0,0,0,0-.26H38.7a4.66,4.66,0,0,1,.64.26A4.11,4.11,0,0,1,40,17.07Zm3.69,2V16.54l-.91,0v.05a7.37,7.37,0,0,1-.1.81c0,.18-.1.48-.2.88l.81.49Z"/><path class="cls-2" d="M55.16,32.21a5.91,5.91,0,0,1-1.85-.13c.13-1.26.2-2.85.2-4.75V22.57c-.3.35-.67.74-1.11,1.16A15.78,15.78,0,0,0,51.56,22a13.59,13.59,0,0,0-1-1.72,17,17,0,0,0,2.69-3,18.57,18.57,0,0,0,2.07-3.72l2.68.94V13H60.8V10.52c0-.78,0-1.64-.1-2.58a22.35,22.35,0,0,1,2.45,0c1,.07,1.55.18,1.55.33a5,5,0,0,0-.61,2.36V13h1.65c.55,0,1.09,0,1.62-.08a8.31,8.31,0,0,1,.07,1.72,8.38,8.38,0,0,1-.07,1.73,11.9,11.9,0,0,0-1.62-.08H64.09v8.2a75.92,75.92,0,0,0,.3,7.59,6.82,6.82,0,0,1-1.92.13,5.77,5.77,0,0,1-1.85-.13,38.17,38.17,0,0,0,.18-3.94V16.29H58v-.51c-.32.68-.69,1.4-1.13,2.16v9.64a10.88,10.88,0,0,0,1-5.32v-2.1c0-.64,0-1.36-.1-2.17a13.07,13.07,0,0,1,1.87,0c.81.07,1.22.18,1.22.33a3.61,3.61,0,0,0-.61,2v2A25.49,25.49,0,0,1,60,26.06a8.85,8.85,0,0,1-1.14,3.27,7.7,7.7,0,0,0-2-1.68v2.23c0,.76,0,1.5.1,2.2A5,5,0,0,1,55.16,32.21ZM52.57,15.53a17.56,17.56,0,0,0-1.82-2.76,14.48,14.48,0,0,0,2.3-2.23A13.69,13.69,0,0,0,54.8,8a13.79,13.79,0,0,1,2.31,1.14c.74.44,1,.74.93.91a.65.65,0,0,1-.38.28,1.29,1.29,0,0,0-.76.6c-.39.53-.84,1.09-1.36,1.7A23.78,23.78,0,0,1,52.57,15.53Zm13.09-2.66q-.1-.45-.48-1.62a.85.85,0,0,1-.08-.17c-.27-.7-.53-1.34-.78-1.93l2.3-.91a21.19,21.19,0,0,1,1.47,3.57Zm.79,14.78a1.7,1.7,0,0,1-1.37-.55,1.63,1.63,0,0,1-.38-.79,9.58,9.58,0,0,1-.1-1.67V21.38A31.61,31.61,0,0,0,64.45,18a14.7,14.7,0,0,1,1.87,0c.79.06,1.19.17,1.19.33A2.68,2.68,0,0,0,67,19.88v4.86a3.8,3.8,0,0,0,0,.69.12.12,0,0,0,.12.12h.13a.23.23,0,0,0,.17-.08,2.54,2.54,0,0,0,.13-.65c0-.34,0-1.11.08-2.33a4.4,4.4,0,0,0,1.57.86A15.29,15.29,0,0,1,69,26.26a2,2,0,0,1-.64,1.07,1.41,1.41,0,0,1-1,.32Zm1.84,4.41a10.25,10.25,0,0,0-.86-3.44l1.8,0a.29.29,0,0,0,.33-.33V19.68h-1c-.22,0-.54,0-.94.05A7.59,7.59,0,0,1,67.58,18a8.68,8.68,0,0,1,.08-1.76,27.88,27.88,0,0,0,3.42.16H72.8c.57,0,1.14,0,1.69-.08a7.53,7.53,0,0,1,.08,1.7,7.47,7.47,0,0,1-.08,1.69,6,6,0,0,0-.78-.05H72.9v8.68a7,7,0,0,1-.2,1.9,2.07,2.07,0,0,1-.89,1.15,4,4,0,0,1-1.54.55A16.37,16.37,0,0,1,68.29,32.06Zm-.12-19.37A8.25,8.25,0,0,1,68.09,11a7.34,7.34,0,0,1,.08-1.68,10.89,10.89,0,0,0,1.44.07h2.93A13.68,13.68,0,0,0,74,9.28,7.82,7.82,0,0,1,74.06,11,8,8,0,0,1,74,12.65a9.4,9.4,0,0,0-1.45-.08H71.08Q69.76,12.57,68.17,12.69Z"/><path class="cls-2" d="M83.18,24.54a14.84,14.84,0,0,0-1.52-1.8,25.44,25.44,0,0,1-4.08,1.75A9.43,9.43,0,0,0,76,21.88a21.21,21.21,0,0,0,5.69-2.63c-.89.1-2.16.25-3.79.46l-1.07.12-.27-2.55,1.26-.1.38,0a26.58,26.58,0,0,0,1.22-3.32,15.19,15.19,0,0,1,2.31.73c.74.29,1.07.5,1,.62a.41.41,0,0,1-.28.17.68.68,0,0,0-.5.38l-.69,1.14,1.42-.12c0-.11-.11-.26-.18-.46l-.33-.78,2.51-.69c.2.42.4.88.61,1.37a9.85,9.85,0,0,0,.88-1.14h3.14A19.51,19.51,0,0,0,91,16.82c.39-1.25.66-2.29.83-3.11a18.52,18.52,0,0,1,2.36.68c.76.3,1.1.52,1,.63a.38.38,0,0,1-.25.21.74.74,0,0,0-.48.43l-.15.3c-.22.42-.39.73-.51.91l1.83-.1c-.09-.15-.23-.36-.41-.63L95,15.76l2.48-1a13.92,13.92,0,0,1,2.23,4.08L97,20a5,5,0,0,0-.38-1.06L96,19l-1.89.23a19.81,19.81,0,0,0,6,2.35,15.42,15.42,0,0,0-1.73,2.79,25.57,25.57,0,0,1-5.84-2.66,16.46,16.46,0,0,1-4.61-3.9A16.44,16.44,0,0,1,83,22a20.17,20.17,0,0,0,5.34-2.07A6.61,6.61,0,0,1,90,21.18c.47.5.59.81.38.93a.93.93,0,0,1-.56.1,1.84,1.84,0,0,0-1.19.31A28.72,28.72,0,0,1,83.18,24.54ZM94.39,14.21l-.71-.83-.3-.33-5.95.3c-.89.05-1.55.09-2,.1l-3.35.16-3.46.17-.18-2.91c.3,0,.79,0,1.47,0,1,0,1.76,0,2.3-.05a24.8,24.8,0,0,0,1.24-2.86,20.79,20.79,0,0,1,2.72.52c.87.23,1.27.4,1.2.52a.44.44,0,0,1-.25.18.85.85,0,0,0-.51.4c-.15.25-.37.62-.68,1.09l.43,0q2.79-.08,4.23-.15L90.09,10c-.29-.22-.5-.39-.64-.51l2.71-1.21a35.72,35.72,0,0,1,5.14,4.58ZM80.8,32.11a9.45,9.45,0,0,0-1.6-2.94q10.74-.86,14.33-4.53a8.54,8.54,0,0,1,2,1.33c.58.53.78.88.59,1.05a.88.88,0,0,1-.53.21,1.77,1.77,0,0,0-1.09.5,18.54,18.54,0,0,1-4.73,2.41A41.48,41.48,0,0,1,80.8,32.11Zm1.49-3.9a10.9,10.9,0,0,0-1.77-2.58,36.2,36.2,0,0,0,5.82-1.29A14.78,14.78,0,0,0,91,22.14a7.28,7.28,0,0,1,1.78,1.3c.52.52.67.84.47,1a.74.74,0,0,1-.53.13,1.82,1.82,0,0,0-1.14.41,21.69,21.69,0,0,1-3.06,1.46A35.46,35.46,0,0,1,82.29,28.21Z"/><path class="cls-2" d="M121.3,32.11a49.19,49.19,0,0,0-6.66-3.82l1.9-1.7H109.7l2.21,1.67a41.57,41.57,0,0,1-7.27,3.82,19.61,19.61,0,0,0-2.81-2.53,28.77,28.77,0,0,0,5.93-3h-3c-.88,0-1.87,0-3,.13a9.24,9.24,0,0,1-.08-1.82,7.76,7.76,0,0,1,.08-1.75c.33,0,.7.05,1.08.05H104l-.2-6.76-.18-6.78,1.9.5a23,23,0,0,0,2.76-1.87l1.9,1.87V9.28c0-.26,0-.58-.06-1a19,19,0,0,1,2.13,0c.89.06,1.34.17,1.34.33a1.22,1.22,0,0,0-.4.88v.91h1.72c.59,0,1.16,0,1.72-.07a6.84,6.84,0,0,1,.07,1.57,7,7,0,0,1-.07,1.57,13.17,13.17,0,0,0-1.72-.08H113.2v1.21h3.57V23.2h2.5l.1-1.52h-1c-.22,0-.53,0-.94.05a6.72,6.72,0,0,1-.07-1.55,6.45,6.45,0,0,1,.07-1.54,8.71,8.71,0,0,0,1,.05h1l.08-1.62h-1.07c-.25,0-.6,0-1,.05a6.72,6.72,0,0,1-.07-1.55,6.26,6.26,0,0,1,.07-1.53c.34,0,.7.05,1.07.05h1.09l0-1.5h-1.26c-.29,0-.7,0-1.24.06a7.1,7.1,0,0,1-.08-1.64,7.94,7.94,0,0,1,.08-1.68c.79.08,1.75.13,2.88.13h2.91q0,8-.3,13.74h1.16c.26,0,.64,0,1.14-.05A7.76,7.76,0,0,1,125,24.9a9.24,9.24,0,0,1-.08,1.82,27.6,27.6,0,0,0-3-.13h-3c2,.95,4,1.95,5.92,3ZM107.2,23.2h2.91V20.67c0-.79,0-1.66-.1-2.61a19.44,19.44,0,0,1,2.15,0c.91.06,1.37.17,1.37.33a5,5,0,0,0-.61,2.38v2.4h.83V17.45h-3.56V11.3c-.81.39-1.9.87-3.27,1.45l0,1.34h1.26c.29,0,.7,0,1.24-.05a5.87,5.87,0,0,1,.08,1.53,6.31,6.31,0,0,1-.08,1.55c-.37,0-.77-.05-1.19-.05h-1.21l0,1.6h1.19c.29,0,.69,0,1.19-.05a6,6,0,0,1,.08,1.53,6.51,6.51,0,0,1-.08,1.56,10.63,10.63,0,0,0-1.14-.05h-1.14Z"/><path class="cls-2" d="M126.87,15.23a6.34,6.34,0,0,1-.08-1.57,7.63,7.63,0,0,1,.08-1.65,47,47,0,0,0,5.18.23h2.61c.76,0,1.62,0,2.58-.13a6.93,6.93,0,0,1,.08,1.56,6.93,6.93,0,0,1-.08,1.56,20.94,20.94,0,0,0-2.58-.13h-5.21C128.69,15.1,127.83,15.14,126.87,15.23Zm2.68,16.6a4.42,4.42,0,0,1-1.65-.13c.07-.7.11-1.43.11-2.17V22.92h4.1a40.74,40.74,0,0,0,4.07-.18.16.16,0,0,1,.18.18,37.29,37.29,0,0,0-.18,3.93v3.94h-5.09v.46a2.42,2.42,0,0,0,0,.28v.17C131.1,31.79,130.58,31.83,129.55,31.83Zm-1.44-13.14a5.45,5.45,0,0,1-.08-1.48,6.3,6.3,0,0,1,.08-1.53,40.74,40.74,0,0,0,4.07.18h2c.47,0,1.15,0,2-.1a6.32,6.32,0,0,1,.07,1.47,6.26,6.26,0,0,1-.07,1.46c-.68-.06-1.35-.1-2-.1h-4.1C129.66,18.59,129,18.63,128.11,18.69Zm0,3.5a5.51,5.51,0,0,1-.08-1.48,6.18,6.18,0,0,1,.08-1.53c1.18.11,2.54.17,4.07.17h2c.47,0,1.15,0,2-.1a6.32,6.32,0,0,1,.07,1.47,6.32,6.32,0,0,1-.07,1.47,19.71,19.71,0,0,0-2-.1h-4.1C129.66,22.09,129,22.12,128.11,22.19Zm.12-10.51a7.24,7.24,0,0,1-.07-1.53,6.38,6.38,0,0,1,.07-1.48,18.47,18.47,0,0,0,2,.1h4.05c.47,0,1.15,0,2-.1a6.32,6.32,0,0,1,.07,1.47,6.32,6.32,0,0,1-.07,1.47,19.71,19.71,0,0,0-2-.1h-2C131.14,11.51,129.8,11.56,128.23,11.68Zm2.86,16.25H133V25.78h-1.95Zm11.42,4q-2.53,0-3.48-1c-.63-.66-.95-1.91-.95-3.75V22.26c0-2-.07-3.58-.2-4.88,0-.1.06-.15.2-.15a37.1,37.1,0,0,0,3.75.15h3.74V12.72h-3.72q-1.84,0-3.72.15a10.28,10.28,0,0,1-.08-1.91,11.45,11.45,0,0,1,.08-2,53,53,0,0,0,5.52.23h5.54v9.64a26.74,26.74,0,0,0,.15,3.19,7.87,7.87,0,0,1-2,.1,6.44,6.44,0,0,1-1.84-.1v-.25c0-.17,0-.29,0-.36v-.6h-3.82v6.3a1.71,1.71,0,0,0,.21,1.07,1.57,1.57,0,0,0,1,.22h2.86a.94.94,0,0,0,1-.66,11.59,11.59,0,0,0,.38-2.88,9.26,9.26,0,0,0,1.57.86,10.72,10.72,0,0,0,1.74.58,8.93,8.93,0,0,1-1.21,4.39,3.76,3.76,0,0,1-3.17,1.18Z"/><path class="cls-2" d="M166.3,32.08a10.63,10.63,0,0,0-.93-3.08q-.62.45-1.83,1.29c-.33.23-.58.41-.73.53l-.71-1.17v.21q-1.84.41-5.62,1.16l-3.29.66-.68-3.32c1.14-.15,2.28-.33,3.41-.53v-6h-1.56c-.53,0-1,0-1.55.07a6.85,6.85,0,0,1-.08-1.62,7,7,0,0,1,.08-1.62,12.49,12.49,0,0,0,1.55.08h1.56V17.4h-2V16.29l-.13.13a9.16,9.16,0,0,0-1-1.31,8,8,0,0,0-1.14-1.1,15,15,0,0,0,4.13-6h2.86a24,24,0,0,1,4.18,4.28l-1.68,2h0v3H159v1.37h1.45a12.74,12.74,0,0,0,1.41-.08,7,7,0,0,1,.08,1.62,6.85,6.85,0,0,1-.08,1.62,10.58,10.58,0,0,0-1.41-.07H159v4.23a20.3,20.3,0,0,0,.71-3.7,10.16,10.16,0,0,1,1.9.68c.64.32.93.58.86.76a.75.75,0,0,1-.28.38,1.68,1.68,0,0,0-.56.86l-.15.48c-.18.61-.32,1-.4,1.3L159,26.29v1l1.55-.28,1.31-.23.08.76c1.23-.73,2.72-1.65,4.48-2.79l.66,1.73V20.29h-2.41c-.56,0-1.36,0-2.4.1a6.83,6.83,0,0,1-.08-1.58,6.44,6.44,0,0,1,.08-1.56,16.58,16.58,0,0,0,1.8.08h5.44l.15-1.24H166.4l-.12.63-3.42-.25C163.48,13.85,164,11,164.43,8l3.39.31-.2,1.29h3.16l.56-.13,2.56.25q-.24,2.75-.94,7.6h1.32a11.11,11.11,0,0,0,1.31-.08,6.44,6.44,0,0,1,.08,1.56,6.83,6.83,0,0,1-.08,1.58c-.84-.07-1.69-.1-2.53-.1h-2.53v.76a15.23,15.23,0,0,0,.86,2.33,20.25,20.25,0,0,0,1.52-3,11.34,11.34,0,0,1,2,1.26c.61.51.85.84.73,1a.57.57,0,0,1-.4.26,1.56,1.56,0,0,0-.81.63l-.23.3c-.44.56-.75.95-.94,1.17l-1.39-.76a8.93,8.93,0,0,0,4.25,3.85A12.3,12.3,0,0,0,175,29.46,9.23,9.23,0,0,0,174,31a9.41,9.41,0,0,1-3.47-3.29v1a5.91,5.91,0,0,1-.2,1.74,2.12,2.12,0,0,1-.86,1.07A6.62,6.62,0,0,1,166.3,32.08ZM153.57,27.4a16.92,16.92,0,0,0-.23-2c-.15-.89-.3-1.63-.45-2.2l2.23-.58a22.85,22.85,0,0,1,.8,4.17Zm2.15-13h4.33a22.39,22.39,0,0,0-2.35-2.92A27.2,27.2,0,0,1,155.72,14.37Zm8.51,11a8.94,8.94,0,0,0-.86-1.69,11.26,11.26,0,0,0-1.27-1.75l2.43-1.47a12.11,12.11,0,0,1,2.28,3.29ZM166.78,29c.21,0,.31-.11.31-.33v-1c-.12.1-.32.25-.61.45a1.67,1.67,0,0,1-.23.18c-.37.27-.65.48-.83.63C165.74,29,166.19,29,166.78,29Zm.16-15.57h3.11l.13-1.16h-3Z"/><path class="cls-2" d="M.66,61.85a12.09,12.09,0,0,1-.08-2,9.36,9.36,0,0,1,.08-1.9A10.89,10.89,0,0,0,2.1,58H3.54V52.51c0-2.24-.07-4.1-.22-5.57q1.44,0,2.91,0C7.42,47,8,47.15,8,47.3a7.73,7.73,0,0,0-.48,1.06,5,5,0,0,0-.23,1.57V58H11V43.53H6.23c-1.51,0-3.09.06-4.76.2a11.64,11.64,0,0,1-.08-2,13.51,13.51,0,0,1,.08-2.09q2.87.3,7.59.3H16q3.29,0,6.91-.28A13.84,13.84,0,0,1,23,41.72a11.65,11.65,0,0,1-.07,2c-1.15-.11-2.49-.17-4-.17h-4v4.91h3.32a32.62,32.62,0,0,0,3.31-.16,9.44,9.44,0,0,1,.08,1.94,9.8,9.8,0,0,1-.08,2A28.42,28.42,0,0,0,18.15,52H14.83v6h4.38c1.22,0,2.67,0,4.36-.17a11.65,11.65,0,0,1,.07,2,13,13,0,0,1-.07,2,54.51,54.51,0,0,0-5.72-.25H6.38C4.67,61.6,2.77,61.68.66,61.85Z"/><path class="cls-2" d="M30.73,62.56a6.6,6.6,0,0,1-2-.13,41.23,41.23,0,0,0,.18-4.12V54.18a17.35,17.35,0,0,1-1.85,1.42A19.67,19.67,0,0,0,25.36,52a17.66,17.66,0,0,0,5.93-6.79H28.75c-.55,0-1.39,0-2.5.1a9.32,9.32,0,0,1-.08-1.87,10,10,0,0,1,.08-1.9,28.42,28.42,0,0,0,3.31.15h3.32a32.6,32.6,0,0,0,1-3.31c1,.23,1.86.5,2.69.78s1.24.52,1.21.64a.38.38,0,0,1-.18.2.8.8,0,0,0-.35.48c-.17.54-.3.94-.4,1.21h5.87q2.63,0,5.87-.25a11.76,11.76,0,0,1,.08,2,10.51,10.51,0,0,1-.08,1.93,28.28,28.28,0,0,0-3.29-.15h-9.9a31.15,31.15,0,0,1-2.86,4.94v6.15c0,2.39.09,4.44.25,6.12A7.39,7.39,0,0,1,30.73,62.56ZM33.62,62a8.37,8.37,0,0,1-.08-1.83,8.51,8.51,0,0,1,.08-1.84,25.54,25.54,0,0,0,2.83.13h2.86v-5H36.93c-.54,0-1.33,0-2.38.1a8.7,8.7,0,0,1-.08-1.8,8.78,8.78,0,0,1,.08-1.8c.78.07,1.57.11,2.38.11h2.38V48.08a19.43,19.43,0,0,0-.08-2q1.27,0,2.61,0c1.1.07,1.65.17,1.65.33A3.41,3.41,0,0,0,43,48.21V50h2.28c.51,0,1.26,0,2.28-.11a9.34,9.34,0,0,1,.07,1.8,9.26,9.26,0,0,1-.07,1.8c-.75-.07-1.5-.1-2.28-.1H43v5h2.76c.81,0,1.72,0,2.73-.13a9.37,9.37,0,0,1,.08,1.84A9.22,9.22,0,0,1,48.47,62a35.91,35.91,0,0,0-3.72-.15H37.31Q35.44,61.8,33.62,62Z"/><path class="cls-2" d="M55.51,50.82a10.34,10.34,0,0,0-2.08-1.47A24.4,24.4,0,0,0,50.88,48l1.87-2.76a22.89,22.89,0,0,1,2.58,1.14,12.54,12.54,0,0,1,2.21,1.37Zm-.66,11.34-3.09-2.41c.75-1.13,1.47-2.31,2.18-3.54s1.57-2.82,2.33-4.36c.79.73,1.46,1.4,2,2,.64.76.91,1.24.81,1.45a1.08,1.08,0,0,1-.41.38,2,2,0,0,0-.83,1C56.86,58.54,55.87,60.38,54.85,62.16ZM57,44A12.16,12.16,0,0,0,55,42.51a18.09,18.09,0,0,0-2.53-1.34l2-2.71A22.08,22.08,0,0,1,57,39.63,11.87,11.87,0,0,1,59.13,41Zm4.43,18.55a6.28,6.28,0,0,1-2-.13q.18-1.82.18-4.17V45.65a16.43,16.43,0,0,0-2-1.29,14.32,14.32,0,0,0,1.64-2.28,14.52,14.52,0,0,0,1.22-2.43,13.05,13.05,0,0,1,2.55,1.09c.8.47,1.13.82,1,1a.85.85,0,0,1-.43.38,2,2,0,0,0-.86.91c-.63,1-1.14,1.81-1.55,2.35h3V41.91a35.92,35.92,0,0,0-.15-3.62c.89,0,1.82,0,2.79,0q1.74.11,1.74.33a5.86,5.86,0,0,0-.48,1.06,5,5,0,0,0-.23,1.57v4.15h3.22a20.74,20.74,0,0,0-2.86-4.48l2.81-1.74a19.28,19.28,0,0,1,3.39,4.93l-2,1.29h0V58.69a5.83,5.83,0,0,1-.27,2,2.28,2.28,0,0,1-1.07,1.16,5.25,5.25,0,0,1-1.82.51,21.46,21.46,0,0,1-2.45.1A11.66,11.66,0,0,0,65.81,59c.66,0,1.55.07,2.66.07.34,0,.51-.17.51-.45v-1H63.23V60c0,.83,0,1.63.1,2.4A5.52,5.52,0,0,1,61.46,62.56Zm1.77-12.43H69V48.84H63.23Zm0,4.41H69V53.19H63.23Z"/><path class="cls-2" d="M97.71,62.46a16.2,16.2,0,0,1-5.8-2.76,14.48,14.48,0,0,1-3.77-4.56q-2.61,5.14-9.67,7.24a11.48,11.48,0,0,0-1-1.7,10.29,10.29,0,0,0-1.27-1.54q6.36-1.74,8.56-6h-4c-1.13,0-2.46.06-4,.18a12.32,12.32,0,0,1-.07-2,13,13,0,0,1,.07-2.06,41.43,41.43,0,0,0,4.56.2h4.55A20.64,20.64,0,0,0,86,46.56v-.63H81.66a20.35,20.35,0,0,1-1.77,2.94,18.68,18.68,0,0,0-3.52-2,13.66,13.66,0,0,0,2.3-3.64,23.48,23.48,0,0,0,1.54-4.58c1.05.23,2,.49,2.82.76s1.32.49,1.29.63a.5.5,0,0,1-.23.25.8.8,0,0,0-.38.53,3.2,3.2,0,0,0-.13.38c-.13.42-.24.75-.33,1H86V40.29c0-.76,0-1.42-.07-2,.87,0,1.77,0,2.68,0,1.13.06,1.69.17,1.69.33a3.44,3.44,0,0,0-.5,1.74v1.77h3.67c1.23,0,2.45,0,3.67-.15a11.79,11.79,0,0,1,.07,2,12.32,12.32,0,0,1-.07,2,35.37,35.37,0,0,0-3.67-.15H89.81v.66a24.59,24.59,0,0,1-.13,2.78H96.9c.55,0,1.35,0,2.4-.1a10.42,10.42,0,0,1,.08,2,11.43,11.43,0,0,1-.08,2,40.81,40.81,0,0,0-4.08-.18h-4.1q2.68,4.56,9,5.85a11.84,11.84,0,0,0-1.32,1.67A16.69,16.69,0,0,0,97.71,62.46Z"/><path class="cls-2" d="M116.31,62.36a7.49,7.49,0,0,0-.38-1.79,7.91,7.91,0,0,0-.81-1.78q1.57.15,3.75.15a1.45,1.45,0,0,0,1.09-.45q.53-.59.81-3.6c.16-1.91.3-5,.4-9.26h-4.73a25.93,25.93,0,0,1-2.1,3.77,16,16,0,0,0-2-1.57v6c0,2.37.08,4.37.25,6,0,.1-.08.15-.25.15a27.68,27.68,0,0,0-3.24-.15h-3.26v.91a6.28,6.28,0,0,0,0,.89,4.83,4.83,0,0,1-1.7.12,6.19,6.19,0,0,1-1.8-.12,45.09,45.09,0,0,0,.21-4.79V42.54h2.81a35,35,0,0,0,.55-4.13,16,16,0,0,1,2.84.64c.89.28,1.3.51,1.24.68a.75.75,0,0,1-.26.33,1.47,1.47,0,0,0-.5.76c-.22.67-.42,1.25-.61,1.72h3.67V45.9a25.73,25.73,0,0,0,2.94-7.41,26.43,26.43,0,0,1,2.53.78c.83.31,1.21.53,1.16.66a.47.47,0,0,1-.23.26,1,1,0,0,0-.42.6c-.09.27-.22.67-.41,1.19a2.07,2.07,0,0,0-.1.31h6.78c0,.52,0,1.05,0,1.59Q124.3,52.76,124,56c-.21,2.45-.56,4-1.07,4.69a3.63,3.63,0,0,1-1.19,1.16,5.19,5.19,0,0,1-1.44.46A22.18,22.18,0,0,1,116.31,62.36Zm-10.5-13.21h3.24V45.73h-3.24v3.42Zm0,7.51h3.24V52.31h-3.24v4.35Zm11.44-.76c-.24-.57-.72-1.51-1.45-2.83a2.77,2.77,0,0,0-.17-.3c-.75-1.29-1.29-2.21-1.65-2.76l2.84-1.62.6.93c1.51,2.3,2.46,3.86,2.87,4.69Z"/><path class="cls-2" d="M138.56,62.56a5.38,5.38,0,0,1-1.87-.13,9.49,9.49,0,0,0,.07-1.36V59.7h-4.58c-1.42,0-2.93.07-4.56.2a9.8,9.8,0,0,1-.07-1.77,9.8,9.8,0,0,1,.07-1.77,44.08,44.08,0,0,0,4.56.2h4.58V55.5h-3.87q-1.62,0-3.87.18a8,8,0,0,1-.08-1.66,6.55,6.55,0,0,1,.08-1.58,8.51,8.51,0,0,0,1.29.07h1.29v-1h-2.2c-.51,0-1.23,0-2.18.11a7.4,7.4,0,0,1-.08-1.64,7.19,7.19,0,0,1,.08-1.63c.71.07,1.43.1,2.18.1h2.2v-.93h-1.19c-.29,0-.68,0-1.19,0a6.37,6.37,0,0,1-.08-1.56,8.26,8.26,0,0,1,.08-1.67,47,47,0,0,0,4.73.2h9.52c1.49,0,3.06-.07,4.74-.2a8.91,8.91,0,0,1,.07,1.68,7,7,0,0,1-.07,1.58,8.75,8.75,0,0,0-1.3-.07h-1.29v.93h2.2c.49,0,1.23,0,2.21-.1a7.65,7.65,0,0,1,.07,1.63,7.86,7.86,0,0,1-.07,1.64c-.71-.07-1.45-.11-2.21-.11h-2.2v1H147a13.11,13.11,0,0,0,1.42-.07,7,7,0,0,1,.07,1.58,8.54,8.54,0,0,1-.07,1.66,40.46,40.46,0,0,0-4.05-.18h-4.08v1.06H145c1.47,0,3-.07,4.71-.2a9.8,9.8,0,0,1,.07,1.77,9.8,9.8,0,0,1-.07,1.77,46.72,46.72,0,0,0-4.71-.2h-4.71v1.37a9.22,9.22,0,0,0,.08,1.36A5.25,5.25,0,0,1,138.56,62.56Zm-4.3-18.45a6.74,6.74,0,0,1-1.8-.1V43.8a2.91,2.91,0,0,0,0-.38v-.58H130c-.57,0-1.4,0-2.48.1a8.4,8.4,0,0,1-.07-1.71,8.33,8.33,0,0,1,.07-1.7c.81.06,1.64.1,2.48.1h2.48v-.91c0-.19,0-.32,0-.41a23.73,23.73,0,0,1,2.38,0q1.47.09,1.47.33a.58.58,0,0,0-.31.48v.48h5.12v-.91c0-.19,0-.32,0-.41a23.73,23.73,0,0,1,2.38,0q1.47.09,1.47.33a.58.58,0,0,0-.31.48v.48h2.56c.78,0,1.63,0,2.56-.13a8.94,8.94,0,0,1,.07,1.73,9,9,0,0,1-.07,1.74,20.81,20.81,0,0,0-2.56-.13h-2.56v.58a3.29,3.29,0,0,0,0,.38V44a6.53,6.53,0,0,1-1.77.1,6.74,6.74,0,0,1-1.8-.1V43.8a3.29,3.29,0,0,0,0-.38v-.58H136v.58a3.29,3.29,0,0,0,0,.38V44A6.53,6.53,0,0,1,134.26,44.11Zm.66,4.3h1.84v-.93h-1.84Zm0,4.1h1.84v-1h-1.84Zm5.41-4.1h2v-.93h-2Zm0,4.1h2v-1h-2Z"/><path class="cls-2" d="M154.94,45.83a6.87,6.87,0,0,1-1.82-.1c.08-.81.12-1.81.12-3v-3H162v-.68a7.11,7.11,0,0,0-.06-.76c.85,0,1.69,0,2.54,0,1,.06,1.54.17,1.54.33a.69.69,0,0,0-.3.53v.55h9v3a28,28,0,0,0,.13,3,7.7,7.7,0,0,1-1.92.1,7,7,0,0,1-1.88-.1,10.81,10.81,0,0,0,.08-1.44V42.82H156.66v1.47a11.09,11.09,0,0,0,.07,1.44A6.32,6.32,0,0,1,154.94,45.83Zm1.64,16.71a6.68,6.68,0,0,1-1.9-.13,44.61,44.61,0,0,0,.21-4.76V52.89h18.2v4.76a45,45,0,0,0,.2,4.76,7.09,7.09,0,0,1-2,.13c-1.19,0-1.8-.06-1.82-.16v-.05a.35.35,0,0,0,0-.12V62H158.3v.23a.35.35,0,0,0,0,.12v.08A4.89,4.89,0,0,1,156.58,62.54Zm0-10.33V46.72h14.68v5.49H156.63Zm.74-6a5.67,5.67,0,0,1-.08-1.38,6.94,6.94,0,0,1,.08-1.45,63.86,63.86,0,0,0,6.53.28h3.29c1.1,0,2.18-.05,3.26-.15a5.15,5.15,0,0,1,.08,1.34,5.56,5.56,0,0,1-.08,1.36,27.94,27.94,0,0,0-3.26-.15h-6.56C159.55,46,158.46,46.08,157.37,46.18Zm.93,10.1h3.78V55.5H158.3Zm0,3.09h3.78v-.86H158.3Zm1.6-9.47h7.92V49H159.9Zm5.69,6.38h3.93V55.5h-3.93Zm0,3.09h3.93v-.86h-3.93Z"/><path class="cls-2" d="M185.62,62.08a2.9,2.9,0,0,1-2.55-.95,7,7,0,0,1-.64-3.63V55.27h-1.14v.86a5.86,5.86,0,0,0,.05.86,5.28,5.28,0,0,1-1.65.1A6,6,0,0,1,178,57a27.08,27.08,0,0,0,.12-2.78v-5.6q0-1.56-.12-2.88a22,22,0,0,1,2.43,0c1,.07,1.57.18,1.57.33a5.9,5.9,0,0,0-.48,1.07,4.68,4.68,0,0,0-.23,1.57V52h1.14V44.39c-1.47.17-2.75.28-3.85.35a9.54,9.54,0,0,0-1-3c1.66-.13,3.27-.33,4.84-.6V40c0-.34,0-.76-.05-1.27a22.82,22.82,0,0,1,2.33,0c1,.06,1.46.17,1.46.33a1,1,0,0,0-.4.7v.71a22.48,22.48,0,0,0,2.71-.81l2.17,3a35.55,35.55,0,0,1-4.88,1.24V52H187V48.92c0-1.17,0-2.23-.13-3.19a22.55,22.55,0,0,1,2.46,0c1,.07,1.57.18,1.57.33a5.9,5.9,0,0,0-.48,1.07,4.68,4.68,0,0,0-.23,1.57v3.79a37.93,37.93,0,0,0,.15,3.8,6.26,6.26,0,0,1-1.72.1,5.28,5.28,0,0,1-1.65-.1v-.2a2.39,2.39,0,0,0,0-.31v-.53h-1.19V57.5a4.54,4.54,0,0,0,.09,1.18.38.38,0,0,0,.41.24h1.12c.2,0,.34-.17.43-.51a10.91,10.91,0,0,0,.18-1.87,7.58,7.58,0,0,0,3,1.36,6.7,6.7,0,0,1-1,3.23,2.71,2.71,0,0,1-2.26.95Zm7.31.51a7.16,7.16,0,0,1-2-.13,55,55,0,0,0,.23-5.65V45.48a55,55,0,0,0-.23-5.65c0-.1.07-.15.23-.15a30.38,30.38,0,0,0,3.41.15H198l.56-.13,2.63,1.67c-1,3.08-1.9,5.57-2.66,7.5a8.75,8.75,0,0,1,2.1,5.79q0,3-1.47,4.05a3.78,3.78,0,0,1-1.79.71,9.73,9.73,0,0,1-1.95.08,8.54,8.54,0,0,0-.74-3.27v3.12c0,1.23.05,2.27.13,3.11A6.24,6.24,0,0,1,192.93,62.59ZM195.74,56a1.7,1.7,0,0,0,.89-.22c.37-.22.55-.73.55-1.52A7.07,7.07,0,0,0,195,49.3c.42-1.18,1-3.19,1.75-6H194.7V55.93C195,56,195.32,56,195.74,56Z"/><path class="cls-2" d="M0,110.68,6.48,93h3.64l6.49,17.72H13.16l-1.42-4.1H4.83l-1.44,4.1Zm5.72-6.63h5.14L8.28,96.68Z"/><path class="cls-2" d="M18.81,110.68V98.12h2.88l.31,2.36a5.09,5.09,0,0,1,4.63-2.66v3.42h-.91a5.15,5.15,0,0,0-1.9.33,2.53,2.53,0,0,0-1.3,1.14,4.43,4.43,0,0,0-.47,2.25v5.72Z"/><path class="cls-2" d="M34.42,110.68a4.88,4.88,0,0,1-3.16-1,4.19,4.19,0,0,1-1.19-3.42v-5.47H27.92V98.12h2.15l.38-3.36h2.86v3.36H36.7v2.71H33.31v5.5a1.63,1.63,0,0,0,.39,1.25,2.08,2.08,0,0,0,1.36.34h1.57v2.76Z"/><path class="cls-2" d="M45.59,110.68V93H57.15v2.61H48.83v4.86h7.56V103H48.83v5.11h8.32v2.61Z"/><path class="cls-2" d="M60.14,110.68V98.12H63l.25,2.13a4.42,4.42,0,0,1,1.69-1.77,4.94,4.94,0,0,1,2.59-.66,4.57,4.57,0,0,1,3.62,1.47,6.33,6.33,0,0,1,1.29,4.3v7.09H69.2V103.9a4,4,0,0,0-.66-2.48,2.39,2.39,0,0,0-2.05-.86,2.91,2.91,0,0,0-2.24,1,3.84,3.84,0,0,0-.87,2.68v6.48Z"/><path class="cls-2" d="M80.85,106.93a6.55,6.55,0,0,1-1.7-.2l-.94.94a4.58,4.58,0,0,0,1.17.38c.49.1,1.28.2,2.38.3a6.55,6.55,0,0,1,3.64,1.19,3.29,3.29,0,0,1,1.14,2.66,3.94,3.94,0,0,1-.61,2.11,4.29,4.29,0,0,1-1.87,1.62,7.25,7.25,0,0,1-3.24.62,8.24,8.24,0,0,1-4.33-1,3.26,3.26,0,0,1-1.64-3,3.58,3.58,0,0,1,1.64-2.93,4.87,4.87,0,0,1-1.52-1V108l2.21-2.33a4.2,4.2,0,0,1-1.47-3.31,4.35,4.35,0,0,1,2.38-3.95,5.74,5.74,0,0,1,2.76-.61,6.3,6.3,0,0,1,2,.3h4.76v2l-2.15.15a4.46,4.46,0,0,1,.5,2.13,4.51,4.51,0,0,1-.6,2.3,4.39,4.39,0,0,1-1.76,1.65A5.83,5.83,0,0,1,80.85,106.93Zm-3,5.29a1.51,1.51,0,0,0,.87,1.41,4.51,4.51,0,0,0,2.14.47,3.53,3.53,0,0,0,2-.5,1.51,1.51,0,0,0,.76-1.33,1.46,1.46,0,0,0-.49-1.13,3.32,3.32,0,0,0-2-.56c-.69,0-1.33-.13-1.92-.23a3,3,0,0,0-1.06.89A1.77,1.77,0,0,0,77.81,112.22Zm3-7.77a2.46,2.46,0,0,0,1.63-.53,2.12,2.12,0,0,0,0-3,2.83,2.83,0,0,0-3.3,0,2.12,2.12,0,0,0,0,3A2.46,2.46,0,0,0,80.85,104.45Z"/><path class="cls-2" d="M94.26,111a5.89,5.89,0,0,1-2.66-.52,3.57,3.57,0,0,1-1.54-1.37,3.68,3.68,0,0,1-.51-1.9,3.47,3.47,0,0,1,1.37-2.84,6.54,6.54,0,0,1,4.1-1.09h3.19V103a2.36,2.36,0,0,0-.73-1.9,2.81,2.81,0,0,0-1.83-.61,3.17,3.17,0,0,0-1.72.47A2,2,0,0,0,93,102.3H89.86a4.41,4.41,0,0,1,.92-2.38,5.18,5.18,0,0,1,2.06-1.55,7,7,0,0,1,2.84-.55,6.26,6.26,0,0,1,4.23,1.34,4.77,4.77,0,0,1,1.54,3.8v7.72H98.69l-.3-2A4.36,4.36,0,0,1,94.26,111Zm.74-2.53a2.68,2.68,0,0,0,2.16-.91,4.43,4.43,0,0,0,1-2.25H95.38a2.82,2.82,0,0,0-1.85.47,1.44,1.44,0,0,0-.56,1.15,1.33,1.33,0,0,0,.56,1.14A2.44,2.44,0,0,0,95,108.45Z"/><path class="cls-2" d="M109.85,106.93a6.53,6.53,0,0,1-1.69-.2l-.94.94a4.58,4.58,0,0,0,1.17.38c.49.1,1.28.2,2.38.3a6.55,6.55,0,0,1,3.64,1.19,3.29,3.29,0,0,1,1.14,2.66,3.94,3.94,0,0,1-.61,2.11,4.29,4.29,0,0,1-1.87,1.62,7.31,7.31,0,0,1-3.24.62,8.24,8.24,0,0,1-4.33-1,3.26,3.26,0,0,1-1.64-3,3.58,3.58,0,0,1,1.64-2.93,5,5,0,0,1-.87-.48,4.44,4.44,0,0,1-.65-.54V108l2.2-2.33a4.23,4.23,0,0,1-1.47-3.31,4.38,4.38,0,0,1,2.39-3.95,5.67,5.67,0,0,1,2.75-.61,6.32,6.32,0,0,1,2,.3h4.76v2l-2.15.15a4.58,4.58,0,0,1,.5,2.13,4.42,4.42,0,0,1-.61,2.3,4.33,4.33,0,0,1-1.76,1.65A5.78,5.78,0,0,1,109.85,106.93Zm-3,5.29a1.51,1.51,0,0,0,.87,1.41,4.48,4.48,0,0,0,2.14.47,3.53,3.53,0,0,0,2-.5,1.51,1.51,0,0,0,.76-1.33,1.46,1.46,0,0,0-.49-1.13,3.32,3.32,0,0,0-2-.56c-.7,0-1.34-.13-1.93-.23a2.9,2.9,0,0,0-1.05.89A1.77,1.77,0,0,0,106.82,112.22Zm3-7.77a2.47,2.47,0,0,0,1.64-.53,2.12,2.12,0,0,0,0-3,2.52,2.52,0,0,0-1.64-.53,2.55,2.55,0,0,0-1.67.53,2.15,2.15,0,0,0,0,3A2.5,2.5,0,0,0,109.85,104.45Z"/><path class="cls-2" d="M124.54,111a6.86,6.86,0,0,1-3.37-.81,5.84,5.84,0,0,1-2.3-2.27,6.72,6.72,0,0,1-.84-3.4,7.11,7.11,0,0,1,.82-3.46,5.92,5.92,0,0,1,2.28-2.37,6.64,6.64,0,0,1,3.43-.85,6.5,6.5,0,0,1,3.27.81,5.82,5.82,0,0,1,2.21,2.22,6.19,6.19,0,0,1,.8,3.12c0,.19,0,.38,0,.58s0,.42,0,.64h-9.55a3.26,3.26,0,0,0,1,2.3,3.2,3.2,0,0,0,2.24.84,2.92,2.92,0,0,0,1.66-.45,2.71,2.71,0,0,0,1-1.15h3.29a6.06,6.06,0,0,1-1.18,2.17,5.79,5.79,0,0,1-2,1.53A6.42,6.42,0,0,1,124.54,111Zm0-10.53a3.51,3.51,0,0,0-2.1.67,3.12,3.12,0,0,0-1.17,2h6.26a2.76,2.76,0,0,0-.91-2A3,3,0,0,0,124.56,100.45Z"/><path class="cls-2" d="M133.57,110.68V98.12h2.86l.28,1.7a4.42,4.42,0,0,1,1.61-1.45,4.67,4.67,0,0,1,2.31-.55,4.31,4.31,0,0,1,4.13,2.25,4.8,4.8,0,0,1,1.84-1.64,5.21,5.21,0,0,1,2.51-.61,4.78,4.78,0,0,1,3.77,1.47,6.23,6.23,0,0,1,1.32,4.3v7.09H151V103.9a4.22,4.22,0,0,0-.62-2.48,2.18,2.18,0,0,0-1.91-.86,2.6,2.6,0,0,0-2.11,1,4.08,4.08,0,0,0-.8,2.68v6.48h-3.24V103.9a4.15,4.15,0,0,0-.63-2.48,2.26,2.26,0,0,0-2-.86,2.59,2.59,0,0,0-2.09,1,4.08,4.08,0,0,0-.8,2.68v6.48Z"/><path class="cls-2" d="M163.39,111a6.86,6.86,0,0,1-3.37-.81,5.9,5.9,0,0,1-2.3-2.27,6.72,6.72,0,0,1-.84-3.4,7.11,7.11,0,0,1,.83-3.46A5.89,5.89,0,0,1,160,98.67a6.69,6.69,0,0,1,3.43-.85,6.47,6.47,0,0,1,3.27.81,5.82,5.82,0,0,1,2.21,2.22,6.09,6.09,0,0,1,.8,3.12c0,.19,0,.38,0,.58s0,.42,0,.64H160.1a3.3,3.3,0,0,0,1,2.3,3.24,3.24,0,0,0,2.25.84,2.91,2.91,0,0,0,1.65-.45,2.71,2.71,0,0,0,1-1.15h3.29a6,6,0,0,1-1.17,2.17,5.83,5.83,0,0,1-2,1.53A6.42,6.42,0,0,1,163.39,111Zm0-10.53a3.51,3.51,0,0,0-2.1.67,3.16,3.16,0,0,0-1.16,2h6.25a2.72,2.72,0,0,0-.91-2A3,3,0,0,0,163.41,100.45Z"/><path class="cls-2" d="M172.43,110.68V98.12h2.86l.25,2.13a4.47,4.47,0,0,1,1.68-1.77,5,5,0,0,1,2.6-.66,4.57,4.57,0,0,1,3.62,1.47,6.33,6.33,0,0,1,1.29,4.3v7.09h-3.24V103.9a4,4,0,0,0-.66-2.48,2.4,2.4,0,0,0-2.05-.86,2.89,2.89,0,0,0-2.24,1,3.84,3.84,0,0,0-.87,2.68v6.48Z"/><path class="cls-2" d="M193.41,110.68a4.86,4.86,0,0,1-3.16-1c-.8-.64-1.19-1.78-1.19-3.42v-5.47H186.9V98.12h2.16l.38-3.36h2.86v3.36h3.39v2.71H192.3v5.5a1.63,1.63,0,0,0,.39,1.25,2.05,2.05,0,0,0,1.35.34h1.57v2.76Z"/><path class="cls-2" d="M2.81,126.55A2.08,2.08,0,0,1,1.35,126a1.75,1.75,0,0,1-.56-1.34,1.7,1.7,0,0,1,.56-1.33,2.07,2.07,0,0,1,1.46-.52,2.09,2.09,0,0,1,1.46.52,1.74,1.74,0,0,1,.56,1.33A1.79,1.79,0,0,1,4.27,126,2.1,2.1,0,0,1,2.81,126.55ZM1.19,141.06V128.5H4.43v12.56Z"/><path class="cls-2" d="M7.82,141.06V128.5h2.86l.26,2.13a4.3,4.3,0,0,1,1.68-1.78,5,5,0,0,1,2.59-.65,4.58,4.58,0,0,1,3.62,1.46A6.36,6.36,0,0,1,20.12,134v7.09H16.88v-6.79a4,4,0,0,0-.66-2.48,2.4,2.4,0,0,0-2-.86,2.88,2.88,0,0,0-2.24,1,3.82,3.82,0,0,0-.88,2.68v6.49Z"/><path class="cls-2" d="M29.31,141.06V123.34h6.05a10.57,10.57,0,0,1,5.13,1.1,6.9,6.9,0,0,1,3,3.09,11.62,11.62,0,0,1,0,9.34,6.93,6.93,0,0,1-3,3.08,10.56,10.56,0,0,1-5.13,1.11Zm3.24-2.79h2.66a7.27,7.27,0,0,0,3.52-.72,4.08,4.08,0,0,0,1.85-2.08,10,10,0,0,0,0-6.54,4.17,4.17,0,0,0-1.85-2.1,7.15,7.15,0,0,0-3.52-.73H32.55Z"/><path class="cls-2" d="M53.26,141.36a6.43,6.43,0,0,1-3.28-.84,6.07,6.07,0,0,1-2.3-2.31,7.31,7.31,0,0,1,0-6.86A6.2,6.2,0,0,1,50,129a6.86,6.86,0,0,1,6.54,0,6.17,6.17,0,0,1,2.3,2.32,7.35,7.35,0,0,1,0,6.86,6.13,6.13,0,0,1-2.32,2.31A6.44,6.44,0,0,1,53.26,141.36Zm0-2.81a3,3,0,0,0,2.2-1,4.7,4.7,0,0,0,0-5.64,3,3,0,0,0-4.39,0,4.74,4.74,0,0,0,0,5.64A3,3,0,0,0,53.26,138.55Z"/><path class="cls-2" d="M68.72,141.36a6.71,6.71,0,0,1-3.39-.84A6,6,0,0,1,63,138.19a7.36,7.36,0,0,1,0-6.83A6.11,6.11,0,0,1,65.33,129a6.81,6.81,0,0,1,3.39-.83,6.43,6.43,0,0,1,4,1.25,5.57,5.57,0,0,1,2.1,3.45H71.46a2.58,2.58,0,0,0-1-1.43A3.06,3.06,0,0,0,68.7,131a3,3,0,0,0-2.28,1,4.67,4.67,0,0,0,0,5.62,3,3,0,0,0,2.28,1,3.06,3.06,0,0,0,1.76-.51,2.47,2.47,0,0,0,1-1.44h3.41a5.69,5.69,0,0,1-2.1,3.42A6.34,6.34,0,0,1,68.72,141.36Z"/><path class="cls-2" d="M82.47,141.36a4.58,4.58,0,0,1-3.64-1.47,6.38,6.38,0,0,1-1.27-4.3V128.5h3.21v6.78a4,4,0,0,0,.66,2.48,2.43,2.43,0,0,0,2.08.86,2.86,2.86,0,0,0,2.21-1,3.84,3.84,0,0,0,.87-2.68V128.5h3.24v12.56H87l-.25-2.13A4.47,4.47,0,0,1,85,140.7,4.92,4.92,0,0,1,82.47,141.36Z"/><path class="cls-2" d="M93.15,141.06V128.5H96l.28,1.7a4.41,4.41,0,0,1,1.6-1.46,4.82,4.82,0,0,1,2.32-.54,4.31,4.31,0,0,1,4.13,2.25,4.87,4.87,0,0,1,1.83-1.65,5.38,5.38,0,0,1,2.52-.6,4.82,4.82,0,0,1,3.77,1.46,6.26,6.26,0,0,1,1.32,4.31v7.09h-3.24v-6.79a4.22,4.22,0,0,0-.62-2.48,2.21,2.21,0,0,0-1.91-.86,2.63,2.63,0,0,0-2.12,1,4.1,4.1,0,0,0-.79,2.68v6.49h-3.24v-6.79a4.14,4.14,0,0,0-.64-2.48,2.27,2.27,0,0,0-2-.86,2.57,2.57,0,0,0-2.08,1,4,4,0,0,0-.8,2.68v6.49Z"/><path class="cls-2" d="M123,141.36a6.86,6.86,0,0,1-3.37-.81,5.8,5.8,0,0,1-2.3-2.28,6.71,6.71,0,0,1-.84-3.39,7.26,7.26,0,0,1,.82-3.47,6,6,0,0,1,2.28-2.37,6.76,6.76,0,0,1,3.43-.84,6.5,6.5,0,0,1,3.27.81,5.79,5.79,0,0,1,2.21,2.21,6.26,6.26,0,0,1,.8,3.13c0,.18,0,.38,0,.58s0,.41,0,.63h-9.54a3.15,3.15,0,0,0,3.26,3.14,3,3,0,0,0,1.66-.44,2.77,2.77,0,0,0,1-1.15h3.29a6,6,0,0,1-1.18,2.16,5.79,5.79,0,0,1-2,1.53A6.42,6.42,0,0,1,123,141.36Zm0-10.53a3.44,3.44,0,0,0-2.1.67,3.07,3.07,0,0,0-1.16,2H126a2.76,2.76,0,0,0-.91-2A3,3,0,0,0,123,130.83Z"/><path class="cls-2" d="M132,141.06V128.5h2.86l.26,2.13a4.36,4.36,0,0,1,1.68-1.78,5,5,0,0,1,2.59-.65,4.58,4.58,0,0,1,3.62,1.46A6.31,6.31,0,0,1,144.3,134v7.09h-3.24v-6.79a4,4,0,0,0-.65-2.48,2.43,2.43,0,0,0-2-.86,2.89,2.89,0,0,0-2.24,1,3.86,3.86,0,0,0-.88,2.68v6.49Z"/><path class="cls-2" d="M153,141.06a4.92,4.92,0,0,1-3.17-1,4.18,4.18,0,0,1-1.19-3.41v-5.47h-2.15V128.5h2.15l.38-3.37h2.86v3.37h3.4v2.71h-3.4v5.49a1.56,1.56,0,0,0,.4,1.25,2,2,0,0,0,1.35.35h1.57v2.76Z"/><path class="cls-2" d="M159.79,126.55a2.07,2.07,0,0,1-1.45-.53,1.76,1.76,0,0,1-.57-1.34,1.71,1.71,0,0,1,.57-1.33,2.3,2.3,0,0,1,2.91,0,1.71,1.71,0,0,1,.57,1.33,1.76,1.76,0,0,1-.57,1.34A2.06,2.06,0,0,1,159.79,126.55Zm-1.61,14.51V128.5h3.24v12.56Z"/><path class="cls-2" d="M164.81,141.06V128.5h2.86l.25,2.13a4.39,4.39,0,0,1,1.69-1.78,5,5,0,0,1,2.59-.65,4.59,4.59,0,0,1,3.62,1.46,6.36,6.36,0,0,1,1.29,4.31v7.09h-3.24v-6.79a4,4,0,0,0-.66-2.48,2.43,2.43,0,0,0-2.05-.86,2.89,2.89,0,0,0-2.24,1,3.86,3.86,0,0,0-.87,2.68v6.49Z"/><path class="cls-2" d="M185.51,137.31a7,7,0,0,1-1.69-.2l-.94.93a4.49,4.49,0,0,0,1.16.38c.5.1,1.29.2,2.38.31a6.48,6.48,0,0,1,3.65,1.19,3.27,3.27,0,0,1,1.14,2.65,4,4,0,0,1-.61,2.12,4.42,4.42,0,0,1-1.87,1.62,7.45,7.45,0,0,1-3.24.62,8.33,8.33,0,0,1-4.33-1,3.29,3.29,0,0,1-1.65-3,3.62,3.62,0,0,1,1.65-2.94,5,5,0,0,1-.87-.48,4.4,4.4,0,0,1-.65-.53v-.58l2.2-2.33a4.21,4.21,0,0,1-1.46-3.32,4.42,4.42,0,0,1,.61-2.3,4.52,4.52,0,0,1,1.76-1.65,5.86,5.86,0,0,1,2.76-.6,6.32,6.32,0,0,1,2,.3h4.76v2l-2.15.16a4.57,4.57,0,0,1,.5,2.12,4.46,4.46,0,0,1-.61,2.31,4.24,4.24,0,0,1-1.76,1.64A5.66,5.66,0,0,1,185.51,137.31Zm-3,5.29a1.5,1.5,0,0,0,.87,1.4,4.37,4.37,0,0,0,2.14.47,3.53,3.53,0,0,0,2-.49,1.51,1.51,0,0,0,.76-1.33,1.47,1.47,0,0,0-.49-1.14,3.43,3.43,0,0,0-2-.56c-.7,0-1.34-.12-1.93-.22a2.88,2.88,0,0,0-1.05.88A1.78,1.78,0,0,0,182.48,142.6Zm3-7.77a2.54,2.54,0,0,0,1.64-.53,2.12,2.12,0,0,0,0-3,2.85,2.85,0,0,0-3.31,0,2.15,2.15,0,0,0,0,3A2.53,2.53,0,0,0,185.51,134.83Z"/><path class="cls-2" d="M6.66,171.43a4.91,4.91,0,0,1-3.17-1,4.19,4.19,0,0,1-1.19-3.42v-5.47H.15v-2.71H2.3l.38-3.36H5.54v3.36h3.4v2.71H5.54v5.5a1.59,1.59,0,0,0,.4,1.25,2.05,2.05,0,0,0,1.35.34H8.86v2.76Z"/><path class="cls-2" d="M11.72,171.43V153.2H15v7.6a4.47,4.47,0,0,1,1.71-1.63,5,5,0,0,1,2.46-.6A4.52,4.52,0,0,1,22.74,160a6.38,6.38,0,0,1,1.28,4.3v7.09H20.81v-6.78a4.07,4.07,0,0,0-.65-2.48,2.37,2.37,0,0,0-2-.86,3,3,0,0,0-2.26,1A3.76,3.76,0,0,0,15,165v6.48Z"/><path class="cls-2" d="M33.21,171.73a6.86,6.86,0,0,1-3.37-.81,5.9,5.9,0,0,1-2.3-2.27,6.72,6.72,0,0,1-.84-3.4,7.11,7.11,0,0,1,.83-3.46,5.83,5.83,0,0,1,2.27-2.37,6.69,6.69,0,0,1,3.43-.85,6.47,6.47,0,0,1,3.27.81,5.75,5.75,0,0,1,2.21,2.22,6.09,6.09,0,0,1,.8,3.12c0,.19,0,.38,0,.58s0,.42,0,.64H29.92a3.3,3.3,0,0,0,1,2.3,3.23,3.23,0,0,0,2.24.84,2.92,2.92,0,0,0,1.66-.45,2.71,2.71,0,0,0,1-1.15h3.29A6,6,0,0,1,38,169.65a5.83,5.83,0,0,1-2,1.53A6.42,6.42,0,0,1,33.21,171.73Zm0-10.53a3.51,3.51,0,0,0-2.1.67,3.16,3.16,0,0,0-1.16,2h6.25a2.72,2.72,0,0,0-.91-2A3,3,0,0,0,33.23,161.2Z"/><path class="cls-2" d="M48.35,171.43V153.71h6a10.65,10.65,0,0,1,5.13,1.1,7,7,0,0,1,3,3.09,11.73,11.73,0,0,1,0,9.34,6.92,6.92,0,0,1-3,3.09,10.65,10.65,0,0,1-5.13,1.1Zm3.24-2.78h2.65a7.23,7.23,0,0,0,3.52-.73,4.1,4.1,0,0,0,1.85-2.07,9.83,9.83,0,0,0,0-6.54,4.15,4.15,0,0,0-1.85-2.11,7.23,7.23,0,0,0-3.52-.73H51.59Z"/><path class="cls-2" d="M68,156.93a2,2,0,0,1-1.45-.54,1.75,1.75,0,0,1-.57-1.34,1.72,1.72,0,0,1,.57-1.33A2.09,2.09,0,0,1,68,153.2a2.12,2.12,0,0,1,1.46.52,1.72,1.72,0,0,1,.57,1.33,1.75,1.75,0,0,1-.57,1.34A2,2,0,0,1,68,156.93Zm-1.62,14.5V158.87h3.24v12.56Z"/><path class="cls-2" d="M78.21,171.73a7.4,7.4,0,0,1-2.93-.54,5.07,5.07,0,0,1-2-1.51,4.39,4.39,0,0,1-.91-2.22h3.27a2.08,2.08,0,0,0,.82,1.25,2.74,2.74,0,0,0,1.73.52,2.38,2.38,0,0,0,1.56-.43,1.29,1.29,0,0,0,.49-1,1.08,1.08,0,0,0-.7-1.1,13.61,13.61,0,0,0-2-.57c-.54-.12-1.09-.26-1.64-.43a7,7,0,0,1-1.53-.65,3.24,3.24,0,0,1-1.13-1,2.58,2.58,0,0,1-.43-1.53,3.55,3.55,0,0,1,1.33-2.81,5.55,5.55,0,0,1,3.73-1.14,5.64,5.64,0,0,1,3.56,1A4.22,4.22,0,0,1,83,162.47H79.94c-.19-.93-.89-1.39-2.1-1.39a2.45,2.45,0,0,0-1.41.35,1.06,1.06,0,0,0-.49.89c0,.37.24.66.73.88a10.31,10.31,0,0,0,2,.61c.88.2,1.68.43,2.42.67a4.16,4.16,0,0,1,1.76,1.09,3,3,0,0,1,.66,2.06,3.57,3.57,0,0,1-.61,2.1A4.13,4.13,0,0,1,81,171.2,6.82,6.82,0,0,1,78.21,171.73Z"/><path class="cls-2" d="M90.64,171.73a5.84,5.84,0,0,1-2.65-.52,3.54,3.54,0,0,1-1.55-1.37,3.67,3.67,0,0,1-.5-1.9,3.46,3.46,0,0,1,1.36-2.84A6.54,6.54,0,0,1,91.4,164h3.19v-.3a2.33,2.33,0,0,0-.73-1.9A2.8,2.8,0,0,0,92,161.2a3.18,3.18,0,0,0-1.73.47,2,2,0,0,0-.91,1.38H86.24a4.41,4.41,0,0,1,.92-2.38,5.15,5.15,0,0,1,2.07-1.55,6.94,6.94,0,0,1,2.83-.55,6.26,6.26,0,0,1,4.23,1.34,4.77,4.77,0,0,1,1.54,3.8v7.72H95.07l-.3-2a4.36,4.36,0,0,1-4.13,2.33Zm.74-2.53a2.67,2.67,0,0,0,2.16-.91,4.44,4.44,0,0,0,1-2.25H91.76a2.84,2.84,0,0,0-1.85.47,1.44,1.44,0,0,0-.56,1.15,1.33,1.33,0,0,0,.56,1.14A2.44,2.44,0,0,0,91.38,169.2Z"/><path class="cls-2" d="M100.92,177V158.87h2.89l.35,1.8a5.89,5.89,0,0,1,1.61-1.47,4.78,4.78,0,0,1,2.59-.63,6,6,0,0,1,3.17.86,6.25,6.25,0,0,1,2.2,2.36,7.48,7.48,0,0,1,0,6.77,6.24,6.24,0,0,1-2.2,2.33,6,6,0,0,1-3.17.84,5.42,5.42,0,0,1-2.48-.53,4.43,4.43,0,0,1-1.72-1.49V177Zm6.76-8.1a3.41,3.41,0,0,0,2.55-1,3.67,3.67,0,0,0,1-2.68,3.75,3.75,0,0,0-1-2.71,3.35,3.35,0,0,0-2.55-1.06,3.39,3.39,0,0,0-2.57,1.05,4.13,4.13,0,0,0,0,5.39A3.39,3.39,0,0,0,107.68,168.9Z"/><path class="cls-2" d="M117.42,177V158.87h2.89l.35,1.8a6.2,6.2,0,0,1,1.61-1.47,4.81,4.81,0,0,1,2.6-.63,5.92,5.92,0,0,1,3.16.86,6.18,6.18,0,0,1,2.2,2.36,7.48,7.48,0,0,1,0,6.77,6.16,6.16,0,0,1-2.2,2.33,6,6,0,0,1-3.16.84,5.44,5.44,0,0,1-2.49-.53,4.51,4.51,0,0,1-1.72-1.49V177Zm6.76-8.1a3.44,3.44,0,0,0,2.56-1,3.7,3.7,0,0,0,1-2.68,3.79,3.79,0,0,0-1-2.71,3.65,3.65,0,0,0-5.13,0,4.13,4.13,0,0,0,0,5.39A3.41,3.41,0,0,0,124.18,168.9Z"/><path class="cls-2" d="M140,171.73a6.86,6.86,0,0,1-3.37-.81,5.9,5.9,0,0,1-2.3-2.27,6.72,6.72,0,0,1-.84-3.4,7.11,7.11,0,0,1,.83-3.46,5.83,5.83,0,0,1,2.27-2.37,6.66,6.66,0,0,1,3.43-.85,6.47,6.47,0,0,1,3.27.81,5.82,5.82,0,0,1,2.21,2.22,6.19,6.19,0,0,1,.8,3.12c0,.19,0,.38,0,.58s0,.42,0,.64h-9.54a3.25,3.25,0,0,0,1,2.3,3.21,3.21,0,0,0,2.24.84,2.92,2.92,0,0,0,1.66-.45,2.71,2.71,0,0,0,1-1.15H146a6.19,6.19,0,0,1-1.17,2.17,5.83,5.83,0,0,1-2,1.53A6.42,6.42,0,0,1,140,171.73Zm0-10.53a3.51,3.51,0,0,0-2.1.67,3.16,3.16,0,0,0-1.16,2H143a2.72,2.72,0,0,0-.91-2A3,3,0,0,0,140.05,161.2Z"/><path class="cls-2" d="M153.39,171.73a5.84,5.84,0,0,1-2.65-.52,3.54,3.54,0,0,1-1.55-1.37,3.67,3.67,0,0,1-.5-1.9,3.46,3.46,0,0,1,1.36-2.84,6.54,6.54,0,0,1,4.1-1.09h3.19v-.3a2.33,2.33,0,0,0-.73-1.9,2.8,2.8,0,0,0-1.82-.61,3.18,3.18,0,0,0-1.73.47,2,2,0,0,0-.91,1.38H149a4.41,4.41,0,0,1,.92-2.38,5.15,5.15,0,0,1,2.07-1.55,6.94,6.94,0,0,1,2.83-.55,6.26,6.26,0,0,1,4.23,1.34,4.77,4.77,0,0,1,1.54,3.8v7.72h-2.76l-.3-2a4.36,4.36,0,0,1-4.13,2.33Zm.74-2.53a2.67,2.67,0,0,0,2.16-.91,4.44,4.44,0,0,0,1-2.25h-2.76a2.84,2.84,0,0,0-1.85.47,1.44,1.44,0,0,0-.56,1.15,1.33,1.33,0,0,0,.56,1.14A2.44,2.44,0,0,0,154.13,169.2Z"/><path class="cls-2" d="M163.67,171.43V158.87h2.89l.3,2.36a5.09,5.09,0,0,1,4.63-2.66V162h-.91a5.15,5.15,0,0,0-1.9.33,2.53,2.53,0,0,0-1.3,1.14,4.54,4.54,0,0,0-.47,2.25v5.72Z"/><path class="cls-2" d="M175.44,156.93a2.06,2.06,0,0,1-1.46-.54,1.77,1.77,0,0,1-.56-1.34,1.75,1.75,0,0,1,.56-1.33,2.31,2.31,0,0,1,2.92,0,1.72,1.72,0,0,1,.56,1.33,1.74,1.74,0,0,1-.56,1.34A2,2,0,0,1,175.44,156.93Zm-1.62,14.5V158.87h3.24v12.56Z"/><path class="cls-2" d="M180.45,171.43V158.87h2.86l.26,2.13a4.4,4.4,0,0,1,1.68-1.77,4.94,4.94,0,0,1,2.59-.66,4.55,4.55,0,0,1,3.62,1.47,6.33,6.33,0,0,1,1.29,4.3v7.09h-3.24v-6.78a4.07,4.07,0,0,0-.65-2.48,2.41,2.41,0,0,0-2.05-.86,2.88,2.88,0,0,0-2.24,1,3.8,3.8,0,0,0-.88,2.68v6.48Z"/><path class="cls-2" d="M201.16,167.68a6.55,6.55,0,0,1-1.7-.2l-.93.94a4.37,4.37,0,0,0,1.16.38c.49.1,1.28.2,2.38.3a6.52,6.52,0,0,1,3.64,1.19,3.29,3.29,0,0,1,1.14,2.66,4,4,0,0,1-.6,2.11,4.32,4.32,0,0,1-1.88,1.62,7.25,7.25,0,0,1-3.24.62,8.24,8.24,0,0,1-4.33-1,3.28,3.28,0,0,1-1.64-3,3.61,3.61,0,0,1,1.64-2.93,5.86,5.86,0,0,1-.87-.48,4.34,4.34,0,0,1-.64-.54v-.58l2.2-2.33a4.2,4.2,0,0,1-1.47-3.31,4.47,4.47,0,0,1,.62-2.31,4.36,4.36,0,0,1,1.76-1.64,5.74,5.74,0,0,1,2.76-.61,6.21,6.21,0,0,1,2,.3h4.76v2l-2.15.15a4.47,4.47,0,0,1,.51,2.13,4.52,4.52,0,0,1-.61,2.3,4.39,4.39,0,0,1-1.76,1.65A5.83,5.83,0,0,1,201.16,167.68Zm-3,5.29a1.51,1.51,0,0,0,.87,1.41,4.54,4.54,0,0,0,2.14.47,3.59,3.59,0,0,0,2-.5,1.53,1.53,0,0,0,.76-1.33,1.47,1.47,0,0,0-.5-1.13,3.32,3.32,0,0,0-2-.56c-.69-.05-1.33-.13-1.92-.23a2.9,2.9,0,0,0-1.05.89A1.71,1.71,0,0,0,198.12,173Zm3-7.77a2.44,2.44,0,0,0,1.63-.53,2.1,2.1,0,0,0,0-3,2.83,2.83,0,0,0-3.3,0,2.13,2.13,0,0,0,0,3A2.46,2.46,0,0,0,201.16,165.2Z"/><path class="cls-2" d="M4.73,201.81.05,184.09H3.52l3.19,14.1,3.74-14.1H14l3.65,14.1,3.19-14.1h3.49l-4.81,17.72H15.69l-3.51-13.14L8.55,201.81Z"/><path class="cls-2" d="M29.51,202.11a5.84,5.84,0,0,1-2.65-.52,3.5,3.5,0,0,1-2.05-3.28,3.44,3.44,0,0,1,1.36-2.83,6.47,6.47,0,0,1,4.1-1.09h3.19v-.31a2.3,2.3,0,0,0-.73-1.89,2.74,2.74,0,0,0-1.82-.61,3,3,0,0,0-1.72.47,2,2,0,0,0-.92,1.38H25.11a4.38,4.38,0,0,1,.92-2.38,5.08,5.08,0,0,1,2.07-1.56,7.11,7.11,0,0,1,2.83-.54,6.21,6.21,0,0,1,4.23,1.34,4.74,4.74,0,0,1,1.54,3.79v7.73H33.94l-.3-2a4.7,4.7,0,0,1-1.56,1.67A4.56,4.56,0,0,1,29.51,202.11Zm.74-2.53a2.69,2.69,0,0,0,2.16-.91,4.44,4.44,0,0,0,1-2.26H30.63a2.9,2.9,0,0,0-1.85.47,1.46,1.46,0,0,0-.56,1.15,1.33,1.33,0,0,0,.56,1.14A2.44,2.44,0,0,0,30.25,199.58Z"/><path class="cls-2" d="M39.79,201.81V183.58H43v7.59a4.54,4.54,0,0,1,1.71-1.63,5.1,5.1,0,0,1,2.47-.59,4.54,4.54,0,0,1,3.6,1.46,6.36,6.36,0,0,1,1.28,4.31v7.09H48.88V195a4.07,4.07,0,0,0-.65-2.48,2.38,2.38,0,0,0-2-.86,3,3,0,0,0-2.27,1,3.78,3.78,0,0,0-.9,2.68v6.49Z"/><path class="cls-2" d="M61.28,201.81V184.09H72.72v2.6h-8.2v5h6.63v2.56H64.52v7.6Z"/><path class="cls-2" d="M79.86,202.11a4.55,4.55,0,0,1-3.63-1.47,6.38,6.38,0,0,1-1.28-4.3v-7.09h3.21V196a4,4,0,0,0,.66,2.48,2.43,2.43,0,0,0,2.08.86,2.86,2.86,0,0,0,2.21-1,3.8,3.8,0,0,0,.88-2.68v-6.48h3.24v12.56H84.37l-.26-2.13a4.47,4.47,0,0,1-1.68,1.77A4.89,4.89,0,0,1,79.86,202.11Z"/><path class="cls-2" d="M96.64,201.81V184.09h11.57v2.6H99.88v4.86h7.57v2.53H99.88v5.12h8.33v2.61Z"/><path class="cls-2" d="M116.38,202.11a7.23,7.23,0,0,1-2.93-.55,5.12,5.12,0,0,1-2-1.5,4.47,4.47,0,0,1-.91-2.23h3.27a2.06,2.06,0,0,0,.82,1.25,2.75,2.75,0,0,0,1.74.52,2.31,2.31,0,0,0,1.55-.43,1.25,1.25,0,0,0,.49-1,1.1,1.1,0,0,0-.7-1.11,14,14,0,0,0-2-.57c-.54-.11-1.09-.26-1.64-.43a7,7,0,0,1-1.53-.64,3.35,3.35,0,0,1-1.13-1,2.62,2.62,0,0,1-.43-1.53,3.53,3.53,0,0,1,1.33-2.81A5.55,5.55,0,0,1,116,189a5.64,5.64,0,0,1,3.56,1,4.26,4.26,0,0,1,1.58,2.86h-3.06c-.19-.92-.89-1.39-2.1-1.39a2.37,2.37,0,0,0-1.41.36,1,1,0,0,0-.49.88c0,.37.24.67.73.89a11.1,11.1,0,0,0,2,.61,24.55,24.55,0,0,1,2.42.67,4,4,0,0,1,1.76,1.08,3,3,0,0,1,.65,2.07,3.53,3.53,0,0,1-.6,2.1,4.27,4.27,0,0,1-1.82,1.47A7,7,0,0,1,116.38,202.11Z"/><path class="cls-2" d="M129.67,201.81a4.89,4.89,0,0,1-3.16-1,4.18,4.18,0,0,1-1.19-3.41V192h-2.15v-2.71h2.15l.38-3.37h2.86v3.37H132V192h-3.39v5.49a1.6,1.6,0,0,0,.39,1.25,2.08,2.08,0,0,0,1.36.35h1.57v2.76Z"/><path class="cls-2" d="M139.06,202.11a5.84,5.84,0,0,1-2.65-.52,3.63,3.63,0,0,1-1.55-1.38,3.74,3.74,0,0,1-.5-1.9,3.44,3.44,0,0,1,1.36-2.83,6.47,6.47,0,0,1,4.1-1.09H143v-.31a2.3,2.3,0,0,0-.73-1.89,2.74,2.74,0,0,0-1.82-.61,3,3,0,0,0-1.72.47,2,2,0,0,0-.92,1.38h-3.16a4.38,4.38,0,0,1,.92-2.38,5.15,5.15,0,0,1,2.07-1.56,7.14,7.14,0,0,1,2.83-.54,6.21,6.21,0,0,1,4.23,1.34,4.74,4.74,0,0,1,1.54,3.79v7.73h-2.76l-.3-2a4.7,4.7,0,0,1-1.56,1.67A4.56,4.56,0,0,1,139.06,202.11Zm.74-2.53a2.69,2.69,0,0,0,2.16-.91,4.44,4.44,0,0,0,1-2.26h-2.76a2.9,2.9,0,0,0-1.85.47,1.46,1.46,0,0,0-.56,1.15,1.33,1.33,0,0,0,.56,1.14A2.44,2.44,0,0,0,139.8,199.58Z"/><path class="cls-2" d="M154.76,201.81a4.87,4.87,0,0,1-3.16-1,4.15,4.15,0,0,1-1.19-3.41V192h-2.16v-2.71h2.16l.38-3.37h2.86v3.37H157V192h-3.39v5.49a1.6,1.6,0,0,0,.39,1.25,2,2,0,0,0,1.35.35H157v2.76Z"/><path class="cls-2" d="M165.59,202.11a6.85,6.85,0,0,1-3.36-.81,5.89,5.89,0,0,1-2.31-2.28,6.81,6.81,0,0,1-.83-3.39,7.15,7.15,0,0,1,.82-3.47,6,6,0,0,1,2.28-2.37,6.73,6.73,0,0,1,3.43-.84,6.44,6.44,0,0,1,3.26.81A5.75,5.75,0,0,1,171.1,192a6.26,6.26,0,0,1,.8,3.13c0,.18,0,.38,0,.58s0,.41,0,.63H162.3a3.29,3.29,0,0,0,1,2.31,3.23,3.23,0,0,0,2.24.83,3,3,0,0,0,1.66-.44,2.84,2.84,0,0,0,1-1.15h3.29a6,6,0,0,1-1.18,2.16,5.74,5.74,0,0,1-2,1.53A6.39,6.39,0,0,1,165.59,202.11Zm0-10.53a3.42,3.42,0,0,0-2.1.67,3.12,3.12,0,0,0-1.17,2h6.26a2.8,2.8,0,0,0-.91-2A3,3,0,0,0,165.62,191.58Z"/></g></svg>