<svg xmlns="http://www.w3.org/2000/svg" viewBox="0 0 75 86.66"><defs><style>.cls-1{fill:none;stroke:#fff;stroke-linecap:round;stroke-linejoin:round;stroke-width:0.49px;}</style></defs><g id="Logo"><polygon class="cls-1" points="14.35 12.55 21.73 8.29 29.12 12.55 21.73 16.81 14.35 12.55"/><polygon class="cls-1" points="45.88 12.55 53.27 8.29 60.65 12.55 53.27 16.81 45.88 12.55"/><polygon class="cls-1" points="21.73 23.7 24.15 25.1 37.5 17.39 50.85 25.1 53.27 23.7 55.68 25.1 75 13.94 72.58 12.55 75 11.15 55.68 0 53.27 1.39 50.85 0 37.5 7.71 24.15 0 21.73 1.39 19.32 0 0 11.15 2.42 12.55 0 13.94 19.32 25.1 21.73 23.7"/><polyline class="cls-1" points="0 75 19.32 86.15 21.73 84.76 24.15 86.15 37.5 78.44 50.85 86.15 53.27 84.76 55.68 86.15 75 75"/><line class="cls-1" x1="19.32" y1="25.1" x2="19.32" y2="86.15"/><line class="cls-1" y1="11.15" y2="13.94"/><line class="cls-1" x1="75" y1="11.15" x2="75" y2="13.94"/><line class="cls-1" x1="75" y1="13.94" x2="75" y2="75"/><line class="cls-1" x1="55.68" y1="25.1" x2="55.68" y2="86.15"/><line class="cls-1" x1="53.27" y1="23.7" x2="53.27" y2="84.76"/><line class="cls-1" x1="50.85" y1="25.1" x2="50.85" y2="86.15"/><line class="cls-1" x1="37.5" y1="17.39" x2="37.5" y2="78.45"/><line class="cls-1" x1="24.15" y1="25.1" x2="24.15" y2="86.15"/><line class="cls-1" x1="21.73" y1="23.7" x2="21.73" y2="84.76"/><line class="cls-1" y1="13.94" y2="75"/></g></svg>