<?xml version="1.0" encoding="utf-8"?>
<!-- Generator: Adobe Illustrator 27.6.1, SVG Export Plug-In . SVG Version: 6.00 Build 0)  -->
<svg version="1.1" xmlns="http://www.w3.org/2000/svg" xmlns:xlink="http://www.w3.org/1999/xlink" x="0px" y="0px"
	 viewBox="0 0 785.21 155.83" style="enable-background:new 0 0 785.21 155.83;" xml:space="preserve">
<style type="text/css">
	.st0{fill:#FFFFFF;}
	.st1{fill-rule:evenodd;clip-rule:evenodd;}
	.st2{fill:#43AB34;}
</style>
<g id="Layer_1">
</g>
<g id="Isolation_Mode">
	<g>
		<path class="st1" d="M690.95,77.89c-0.97,1.33-2.12,2.96-3.65,1c-0.97-1.24,0.32-2.25,1.56-2.82
			C689.55,76.68,690.25,77.29,690.95,77.89"/>
		<path class="st1" d="M691.88,83.05c-0.55,0.65-0.87,1.35-1.22,1.37c-0.94,0.05-2.24,0.15-2.78-0.39c-1.38-1.35,0.32-1.37,0.98-1.4
			C689.78,82.57,690.73,82.87,691.88,83.05"/>
		<path class="st2" d="M610.29,135.86h-1.39v-19.55h18.04v19.44h-1.4v-0.97l-15.25-0.02V135.86z M610.29,133.45l15.25-0.02v-15.82
			l-15.25,0.02V133.45z M613.96,131.9c0.48-0.11,0.86-0.21,0.96-0.54l0.03-1.32c-1.01,0.55-2.03,1.01-3.13,1.35l-0.83-1.17
			c1.3-0.32,3.37-0.91,5.17-2.57h-2.93V124h9.42l-0.03,3.65l-4.72,0.02c-0.47,0.54-1.05,1.07-1.61,1.46l-0.02,2.21
			c0.85-0.12,1.73-0.52,2.59-0.65l-0.02,1.06c-1.35,0.34-2.68,0.77-3.99,1.17L613.96,131.9z M617.19,120.49h-4.33v-1.15l4.33-0.02
			l0.02-1.2l1.38,0.02v1.18l4.38,0.02v1.15h-4.36l-0.02,1.38h5.85v1.23l-13.2-0.02v-1.21h5.95V120.49z M614.59,126.52h6.71v-1.35
			h-6.73L614.59,126.52z M623.68,132.76c-1.58-1.7-3.69-2.58-5.8-3.21l0.61-0.94c0.79,0.18,1.56,0.49,2.3,0.76
			c0.87-0.4,1.73-0.89,2.4-1.72l0.97,0.84c-0.63,0.64-1.33,1.17-2.12,1.5c0.93,0.52,1.8,1.12,2.59,1.91L623.68,132.76z"/>
		<path class="st2" d="M639.22,120.85h1.88v1.3h-1.84v5.57c0.65-0.23,1.67-0.71,2.32-0.93v1.4c-1.91,0.83-3.8,1.61-5.7,2.47
			c-0.38-0.4-0.79-0.75-1.19-1.12c1.05-0.38,2.14-0.75,3.15-1.2v-6.19l-2.34-0.02v-1.28h2.32l-0.02-4.23l1.44-0.02L639.22,120.85z
			 M646.73,130.28c-0.18,1.38-0.58,2.57-1.72,3.53c-1.5,1.26-3.32,1.78-5.3,1.93c-0.34-0.4-0.52-0.94-0.86-1.36
			c1.7-0.12,3.32-0.32,4.68-1.26c0.97-0.7,1.67-1.67,1.76-2.82h-2.35l-0.02-6.55l9.81,0.03v6.5h-2.67v2.61
			c0.02,0.23,0.15,0.52,0.51,0.52h2.17c0.56-0.32,0.72-1.05,0.88-1.55l0.18-0.96c0.44,0.16,0.87,0.4,1.37,0.51
			c-0.4,1.13-0.74,3.13-2,3.27h-2.84c-1.02,0-1.55-0.63-1.63-1.26v-3.14H646.73z M641.84,122.5v-1.28h3.7
			c-0.38-0.63-1.09-1.1-1.69-1.56c0.38-0.27,0.86-0.51,1.25-0.74c0.73,0.7,1.48,1.46,1.89,2.3h1.8c0.81-0.77,1.09-1.17,1.69-2.3
			l1.23,0.67c-0.45,0.68-0.88,1.22-1.25,1.6l3.94,0.02v1.28H641.84z M642.04,118.74v-1.3l5.06-0.02c-0.15-0.56-0.97-1.44-1.38-1.77
			l1.41-0.63c0.66,0.72,1.14,1.53,1.49,2.41l4.9,0.02v1.28L642.04,118.74z M651.28,126.44l-0.03-1.38h-6.89v1.38H651.28z
			 M644.36,127.72v1.24l6.92,0.03v-1.28H644.36z"/>
		<path class="st2" d="M663.53,127.38c0.52,0.97,1.09,2.2,1.87,3.08c1.01-1.89,1.07-3.25,1.17-4.65h-3.92v-1.2
			c1.66-1.71,3.02-3.78,3.92-5.83h-4.3v-1.32l5.74,0.02v1.3c-0.71,1.7-1.82,3.72-3.55,5.7h3.55c-0.05,1.19-0.2,4-1.67,6.97
			c2.34,2.18,5.67,2.25,8.98,2.18l3.23-0.07l3.59-0.15l-0.56,1.52h-8.68c-2.67,0-5.17-0.63-7.18-2.26c-0.37,0.41-0.63,0.9-0.99,1.29
			c-0.52,0.59-1.04,1.22-1.65,1.78l-1.07-1.03c0.99-0.94,1.93-1.94,2.66-3.08c-0.96-1.08-1.64-2.37-2.23-3.62L663.53,127.38z
			 M673.64,132.92v-2.19h-5.27v-1.33h5.24l0.03-1.72h-4.4v-1.31h4.37l0.03-1.71l-3.94-0.02v-1.33h3.94l-0.03-1.72l-5.44-0.03v-1.33
			l5.44-0.03v-1.59h-3.91v-1.33h3.91v-1.82h1.43l0.02,1.82h5.02v2.95h1.51v1.33h-1.51v3.09h-5.04v1.73l5.31-0.03l0.02,1.36h-5.31
			l-0.02,1.7h6.59v1.33h-6.59l0.02,2.19H673.64z M675.02,120.23h3.66v-1.62h-3.66V120.23z M678.68,123.31v-1.75l-3.66,0.03v1.75
			L678.68,123.31z"/>
		<path class="st2" d="M701.88,130.45c0.94,0.82,3.01,2.06,4.89,2.41c0.9,0.19,1.8,0.39,2.74,0.45l-0.79,1.35
			c-3-0.44-5.9-1.32-8.1-3.58c-0.26-0.17-0.38-0.37-0.67-0.55v5.25h-1.5l0.02-5.25c-2.14,2.67-5.43,3.49-8.58,4.25l-0.85-1.33
			c2.5-0.29,4.88-1.06,6.9-2.44l0.73-0.5l-6.67-0.05v-1.32h8.48v-1.01h1.38v1.01h8.6v1.32H701.88z M695.65,121.15
			c-0.26-0.89-0.77-1.76-1.44-2.38l-1.35-0.02c-0.56,0.84-1.3,1.73-2.17,2.41l-1.28-0.77c1.6-1.26,3.08-2.97,3.6-4.93l1.2,0.61
			c-0.18,0.45-0.38,0.95-0.61,1.38l5.82-0.03v1.36l-3.59-0.02c0.31,0.43,0.93,1.18,1.07,1.83L695.65,121.15z M689.79,126.19
			c1.26-0.09,2.46-0.31,3.63-0.51v-2.38h-2.84v-1.35h6.96v1.35h-2.71v2.06c1.1-0.09,2.16-0.43,3.26-0.59v1.3l-7.53,1.4
			L689.79,126.19z M696.23,127.06c1.64-0.16,3.24-0.58,4.3-1.86c-0.59-0.35-1.24-0.55-1.92-0.68l0.94-1.03
			c0.57,0.16,1.04,0.39,1.61,0.61c0.16-0.48,0.28-1.04,0.26-1.58h-2.92v-1.35h7.53l0.04,4.64c0.03,0.26,0.26,0.52,0.51,0.6
			c0.3,0.05,0.53-0.03,0.71-0.31l0.1-0.26c0.08-0.53,0.14-1.11,0.14-1.65l1.25,0.41c-0.19,1.05-0.17,2.54-1.31,2.99
			c-0.7,0.26-1.61,0.09-2.2-0.37c-0.47-0.35-0.63-0.94-0.63-1.52v-3.18h-1.89c-0.05,0.86-0.14,1.54-0.45,2.27
			c0.54,0.47,1.18,0.95,1.7,1.45l-0.88,1.01c-0.47-0.49-0.92-0.98-1.47-1.3c-1.21,1.38-2.81,2.14-4.54,2.34L696.23,127.06z
			 M704.8,120.63c-0.23-0.81-0.52-1.49-1.17-1.99h-2.03c-0.47,0.77-1.08,1.55-1.83,2.09L698.6,120c1.48-1.31,2.7-2.9,3.02-4.76
			l1.21,0.53c-0.13,0.54-0.36,1.03-0.53,1.55h6.43v1.32h-3.6c0.34,0.39,0.65,0.77,0.98,1.46L704.8,120.63z"/>
		<path class="st2" d="M727.22,134.15c0,0.89-0.31,1.33-1.16,1.5c-1.07,0.11-1.93,0.11-3.05,0.09l-1.05-1.39h2.92
			c0.84-0.14,0.9-0.32,0.9-0.81v-1.64h-9.45v-1.24h9.52v-0.92c1.12-0.37,2.19-0.79,3.3-1.15l-9.16-0.03v-1.26h12.14v1.22
			c-1.58,0.77-3.25,1.33-4.94,1.89v0.25h9v1.24h-8.98V134.15z M729.52,123.01l0.02-1.17l3.28-0.02l0.18-1.55h-3.51v-1.24l3.64,0.03
			l0.14-1.33h-4.29v-1.25l5.75,0.02l-0.87,8.39h1.53l0.03,3.14h-1.36v-1.83H718.3v1.97h-1.33v-3.27l1.56,0.03l-0.8-7.72
			c1.65-0.2,3.16-0.77,4.48-1.75l0.79,1.04c-1.12,0.86-2.43,1.37-3.83,1.64l0.1,1.05l3.64,0.02v1.18h-3.52l0.18,1.57h3.34v1.19h-3.2
			l0.17,1.75h12.6l0.23-1.87H729.52z M728.3,124.61c-0.54-0.64-1.24-1.2-1.94-1.66l-0.12,0.02c-0.76,0.58-1.64,1.08-2.48,1.51
			l-0.97-0.86c0.71-0.45,1.61-0.78,2.33-1.35c-0.61-0.37-1.34-0.53-2.02-0.73l0.79-0.93c0.47,0.02,0.92,0.29,1.37,0.43l0.94,0.43
			c0.47-0.38,0.87-0.86,1.33-1.29l0.85,0.75c-0.36,0.38-0.68,0.83-1.1,1.19c0.63,0.47,1.33,0.93,1.92,1.53L728.3,124.61z
			 M723.23,119.08c0.66-0.34,1.35-0.74,1.95-1.2c-0.51-0.3-1.14-0.38-1.71-0.56l-0.4-0.1l0.55-1c0.91,0.19,1.8,0.47,2.62,0.81
			l0.12-0.02c0.52-0.48,1-1.05,1.39-1.61l0.91,0.72c-0.33,0.54-0.75,0.99-1.22,1.45c0.56,0.41,1.11,0.82,1.64,1.34l-0.84,1.04
			c-0.51-0.59-1.12-1.12-1.82-1.49c-0.76,0.52-1.41,1.02-2.22,1.45L723.23,119.08z"/>
		<path class="st2" d="M753.14,120.29c-0.36,1.33-1.07,2.57-1.81,3.73l4.35,0.03v1.32h-12.44v-1.32h6.56
			c0.94-1.35,1.71-2.74,2.05-4.37L753.14,120.29z M748.53,115.16c0.86,0.82,1.62,1.76,2.09,2.78l4.07-0.02v1.36h-10.3v-1.34h4.66
			c-0.43-0.84-1.08-1.47-1.89-2.02L748.53,115.16z M752.32,135.74v-1.59h-5.45l0.02,1.64h-1.41v-8.21h8.25l-0.02,8.16H752.32z
			 M747.68,123.75c-0.4-1.25-1.07-2.51-2.14-3.43l1.26-0.52c1.01,1.02,1.71,2.2,2.21,3.49L747.68,123.75z M746.88,128.91v3.89
			l5.45,0.02l-0.02-3.9L746.88,128.91z M762.72,117.67l-1.19,3.68l-1.03,2.71c1.92,1.8,3.51,4.4,2.41,7.01
			c-0.39,0.91-1.24,1.79-2.3,1.76c-0.61,0.07-1.17-0.04-1.74-0.09l-0.38-1.57c0.88,0.1,2.07,0.63,2.8-0.13
			c0.78-0.85,0.54-2.4,0.18-3.42c-0.59-1.28-1.44-2.28-2.55-3.27c0.97-2.14,1.74-4.41,2.44-6.67h-3.56l-0.02,18.06h-1.4V116.3
			l6.34,0.02V117.67z"/>
		<path class="st2" d="M144.08,114.86c1.31-0.2,2.86-0.35,4.56-0.35c3.08,0,5.27,0.71,6.73,2.07c1.47,1.36,2.34,3.28,2.34,5.96
			c0,2.7-0.84,4.93-2.39,6.45c-1.56,1.56-4.11,2.4-7.34,2.4c-1.52,0-2.81-0.08-3.89-0.2V114.86z M146.22,129.54
			c0.54,0.09,1.33,0.12,2.17,0.12c4.58,0,7.07-2.56,7.07-7.04c0.03-3.91-2.19-6.41-6.73-6.41c-1.11,0-1.94,0.1-2.51,0.23V129.54z"/>
		<path class="st2" d="M165.28,115.97c0.03,0.73-0.52,1.33-1.38,1.33c-0.77,0-1.31-0.6-1.31-1.33c0-0.77,0.56-1.36,1.35-1.36
			C164.77,114.61,165.28,115.2,165.28,115.97 M162.87,119.32h2.17v11.91h-2.17V119.32z"/>
		<path class="st2" d="M171.94,119.32l2.34,6.7c0.39,1.08,0.71,2.06,0.96,3.05h0.07c0.27-0.99,0.62-1.97,1.01-3.05l2.32-6.7h2.27
			l-4.68,11.91h-2.07l-4.53-11.91H171.94z"/>
		<path class="st2" d="M187.82,115.97c0.02,0.73-0.52,1.33-1.38,1.33c-0.77,0-1.3-0.6-1.3-1.33c0-0.77,0.57-1.36,1.35-1.36
			C187.3,114.61,187.82,115.2,187.82,115.97 M185.4,119.32h2.17v11.91h-2.17V119.32z"/>
		<path class="st2" d="M193.33,129.02c0.64,0.41,1.77,0.86,2.85,0.86c1.58,0,2.32-0.79,2.32-1.77c0-1.03-0.61-1.6-2.22-2.2
			c-2.14-0.76-3.15-1.95-3.15-3.37c0-1.92,1.55-3.49,4.11-3.49c1.21,0,2.27,0.34,2.93,0.73l-0.54,1.57
			c-0.47-0.3-1.33-0.68-2.44-0.68c-1.28,0-1.99,0.74-1.99,1.62c0,0.98,0.72,1.43,2.26,2.02c2.08,0.79,3.13,1.82,3.13,3.6
			c0,2.1-1.62,3.57-4.45,3.57c-1.31,0-2.52-0.32-3.35-0.81L193.33,129.02z"/>
		<path class="st2" d="M208.26,115.97c0.02,0.73-0.52,1.33-1.38,1.33c-0.76,0-1.3-0.6-1.3-1.33c0-0.77,0.57-1.36,1.35-1.36
			C207.74,114.61,208.26,115.2,208.26,115.97 M205.84,119.32h2.17v11.91h-2.17V119.32z"/>
		<path class="st2" d="M224.86,125.18c0,4.41-3.06,6.33-5.94,6.33c-3.23,0-5.71-2.37-5.71-6.13c0-4,2.6-6.33,5.9-6.33
			C222.54,119.05,224.86,121.53,224.86,125.18 M215.4,125.3c0,2.61,1.5,4.58,3.62,4.58c2.07,0,3.62-1.94,3.62-4.64
			c0-2.01-1-4.57-3.57-4.57C216.51,120.67,215.4,123.04,215.4,125.3"/>
		<path class="st2" d="M230.05,122.54c0-1.23-0.03-2.24-0.1-3.23h1.92l0.12,1.97h0.05c0.59-1.13,1.97-2.24,3.94-2.24
			c1.65,0,4.21,0.98,4.21,5.07v7.12h-2.17v-6.87c0-1.92-0.72-3.52-2.76-3.52c-1.43,0-2.54,1-2.91,2.22
			c-0.1,0.27-0.15,0.64-0.15,1.01v7.16h-2.17V122.54z"/>
		<path class="st2" d="M266.16,125.18c0,4.41-3.06,6.33-5.94,6.33c-3.23,0-5.71-2.37-5.71-6.13c0-4,2.61-6.33,5.91-6.33
			C263.84,119.05,266.16,121.53,266.16,125.18 M256.7,125.3c0,2.61,1.5,4.58,3.62,4.58c2.07,0,3.62-1.94,3.62-4.64
			c0-2.01-1.01-4.57-3.57-4.57C257.81,120.67,256.7,123.04,256.7,125.3"/>
		<path class="st2" d="M271.57,131.24v-10.27h-1.68v-1.64h1.68v-0.57c0-1.68,0.37-3.2,1.38-4.16c0.81-0.79,1.9-1.11,2.91-1.11
			c0.76,0,1.43,0.17,1.85,0.34l-0.3,1.68c-0.32-0.15-0.76-0.27-1.38-0.27c-1.84,0-2.31,1.62-2.31,3.45v0.64h2.88v1.64h-2.88v10.27
			H271.57z"/>
		<polygon class="st2" points="290.27,114.64 292.41,114.64 292.41,129.44 299.5,129.44 299.5,131.24 290.27,131.24 		"/>
		<path class="st2" d="M310.88,131.23l-0.17-1.5h-0.07c-0.66,0.94-1.94,1.77-3.65,1.77c-2.41,0-3.64-1.7-3.64-3.42
			c0-2.88,2.56-4.46,7.16-4.44v-0.24c0-0.99-0.27-2.76-2.71-2.76c-1.11,0-2.26,0.35-3.1,0.88l-0.49-1.43
			c0.99-0.64,2.41-1.05,3.92-1.05c3.65,0,4.53,2.48,4.53,4.87v4.45c0,1.04,0.05,2.04,0.2,2.85H310.88z M310.56,125.16
			c-2.36-0.05-5.05,0.37-5.05,2.68c0,1.41,0.94,2.08,2.04,2.08c1.55,0,2.54-0.99,2.88-2c0.07-0.23,0.12-0.47,0.12-0.7V125.16z"/>
		<path class="st2" d="M318.61,122.54c0-1.23-0.02-2.24-0.1-3.23h1.92l0.12,1.97h0.05c0.59-1.13,1.97-2.24,3.93-2.24
			c1.65,0,4.21,0.98,4.21,5.07v7.12h-2.17v-6.87c0-1.92-0.72-3.52-2.76-3.52c-1.43,0-2.54,1-2.9,2.22c-0.1,0.27-0.15,0.64-0.15,1.01
			v7.16h-2.17V122.54z"/>
		<path class="st2" d="M345.03,113.75v14.41c0,1.07,0.02,2.27,0.1,3.08h-1.94l-0.1-2.06h-0.05c-0.66,1.33-2.12,2.34-4.06,2.34
			c-2.88,0-5.1-2.44-5.1-6.06c-0.02-3.96,2.44-6.4,5.35-6.4c1.82,0,3.05,0.86,3.59,1.82h0.05v-7.12H345.03z M342.87,124.17
			c0-0.27-0.03-0.64-0.1-0.91c-0.32-1.38-1.5-2.52-3.13-2.52c-2.24,0-3.57,1.97-3.57,4.61c0,2.41,1.19,4.4,3.52,4.4
			c1.45,0,2.78-0.96,3.18-2.59c0.07-0.3,0.1-0.59,0.1-0.94V124.17z"/>
		<path class="st2" d="M350.8,129.02c0.64,0.41,1.77,0.86,2.86,0.86c1.58,0,2.32-0.79,2.32-1.77c0-1.03-0.61-1.6-2.22-2.2
			c-2.15-0.76-3.15-1.95-3.15-3.37c0-1.92,1.55-3.49,4.11-3.49c1.21,0,2.27,0.34,2.93,0.73l-0.54,1.57
			c-0.47-0.3-1.33-0.68-2.44-0.68c-1.28,0-2,0.74-2,1.62c0,0.98,0.72,1.43,2.27,2.02c2.08,0.79,3.13,1.82,3.13,3.6
			c0,2.1-1.62,3.57-4.45,3.57c-1.31,0-2.52-0.32-3.35-0.81L350.8,129.02z"/>
		<path class="st2" d="M371.8,130.79c-0.57,0.29-1.82,0.69-3.42,0.69c-3.6,0-5.93-2.44-5.93-6.09c0-3.66,2.51-6.33,6.4-6.33
			c1.28,0,2.41,0.32,3.01,0.62l-0.49,1.67c-0.52-0.29-1.33-0.56-2.52-0.56c-2.73,0-4.21,2.01-4.21,4.51c0,2.76,1.77,4.45,4.14,4.45
			c1.23,0,2.04-0.32,2.66-0.59L371.8,130.79z"/>
		<path class="st2" d="M383.4,131.23l-0.17-1.5h-0.07c-0.66,0.94-1.94,1.77-3.65,1.77c-2.41,0-3.64-1.7-3.64-3.42
			c0-2.88,2.56-4.46,7.16-4.44v-0.24c0-0.99-0.27-2.76-2.71-2.76c-1.11,0-2.27,0.35-3.1,0.88l-0.49-1.43
			c0.99-0.64,2.41-1.05,3.92-1.05c3.65,0,4.53,2.48,4.53,4.87v4.45c0,1.04,0.05,2.04,0.2,2.85H383.4z M383.08,125.16
			c-2.36-0.05-5.05,0.37-5.05,2.68c0,1.41,0.93,2.08,2.04,2.08c1.55,0,2.54-0.99,2.88-2c0.07-0.23,0.12-0.47,0.12-0.7V125.16z"/>
		<path class="st2" d="M391.13,123.21c0-1.53-0.04-2.76-0.1-3.89h1.94l0.1,2.04h0.05c0.89-1.45,2.29-2.32,4.24-2.32
			c2.88,0,5.05,2.44,5.05,6.06c0,4.28-2.61,6.39-5.42,6.39c-1.57,0-2.96-0.68-3.67-1.87h-0.05v6.48h-2.14V123.21z M393.28,126.39
			c0,0.32,0.05,0.61,0.1,0.89c0.4,1.49,1.7,2.53,3.25,2.53c2.29,0,3.62-1.88,3.62-4.61c0-2.39-1.26-4.43-3.55-4.43
			c-1.48,0-2.86,1.06-3.28,2.68c-0.07,0.26-0.15,0.59-0.15,0.89V126.39z"/>
		<path class="st2" d="M408.81,125.67c0.05,2.93,1.92,4.14,4.09,4.14c1.55,0,2.49-0.27,3.3-0.61l0.37,1.55
			c-0.76,0.35-2.07,0.74-3.97,0.74c-3.67,0-5.86-2.42-5.86-6.01c0-3.6,2.11-6.43,5.59-6.43c3.89,0,4.93,3.42,4.93,5.62
			c0,0.44-0.05,0.79-0.07,1H408.81z M415.17,124.12c0.03-1.38-0.57-3.52-3-3.52c-2.2,0-3.16,2.01-3.33,3.52H415.17z"/>
		<path class="st2" d="M434.36,126.02l-1.73,5.21h-2.22l5.64-16.59h2.59l5.66,16.59h-2.29l-1.77-5.21H434.36z M439.8,124.34
			l-1.63-4.78c-0.37-1.09-0.61-2.08-0.86-3.04h-0.05c-0.25,0.99-0.52,2-0.84,3.01l-1.62,4.8H439.8z"/>
		<path class="st2" d="M449.06,123.04c0-1.4-0.03-2.61-0.1-3.72h1.89l0.07,2.34h0.1c0.54-1.61,1.84-2.61,3.3-2.61
			c0.25,0,0.42,0.02,0.62,0.07v2.05c-0.22-0.05-0.44-0.08-0.74-0.08c-1.52,0-2.61,1.16-2.91,2.78c-0.05,0.3-0.1,0.64-0.1,1.01v6.35
			h-2.14V123.04z"/>
		<path class="st2" d="M467.82,130.79c-0.57,0.29-1.82,0.69-3.42,0.69c-3.6,0-5.93-2.44-5.93-6.09c0-3.66,2.51-6.33,6.4-6.33
			c1.28,0,2.41,0.32,3,0.62l-0.49,1.67c-0.52-0.29-1.33-0.56-2.51-0.56c-2.74,0-4.21,2.01-4.21,4.51c0,2.76,1.77,4.45,4.14,4.45
			c1.23,0,2.04-0.32,2.66-0.59L467.82,130.79z"/>
		<path class="st2" d="M472.82,113.75h2.17v7.44h0.05c0.34-0.61,0.89-1.16,1.55-1.52c0.64-0.37,1.4-0.62,2.22-0.62
			c1.6,0,4.16,0.98,4.16,5.1v7.09h-2.16v-6.85c0-1.92-0.72-3.55-2.76-3.55c-1.41,0-2.52,0.99-2.9,2.17
			c-0.13,0.3-0.15,0.61-0.15,1.03v7.2h-2.17V113.75z"/>
		<path class="st2" d="M491.36,115.97c0.03,0.73-0.52,1.33-1.38,1.33c-0.77,0-1.31-0.6-1.31-1.33c0-0.77,0.57-1.36,1.35-1.36
			C490.85,114.61,491.36,115.2,491.36,115.97 M488.95,119.32h2.17v11.91h-2.17V119.32z"/>
		<path class="st2" d="M499.79,115.89v3.42h3.1v1.65h-3.1v6.43c0,1.48,0.42,2.32,1.62,2.32c0.56,0,0.99-0.08,1.26-0.15l0.1,1.62
			c-0.42,0.17-1.09,0.3-1.92,0.3c-1.01,0-1.82-0.32-2.34-0.92c-0.62-0.64-0.84-1.69-0.84-3.1v-6.5h-1.85v-1.65h1.85v-2.86
			L499.79,115.89z"/>
		<path class="st2" d="M508.85,125.67c0.05,2.93,1.92,4.14,4.09,4.14c1.55,0,2.49-0.27,3.3-0.61l0.37,1.55
			c-0.77,0.35-2.07,0.74-3.97,0.74c-3.67,0-5.86-2.42-5.86-6.01c0-3.6,2.12-6.43,5.59-6.43c3.89,0,4.93,3.42,4.93,5.62
			c0,0.44-0.05,0.79-0.07,1H508.85z M515.2,124.12c0.02-1.38-0.57-3.52-3-3.52c-2.19,0-3.15,2.01-3.32,3.52H515.2z"/>
		<path class="st2" d="M530.94,130.79c-0.57,0.29-1.82,0.69-3.42,0.69c-3.6,0-5.93-2.44-5.93-6.09c0-3.66,2.51-6.33,6.4-6.33
			c1.28,0,2.41,0.32,3.01,0.62l-0.49,1.67c-0.52-0.29-1.33-0.56-2.52-0.56c-2.73,0-4.21,2.01-4.21,4.51c0,2.76,1.77,4.45,4.14,4.45
			c1.23,0,2.04-0.32,2.66-0.59L530.94,130.79z"/>
		<path class="st2" d="M538.87,115.89v3.42h3.1v1.65h-3.1v6.43c0,1.48,0.42,2.32,1.62,2.32c0.56,0,0.98-0.08,1.25-0.15l0.1,1.62
			c-0.42,0.17-1.08,0.3-1.92,0.3c-1,0-1.82-0.32-2.34-0.92c-0.61-0.64-0.84-1.69-0.84-3.1v-6.5h-1.85v-1.65h1.85v-2.86
			L538.87,115.89z"/>
		<path class="st2" d="M556.85,127.99c0,1.22,0.02,2.31,0.1,3.25h-1.92l-0.12-1.95h-0.05c-0.56,0.96-1.82,2.21-3.93,2.21
			c-1.87,0-4.12-1.03-4.12-5.21v-6.97h2.17v6.6c0,2.27,0.69,3.79,2.66,3.79c1.45,0,2.46-1,2.86-1.96c0.12-0.32,0.19-0.72,0.19-1.12
			v-7.31h2.17V127.99z"/>
		<path class="st2" d="M562.9,123.04c0-1.4-0.03-2.61-0.1-3.72h1.89l0.07,2.34h0.1c0.54-1.61,1.84-2.61,3.29-2.61
			c0.25,0,0.42,0.02,0.62,0.07v2.05c-0.22-0.05-0.45-0.08-0.74-0.08c-1.52,0-2.61,1.16-2.9,2.78c-0.05,0.3-0.1,0.64-0.1,1.01v6.35
			h-2.14V123.04z"/>
		<path class="st2" d="M574.38,125.67c0.05,2.93,1.92,4.14,4.09,4.14c1.55,0,2.49-0.27,3.3-0.61l0.37,1.55
			c-0.76,0.35-2.07,0.74-3.96,0.74c-3.67,0-5.86-2.42-5.86-6.01c0-3.6,2.12-6.43,5.59-6.43c3.89,0,4.93,3.42,4.93,5.62
			c0,0.44-0.05,0.79-0.07,1H574.38z M580.73,124.12c0.03-1.38-0.57-3.52-3-3.52c-2.2,0-3.16,2.01-3.33,3.52H580.73z"/>
		<path d="M94.33,48.59H26V21.81h68.33V48.59z M94.33,60.64c0,17.24-8.25,28.75-16.68,35.69c-6.95,5.74-14.27,8.21-16.74,8.61
			L60.81,92.4c-0.27,0-0.52-0.06-0.75-0.16l0.01,12.89C53.53,104.65,26,92.34,26,60.64V49.35h34v35.37c0.12-0.1,0.37-0.18,0.75-0.23
			V49.35h33.58V60.64z M25.24,21.05v39.59c0,17.59,8.26,28.73,15.18,34.99c8.04,7.23,16.93,10.27,19.85,10.27
			c1.67,0,10.02-3.13,15.27-6.88c9.43-6.77,19.55-18.92,19.55-38.38V21.05H25.24z"/>
		<path d="M41.73,53.72h-5.15v35h18.6c0.23,2.25,2.34,4.07,4.88,4.07c2.53,0,4.64-1.82,4.87-4.07h19.05v-35h-0.29h-4.49l1.54,0.6
			h2.53v33.55H64.21c0,0,0.13,0.36,0.15,0.54c-0.07,2.16-1.97,3.63-4.29,3.63c-2.34,0-4.26-1.54-4.31-3.63l-0.01-0.54H37.39V54.32
			h2.94L41.73,53.72z"/>
		<path d="M102.87,94.4c-0.24-0.81-0.62-1.24-1.29-2.05c-0.55-0.65-1.3-1.54-2.38-3.05c-0.8-1.14-1.27-2.15-1.69-3.05
			c-0.75-1.62-1.29-2.77-3.2-3.09c-2.22-0.37-4.11,0.42-5.73,1.61c-0.51,0.84-1.05,1.66-1.59,2.44c1.93-2.02,4.25-3.79,7.2-3.28
			c1.52,0.24,1.92,1.1,2.66,2.66c0.4,0.87,0.9,1.94,1.75,3.15c1.1,1.55,1.87,2.46,2.41,3.11c0.66,0.77,0.96,1.13,1.15,1.79
			c0.3,0.94,0.16,2.19-2.7,5.05c-7.79,7.79-17.2,12.99-27.96,15.44c-3.91,0.88-11.25,1.2-11.33,1.21c-0.03-0.01-7.39-0.32-11.3-1.21
			c-15.88-3.62-24.24-12.01-27-14.76l-0.14-0.14c-2.6-2.6-3.63-3.69-3.29-4.76c0.16-0.54,0.54-0.9,1.17-1.51
			c0.75-0.69,1.77-1.66,3.07-3.5c0.83-1.18,1.35-2.26,1.75-3.13c0.73-1.54,1.17-2.46,2.7-2.71c2.36-0.4,3.96,0.37,5.36,1.69
			c-0.35-0.56-0.7-1.13-1.05-1.73c-1.2-0.67-2.63-1.03-4.45-0.71c-1.91,0.31-2.47,1.5-3.24,3.14c-0.42,0.87-0.9,1.88-1.71,3.01
			c-1.25,1.78-2.24,2.71-2.96,3.39c-0.67,0.63-1.16,1.09-1.38,1.83c-0.48,1.55,0.85,2.88,3.48,5.51l0.15,0.14
			c2.79,2.8,11.28,11.3,27.36,14.98c3.98,0.91,11.16,1.22,11.47,1.22c0.33,0,7.53-0.31,11.5-1.22c10.9-2.5,20.43-7.76,28.32-15.64
			C102.55,97.65,103.37,96.01,102.87,94.4 M35.82,93.59c0.01,0.77-0.41,1.21-0.83,1.27c-0.49,0.1-1.19-0.23-1.61-1.45
			c-0.7-1.99-2.28-4.59-2.35-4.69l-0.27-0.45c0,0-2.63,3.32-3.11,3.95c-1.05-1.44-1.65-2.76-1.65-3.94v-0.17
			c0.05-1,0.38-1.63,0.99-1.92c1.38-0.68,3.93,0.49,4.44,0.86C34.6,89.21,35.78,91.84,35.82,93.59 M91.66,88.47l-0.29,0.2
			c-0.08,0.06-1.85,1.47-2.93,3.87c-0.49,1.07-1.65,1.87-2.56,1.72c-0.78-0.12-1.02-0.88-1.1-1.48c-0.21-1.82,1.38-4.11,4.29-6.08
			c0.64-0.46,3.71-1.95,5.2-1.21c0.55,0.28,0.85,0.85,0.89,1.71c0,0.06,0,0.12,0,0.17c0,1.09-0.49,2.32-1.37,3.63
			C93.36,90.5,91.66,88.47,91.66,88.47 M26.65,85.5c-0.87,0.43-1.35,1.3-1.41,2.57c-0.23,4.72,8.04,11.89,18.45,16
			c5.36,2.12,10.75,3.15,16.48,3.15c6.12,0,12.96-1.54,16.56-3.07c9.63-4.07,19.45-11.53,19.18-16.97c-0.05-1.17-0.49-1.96-1.3-2.37
			c-1.96-0.98-5.42,0.88-5.96,1.26c-3.18,2.18-4.86,4.66-4.6,6.8c0.14,1.21,0.77,1.99,1.73,2.13c1.25,0.19,2.73-0.76,3.35-2.16
			c0.77-1.69,1.91-2.86,2.43-3.32c0.35,0.42,1.54,1.82,1.79,2.11c-1.41,1.89-3.54,3.89-6.19,5.82c-0.35-0.27-2.21-1.73-2.98-2.55
			c-0.88-0.95-0.95-2.28-0.26-3.77c-0.39,0.45-0.79,0.9-1.19,1.34c-0.15,1.11,0.14,2.13,0.89,2.96c0.73,0.77,2.29,2.01,2.89,2.47
			c-2.91,2.05-6.35,3.99-10.08,5.55c-3.53,1.51-10.25,3.01-16.26,3.01c-5.63,0-10.92-1-16.2-3.09c-3.47-1.37-6.73-3.11-9.5-4.99
			c0.62-0.56,2.03-1.85,2.71-2.59c0.62-0.66,0.86-1.58,0.75-2.61c-0.35-0.36-0.69-0.72-1.03-1.12c0.48,1.31,0.41,2.46-0.27,3.21
			c-0.71,0.77-2.29,2.21-2.79,2.64c-2.38-1.65-4.35-3.42-5.72-5.09c0.27-0.34,2.04-2.6,2.55-3.25c0.49,0.85,1.5,2.65,1.99,4.09
			c0.58,1.66,1.68,2.08,2.46,1.95c0.88-0.16,1.48-1,1.47-2.06c-0.05-1.91-1.3-4.82-4.73-7.15C31.4,86.1,28.49,84.58,26.65,85.5"/>
		<path d="M47.31,44.07c0,0,0.71,0.09,0.91-0.29c0.21-0.38,0.24-0.77-0.02-1.07c-0.25-0.29-0.74-0.19-0.74-0.19s0.57,0.12,0.64,0.42
			C48.16,43.26,48.26,43.54,47.31,44.07"/>
		<path d="M82.95,38.05c0,0,0.63-0.7,1.38-0.42c0.35,0.13,0.52,0.69,0.45,0.82c0,0,0.37-0.43,0.11-0.79
			c-0.26-0.35-0.44-0.65-1.29-0.47C83.14,37.43,82.95,38.05,82.95,38.05"/>
		<path d="M65.86,41.62c0,0,1.65,0.96-0.14,1.89c0.84,0.3,1.46-0.53,1.18-1.09C66.63,41.86,65.86,41.62,65.86,41.62"/>
		<path d="M46.4,29.21c-0.1,0-0.18,0.08-0.18,0.17c0,0.11,0.07,0.19,0.18,0.19c0.09,0,0.18-0.08,0.18-0.19
			C46.58,29.29,46.5,29.21,46.4,29.21 M42.26,28.38c-0.09,0-0.15,0.06-0.15,0.15c0,0.08,0.07,0.15,0.15,0.15
			c0.08,0,0.16-0.07,0.16-0.15C42.42,28.45,42.34,28.38,42.26,28.38 M45.38,29.23l0.12,0.8c0,0,0.62,0.39,1.17,0.24
			c0.54-0.15,1.27-0.54,1.34-1.1c-0.31-0.17-0.76-0.12-0.76-0.12s0.05,1.03-0.79,0.95c-0.39-0.05-0.59-0.47-0.63-0.7L45.38,29.23z
			 M41.61,28.05c0,0-0.23,1.55,1.76,1.78l0.37-1.22l-0.54,0.04c0,0-0.24,0.74-0.87,0.41c-0.64-0.33-0.37-0.94-0.37-0.94L41.61,28.05
			z M43.83,33.43c0,0-0.05,0.3-0.09,0.53c-0.07,0.47-0.06,1.45-0.19,1.93c0.04-0.39-0.09-0.61-0.09-1.17c0-0.57,0.06-1.29,0.06-1.29
			l-0.53,0.36c0,0,0.02-0.09-0.08,0.59c-0.09,0.67,0.32,2.25,0.37,3.28c0.55-0.39,1-1.45,0.94-2.13c-0.05-0.7,0-1.66,0-1.66
			L43.83,33.43z M46,32.17c0,0,1.5,2.97-1.43,3.64l-0.08,0.41c0,0,3.21-0.12,2.08-3.84c0.36,0.16,1.28,0.44,1.79,0.02
			c0.52-0.42,0.87-1.76,0.21-2.17c0.73-0.27,0.86-0.21,1.15-1.5c0.28-1.3,0.3-1.69,0.3-1.69s-0.72-0.59-1.82,0.26
			c-0.19-0.77-0.1-1.4-0.1-1.4s-0.73,0.36-0.96,0.89c-0.08-0.74,0.15-1.58-0.49-2.22c-0.37,0.75-0.71,0.7-0.84,1.42
			c-0.16-1.38-0.52-1.78-0.52-2.21c-0.39,0.63-0.92,1.1-0.92,1.91c-0.28-1.03-0.64-1.81-0.64-2.01c-0.42,0.81-1,1.22-0.86,2.4
			c-0.33-0.37-0.36-0.73-0.82-1.24c-0.38,0.51-0.62,1.36-0.4,1.73c-0.57-0.37-1.24-0.55-1.59-0.52c0.19,0.93-0.72,2.48,0.45,2.76
			c-0.83,0.64-0.83,3.25,1.72,2.48c-0.37,0.52-0.97,1.74,0.68,2.08c0.6,0.12,1.04-0.65,1.04-0.65s-0.47-0.83-1.04-1.21
			c0.26-1.13,0.41-1.42,0.41-1.42s-2.16-0.07-2.03-2.04c-0.46-0.23-0.54-0.46-0.44-1.02c0.08-0.24-0.21-0.4-0.18-0.58
			c0.26,0.32,0.39,0.42,0.42,0.89c0.02,0.48,0.25,0.39,0.51,0.39c0.43,0,1.34,0.28,1.63,0.58c0.32,0.01,0.43-0.01,0.43-0.01
			s0.45-0.72,0.52-1.12c0.04,0.75-0.19,1.33-0.84,4.24c0,0,0.8,0.69,0.8,0.98c0,0,0.77-0.43,0.98-0.52
			c-0.06-0.31-0.74-0.5-1.13-0.52c0.5-0.3,1.27,0.13,1.27,0.13s-0.02-1.24-0.16-2.32c-0.13-1.11-0.04-1.84-0.04-1.84
			s0.21,1.33,0.46,1.5c0.24,0.17,0.43,0.23,0.7,0.04c0.26-0.16,1.21-0.25,1.91-0.09c0.32,0.05,0.53-0.93,0.85-1.12
			c0.32-0.2,0.54-0.12,0.54-0.12s-0.31,0.15-0.51,0.66c-0.19,0.5-0.55,0.94-0.77,0.94c0,0.63-0.94,1.46-1.52,1.51
			c-0.59,0.06-1.14-0.22-1.14-0.22l0.01,1.67c0,0-1.53,0.49-1.45,0.81c0.07,0.35,0.17,1.05,1.09,0.94
			C46.16,33.79,46.35,33.06,46,32.17 M41.39,32.01c0,0-1.5,3.36,1.23,3.97c-0.16-0.52-0.16-0.6-0.16-0.6s-1.27-0.41-0.83-2.31
			C41.47,32.48,41.57,31.76,41.39,32.01 M40.11,36.57c0,0-1.04,1.83,0.32,3.12c1.35,1.3,2.39,2.59,2.45,3.44
			c0.53-0.44,1.48-1.92-0.41-4.51c-0.17-0.23-0.37-1.03-0.37-1.03s0.41,0.9,1.44,1.82c1.05,0.92,1.49,1.89,1.43,2.52
			c0.75-0.63,0.96-2.34,0.49-3.17c-0.7-0.63-0.68-1.15-0.68-1.15s0.44,0.66,0.92,0.86c0.48,0.2,1.21,0.73,1.22,1.13
			c0.43-0.32,0.52-1.77-0.74-2.38c1.08,0.12,1.4,1.12,1.43,1.42c0.52-0.48,0.7-1.69-0.39-2.54c0.96,0.35,1.11,0.89,1.11,0.89
			s0.83-1.58-0.93-2.18c0.9-0.02,1.07,0.37,1.07,0.37s0.87-1.57-0.15-2.47c-0.7,0.43-1.25,0.27-1.25,0.27s0.57,3.22-2.66,3.57
			c0,0-0.45,1.24-1.57,1.57c0.25-1.44-0.09-1.79-0.09-1.79s-2.27,0-2.15-2.74c0.02-0.53,0.33-1.41,0.5-1.77
			c-0.7-0.09-1.31-0.73-1.48-1.29c-1.08,0.34-1.03,1.64-1.03,1.64s0.68-0.54,1.35-0.63c-0.4,0.4-1.7,1.39-1.39,3.12
			c0.75-0.72,1.35-1.05,1.4-1.88c0.23,0.71-0.67,1.57-0.77,2.09c-0.09,0.52-0.06,0.8-0.03,0.89c0.2-0.11,0.74-0.76,0.98-1.29
			c0.02,0.38-0.35,1.18-0.75,1.74c-0.09,0.43-0.19,1.21,0.05,1.53C39.72,36.71,40.11,36.57,40.11,36.57 M56.09,42.98
			c0,0,0.81,0.15,1.34,0.23c0.52,0.07,1.2,0.09,1.2,0.09s-0.79-1.05-1.52-1.05C56.36,42.25,55.95,42.74,56.09,42.98 M91.13,45.18
			c0,0,0.38,0.35,0.49,0.7c0.07,0.2,0.4-0.59,0.37-1.08c-0.01-0.26-0.27-0.34-0.58-0.03C91.25,44.97,91.04,45.04,91.13,45.18
			 M88.55,48.32c0,0,0.05-0.75,0.14-0.94c0.16-0.32-0.09-0.27-0.52-0.41c-0.22-0.09-0.44-0.24-0.41,0.07
			C87.79,47.35,88.06,48.15,88.55,48.32 M82.7,44.57c0,0,1.01-0.21,1.23-0.16c0.21,0.04,0.05-0.45,0.26-0.69
			C84.41,43.46,83.12,43.71,82.7,44.57 M84.3,47.37c0,0,0.49-0.53,1.01-0.74c0.17-0.07-0.23-1.37-0.6-0.84
			C84.33,46.34,84.16,46.9,84.3,47.37 M84.72,44.92c0,0,0.77-0.62,1.24-0.78c0.1-0.04-0.92-0.76-1.21-0.59
			C84.46,43.72,84.04,44.5,84.72,44.92 M33.86,46.56c0,0,0.05,0.86-0.17,1.12c0.77-0.14,1.05-0.71,1.05-0.71
			S34.64,46.49,33.86,46.56 M29.66,44.98c0,0-0.67,0.71-0.73,1.43c0.29-0.12,1.13-0.65,1.13-0.65S29.77,44.95,29.66,44.98
			 M53.8,44.55c0,0-0.04-0.4,0.1-1c-0.82,0.2-1.14,1.08-1.14,1.08C53.47,44.44,53.8,44.55,53.8,44.55 M54.6,42.03
			c0,0,0.75,0.09,1.06,0.66c0.4-0.59,0.68-0.73,0.68-0.73S55.32,41.49,54.6,42.03 M54.65,47.81c0,0-0.05,0,0.49-0.61
			c-0.18-0.06-0.47-0.56-0.47-0.56C54.31,47.06,54.65,47.81,54.65,47.81 M90.97,40.29c0,0,0.98,0.85,1.36,0.84
			c0.39-0.02,0.43,0.02,0.12-0.37c-0.3-0.38-0.58-1.83-2.08-2.31c0.81-0.06,0.71-0.27,0.92-0.37c0.22-0.1,0.46-0.14,0.46-0.14
			s-1.11-1.51-2.17-0.91c-0.42-0.66-1.13-1.21-3-0.44c-0.21,0.09-3.09,1.19-4.56,1.17c-0.59,0-3.89-0.45-5.68-2.63
			c-0.1-0.13,1.51,0.32,3.23,0.43c1.72,0.14,4.65,0.35,6.72-0.9c2.07-1.24,2.34-1.54,3.77-1.43c1.44,0.07,2.04,0.45,2.83-1.06
			c-0.51,0.14-0.87,0.37-2.69-0.37c-0.3-0.11-2.06-0.5-4.04,1.5c1.51-1.65,1.05-1.26,1.15-3.04c0.1-1.54,0.8-1.69,1.61-2.18
			c0.81-0.47,1.1-0.45,1.23-1.06c-0.38,0.23-2.52,0.61-2.95,0.91c-0.44,0.31-1.36,0.83-1.27,2.21c-0.72-1.19-0.89-1.89-0.77-2.5
			c0.2-1.07,1.07-1.86,1.1-1.9c0,0-0.4-0.22-1.48,0.48c-0.51,0.34-0.95,1.68-0.7,2.52c-1.03-0.4-1.87-1.02-2.03-2.41
			c-0.02-0.3,0.13-0.85,0.13-0.85s-1.03,0.55-0.79,2.45c-0.65-0.25-1.75-0.93-2.05-1.99c-0.53,0.26-0.38,1.41-0.34,1.7
			c0.04,0.29-0.1-0.18-0.93-0.55c-0.84-0.35-1.6-0.89-1.91-1.45c-0.54,0.69-0.36,2.1-0.1,2.69c-0.64-0.47-2.08-1.41-2.5-1.39
			c-0.5,0.26-0.87,0.4-0.87,0.4s0.28,0.84,0.59,1.22c-0.59-0.23-1.44-0.85-1.83-0.98c-0.56,0-1.38-0.17-1.38-0.17
			s0.99,1.02,1.47,1.36c0.49,0.35,0.7,0.49,0.88,0.49c0.17,0,0.79-0.09,0.79-0.09s-0.82,0.64-1.33,0.89c1.41,0,5.09-0.98,7.69-0.98
			c0.71,0.02,2.72-0.05,4.13,0.73c0.52,0.28,1.08,0.69,1.28,1.27c0.68,1.85-1.82,2.7-4.81,2.53C80,33.61,78,33.39,76.03,33.11
			c-2.41-0.33-4.89-0.76-5.24-0.77c-2-0.03-5.42,0.14-11.83,1.59c-0.34,0.08-3.56,0.87-9.62-0.38c-0.16-0.03,0.09,1.03-0.61,1.81
			c0.14,0.98,0.19,1.35-0.3,1.87c-0.02,0.79-0.04,1.43-0.94,2.12c-0.15,0.79-0.93,1.38-0.93,1.38s0.44-1.11-0.52-1.56
			c-0.08,0,0.7,2.09-1.78,4.11c-0.15,0.11,0.58-1.46-0.2-2.39c0.07,1.88-0.86,2.8-1.61,3.64c0.31-1.05-0.31-2.24-0.56-2.39
			c-0.44,0.4-3.41,2.37-8.5,1.02c-0.21-0.04-2.64-0.53-3.62-1.24c-0.56,0.49-0.89,0.95-0.47,1.43c0.42,0.47,0.53,0.66,0.87,0.61
			c0.34-0.05,1.9-0.44,2.84-0.16c0,0-1.54,0.19-2.29,0.49c-0.76,0.31-0.71,0.4-0.56,0.92c0.16,0.52,0.4,0.96,0.77,1.04
			c0.38,0.09,1.7-0.31,2.07-0.76c0.38-0.45,0.8-0.89,1.42-0.76c-0.46,0.25-1.12,0.96-0.72,1.61c0.32-0.19,1.18-0.16,1.43,0.4
			c0.38-0.16,0.75-0.95,0.47-1.48c0.35,0.19,0.79,0.25,0.79,0.25s-0.35,0.52-0.4,1.18c-0.02,0.3-0.19,0.63-0.19,0.63
			s1.99-0.22,2.22-1.91c0.17,0.31,0.59,0.96,0.37,1.46c-0.22,0.49-0.4,0.86-0.4,0.86s0.63,0.02,1.08-0.21
			c0.44-0.23,1.13-0.66,1.24-1.87c0.25,0.49,0.2,1.36,0.03,1.59c-0.16,0.24-0.11,0.4-0.11,0.4s0.38-0.14,0.68-0.17
			c0.3-0.04,1.52-0.47,1.31-1.77c0.46,0.24,0.73,1.02,0.48,1.55c-0.25,0.54,0.05,0.44,0.05,0.44s1.45-0.6,1.82-1.45
			c0.21-0.52-0.06-1.09-0.06-1.09s0.8,0.15,0.56,2.14c0.64-0.15,2.04-1.02,1.72-2.35c0.37,0.17,0.41,1.15,0.41,1.15
			s0.8-0.19,0.75-1.28c0.65-0.08,1.41-0.69,1.13-1.7c-0.28-1.02-1.02-1.71-0.96-2.75c0.42,0.86,0.86,1.78,2.31,1.73
			c2.43-0.08,2.89-0.45,5.41-1.67c2.55-1.24,6.37-3.15,7.62-3.53c2.08-0.61,3.68-0.61,4.96-0.12c0.32,0.12,0.53,0.27,0.52-0.15
			c-0.02-0.42-0.1-0.26-0.49-0.44c-0.4-0.17-1.04-0.36-1.04-0.36s1.61-0.03,1.91,0.28c0.17,0.27,0.32,2.03,1.12,2.72
			c0.8,0.7,1.95,1.5,4.14,1.71c2.19,0.19,3.77,0.06,6.65-0.3c1.92-0.26,4.09-0.59,5.5,0.28c1.4,0.85,1.23,1.84,1.17,2.2
			c-0.05,0.38-0.53,1.28-2.12,2.07c-0.24,0.12-0.88,0.4-0.8,0.59c0.07,0.2,0.37,0,0.57,0.52c0.21,0.51,0.4,1.2,1.31,1.08
			c0,0,0.44-0.17,0.7-0.51c-0.15-1.23,0.59-1.89,0.72-2.03c0.09-0.09-0.31,1-0.32,1.35c0,0-0.18,0.82,0.84,0.93
			c1.02,0.07,1.03-1.29,1.04-1.71c0.02-0.69,0.03-1.03,0.21-1.31c0,0-0.1,0.72,0.32,1.03c0.42,0.32,0.54,0.26,0.54,0.26
			s0.33-0.67,0.96-0.74c0,0,0.56-0.94-0.86-1.97c0,0,0.57-0.15,1.32,0.71c0.11-0.48,0.3-0.99,0-1.21
			C92.04,41.55,90.97,40.29,90.97,40.29 M69.07,39.7c-0.27-0.57-0.03-2.13-0.03-2.13s-0.16-0.13-0.66-0.33
			c-3.13-0.7-5.19,0.55-5.19,0.55s-0.12,0.81,0.15,2.27c0.27,1.44,2.32,2.45,2.32,2.45s-0.48,0.13-1.9,0.51
			c-1.75,0.49-5.04,0.97-6.69,0.57c-1.66-0.4-2.4-0.24-2.52-0.15c-0.1,0.08-0.17,0.15-0.38,0.97c-0.19,0.82,0.69,1.17,0.89,1.01
			c0.66-0.49,2.42-0.75,2.42-0.75c-0.38,0.44-1.42,0.55-2.01,0.94c-0.61,0.41-0.59,1.4,0.4,1.47c0.98,0.11,2.47-1.32,3.06-1.87
			c-0.68,0.97-0.53,2.07-0.22,2c0.86-1,1.36,0.2,1.36,0.2c0.28,0,0.62-0.45,0.52-0.77c-0.22-0.76,0.13-1.47,0.13-1.47
			c0.17,1.29,0.58,0.76,0.94,1.99c1.26-0.47,1.5-1.09,1.5-2.24c0.38,0.82,0.75,0.82,1.42,2.05c0.41-0.19,1.03-0.75,1.26-0.97
			c0.21-0.24,0.27-1.77,0.27-1.77c0.32,1.32,1.18,0.92,1.38,2.48c1.49-1.23,1.03-2.61,1.03-2.61c0.69,0.93,1.57,0.56,1.66,1.86
			c0.8-0.59,1.08-1.69,1.08-1.69c1.04-1.04,0.75-1.69,0.02-2.31C70.47,41.29,69.35,40.28,69.07,39.7 M59.68,47.45
			c0.01-0.39-0.7-0.41-0.8-0.02c-0.12,0.4,0.43,0.87,0.43,0.87S59.66,47.82,59.68,47.45 M28.92,42.09
			c-0.72-0.12-1.15,0.73-1.15,0.73c0.84-0.29,1.01,0.09,0.98-0.14C28.71,42.47,28.99,42.22,28.92,42.09 M30.53,40.66
			c0.23-0.26,0.56-0.45,0.56-0.45s-0.79-0.25-1.43,0.32C29.66,40.53,30.28,40.56,30.53,40.66 M31.36,40.53
			c-0.52,0.25-0.83,0.68-0.37,1.48c0,0,1.82,0.51,2.13,0.63c0.32,0.08-0.22-0.61-0.6-1.21C32.15,40.84,31.87,40.26,31.36,40.53
			 M40.75,42.35c0.74-0.36,0.92-0.63,0.92-0.63s-0.18-0.45-0.41-0.5c-0.22-0.02-2.13-0.19-4.66-1.99c-0.17-0.13,0.18-0.13,0.59,0.11
			c0.43,0.23,1.07-0.03,1.3-0.28c0.22-0.28,0.17-0.8-0.21-1.26c0.31-0.07,1.02,0.44,0.89,0.22c0,0-0.22-0.45-0.22-0.74
			c-1.07-0.4-3.63-1.35-5.08-5.86c-0.11-0.33-0.66-2.57-0.51-4.15c0.12-1.17-0.63-1.9-1.42-1.34c-0.52,0.34-0.82,2.09,0.08,3.65
			c0.43,0.73,0.23,0.84,0,0.56c0,0-0.35-0.49-0.62-0.98c-0.33-0.61-0.31-1.21-0.82-1.28c-0.39-0.09-1.18,0.47-1.14,0.84
			c0.05,0.37,0.36,1.41,1,1.66c0.65,0.26,1.02,0.77,1.02,0.77s-1.06-0.65-1.51-0.36c-0.44,0.29,0.07,0.36,0.14,0.42
			c0.07,0.1,0.66,0.81,0.04,1.39c-0.15,0.15,0.29,0.44,0.78,0.26c0.48-0.19,0.78-0.73,0.78-0.73s0.2,0.49-0.51,1.11
			c-0.2,0.62,0.31,0.75,0.53,1.07c0,0-1.13-0.23-2.03,0.25c0.21,0.57,2.26,1.35,2.38,1.42c0.14,0.06-1.15,0.03-1.4,0.37
			c0.33,0.54,0.71,0.87,1.57,0.87c0.87,0,1.14,0.09,1.14,0.09s-0.57,0-0.84,0.42c-0.27,0.41-0.67,0.72-0.67,0.72
			s0.47,0.63,1.52,0.49c0.54-0.06,0.99-0.44,1.38-0.29c0,0-0.33,0.12-0.71,0.73l-0.38,0.63c0,0,0.38,0.41,1.29,0.41
			c0.45,0,0.43-0.42,1.15-0.59c0,0-0.51,0.37-0.7,1.06c-0.21,0.68-0.36,0.81-0.36,0.81s1.31,0.33,2.24-0.55l0.26-0.31
			c0,0-0.08,0.37-0.15,0.62c-0.06,0.24-0.37,0.67-0.34,0.89C37.55,42.16,39.09,41.32,40.75,42.35 M29.47,31.42
			c-0.24,0.1-0.9-0.16-0.9-0.16c-0.09,0.31,1.02,1.37,1.31,0.91C30.16,31.72,29.72,31.33,29.47,31.42 M29.31,27.88
			c0,0,0.24-0.16,0.47-0.37c-0.56-0.61-1.47-0.33-1.47-0.33C28.75,27.4,29.31,27.88,29.31,27.88 M31.99,25.48
			c0,0,0.43-0.11,0.72-0.02c0,0-0.05-1.17-1.59-1.48C31.61,24.44,31.99,25.48,31.99,25.48 M34.09,29.94c0,0,0.01-0.56,0.45-1.38
			c0.44-0.84,0.77-1.83-0.06-2.26c-0.22-0.12-0.75,0.27-0.74,0.51C33.73,26.81,33.73,29.84,34.09,29.94 M33.97,24.8
			c0.1,0.26,0.32,0.78,0.31,1.12c0,0,0.41,0.1,0.54,0.2C34.94,26.22,34.81,25.29,33.97,24.8 M68.51,29.4
			c0.88,0.37,2.31,0.59,3.33,0.21c-0.98-0.84-2.59-2.48-3.61-2.91c1.87,0.39,2.22,0.52,3.79,0.27c1.57-0.24,2.86-1.26,3.48-1.73
			c0.61-0.47,1.28-1.04,1.98-1.13c-0.14-0.39-1.36-0.55-2.99,0.05c-0.39,0.15-2.1,0.87-4.72,0.5c-0.15-0.03-3.63-1.05-5.86,0.63
			c0,0,1.58-1.56,0.99-2.47c-0.52,0.56-0.7,1.71-5.26,1.99c-0.86,0.05-4.95-0.03-6.77,2.62c-0.14,0.21-1.37,2.41,0.7,3.84
			c2.08,1.4,4.73,1.31,6.5,1.03c1.77-0.28,10.46-1.86,11.3-2.11c0,0-1.97,0.21-3.37-0.56c-1.4-0.77-1.72-1.29-3.63-1.37
			c0,0.41,0.74,0.91,0.7,1.36c0,0-0.54-0.54-1.29-0.58c-0.76-0.05-1.87,0.1-1.87,0.1s0.95,0.71,1.25,0.91
			c-0.32,0.14-2.29,0.62-5.11,0.87c-0.73,0.06-3.78,0.11-4.05-1.69c-0.11-0.71,0.32-2.03,2.46-2.52c1-0.25,2.12-0.47,3.43-0.53
			c1.3-0.07,3.42,0.08,5.1,1.05C66.67,28.2,67.65,29.04,68.51,29.4 M63.82,27.56c0,0,0.47,0.3,1.16,0.24c0,0-2.9-1.84-8.25-0.64
			c-0.41,0.1-2.55,0.68-2.25,2.08c0.31,1.42,3.01,1.6,7.61,0.58c0,0-0.51-0.7-1.41-0.97c1.99-0.28,3.03-0.44,3.39-0.17
			C63.67,27.89,63.82,27.56,63.82,27.56 M92.72,41.63c0.29,0.61-0.12,1.48,0,1.94c-0.44-0.2-0.39,0.1-0.39,0.48
			c0,0.37-0.06,0.4-0.04,0.62c0.02,0.24,0,0.95-0.63,1.85c-0.64-0.99-0.86-1.05-1.45-1.52c-0.28,0.75-0.02,1.45-1.14,2.37
			c-0.32,0.4-0.2,1.55-0.2,1.55s-1.21-0.54-1.48-1.85c-0.49,0.26-0.86,0.59-1.7-0.06c-0.66,0.12-1.36,0.63-1.29,1.1
			c-0.45-0.56-0.83-1.34,0-2.71c0.49-0.43-0.85-1.09-2.39-0.07c0.22-0.93,0.99-2.15,2.67-2.09c0.86-0.28,1.18,0.48,1.87,0.48
			c0.69,0,2.43-2.93-1.97-3.16c-3-0.16-8.66,1.45-11.72,0.13c0,0-2.54-0.72-3.35-2.64c-0.58,0.93,0.23,2.2,1.42,3.04
			c1.19,0.83,2.2,2.04,0.65,3.42c-0.21,0.17-0.35,1.33-1.97,2.26c0.22-1.26-0.2-1.69-0.58-1.63c0,0-0.26,1.61-2.15,2.34
			c0.38-0.99,0-1.58-0.5-2.08c-0.02,0.8-0.26,1.29-1.65,1.95c-0.48,0.17-0.65,0.48-0.65,0.48s0.05-1.33-0.54-1.69
			c-0.58,0.63-1,1.19-1.76,1.49c-0.31,0.12-0.5,0.39-0.81,0.39c0,0,0.73-0.85-0.23-1.73c-0.12-0.13,0.64,0.9-0.7,1.52
			c-0.35,0.33-0.59,0.84-0.59,0.84s-0.72-0.55-1.16-1.41c-0.17-0.35-0.17-0.85-0.17-0.85s-1.51,1.54-2.67,1.01
			c-0.23,0.16-0.83,0.78-0.74,1.08c-0.7-0.72-0.68-1.78-0.02-2.43c0.2-0.17,0.07-0.27,0.07-0.27s-0.61,0.1-0.99-0.85
			c-0.7-0.02-1.2-0.07-1.58,0.63c0.12-0.88,0.58-2.18,1.91-2.4c0,0,0.76-0.41,1.39-0.26c-0.09-0.34-0.82-0.74-1.97-0.43
			c0.2-0.4,1.69-1.57,3.21-0.65c0.78-0.16,2.34,1.28,2.78,1.46c1.29-0.11,3.71-0.52,4.74-0.94c0.2-0.04-0.43-0.33-0.91-1.05
			c-0.49-0.73-0.79-2.52-0.56-3.46c0.15-0.21-0.17-0.09-0.76,0.18c-0.29,0.13-2.56,1.24-4.82,2.32c-2.31,1.1-4.59,2.18-5.63,2.19
			c-0.4,0-2.31-0.07-2.43-0.1c0.43,0.86,0.79,2.1-0.79,2.8c-0.18,0.87-0.7,0.91-1.61,1.82c0,0,0.04-0.45-0.13-0.33
			c-0.18,0.14-1.11,0.96-2.25,1.17c0.49-0.7,0.26-0.98,0.26-0.98s-0.83,1.19-2.73,1.19c0.23-0.56,0.44-1.04,0.44-1.04
			s-1.14,1.17-2.63,0.83c0.28-0.52,0.28-0.65,0.28-0.65s-1.08,1.19-2.64,0.57c0.58-0.61,0.58-1.1,0.58-1.1s-1.16,1.19-2.76,0.97
			c0.36-0.61,0.4-0.82,0.4-0.82s-1.19,1.08-2.32,1.19c0.38-0.88,0.18-1.33,0.1-1.6c0,0-0.33-0.28-0.28-0.54
			c-0.28,0.31-1.81,1.34-2.9,0.18c-0.38,0.26-1.09,0.54-1.27,1.4c-0.3-0.93-0.55-1.95,0.96-2.97c0.02-0.13-0.84-0.24-1.14-1.42
			c-0.55-0.07-1.01,0.15-1.56,0.71c0.13-1.45,1.24-2.51,3.26-2.03l-0.05-0.83c0,0-0.98-0.48-1.44,0.18
			c0.23-0.74,1.11-1.87,2.67-1.05c0.94,0.03,1.62,2.06,2.15,2.57c0,0,0.75,0.5,2.64,0.5c1.89,0,3-0.13,3.84-0.54
			c-1.07-0.74-2.99,0.05-3.69,0.17c0.15-0.59,0.17-0.66,0.17-0.66s-1.43,0.32-2.25-0.24c0.34-0.34,0.38-1.07,0.38-1.07
			s-0.75,0.12-1.62-0.58c-0.23-0.05-0.33-0.08-0.33-0.08s0.51-0.27,0.48-0.69c-0.88-0.1-1.99-0.58-2.17-0.86
			c0.2-0.32,0.58-0.44,0.65-0.87c-0.62-0.08-1.13-0.34-1.94-1.4c-0.32-0.33-0.4-0.37-0.42-0.37c0.07-0.02,0.86-0.16,1-0.16
			c-0.53-0.3-1.11-0.97-2.07-1.28c0.76-0.18,1.75-0.78,2.12-0.94c0.05-0.2,0.05-0.26,0.05-0.26s-0.44,0.17-1.13-0.66
			c-0.77-0.47-1.44-0.8-1.59-2.22c0.73,0.62,1.03,0.54,1.38,0.46c0.13-0.35,0.46-0.55,0.46-0.55s-1.02-0.71-0.68-2.22
			c-0.63-0.38-0.81-0.82-1.82-0.89c0.76-0.42,1.87-0.95,2.96,0.1c0.58,0.16,0.73,0.16,0.73,0.16s-0.1-1.19,0.68-1.89
			c-0.45-1.14-0.71-1.35-1.36-1.85c0.76-0.22,2.31-0.31,2.95,1.73c0.28,0.02,0.43,0.47,0.43,0.59c0.2-0.18,0.33-0.42,0.16-0.93
			c-0.18-0.51-0.54-1.01-0.54-1.01s1.62,0.07,2.1,2.27c0.28,0.71,0.08,1.41-0.68,2.78c-0.76,1.36-0.36,2.32-0.07,3
			c0.27,0.68,1.41,3.31,4.47,4.6c0,0,0-0.34,0.09-0.59c0.1-0.24-0.32,0.28-0.33-0.16c-0.03-0.42,0.06-0.91,0.07-1.21
			c-0.18,0.16-0.47,0.51-0.41,0.67c-0.38-0.59-0.22-2.22-0.05-2.54c0.17-0.33-0.28-0.1-0.2-0.73c0.11-0.64,0.39-1.7,1.34-2.1
			c0.1-0.59,0.19-0.83,0.3-1.05c-0.36-0.53-0.38-1.07-0.24-1.82c0.14-0.77,0.21-0.85-0.13-1.08c-0.35-0.22,0.52-0.55,0.76-0.58
			c0.23-0.05,0.78,0.05,1.03,0.25c0.05-0.85,0.43-0.89,0.55-1.2c0.07-0.2,0.21-0.43,0.21-0.43s0.17,0.64,0.54,0.89
			c0.19-0.78,0.7-1.51,1.48-1.87c0.01,0.34,0.1,0.93,0.3,1.13c0,0,0.49-0.4,0.8-0.8c0.31-0.45,0.28-0.67,0.28-0.67
			s0.04,0.65,0.16,0.96c0.12,0.31,0.35,1.01,0.39,1.17c0.21-0.28,0.6-0.77,0.73-0.89c0.13-0.13-0.03,0.13,0.18,0.43
			c0.2,0.3,0.58,0.85,0.58,1.27c0.27-0.12,0.77-0.37,0.92-0.49c-0.02,0.48,0.06,1.29,0.06,1.29s1.08-0.42,1.61-0.05
			c0.52,0.36,0.64,0.56,0.64,0.56s-0.45,0.51-0.51,1.06c-0.04,0.53,0.06,1.65-0.97,2.25c0.09,0.56,0.36,1.15-0.43,2.1
			c0.05,0.09,0.19,0.3,0.31,0.4c0.44,0.07,4.45,0.95,7.49,0.76c3.03-0.23,9.82-1.85,11.98-1.95c2.14-0.1,9.26,1.23,11.48,1.31
			c2.22,0.07,4.52,0.09,4.42-1.43c-0.11-1.56-2.74-2.41-7.18-1.93c-1.99,0.22-8.96,1.55-11.64,2.05c-2.69,0.5-6.59,1.63-9.33,1.1
			c-2.73-0.54-4.29-1.46-4.54-4.11c-0.05-0.54,0.56-3.63,5.61-4.26c1.46-0.19,2.42-0.17,3.36-0.29c2.3-0.28,3.42-0.75,4.07-2.21
			c1.01,1.32,0.45,1.97,0.43,2.2c0.96-0.42,1.92-0.42,3.16-0.24c1.24,0.13,2.8,0.55,4.29,0.21c1.48-0.31,4.17-2.08,6.04,0.71
			c-0.89-0.87-2.07-0.14-2.35,0.42c0.3,0.62,1.13,1.2,2.1,1.54c0.32-1.07,0.87-1.59,1.1-1.82c0,0-0.13,1.43,1.19,2.27
			c0,0,0.43-2.1,2.13-2.38c-0.53,0.98-0.79,2.22,0.6,3.07c0.37-1.94,1.51-2.74,3.67-2.48c-0.7,0.68-1.97,1.29-1.44,3.32
			c0,0,0.75-1.42,2.73-1.66c1.97-0.25,2.27-1.45,2.27-1.45s0.4,1.69-1.51,2.71c-1.92,1-1.22,1.54-1.45,3.16
			c-0.04,0.3,0.65-0.24,1.38-0.28c1.5-0.09,2.69,0.9,3.44,0.54c0.76-0.33,0.89-0.51,0.89-0.51s-0.2,2.4-2.22,2.52
			c-1.31,0.09-1.91-0.71-4.6,1.15c-1.3,0.92-3.98,1.39-8.76,0.84c-0.28-0.03,1.89,1.34,4.17,1.37c2.27,0.02,6.95-2.78,7.63-0.81
			c1.57,0.03,2.22,1.19,2.73,1.75c-0.89,0.16-0.99,0.38-0.99,0.38s0.48,0.24,0.66,0.63c0.17,0.41,0.57,1.7,1.24,2.07
			C92.83,41.42,92.6,41.42,92.72,41.63 M29.5,35.94L29.5,35.94L29.5,35.94"/>
		<path d="M62.61,86.5c-0.02,0.02-0.02,0.03-0.03,0.05h-0.61l0.31,0.62c0.12,0.19,0.28,0.48,0.28,0.73c0,1.09-0.61,1.84-1.85,1.84
			c-1.24,0-2.18-0.75-2.18-1.84c0-0.4,0.2-1.22,0.45-1.36c0,0-0.29-1.69,1.66-1.94C61.81,84.47,62.85,86.06,62.61,86.5 M57.45,86.55
			H39.41c0.01-0.01,0.03-0.02,0.05-0.03h-0.09c0.76-0.75,2.26-2.23,3.11-3.6c0.54,0.35,1.68,0.89,3.49,0.76
			c1.22-0.07,2.85-0.55,4.44-1.03c1.69-0.51,3.45-1.03,4.62-1.03c1.63,0,3.57,1.35,4.48,2.05c-0.15,0.09-0.3,0.17-0.44,0.3
			C58.43,84.57,57.56,86.34,57.45,86.55 M38.82,86.06c-0.02-3.86-0.15-28.84-0.15-29.08c0.12-0.11,2.3-2.45,3.3-3.53v28.78
			C41.22,83.63,39.59,85.31,38.82,86.06 M42.74,53.11c0.73,0.39,2.22,1.08,3.69,1.16c0.99,0.05,2.4-0.5,4.03-1.11
			c1.72-0.66,3.65-1.41,5.14-1.41c2.7,0,4.5,1.9,4.52,1.92l0.2,0.21l0.21-0.19c0.03-0.02,2.54-2.18,5.47-2.25
			c2.05-0.04,3.96,0.73,5.65,1.41c1.36,0.54,2.66,1.06,3.84,1.06c0.93,0,1.86-0.46,2.44-0.81v28.65c-0.44,0.28-1.76,1.09-3.3,1.09
			c-0.83,0-1.92-0.43-3.07-0.87c-1.56-0.58-3.32-1.25-5.16-1.25c-2.86,0-5.33,1.92-6.11,2.6c-0.78-0.65-3.16-2.46-5.26-2.46
			c-1.3,0-3.1,0.55-4.84,1.06c-1.54,0.45-3.13,0.94-4.27,1.03c-1.86,0.1-2.86-0.54-3.18-0.76V53.11z M78.22,82.45l3.15,4.1H63.55
			c0-0.01-0.01-0.02-0.01-0.03H63.5c-0.07-0.27-0.18-0.74-0.51-1.25c-0.44-0.7-1.32-1.59-1.73-1.78c1.01-0.78,2.99-2.02,5.13-2.02
			c1.7,0,3.39,0.64,4.88,1.21c1.28,0.49,2.38,0.91,3.35,0.91C76.26,83.58,77.62,82.84,78.22,82.45 M78.68,53.23
			c0.86,0.8,2.69,2.52,2.82,2.64c0,0.24,0.12,24.8,0.15,29.81c-0.99-1.29-2.86-3.72-2.97-3.87V53.23z M82.26,87.15l-0.16-31.53
			l-3.79-3.55l-0.2,0.16c-0.02,0.02-1.39,1.09-2.63,1.09c-1.07,0-2.3-0.5-3.62-1.03c-1.73-0.7-3.71-1.51-5.89-1.46
			c-2.68,0.09-4.94,1.71-5.64,2.24c-0.55-0.51-2.28-1.92-4.75-1.92c-1.6,0-3.59,0.77-5.35,1.45c-1.51,0.59-2.93,1.12-3.79,1.08
			c-1.86-0.1-3.88-1.35-3.9-1.37l-0.2-0.14L42,52.56h-0.02v0.02l-3.9,4.18l0.14,30.39h19.39c-0.09,0.23-0.36,0.58-0.36,0.88
			c0,1.43,1.48,2.46,3.06,2.46c1.57,0,2.85-1.16,2.85-2.59c0-0.28-0.09-0.52-0.19-0.76H82.26z"/>
		<path d="M61.48,81.06v-0.57c0,0,0.59-0.8,1.32-0.71C62.48,79.99,61.61,80.81,61.48,81.06"/>
		<path d="M61.44,79.47v-0.6c0,0,0.59-0.78,1.33-0.69C62.45,78.4,61.58,79.23,61.44,79.47"/>
		<path d="M61.41,78.28v-0.57c0,0,0.4-0.57,1.13-0.49C62.22,77.42,61.55,78.04,61.41,78.28"/>
		<polygon points="61.47,76.12 61.47,76.75 61.84,76.3 61.6,76.04 		"/>
		<path d="M62.05,75.63h0.3l0.3-0.33C62.64,75.31,62.31,75.37,62.05,75.63"/>
		<path d="M61.36,75.59c0,0,0.76-1.27,1.25-1.5c-0.54-0.1-1.23,0.72-1.23,0.72L61.36,75.59z"/>
		<path d="M61.36,72.51c0,0,0.74-1.01,1.26-1.41c-0.57,0.1-1.24,0.85-1.24,0.85L61.36,72.51z"/>
		<path d="M61.38,71.04c0,0,0.5-0.88,1.29-1.24c-0.47-0.05-1.29,0.62-1.29,0.62V71.04z"/>
		<path d="M61.38,69.51c0,0,0.79-0.85,1.25-1.21c-0.58,0.05-1.23,0.73-1.23,0.73L61.38,69.51z"/>
		<path d="M61.43,68.15c0,0,0.43-0.88,1.3-1.22c-0.62-0.09-1.29,0.65-1.29,0.65L61.43,68.15z"/>
		<path d="M61.44,66.56c0,0,0.71-0.73,1.35-1.14c-0.09-0.07-1.17,0.28-1.34,0.69C61.45,66.48,61.44,66.56,61.44,66.56"/>
		<path d="M61.47,65.22c0,0,0.6-0.8,1.18-1.11c-0.41-0.09-1.16,0.51-1.16,0.51L61.47,65.22z"/>
		<path d="M61.51,63.81c0,0,0.76-0.87,1.16-1.08c-0.76,0.19-1.15,0.6-1.15,0.6L61.51,63.81z"/>
		<path d="M61.46,62.69c0,0,0.51-0.93,1.33-1.31c-0.76,0.13-1.33,0.8-1.33,0.8V62.69z"/>
		<path d="M61.44,61.38c0,0,0.54-0.85,1.32-1.33c-0.72,0.05-1.33,0.79-1.33,0.79L61.44,61.38z"/>
		<path d="M61.4,59.99c0,0,0.64-0.95,1.33-1.33c-0.49-0.02-1.33,0.86-1.33,0.86V59.99z"/>
		<path d="M61.41,58.65c0,0,0.56-0.8,1.35-1.21c-0.78,0.03-1.33,0.67-1.33,0.67L61.41,58.65z"/>
		<path d="M61.41,57.42c0,0,0.51-0.89,1.41-1.34c-0.82,0.18-1.42,0.74-1.42,0.74L61.41,57.42z"/>
		<path d="M61.42,56c0,0,0.42-0.61,1.39-1.34c-0.9,0.19-1.41,0.82-1.41,0.82L61.42,56z"/>
		<path d="M61.4,54.69c0,0,0.96-0.96,1.41-1.23c-0.75,0.14-1.45,0.76-1.45,0.76L61.4,54.69z"/>
		<path d="M59.49,80.85v-0.55c0,0-0.28-0.38-1.02-0.42C58.81,80.2,59.49,80.85,59.49,80.85"/>
		<path d="M59.5,79.12v-0.64c0,0-0.51-0.41-1.06-0.41C58.92,78.47,59.5,79.12,59.5,79.12"/>
		<path d="M59.5,77.75v-0.53c0,0-0.29-0.36-1-0.44C58.98,77.21,59.5,77.75,59.5,77.75"/>
		<path d="M59.53,76.44v-0.47c0,0-0.46-0.39-1.12-0.42C58.96,75.98,59.53,76.44,59.53,76.44"/>
		<path d="M59.52,74.97v-0.47c0,0-0.4-0.51-1.19-0.44C59,74.51,59.52,74.97,59.52,74.97"/>
		<path d="M59.52,73.63c0,0,0.02-0.45-0.02-0.55c-0.04-0.11-0.57-0.59-1.24-0.42C58.93,72.97,59.33,73.3,59.52,73.63"/>
		<path d="M59.48,72.35v-0.42c0,0-0.57-0.65-1.22-0.56C58.86,71.75,59.48,72.35,59.48,72.35"/>
		<path d="M59.46,70.86v-0.58c0,0-0.35-0.54-1.2-0.51C59.15,70.36,59.46,70.86,59.46,70.86"/>
		<path d="M59.41,69.08v-0.44c0,0-0.38-0.43-1.05-0.41C58.95,68.6,59.41,69.08,59.41,69.08"/>
		<path d="M59.41,67.72V67.3c0,0-0.22-0.43-1.11-0.47C58.86,67.19,59.41,67.72,59.41,67.72"/>
		<path d="M59.38,66.33v-0.44c0,0-0.26-0.32-1.03-0.44C59.01,65.87,59.38,66.33,59.38,66.33"/>
		<path d="M59.36,64.98v-0.37c0,0-0.49-0.45-1.06-0.45C58.86,64.54,59.36,64.98,59.36,64.98"/>
		<path d="M59.41,63.92v-0.57c0,0-0.63-0.38-1.17-0.44C59.1,63.5,59.41,63.92,59.41,63.92"/>
		<path d="M59.3,62.36v-0.39c0,0-0.38-0.42-1.22-0.35C58.87,61.95,59.3,62.36,59.3,62.36"/>
		<path d="M59.32,61.03v-0.49c0,0-0.29-0.33-1.22-0.3C58.55,60.46,59.17,60.77,59.32,61.03"/>
		<path d="M59.36,59.69v-0.56c0,0-0.38-0.35-1.21-0.32C58.92,59.35,59.36,59.69,59.36,59.69"/>
		<path d="M59.29,58.31v-0.52c0,0-0.67-0.31-1.19-0.29C58.77,57.91,59.29,58.31,59.29,58.31"/>
		<path d="M59.29,56.73v-0.39c0,0-0.59-0.54-1.17-0.33C58.73,56.29,59.29,56.73,59.29,56.73"/>
		<path d="M59.3,55.33V54.8c0,0-0.67-0.35-1.17-0.26C58.75,54.75,59.3,55.33,59.3,55.33"/>
		<path d="M59.21,54.02v-0.48c0,0-0.28-0.42-1.13-0.4C58.74,53.52,59.21,54.02,59.21,54.02"/>
		<path d="M26.49,95.54h1.12c0,0,0.1-0.24-0.45-0.24c-0.07-0.54-0.47-1.27-1.65-1.7c-0.23-0.08-1.49-0.27-1.65,0.81
			c-0.02,0.18-0.02,2.43-0.12,3.08c-0.07,0.36-0.3,1.29-0.78,1.32c-0.49,0.02-1.13-0.43-1.19-2.24l-1.45,0.09
			c0,0,0.07,0.17,0.58,0.19c0,0-0.01,1.61,1.43,2.16c0.23,0.09,1.32,0.19,1.79-0.32c0.45-0.51,0.66-1.51,0.52-3.91
			c-0.02-0.46,0.27-1.23,1.03-0.82C26.43,94.36,26.49,95.54,26.49,95.54"/>
		<path d="M26.4,99.05c1.05-0.71,2.14-1.41,2.14-1.41L27.51,100L26.4,99.05z M29.55,97.25l-0.63-0.51c0,0-4.4,2.83-4.84,3.11
			c-0.11,0.07-0.4,0.05-0.62-0.04c-0.14-0.05-0.14,0.04-0.09,0.1c0.08,0.07,0.94,0.91,1.04,0.98c0.09,0.08,0.14,0,0.09-0.07
			c-0.05-0.07-0.28-0.32-0.05-0.48c0.09-0.09,0.78-0.54,1.61-1.07l1.26,1.14l-0.73,1.87c-0.07,0.16-0.51-0.04-0.51-0.04
			s-0.17,0-0.05,0.1c0.34,0.33,1.13,0.98,1.19,1.04c0.09,0.06,0.19-0.04,0.09-0.11c-0.1-0.12-0.17-0.28,0.17-1.09
			C27.84,101.35,29.55,97.25,29.55,97.25"/>
		<path d="M52.27,111.67c0.47-0.98,1.01-1.96,1.01-1.96l0.55,2.04L52.27,111.67z M53.93,108.4l-0.61-0.06c0,0-2.37,4.57-2.62,5.05
			c-0.06,0.11-0.32,0.24-0.54,0.27c-0.17,0.03-0.12,0.11-0.03,0.12c0.1,0.04,1.36,0.19,1.48,0.21c0.12,0.02,0.12-0.08,0.04-0.13
			c-0.08-0.02-0.39-0.26-0.27-0.53c0.05-0.1,0.46-0.8,0.7-1.2l1.89,0.07l0.54,1.92c0.03,0.16-0.43,0.28-0.43,0.28
			s-0.12,0.09,0.03,0.11c0.46,0.04,1.52,0.12,1.62,0.12c0.13,0.01,0.13-0.14,0-0.14c-0.15-0.02-0.2,0.04-0.46-0.79
			C54.93,112.6,53.93,108.4,53.93,108.4"/>
		<path d="M27.64,103.5l1.1,0.77c0.09,0.06,0.16,0,0.1-0.09c-0.08-0.11-0.34-0.31,0.17-1.02c0.53-0.68,2.68-3.81,2.68-3.81
			s1.94,1.07,1.07,2.62c-0.77,1.33-2.42,0.49-2.94,0.04c-0.3-0.25-0.29,0.13-0.29,0.13s0.66,0.56,1.24,0.73
			c0.57,0.19,2.08,0.44,2.77-0.73c0.68-1.16-0.17-2.31-1.37-2.93c-1.18-0.65-1.28-0.77-1.28-0.77s-0.14,0.05,0.01,0.19
			c0.14,0.14,0.21,0.3,0.08,0.51c-0.14,0.2-2.68,3.93-2.86,4.17C27.95,103.54,27.64,103.34,27.64,103.5"/>
		<path d="M34.66,101.14c0,0,0.33,0.3-0.02,0.82c-0.35,0.51-2.66,3.87-2.66,3.87s-0.22,0.26-0.64,0.12
			c-0.05-0.03-0.17,0.01-0.03,0.13c0.33,0.17,0.93,0.61,1.19,0.77c0.18,0.13,0.07-0.12,0.07-0.12s-0.2-0.23,0.03-0.57
			c0.23-0.32,2.52-3.81,2.77-4.09c0.24-0.3,0.42-0.21,0.56-0.14c0.14,0.08,0.18-0.03,0.07-0.1c-0.1-0.07-1.26-0.79-1.34-0.84
			c-0.09-0.04-0.06,0.07-0.06,0.07"/>
		<path d="M36.31,102.12c0,0,2.89,1.54,3.16,1.62c0,0-0.45,0.95-0.53,1.06c-0.07,0.11-0.12-0.29-0.04-0.76
			c-0.75-0.49-1.88-1.02-1.88-1.02l-2.46,4.49c0,0,1.69,0.87,1.88,0.95c0.36,0.14,0.75-0.51,0.86-0.47c0.11,0.02-0.5,0.95-0.58,1.07
			c-0.08,0.12-2.73-1.36-3.5-1.75c-0.19-0.11-0.09-0.21,0.27-0.15c0.36,0.05,0.36,0.07,0.65-0.38c0.28-0.45,2.14-3.82,2.25-4
			C36.5,102.57,36.01,102,36.31,102.12"/>
		<path d="M35.73,104.9c0,0,0.93,0.5,1.19,0.63c0.24,0.15,0.49,0.06,0.64-0.18c0.14-0.22,0.19-0.08,0,0.24
			c-0.16,0.32-0.46,0.82-0.58,1.02c-0.12,0.21-0.27,0.15-0.12-0.17c0.14-0.31-0.13-0.44-0.59-0.68c-0.45-0.25-0.84-0.49-0.84-0.49
			L35.73,104.9z"/>
		<path d="M60.39,108.68c0,0,3.78-0.16,4.04-0.24c0,0,0.16,1.04,0.14,1.16c0,0.14-0.27-0.18-0.45-0.6c-0.8,0.05-2.57,0.06-2.57,0.06
			l0.14,5.09c0,0,1.97-0.15,2.17-0.19c0.38-0.05,0.59-0.91,0.71-0.93c0.11-0.03-0.06,1.44-0.06,1.44s-3.34,0.24-4.17,0.28
			c-0.21,0.02-0.18-0.13,0.16-0.26c0.35-0.12,0.37-0.22,0.4-0.75c0.03-0.55-0.06-4.34-0.08-4.57
			C60.8,108.96,60.08,108.74,60.39,108.68"/>
		<path d="M61.57,111.39c0,0,1.19-0.08,1.48-0.1c0.28-0.02,0.45-0.22,0.44-0.5c-0.01-0.27,0.1-0.17,0.14,0.2
			c0.03,0.37,0.05,0.92,0.05,1.16c0.01,0.26-0.14,0.28-0.19-0.07c-0.05-0.34-0.49-0.32-1.01-0.26c-0.51,0.04-0.98,0.04-0.98,0.04
			L61.57,111.39z"/>
		<path d="M37.05,109.39c0,0,1.11,0.47,1.4,0.6c0.24,0.05,0.18-0.11-0.05-0.36c-0.06-0.06-0.05-0.28,0.14-0.62
			c0.18-0.3,1.51-3.07,1.51-3.07l0.51,4.96l0.96,0.32c0,0,1.95-4.33,2.15-4.73c0.18-0.41,0.42-0.3,0.61-0.24
			c0.19,0.07,0.21-0.12,0.03-0.19c-0.2-0.1-1.19-0.46-1.39-0.55c-0.21-0.09-0.17,0.12,0.01,0.23c0.17,0.08,0.19,0.21,0.08,0.49
			c-0.09,0.29-1.69,3.85-1.69,3.85l-0.52-5.39c0,0-0.74-0.46-0.91-0.57c-0.17-0.11-0.22,0.1-0.06,0.24
			c0.17,0.16,0.16,0.29,0.03,0.56c-0.12,0.27-2.1,4.05-2.21,4.23C37.53,109.36,36.94,109.15,37.05,109.39"/>
		<path d="M44.74,106.33l-0.34,1.11c0.48-0.54,1.22-0.44,1.22-0.44s0.28,0.07,0.64,0.18c-0.24,0.76-1.33,4.24-1.47,4.61
			c-0.15,0.45-0.57,0.21-0.63,0.36c-0.03,0.08-0.01,0.09,0.16,0.14c0.21,0.05,0.96,0.34,1.12,0.39c0.15,0.03,0.17,0.06,0.19,0
			c0.08-0.22-0.36-0.23-0.22-0.66c0.06-0.17,1.31-4.05,1.49-4.64c0.34,0.11,0.91,0.28,1.11,0.36c0.2,0.1,0.45,0.42,0.47,0.94
			c0.12-0.44,0.38-1.11,0.38-1.11L44.74,106.33z"/>
		<path d="M65.65,108.42l0.14,1.17c0.21-0.7,0.63-0.72,0.63-0.72l1-0.13c0,0,0.52,4.34,0.54,4.74c0.03,0.45-0.45,0.39-0.45,0.58
			c0.02,0.08,0.05,0.08,0.21,0.06c0.24-0.04,1.3-0.23,1.46-0.26c0.16-0.02,0.18-0.01,0.18-0.06c-0.03-0.24-0.59,0.06-0.61-0.4
			c-0.01-0.18-0.46-4.81-0.46-4.81s0.6-0.08,1.07-0.13c0.22,0,0.52-0.05,0.73,0.45c-0.04-0.46-0.15-1.08-0.15-1.08L65.65,108.42z"/>
		<path d="M48.19,113.4l1.47,0.3c0,0,0.11-0.13-0.15-0.24c-0.05-0.01-0.16-0.17-0.1-0.44c0,0,0.89-4.27,0.95-4.57
			c0.05-0.31,0.2-0.29,0.37-0.28c0.16,0,0.3-0.2-0.01-0.25c-0.33-0.07-0.94-0.16-1.26-0.23c-0.22-0.03-0.25,0.17-0.14,0.21
			c0.14,0.06,0.38,0.23,0.34,0.46c-0.04,0.21-0.89,4.1-0.97,4.51c-0.06,0.28-0.19,0.41-0.42,0.35
			C48.11,113.17,48.06,113.37,48.19,113.4"/>
		<path d="M58.1,111.57c0.01,0.24-0.19,0.45-0.44,0.46c-0.26,0-0.47-0.2-0.48-0.44c0-0.26,0.19-0.49,0.45-0.49
			C57.88,111.1,58.09,111.31,58.1,111.57"/>
		<path d="M72.36,110.36c0.01,0.28-0.19,0.48-0.45,0.48c-0.26,0.02-0.47-0.18-0.47-0.43c-0.02-0.27,0.19-0.46,0.44-0.49
			C72.13,109.92,72.36,110.11,72.36,110.36"/>
		<path d="M71.93,107.34l1.74-0.44c0,0,0.11,0.07-0.19,0.23c-0.2,0.12-0.14,0.17-0.06,0.28c0.09,0.09,2.95,3.56,2.95,3.56l0.14-4.69
			c0,0-0.13-0.13-0.4,0.02c-0.08,0.05-0.2-0.02-0.09-0.12c0.12-0.1,1.01-0.44,1.1-0.51c0.1-0.05,0.3,0,0.09,0.17
			c-0.18,0.14-0.23,0.11-0.24,0.22c-0.01,0.08-0.07,5.78-0.07,5.78l-0.63,0.27l-3.64-4.66c0,0-0.27-0.03-0.5,0.04
			C71.88,107.57,71.85,107.4,71.93,107.34"/>
		<path d="M78.14,105.82c0,0,1.84,4.13,1.89,4.31c0.05,0.18,0.04,0.39-0.15,0.51c-0.21,0.14-0.14,0.25,0,0.2
			c0.14-0.05,1.14-0.48,1.4-0.59c0.15-0.07,0.08-0.2-0.15-0.13c-0.23,0.07-0.33-0.17-0.42-0.44c-0.07-0.19-1.8-4.09-1.8-4.09
			c-0.05-0.13,0.03-0.26,0.21-0.4c0.13-0.11,0.12-0.29-0.07-0.19c-0.17,0.1-1.31,0.67-1.42,0.75c-0.11,0.06-0.06,0.15,0.14,0.08
			C77.99,105.75,78.11,105.77,78.14,105.82"/>
		<path d="M83.55,105.76c-0.3,0.31-0.82,0.77-1.14,1.02l-1.2-2.66c0.3-0.12,0.49-0.21,0.65-0.29c0.56-0.28,0.84-0.17,1.36,0.04
			C83.74,104.09,83.97,105.33,83.55,105.76 M86.99,107.44c-0.37,0.24-0.75-0.16-1.45-0.77c-0.69-0.61-1.17-1.08-1.55-0.93
			c0.12-0.21,0.51-1.37,0.14-2.11c-0.37-0.74-1.24-0.74-1.75-0.51c-0.52,0.24-2.36,1.36-2.36,1.36c-0.15,0.25,0.16,0.23,0.58,0.07
			l2.24,5.01c-0.26,0.22-0.29,0.39-0.29,0.39l1.42-0.73c0,0,0-0.09-0.43,0.03l-0.97-2.13c0.14-0.16,0.38-0.42,0.68-0.65
			c0.33-0.32,1.31,0.63,2.04,1.21c0.73,0.58,0.85,0.49,1.17,0.25C86.8,107.68,87.34,107.21,86.99,107.44"/>
		<path d="M89.56,105.61l-2.68-4.42c0.28-0.22,0.46-0.33,0.65-0.48c0.55-0.41,0.99,0.09,0.99,0.09l-0.7-1.08l-3.2,2.42l0.66,0.95
			c0,0-0.28-0.67,0.16-0.97c0.18-0.13,0.33-0.17,0.71-0.42l2.74,4.36c-0.53,0.39-0.2,0.42-0.2,0.42l1.28-0.87
			C89.97,105.6,90.03,105.35,89.56,105.61"/>
		<path d="M88.08,99.66l1.38-1.07c0,0-0.23,0.48,0.15,0.96c0.37,0.47,2.09,2.72,2.6,3.08c0.51,0.35,1.98-0.17,1.76-2.18
			c0.47,0.33,0.07,2.34-1.03,2.87c-1.03,0.5-1.46-0.19-1.8-0.58c-1.33-1.55-1.82-2.18-2.24-2.71
			C88.52,99.61,88.08,99.66,88.08,99.66"/>
		<path d="M90.72,97.31l1.21-1.05c0,0-0.27,0.32,0.28,1c0.56,0.67,2.15,2.78,2.59,3.18c0.43,0.42,0.95,0.18,1-0.05
			c0.02-0.24,0.1-0.08,0.02,0.26c-0.1,0.35-0.41,1.09-1.25,0.55c-0.56-0.37-0.64-0.49-0.83-0.7c-0.17-0.19-2.14-2.67-2.4-3
			C91.08,97.16,90.72,97.31,90.72,97.31"/>
		<path d="M96.01,94.34L95.8,92.6c0,0-0.16,0.07-0.19,0.26c-0.02,0.19-0.05,0.4-0.26,0.44c-0.42,0.11-1.36,0.82-1.66,1.69
			c-0.16,0.46-0.16,2.02,0.89,1.92c1.03-0.09,2.99-0.69,3.53,0.66c0.44,1.12-1.01,1.84-1.75,1.33c-0.02,0,0.15,1.19,0.22,1.54
			c0.11-0.06,0.12-0.56,0.28-0.68c0.32-0.22,1.38,0.1,1.7-1.52c0.33-1.64-0.61-2.31-1.45-2.46c-1.13-0.2-3.14,0.58-3.18-0.22
			C93.9,94.84,95.34,93.82,96.01,94.34"/>
		<polygon points="70.36,26.8 71.44,27.41 71.39,27.08 71.44,26.74 71.54,26.38 71.67,25.92 		"/>
		<polygon points="68.26,27.5 68.2,27.56 68.24,27.66 68.34,27.7 68.41,27.65 68.41,27.56 68.36,27.5 		"/>
		<path d="M53.96,64.38c0.1-0.11,1.27-0.05,1.45-0.03c0.18,0.02,0.4,0.16,0.31,0.63c-0.09,0.46-0.21,1.01-0.35,1.08
			c-0.14,0.07-0.94,0.09-1.06,0.04C54.21,66.05,53.57,64.84,53.96,64.38 M53.85,63.51c0.43-0.51,0.72-1.01,0.72-1.01
			s2.46,0.02,2.67-0.07c0.18-0.16,0.43-0.86,0.35-0.93c-0.09-0.1-0.48,0.38-0.71,0.38h-1.97c0,0,0.99-1.9,1.12-2.14
			c0.17-0.05,0.28-0.16,0.27-0.33c-0.01-0.17-0.64-0.52-0.75-0.42c-0.12,0.08-0.57,0.3-0.57,0.3H53.4c0.05-0.24-0.35-0.68-0.48-0.68
			c-0.11,0-0.06,0.05-0.3,0.73c-0.22,0.64-1.26,1.49-1.26,1.49s-0.09,0.14,0.13,0.15c0.82,0.01,1.62-1.06,1.62-1.06h1.68
			c0.21,0,0.29,0.06,0.21,0.28c-0.09,0.21-0.96,1.71-0.96,1.71c-0.45,0.02-1.82,0.02-2.27-0.03c-0.42-0.02-0.53-0.16-0.66,0.13
			c-0.12,0.27-0.23,0.65-0.23,0.65c0.16,0.25,0.71-0.15,0.94-0.15l1.46,0c0.31,0,0.35,0.02,0.35,0.02c-0.29,0.5-1.54,2.2-3.17,2.98
			c-0.77,0.36-1.7-0.29-1.7-0.11c-0.07,0.45,0.58,0.86,1.45,1c0.75,0.13,1.84-0.94,2.27-1.38c0.42-0.44,0.54-0.21,0.59-0.02
			c0.44,1.55,0.59,1.87,0.87,1.87h1.88c0.24,0,0.37-0.24,0.6-1.35c0.23-1.1,0.38-1.6,0.11-1.75c-0.28-0.13-2.44-0.08-2.44-0.08
			C53.82,63.71,53.73,63.66,53.85,63.51 M49.86,63.41c-0.47-0.34-0.94-0.75-1.19-1.01v-0.89c0,0,0.79,0,1.17-0.12
			c0.41-0.09,0.67-0.41,0.14-0.41c-0.52,0-1.3-0.03-1.3-0.03v-1.54c0-0.51-0.2-0.61-0.38-0.61c-0.19,0-0.45,0.1-0.45,0.75v1.39
			h-1.95c0,0-0.59,1.1-0.7,1.28c-0.1,0.18,0.38-0.12,0.72-0.26c0.34-0.14,1.67-0.39,1.93-0.39c0,0,0.11,0.95-0.6,1.52
			c-0.7,0.58-1.17,1.2-3.23,1.7c-0.21,0.05,0.11,0.49,0.82,0.57c0.7,0.1,1.59-0.3,2.75-1.85c0.23-0.31,0.3-0.17,0.3,0.16
			c0,0.34,0.09,2.29-0.08,2.71c-0.19,0.42,0.12,0.58,0.35,0.14c0.25-0.44,0.39-1.35,0.39-3.42c0-0.22,0.46,0.33,1.01,0.55
			C50.14,63.88,50.35,63.76,49.86,63.41"/>
		<path d="M46.18,71.63c0,0-0.23,0.6-0.35,1.08c-0.12,0.47-0.58,1.14-0.77,1.44c-0.2,0.3-0.02,0.63,0.4,0.39
			c0.43-0.26,1.03-1.01,1.03-1.32c0.32,0,1.42-0.08,1.42-0.08l-0.04,1.43c0,0-1.2,1.08-2.66,1.41c-0.38,0.1-0.66,0.42-0.11,0.75
			c0.26,0.13,1.1,0.06,2.09-0.76c0,0,0.47-0.38,0.54-0.38c0.1,0,0.03,1.28,0.03,1.65c0,0.36,0.39,0.28,0.51-0.31
			c0.13-0.57,0.33-1.99,0.33-1.99s1.18-1.03,0.89-1.4c-0.14-0.1-0.75,0.53-0.75,0.53s0.06-0.88,0.06-1.07
			c0.37-0.06,1.35-0.18,1.36-0.42c0.02-0.39-1.42-0.26-1.42-0.26s0.06-0.96,0.05-1.42c-0.01-0.21-0.43-0.42-0.56-0.4
			c0,0-0.38,0.07-0.38,0.38v1.47h-1.21c0,0,0.07-0.23,0.04-0.46C46.67,71.68,46.33,71.38,46.18,71.63"/>
		<path d="M51.37,70.82c0,0,0.08,1.58-1.35,2.93c-0.13,0.11-0.17,0.48,0.43,0.17c0.65-0.35,1.03-1,1.03-1h0.93
			c0.1,0-0.75,3.19-3.07,3.66c0,0-0.3,0.14,0.1,0.31c0.4,0.17,1.66-0.26,2.34-1.09c0.66-0.8,1.27-2.15,1.49-2.91
			c0.58-0.03,1.22-0.03,1.22-0.03s-0.98,3.23-3.13,4.69c-0.13,0.08,0.17,0.19,0.86-0.03c0.69-0.25,1.94-1.41,3.07-4.72
			c0,0,1.13-0.21,1.25-0.15c0.12,0.07,0.02,0.35-0.12,0.8c-0.16,0.45-1.08,2.67-1.66,3.1c-0.25,0.17-1.05-0.28-1.05-0.16
			c0,0.11,0.58,0.84,0.98,0.84c0.41,0,0.92-0.37,1.44-1.46c0.51-1.07,1.26-2.77,1.35-3.3c0.09-0.54-0.36-0.83-0.94-0.66
			c-0.59,0.16-2.31,0.45-4.5,0.4c-0.21,0-0.05-0.37,0-0.72c0.07-0.35,0.1-1.05-0.36-1.05C51.21,70.42,51.37,70.82,51.37,70.82"/>
		<path d="M67.37,60.5c0,0.24-0.02,0.35-0.24,0.35c-0.23,0-2.05,0.22-2.22,0.27c-0.16,0.05-0.45,0.09-0.45-0.13
			c0-0.23-0.13-0.76-0.13-0.76c0.15-0.05,0.15-0.23,0.42-0.25c0.28-0.03,1.76-0.24,2.25-0.24C67.52,59.74,67.37,59.95,67.37,60.5
			 M67.36,63.74c-0.02,0.28,0.05,0.74-0.2,0.74c-0.24,0-2.19,0.09-2.53,0.22c-0.36,0.09-0.02-0.14-0.07-1.03
			c0,0,1.04-0.21,2.04-0.24C67.6,63.4,67.37,63.44,67.36,63.74 M64.49,61.84c0,0,1.54-0.33,2.73-0.31c0.1,0,0.15,0.23,0.14,0.63
			c-0.02,0.43,0.05,0.59-0.29,0.62c-0.33,0.03-2.24,0.24-2.45,0.27c-0.22,0.03-0.18-0.18-0.16-0.6
			C64.48,62.02,64.44,61.97,64.49,61.84 M67.96,58.99c-0.28-0.05-2.65,0.32-3.43,0.4c-0.78,0.05-1.54-0.23-1.66,0.18
			c-0.12,0.41,0.32,0.7,0.71,0.75c0,0,0.44,1.24,0.02,5.03c-0.03,0.26-0.07,0.57,0.14,0.55c0.38-0.03,0.62-0.55,1.07-0.56
			c0.44-0.02,2.68-0.19,2.95-0.19c0.26,0,0.21,0.08,0.25-1.02c0.03-1.09-0.02-3.62,0.13-4.32C68.26,59.1,68.24,59.02,67.96,58.99"/>
		<path d="M73.77,59.4c-0.07,0.51,0,0.96-0.25,1.03c-0.25,0.08-2.2,0.33-2.62,0.33c-0.07-0.34-0.18-0.7-0.3-0.96
			c-0.16-0.33-0.31-0.56-0.21-0.56c0,0,1.57-0.06,2.38-0.11C73.57,59.08,73.85,58.9,73.77,59.4 M73.47,63.02
			c-0.44,0.03-2.4,0.03-2.4,0.03s0.05-1.11,0.03-1.59c0,0,2.22-0.15,2.4-0.3C73.68,61.04,73.47,62.63,73.47,63.02 M74.74,66.73
			c-0.1-0.4-0.51-2.32-0.51-3.18c0-0.87,0.15-4.1,0.38-4.67c0.23-0.58,0.26-0.73-0.43-0.73c-0.68,0-4.22,0.51-4.6,0.51
			c-0.37,0-0.49,0.45-0.23,0.61c0,0-0.04,0.24,0.19,0.31c0.15,0.14,1.52,3.17-0.28,5.35c-0.2,0.25-1.34,1.61-3.16,1.39
			c-0.24-0.02-0.53-0.06-0.28,0.38c0.25,0.43,1.19,0.91,2.52,0.32c1.34-0.58,2.53-2.81,2.59-3.24c0.35,0,2.57-0.02,2.57-0.02
			s-0.16,2.39,0.81,3.2C74.52,67.15,74.83,67.14,74.74,66.73"/>
		<path d="M64.03,70.79c0,0,0.62,0.2,1.46-0.08c0.92-0.3,0.97-0.04,0.93,0.27c-0.05,0.3-0.95,0.5-1.35,0.5
			C63.79,71.47,63.58,70.79,64.03,70.79"/>
		<path d="M63.29,73.05c0,0,0.95,0.03,1.83-0.16c0.87-0.17,1.84-0.53,1.76-0.04c-0.09,0.48-1.04,3.72-2.88,4.14
			c-0.26,0.04-1.71,0.3-1.95-1.09c-0.07-0.33,0.2-0.02,0.56,0.14c0.36,0.15,1.28,0.28,2.06-0.58c0.79-0.87,1.18-1.38,1.35-2.01
			c0.02-0.16-0.02-0.2-1.33,0.01c-0.99,0.18-1.54,0.97-1.99,0.11C62.55,73,63.29,73.05,63.29,73.05"/>
		<path d="M68.7,70.16c0,0,5.37-0.1,5.78-0.1c0.43,0-0.09,0.46-0.38,0.52c-0.28,0.03-4.35,0.14-4.88,0.16
			c-0.53,0.02-0.63,0.44-0.89,0.25C68.08,70.78,68.6,70.2,68.7,70.16"/>
		<path d="M71.14,69.24c0,0,0.27-0.21,0.53-0.1c0.26,0.1,0.02,0.47-0.09,0.82c-0.1,0.37-0.17,1.47-0.17,1.47l-0.24,0.26
			c0,0-0.39-0.03-0.4-0.32C70.75,70.76,70.87,69.34,71.14,69.24"/>
		<path d="M73.2,73.4c-0.22,0.06-0.91,0.17-0.91,0.09c0-0.09,0.05-1.47,0.05-1.47S72.87,72,73.14,72c0.28,0,0.33-0.02,0.33,0.17
			C73.47,72.37,73.4,73.33,73.2,73.4 M71.74,73.59c-0.16,0.1-0.84,0.12-1.03,0.12c-0.19,0-0.19-0.06-0.19-0.36
			c0-0.29-0.11-1.23,0.17-1.31c0,0,0.97-0.1,1.07-0.06c0.12,0.02,0.05,0.49,0.05,0.89C71.81,73.26,71.88,73.51,71.74,73.59
			 M70.02,73.59c-0.09,0.28-0.76,0.19-1.08,0.14c-0.14,0-0.55-1.23-0.33-1.31c0,0,1.16-0.35,1.27-0.15
			C69.97,72.49,70.1,73.3,70.02,73.59 M74.3,71.85c-0.02-0.23-0.74-0.43-2.51-0.46c-1.76-0.02-3.98,0.66-3.98,0.66
			c-0.23,0.26,0.04,0.8,0.19,1.31c0.11,0.4,0.38,0.93,0.62,0.96c0.56,0.07,2.54-0.1,3.64-0.18c1.1-0.08,1.38-0.14,1.61-0.43
			C74.1,73.44,74.31,72.09,74.3,71.85"/>
		<path d="M66.43,76.52c0,0,1.66-1.25,1.88-1.43c0.24-0.19,0.58,0.07,0.79,0.17c0.21,0.08,3,1.52,4.39,1.45
			c0.95-0.07,1.85-0.8,1.85-0.79c0,0,0.12,0.28-0.07,0.58c-0.19,0.33-1.02,1.26-2.34,1.07c-0.92-0.14-3.49-1.59-4.13-1.92
			c-0.16-0.05-0.25-0.05-0.42,0.08c-0.17,0.15-1.15,1-1.38,1.19c-0.24,0.19-0.3,0.13-0.49,0C66.32,76.76,66.27,76.63,66.43,76.52"/>
		<path d="M71.16,75.42c0,0,0.26-0.12,0.54-0.1c0.27,0.02,0.43,0.17,0.6-0.02c0.16-0.21,0.02-0.41-0.33-0.51
			c-0.33-0.11-0.85-0.06-1.13,0.3C70.67,75.31,70.99,75.5,71.16,75.42"/>
		<path d="M73.43,74.86c0,0,0.8,0.48,1.06,0.49c0.27,0.01,0.38-0.09,0.16-0.41c-0.23-0.31-0.6-0.51-1.06-0.5
			C73.29,74.45,73.34,74.79,73.43,74.86"/>
		<path d="M61.36,73.98c0,0,0.76-1.28,1.25-1.49c-0.54-0.12-1.23,0.71-1.23,0.71L61.36,73.98z"/>
		<path d="M631.17,42.94c-2.71-2.55-5.83-4.37-9.19-5.26c0.38-0.48,0.8-0.93,1.24-1.43c3.36,0.96,6.39,2.78,9.06,5.29L631.17,42.94z
			 M625.93,50.52v-2.94h-11.24l-0.03,2.94H625.93z M625.93,43.22h-11.27v2.67l11.27-0.03V43.22z M619.44,35.69
			c-1.51,2.43-3.7,4.38-6.02,5.73l6.02,0.07V35.69z M625.93,53.81v-1.55h-11.29l0.02,1.55h-1.68V41.77
			c-1.15,0.67-2.38,1.2-3.65,1.65l-1.24-1.5c3.44-1.08,6.82-3,9.25-6.18h-7.95v-1.69l10.05-0.04l0.01-2.64
			c-2.72,0.17-5.5,0.45-8.33,0.45l-1.18-1.71l5.86-0.17c1.95-0.05,3.88-0.26,5.76-0.54l4.41-0.67c0.91-0.14,1.8-0.39,2.68-0.66
			l1.3,1.33c-2.75,0.89-5.82,1.35-8.81,1.74v2.92h10.14l0.03,1.69h-10.17v5.75h6.48l0.03,12.32H625.93z"/>
		<path d="M657.88,36.37h5.14V32.8h-5.14V36.37z M657.05,46.01h6.96v-3.29h-6.96V46.01z M658.21,38.06
			c-0.33,1.11-1.03,2.08-1.75,3.02h8.37c-0.79-0.94-1.41-1.97-2.03-3.02H658.21z M657.52,52.65c-1.31,0-2.15-0.66-2.15-1.78v-8.52
			c-0.97,0.77-1.77,1.51-2.81,2.08l-1.09-1.42c2.11-1.02,3.93-2.73,4.96-4.96h-4.53v-1.69h4.28V32.8h-3.21v-1.68h3.21v-3.34h1.71
			v3.34h5.14v-3.34h1.71v3.34h3.2v1.68h-3.2v3.57h4.33v1.69h-4.4c0.68,1.73,3.1,3.93,5.62,5.17l-1.16,1.41
			c-1.25-0.6-2.48-1.55-3.44-2.65v5.66h-8.64v2.49c0,0.52,0.26,0.88,0.95,0.88h7.56c1.51,0,1.27-1.72,1.33-2.88h1.71
			c-0.15,1.89-0.15,4.51-2.55,4.51H657.52z M650.53,33.43c-0.7-1.58-2.87-3-4.12-3.37l1.29-1.2c1.58,0.61,3.14,1.7,4.13,3.27
			L650.53,33.43z M645.6,52.72c2.2-2.39,3.47-6.83,3.98-10.27l1.55,0.54c-0.52,3.82-1.77,7.56-3.89,10.66L645.6,52.72z
			 M649.34,39.93c-0.79-1.54-2.35-2.91-3.97-3.54l1.01-1.26c1.68,0.55,3.53,2.02,4.29,3.6L649.34,39.93z"/>
		<path d="M693.52,34.94c0.22-2.35,0.24-4.94,0.2-7.42c0.63,0.11,1.21,0.14,1.83,0.25c0.09,2.42,0.04,4.82-0.14,7.12h10.12l0.03,1.9
			h-8.31c0.59,4.66,2.39,8.98,5.96,12.23c1.11,1.01,2.32,1.8,3.51,2.57l-1.26,1.54c-3.73-2.3-7.2-6.18-8.6-10.46
			c-0.61-1.83-1.06-3.85-1.32-5.92c-0.25,0.06-0.08,0.05-0.19,0.05c-0.14,0.65-0.19,0.87-0.35,1.55c-0.68,2.57-1.52,5.12-2.8,7.38
			c-1.34,2.34-3.2,4.33-5.34,5.88c-0.68,0.5-1.37,1.02-2.11,1.35c-0.46-0.53-0.91-1.1-1.32-1.69c3.89-1.8,7.29-5.64,8.69-9.83
			c0.52-1.54,1.1-3.26,1.15-4.68h-8.58l0.02-1.82H693.52z"/>
		<path d="M728.41,32.4c0.78-0.42,1.63-0.92,2.38-1.52c-0.63-0.37-1.41-0.49-2.1-0.72l-0.49-0.1l0.66-1.32
			c1.13,0.27,2.2,0.61,3.21,1.06l0.12-0.03c0.64-0.61,1.22-1.32,1.72-2.04l1.08,0.92c-0.37,0.68-0.9,1.26-1.47,1.87
			c0.68,0.53,1.38,1.04,2.01,1.7l-1.02,1.31c-0.65-0.74-1.38-1.41-2.24-1.89c-0.92,0.66-1.71,1.29-2.7,1.85L728.41,32.4z
			 M734.56,39.51c-0.65-0.8-1.52-1.53-2.37-2.11l-0.12,0.03c-0.94,0.75-2.01,1.38-3.06,1.92l-1.16-1.1c0.86-0.56,1.96-1,2.84-1.73
			c-0.74-0.5-1.65-0.7-2.47-0.94l0.96-1.19c0.57,0.03,1.14,0.37,1.66,0.55l1.16,0.53c0.58-0.49,1.06-1.08,1.62-1.62l1.04,0.94
			c-0.44,0.49-0.82,1.07-1.34,1.52c0.76,0.62,1.62,1.2,2.34,1.96L734.56,39.51z M736.04,37.48l0.03-1.52l4.02-0.02l0.21-2.01h-4.28
			v-1.59l4.44,0.04l0.17-1.7h-5.24v-1.61l7.01,0.03l-1.08,10.78h1.88l0.03,4.01h-1.64v-2.35h-19.2v2.51h-1.64v-4.18l1.91,0.02
			l-0.97-9.9c1.99-0.26,3.84-0.98,5.45-2.25l0.96,1.33c-1.38,1.09-2.96,1.76-4.66,2.11l0.11,1.36l4.44,0.01v1.51h-4.29l0.23,2.03
			h4.06v1.52h-3.89l0.2,2.27h15.37l0.27-2.4H736.04z M733.25,51.75c0,1.17-0.4,1.71-1.41,1.95c-1.29,0.14-2.38,0.14-3.72,0.1
			l-1.27-1.78h3.55c1.01-0.18,1.11-0.41,1.11-1.05v-2.11h-11.55v-1.58h11.6v-1.17c1.38-0.47,2.71-1.02,4.03-1.48l-11.16-0.03v-1.62
			h14.8v1.55c-1.94,0.98-3.96,1.71-6.01,2.44v0.31h10.99v1.58h-10.96V51.75z"/>
		<path d="M633.66,79.28v-2.25l-4.97,0.03v2.24L633.66,79.28z M628.69,74.38h4.97v-2.05h-4.97V74.38z M626.07,95.17v-3.49h-7.97V89
			h7.94l0.03-2.19h-6.62v-2.65h6.59l0.03-2.18h-5.95v-2.69h5.95l-0.03-2.21l-8.27-0.03v-2.66l8.27-0.04v-2.01h-5.92v-2.65l5.92-0.04
			v-2.87h2.66l0.03,2.87l7.6,0.04v4.7h2.28v2.66h-2.28v4.94l-7.63-0.05v2.23l8.05-0.05v2.7h-8.02L628.69,89h9.95l0.02,2.68
			l-9.97-0.03l0.03,3.52H626.07z M638.55,98.37h-13.34c-4.09,0-7.9-1.05-10.86-3.51c-0.78,1.34-2.83,3.74-4,4.91l-1.99-2.04
			c1.68-1.71,3.08-3.27,4.05-4.9c-1.31-1.54-2.37-3.63-3.4-5.87l2.15-1.3c0.91,1.78,1.71,3.73,2.63,4.81
			c1.34-2.59,1.43-4.72,1.62-6.65h-5.98v-2.33c2.53-2.76,4.59-6.02,5.78-8.86h-6.38l0.05-2.69l9.17,0.03l0.04,2.43
			c-1.12,2.81-2.8,6.03-5.04,8.73l5,0.02c-0.03,2.18-0.29,6.72-2.46,11.3c3.34,3.28,8.24,3.4,13.28,3.28
			c2.78-0.03,6.88-0.14,10.71-0.36L638.55,98.37z"/>
		<path d="M644.66,83.9c2.34-0.14,4.11-0.51,5.67-0.81v-3.28h-4.31V77.1l11.06-0.03v2.74h-4.09l-0.03,2.71
			c1.38-0.1,3-0.66,4.95-0.94v2.61l-11.79,2.31L644.66,83.9z M654.76,72.56c0.13,0.27,1.11,1.52,1.32,2.84l-2.27,1.07
			c-0.49-1.62-1.23-2.99-2.13-3.88l-1.79-0.03c-0.8,1.23-1.96,2.65-3.37,3.91l-2.43-1.55c2.68-2.24,4.86-4.9,5.73-8.25l2.31,1.22
			c-0.37,0.96-0.69,1.73-0.82,2.02h8.65v2.37c1.41-1.74,2.45-3.71,2.8-5.96l2.32,1.05c-0.18,1.12-0.56,1.94-0.66,2.36H674v2.69
			h-5.12c0.11,0.15,0.59,0.82,1.23,2.18l-2.47,1.07c-0.44-1.59-0.83-2.55-1.71-3.25h-2.8c-0.81,1.23-1.61,2.29-2.92,3.3l-2.25-1.36
			c0.56-0.55,1.23-1.2,1.75-1.78H654.76z M669.97,83.52c0,0.89,1.51,0.77,1.46,0.05c0.11-0.83,0.21-1.75,0.21-2.99l2.52,0.83
			c-0.39,1.89-0.34,4.4-2.27,5.22c-1.08,0.44-2.59,0.14-3.49-0.6c-0.82-0.67-1.1-1.69-1.1-2.69v-4.77H665
			c-0.09,1.08-0.22,2.23-0.65,3.25c0.66,0.65,1.62,1.37,2.59,2.42l-1.68,1.98c-0.91-1-1.57-1.74-2.2-2.14
			c-1.03,1.28-2.66,2.41-4.05,2.78l1.68,0.07v1.64l12.91-0.02v2.7l-9.46-0.03c1.06,0.81,4.48,3.64,11.11,4.09l-1.4,2.64
			c-5.23-0.62-9.79-2.64-13.17-6.26v8.05h-2.72V91.8c-3.08,3.81-7.88,5.12-12.86,6.36l-1.61-2.66c4.18-0.52,8.38-2.14,11.28-4.18
			l-9.63-0.06v-2.7h12.82v-1.18c-0.58,0.23-1.25,0.32-1.96,0.4l-1.65-2.43c2.92-0.33,5.21-0.96,6.55-2.71
			c-0.58-0.32-1.42-0.77-2.87-1.1l1.73-1.99c1.03,0.3,1.77,0.66,2.33,0.92c0.15-0.44,0.35-1.29,0.32-1.89h-4.42v-2.69h11.94
			L669.97,83.52z"/>
		<path d="M697.49,81.79c-1.05-1.26-2.22-1.99-2.82-2.51c-1.25,1-2.49,1.6-3.96,2.37l-1.71-1.55c1.33-0.56,2.67-1.58,3.43-2.19
			c-0.54-0.33-1.6-0.6-3.09-1.06l1.56-1.9c1.28,0.08,2.36,0.71,3.62,1.33c0.55-0.51,1.15-1.2,1.99-2.08l1.72,1.51
			c-0.73,0.85-1.19,1.57-1.64,1.95c0.7,0.55,1.75,1.25,2.87,2.44l-1.47,1.69h5.78l0.31-2.45l-4.8,0.05l0.04-2.46h4.97l0.24-1.97
			l-5.26,0.04l0.04-2.53l5.43,0.04l0.17-1.59h-6.27V68.4l9.04,0.03l-1.29,13.4l2.28-0.04l0.03,5.55h-2.55v-2.93l-23.3,0.04l0.02,3.1
			h-2.59v-5.76l2.33,0.04l-1.21-12.3c2.74-0.33,4.93-1.17,7.13-2.92l1.41,2.08c-1.92,1.51-3.89,2.42-5.8,2.81l0.13,1.17h5.42
			c1.24-0.63,2.29-1.29,2.8-1.69c-0.96-0.37-2.15-0.74-3.1-0.9l1.08-2.12c1.54,0.52,3.06,0.83,4.17,1.31
			c0.84-0.84,1.44-1.58,2.18-2.69l1.77,1.52c-0.62,1.07-1.29,1.82-1.77,2.32c0.59,0.44,1.35,1,2.35,2.08l-1.51,2.14
			c-1.02-1.15-1.86-1.96-2.76-2.45c-1.07,0.7-2.04,1.53-3.45,2.3l-1.64-1.45v2.11h-5.33l0.25,1.96h5.08v2.48l-4.83-0.03l0.21,2.25
			H697.49z M692.48,96.89c0.83,0,1.14-0.56,1.14-1.32v-2.04h-14.34v-2.5l14.41-0.04v-1.4c1.89-0.61,3.53-1.28,3.8-1.31l-12.62-0.05
			v-2.59h18.89l-0.02,2.41c-2.54,1.29-4.96,2.13-7.3,2.92l13.45,0.03v2.54h-13.57v3.09c0,1.54-0.63,2.73-2.09,2.9
			c-1.63,0.19-2.88,0.19-4.68,0.15l-1.99-2.78H692.48z"/>
		<path d="M740.45,79.72h-13.19v-2.69h13.19V79.72z M740.5,76.67l-0.03-3.26h-13.26v3.47l-2.66-0.02l0.05-6.1h8.05
			c-0.67-0.92-2.46-1.93-4.17-2.33l1.62-2.04c2.16,0.44,4.06,1.75,5.53,3.81l-0.63,0.48l8.14,0.07l0.03,5.9H740.5z M725.34,83.24
			l17.22,0.03l-0.04,2.67h-4.86v8.59c0.09,0.75,0.33,0.97,1.03,0.89h1.96c0.91,0,1.33-1.21,1.75-5.3l2.56,1.36
			c-0.93,4.17-1.25,6.56-4.33,6.6l-2.85,0.04c-2.31,0.03-2.74-1.71-2.74-3.06v-9.12h-2.52c-0.36,4.23-0.39,11.07-10.14,14.13
			l-1.71-2.41c7.55-1.94,9.18-6.31,9.08-11.72h-4.41V83.24z M718.02,87.33c1.22,0.54,2.86,1.39,3.6,0.32
			c1.01-2.17,0.18-4.91-1.5-6.6l-1.48-1.52l2.98-8.38l-3.6-0.05V87.33z M715.37,100V68.48h9.06v2.34l-2.77,8.08
			c0.66,1.01,1.62,2.11,2.17,3.39c1.05,2.04,1.14,5.25-0.17,7.13c-1.03,1.43-2.46,1.96-5.35,1.08l-0.23-1.89L718.02,100H715.37z"/>
		<path d="M145.52,74.69h-2.62v-5.01h2.62v-3.65c0-4.73,2.53-6.92,6.88-6.92h2.18v5.01h-0.87c-1.48,0-2.02,0.56-2.02,1.97v3.6h2.81
			v5.01h-2.81v24.3h-6.18V74.69z"/>
		<path d="M171.16,84.18c-1.12,1.11-6.99,2.55-6.99,6.61c0,2.36,1.34,3.72,3.21,3.72c1.71,0,3.77-0.93,3.77-2.72V84.18z
			 M158.44,78.28c0.32-5.93,4.13-9.15,9.91-9.15c5.73,0,8.97,2.6,8.97,7.95v18.8c0,0.92,0.22,2.11,0.39,3.11h-5.49
			c-0.56-0.72-0.75-2.78-0.75-2.78c-0.83,2.02-3.56,3.32-6.52,3.32c-4.18,0-6.95-3.27-6.95-7.67c0-9.52,13.15-11.34,13.15-14.57
			v-0.41c0-1.53-0.99-2.74-3.03-2.74c-2.8,0-3.4,1.62-3.51,4.14H158.44z"/>
		<path d="M195.73,79.7v-0.75c0-3.39-1.21-4.81-3.41-4.81c-2.21,0-3.42,1.42-3.42,4.81v10.78c0,3.37,1.21,4.79,3.42,4.79
			c2.2,0,3.41-1.41,3.41-4.79v-1.86h6.17v0.75c0,6.45-2.53,10.91-9.58,10.91c-7.05,0-9.57-4.45-9.57-10.91v-8.58
			c0-6.44,2.53-10.91,9.57-10.91c6.94,0,9.47,4.31,9.58,10.57H195.73z"/>
		<rect x="231.87" y="59.65" width="6.17" height="39.34"/>
		<path d="M242.41,74.69v-5.01h2.62v-7.89h6.17v7.89h2.81v5.01h-2.81v16.88c0,1.53,0.66,2.39,2.09,2.39h0.72v5.24
			c-0.57,0.26-1.46,0.32-1.77,0.32c-4.63,0-7.22-2.12-7.22-6.59V74.69H242.41z"/>
		<path d="M271.99,69.68h6.22l-7.77,31.49c-1.32,5.33-3.47,7.02-8.09,7.02h-1.69v-5.01h0.58c3.09,0,3.74-1.64,3.74-4.73
			c0-1.2-0.26-2.46-0.65-3.87l-6.45-24.9h6.27l3.97,18.74h0.1L271.99,69.68z"/>
		<path d="M306.32,78.95c0-3.39-1.21-4.8-3.42-4.8c-2.2,0-3.41,1.41-3.41,4.8v10.78c0,3.38,1.22,4.79,3.41,4.79
			c2.2,0,3.42-1.41,3.42-4.79V78.95z M293.32,80.04c0-6.44,2.53-10.91,9.57-10.91c7.07,0,9.59,4.47,9.59,10.91v8.58
			c0,6.45-2.52,10.91-9.59,10.91c-7.04,0-9.57-4.46-9.57-10.91V80.04z"/>
		<path d="M399.78,79.7v-0.75c0-3.39-1.21-4.81-3.41-4.81c-2.2,0-3.4,1.42-3.4,4.81v10.78c0,3.37,1.2,4.79,3.4,4.79
			c2.21,0,3.41-1.41,3.41-4.79v-1.86h6.17v0.75c0,6.45-2.53,10.91-9.59,10.91c-7.04,0-9.57-4.45-9.57-10.91v-8.58
			c0-6.44,2.53-10.91,9.57-10.91c6.94,0,9.48,4.31,9.59,10.57H399.78z"/>
		<path d="M357.69,84.18c-1.12,1.11-6.99,2.55-6.99,6.61c0,2.36,1.36,3.72,3.21,3.72c1.71,0,3.78-0.93,3.78-2.72V84.18z
			 M344.97,78.28c0.33-5.93,4.13-9.15,9.91-9.15c5.73,0,8.96,2.6,8.96,7.95v18.8c0,0.92,0.22,2.11,0.4,3.11h-5.48
			c-0.56-0.72-0.75-2.78-0.75-2.78c-0.85,2.02-3.57,3.32-6.53,3.32c-4.18,0-6.96-3.27-6.96-7.67c0-9.52,13.16-11.34,13.16-14.57
			v-0.41c0-1.53-0.98-2.74-3.02-2.74c-2.81,0-3.42,1.62-3.53,4.14H344.97z"/>
		<path d="M370.09,98.99V69.68h5.89v4.4h0.12c1.15-2.55,3.29-4.95,7.01-4.95v7.43c0,0-1.62-0.64-3.31-0.03
			c-2.02,0.7-3.53,1.99-3.53,5.6v16.86H370.09z"/>
		<path d="M435.44,69.67h6.15v29.31h-6.15V69.67z M435.44,65.21l-0.18-5.57h6.16l0.17,5.57H435.44z"/>
		<path d="M475.61,80.46v-1.52c0-3.39-1.21-4.79-3.41-4.79c-2.21,0-3.42,1.4-3.42,4.79v1.52H475.61z M481.77,85.49h-12.98v4.25
			c0,3.38,1.21,4.78,3.42,4.78c2.2,0,3.41-1.4,3.41-4.78v-0.65h6.16c-0.09,6.2-2.69,10.45-9.57,10.45c-7.07,0-9.59-4.45-9.59-10.91
			v-8.6c0-6.43,2.53-10.89,9.59-10.89c7.05,0,9.57,4.46,9.57,10.89V85.49z"/>
		<path d="M499.98,79.7v-0.75c0-3.39-1.22-4.81-3.42-4.81c-2.2,0-3.41,1.42-3.41,4.81v10.78c0,3.37,1.21,4.79,3.41,4.79
			c2.2,0,3.42-1.41,3.42-4.79v-1.86h6.18v0.75c0,6.45-2.54,10.91-9.6,10.91c-7.06,0-9.59-4.45-9.59-10.91v-8.58
			c0-6.44,2.53-10.91,9.59-10.91c6.94,0,9.48,4.31,9.6,10.57H499.98z"/>
		<path d="M579.57,80.46v-1.52c0-3.39-1.22-4.79-3.44-4.79c-2.18,0-3.39,1.4-3.39,4.79v1.52H579.57z M585.72,85.49h-12.99v4.25
			c0,3.38,1.21,4.78,3.39,4.78c2.22,0,3.44-1.4,3.44-4.78v-0.65h6.16c-0.09,6.2-2.69,10.45-9.59,10.45c-7.03,0-9.57-4.45-9.57-10.91
			v-8.6c0-6.43,2.55-10.89,9.57-10.89c7.08,0,9.59,4.46,9.59,10.89V85.49z"/>
		<path d="M550.02,98.99V69.68h5.88v4.4h0.12c1.14-2.55,3.28-4.95,6.99-4.95v7.43c0,0-1.61-0.64-3.32-0.03
			c-2,0.7-3.51,1.99-3.51,5.6v16.86H550.02z"/>
		<path d="M411.19,98.99l-0.21-39.34h5.85l0.19,13.99c1.48-2.97,3.27-4.52,6.83-4.52c3.27,0,5.83,2.29,5.83,6.49v23.37h-6.18V76.27
			c0-1.48-0.87-2.12-2.19-2.12c-1.33,0-3.97,1.63-3.97,4.07v20.77H411.19z"/>
		<path d="M225.85,69.68v29.31h-5.83v-3.44c-1.03,2.29-3.28,3.98-6.87,3.98c-3.24,0-5.8-2.31-5.8-6.5V69.68h6.17v22.73
			c0,1.46,0.88,2.11,2.2,2.11c1.33,0,3.97-1.64,3.97-4.08V69.68H225.85z"/>
		<path d="M446.43,74.69v-5.01h2.62v-7.89h6.17v7.89h2.81v5.01h-2.81v16.88c0,1.53,0.66,2.39,2.1,2.39h0.72v5.24
			c-0.57,0.26-1.46,0.32-1.77,0.32c-4.63,0-7.21-2.12-7.21-6.59V74.69H446.43z"/>
		<path d="M509.72,74.69v-5.01h2.63v-7.89h6.17v7.89h2.82v5.01h-2.82v16.88c0,1.53,0.66,2.39,2.09,2.39h0.73v5.24
			c-0.59,0.26-1.49,0.33-1.78,0.33c-4.63,0-7.21-2.13-7.21-6.6V74.69H509.72z"/>
		<path d="M544.63,69.68v29.31h-5.83v-3.44c-1.03,2.29-3.3,3.99-6.87,3.99c-3.25,0-5.82-2.32-5.82-6.5V69.68h6.18v22.73
			c0,1.46,0.88,2.11,2.21,2.11c1.32,0,3.95-1.64,3.95-4.08V69.68H544.63z"/>
		<path d="M319.31,74.69h-2.63v-5.01h2.63v-3.65c0-4.73,2.53-6.92,6.88-6.92h2.2v5.01h-0.87c-1.49,0-2.04,0.56-2.04,1.97v3.6h2.81
			v5.01h-2.81v24.3h-6.17V74.69z"/>
		<polygon points="150.64,32.32 150.64,51.96 148.21,51.96 148.21,32.32 142.66,32.32 142.66,29.74 155.98,29.74 155.98,32.32 		"/>
		<polygon points="171.36,51.96 171.36,41.2 163.15,41.2 163.15,51.96 160.92,51.96 160.92,29.73 163.15,29.73 163.15,38.86 
			171.36,38.86 171.36,29.73 173.59,29.73 173.59,51.96 		"/>
		<polygon points="182.78,32.08 182.78,39.1 190.58,39.1 190.58,41.45 182.78,41.45 182.78,49.62 191.03,49.62 191.03,51.95 
			180.35,51.95 180.35,29.73 191.24,29.73 191.24,32.08 		"/>
		<path d="M213.44,52.45c-5.57,0-6.67-2.6-6.67-6.82v-15.9h2.43v15.9c0,3.55,1.55,4.47,4,4.47c2.9,0,4.02-1.64,4.02-4.91V29.73h2.42
			v16.84C219.64,48.7,218.98,52.45,213.44,52.45"/>
		<polygon points="235.28,51.96 228.59,31.62 228.59,51.96 226.16,51.96 226.16,29.73 230.17,29.73 236.82,49.85 236.82,29.73 
			239.25,29.73 239.25,51.96 		"/>
		<rect x="246.2" y="29.74" width="2.43" height="22.22"/>
		<polygon points="263.13,51.96 260.21,51.96 254.46,29.73 256.88,29.73 261.76,50.33 266.91,29.73 269.34,29.73 		"/>
		<polygon points="276.26,32.08 276.26,39.1 284.05,39.1 284.05,41.45 276.26,41.45 276.26,49.62 284.49,49.62 284.49,51.95 
			273.82,51.95 273.82,29.73 284.72,29.73 284.72,32.08 		"/>
		<path d="M296.51,32.08h-3.33v7.73h3.79c2.66,0,4.01-1.68,3.77-4.22C300.53,32.99,299.19,32.08,296.51,32.08 M301.43,51.96
			c-1.57-3.26,0.87-9.83-4-9.83h-4.24v9.83h-2.42V29.73h6.22c2.88,0,6,0.72,6.43,5.62c0.22,3.04-1.98,5.15-3.99,5.39
			c0.88,0.23,2.88,0.23,3.34,2.83c0.23,2.32,0.47,7.93,1.54,7.7v0.7H301.43z"/>
		<path d="M315.56,52.5c-2.1,0-4.58-0.63-5.77-3.53c-0.46-1.1-0.43-2.88-0.46-4.09h2.34c-0.11,3.31,0.49,5.4,4.01,5.4
			c2.37,0,4.04-1.28,4.04-3.9c0-3.4-1.3-3.42-3.44-4.28c-1.17-0.49-3.02-1.09-4.16-1.73c-2-1.07-2.5-2.86-2.5-5.05
			c0-3.68,2.46-6.11,5.9-6.11c3.85,0,6.23,2.13,6,6.32h-2.33c0.16-2.33-1.03-4.07-3.36-4.07c-3.43,0-3.79,2.26-3.79,3.96
			c0,1.57,0.66,2.51,1.99,3.04c1.14,0.44,2.24,0.87,3.36,1.33c4.02,1.58,4.75,3.07,4.75,5.99C322.14,50.03,319.63,52.5,315.56,52.5"
			/>
		<rect x="328.28" y="29.74" width="2.44" height="22.22"/>
		<polygon points="344.1,32.32 344.1,51.96 341.66,51.96 341.66,32.32 336.1,32.32 336.1,29.74 349.43,29.74 349.43,32.32 		"/>
		<polygon points="361.48,43.56 361.48,51.96 359.01,51.96 359.01,43.56 352.57,29.73 355.46,29.73 360.14,40.73 364.8,29.73 
			367.47,29.73 		"/>
		<path d="M388.67,31.62c-3.77,0-4.42,4.89-4.42,8.88c0.23,1.38-0.67,10.08,4.66,9.84c5.1,0,4.45-6.32,4.45-9.84
			C393.36,35.82,392.9,31.62,388.67,31.62 M388.91,52.45c-5.79,0-7.12-4.71-7.12-11.95c0.22-3.28-0.45-11.01,7.12-11.25
			c6.22,0,7.12,6.34,7.12,11.48C396.03,44.24,396.23,52.45,388.91,52.45"/>
		<polygon points="404.25,32.08 404.25,39.1 411.38,39.1 411.38,41.45 404.25,41.45 404.25,51.95 401.83,51.95 401.83,29.73 
			411.82,29.73 411.82,32.08 		"/>
		<polygon points="436.68,51.96 436.68,41.2 428.46,41.2 428.46,51.96 426.23,51.96 426.23,29.73 428.46,29.73 428.46,38.86 
			436.68,38.86 436.68,29.73 438.91,29.73 438.91,51.96 		"/>
		<path d="M452.1,31.62c-3.77,0-4.44,4.89-4.44,8.88c0.24,1.38-0.67,10.08,4.66,9.84c5.11,0,4.47-6.32,4.47-9.84
			C456.79,35.82,456.33,31.62,452.1,31.62 M452.33,52.45c-5.77,0-7.11-4.71-7.11-11.95c0.22-3.28-0.45-11.01,7.11-11.25
			c6.24,0,7.12,6.34,7.12,11.48C459.45,44.24,459.68,52.45,452.33,52.45"/>
		<polygon points="474.37,51.96 467.68,31.62 467.68,51.96 465.26,51.96 465.26,29.73 469.26,29.73 475.92,49.85 475.92,29.73 
			478.36,29.73 478.36,51.96 		"/>
		<path d="M496.04,52.14v-3.48h-0.05c-0.62,2.53-2.51,3.85-4.85,3.85c-6.3,0-6.78-6.6-6.78-11.83c0-5.22,0.88-11.47,7.02-11.47
			c4.02,0,6.34,2.76,6.27,6.94h-2.37c-0.03-2.73-1.12-4.65-3.8-4.68c-4.63-0.11-4.68,5.5-4.68,9.29c0,3.39-0.17,9.31,4.01,9.52
			c4.34,0.2,4.74-3.98,4.7-7.53h-4.7v-2.22h7.05v11.61H496.04z"/>
		<polygon points="524.52,51.96 518.97,41.45 516.72,44.24 516.72,51.96 514.3,51.96 514.3,29.73 516.72,29.73 516.72,40.97 
			524.29,29.73 527.41,29.73 520.52,39.09 527.63,51.96 		"/>
		<path d="M538.56,31.62c-3.77,0-4.42,4.89-4.42,8.88c0.23,1.38-0.68,10.08,4.66,9.84c5.1,0,4.45-6.32,4.45-9.84
			C543.26,35.82,542.83,31.62,538.56,31.62 M538.8,52.45c-5.79,0-7.12-4.7-7.12-11.95c0.24-3.28-0.45-11.01,7.12-11.25
			c6.24,0,7.12,6.34,7.12,11.48C545.92,44.24,546.16,52.45,538.8,52.45"/>
		<polygon points="560.83,51.96 554.14,31.62 554.14,51.96 551.71,51.96 551.71,29.73 555.73,29.73 562.39,49.85 562.39,29.73 
			564.83,29.73 564.83,51.96 		"/>
		<path d="M582.52,52.14v-3.48h-0.07c-0.61,2.53-2.48,3.86-4.82,3.86c-6.32,0-6.8-6.61-6.8-11.84c0-5.22,0.87-11.46,7.01-11.46
			c4.03,0,6.33,2.76,6.29,6.93h-2.38c-0.02-2.73-1.12-4.63-3.79-4.68c-4.65-0.1-4.7,5.5-4.7,9.29c0,3.39-0.17,9.31,4.01,9.52
			c4.34,0.2,4.75-3.98,4.72-7.53h-4.72v-2.22h7.06v11.61H582.52z"/>
	</g>
</g>
</svg>
